%TF.GenerationSoftware,KiCad,Pcbnew,6.0.4-6f826c9f35~116~ubuntu20.04.1*%
%TF.CreationDate,2022-07-20T11:28:41+00:00*%
%TF.ProjectId,LION2CELL01D,4c494f4e-3243-4454-9c4c-3031442e6b69,rev?*%
%TF.SameCoordinates,Original*%
%TF.FileFunction,Legend,Top*%
%TF.FilePolarity,Positive*%
%FSLAX46Y46*%
G04 Gerber Fmt 4.6, Leading zero omitted, Abs format (unit mm)*
G04 Created by KiCad (PCBNEW 6.0.4-6f826c9f35~116~ubuntu20.04.1) date 2022-07-20 11:28:41*
%MOMM*%
%LPD*%
G01*
G04 APERTURE LIST*
%ADD10C,0.300000*%
%ADD11C,0.375000*%
%ADD12C,0.050000*%
%ADD13C,0.109220*%
%ADD14C,0.203200*%
%ADD15C,0.150000*%
%ADD16C,0.200000*%
%ADD17C,0.127000*%
%ADD18R,1.524000X1.524000*%
%ADD19R,3.810000X3.810000*%
%ADD20R,1.676400X1.676400*%
%ADD21R,4.000000X4.000000*%
G04 APERTURE END LIST*
D10*
X65971666Y56849666D02*
X66038333Y57049666D01*
X66038333Y57383000D01*
X65971666Y57516333D01*
X65905000Y57583000D01*
X65771666Y57649666D01*
X65638333Y57649666D01*
X65505000Y57583000D01*
X65438333Y57516333D01*
X65371666Y57383000D01*
X65305000Y57116333D01*
X65238333Y56983000D01*
X65171666Y56916333D01*
X65038333Y56849666D01*
X64905000Y56849666D01*
X64771666Y56916333D01*
X64705000Y56983000D01*
X64638333Y57116333D01*
X64638333Y57449666D01*
X64705000Y57649666D01*
X65905000Y59049666D02*
X65971666Y58983000D01*
X66038333Y58783000D01*
X66038333Y58649666D01*
X65971666Y58449666D01*
X65838333Y58316333D01*
X65705000Y58249666D01*
X65438333Y58183000D01*
X65238333Y58183000D01*
X64971666Y58249666D01*
X64838333Y58316333D01*
X64705000Y58449666D01*
X64638333Y58649666D01*
X64638333Y58783000D01*
X64705000Y58983000D01*
X64771666Y59049666D01*
X66038333Y60316333D02*
X66038333Y59649666D01*
X64638333Y59649666D01*
D11*
X67710928Y40147928D02*
X67639500Y40219357D01*
X67568071Y40362214D01*
X67568071Y40719357D01*
X67639500Y40862214D01*
X67710928Y40933642D01*
X67853785Y41005071D01*
X67996642Y41005071D01*
X68210928Y40933642D01*
X69068071Y40076500D01*
X69068071Y41005071D01*
D10*
X44208666Y52836666D02*
X43942000Y52836666D01*
X43808666Y52770000D01*
X43742000Y52703333D01*
X43608666Y52503333D01*
X43542000Y52236666D01*
X43542000Y51703333D01*
X43608666Y51570000D01*
X43675333Y51503333D01*
X43808666Y51436666D01*
X44075333Y51436666D01*
X44208666Y51503333D01*
X44275333Y51570000D01*
X44342000Y51703333D01*
X44342000Y52036666D01*
X44275333Y52170000D01*
X44208666Y52236666D01*
X44075333Y52303333D01*
X43808666Y52303333D01*
X43675333Y52236666D01*
X43608666Y52170000D01*
X43542000Y52036666D01*
X63431666Y56849666D02*
X63498333Y57049666D01*
X63498333Y57383000D01*
X63431666Y57516333D01*
X63365000Y57583000D01*
X63231666Y57649666D01*
X63098333Y57649666D01*
X62965000Y57583000D01*
X62898333Y57516333D01*
X62831666Y57383000D01*
X62765000Y57116333D01*
X62698333Y56983000D01*
X62631666Y56916333D01*
X62498333Y56849666D01*
X62365000Y56849666D01*
X62231666Y56916333D01*
X62165000Y56983000D01*
X62098333Y57116333D01*
X62098333Y57449666D01*
X62165000Y57649666D01*
X63498333Y58249666D02*
X62098333Y58249666D01*
X62098333Y58583000D01*
X62165000Y58783000D01*
X62298333Y58916333D01*
X62431666Y58983000D01*
X62698333Y59049666D01*
X62898333Y59049666D01*
X63165000Y58983000D01*
X63298333Y58916333D01*
X63431666Y58783000D01*
X63498333Y58583000D01*
X63498333Y58249666D01*
X63098333Y59583000D02*
X63098333Y60249666D01*
X63498333Y59449666D02*
X62098333Y59916333D01*
X63498333Y60383000D01*
D11*
X13378571Y21637571D02*
X13378571Y20780428D01*
X13378571Y21209000D02*
X11878571Y21209000D01*
X12092857Y21066142D01*
X12235714Y20923285D01*
X12307142Y20780428D01*
D10*
X43475333Y60075666D02*
X44342000Y60075666D01*
X43875333Y59542333D01*
X44075333Y59542333D01*
X44208666Y59475666D01*
X44275333Y59409000D01*
X44342000Y59275666D01*
X44342000Y58942333D01*
X44275333Y58809000D01*
X44208666Y58742333D01*
X44075333Y58675666D01*
X43675333Y58675666D01*
X43542000Y58742333D01*
X43475333Y58809000D01*
X29381428Y8211428D02*
X29381428Y9711428D01*
X29952857Y9711428D01*
X30095714Y9640000D01*
X30167142Y9568571D01*
X30238571Y9425714D01*
X30238571Y9211428D01*
X30167142Y9068571D01*
X30095714Y8997142D01*
X29952857Y8925714D01*
X29381428Y8925714D01*
X31167142Y9711428D02*
X31452857Y9711428D01*
X31595714Y9640000D01*
X31738571Y9497142D01*
X31810000Y9211428D01*
X31810000Y8711428D01*
X31738571Y8425714D01*
X31595714Y8282857D01*
X31452857Y8211428D01*
X31167142Y8211428D01*
X31024285Y8282857D01*
X30881428Y8425714D01*
X30810000Y8711428D01*
X30810000Y9211428D01*
X30881428Y9497142D01*
X31024285Y9640000D01*
X31167142Y9711428D01*
X32310000Y9711428D02*
X32667142Y8211428D01*
X32952857Y9282857D01*
X33238571Y8211428D01*
X33595714Y9711428D01*
X34167142Y8997142D02*
X34667142Y8997142D01*
X34881428Y8211428D02*
X34167142Y8211428D01*
X34167142Y9711428D01*
X34881428Y9711428D01*
X36381428Y8211428D02*
X35881428Y8925714D01*
X35524285Y8211428D02*
X35524285Y9711428D01*
X36095714Y9711428D01*
X36238571Y9640000D01*
X36310000Y9568571D01*
X36381428Y9425714D01*
X36381428Y9211428D01*
X36310000Y9068571D01*
X36238571Y8997142D01*
X36095714Y8925714D01*
X35524285Y8925714D01*
X38452857Y9711428D02*
X38738571Y9711428D01*
X38881428Y9640000D01*
X39024285Y9497142D01*
X39095714Y9211428D01*
X39095714Y8711428D01*
X39024285Y8425714D01*
X38881428Y8282857D01*
X38738571Y8211428D01*
X38452857Y8211428D01*
X38310000Y8282857D01*
X38167142Y8425714D01*
X38095714Y8711428D01*
X38095714Y9211428D01*
X38167142Y9497142D01*
X38310000Y9640000D01*
X38452857Y9711428D01*
X39738571Y9711428D02*
X39738571Y8497142D01*
X39810000Y8354285D01*
X39881428Y8282857D01*
X40024285Y8211428D01*
X40310000Y8211428D01*
X40452857Y8282857D01*
X40524285Y8354285D01*
X40595714Y8497142D01*
X40595714Y9711428D01*
X41095714Y9711428D02*
X41952857Y9711428D01*
X41524285Y8211428D02*
X41524285Y9711428D01*
X39262000Y58675666D02*
X38462000Y58675666D01*
X38862000Y58675666D02*
X38862000Y60075666D01*
X38728666Y59875666D01*
X38595333Y59742333D01*
X38462000Y59675666D01*
X25082571Y7893857D02*
X26225428Y7893857D01*
X25654000Y7322428D02*
X25654000Y8465285D01*
X49355333Y60075666D02*
X48688666Y60075666D01*
X48622000Y59409000D01*
X48688666Y59475666D01*
X48822000Y59542333D01*
X49155333Y59542333D01*
X49288666Y59475666D01*
X49355333Y59409000D01*
X49422000Y59275666D01*
X49422000Y58942333D01*
X49355333Y58809000D01*
X49288666Y58742333D01*
X49155333Y58675666D01*
X48822000Y58675666D01*
X48688666Y58742333D01*
X48622000Y58809000D01*
X3981000Y16188428D02*
X3981000Y15117000D01*
X3909571Y14902714D01*
X3766714Y14759857D01*
X3552428Y14688428D01*
X3409571Y14688428D01*
X4623857Y15117000D02*
X5338142Y15117000D01*
X4481000Y14688428D02*
X4981000Y16188428D01*
X5481000Y14688428D01*
X6838142Y14831285D02*
X6766714Y14759857D01*
X6552428Y14688428D01*
X6409571Y14688428D01*
X6195285Y14759857D01*
X6052428Y14902714D01*
X5981000Y15045571D01*
X5909571Y15331285D01*
X5909571Y15545571D01*
X5981000Y15831285D01*
X6052428Y15974142D01*
X6195285Y16117000D01*
X6409571Y16188428D01*
X6552428Y16188428D01*
X6766714Y16117000D01*
X6838142Y16045571D01*
X7481000Y14688428D02*
X7481000Y16188428D01*
X7481000Y15474142D02*
X8338142Y15474142D01*
X8338142Y14688428D02*
X8338142Y16188428D01*
X9338142Y16188428D02*
X9623857Y16188428D01*
X9766714Y16117000D01*
X9909571Y15974142D01*
X9981000Y15688428D01*
X9981000Y15188428D01*
X9909571Y14902714D01*
X9766714Y14759857D01*
X9623857Y14688428D01*
X9338142Y14688428D01*
X9195285Y14759857D01*
X9052428Y14902714D01*
X8981000Y15188428D01*
X8981000Y15688428D01*
X9052428Y15974142D01*
X9195285Y16117000D01*
X9338142Y16188428D01*
X28110571Y53364142D02*
X26610571Y53364142D01*
X26610571Y53721285D01*
X26682000Y53935571D01*
X26824857Y54078428D01*
X26967714Y54149857D01*
X27253428Y54221285D01*
X27467714Y54221285D01*
X27753428Y54149857D01*
X27896285Y54078428D01*
X28039142Y53935571D01*
X28110571Y53721285D01*
X28110571Y53364142D01*
X26610571Y55149857D02*
X26610571Y55435571D01*
X26682000Y55578428D01*
X26824857Y55721285D01*
X27110571Y55792714D01*
X27610571Y55792714D01*
X27896285Y55721285D01*
X28039142Y55578428D01*
X28110571Y55435571D01*
X28110571Y55149857D01*
X28039142Y55007000D01*
X27896285Y54864142D01*
X27610571Y54792714D01*
X27110571Y54792714D01*
X26824857Y54864142D01*
X26682000Y55007000D01*
X26610571Y55149857D01*
X28110571Y56435571D02*
X26610571Y56435571D01*
X28110571Y57292714D01*
X26610571Y57292714D01*
X27324857Y58007000D02*
X27324857Y58507000D01*
X28110571Y58721285D02*
X28110571Y58007000D01*
X26610571Y58007000D01*
X26610571Y58721285D01*
X50580000Y51376333D02*
X50780000Y51309666D01*
X51113333Y51309666D01*
X51246666Y51376333D01*
X51313333Y51443000D01*
X51380000Y51576333D01*
X51380000Y51709666D01*
X51313333Y51843000D01*
X51246666Y51909666D01*
X51113333Y51976333D01*
X50846666Y52043000D01*
X50713333Y52109666D01*
X50646666Y52176333D01*
X50580000Y52309666D01*
X50580000Y52443000D01*
X50646666Y52576333D01*
X50713333Y52643000D01*
X50846666Y52709666D01*
X51180000Y52709666D01*
X51380000Y52643000D01*
X51846666Y52709666D02*
X52180000Y51309666D01*
X52446666Y52309666D01*
X52713333Y51309666D01*
X53046666Y52709666D01*
X54646666Y51309666D02*
X54646666Y52709666D01*
X55180000Y52709666D01*
X55313333Y52643000D01*
X55380000Y52576333D01*
X55446666Y52443000D01*
X55446666Y52243000D01*
X55380000Y52109666D01*
X55313333Y52043000D01*
X55180000Y51976333D01*
X54646666Y51976333D01*
X56313333Y52709666D02*
X56580000Y52709666D01*
X56713333Y52643000D01*
X56846666Y52509666D01*
X56913333Y52243000D01*
X56913333Y51776333D01*
X56846666Y51509666D01*
X56713333Y51376333D01*
X56580000Y51309666D01*
X56313333Y51309666D01*
X56180000Y51376333D01*
X56046666Y51509666D01*
X55980000Y51776333D01*
X55980000Y52243000D01*
X56046666Y52509666D01*
X56180000Y52643000D01*
X56313333Y52709666D01*
X57380000Y52709666D02*
X57713333Y51309666D01*
X57980000Y52309666D01*
X58246666Y51309666D01*
X58580000Y52709666D01*
X59113333Y52043000D02*
X59580000Y52043000D01*
X59780000Y51309666D02*
X59113333Y51309666D01*
X59113333Y52709666D01*
X59780000Y52709666D01*
X61180000Y51309666D02*
X60713333Y51976333D01*
X60380000Y51309666D02*
X60380000Y52709666D01*
X60913333Y52709666D01*
X61046666Y52643000D01*
X61113333Y52576333D01*
X61180000Y52443000D01*
X61180000Y52243000D01*
X61113333Y52109666D01*
X61046666Y52043000D01*
X60913333Y51976333D01*
X60380000Y51976333D01*
X41002000Y59942333D02*
X41068666Y60009000D01*
X41202000Y60075666D01*
X41535333Y60075666D01*
X41668666Y60009000D01*
X41735333Y59942333D01*
X41802000Y59809000D01*
X41802000Y59675666D01*
X41735333Y59475666D01*
X40935333Y58675666D01*
X41802000Y58675666D01*
X21784571Y54951428D02*
X21784571Y55237142D01*
X21856000Y55380000D01*
X21998857Y55522857D01*
X22284571Y55594285D01*
X22784571Y55594285D01*
X23070285Y55522857D01*
X23213142Y55380000D01*
X23284571Y55237142D01*
X23284571Y54951428D01*
X23213142Y54808571D01*
X23070285Y54665714D01*
X22784571Y54594285D01*
X22284571Y54594285D01*
X21998857Y54665714D01*
X21856000Y54808571D01*
X21784571Y54951428D01*
X23284571Y56237142D02*
X21784571Y56237142D01*
X23284571Y57094285D01*
X21784571Y57094285D01*
X69785000Y57522666D02*
X69718333Y57389333D01*
X69718333Y57189333D01*
X69785000Y56989333D01*
X69918333Y56856000D01*
X70051666Y56789333D01*
X70318333Y56722666D01*
X70518333Y56722666D01*
X70785000Y56789333D01*
X70918333Y56856000D01*
X71051666Y56989333D01*
X71118333Y57189333D01*
X71118333Y57322666D01*
X71051666Y57522666D01*
X70985000Y57589333D01*
X70518333Y57589333D01*
X70518333Y57322666D01*
X71118333Y58189333D02*
X69718333Y58189333D01*
X71118333Y58989333D01*
X69718333Y58989333D01*
X71118333Y59656000D02*
X69718333Y59656000D01*
X69718333Y59989333D01*
X69785000Y60189333D01*
X69918333Y60322666D01*
X70051666Y60389333D01*
X70318333Y60456000D01*
X70518333Y60456000D01*
X70785000Y60389333D01*
X70918333Y60322666D01*
X71051666Y60189333D01*
X71118333Y59989333D01*
X71118333Y59656000D01*
X4159571Y13759571D02*
X4231000Y13831000D01*
X4373857Y13902428D01*
X4731000Y13902428D01*
X4873857Y13831000D01*
X4945285Y13759571D01*
X5016714Y13616714D01*
X5016714Y13473857D01*
X4945285Y13259571D01*
X4088142Y12402428D01*
X5016714Y12402428D01*
X5945285Y13902428D02*
X6088142Y13902428D01*
X6231000Y13831000D01*
X6302428Y13759571D01*
X6373857Y13616714D01*
X6445285Y13331000D01*
X6445285Y12973857D01*
X6373857Y12688142D01*
X6302428Y12545285D01*
X6231000Y12473857D01*
X6088142Y12402428D01*
X5945285Y12402428D01*
X5802428Y12473857D01*
X5731000Y12545285D01*
X5659571Y12688142D01*
X5588142Y12973857D01*
X5588142Y13331000D01*
X5659571Y13616714D01*
X5731000Y13759571D01*
X5802428Y13831000D01*
X5945285Y13902428D01*
X7873857Y12402428D02*
X7016714Y12402428D01*
X7445285Y12402428D02*
X7445285Y13902428D01*
X7302428Y13688142D01*
X7159571Y13545285D01*
X7016714Y13473857D01*
X9159571Y13902428D02*
X8873857Y13902428D01*
X8731000Y13831000D01*
X8659571Y13759571D01*
X8516714Y13545285D01*
X8445285Y13259571D01*
X8445285Y12688142D01*
X8516714Y12545285D01*
X8588142Y12473857D01*
X8731000Y12402428D01*
X9016714Y12402428D01*
X9159571Y12473857D01*
X9231000Y12545285D01*
X9302428Y12688142D01*
X9302428Y13045285D01*
X9231000Y13188142D01*
X9159571Y13259571D01*
X9016714Y13331000D01*
X8731000Y13331000D01*
X8588142Y13259571D01*
X8516714Y13188142D01*
X8445285Y13045285D01*
X10569428Y58757428D02*
X10569428Y60257428D01*
X11140857Y60257428D01*
X11283714Y60186000D01*
X11355142Y60114571D01*
X11426571Y59971714D01*
X11426571Y59757428D01*
X11355142Y59614571D01*
X11283714Y59543142D01*
X11140857Y59471714D01*
X10569428Y59471714D01*
X12355142Y60257428D02*
X12640857Y60257428D01*
X12783714Y60186000D01*
X12926571Y60043142D01*
X12998000Y59757428D01*
X12998000Y59257428D01*
X12926571Y58971714D01*
X12783714Y58828857D01*
X12640857Y58757428D01*
X12355142Y58757428D01*
X12212285Y58828857D01*
X12069428Y58971714D01*
X11998000Y59257428D01*
X11998000Y59757428D01*
X12069428Y60043142D01*
X12212285Y60186000D01*
X12355142Y60257428D01*
X13498000Y60257428D02*
X13855142Y58757428D01*
X14140857Y59828857D01*
X14426571Y58757428D01*
X14783714Y60257428D01*
X15355142Y59543142D02*
X15855142Y59543142D01*
X16069428Y58757428D02*
X15355142Y58757428D01*
X15355142Y60257428D01*
X16069428Y60257428D01*
X17569428Y58757428D02*
X17069428Y59471714D01*
X16712285Y58757428D02*
X16712285Y60257428D01*
X17283714Y60257428D01*
X17426571Y60186000D01*
X17498000Y60114571D01*
X17569428Y59971714D01*
X17569428Y59757428D01*
X17498000Y59614571D01*
X17426571Y59543142D01*
X17283714Y59471714D01*
X16712285Y59471714D01*
X19355142Y58757428D02*
X19355142Y60257428D01*
X20069428Y58757428D02*
X20069428Y60257428D01*
X20926571Y58757428D01*
X20926571Y60257428D01*
X34878095Y31988238D02*
X34878095Y33988238D01*
X35544761Y32559666D01*
X36211428Y33988238D01*
X36211428Y31988238D01*
X38116190Y31988238D02*
X37163809Y31988238D01*
X37163809Y33988238D01*
X38687619Y32559666D02*
X39640000Y32559666D01*
X38497142Y31988238D02*
X39163809Y33988238D01*
X39830476Y31988238D01*
X41163809Y33035857D02*
X41449523Y32940619D01*
X41544761Y32845380D01*
X41640000Y32654904D01*
X41640000Y32369190D01*
X41544761Y32178714D01*
X41449523Y32083476D01*
X41259047Y31988238D01*
X40497142Y31988238D01*
X40497142Y33988238D01*
X41163809Y33988238D01*
X41354285Y33893000D01*
X41449523Y33797761D01*
X41544761Y33607285D01*
X41544761Y33416809D01*
X41449523Y33226333D01*
X41354285Y33131095D01*
X41163809Y33035857D01*
X40497142Y33035857D01*
X42497142Y32178714D02*
X42592380Y32083476D01*
X42497142Y31988238D01*
X42401904Y32083476D01*
X42497142Y32178714D01*
X42497142Y31988238D01*
X44592380Y32178714D02*
X44497142Y32083476D01*
X44211428Y31988238D01*
X44020952Y31988238D01*
X43735238Y32083476D01*
X43544761Y32273952D01*
X43449523Y32464428D01*
X43354285Y32845380D01*
X43354285Y33131095D01*
X43449523Y33512047D01*
X43544761Y33702523D01*
X43735238Y33893000D01*
X44020952Y33988238D01*
X44211428Y33988238D01*
X44497142Y33893000D01*
X44592380Y33797761D01*
X45259047Y33988238D02*
X46592380Y33988238D01*
X45259047Y31988238D01*
X46592380Y31988238D01*
X31306666Y27797238D02*
X30354285Y27797238D01*
X30354285Y29797238D01*
X31973333Y27797238D02*
X31973333Y29797238D01*
X33306666Y29797238D02*
X33687619Y29797238D01*
X33878095Y29702000D01*
X34068571Y29511523D01*
X34163809Y29130571D01*
X34163809Y28463904D01*
X34068571Y28082952D01*
X33878095Y27892476D01*
X33687619Y27797238D01*
X33306666Y27797238D01*
X33116190Y27892476D01*
X32925714Y28082952D01*
X32830476Y28463904D01*
X32830476Y29130571D01*
X32925714Y29511523D01*
X33116190Y29702000D01*
X33306666Y29797238D01*
X35020952Y27797238D02*
X35020952Y29797238D01*
X36163809Y27797238D01*
X36163809Y29797238D01*
X37020952Y29606761D02*
X37116190Y29702000D01*
X37306666Y29797238D01*
X37782857Y29797238D01*
X37973333Y29702000D01*
X38068571Y29606761D01*
X38163809Y29416285D01*
X38163809Y29225809D01*
X38068571Y28940095D01*
X36925714Y27797238D01*
X38163809Y27797238D01*
X40163809Y27987714D02*
X40068571Y27892476D01*
X39782857Y27797238D01*
X39592380Y27797238D01*
X39306666Y27892476D01*
X39116190Y28082952D01*
X39020952Y28273428D01*
X38925714Y28654380D01*
X38925714Y28940095D01*
X39020952Y29321047D01*
X39116190Y29511523D01*
X39306666Y29702000D01*
X39592380Y29797238D01*
X39782857Y29797238D01*
X40068571Y29702000D01*
X40163809Y29606761D01*
X41020952Y28844857D02*
X41687619Y28844857D01*
X41973333Y27797238D02*
X41020952Y27797238D01*
X41020952Y29797238D01*
X41973333Y29797238D01*
X43782857Y27797238D02*
X42830476Y27797238D01*
X42830476Y29797238D01*
X45401904Y27797238D02*
X44449523Y27797238D01*
X44449523Y29797238D01*
X46449523Y29797238D02*
X46640000Y29797238D01*
X46830476Y29702000D01*
X46925714Y29606761D01*
X47020952Y29416285D01*
X47116190Y29035333D01*
X47116190Y28559142D01*
X47020952Y28178190D01*
X46925714Y27987714D01*
X46830476Y27892476D01*
X46640000Y27797238D01*
X46449523Y27797238D01*
X46259047Y27892476D01*
X46163809Y27987714D01*
X46068571Y28178190D01*
X45973333Y28559142D01*
X45973333Y29035333D01*
X46068571Y29416285D01*
X46163809Y29606761D01*
X46259047Y29702000D01*
X46449523Y29797238D01*
X49020952Y27797238D02*
X47878095Y27797238D01*
X48449523Y27797238D02*
X48449523Y29797238D01*
X48259047Y29511523D01*
X48068571Y29321047D01*
X47878095Y29225809D01*
X49878095Y27797238D02*
X49878095Y29797238D01*
X50354285Y29797238D01*
X50640000Y29702000D01*
X50830476Y29511523D01*
X50925714Y29321047D01*
X51020952Y28940095D01*
X51020952Y28654380D01*
X50925714Y28273428D01*
X50830476Y28082952D01*
X50640000Y27892476D01*
X50354285Y27797238D01*
X49878095Y27797238D01*
X46748666Y59609000D02*
X46748666Y58675666D01*
X46415333Y60142333D02*
X46082000Y59142333D01*
X46948666Y59142333D01*
X68578333Y56789333D02*
X67178333Y56789333D01*
X67845000Y56789333D02*
X67845000Y57589333D01*
X68578333Y57589333D02*
X67178333Y57589333D01*
X68578333Y58256000D02*
X67178333Y58256000D01*
X67178333Y58589333D01*
X67245000Y58789333D01*
X67378333Y58922666D01*
X67511666Y58989333D01*
X67778333Y59056000D01*
X67978333Y59056000D01*
X68245000Y58989333D01*
X68378333Y58922666D01*
X68511666Y58789333D01*
X68578333Y58589333D01*
X68578333Y58256000D01*
X68711666Y60589333D02*
X68645000Y60456000D01*
X68511666Y60322666D01*
X68311666Y60122666D01*
X68245000Y59989333D01*
X68245000Y59856000D01*
X68578333Y59922666D02*
X68511666Y59789333D01*
X68378333Y59656000D01*
X68111666Y59589333D01*
X67645000Y59589333D01*
X67378333Y59656000D01*
X67245000Y59789333D01*
X67178333Y59922666D01*
X67178333Y60189333D01*
X67245000Y60322666D01*
X67378333Y60456000D01*
X67645000Y60522666D01*
X68111666Y60522666D01*
X68378333Y60456000D01*
X68511666Y60322666D01*
X68578333Y60189333D01*
X68578333Y59922666D01*
X32920714Y52737142D02*
X32992142Y52665714D01*
X33063571Y52451428D01*
X33063571Y52308571D01*
X32992142Y52094285D01*
X32849285Y51951428D01*
X32706428Y51880000D01*
X32420714Y51808571D01*
X32206428Y51808571D01*
X31920714Y51880000D01*
X31777857Y51951428D01*
X31635000Y52094285D01*
X31563571Y52308571D01*
X31563571Y52451428D01*
X31635000Y52665714D01*
X31706428Y52737142D01*
X33063571Y53380000D02*
X31563571Y53380000D01*
X32277857Y53380000D02*
X32277857Y54237142D01*
X33063571Y54237142D02*
X31563571Y54237142D01*
X32635000Y54880000D02*
X32635000Y55594285D01*
X33063571Y54737142D02*
X31563571Y55237142D01*
X33063571Y55737142D01*
X33063571Y57094285D02*
X32349285Y56594285D01*
X33063571Y56237142D02*
X31563571Y56237142D01*
X31563571Y56808571D01*
X31635000Y56951428D01*
X31706428Y57022857D01*
X31849285Y57094285D01*
X32063571Y57094285D01*
X32206428Y57022857D01*
X32277857Y56951428D01*
X32349285Y56808571D01*
X32349285Y56237142D01*
X31635000Y58522857D02*
X31563571Y58380000D01*
X31563571Y58165714D01*
X31635000Y57951428D01*
X31777857Y57808571D01*
X31920714Y57737142D01*
X32206428Y57665714D01*
X32420714Y57665714D01*
X32706428Y57737142D01*
X32849285Y57808571D01*
X32992142Y57951428D01*
X33063571Y58165714D01*
X33063571Y58308571D01*
X32992142Y58522857D01*
X32920714Y58594285D01*
X32420714Y58594285D01*
X32420714Y58308571D01*
X32277857Y59237142D02*
X32277857Y59737142D01*
X33063571Y59951428D02*
X33063571Y59237142D01*
X31563571Y59237142D01*
X31563571Y59951428D01*
X43601714Y8949428D02*
X43744571Y8949428D01*
X43887428Y8878000D01*
X43958857Y8806571D01*
X44030285Y8663714D01*
X44101714Y8378000D01*
X44101714Y8020857D01*
X44030285Y7735142D01*
X43958857Y7592285D01*
X43887428Y7520857D01*
X43744571Y7449428D01*
X43601714Y7449428D01*
X43458857Y7520857D01*
X43387428Y7592285D01*
X43316000Y7735142D01*
X43244571Y8020857D01*
X43244571Y8378000D01*
X43316000Y8663714D01*
X43387428Y8806571D01*
X43458857Y8878000D01*
X43601714Y8949428D01*
X44673142Y7449428D02*
X45816000Y8949428D01*
X44887428Y8949428D02*
X45030285Y8878000D01*
X45101714Y8735142D01*
X45030285Y8592285D01*
X44887428Y8520857D01*
X44744571Y8592285D01*
X44673142Y8735142D01*
X44744571Y8878000D01*
X44887428Y8949428D01*
X45744571Y7520857D02*
X45816000Y7663714D01*
X45744571Y7806571D01*
X45601714Y7878000D01*
X45458857Y7806571D01*
X45387428Y7663714D01*
X45458857Y7520857D01*
X45601714Y7449428D01*
X45744571Y7520857D01*
X47601714Y8020857D02*
X48744571Y8020857D01*
X49458857Y8020857D02*
X50601714Y8020857D01*
X51316000Y8020857D02*
X52458857Y8020857D01*
X53173142Y8020857D02*
X54316000Y8020857D01*
X55816000Y7449428D02*
X54958857Y7449428D01*
X55387428Y7449428D02*
X55387428Y8949428D01*
X55244571Y8735142D01*
X55101714Y8592285D01*
X54958857Y8520857D01*
X56744571Y8949428D02*
X56887428Y8949428D01*
X57030285Y8878000D01*
X57101714Y8806571D01*
X57173142Y8663714D01*
X57244571Y8378000D01*
X57244571Y8020857D01*
X57173142Y7735142D01*
X57101714Y7592285D01*
X57030285Y7520857D01*
X56887428Y7449428D01*
X56744571Y7449428D01*
X56601714Y7520857D01*
X56530285Y7592285D01*
X56458857Y7735142D01*
X56387428Y8020857D01*
X56387428Y8378000D01*
X56458857Y8663714D01*
X56530285Y8806571D01*
X56601714Y8878000D01*
X56744571Y8949428D01*
X58173142Y8949428D02*
X58316000Y8949428D01*
X58458857Y8878000D01*
X58530285Y8806571D01*
X58601714Y8663714D01*
X58673142Y8378000D01*
X58673142Y8020857D01*
X58601714Y7735142D01*
X58530285Y7592285D01*
X58458857Y7520857D01*
X58316000Y7449428D01*
X58173142Y7449428D01*
X58030285Y7520857D01*
X57958857Y7592285D01*
X57887428Y7735142D01*
X57816000Y8020857D01*
X57816000Y8378000D01*
X57887428Y8663714D01*
X57958857Y8806571D01*
X58030285Y8878000D01*
X58173142Y8949428D01*
X59244571Y7449428D02*
X60387428Y8949428D01*
X59458857Y8949428D02*
X59601714Y8878000D01*
X59673142Y8735142D01*
X59601714Y8592285D01*
X59458857Y8520857D01*
X59316000Y8592285D01*
X59244571Y8735142D01*
X59316000Y8878000D01*
X59458857Y8949428D01*
X60316000Y7520857D02*
X60387428Y7663714D01*
X60316000Y7806571D01*
X60173142Y7878000D01*
X60030285Y7806571D01*
X59958857Y7663714D01*
X60030285Y7520857D01*
X60173142Y7449428D01*
X60316000Y7520857D01*
D12*
%TO.C,J1*%
X19784190Y58943857D02*
X19784190Y58658142D01*
X19784190Y58801000D02*
X19284190Y58801000D01*
X19355619Y58753380D01*
X19403238Y58705761D01*
X19427047Y58658142D01*
%TO.C,J7*%
X31976190Y2301857D02*
X31976190Y2016142D01*
X31976190Y2159000D02*
X31476190Y2159000D01*
X31547619Y2111380D01*
X31595238Y2063761D01*
X31619047Y2016142D01*
%TO.C,J13*%
X59916190Y58689857D02*
X59916190Y58404142D01*
X59916190Y58547000D02*
X59416190Y58547000D01*
X59487619Y58499380D01*
X59535238Y58451761D01*
X59559047Y58404142D01*
D13*
%TO.C,R15*%
X12505327Y42445637D02*
X12338533Y42683913D01*
X12219395Y42445637D02*
X12219395Y42946017D01*
X12410016Y42946017D01*
X12457671Y42922190D01*
X12481499Y42898362D01*
X12505327Y42850707D01*
X12505327Y42779224D01*
X12481499Y42731569D01*
X12457671Y42707741D01*
X12410016Y42683913D01*
X12219395Y42683913D01*
X12981879Y42445637D02*
X12695948Y42445637D01*
X12838913Y42445637D02*
X12838913Y42946017D01*
X12791258Y42874534D01*
X12743603Y42826879D01*
X12695948Y42803051D01*
X13434604Y42946017D02*
X13196328Y42946017D01*
X13172500Y42707741D01*
X13196328Y42731569D01*
X13243983Y42755396D01*
X13363121Y42755396D01*
X13410776Y42731569D01*
X13434604Y42707741D01*
X13458431Y42660086D01*
X13458431Y42540948D01*
X13434604Y42493292D01*
X13410776Y42469465D01*
X13363121Y42445637D01*
X13243983Y42445637D01*
X13196328Y42469465D01*
X13172500Y42493292D01*
%TO.C,R17*%
X68131327Y23141637D02*
X67964533Y23379913D01*
X67845395Y23141637D02*
X67845395Y23642017D01*
X68036016Y23642017D01*
X68083671Y23618190D01*
X68107499Y23594362D01*
X68131327Y23546707D01*
X68131327Y23475224D01*
X68107499Y23427569D01*
X68083671Y23403741D01*
X68036016Y23379913D01*
X67845395Y23379913D01*
X68607879Y23141637D02*
X68321948Y23141637D01*
X68464913Y23141637D02*
X68464913Y23642017D01*
X68417258Y23570534D01*
X68369603Y23522879D01*
X68321948Y23499051D01*
X68774672Y23642017D02*
X69108259Y23642017D01*
X68893810Y23141637D01*
D14*
%TO.C,SW1*%
X65828333Y5049761D02*
X65973476Y5001380D01*
X66215380Y5001380D01*
X66312142Y5049761D01*
X66360523Y5098142D01*
X66408904Y5194904D01*
X66408904Y5291666D01*
X66360523Y5388428D01*
X66312142Y5436809D01*
X66215380Y5485190D01*
X66021857Y5533571D01*
X65925095Y5581952D01*
X65876714Y5630333D01*
X65828333Y5727095D01*
X65828333Y5823857D01*
X65876714Y5920619D01*
X65925095Y5969000D01*
X66021857Y6017380D01*
X66263761Y6017380D01*
X66408904Y5969000D01*
X66747571Y6017380D02*
X66989476Y5001380D01*
X67183000Y5727095D01*
X67376523Y5001380D01*
X67618428Y6017380D01*
X68537666Y5001380D02*
X67957095Y5001380D01*
X68247380Y5001380D02*
X68247380Y6017380D01*
X68150619Y5872238D01*
X68053857Y5775476D01*
X67957095Y5727095D01*
D15*
%TO.C,BT1*%
X26761428Y33825642D02*
X26975714Y33754214D01*
X27047142Y33682785D01*
X27118571Y33539928D01*
X27118571Y33325642D01*
X27047142Y33182785D01*
X26975714Y33111357D01*
X26832857Y33039928D01*
X26261428Y33039928D01*
X26261428Y34539928D01*
X26761428Y34539928D01*
X26904285Y34468500D01*
X26975714Y34397071D01*
X27047142Y34254214D01*
X27047142Y34111357D01*
X26975714Y33968500D01*
X26904285Y33897071D01*
X26761428Y33825642D01*
X26261428Y33825642D01*
X27547142Y34539928D02*
X28404285Y34539928D01*
X27975714Y33039928D02*
X27975714Y34539928D01*
X29690000Y33039928D02*
X28832857Y33039928D01*
X29261428Y33039928D02*
X29261428Y34539928D01*
X29118571Y34325642D01*
X28975714Y34182785D01*
X28832857Y34111357D01*
D16*
X62674595Y21828142D02*
X64198404Y21828142D01*
X16954595Y40878142D02*
X18478404Y40878142D01*
X17716500Y40116238D02*
X17716500Y41640047D01*
X16954595Y21828142D02*
X18478404Y21828142D01*
X17716500Y21066238D02*
X17716500Y22590047D01*
X62674595Y40878142D02*
X64198404Y40878142D01*
D15*
%TO.C,J1*%
X10668000Y58420000D02*
X20828000Y58420000D01*
X20828000Y58420000D02*
X20828000Y53340000D01*
X10668000Y53340000D02*
X10668000Y58420000D01*
X20828000Y53340000D02*
X10668000Y53340000D01*
%TO.C,J2*%
X50292000Y58166000D02*
X50292000Y53086000D01*
X50292000Y53086000D02*
X47752000Y53086000D01*
X47752000Y53086000D02*
X47752000Y58166000D01*
X47752000Y58166000D02*
X50292000Y58166000D01*
%TO.C,J3*%
X37592000Y53086000D02*
X37592000Y58166000D01*
X40132000Y53086000D02*
X37592000Y53086000D01*
X40132000Y58166000D02*
X40132000Y53086000D01*
X37592000Y58166000D02*
X40132000Y58166000D01*
%TO.C,J4*%
X45212000Y53086000D02*
X42672000Y53086000D01*
X42672000Y58166000D02*
X45212000Y58166000D01*
X45212000Y58166000D02*
X45212000Y53086000D01*
X42672000Y53086000D02*
X42672000Y58166000D01*
%TO.C,J5*%
X47752000Y53086000D02*
X45212000Y53086000D01*
X45212000Y58166000D02*
X47752000Y58166000D01*
X45212000Y53086000D02*
X45212000Y58166000D01*
X47752000Y58166000D02*
X47752000Y53086000D01*
%TO.C,J6*%
X42672000Y53086000D02*
X40132000Y53086000D01*
X40132000Y58166000D02*
X42672000Y58166000D01*
X42672000Y58166000D02*
X42672000Y53086000D01*
X40132000Y53086000D02*
X40132000Y58166000D01*
%TO.C,J7*%
X40640000Y2540000D02*
X30480000Y2540000D01*
X30480000Y2540000D02*
X30480000Y7620000D01*
X30480000Y7620000D02*
X40640000Y7620000D01*
X40640000Y7620000D02*
X40640000Y2540000D01*
%TO.C,J9*%
X18438900Y4921000D02*
X18438900Y921000D01*
X20939000Y1420900D02*
X20939000Y4421100D01*
X10438900Y921000D02*
X10438900Y4921000D01*
X9939000Y5421000D02*
X18939000Y5421000D01*
X24439100Y1421000D02*
X26939000Y1421000D01*
X23939000Y4921000D02*
X27440000Y4921000D01*
X18438900Y1921000D02*
X18939000Y1921000D01*
X20939000Y4421000D02*
X23939000Y4421000D01*
X10438900Y921000D02*
X18438900Y921000D01*
X18939000Y5421000D02*
X24939000Y5421000D01*
X18939000Y420900D02*
X18939000Y5421100D01*
X26939000Y1420000D02*
X26939000Y4422000D01*
X10438900Y4921000D02*
X18438900Y4921000D01*
X24439100Y4421000D02*
X26939000Y4421000D01*
X27439100Y4921000D02*
X27439100Y921000D01*
X9939000Y420900D02*
X9939000Y5421100D01*
X23939000Y921000D02*
X27439100Y921000D01*
X18939000Y421000D02*
X9939000Y421000D01*
X24439100Y1420000D02*
X24439100Y4422000D01*
X24939000Y4921000D02*
X24939000Y5421000D01*
X24939000Y421000D02*
X24939000Y921000D01*
X20939000Y1421000D02*
X23939000Y1421000D01*
X18939000Y421000D02*
X24939000Y421000D01*
X23939000Y4921000D02*
X23939000Y921000D01*
X18438900Y3921000D02*
X18939000Y3921000D01*
%TO.C,J10*%
X61595000Y51181000D02*
X61595000Y56261000D01*
X61595000Y56261000D02*
X64135000Y56261000D01*
X64135000Y56261000D02*
X64135000Y51181000D01*
X64135000Y51181000D02*
X61595000Y51181000D01*
%TO.C,J11*%
X66675000Y56261000D02*
X66675000Y51181000D01*
X66675000Y51181000D02*
X64135000Y51181000D01*
X64135000Y51181000D02*
X64135000Y56261000D01*
X64135000Y56261000D02*
X66675000Y56261000D01*
%TO.C,J12*%
X69215000Y51181000D02*
X66675000Y51181000D01*
X69215000Y56261000D02*
X69215000Y51181000D01*
X66675000Y56261000D02*
X69215000Y56261000D01*
X66675000Y51181000D02*
X66675000Y56261000D01*
%TO.C,J13*%
X60960000Y58166000D02*
X60960000Y53086000D01*
X50800000Y53086000D02*
X50800000Y58166000D01*
X50800000Y58166000D02*
X60960000Y58166000D01*
X60960000Y53086000D02*
X50800000Y53086000D01*
%TO.C,R15*%
X13335000Y41148000D02*
X14351000Y41148000D01*
X14351000Y41148000D02*
X14351000Y39624000D01*
X12319000Y39624000D02*
X11303000Y39624000D01*
X14351000Y39624000D02*
X13335000Y39624000D01*
X11303000Y39624000D02*
X11303000Y41148000D01*
X11303000Y41148000D02*
X12319000Y41148000D01*
X11303000Y39624000D02*
G75*
G03*
X11303000Y39624000I-127000J0D01*
G01*
%TO.C,R17*%
X69977000Y21844000D02*
X69977000Y20320000D01*
X66929000Y21844000D02*
X67945000Y21844000D01*
X68961000Y21844000D02*
X69977000Y21844000D01*
X66929000Y20320000D02*
X66929000Y21844000D01*
X67945000Y20320000D02*
X66929000Y20320000D01*
X69977000Y20320000D02*
X68961000Y20320000D01*
X70231000Y21844000D02*
G75*
G03*
X70231000Y21844000I-127000J0D01*
G01*
%TO.C,J8*%
X18939000Y10374000D02*
X24939000Y10374000D01*
X9939000Y5373900D02*
X9939000Y10374100D01*
X20939000Y9374000D02*
X23939000Y9374000D01*
X9939000Y10374000D02*
X18939000Y10374000D01*
X24439100Y9374000D02*
X26939000Y9374000D01*
X18939000Y5373900D02*
X18939000Y10374100D01*
X24939000Y5374000D02*
X24939000Y5874000D01*
X10438900Y9874000D02*
X18438900Y9874000D01*
X23939000Y9874000D02*
X23939000Y5874000D01*
X24939000Y9874000D02*
X24939000Y10374000D01*
X26939000Y6373000D02*
X26939000Y9375000D01*
X27439100Y9874000D02*
X27439100Y5874000D01*
X24439100Y6374000D02*
X26939000Y6374000D01*
X20939000Y6374000D02*
X23939000Y6374000D01*
X18438900Y6874000D02*
X18939000Y6874000D01*
X18438900Y9874000D02*
X18438900Y5874000D01*
X24439100Y6373000D02*
X24439100Y9375000D01*
X10438900Y5874000D02*
X10438900Y9874000D01*
X10438900Y5874000D02*
X18438900Y5874000D01*
X23939000Y9874000D02*
X27440000Y9874000D01*
X23939000Y5874000D02*
X27439100Y5874000D01*
X20939000Y6373900D02*
X20939000Y9374100D01*
X18438900Y8874000D02*
X18939000Y8874000D01*
X18939000Y5374000D02*
X9939000Y5374000D01*
X18939000Y5374000D02*
X24939000Y5374000D01*
D17*
%TO.C,SW1*%
X63373000Y9398000D02*
X63373000Y1778000D01*
X70993000Y9398000D02*
X70993000Y1778000D01*
X70993000Y1778000D02*
X63373000Y1778000D01*
X63373000Y9398000D02*
X70993000Y9398000D01*
X69723000Y5588000D02*
G75*
G03*
X69723000Y5588000I-2540000J0D01*
G01*
D15*
%TO.C,J14*%
X69215000Y51181000D02*
X69215000Y56261000D01*
X71755000Y56261000D02*
X71755000Y51181000D01*
X71755000Y51181000D02*
X69215000Y51181000D01*
X69215000Y56261000D02*
X71755000Y56261000D01*
D16*
%TO.C,BT1*%
X1726500Y10756000D02*
X79426500Y10756000D01*
X79426500Y10756000D02*
X79426500Y50966000D01*
X79426500Y50966000D02*
X1726500Y50966000D01*
X1726500Y50966000D02*
X1726500Y10756000D01*
D15*
X69986500Y21211000D02*
G75*
G03*
X69986500Y21211000I-1600000J0D01*
G01*
X14366500Y40511000D02*
G75*
G03*
X14366500Y40511000I-1600000J0D01*
G01*
X14366500Y21211000D02*
G75*
G03*
X14366500Y21211000I-1600000J0D01*
G01*
X69986500Y40511000D02*
G75*
G03*
X69986500Y40511000I-1600000J0D01*
G01*
%TD*%
D18*
%TO.C,J1*%
X19558000Y57150000D03*
X19558000Y54610000D03*
X17018000Y57150000D03*
X17018000Y54610000D03*
X14478000Y57150000D03*
X14478000Y54610000D03*
X11938000Y57150000D03*
X11938000Y54610000D03*
%TD*%
%TO.C,J2*%
X49022000Y56896000D03*
X49022000Y54356000D03*
%TD*%
%TO.C,J3*%
X38862000Y54356000D03*
X38862000Y56896000D03*
%TD*%
%TO.C,J4*%
X43942000Y54356000D03*
X43942000Y56896000D03*
%TD*%
%TO.C,J5*%
X46482000Y56896000D03*
X46482000Y54356000D03*
%TD*%
%TO.C,J6*%
X41402000Y56896000D03*
X41402000Y54356000D03*
%TD*%
%TO.C,J7*%
X31750000Y3810000D03*
X31750000Y6350000D03*
X34290000Y3810000D03*
X34290000Y6350000D03*
X36830000Y3810000D03*
X36830000Y6350000D03*
X39370000Y3810000D03*
X39370000Y6350000D03*
%TD*%
D19*
%TO.C,J9*%
X19939000Y2921000D03*
X14939000Y2921000D03*
%TD*%
D18*
%TO.C,J10*%
X62865000Y54991000D03*
X62865000Y52451000D03*
%TD*%
%TO.C,J11*%
X65405000Y54991000D03*
X65405000Y52451000D03*
%TD*%
%TO.C,J12*%
X67945000Y54991000D03*
X67945000Y52451000D03*
%TD*%
%TO.C,J13*%
X59690000Y56896000D03*
X59690000Y54356000D03*
X57150000Y56896000D03*
X57150000Y54356000D03*
X54610000Y56896000D03*
X54610000Y54356000D03*
X52070000Y56896000D03*
X52070000Y54356000D03*
%TD*%
D19*
%TO.C,J8*%
X14939000Y7874000D03*
X19939000Y7874000D03*
%TD*%
D20*
%TO.C,SW1*%
X64033000Y7838000D03*
X70333000Y7838000D03*
X64033000Y3338000D03*
X70333000Y3338000D03*
%TD*%
D18*
%TO.C,J14*%
X70485000Y54991000D03*
X70485000Y52451000D03*
%TD*%
D21*
%TO.C,BT1*%
X4326500Y40511000D03*
X76826500Y40511000D03*
X4326500Y21211000D03*
X76826500Y21211000D03*
%TD*%
M02*
