M48
; DRILL file {KiCad 6.0.4-6f826c9f35~116~ubuntu20.04.1} date Wed Jul 20 11:28:41 2022
; FORMAT={-:-/ absolute / metric / decimal}
; #@! TF.CreationDate,2022-07-20T11:28:41+00:00
; #@! TF.GenerationSoftware,Kicad,Pcbnew,6.0.4-6f826c9f35~116~ubuntu20.04.1
; #@! TF.FileFunction,Plated,1,2,PTH
FMAT,2
METRIC
; #@! TA.AperFunction,Plated,PTH,ViaDrill
T1C0.500
; #@! TA.AperFunction,Plated,PTH,ComponentDrill
T2C0.600
; #@! TA.AperFunction,Plated,PTH,ComponentDrill
T3C0.889
; #@! TA.AperFunction,Plated,PTH,ComponentDrill
T4C1.000
; #@! TA.AperFunction,Plated,PTH,ComponentDrill
T5C1.300
; #@! TA.AperFunction,Plated,PTH,ComponentDrill
T6C1.600
; #@! TA.AperFunction,Plated,PTH,ComponentDrill
T7C3.000
%
G90
G05
T1
X1.27Y36.005
X2.54Y50.038
X2.54Y48.768
X2.54Y47.498
X2.54Y46.228
X2.54Y44.958
X2.54Y43.688
X2.857Y17.335
X3.619Y16.066
X4.064Y43.688
X4.127Y33.909
X4.318Y50.038
X4.572Y32.575
X4.635Y17.589
X5.016Y14.986
X5.588Y43.688
X6.096Y50.038
X6.477Y17.589
X7.112Y43.688
X7.175Y14.478
X7.62Y49.276
X7.62Y48.006
X7.62Y24.638
X7.874Y46.228
X8.255Y17.589
X8.89Y24.638
X8.954Y14.478
X9.017Y41.91
X9.144Y40.386
X9.398Y44.323
X9.652Y33.147
X9.779Y17.589
X9.906Y57.404
X9.906Y56.261
X9.906Y55.118
X9.906Y53.848
X9.906Y52.578
X10.414Y45.72
X10.541Y40.386
X10.604Y14.478
X10.922Y34.29
X11.049Y42.672
X11.62Y17.589
X11.684Y45.72
X11.684Y44.45
X12.192Y4.318
X12.192Y3.048
X12.192Y1.524
X12.446Y43.18
X12.446Y26.924
X12.446Y14.541
X12.954Y45.72
X13.271Y17.589
X13.396Y26.305
X13.97Y42.672
X14.224Y45.72
X14.224Y33.147
X14.351Y14.351
X14.668Y15.811
X14.732Y17.209
X14.835Y28.827
X15.331Y39.294
X15.494Y45.72
X15.748Y33.147
X16.764Y45.72
X16.764Y28.956
X17.399Y30.587
X18.445Y41.915
X20.066Y53.086
X20.259Y39.268
X20.892Y50.736
X21.184Y45.237
X22.316Y39.248
X22.352Y57.912
X22.987Y2.921
X23.8Y38.43
X24.257Y2.921
X24.701Y15.748
X24.892Y18.732
X24.911Y50.101
X25.4Y2.921
X26.162Y20.447
X26.543Y2.921
X26.733Y15.811
X26.924Y46.99
X27.686Y2.921
X27.813Y20.32
X27.965Y47.092
X28.448Y49.276
X28.829Y2.921
X29.21Y15.748
X29.337Y20.32
X30.48Y1.524
X30.734Y20.32
X30.988Y57.912
X31.032Y45.742
X31.115Y15.811
X31.318Y41.148
X32.004Y1.524
X32.639Y13.208
X32.766Y20.32
X33.375Y40.24
X33.528Y15.811
X33.528Y11.557
X33.528Y1.524
X33.909Y48.346
X34.336Y43.845
X34.536Y37.632
X34.544Y21.336
X35.052Y1.524
X35.433Y16.637
X36.069Y46.354
X36.322Y21.336
X36.378Y49.445
X36.576Y57.912
X36.576Y1.524
X36.831Y47.116
X36.957Y45.339
X36.957Y31.317
X37.465Y48.006
X37.592Y49.149
X37.846Y18.923
X37.973Y46.355
X38.1Y50.292
X38.1Y1.524
X38.608Y51.054
X38.735Y48.895
X38.862Y47.371
X39.116Y23.368
X39.37Y13.716
X39.37Y11.938
X39.624Y49.784
X39.688Y20.892
X39.751Y48.387
X39.878Y50.927
X39.878Y15.24
X40.386Y52.451
X40.64Y49.403
X41.021Y22.162
X41.148Y11.176
X41.402Y23.622
X41.427Y2.388
X41.656Y50.419
X42.418Y13.208
X42.926Y45.212
X43.18Y24.003
X43.358Y15.189
X43.688Y27.775
X44.196Y36.258
X44.196Y25.019
X44.259Y32.766
X44.45Y45.212
X44.704Y46.736
X45.161Y16.967
X45.529Y44.323
X46.228Y48.26
X46.228Y46.672
X46.736Y27.114
X46.736Y17.78
X47.434Y14.224
X47.816Y33.528
X48.895Y33.084
X48.959Y37.274
X48.959Y28.321
X49.593Y50.165
X49.974Y32.575
X50.165Y22.098
X50.927Y26.543
X50.927Y21.209
X51.308Y46.926
X51.371Y52.07
X51.371Y34.48
X52.387Y27.178
X52.514Y24.194
X52.621Y32.575
X52.959Y44.64
X53.149Y35.052
X53.975Y49.721
X54.546Y44.577
X54.864Y59.182
X55.88Y16.51
X55.88Y11.811
X55.91Y24.242
X56.388Y59.182
X57.213Y16.764
X57.213Y9.652
X57.467Y47.816
X57.912Y59.182
X58.42Y21.59
X58.42Y15.113
X58.42Y11.811
X59.372Y49.657
X59.436Y59.182
X59.69Y20.32
X59.944Y28.194
X60.198Y37.338
X60.198Y34.163
X60.198Y29.972
X60.96Y59.182
X61.214Y28.194
X61.468Y18.542
X63.5Y44.45
X64.262Y18.288
X64.262Y14.986
X64.262Y13.462
X64.262Y11.938
X64.389Y9.652
X65.024Y45.974
X65.532Y9.652
X65.913Y14.859
X66.294Y47.244
X66.294Y28.448
X66.548Y20.955
X66.548Y9.144
X66.929Y44.45
X67.056Y19.05
X67.564Y17.018
X67.818Y48.768
X68.072Y28.956
X68.199Y9.144
X68.326Y27.432
X68.834Y37.338
X69.342Y19.812
X69.469Y14.859
X69.596Y28.956
X69.596Y13.208
X69.85Y27.432
X70.104Y11.938
X70.104Y10.414
X70.358Y50.292
X71.12Y28.956
X71.247Y24.892
X71.501Y50.292
X71.628Y26.289
X71.628Y19.05
X72.009Y44.386
X72.136Y17.526
X72.263Y28.956
X72.39Y24.765
X72.517Y50.292
X73.152Y26.289
X73.152Y18.288
X73.152Y11.43
X73.152Y9.398
X73.406Y16.51
X73.406Y14.986
X73.406Y13.208
X73.533Y28.956
X73.66Y24.765
X73.787Y50.292
X74.676Y25.146
X74.93Y29.083
X74.93Y17.272
X75.438Y27.686
X76.2Y26.416
X76.2Y25.146
X76.454Y17.272
X76.581Y29.083
X76.708Y27.813
X76.962Y37.338
X77.406Y44.577
X77.724Y26.416
X77.724Y25.146
X77.978Y17.272
X79.248Y26.416
X79.248Y25.146
X79.502Y17.272
T2
X26.416Y44.831
X26.416Y42.545
X27.051Y43.688
X27.686Y44.831
X27.686Y42.545
T3
X11.938Y57.15
X11.938Y54.61
X14.478Y57.15
X14.478Y54.61
X17.018Y57.15
X17.018Y54.61
X19.558Y57.15
X19.558Y54.61
X31.75Y6.35
X31.75Y3.81
X34.29Y6.35
X34.29Y3.81
X36.83Y6.35
X36.83Y3.81
X38.862Y56.896
X38.862Y54.356
X39.37Y6.35
X39.37Y3.81
X41.402Y56.896
X41.402Y54.356
X43.942Y56.896
X43.942Y54.356
X46.482Y56.896
X46.482Y54.356
X49.022Y56.896
X49.022Y54.356
X52.07Y56.896
X52.07Y54.356
X54.61Y56.896
X54.61Y54.356
X57.15Y56.896
X57.15Y54.356
X59.69Y56.896
X59.69Y54.356
X62.865Y54.991
X62.865Y52.451
X65.405Y54.991
X65.405Y52.451
X67.945Y54.991
X67.945Y52.451
X70.485Y54.991
X70.485Y52.451
T4
X64.033Y7.838
X64.033Y3.338
X70.333Y7.838
X70.333Y3.338
T5
X14.939Y7.874
X14.939Y2.921
X19.939Y7.874
X19.939Y2.921
T6
X4.327Y40.511
X4.327Y21.211
X76.826Y40.511
X76.826Y21.211
T7
X5.08Y55.88
X5.08Y5.08
X76.2Y55.88
X76.2Y5.08
T0
M30
