%TF.GenerationSoftware,KiCad,Pcbnew,6.0.4-6f826c9f35~116~ubuntu20.04.1*%
%TF.CreationDate,2022-07-20T11:28:41+00:00*%
%TF.ProjectId,LION2CELL01D,4c494f4e-3243-4454-9c4c-3031442e6b69,rev?*%
%TF.SameCoordinates,Original*%
%TF.FileFunction,Soldermask,Top*%
%TF.FilePolarity,Negative*%
%FSLAX46Y46*%
G04 Gerber Fmt 4.6, Leading zero omitted, Abs format (unit mm)*
G04 Created by KiCad (PCBNEW 6.0.4-6f826c9f35~116~ubuntu20.04.1) date 2022-07-20 11:28:41*
%MOMM*%
%LPD*%
G01*
G04 APERTURE LIST*
%ADD10R,1.524000X1.524000*%
%ADD11R,3.810000X3.810000*%
%ADD12C,6.000000*%
%ADD13R,0.889000X1.397000*%
%ADD14R,1.676400X1.676400*%
%ADD15R,4.000000X4.000000*%
%ADD16C,2.700000*%
%ADD17C,0.600000*%
G04 APERTURE END LIST*
D10*
%TO.C,J1*%
X19558000Y57150000D03*
X19558000Y54610000D03*
X17018000Y57150000D03*
X17018000Y54610000D03*
X14478000Y57150000D03*
X14478000Y54610000D03*
X11938000Y57150000D03*
X11938000Y54610000D03*
%TD*%
%TO.C,J2*%
X49022000Y56896000D03*
X49022000Y54356000D03*
%TD*%
%TO.C,J3*%
X38862000Y54356000D03*
X38862000Y56896000D03*
%TD*%
%TO.C,J4*%
X43942000Y54356000D03*
X43942000Y56896000D03*
%TD*%
%TO.C,J5*%
X46482000Y56896000D03*
X46482000Y54356000D03*
%TD*%
%TO.C,J6*%
X41402000Y56896000D03*
X41402000Y54356000D03*
%TD*%
%TO.C,J7*%
X31750000Y3810000D03*
X31750000Y6350000D03*
X34290000Y3810000D03*
X34290000Y6350000D03*
X36830000Y3810000D03*
X36830000Y6350000D03*
X39370000Y3810000D03*
X39370000Y6350000D03*
%TD*%
D11*
%TO.C,J9*%
X19939000Y2921000D03*
X14939000Y2921000D03*
%TD*%
D10*
%TO.C,J10*%
X62865000Y54991000D03*
X62865000Y52451000D03*
%TD*%
%TO.C,J11*%
X65405000Y54991000D03*
X65405000Y52451000D03*
%TD*%
%TO.C,J12*%
X67945000Y54991000D03*
X67945000Y52451000D03*
%TD*%
%TO.C,J13*%
X59690000Y56896000D03*
X59690000Y54356000D03*
X57150000Y56896000D03*
X57150000Y54356000D03*
X54610000Y56896000D03*
X54610000Y54356000D03*
X52070000Y56896000D03*
X52070000Y54356000D03*
%TD*%
D12*
%TO.C,P1*%
X76200000Y5080000D03*
%TD*%
%TO.C,P2*%
X5080000Y55880000D03*
%TD*%
%TO.C,P3*%
X5080000Y5080000D03*
%TD*%
%TO.C,P4*%
X76200000Y55880000D03*
%TD*%
D13*
%TO.C,R15*%
X11874500Y40386000D03*
X13779500Y40386000D03*
%TD*%
%TO.C,R17*%
X69405500Y21082000D03*
X67500500Y21082000D03*
%TD*%
D11*
%TO.C,J8*%
X14939000Y7874000D03*
X19939000Y7874000D03*
%TD*%
D14*
%TO.C,SW1*%
X64033000Y7838000D03*
X70333000Y7838000D03*
X64033000Y3338000D03*
X70333000Y3338000D03*
%TD*%
D10*
%TO.C,J14*%
X70485000Y54991000D03*
X70485000Y52451000D03*
%TD*%
D15*
%TO.C,BT1*%
X4326500Y40511000D03*
X76826500Y40511000D03*
X4326500Y21211000D03*
X76826500Y21211000D03*
%TD*%
D16*
%TO.C,D3*%
X24765000Y55880000D03*
%TD*%
%TO.C,D4*%
X29845000Y55880000D03*
%TD*%
%TO.C,D7*%
X42545000Y4445000D03*
%TD*%
%TO.C,D8*%
X45212000Y4445000D03*
%TD*%
%TO.C,D9*%
X47879000Y4445000D03*
%TD*%
%TO.C,D10*%
X50546000Y4445000D03*
%TD*%
%TO.C,D11*%
X53213000Y4445000D03*
%TD*%
%TO.C,D12*%
X55880000Y4445000D03*
%TD*%
%TO.C,D13*%
X58547000Y4445000D03*
%TD*%
D17*
%TO.C,U2*%
X27686000Y42545000D03*
X27686000Y44831000D03*
X26416000Y42545000D03*
X26416000Y44831000D03*
X27051000Y43688000D03*
%TD*%
D16*
%TO.C,D5*%
X34925000Y55880000D03*
%TD*%
%TO.C,D14*%
X61214000Y4445000D03*
%TD*%
M02*
