%TF.GenerationSoftware,KiCad,Pcbnew,6.0.4-6f826c9f35~116~ubuntu20.04.1*%
%TF.CreationDate,2022-07-20T11:28:41+00:00*%
%TF.ProjectId,LION2CELL01D,4c494f4e-3243-4454-9c4c-3031442e6b69,rev?*%
%TF.SameCoordinates,Original*%
%TF.FileFunction,Legend,Bot*%
%TF.FilePolarity,Positive*%
%FSLAX46Y46*%
G04 Gerber Fmt 4.6, Leading zero omitted, Abs format (unit mm)*
G04 Created by KiCad (PCBNEW 6.0.4-6f826c9f35~116~ubuntu20.04.1) date 2022-07-20 11:28:41*
%MOMM*%
%LPD*%
G01*
G04 APERTURE LIST*
%ADD10C,0.109220*%
%ADD11C,0.304800*%
%ADD12C,0.099060*%
%ADD13C,0.119380*%
%ADD14C,0.150000*%
%ADD15C,2.700000*%
G04 APERTURE END LIST*
D10*
%TO.C,C1*%
X8751207Y27007396D02*
X8775034Y27031224D01*
X8798862Y27102707D01*
X8798862Y27150362D01*
X8775034Y27221845D01*
X8727379Y27269500D01*
X8679724Y27293328D01*
X8584413Y27317155D01*
X8512930Y27317155D01*
X8417620Y27293328D01*
X8369965Y27269500D01*
X8322310Y27221845D01*
X8298482Y27150362D01*
X8298482Y27102707D01*
X8322310Y27031224D01*
X8346137Y27007396D01*
X8798862Y26530844D02*
X8798862Y26816775D01*
X8798862Y26673810D02*
X8298482Y26673810D01*
X8369965Y26721465D01*
X8417620Y26769120D01*
X8441448Y26816775D01*
X9497362Y27571397D02*
X9497362Y27857329D01*
X9497362Y27714363D02*
X8996982Y27714363D01*
X9068465Y27762018D01*
X9116120Y27809673D01*
X9139948Y27857329D01*
X8996982Y27261638D02*
X8996982Y27213983D01*
X9020810Y27166328D01*
X9044637Y27142500D01*
X9092292Y27118672D01*
X9187603Y27094845D01*
X9306741Y27094845D01*
X9402051Y27118672D01*
X9449707Y27142500D01*
X9473534Y27166328D01*
X9497362Y27213983D01*
X9497362Y27261638D01*
X9473534Y27309293D01*
X9449707Y27333121D01*
X9402051Y27356949D01*
X9306741Y27380776D01*
X9187603Y27380776D01*
X9092292Y27356949D01*
X9044637Y27333121D01*
X9020810Y27309293D01*
X8996982Y27261638D01*
X8996982Y26785086D02*
X8996982Y26737430D01*
X9020810Y26689775D01*
X9044637Y26665948D01*
X9092292Y26642120D01*
X9187603Y26618292D01*
X9306741Y26618292D01*
X9402051Y26642120D01*
X9449707Y26665948D01*
X9473534Y26689775D01*
X9497362Y26737430D01*
X9497362Y26785086D01*
X9473534Y26832741D01*
X9449707Y26856569D01*
X9402051Y26880396D01*
X9306741Y26904224D01*
X9187603Y26904224D01*
X9092292Y26880396D01*
X9044637Y26856569D01*
X9020810Y26832741D01*
X8996982Y26785086D01*
X9163775Y26403844D02*
X9497362Y26403844D01*
X9211430Y26403844D02*
X9187603Y26380016D01*
X9163775Y26332361D01*
X9163775Y26260878D01*
X9187603Y26213223D01*
X9235258Y26189395D01*
X9497362Y26189395D01*
X9235258Y25784326D02*
X9235258Y25951119D01*
X9497362Y25951119D02*
X8996982Y25951119D01*
X8996982Y25712843D01*
%TO.C,C5*%
X12529396Y30999792D02*
X12553224Y30975965D01*
X12624707Y30952137D01*
X12672362Y30952137D01*
X12743845Y30975965D01*
X12791500Y31023620D01*
X12815328Y31071275D01*
X12839155Y31166586D01*
X12839155Y31238069D01*
X12815328Y31333379D01*
X12791500Y31381034D01*
X12743845Y31428690D01*
X12672362Y31452517D01*
X12624707Y31452517D01*
X12553224Y31428690D01*
X12529396Y31404862D01*
X12076671Y31452517D02*
X12314948Y31452517D01*
X12338775Y31214241D01*
X12314948Y31238069D01*
X12267292Y31261896D01*
X12148154Y31261896D01*
X12100499Y31238069D01*
X12076671Y31214241D01*
X12052844Y31166586D01*
X12052844Y31047448D01*
X12076671Y30999792D01*
X12100499Y30975965D01*
X12148154Y30952137D01*
X12267292Y30952137D01*
X12314948Y30975965D01*
X12338775Y30999792D01*
X13657156Y32151017D02*
X13347397Y32151017D01*
X13514190Y31960396D01*
X13442708Y31960396D01*
X13395052Y31936569D01*
X13371225Y31912741D01*
X13347397Y31865086D01*
X13347397Y31745948D01*
X13371225Y31698292D01*
X13395052Y31674465D01*
X13442708Y31650637D01*
X13585673Y31650637D01*
X13633329Y31674465D01*
X13657156Y31698292D01*
X13180604Y32151017D02*
X12870845Y32151017D01*
X13037638Y31960396D01*
X12966155Y31960396D01*
X12918500Y31936569D01*
X12894672Y31912741D01*
X12870845Y31865086D01*
X12870845Y31745948D01*
X12894672Y31698292D01*
X12918500Y31674465D01*
X12966155Y31650637D01*
X13109121Y31650637D01*
X13156776Y31674465D01*
X13180604Y31698292D01*
X12561086Y32151017D02*
X12513430Y32151017D01*
X12465775Y32127190D01*
X12441948Y32103362D01*
X12418120Y32055707D01*
X12394292Y31960396D01*
X12394292Y31841258D01*
X12418120Y31745948D01*
X12441948Y31698292D01*
X12465775Y31674465D01*
X12513430Y31650637D01*
X12561086Y31650637D01*
X12608741Y31674465D01*
X12632569Y31698292D01*
X12656396Y31745948D01*
X12680224Y31841258D01*
X12680224Y31960396D01*
X12656396Y32055707D01*
X12632569Y32103362D01*
X12608741Y32127190D01*
X12561086Y32151017D01*
X12179844Y31984224D02*
X12179844Y31650637D01*
X12179844Y31936569D02*
X12156016Y31960396D01*
X12108361Y31984224D01*
X12036878Y31984224D01*
X11989223Y31960396D01*
X11965395Y31912741D01*
X11965395Y31650637D01*
X11560326Y31912741D02*
X11727119Y31912741D01*
X11727119Y31650637D02*
X11727119Y32151017D01*
X11488843Y32151017D01*
%TO.C,C6*%
X22213207Y49232396D02*
X22237034Y49256224D01*
X22260862Y49327707D01*
X22260862Y49375362D01*
X22237034Y49446845D01*
X22189379Y49494500D01*
X22141724Y49518328D01*
X22046413Y49542155D01*
X21974930Y49542155D01*
X21879620Y49518328D01*
X21831965Y49494500D01*
X21784310Y49446845D01*
X21760482Y49375362D01*
X21760482Y49327707D01*
X21784310Y49256224D01*
X21808137Y49232396D01*
X21760482Y48803499D02*
X21760482Y48898810D01*
X21784310Y48946465D01*
X21808137Y48970292D01*
X21879620Y49017948D01*
X21974930Y49041775D01*
X22165551Y49041775D01*
X22213207Y49017948D01*
X22237034Y48994120D01*
X22260862Y48946465D01*
X22260862Y48851154D01*
X22237034Y48803499D01*
X22213207Y48779671D01*
X22165551Y48755844D01*
X22046413Y48755844D01*
X21998758Y48779671D01*
X21974930Y48803499D01*
X21951103Y48851154D01*
X21951103Y48946465D01*
X21974930Y48994120D01*
X21998758Y49017948D01*
X22046413Y49041775D01*
X21562362Y50050397D02*
X21562362Y50336329D01*
X21562362Y50193363D02*
X21061982Y50193363D01*
X21133465Y50241018D01*
X21181120Y50288673D01*
X21204948Y50336329D01*
X21061982Y49740638D02*
X21061982Y49692983D01*
X21085810Y49645328D01*
X21109637Y49621500D01*
X21157292Y49597672D01*
X21252603Y49573845D01*
X21371741Y49573845D01*
X21467051Y49597672D01*
X21514707Y49621500D01*
X21538534Y49645328D01*
X21562362Y49692983D01*
X21562362Y49740638D01*
X21538534Y49788293D01*
X21514707Y49812121D01*
X21467051Y49835949D01*
X21371741Y49859776D01*
X21252603Y49859776D01*
X21157292Y49835949D01*
X21109637Y49812121D01*
X21085810Y49788293D01*
X21061982Y49740638D01*
X21061982Y49264086D02*
X21061982Y49216430D01*
X21085810Y49168775D01*
X21109637Y49144948D01*
X21157292Y49121120D01*
X21252603Y49097292D01*
X21371741Y49097292D01*
X21467051Y49121120D01*
X21514707Y49144948D01*
X21538534Y49168775D01*
X21562362Y49216430D01*
X21562362Y49264086D01*
X21538534Y49311741D01*
X21514707Y49335569D01*
X21467051Y49359396D01*
X21371741Y49383224D01*
X21252603Y49383224D01*
X21157292Y49359396D01*
X21109637Y49335569D01*
X21085810Y49311741D01*
X21061982Y49264086D01*
X21228775Y48882844D02*
X21562362Y48882844D01*
X21276430Y48882844D02*
X21252603Y48859016D01*
X21228775Y48811361D01*
X21228775Y48739878D01*
X21252603Y48692223D01*
X21300258Y48668395D01*
X21562362Y48668395D01*
X21300258Y48263326D02*
X21300258Y48430119D01*
X21562362Y48430119D02*
X21061982Y48430119D01*
X21061982Y48191843D01*
%TO.C,C7*%
X21730607Y43263396D02*
X21754434Y43287224D01*
X21778262Y43358707D01*
X21778262Y43406362D01*
X21754434Y43477845D01*
X21706779Y43525500D01*
X21659124Y43549328D01*
X21563813Y43573155D01*
X21492330Y43573155D01*
X21397020Y43549328D01*
X21349365Y43525500D01*
X21301710Y43477845D01*
X21277882Y43406362D01*
X21277882Y43358707D01*
X21301710Y43287224D01*
X21325537Y43263396D01*
X21277882Y43096603D02*
X21277882Y42763016D01*
X21778262Y42977465D01*
X22476762Y43827397D02*
X22476762Y44113329D01*
X22476762Y43970363D02*
X21976382Y43970363D01*
X22047865Y44018018D01*
X22095520Y44065673D01*
X22119348Y44113329D01*
X21976382Y43517638D02*
X21976382Y43469983D01*
X22000210Y43422328D01*
X22024037Y43398500D01*
X22071692Y43374672D01*
X22167003Y43350845D01*
X22286141Y43350845D01*
X22381451Y43374672D01*
X22429107Y43398500D01*
X22452934Y43422328D01*
X22476762Y43469983D01*
X22476762Y43517638D01*
X22452934Y43565293D01*
X22429107Y43589121D01*
X22381451Y43612949D01*
X22286141Y43636776D01*
X22167003Y43636776D01*
X22071692Y43612949D01*
X22024037Y43589121D01*
X22000210Y43565293D01*
X21976382Y43517638D01*
X21976382Y43041086D02*
X21976382Y42993430D01*
X22000210Y42945775D01*
X22024037Y42921948D01*
X22071692Y42898120D01*
X22167003Y42874292D01*
X22286141Y42874292D01*
X22381451Y42898120D01*
X22429107Y42921948D01*
X22452934Y42945775D01*
X22476762Y42993430D01*
X22476762Y43041086D01*
X22452934Y43088741D01*
X22429107Y43112569D01*
X22381451Y43136396D01*
X22286141Y43160224D01*
X22167003Y43160224D01*
X22071692Y43136396D01*
X22024037Y43112569D01*
X22000210Y43088741D01*
X21976382Y43041086D01*
X22143175Y42659844D02*
X22476762Y42659844D01*
X22190830Y42659844D02*
X22167003Y42636016D01*
X22143175Y42588361D01*
X22143175Y42516878D01*
X22167003Y42469223D01*
X22214658Y42445395D01*
X22476762Y42445395D01*
X22214658Y42040326D02*
X22214658Y42207119D01*
X22476762Y42207119D02*
X21976382Y42207119D01*
X21976382Y41968843D01*
%TO.C,C8*%
X16244207Y31071396D02*
X16268034Y31095224D01*
X16291862Y31166707D01*
X16291862Y31214362D01*
X16268034Y31285845D01*
X16220379Y31333500D01*
X16172724Y31357328D01*
X16077413Y31381155D01*
X16005930Y31381155D01*
X15910620Y31357328D01*
X15862965Y31333500D01*
X15815310Y31285845D01*
X15791482Y31214362D01*
X15791482Y31166707D01*
X15815310Y31095224D01*
X15839137Y31071396D01*
X16005930Y30785465D02*
X15982103Y30833120D01*
X15958275Y30856948D01*
X15910620Y30880775D01*
X15886792Y30880775D01*
X15839137Y30856948D01*
X15815310Y30833120D01*
X15791482Y30785465D01*
X15791482Y30690154D01*
X15815310Y30642499D01*
X15839137Y30618671D01*
X15886792Y30594844D01*
X15910620Y30594844D01*
X15958275Y30618671D01*
X15982103Y30642499D01*
X16005930Y30690154D01*
X16005930Y30785465D01*
X16029758Y30833120D01*
X16053586Y30856948D01*
X16101241Y30880775D01*
X16196551Y30880775D01*
X16244207Y30856948D01*
X16268034Y30833120D01*
X16291862Y30785465D01*
X16291862Y30690154D01*
X16268034Y30642499D01*
X16244207Y30618671D01*
X16196551Y30594844D01*
X16101241Y30594844D01*
X16053586Y30618671D01*
X16029758Y30642499D01*
X16005930Y30690154D01*
X15593362Y31889397D02*
X15593362Y32175329D01*
X15593362Y32032363D02*
X15092982Y32032363D01*
X15164465Y32080018D01*
X15212120Y32127673D01*
X15235948Y32175329D01*
X15092982Y31579638D02*
X15092982Y31531983D01*
X15116810Y31484328D01*
X15140637Y31460500D01*
X15188292Y31436672D01*
X15283603Y31412845D01*
X15402741Y31412845D01*
X15498051Y31436672D01*
X15545707Y31460500D01*
X15569534Y31484328D01*
X15593362Y31531983D01*
X15593362Y31579638D01*
X15569534Y31627293D01*
X15545707Y31651121D01*
X15498051Y31674949D01*
X15402741Y31698776D01*
X15283603Y31698776D01*
X15188292Y31674949D01*
X15140637Y31651121D01*
X15116810Y31627293D01*
X15092982Y31579638D01*
X15092982Y31103086D02*
X15092982Y31055430D01*
X15116810Y31007775D01*
X15140637Y30983948D01*
X15188292Y30960120D01*
X15283603Y30936292D01*
X15402741Y30936292D01*
X15498051Y30960120D01*
X15545707Y30983948D01*
X15569534Y31007775D01*
X15593362Y31055430D01*
X15593362Y31103086D01*
X15569534Y31150741D01*
X15545707Y31174569D01*
X15498051Y31198396D01*
X15402741Y31222224D01*
X15283603Y31222224D01*
X15188292Y31198396D01*
X15140637Y31174569D01*
X15116810Y31150741D01*
X15092982Y31103086D01*
X15259775Y30721844D02*
X15593362Y30721844D01*
X15307430Y30721844D02*
X15283603Y30698016D01*
X15259775Y30650361D01*
X15259775Y30578878D01*
X15283603Y30531223D01*
X15331258Y30507395D01*
X15593362Y30507395D01*
X15331258Y30102326D02*
X15331258Y30269119D01*
X15593362Y30269119D02*
X15092982Y30269119D01*
X15092982Y30030843D01*
%TO.C,C9*%
X33262207Y48470396D02*
X33286034Y48494224D01*
X33309862Y48565707D01*
X33309862Y48613362D01*
X33286034Y48684845D01*
X33238379Y48732500D01*
X33190724Y48756328D01*
X33095413Y48780155D01*
X33023930Y48780155D01*
X32928620Y48756328D01*
X32880965Y48732500D01*
X32833310Y48684845D01*
X32809482Y48613362D01*
X32809482Y48565707D01*
X32833310Y48494224D01*
X32857137Y48470396D01*
X33309862Y48232120D02*
X33309862Y48136810D01*
X33286034Y48089154D01*
X33262207Y48065327D01*
X33190724Y48017671D01*
X33095413Y47993844D01*
X32904792Y47993844D01*
X32857137Y48017671D01*
X32833310Y48041499D01*
X32809482Y48089154D01*
X32809482Y48184465D01*
X32833310Y48232120D01*
X32857137Y48255948D01*
X32904792Y48279775D01*
X33023930Y48279775D01*
X33071586Y48255948D01*
X33095413Y48232120D01*
X33119241Y48184465D01*
X33119241Y48089154D01*
X33095413Y48041499D01*
X33071586Y48017671D01*
X33023930Y47993844D01*
X32611362Y49288397D02*
X32611362Y49574329D01*
X32611362Y49431363D02*
X32110982Y49431363D01*
X32182465Y49479018D01*
X32230120Y49526673D01*
X32253948Y49574329D01*
X32110982Y48978638D02*
X32110982Y48930983D01*
X32134810Y48883328D01*
X32158637Y48859500D01*
X32206292Y48835672D01*
X32301603Y48811845D01*
X32420741Y48811845D01*
X32516051Y48835672D01*
X32563707Y48859500D01*
X32587534Y48883328D01*
X32611362Y48930983D01*
X32611362Y48978638D01*
X32587534Y49026293D01*
X32563707Y49050121D01*
X32516051Y49073949D01*
X32420741Y49097776D01*
X32301603Y49097776D01*
X32206292Y49073949D01*
X32158637Y49050121D01*
X32134810Y49026293D01*
X32110982Y48978638D01*
X32110982Y48502086D02*
X32110982Y48454430D01*
X32134810Y48406775D01*
X32158637Y48382948D01*
X32206292Y48359120D01*
X32301603Y48335292D01*
X32420741Y48335292D01*
X32516051Y48359120D01*
X32563707Y48382948D01*
X32587534Y48406775D01*
X32611362Y48454430D01*
X32611362Y48502086D01*
X32587534Y48549741D01*
X32563707Y48573569D01*
X32516051Y48597396D01*
X32420741Y48621224D01*
X32301603Y48621224D01*
X32206292Y48597396D01*
X32158637Y48573569D01*
X32134810Y48549741D01*
X32110982Y48502086D01*
X32277775Y48120844D02*
X32611362Y48120844D01*
X32325430Y48120844D02*
X32301603Y48097016D01*
X32277775Y48049361D01*
X32277775Y47977878D01*
X32301603Y47930223D01*
X32349258Y47906395D01*
X32611362Y47906395D01*
X32349258Y47501326D02*
X32349258Y47668119D01*
X32611362Y47668119D02*
X32110982Y47668119D01*
X32110982Y47429843D01*
%TO.C,C11*%
X24626207Y22800672D02*
X24650034Y22824500D01*
X24673862Y22895983D01*
X24673862Y22943638D01*
X24650034Y23015121D01*
X24602379Y23062776D01*
X24554724Y23086604D01*
X24459413Y23110431D01*
X24387930Y23110431D01*
X24292620Y23086604D01*
X24244965Y23062776D01*
X24197310Y23015121D01*
X24173482Y22943638D01*
X24173482Y22895983D01*
X24197310Y22824500D01*
X24221137Y22800672D01*
X24673862Y22324120D02*
X24673862Y22610051D01*
X24673862Y22467086D02*
X24173482Y22467086D01*
X24244965Y22514741D01*
X24292620Y22562396D01*
X24316448Y22610051D01*
X24673862Y21847568D02*
X24673862Y22133499D01*
X24673862Y21990533D02*
X24173482Y21990533D01*
X24244965Y22038189D01*
X24292620Y22085844D01*
X24316448Y22133499D01*
X25372362Y22888121D02*
X25372362Y23174052D01*
X25372362Y23031087D02*
X24871982Y23031087D01*
X24943465Y23078742D01*
X24991120Y23126397D01*
X25014948Y23174052D01*
X24871982Y22578362D02*
X24871982Y22530707D01*
X24895810Y22483051D01*
X24919637Y22459224D01*
X24967292Y22435396D01*
X25062603Y22411569D01*
X25181741Y22411569D01*
X25277051Y22435396D01*
X25324707Y22459224D01*
X25348534Y22483051D01*
X25372362Y22530707D01*
X25372362Y22578362D01*
X25348534Y22626017D01*
X25324707Y22649845D01*
X25277051Y22673672D01*
X25181741Y22697500D01*
X25062603Y22697500D01*
X24967292Y22673672D01*
X24919637Y22649845D01*
X24895810Y22626017D01*
X24871982Y22578362D01*
X25038775Y21982671D02*
X25372362Y21982671D01*
X25038775Y22197120D02*
X25300879Y22197120D01*
X25348534Y22173292D01*
X25372362Y22125637D01*
X25372362Y22054154D01*
X25348534Y22006499D01*
X25324707Y21982671D01*
X25110258Y21577602D02*
X25110258Y21744395D01*
X25372362Y21744395D02*
X24871982Y21744395D01*
X24871982Y21506119D01*
%TO.C,C12*%
X50280207Y24832672D02*
X50304034Y24856500D01*
X50327862Y24927983D01*
X50327862Y24975638D01*
X50304034Y25047121D01*
X50256379Y25094776D01*
X50208724Y25118604D01*
X50113413Y25142431D01*
X50041930Y25142431D01*
X49946620Y25118604D01*
X49898965Y25094776D01*
X49851310Y25047121D01*
X49827482Y24975638D01*
X49827482Y24927983D01*
X49851310Y24856500D01*
X49875137Y24832672D01*
X50327862Y24356120D02*
X50327862Y24642051D01*
X50327862Y24499086D02*
X49827482Y24499086D01*
X49898965Y24546741D01*
X49946620Y24594396D01*
X49970448Y24642051D01*
X49875137Y24165499D02*
X49851310Y24141671D01*
X49827482Y24094016D01*
X49827482Y23974878D01*
X49851310Y23927223D01*
X49875137Y23903395D01*
X49922792Y23879568D01*
X49970448Y23879568D01*
X50041930Y23903395D01*
X50327862Y24189327D01*
X50327862Y23879568D01*
X51026362Y25158397D02*
X51026362Y25444329D01*
X51026362Y25301363D02*
X50525982Y25301363D01*
X50597465Y25349018D01*
X50645120Y25396673D01*
X50668948Y25444329D01*
X50525982Y24848638D02*
X50525982Y24800983D01*
X50549810Y24753328D01*
X50573637Y24729500D01*
X50621292Y24705672D01*
X50716603Y24681845D01*
X50835741Y24681845D01*
X50931051Y24705672D01*
X50978707Y24729500D01*
X51002534Y24753328D01*
X51026362Y24800983D01*
X51026362Y24848638D01*
X51002534Y24896293D01*
X50978707Y24920121D01*
X50931051Y24943949D01*
X50835741Y24967776D01*
X50716603Y24967776D01*
X50621292Y24943949D01*
X50573637Y24920121D01*
X50549810Y24896293D01*
X50525982Y24848638D01*
X50525982Y24372086D02*
X50525982Y24324430D01*
X50549810Y24276775D01*
X50573637Y24252948D01*
X50621292Y24229120D01*
X50716603Y24205292D01*
X50835741Y24205292D01*
X50931051Y24229120D01*
X50978707Y24252948D01*
X51002534Y24276775D01*
X51026362Y24324430D01*
X51026362Y24372086D01*
X51002534Y24419741D01*
X50978707Y24443569D01*
X50931051Y24467396D01*
X50835741Y24491224D01*
X50716603Y24491224D01*
X50621292Y24467396D01*
X50573637Y24443569D01*
X50549810Y24419741D01*
X50525982Y24372086D01*
X50692775Y23990844D02*
X51026362Y23990844D01*
X50740430Y23990844D02*
X50716603Y23967016D01*
X50692775Y23919361D01*
X50692775Y23847878D01*
X50716603Y23800223D01*
X50764258Y23776395D01*
X51026362Y23776395D01*
X50764258Y23371326D02*
X50764258Y23538119D01*
X51026362Y23538119D02*
X50525982Y23538119D01*
X50525982Y23299843D01*
%TO.C,C13*%
X62853207Y25467672D02*
X62877034Y25491500D01*
X62900862Y25562983D01*
X62900862Y25610638D01*
X62877034Y25682121D01*
X62829379Y25729776D01*
X62781724Y25753604D01*
X62686413Y25777431D01*
X62614930Y25777431D01*
X62519620Y25753604D01*
X62471965Y25729776D01*
X62424310Y25682121D01*
X62400482Y25610638D01*
X62400482Y25562983D01*
X62424310Y25491500D01*
X62448137Y25467672D01*
X62900862Y24991120D02*
X62900862Y25277051D01*
X62900862Y25134086D02*
X62400482Y25134086D01*
X62471965Y25181741D01*
X62519620Y25229396D01*
X62543448Y25277051D01*
X62400482Y24824327D02*
X62400482Y24514568D01*
X62591103Y24681361D01*
X62591103Y24609878D01*
X62614930Y24562223D01*
X62638758Y24538395D01*
X62686413Y24514568D01*
X62805551Y24514568D01*
X62853207Y24538395D01*
X62877034Y24562223D01*
X62900862Y24609878D01*
X62900862Y24752844D01*
X62877034Y24800499D01*
X62853207Y24824327D01*
X63599362Y25793397D02*
X63599362Y26079329D01*
X63599362Y25936363D02*
X63098982Y25936363D01*
X63170465Y25984018D01*
X63218120Y26031673D01*
X63241948Y26079329D01*
X63098982Y25483638D02*
X63098982Y25435983D01*
X63122810Y25388328D01*
X63146637Y25364500D01*
X63194292Y25340672D01*
X63289603Y25316845D01*
X63408741Y25316845D01*
X63504051Y25340672D01*
X63551707Y25364500D01*
X63575534Y25388328D01*
X63599362Y25435983D01*
X63599362Y25483638D01*
X63575534Y25531293D01*
X63551707Y25555121D01*
X63504051Y25578949D01*
X63408741Y25602776D01*
X63289603Y25602776D01*
X63194292Y25578949D01*
X63146637Y25555121D01*
X63122810Y25531293D01*
X63098982Y25483638D01*
X63098982Y25007086D02*
X63098982Y24959430D01*
X63122810Y24911775D01*
X63146637Y24887948D01*
X63194292Y24864120D01*
X63289603Y24840292D01*
X63408741Y24840292D01*
X63504051Y24864120D01*
X63551707Y24887948D01*
X63575534Y24911775D01*
X63599362Y24959430D01*
X63599362Y25007086D01*
X63575534Y25054741D01*
X63551707Y25078569D01*
X63504051Y25102396D01*
X63408741Y25126224D01*
X63289603Y25126224D01*
X63194292Y25102396D01*
X63146637Y25078569D01*
X63122810Y25054741D01*
X63098982Y25007086D01*
X63265775Y24625844D02*
X63599362Y24625844D01*
X63313430Y24625844D02*
X63289603Y24602016D01*
X63265775Y24554361D01*
X63265775Y24482878D01*
X63289603Y24435223D01*
X63337258Y24411395D01*
X63599362Y24411395D01*
X63337258Y24006326D02*
X63337258Y24173119D01*
X63599362Y24173119D02*
X63098982Y24173119D01*
X63098982Y23934843D01*
%TO.C,C14*%
X69330207Y17593672D02*
X69354034Y17617500D01*
X69377862Y17688983D01*
X69377862Y17736638D01*
X69354034Y17808121D01*
X69306379Y17855776D01*
X69258724Y17879604D01*
X69163413Y17903431D01*
X69091930Y17903431D01*
X68996620Y17879604D01*
X68948965Y17855776D01*
X68901310Y17808121D01*
X68877482Y17736638D01*
X68877482Y17688983D01*
X68901310Y17617500D01*
X68925137Y17593672D01*
X69377862Y17117120D02*
X69377862Y17403051D01*
X69377862Y17260086D02*
X68877482Y17260086D01*
X68948965Y17307741D01*
X68996620Y17355396D01*
X69020448Y17403051D01*
X69044275Y16688223D02*
X69377862Y16688223D01*
X68853654Y16807361D02*
X69211069Y16926499D01*
X69211069Y16616740D01*
X70076362Y17442845D02*
X70076362Y17728776D01*
X70076362Y17585810D02*
X69575982Y17585810D01*
X69647465Y17633466D01*
X69695120Y17681121D01*
X69718948Y17728776D01*
X69742775Y17013948D02*
X70076362Y17013948D01*
X69742775Y17228396D02*
X70004879Y17228396D01*
X70052534Y17204569D01*
X70076362Y17156913D01*
X70076362Y17085430D01*
X70052534Y17037775D01*
X70028707Y17013948D01*
X69814258Y16608878D02*
X69814258Y16775671D01*
X70076362Y16775671D02*
X69575982Y16775671D01*
X69575982Y16537395D01*
%TO.C,C15*%
X64329672Y21855792D02*
X64353500Y21831965D01*
X64424983Y21808137D01*
X64472638Y21808137D01*
X64544121Y21831965D01*
X64591776Y21879620D01*
X64615604Y21927275D01*
X64639431Y22022586D01*
X64639431Y22094069D01*
X64615604Y22189379D01*
X64591776Y22237034D01*
X64544121Y22284690D01*
X64472638Y22308517D01*
X64424983Y22308517D01*
X64353500Y22284690D01*
X64329672Y22260862D01*
X63853120Y21808137D02*
X64139051Y21808137D01*
X63996086Y21808137D02*
X63996086Y22308517D01*
X64043741Y22237034D01*
X64091396Y22189379D01*
X64139051Y22165551D01*
X63400395Y22308517D02*
X63638671Y22308517D01*
X63662499Y22070241D01*
X63638671Y22094069D01*
X63591016Y22117896D01*
X63471878Y22117896D01*
X63424223Y22094069D01*
X63400395Y22070241D01*
X63376568Y22022586D01*
X63376568Y21903448D01*
X63400395Y21855792D01*
X63424223Y21831965D01*
X63471878Y21808137D01*
X63591016Y21808137D01*
X63638671Y21831965D01*
X63662499Y21855792D01*
X64909397Y22506637D02*
X65195329Y22506637D01*
X65052363Y22506637D02*
X65052363Y23007017D01*
X65100018Y22935534D01*
X65147673Y22887879D01*
X65195329Y22864051D01*
X64599638Y23007017D02*
X64551983Y23007017D01*
X64504328Y22983190D01*
X64480500Y22959362D01*
X64456672Y22911707D01*
X64432845Y22816396D01*
X64432845Y22697258D01*
X64456672Y22601948D01*
X64480500Y22554292D01*
X64504328Y22530465D01*
X64551983Y22506637D01*
X64599638Y22506637D01*
X64647293Y22530465D01*
X64671121Y22554292D01*
X64694949Y22601948D01*
X64718776Y22697258D01*
X64718776Y22816396D01*
X64694949Y22911707D01*
X64671121Y22959362D01*
X64647293Y22983190D01*
X64599638Y23007017D01*
X64123086Y23007017D02*
X64075430Y23007017D01*
X64027775Y22983190D01*
X64003948Y22959362D01*
X63980120Y22911707D01*
X63956292Y22816396D01*
X63956292Y22697258D01*
X63980120Y22601948D01*
X64003948Y22554292D01*
X64027775Y22530465D01*
X64075430Y22506637D01*
X64123086Y22506637D01*
X64170741Y22530465D01*
X64194569Y22554292D01*
X64218396Y22601948D01*
X64242224Y22697258D01*
X64242224Y22816396D01*
X64218396Y22911707D01*
X64194569Y22959362D01*
X64170741Y22983190D01*
X64123086Y23007017D01*
X63741844Y22840224D02*
X63741844Y22506637D01*
X63741844Y22792569D02*
X63718016Y22816396D01*
X63670361Y22840224D01*
X63598878Y22840224D01*
X63551223Y22816396D01*
X63527395Y22768741D01*
X63527395Y22506637D01*
X63122326Y22768741D02*
X63289119Y22768741D01*
X63289119Y22506637D02*
X63289119Y23007017D01*
X63050843Y23007017D01*
%TO.C,C16*%
X64329672Y27951792D02*
X64353500Y27927965D01*
X64424983Y27904137D01*
X64472638Y27904137D01*
X64544121Y27927965D01*
X64591776Y27975620D01*
X64615604Y28023275D01*
X64639431Y28118586D01*
X64639431Y28190069D01*
X64615604Y28285379D01*
X64591776Y28333034D01*
X64544121Y28380690D01*
X64472638Y28404517D01*
X64424983Y28404517D01*
X64353500Y28380690D01*
X64329672Y28356862D01*
X63853120Y27904137D02*
X64139051Y27904137D01*
X63996086Y27904137D02*
X63996086Y28404517D01*
X64043741Y28333034D01*
X64091396Y28285379D01*
X64139051Y28261551D01*
X63424223Y28404517D02*
X63519533Y28404517D01*
X63567189Y28380690D01*
X63591016Y28356862D01*
X63638671Y28285379D01*
X63662499Y28190069D01*
X63662499Y27999448D01*
X63638671Y27951792D01*
X63614844Y27927965D01*
X63567189Y27904137D01*
X63471878Y27904137D01*
X63424223Y27927965D01*
X63400395Y27951792D01*
X63376568Y27999448D01*
X63376568Y28118586D01*
X63400395Y28166241D01*
X63424223Y28190069D01*
X63471878Y28213896D01*
X63567189Y28213896D01*
X63614844Y28190069D01*
X63638671Y28166241D01*
X63662499Y28118586D01*
X64909397Y28602637D02*
X65195329Y28602637D01*
X65052363Y28602637D02*
X65052363Y29103017D01*
X65100018Y29031534D01*
X65147673Y28983879D01*
X65195329Y28960051D01*
X64599638Y29103017D02*
X64551983Y29103017D01*
X64504328Y29079190D01*
X64480500Y29055362D01*
X64456672Y29007707D01*
X64432845Y28912396D01*
X64432845Y28793258D01*
X64456672Y28697948D01*
X64480500Y28650292D01*
X64504328Y28626465D01*
X64551983Y28602637D01*
X64599638Y28602637D01*
X64647293Y28626465D01*
X64671121Y28650292D01*
X64694949Y28697948D01*
X64718776Y28793258D01*
X64718776Y28912396D01*
X64694949Y29007707D01*
X64671121Y29055362D01*
X64647293Y29079190D01*
X64599638Y29103017D01*
X64123086Y29103017D02*
X64075430Y29103017D01*
X64027775Y29079190D01*
X64003948Y29055362D01*
X63980120Y29007707D01*
X63956292Y28912396D01*
X63956292Y28793258D01*
X63980120Y28697948D01*
X64003948Y28650292D01*
X64027775Y28626465D01*
X64075430Y28602637D01*
X64123086Y28602637D01*
X64170741Y28626465D01*
X64194569Y28650292D01*
X64218396Y28697948D01*
X64242224Y28793258D01*
X64242224Y28912396D01*
X64218396Y29007707D01*
X64194569Y29055362D01*
X64170741Y29079190D01*
X64123086Y29103017D01*
X63741844Y28936224D02*
X63741844Y28602637D01*
X63741844Y28888569D02*
X63718016Y28912396D01*
X63670361Y28936224D01*
X63598878Y28936224D01*
X63551223Y28912396D01*
X63527395Y28864741D01*
X63527395Y28602637D01*
X63122326Y28864741D02*
X63289119Y28864741D01*
X63289119Y28602637D02*
X63289119Y29103017D01*
X63050843Y29103017D01*
%TO.C,C17*%
X54407707Y32579672D02*
X54431534Y32603500D01*
X54455362Y32674983D01*
X54455362Y32722638D01*
X54431534Y32794121D01*
X54383879Y32841776D01*
X54336224Y32865604D01*
X54240913Y32889431D01*
X54169430Y32889431D01*
X54074120Y32865604D01*
X54026465Y32841776D01*
X53978810Y32794121D01*
X53954982Y32722638D01*
X53954982Y32674983D01*
X53978810Y32603500D01*
X54002637Y32579672D01*
X54455362Y32103120D02*
X54455362Y32389051D01*
X54455362Y32246086D02*
X53954982Y32246086D01*
X54026465Y32293741D01*
X54074120Y32341396D01*
X54097948Y32389051D01*
X53954982Y31936327D02*
X53954982Y31602740D01*
X54455362Y31817189D01*
X53256482Y33016431D02*
X53256482Y32706672D01*
X53447103Y32873466D01*
X53447103Y32801983D01*
X53470930Y32754328D01*
X53494758Y32730500D01*
X53542413Y32706672D01*
X53661551Y32706672D01*
X53709207Y32730500D01*
X53733034Y32754328D01*
X53756862Y32801983D01*
X53756862Y32944949D01*
X53733034Y32992604D01*
X53709207Y33016431D01*
X53423275Y32492224D02*
X53756862Y32492224D01*
X53470930Y32492224D02*
X53447103Y32468396D01*
X53423275Y32420741D01*
X53423275Y32349258D01*
X53447103Y32301603D01*
X53494758Y32277775D01*
X53756862Y32277775D01*
X53256482Y32087154D02*
X53256482Y31777395D01*
X53447103Y31944189D01*
X53447103Y31872706D01*
X53470930Y31825050D01*
X53494758Y31801223D01*
X53542413Y31777395D01*
X53661551Y31777395D01*
X53709207Y31801223D01*
X53733034Y31825050D01*
X53756862Y31872706D01*
X53756862Y32015671D01*
X53733034Y32063327D01*
X53709207Y32087154D01*
%TO.C,C18*%
X46724207Y20514672D02*
X46748034Y20538500D01*
X46771862Y20609983D01*
X46771862Y20657638D01*
X46748034Y20729121D01*
X46700379Y20776776D01*
X46652724Y20800604D01*
X46557413Y20824431D01*
X46485930Y20824431D01*
X46390620Y20800604D01*
X46342965Y20776776D01*
X46295310Y20729121D01*
X46271482Y20657638D01*
X46271482Y20609983D01*
X46295310Y20538500D01*
X46319137Y20514672D01*
X46771862Y20038120D02*
X46771862Y20324051D01*
X46771862Y20181086D02*
X46271482Y20181086D01*
X46342965Y20228741D01*
X46390620Y20276396D01*
X46414448Y20324051D01*
X46485930Y19752189D02*
X46462103Y19799844D01*
X46438275Y19823671D01*
X46390620Y19847499D01*
X46366792Y19847499D01*
X46319137Y19823671D01*
X46295310Y19799844D01*
X46271482Y19752189D01*
X46271482Y19656878D01*
X46295310Y19609223D01*
X46319137Y19585395D01*
X46366792Y19561568D01*
X46390620Y19561568D01*
X46438275Y19585395D01*
X46462103Y19609223D01*
X46485930Y19656878D01*
X46485930Y19752189D01*
X46509758Y19799844D01*
X46533586Y19823671D01*
X46581241Y19847499D01*
X46676551Y19847499D01*
X46724207Y19823671D01*
X46748034Y19799844D01*
X46771862Y19752189D01*
X46771862Y19656878D01*
X46748034Y19609223D01*
X46724207Y19585395D01*
X46676551Y19561568D01*
X46581241Y19561568D01*
X46533586Y19585395D01*
X46509758Y19609223D01*
X46485930Y19656878D01*
X47470362Y20840397D02*
X47470362Y21126329D01*
X47470362Y20983363D02*
X46969982Y20983363D01*
X47041465Y21031018D01*
X47089120Y21078673D01*
X47112948Y21126329D01*
X46969982Y20530638D02*
X46969982Y20482983D01*
X46993810Y20435328D01*
X47017637Y20411500D01*
X47065292Y20387672D01*
X47160603Y20363845D01*
X47279741Y20363845D01*
X47375051Y20387672D01*
X47422707Y20411500D01*
X47446534Y20435328D01*
X47470362Y20482983D01*
X47470362Y20530638D01*
X47446534Y20578293D01*
X47422707Y20602121D01*
X47375051Y20625949D01*
X47279741Y20649776D01*
X47160603Y20649776D01*
X47065292Y20625949D01*
X47017637Y20602121D01*
X46993810Y20578293D01*
X46969982Y20530638D01*
X46969982Y20054086D02*
X46969982Y20006430D01*
X46993810Y19958775D01*
X47017637Y19934948D01*
X47065292Y19911120D01*
X47160603Y19887292D01*
X47279741Y19887292D01*
X47375051Y19911120D01*
X47422707Y19934948D01*
X47446534Y19958775D01*
X47470362Y20006430D01*
X47470362Y20054086D01*
X47446534Y20101741D01*
X47422707Y20125569D01*
X47375051Y20149396D01*
X47279741Y20173224D01*
X47160603Y20173224D01*
X47065292Y20149396D01*
X47017637Y20125569D01*
X46993810Y20101741D01*
X46969982Y20054086D01*
X47136775Y19672844D02*
X47470362Y19672844D01*
X47184430Y19672844D02*
X47160603Y19649016D01*
X47136775Y19601361D01*
X47136775Y19529878D01*
X47160603Y19482223D01*
X47208258Y19458395D01*
X47470362Y19458395D01*
X47208258Y19053326D02*
X47208258Y19220119D01*
X47470362Y19220119D02*
X46969982Y19220119D01*
X46969982Y18981843D01*
D11*
%TO.C,D1*%
X12841877Y48586571D02*
X12841877Y50110571D01*
X12479020Y50110571D01*
X12261305Y50038000D01*
X12116162Y49892857D01*
X12043591Y49747714D01*
X11971020Y49457428D01*
X11971020Y49239714D01*
X12043591Y48949428D01*
X12116162Y48804285D01*
X12261305Y48659142D01*
X12479020Y48586571D01*
X12841877Y48586571D01*
X10519591Y48586571D02*
X11390448Y48586571D01*
X10955020Y48586571D02*
X10955020Y50110571D01*
X11100162Y49892857D01*
X11245305Y49747714D01*
X11390448Y49675142D01*
D12*
X14847811Y50748897D02*
X14847811Y51249277D01*
X14561880Y50748897D02*
X14776329Y51034829D01*
X14561880Y51249277D02*
X14847811Y50963346D01*
X8536698Y50792803D02*
X8298421Y50792803D01*
X8584353Y50649837D02*
X8417560Y51150217D01*
X8250766Y50649837D01*
D11*
%TO.C,D2*%
X19231428Y39224857D02*
X17707428Y39224857D01*
X17707428Y38862000D01*
X17780000Y38644285D01*
X17925142Y38499142D01*
X18070285Y38426571D01*
X18360571Y38354000D01*
X18578285Y38354000D01*
X18868571Y38426571D01*
X19013714Y38499142D01*
X19158857Y38644285D01*
X19231428Y38862000D01*
X19231428Y39224857D01*
X17852571Y37773428D02*
X17780000Y37700857D01*
X17707428Y37555714D01*
X17707428Y37192857D01*
X17780000Y37047714D01*
X17852571Y36975142D01*
X17997714Y36902571D01*
X18142857Y36902571D01*
X18360571Y36975142D01*
X19231428Y37846000D01*
X19231428Y36902571D01*
D12*
X20225596Y41518598D02*
X20225596Y41280321D01*
X20368562Y41566253D02*
X19868182Y41399460D01*
X20368562Y41232666D01*
X20467622Y35231311D02*
X19967242Y35231311D01*
X20467622Y34945380D02*
X20181690Y35159829D01*
X19967242Y34945380D02*
X20253173Y35231311D01*
D11*
%TO.C,D3*%
X25454428Y57004857D02*
X23930428Y57004857D01*
X23930428Y56642000D01*
X24003000Y56424285D01*
X24148142Y56279142D01*
X24293285Y56206571D01*
X24583571Y56134000D01*
X24801285Y56134000D01*
X25091571Y56206571D01*
X25236714Y56279142D01*
X25381857Y56424285D01*
X25454428Y56642000D01*
X25454428Y57004857D01*
X23930428Y55626000D02*
X23930428Y54682571D01*
X24511000Y55190571D01*
X24511000Y54972857D01*
X24583571Y54827714D01*
X24656142Y54755142D01*
X24801285Y54682571D01*
X25164142Y54682571D01*
X25309285Y54755142D01*
X25381857Y54827714D01*
X25454428Y54972857D01*
X25454428Y55408285D01*
X25381857Y55553428D01*
X25309285Y55626000D01*
D12*
X23441962Y57811911D02*
X22941582Y57811911D01*
X23441962Y57525980D02*
X23156030Y57740429D01*
X22941582Y57525980D02*
X23227513Y57811911D01*
X23298996Y54198278D02*
X23298996Y53960001D01*
X23441962Y54245933D02*
X22941582Y54079140D01*
X23441962Y53912346D01*
D11*
%TO.C,D4*%
X30534428Y57004857D02*
X29010428Y57004857D01*
X29010428Y56642000D01*
X29083000Y56424285D01*
X29228142Y56279142D01*
X29373285Y56206571D01*
X29663571Y56134000D01*
X29881285Y56134000D01*
X30171571Y56206571D01*
X30316714Y56279142D01*
X30461857Y56424285D01*
X30534428Y56642000D01*
X30534428Y57004857D01*
X29518428Y54827714D02*
X30534428Y54827714D01*
X28937857Y55190571D02*
X30026428Y55553428D01*
X30026428Y54610000D01*
D12*
X28378996Y54198278D02*
X28378996Y53960001D01*
X28521962Y54245933D02*
X28021582Y54079140D01*
X28521962Y53912346D01*
X28521962Y57811911D02*
X28021582Y57811911D01*
X28521962Y57525980D02*
X28236030Y57740429D01*
X28021582Y57525980D02*
X28307513Y57811911D01*
D11*
%TO.C,D7*%
X43234428Y5569857D02*
X41710428Y5569857D01*
X41710428Y5207000D01*
X41783000Y4989285D01*
X41928142Y4844142D01*
X42073285Y4771571D01*
X42363571Y4699000D01*
X42581285Y4699000D01*
X42871571Y4771571D01*
X43016714Y4844142D01*
X43161857Y4989285D01*
X43234428Y5207000D01*
X43234428Y5569857D01*
X41710428Y4191000D02*
X41710428Y3175000D01*
X43234428Y3828142D01*
D12*
X41078996Y2763278D02*
X41078996Y2525001D01*
X41221962Y2810933D02*
X40721582Y2644140D01*
X41221962Y2477346D01*
X41221962Y6376911D02*
X40721582Y6376911D01*
X41221962Y6090980D02*
X40936030Y6305429D01*
X40721582Y6090980D02*
X41007513Y6376911D01*
D11*
%TO.C,D8*%
X45901428Y5569857D02*
X44377428Y5569857D01*
X44377428Y5207000D01*
X44450000Y4989285D01*
X44595142Y4844142D01*
X44740285Y4771571D01*
X45030571Y4699000D01*
X45248285Y4699000D01*
X45538571Y4771571D01*
X45683714Y4844142D01*
X45828857Y4989285D01*
X45901428Y5207000D01*
X45901428Y5569857D01*
X45030571Y3828142D02*
X44958000Y3973285D01*
X44885428Y4045857D01*
X44740285Y4118428D01*
X44667714Y4118428D01*
X44522571Y4045857D01*
X44450000Y3973285D01*
X44377428Y3828142D01*
X44377428Y3537857D01*
X44450000Y3392714D01*
X44522571Y3320142D01*
X44667714Y3247571D01*
X44740285Y3247571D01*
X44885428Y3320142D01*
X44958000Y3392714D01*
X45030571Y3537857D01*
X45030571Y3828142D01*
X45103142Y3973285D01*
X45175714Y4045857D01*
X45320857Y4118428D01*
X45611142Y4118428D01*
X45756285Y4045857D01*
X45828857Y3973285D01*
X45901428Y3828142D01*
X45901428Y3537857D01*
X45828857Y3392714D01*
X45756285Y3320142D01*
X45611142Y3247571D01*
X45320857Y3247571D01*
X45175714Y3320142D01*
X45103142Y3392714D01*
X45030571Y3537857D01*
D12*
X43888962Y6376911D02*
X43388582Y6376911D01*
X43888962Y6090980D02*
X43603030Y6305429D01*
X43388582Y6090980D02*
X43674513Y6376911D01*
X43745996Y2763278D02*
X43745996Y2525001D01*
X43888962Y2810933D02*
X43388582Y2644140D01*
X43888962Y2477346D01*
D11*
%TO.C,D9*%
X48568428Y5569857D02*
X47044428Y5569857D01*
X47044428Y5207000D01*
X47117000Y4989285D01*
X47262142Y4844142D01*
X47407285Y4771571D01*
X47697571Y4699000D01*
X47915285Y4699000D01*
X48205571Y4771571D01*
X48350714Y4844142D01*
X48495857Y4989285D01*
X48568428Y5207000D01*
X48568428Y5569857D01*
X48568428Y3973285D02*
X48568428Y3683000D01*
X48495857Y3537857D01*
X48423285Y3465285D01*
X48205571Y3320142D01*
X47915285Y3247571D01*
X47334714Y3247571D01*
X47189571Y3320142D01*
X47117000Y3392714D01*
X47044428Y3537857D01*
X47044428Y3828142D01*
X47117000Y3973285D01*
X47189571Y4045857D01*
X47334714Y4118428D01*
X47697571Y4118428D01*
X47842714Y4045857D01*
X47915285Y3973285D01*
X47987857Y3828142D01*
X47987857Y3537857D01*
X47915285Y3392714D01*
X47842714Y3320142D01*
X47697571Y3247571D01*
D12*
X46555962Y6376911D02*
X46055582Y6376911D01*
X46555962Y6090980D02*
X46270030Y6305429D01*
X46055582Y6090980D02*
X46341513Y6376911D01*
X46412996Y2763278D02*
X46412996Y2525001D01*
X46555962Y2810933D02*
X46055582Y2644140D01*
X46555962Y2477346D01*
D11*
%TO.C,D10*%
X51235428Y6295571D02*
X49711428Y6295571D01*
X49711428Y5932714D01*
X49784000Y5715000D01*
X49929142Y5569857D01*
X50074285Y5497285D01*
X50364571Y5424714D01*
X50582285Y5424714D01*
X50872571Y5497285D01*
X51017714Y5569857D01*
X51162857Y5715000D01*
X51235428Y5932714D01*
X51235428Y6295571D01*
X51235428Y3973285D02*
X51235428Y4844142D01*
X51235428Y4408714D02*
X49711428Y4408714D01*
X49929142Y4553857D01*
X50074285Y4699000D01*
X50146857Y4844142D01*
X49711428Y3029857D02*
X49711428Y2884714D01*
X49784000Y2739571D01*
X49856571Y2667000D01*
X50001714Y2594428D01*
X50292000Y2521857D01*
X50654857Y2521857D01*
X50945142Y2594428D01*
X51090285Y2667000D01*
X51162857Y2739571D01*
X51235428Y2884714D01*
X51235428Y3029857D01*
X51162857Y3175000D01*
X51090285Y3247571D01*
X50945142Y3320142D01*
X50654857Y3392714D01*
X50292000Y3392714D01*
X50001714Y3320142D01*
X49856571Y3247571D01*
X49784000Y3175000D01*
X49711428Y3029857D01*
D12*
X49079996Y2763278D02*
X49079996Y2525001D01*
X49222962Y2810933D02*
X48722582Y2644140D01*
X49222962Y2477346D01*
X49222962Y6376911D02*
X48722582Y6376911D01*
X49222962Y6090980D02*
X48937030Y6305429D01*
X48722582Y6090980D02*
X49008513Y6376911D01*
D11*
%TO.C,D11*%
X53902428Y6295571D02*
X52378428Y6295571D01*
X52378428Y5932714D01*
X52451000Y5715000D01*
X52596142Y5569857D01*
X52741285Y5497285D01*
X53031571Y5424714D01*
X53249285Y5424714D01*
X53539571Y5497285D01*
X53684714Y5569857D01*
X53829857Y5715000D01*
X53902428Y5932714D01*
X53902428Y6295571D01*
X53902428Y3973285D02*
X53902428Y4844142D01*
X53902428Y4408714D02*
X52378428Y4408714D01*
X52596142Y4553857D01*
X52741285Y4699000D01*
X52813857Y4844142D01*
X53902428Y2521857D02*
X53902428Y3392714D01*
X53902428Y2957285D02*
X52378428Y2957285D01*
X52596142Y3102428D01*
X52741285Y3247571D01*
X52813857Y3392714D01*
D12*
X51746996Y2763278D02*
X51746996Y2525001D01*
X51889962Y2810933D02*
X51389582Y2644140D01*
X51889962Y2477346D01*
X51889962Y6376911D02*
X51389582Y6376911D01*
X51889962Y6090980D02*
X51604030Y6305429D01*
X51389582Y6090980D02*
X51675513Y6376911D01*
D11*
%TO.C,D12*%
X56569428Y6295571D02*
X55045428Y6295571D01*
X55045428Y5932714D01*
X55118000Y5715000D01*
X55263142Y5569857D01*
X55408285Y5497285D01*
X55698571Y5424714D01*
X55916285Y5424714D01*
X56206571Y5497285D01*
X56351714Y5569857D01*
X56496857Y5715000D01*
X56569428Y5932714D01*
X56569428Y6295571D01*
X56569428Y3973285D02*
X56569428Y4844142D01*
X56569428Y4408714D02*
X55045428Y4408714D01*
X55263142Y4553857D01*
X55408285Y4699000D01*
X55480857Y4844142D01*
X55190571Y3392714D02*
X55118000Y3320142D01*
X55045428Y3175000D01*
X55045428Y2812142D01*
X55118000Y2667000D01*
X55190571Y2594428D01*
X55335714Y2521857D01*
X55480857Y2521857D01*
X55698571Y2594428D01*
X56569428Y3465285D01*
X56569428Y2521857D01*
D12*
X54556962Y6376911D02*
X54056582Y6376911D01*
X54556962Y6090980D02*
X54271030Y6305429D01*
X54056582Y6090980D02*
X54342513Y6376911D01*
X54413996Y2763278D02*
X54413996Y2525001D01*
X54556962Y2810933D02*
X54056582Y2644140D01*
X54556962Y2477346D01*
D11*
%TO.C,D13*%
X59236428Y6295571D02*
X57712428Y6295571D01*
X57712428Y5932714D01*
X57785000Y5715000D01*
X57930142Y5569857D01*
X58075285Y5497285D01*
X58365571Y5424714D01*
X58583285Y5424714D01*
X58873571Y5497285D01*
X59018714Y5569857D01*
X59163857Y5715000D01*
X59236428Y5932714D01*
X59236428Y6295571D01*
X59236428Y3973285D02*
X59236428Y4844142D01*
X59236428Y4408714D02*
X57712428Y4408714D01*
X57930142Y4553857D01*
X58075285Y4699000D01*
X58147857Y4844142D01*
X57712428Y3465285D02*
X57712428Y2521857D01*
X58293000Y3029857D01*
X58293000Y2812142D01*
X58365571Y2667000D01*
X58438142Y2594428D01*
X58583285Y2521857D01*
X58946142Y2521857D01*
X59091285Y2594428D01*
X59163857Y2667000D01*
X59236428Y2812142D01*
X59236428Y3247571D01*
X59163857Y3392714D01*
X59091285Y3465285D01*
D12*
X57223962Y6376911D02*
X56723582Y6376911D01*
X57223962Y6090980D02*
X56938030Y6305429D01*
X56723582Y6090980D02*
X57009513Y6376911D01*
X57080996Y2763278D02*
X57080996Y2525001D01*
X57223962Y2810933D02*
X56723582Y2644140D01*
X57223962Y2477346D01*
D13*
%TO.C,L1*%
X33627362Y33992396D02*
X33627362Y34230672D01*
X33126982Y34230672D01*
X33627362Y33563499D02*
X33627362Y33849430D01*
X33627362Y33706465D02*
X33126982Y33706465D01*
X33198465Y33754120D01*
X33246120Y33801775D01*
X33269948Y33849430D01*
%TO.C,Q1*%
X18995571Y30697714D02*
X19068142Y30734000D01*
X19140714Y30806571D01*
X19249571Y30915428D01*
X19322142Y30951714D01*
X19394714Y30951714D01*
X19358428Y30770285D02*
X19431000Y30806571D01*
X19503571Y30879142D01*
X19539857Y31024285D01*
X19539857Y31278285D01*
X19503571Y31423428D01*
X19431000Y31496000D01*
X19358428Y31532285D01*
X19213285Y31532285D01*
X19140714Y31496000D01*
X19068142Y31423428D01*
X19031857Y31278285D01*
X19031857Y31024285D01*
X19068142Y30879142D01*
X19140714Y30806571D01*
X19213285Y30770285D01*
X19358428Y30770285D01*
X18306142Y30770285D02*
X18741571Y30770285D01*
X18523857Y30770285D02*
X18523857Y31532285D01*
X18596428Y31423428D01*
X18669000Y31350857D01*
X18741571Y31314571D01*
D10*
%TO.C,R1*%
X7020862Y33992396D02*
X6782586Y34159190D01*
X7020862Y34278328D02*
X6520482Y34278328D01*
X6520482Y34087707D01*
X6544310Y34040051D01*
X6568137Y34016224D01*
X6615792Y33992396D01*
X6687275Y33992396D01*
X6734930Y34016224D01*
X6758758Y34040051D01*
X6782586Y34087707D01*
X6782586Y34278328D01*
X7020862Y33515844D02*
X7020862Y33801775D01*
X7020862Y33658810D02*
X6520482Y33658810D01*
X6591965Y33706465D01*
X6639620Y33754120D01*
X6663448Y33801775D01*
X6322362Y34619776D02*
X6322362Y34905708D01*
X6322362Y34762742D02*
X5821982Y34762742D01*
X5893465Y34810397D01*
X5941120Y34858052D01*
X5964948Y34905708D01*
X5821982Y34190879D02*
X5821982Y34286190D01*
X5845810Y34333845D01*
X5869637Y34357672D01*
X5941120Y34405328D01*
X6036430Y34429155D01*
X6227051Y34429155D01*
X6274707Y34405328D01*
X6298534Y34381500D01*
X6322362Y34333845D01*
X6322362Y34238534D01*
X6298534Y34190879D01*
X6274707Y34167051D01*
X6227051Y34143224D01*
X6107913Y34143224D01*
X6060258Y34167051D01*
X6036430Y34190879D01*
X6012603Y34238534D01*
X6012603Y34333845D01*
X6036430Y34381500D01*
X6060258Y34405328D01*
X6107913Y34429155D01*
X5821982Y33833465D02*
X5821982Y33785810D01*
X5845810Y33738154D01*
X5869637Y33714327D01*
X5917292Y33690499D01*
X6012603Y33666671D01*
X6131741Y33666671D01*
X6227051Y33690499D01*
X6274707Y33714327D01*
X6298534Y33738154D01*
X6322362Y33785810D01*
X6322362Y33833465D01*
X6298534Y33881120D01*
X6274707Y33904948D01*
X6227051Y33928775D01*
X6131741Y33952603D01*
X6012603Y33952603D01*
X5917292Y33928775D01*
X5869637Y33904948D01*
X5845810Y33881120D01*
X5821982Y33833465D01*
X6322362Y33166291D02*
X6084086Y33333085D01*
X6322362Y33452223D02*
X5821982Y33452223D01*
X5821982Y33261602D01*
X5845810Y33213947D01*
X5869637Y33190119D01*
X5917292Y33166291D01*
X5988775Y33166291D01*
X6036430Y33190119D01*
X6060258Y33213947D01*
X6084086Y33261602D01*
X6084086Y33452223D01*
%TO.C,R3*%
X5925396Y30444137D02*
X6092190Y30682413D01*
X6211328Y30444137D02*
X6211328Y30944517D01*
X6020707Y30944517D01*
X5973051Y30920690D01*
X5949224Y30896862D01*
X5925396Y30849207D01*
X5925396Y30777724D01*
X5949224Y30730069D01*
X5973051Y30706241D01*
X6020707Y30682413D01*
X6211328Y30682413D01*
X5758603Y30944517D02*
X5448844Y30944517D01*
X5615637Y30753896D01*
X5544154Y30753896D01*
X5496499Y30730069D01*
X5472671Y30706241D01*
X5448844Y30658586D01*
X5448844Y30539448D01*
X5472671Y30491792D01*
X5496499Y30467965D01*
X5544154Y30444137D01*
X5687120Y30444137D01*
X5734775Y30467965D01*
X5758603Y30491792D01*
X6298776Y29745637D02*
X6584708Y29745637D01*
X6441742Y29745637D02*
X6441742Y30246017D01*
X6489397Y30174534D01*
X6537052Y30126879D01*
X6584708Y30103051D01*
X5989017Y30246017D02*
X5941362Y30246017D01*
X5893707Y30222190D01*
X5869879Y30198362D01*
X5846051Y30150707D01*
X5822224Y30055396D01*
X5822224Y29936258D01*
X5846051Y29840948D01*
X5869879Y29793292D01*
X5893707Y29769465D01*
X5941362Y29745637D01*
X5989017Y29745637D01*
X6036672Y29769465D01*
X6060500Y29793292D01*
X6084328Y29840948D01*
X6108155Y29936258D01*
X6108155Y30055396D01*
X6084328Y30150707D01*
X6060500Y30198362D01*
X6036672Y30222190D01*
X5989017Y30246017D01*
X5512465Y30246017D02*
X5464810Y30246017D01*
X5417154Y30222190D01*
X5393327Y30198362D01*
X5369499Y30150707D01*
X5345671Y30055396D01*
X5345671Y29936258D01*
X5369499Y29840948D01*
X5393327Y29793292D01*
X5417154Y29769465D01*
X5464810Y29745637D01*
X5512465Y29745637D01*
X5560120Y29769465D01*
X5583948Y29793292D01*
X5607775Y29840948D01*
X5631603Y29936258D01*
X5631603Y30055396D01*
X5607775Y30150707D01*
X5583948Y30198362D01*
X5560120Y30222190D01*
X5512465Y30246017D01*
X4845291Y29745637D02*
X5012085Y29983913D01*
X5131223Y29745637D02*
X5131223Y30246017D01*
X4940602Y30246017D01*
X4892947Y30222190D01*
X4869119Y30198362D01*
X4845291Y30150707D01*
X4845291Y30079224D01*
X4869119Y30031569D01*
X4892947Y30007741D01*
X4940602Y29983913D01*
X5131223Y29983913D01*
%TO.C,R5*%
X34960862Y50438896D02*
X34722586Y50605690D01*
X34960862Y50724828D02*
X34460482Y50724828D01*
X34460482Y50534207D01*
X34484310Y50486551D01*
X34508137Y50462724D01*
X34555792Y50438896D01*
X34627275Y50438896D01*
X34674930Y50462724D01*
X34698758Y50486551D01*
X34722586Y50534207D01*
X34722586Y50724828D01*
X34460482Y49986171D02*
X34460482Y50224448D01*
X34698758Y50248275D01*
X34674930Y50224448D01*
X34651103Y50176792D01*
X34651103Y50057654D01*
X34674930Y50009999D01*
X34698758Y49986171D01*
X34746413Y49962344D01*
X34865551Y49962344D01*
X34913207Y49986171D01*
X34937034Y50009999D01*
X34960862Y50057654D01*
X34960862Y50176792D01*
X34937034Y50224448D01*
X34913207Y50248275D01*
X35659362Y50574000D02*
X35659362Y50859931D01*
X35659362Y50716966D02*
X35158982Y50716966D01*
X35230465Y50764621D01*
X35278120Y50812276D01*
X35301948Y50859931D01*
X35158982Y50264241D02*
X35158982Y50216586D01*
X35182810Y50168930D01*
X35206637Y50145103D01*
X35254292Y50121275D01*
X35349603Y50097448D01*
X35468741Y50097448D01*
X35564051Y50121275D01*
X35611707Y50145103D01*
X35635534Y50168930D01*
X35659362Y50216586D01*
X35659362Y50264241D01*
X35635534Y50311896D01*
X35611707Y50335724D01*
X35564051Y50359551D01*
X35468741Y50383379D01*
X35349603Y50383379D01*
X35254292Y50359551D01*
X35206637Y50335724D01*
X35182810Y50311896D01*
X35158982Y50264241D01*
X35659362Y49882999D02*
X35158982Y49882999D01*
X35659362Y49597068D02*
X35373430Y49811516D01*
X35158982Y49597068D02*
X35444913Y49882999D01*
%TO.C,R6*%
X23022862Y52661396D02*
X22784586Y52828190D01*
X23022862Y52947328D02*
X22522482Y52947328D01*
X22522482Y52756707D01*
X22546310Y52709051D01*
X22570137Y52685224D01*
X22617792Y52661396D01*
X22689275Y52661396D01*
X22736930Y52685224D01*
X22760758Y52709051D01*
X22784586Y52756707D01*
X22784586Y52947328D01*
X22522482Y52232499D02*
X22522482Y52327810D01*
X22546310Y52375465D01*
X22570137Y52399292D01*
X22641620Y52446948D01*
X22736930Y52470775D01*
X22927551Y52470775D01*
X22975207Y52446948D01*
X22999034Y52423120D01*
X23022862Y52375465D01*
X23022862Y52280154D01*
X22999034Y52232499D01*
X22975207Y52208671D01*
X22927551Y52184844D01*
X22808413Y52184844D01*
X22760758Y52208671D01*
X22736930Y52232499D01*
X22713103Y52280154D01*
X22713103Y52375465D01*
X22736930Y52423120D01*
X22760758Y52446948D01*
X22808413Y52470775D01*
X21871637Y53336431D02*
X21847810Y53312604D01*
X21823982Y53264949D01*
X21823982Y53145810D01*
X21847810Y53098155D01*
X21871637Y53074328D01*
X21919292Y53050500D01*
X21966948Y53050500D01*
X22038430Y53074328D01*
X22324362Y53360259D01*
X22324362Y53050500D01*
X22324362Y52836051D02*
X21823982Y52836051D01*
X22324362Y52550120D02*
X22038430Y52764569D01*
X21823982Y52550120D02*
X22109913Y52836051D01*
X21871637Y52359499D02*
X21847810Y52335671D01*
X21823982Y52288016D01*
X21823982Y52168878D01*
X21847810Y52121223D01*
X21871637Y52097395D01*
X21919292Y52073568D01*
X21966948Y52073568D01*
X22038430Y52097395D01*
X22324362Y52383327D01*
X22324362Y52073568D01*
%TO.C,R7*%
X27975862Y52534396D02*
X27737586Y52701190D01*
X27975862Y52820328D02*
X27475482Y52820328D01*
X27475482Y52629707D01*
X27499310Y52582051D01*
X27523137Y52558224D01*
X27570792Y52534396D01*
X27642275Y52534396D01*
X27689930Y52558224D01*
X27713758Y52582051D01*
X27737586Y52629707D01*
X27737586Y52820328D01*
X27475482Y52367603D02*
X27475482Y52034016D01*
X27975862Y52248465D01*
X26824637Y53209431D02*
X26800810Y53185604D01*
X26776982Y53137949D01*
X26776982Y53018810D01*
X26800810Y52971155D01*
X26824637Y52947328D01*
X26872292Y52923500D01*
X26919948Y52923500D01*
X26991430Y52947328D01*
X27277362Y53233259D01*
X27277362Y52923500D01*
X27277362Y52709051D02*
X26776982Y52709051D01*
X27277362Y52423120D02*
X26991430Y52637569D01*
X26776982Y52423120D02*
X27062913Y52709051D01*
X26824637Y52232499D02*
X26800810Y52208671D01*
X26776982Y52161016D01*
X26776982Y52041878D01*
X26800810Y51994223D01*
X26824637Y51970395D01*
X26872292Y51946568D01*
X26919948Y51946568D01*
X26991430Y51970395D01*
X27277362Y52256327D01*
X27277362Y51946568D01*
%TO.C,R8*%
X32928862Y52534396D02*
X32690586Y52701190D01*
X32928862Y52820328D02*
X32428482Y52820328D01*
X32428482Y52629707D01*
X32452310Y52582051D01*
X32476137Y52558224D01*
X32523792Y52534396D01*
X32595275Y52534396D01*
X32642930Y52558224D01*
X32666758Y52582051D01*
X32690586Y52629707D01*
X32690586Y52820328D01*
X32642930Y52248465D02*
X32619103Y52296120D01*
X32595275Y52319948D01*
X32547620Y52343775D01*
X32523792Y52343775D01*
X32476137Y52319948D01*
X32452310Y52296120D01*
X32428482Y52248465D01*
X32428482Y52153154D01*
X32452310Y52105499D01*
X32476137Y52081671D01*
X32523792Y52057844D01*
X32547620Y52057844D01*
X32595275Y52081671D01*
X32619103Y52105499D01*
X32642930Y52153154D01*
X32642930Y52248465D01*
X32666758Y52296120D01*
X32690586Y52319948D01*
X32738241Y52343775D01*
X32833551Y52343775D01*
X32881207Y52319948D01*
X32905034Y52296120D01*
X32928862Y52248465D01*
X32928862Y52153154D01*
X32905034Y52105499D01*
X32881207Y52081671D01*
X32833551Y52057844D01*
X32738241Y52057844D01*
X32690586Y52081671D01*
X32666758Y52105499D01*
X32642930Y52153154D01*
X31777637Y53209431D02*
X31753810Y53185604D01*
X31729982Y53137949D01*
X31729982Y53018810D01*
X31753810Y52971155D01*
X31777637Y52947328D01*
X31825292Y52923500D01*
X31872948Y52923500D01*
X31944430Y52947328D01*
X32230362Y53233259D01*
X32230362Y52923500D01*
X32230362Y52709051D02*
X31729982Y52709051D01*
X32230362Y52423120D02*
X31944430Y52637569D01*
X31729982Y52423120D02*
X32015913Y52709051D01*
X31777637Y52232499D02*
X31753810Y52208671D01*
X31729982Y52161016D01*
X31729982Y52041878D01*
X31753810Y51994223D01*
X31777637Y51970395D01*
X31825292Y51946568D01*
X31872948Y51946568D01*
X31944430Y51970395D01*
X32230362Y52256327D01*
X32230362Y51946568D01*
%TO.C,R9*%
X16847396Y27142137D02*
X17014190Y27380413D01*
X17133328Y27142137D02*
X17133328Y27642517D01*
X16942707Y27642517D01*
X16895051Y27618690D01*
X16871224Y27594862D01*
X16847396Y27547207D01*
X16847396Y27475724D01*
X16871224Y27428069D01*
X16895051Y27404241D01*
X16942707Y27380413D01*
X17133328Y27380413D01*
X16609120Y27142137D02*
X16513810Y27142137D01*
X16466154Y27165965D01*
X16442327Y27189792D01*
X16394671Y27261275D01*
X16370844Y27356586D01*
X16370844Y27547207D01*
X16394671Y27594862D01*
X16418499Y27618690D01*
X16466154Y27642517D01*
X16561465Y27642517D01*
X16609120Y27618690D01*
X16632948Y27594862D01*
X16656775Y27547207D01*
X16656775Y27428069D01*
X16632948Y27380413D01*
X16609120Y27356586D01*
X16561465Y27332758D01*
X16466154Y27332758D01*
X16418499Y27356586D01*
X16394671Y27380413D01*
X16370844Y27428069D01*
X17474776Y27840637D02*
X17760708Y27840637D01*
X17617742Y27840637D02*
X17617742Y28341017D01*
X17665397Y28269534D01*
X17713052Y28221879D01*
X17760708Y28198051D01*
X17165017Y28341017D02*
X17117362Y28341017D01*
X17069707Y28317190D01*
X17045879Y28293362D01*
X17022051Y28245707D01*
X16998224Y28150396D01*
X16998224Y28031258D01*
X17022051Y27935948D01*
X17045879Y27888292D01*
X17069707Y27864465D01*
X17117362Y27840637D01*
X17165017Y27840637D01*
X17212672Y27864465D01*
X17236500Y27888292D01*
X17260328Y27935948D01*
X17284155Y28031258D01*
X17284155Y28150396D01*
X17260328Y28245707D01*
X17236500Y28293362D01*
X17212672Y28317190D01*
X17165017Y28341017D01*
X16688465Y28341017D02*
X16640810Y28341017D01*
X16593154Y28317190D01*
X16569327Y28293362D01*
X16545499Y28245707D01*
X16521671Y28150396D01*
X16521671Y28031258D01*
X16545499Y27935948D01*
X16569327Y27888292D01*
X16593154Y27864465D01*
X16640810Y27840637D01*
X16688465Y27840637D01*
X16736120Y27864465D01*
X16759948Y27888292D01*
X16783775Y27935948D01*
X16807603Y28031258D01*
X16807603Y28150396D01*
X16783775Y28245707D01*
X16759948Y28293362D01*
X16736120Y28317190D01*
X16688465Y28341017D01*
X16021291Y27840637D02*
X16188085Y28078913D01*
X16307223Y27840637D02*
X16307223Y28341017D01*
X16116602Y28341017D01*
X16068947Y28317190D01*
X16045119Y28293362D01*
X16021291Y28245707D01*
X16021291Y28174224D01*
X16045119Y28126569D01*
X16068947Y28102741D01*
X16116602Y28078913D01*
X16307223Y28078913D01*
%TO.C,R10*%
X16990362Y25404172D02*
X16752086Y25570966D01*
X16990362Y25690104D02*
X16489982Y25690104D01*
X16489982Y25499483D01*
X16513810Y25451828D01*
X16537637Y25428000D01*
X16585292Y25404172D01*
X16656775Y25404172D01*
X16704430Y25428000D01*
X16728258Y25451828D01*
X16752086Y25499483D01*
X16752086Y25690104D01*
X16990362Y24927620D02*
X16990362Y25213551D01*
X16990362Y25070586D02*
X16489982Y25070586D01*
X16561465Y25118241D01*
X16609120Y25165896D01*
X16632948Y25213551D01*
X16489982Y24617861D02*
X16489982Y24570206D01*
X16513810Y24522550D01*
X16537637Y24498723D01*
X16585292Y24474895D01*
X16680603Y24451068D01*
X16799741Y24451068D01*
X16895051Y24474895D01*
X16942707Y24498723D01*
X16966534Y24522550D01*
X16990362Y24570206D01*
X16990362Y24617861D01*
X16966534Y24665516D01*
X16942707Y24689344D01*
X16895051Y24713171D01*
X16799741Y24736999D01*
X16680603Y24736999D01*
X16585292Y24713171D01*
X16537637Y24689344D01*
X16513810Y24665516D01*
X16489982Y24617861D01*
X17688862Y25062724D02*
X17688862Y25348655D01*
X17688862Y25205690D02*
X17188482Y25205690D01*
X17259965Y25253345D01*
X17307620Y25301000D01*
X17331448Y25348655D01*
X17688862Y24848275D02*
X17188482Y24848275D01*
X17688862Y24562344D02*
X17402930Y24776792D01*
X17188482Y24562344D02*
X17474413Y24848275D01*
%TO.C,R11*%
X26451862Y49470672D02*
X26213586Y49637466D01*
X26451862Y49756604D02*
X25951482Y49756604D01*
X25951482Y49565983D01*
X25975310Y49518328D01*
X25999137Y49494500D01*
X26046792Y49470672D01*
X26118275Y49470672D01*
X26165930Y49494500D01*
X26189758Y49518328D01*
X26213586Y49565983D01*
X26213586Y49756604D01*
X26451862Y48994120D02*
X26451862Y49280051D01*
X26451862Y49137086D02*
X25951482Y49137086D01*
X26022965Y49184741D01*
X26070620Y49232396D01*
X26094448Y49280051D01*
X26451862Y48517568D02*
X26451862Y48803499D01*
X26451862Y48660533D02*
X25951482Y48660533D01*
X26022965Y48708189D01*
X26070620Y48755844D01*
X26094448Y48803499D01*
X25252982Y49931259D02*
X25252982Y49597672D01*
X25753362Y49812121D01*
X25753362Y49407051D02*
X25252982Y49407051D01*
X25753362Y49121120D02*
X25467430Y49335569D01*
X25252982Y49121120D02*
X25538913Y49407051D01*
X25252982Y48668395D02*
X25252982Y48906671D01*
X25491258Y48930499D01*
X25467430Y48906671D01*
X25443603Y48859016D01*
X25443603Y48739878D01*
X25467430Y48692223D01*
X25491258Y48668395D01*
X25538913Y48644568D01*
X25658051Y48644568D01*
X25705707Y48668395D01*
X25729534Y48692223D01*
X25753362Y48739878D01*
X25753362Y48859016D01*
X25729534Y48906671D01*
X25705707Y48930499D01*
%TO.C,R12*%
X24419862Y49470672D02*
X24181586Y49637466D01*
X24419862Y49756604D02*
X23919482Y49756604D01*
X23919482Y49565983D01*
X23943310Y49518328D01*
X23967137Y49494500D01*
X24014792Y49470672D01*
X24086275Y49470672D01*
X24133930Y49494500D01*
X24157758Y49518328D01*
X24181586Y49565983D01*
X24181586Y49756604D01*
X24419862Y48994120D02*
X24419862Y49280051D01*
X24419862Y49137086D02*
X23919482Y49137086D01*
X23990965Y49184741D01*
X24038620Y49232396D01*
X24062448Y49280051D01*
X23967137Y48803499D02*
X23943310Y48779671D01*
X23919482Y48732016D01*
X23919482Y48612878D01*
X23943310Y48565223D01*
X23967137Y48541395D01*
X24014792Y48517568D01*
X24062448Y48517568D01*
X24133930Y48541395D01*
X24419862Y48827327D01*
X24419862Y48517568D01*
X23220982Y49931259D02*
X23220982Y49597672D01*
X23721362Y49812121D01*
X23721362Y49407051D02*
X23220982Y49407051D01*
X23721362Y49121120D02*
X23435430Y49335569D01*
X23220982Y49121120D02*
X23506913Y49407051D01*
X23220982Y48668395D02*
X23220982Y48906671D01*
X23459258Y48930499D01*
X23435430Y48906671D01*
X23411603Y48859016D01*
X23411603Y48739878D01*
X23435430Y48692223D01*
X23459258Y48668395D01*
X23506913Y48644568D01*
X23626051Y48644568D01*
X23673707Y48668395D01*
X23697534Y48692223D01*
X23721362Y48739878D01*
X23721362Y48859016D01*
X23697534Y48906671D01*
X23673707Y48930499D01*
%TO.C,R13*%
X34103672Y45049137D02*
X34270466Y45287413D01*
X34389604Y45049137D02*
X34389604Y45549517D01*
X34198983Y45549517D01*
X34151328Y45525690D01*
X34127500Y45501862D01*
X34103672Y45454207D01*
X34103672Y45382724D01*
X34127500Y45335069D01*
X34151328Y45311241D01*
X34198983Y45287413D01*
X34389604Y45287413D01*
X33627120Y45049137D02*
X33913051Y45049137D01*
X33770086Y45049137D02*
X33770086Y45549517D01*
X33817741Y45478034D01*
X33865396Y45430379D01*
X33913051Y45406551D01*
X33460327Y45549517D02*
X33150568Y45549517D01*
X33317361Y45358896D01*
X33245878Y45358896D01*
X33198223Y45335069D01*
X33174395Y45311241D01*
X33150568Y45263586D01*
X33150568Y45144448D01*
X33174395Y45096792D01*
X33198223Y45072965D01*
X33245878Y45049137D01*
X33388844Y45049137D01*
X33436499Y45072965D01*
X33460327Y45096792D01*
X34731052Y45747637D02*
X34635742Y45747637D01*
X34588087Y45771465D01*
X34564259Y45795292D01*
X34516604Y45866775D01*
X34492776Y45962086D01*
X34492776Y46152707D01*
X34516604Y46200362D01*
X34540431Y46224190D01*
X34588087Y46248017D01*
X34683397Y46248017D01*
X34731052Y46224190D01*
X34754880Y46200362D01*
X34778708Y46152707D01*
X34778708Y46033569D01*
X34754880Y45985913D01*
X34731052Y45962086D01*
X34683397Y45938258D01*
X34588087Y45938258D01*
X34540431Y45962086D01*
X34516604Y45985913D01*
X34492776Y46033569D01*
X34278328Y45747637D02*
X34278328Y46248017D01*
X33992396Y45747637D02*
X34206845Y46033569D01*
X33992396Y46248017D02*
X34278328Y45962086D01*
X33825603Y46248017D02*
X33515844Y46248017D01*
X33682637Y46057396D01*
X33611154Y46057396D01*
X33563499Y46033569D01*
X33539671Y46009741D01*
X33515844Y45962086D01*
X33515844Y45842948D01*
X33539671Y45795292D01*
X33563499Y45771465D01*
X33611154Y45747637D01*
X33754120Y45747637D01*
X33801775Y45771465D01*
X33825603Y45795292D01*
X33039291Y45747637D02*
X33325223Y45747637D01*
X33182257Y45747637D02*
X33182257Y46248017D01*
X33229912Y46176534D01*
X33277568Y46128879D01*
X33325223Y46105051D01*
D14*
%TO.C,R16*%
X36393380Y35313857D02*
X35917190Y35647190D01*
X36393380Y35885285D02*
X35393380Y35885285D01*
X35393380Y35504333D01*
X35441000Y35409095D01*
X35488619Y35361476D01*
X35583857Y35313857D01*
X35726714Y35313857D01*
X35821952Y35361476D01*
X35869571Y35409095D01*
X35917190Y35504333D01*
X35917190Y35885285D01*
X36393380Y34361476D02*
X36393380Y34932904D01*
X36393380Y34647190D02*
X35393380Y34647190D01*
X35536238Y34742428D01*
X35631476Y34837666D01*
X35679095Y34932904D01*
X35393380Y33504333D02*
X35393380Y33694809D01*
X35441000Y33790047D01*
X35488619Y33837666D01*
X35631476Y33932904D01*
X35821952Y33980523D01*
X36202904Y33980523D01*
X36298142Y33932904D01*
X36345761Y33885285D01*
X36393380Y33790047D01*
X36393380Y33599571D01*
X36345761Y33504333D01*
X36298142Y33456714D01*
X36202904Y33409095D01*
X35964809Y33409095D01*
X35869571Y33456714D01*
X35821952Y33504333D01*
X35774333Y33599571D01*
X35774333Y33790047D01*
X35821952Y33885285D01*
X35869571Y33932904D01*
X35964809Y33980523D01*
D10*
%TO.C,R18*%
X66075862Y25467672D02*
X65837586Y25634466D01*
X66075862Y25753604D02*
X65575482Y25753604D01*
X65575482Y25562983D01*
X65599310Y25515328D01*
X65623137Y25491500D01*
X65670792Y25467672D01*
X65742275Y25467672D01*
X65789930Y25491500D01*
X65813758Y25515328D01*
X65837586Y25562983D01*
X65837586Y25753604D01*
X66075862Y24991120D02*
X66075862Y25277051D01*
X66075862Y25134086D02*
X65575482Y25134086D01*
X65646965Y25181741D01*
X65694620Y25229396D01*
X65718448Y25277051D01*
X65789930Y24705189D02*
X65766103Y24752844D01*
X65742275Y24776671D01*
X65694620Y24800499D01*
X65670792Y24800499D01*
X65623137Y24776671D01*
X65599310Y24752844D01*
X65575482Y24705189D01*
X65575482Y24609878D01*
X65599310Y24562223D01*
X65623137Y24538395D01*
X65670792Y24514568D01*
X65694620Y24514568D01*
X65742275Y24538395D01*
X65766103Y24562223D01*
X65789930Y24609878D01*
X65789930Y24705189D01*
X65813758Y24752844D01*
X65837586Y24776671D01*
X65885241Y24800499D01*
X65980551Y24800499D01*
X66028207Y24776671D01*
X66052034Y24752844D01*
X66075862Y24705189D01*
X66075862Y24609878D01*
X66052034Y24562223D01*
X66028207Y24538395D01*
X65980551Y24514568D01*
X65885241Y24514568D01*
X65837586Y24538395D01*
X65813758Y24562223D01*
X65789930Y24609878D01*
X65377362Y25856776D02*
X65377362Y26142708D01*
X65377362Y25999742D02*
X64876982Y25999742D01*
X64948465Y26047397D01*
X64996120Y26095052D01*
X65019948Y26142708D01*
X64876982Y25547017D02*
X64876982Y25499362D01*
X64900810Y25451707D01*
X64924637Y25427879D01*
X64972292Y25404051D01*
X65067603Y25380224D01*
X65186741Y25380224D01*
X65282051Y25404051D01*
X65329707Y25427879D01*
X65353534Y25451707D01*
X65377362Y25499362D01*
X65377362Y25547017D01*
X65353534Y25594672D01*
X65329707Y25618500D01*
X65282051Y25642328D01*
X65186741Y25666155D01*
X65067603Y25666155D01*
X64972292Y25642328D01*
X64924637Y25618500D01*
X64900810Y25594672D01*
X64876982Y25547017D01*
X64876982Y25070465D02*
X64876982Y25022810D01*
X64900810Y24975154D01*
X64924637Y24951327D01*
X64972292Y24927499D01*
X65067603Y24903671D01*
X65186741Y24903671D01*
X65282051Y24927499D01*
X65329707Y24951327D01*
X65353534Y24975154D01*
X65377362Y25022810D01*
X65377362Y25070465D01*
X65353534Y25118120D01*
X65329707Y25141948D01*
X65282051Y25165775D01*
X65186741Y25189603D01*
X65067603Y25189603D01*
X64972292Y25165775D01*
X64924637Y25141948D01*
X64900810Y25118120D01*
X64876982Y25070465D01*
X65377362Y24403291D02*
X65139086Y24570085D01*
X65377362Y24689223D02*
X64876982Y24689223D01*
X64876982Y24498602D01*
X64900810Y24450947D01*
X64924637Y24427119D01*
X64972292Y24403291D01*
X65043775Y24403291D01*
X65091430Y24427119D01*
X65115258Y24450947D01*
X65139086Y24498602D01*
X65139086Y24689223D01*
%TO.C,R19*%
X69155672Y25999137D02*
X69322466Y26237413D01*
X69441604Y25999137D02*
X69441604Y26499517D01*
X69250983Y26499517D01*
X69203328Y26475690D01*
X69179500Y26451862D01*
X69155672Y26404207D01*
X69155672Y26332724D01*
X69179500Y26285069D01*
X69203328Y26261241D01*
X69250983Y26237413D01*
X69441604Y26237413D01*
X68679120Y25999137D02*
X68965051Y25999137D01*
X68822086Y25999137D02*
X68822086Y26499517D01*
X68869741Y26428034D01*
X68917396Y26380379D01*
X68965051Y26356551D01*
X68440844Y25999137D02*
X68345533Y25999137D01*
X68297878Y26022965D01*
X68274050Y26046792D01*
X68226395Y26118275D01*
X68202568Y26213586D01*
X68202568Y26404207D01*
X68226395Y26451862D01*
X68250223Y26475690D01*
X68297878Y26499517D01*
X68393189Y26499517D01*
X68440844Y26475690D01*
X68464671Y26451862D01*
X68488499Y26404207D01*
X68488499Y26285069D01*
X68464671Y26237413D01*
X68440844Y26213586D01*
X68393189Y26189758D01*
X68297878Y26189758D01*
X68250223Y26213586D01*
X68226395Y26237413D01*
X68202568Y26285069D01*
X69290776Y25300637D02*
X69576708Y25300637D01*
X69433742Y25300637D02*
X69433742Y25801017D01*
X69481397Y25729534D01*
X69529052Y25681879D01*
X69576708Y25658051D01*
X68981017Y25801017D02*
X68933362Y25801017D01*
X68885707Y25777190D01*
X68861879Y25753362D01*
X68838051Y25705707D01*
X68814224Y25610396D01*
X68814224Y25491258D01*
X68838051Y25395948D01*
X68861879Y25348292D01*
X68885707Y25324465D01*
X68933362Y25300637D01*
X68981017Y25300637D01*
X69028672Y25324465D01*
X69052500Y25348292D01*
X69076328Y25395948D01*
X69100155Y25491258D01*
X69100155Y25610396D01*
X69076328Y25705707D01*
X69052500Y25753362D01*
X69028672Y25777190D01*
X68981017Y25801017D01*
X68504465Y25801017D02*
X68456810Y25801017D01*
X68409154Y25777190D01*
X68385327Y25753362D01*
X68361499Y25705707D01*
X68337671Y25610396D01*
X68337671Y25491258D01*
X68361499Y25395948D01*
X68385327Y25348292D01*
X68409154Y25324465D01*
X68456810Y25300637D01*
X68504465Y25300637D01*
X68552120Y25324465D01*
X68575948Y25348292D01*
X68599775Y25395948D01*
X68623603Y25491258D01*
X68623603Y25610396D01*
X68599775Y25705707D01*
X68575948Y25753362D01*
X68552120Y25777190D01*
X68504465Y25801017D01*
X67837291Y25300637D02*
X68004085Y25538913D01*
X68123223Y25300637D02*
X68123223Y25801017D01*
X67932602Y25801017D01*
X67884947Y25777190D01*
X67861119Y25753362D01*
X67837291Y25705707D01*
X67837291Y25634224D01*
X67861119Y25586569D01*
X67884947Y25562741D01*
X67932602Y25538913D01*
X68123223Y25538913D01*
%TO.C,R20*%
X72044862Y14672672D02*
X71806586Y14839466D01*
X72044862Y14958604D02*
X71544482Y14958604D01*
X71544482Y14767983D01*
X71568310Y14720328D01*
X71592137Y14696500D01*
X71639792Y14672672D01*
X71711275Y14672672D01*
X71758930Y14696500D01*
X71782758Y14720328D01*
X71806586Y14767983D01*
X71806586Y14958604D01*
X71592137Y14482051D02*
X71568310Y14458224D01*
X71544482Y14410569D01*
X71544482Y14291430D01*
X71568310Y14243775D01*
X71592137Y14219948D01*
X71639792Y14196120D01*
X71687448Y14196120D01*
X71758930Y14219948D01*
X72044862Y14505879D01*
X72044862Y14196120D01*
X71544482Y13886361D02*
X71544482Y13838706D01*
X71568310Y13791050D01*
X71592137Y13767223D01*
X71639792Y13743395D01*
X71735103Y13719568D01*
X71854241Y13719568D01*
X71949551Y13743395D01*
X71997207Y13767223D01*
X72021034Y13791050D01*
X72044862Y13838706D01*
X72044862Y13886361D01*
X72021034Y13934016D01*
X71997207Y13957844D01*
X71949551Y13981671D01*
X71854241Y14005499D01*
X71735103Y14005499D01*
X71639792Y13981671D01*
X71592137Y13957844D01*
X71568310Y13934016D01*
X71544482Y13886361D01*
X71346362Y14585224D02*
X71346362Y14871155D01*
X71346362Y14728190D02*
X70845982Y14728190D01*
X70917465Y14775845D01*
X70965120Y14823500D01*
X70988948Y14871155D01*
X71346362Y14370775D02*
X70845982Y14370775D01*
X71346362Y14084844D02*
X71060430Y14299292D01*
X70845982Y14084844D02*
X71131913Y14370775D01*
%TO.C,R21*%
X15783862Y25404172D02*
X15545586Y25570966D01*
X15783862Y25690104D02*
X15283482Y25690104D01*
X15283482Y25499483D01*
X15307310Y25451828D01*
X15331137Y25428000D01*
X15378792Y25404172D01*
X15450275Y25404172D01*
X15497930Y25428000D01*
X15521758Y25451828D01*
X15545586Y25499483D01*
X15545586Y25690104D01*
X15331137Y25213551D02*
X15307310Y25189724D01*
X15283482Y25142069D01*
X15283482Y25022930D01*
X15307310Y24975275D01*
X15331137Y24951448D01*
X15378792Y24927620D01*
X15426448Y24927620D01*
X15497930Y24951448D01*
X15783862Y25237379D01*
X15783862Y24927620D01*
X15783862Y24451068D02*
X15783862Y24736999D01*
X15783862Y24594033D02*
X15283482Y24594033D01*
X15354965Y24641689D01*
X15402620Y24689344D01*
X15426448Y24736999D01*
X14632637Y26031552D02*
X14608810Y26007725D01*
X14584982Y25960070D01*
X14584982Y25840931D01*
X14608810Y25793276D01*
X14632637Y25769449D01*
X14680292Y25745621D01*
X14727948Y25745621D01*
X14799430Y25769449D01*
X15085362Y26055380D01*
X15085362Y25745621D01*
X14584982Y25578828D02*
X14584982Y25245241D01*
X15085362Y25459690D01*
X14584982Y24959310D02*
X14584982Y24911654D01*
X14608810Y24863999D01*
X14632637Y24840171D01*
X14680292Y24816344D01*
X14775603Y24792516D01*
X14894741Y24792516D01*
X14990051Y24816344D01*
X15037707Y24840171D01*
X15061534Y24863999D01*
X15085362Y24911654D01*
X15085362Y24959310D01*
X15061534Y25006965D01*
X15037707Y25030792D01*
X14990051Y25054620D01*
X14894741Y25078448D01*
X14775603Y25078448D01*
X14680292Y25054620D01*
X14632637Y25030792D01*
X14608810Y25006965D01*
X14584982Y24959310D01*
X15085362Y24578068D02*
X14584982Y24578068D01*
X14894741Y24530412D02*
X15085362Y24387447D01*
X14751775Y24387447D02*
X14942396Y24578068D01*
%TO.C,R23*%
X55852362Y32579672D02*
X55614086Y32746466D01*
X55852362Y32865604D02*
X55351982Y32865604D01*
X55351982Y32674983D01*
X55375810Y32627328D01*
X55399637Y32603500D01*
X55447292Y32579672D01*
X55518775Y32579672D01*
X55566430Y32603500D01*
X55590258Y32627328D01*
X55614086Y32674983D01*
X55614086Y32865604D01*
X55399637Y32389051D02*
X55375810Y32365224D01*
X55351982Y32317569D01*
X55351982Y32198430D01*
X55375810Y32150775D01*
X55399637Y32126948D01*
X55447292Y32103120D01*
X55494948Y32103120D01*
X55566430Y32126948D01*
X55852362Y32412879D01*
X55852362Y32103120D01*
X55351982Y31936327D02*
X55351982Y31626568D01*
X55542603Y31793361D01*
X55542603Y31721878D01*
X55566430Y31674223D01*
X55590258Y31650395D01*
X55637913Y31626568D01*
X55757051Y31626568D01*
X55804707Y31650395D01*
X55828534Y31674223D01*
X55852362Y31721878D01*
X55852362Y31864844D01*
X55828534Y31912499D01*
X55804707Y31936327D01*
X56550862Y34120606D02*
X56550862Y34406537D01*
X56550862Y34263571D02*
X56050482Y34263571D01*
X56121965Y34311227D01*
X56169620Y34358882D01*
X56193448Y34406537D01*
X56050482Y33691709D02*
X56050482Y33787019D01*
X56074310Y33834674D01*
X56098137Y33858502D01*
X56169620Y33906157D01*
X56264930Y33929985D01*
X56455551Y33929985D01*
X56503207Y33906157D01*
X56527034Y33882330D01*
X56550862Y33834674D01*
X56550862Y33739364D01*
X56527034Y33691709D01*
X56503207Y33667881D01*
X56455551Y33644053D01*
X56336413Y33644053D01*
X56288758Y33667881D01*
X56264930Y33691709D01*
X56241103Y33739364D01*
X56241103Y33834674D01*
X56264930Y33882330D01*
X56288758Y33906157D01*
X56336413Y33929985D01*
X56550862Y33429605D02*
X56050482Y33429605D01*
X56360241Y33381950D02*
X56550862Y33238984D01*
X56217275Y33238984D02*
X56407896Y33429605D01*
X56050482Y32786259D02*
X56050482Y33024535D01*
X56288758Y33048363D01*
X56264930Y33024535D01*
X56241103Y32976880D01*
X56241103Y32857742D01*
X56264930Y32810087D01*
X56288758Y32786259D01*
X56336413Y32762431D01*
X56455551Y32762431D01*
X56503207Y32786259D01*
X56527034Y32810087D01*
X56550862Y32857742D01*
X56550862Y32976880D01*
X56527034Y33024535D01*
X56503207Y33048363D01*
X56098137Y32190569D02*
X56074310Y32166741D01*
X56050482Y32119086D01*
X56050482Y31999948D01*
X56074310Y31952292D01*
X56098137Y31928465D01*
X56145792Y31904637D01*
X56193448Y31904637D01*
X56264930Y31928465D01*
X56550862Y32214396D01*
X56550862Y31904637D01*
X56050482Y31451912D02*
X56050482Y31690189D01*
X56288758Y31714016D01*
X56264930Y31690189D01*
X56241103Y31642533D01*
X56241103Y31523395D01*
X56264930Y31475740D01*
X56288758Y31451912D01*
X56336413Y31428085D01*
X56455551Y31428085D01*
X56503207Y31451912D01*
X56527034Y31475740D01*
X56550862Y31523395D01*
X56550862Y31642533D01*
X56527034Y31690189D01*
X56503207Y31714016D01*
X56217275Y31213636D02*
X56717655Y31213636D01*
X56241103Y31213636D02*
X56217275Y31165981D01*
X56217275Y31070670D01*
X56241103Y31023015D01*
X56264930Y30999188D01*
X56312586Y30975360D01*
X56455551Y30975360D01*
X56503207Y30999188D01*
X56527034Y31023015D01*
X56550862Y31070670D01*
X56550862Y31165981D01*
X56527034Y31213636D01*
X56217275Y30760911D02*
X56717655Y30760911D01*
X56241103Y30760911D02*
X56217275Y30713256D01*
X56217275Y30617946D01*
X56241103Y30570290D01*
X56264930Y30546463D01*
X56312586Y30522635D01*
X56455551Y30522635D01*
X56503207Y30546463D01*
X56527034Y30570290D01*
X56550862Y30617946D01*
X56550862Y30713256D01*
X56527034Y30760911D01*
X56550862Y30308187D02*
X56217275Y30308187D01*
X56264930Y30308187D02*
X56241103Y30284359D01*
X56217275Y30236704D01*
X56217275Y30165221D01*
X56241103Y30117566D01*
X56288758Y30093738D01*
X56550862Y30093738D01*
X56288758Y30093738D02*
X56241103Y30069910D01*
X56217275Y30022255D01*
X56217275Y29950772D01*
X56241103Y29903117D01*
X56288758Y29879290D01*
X56550862Y29879290D01*
%TO.C,R24*%
X52963172Y28729637D02*
X53129966Y28967913D01*
X53249104Y28729637D02*
X53249104Y29230017D01*
X53058483Y29230017D01*
X53010828Y29206190D01*
X52987000Y29182362D01*
X52963172Y29134707D01*
X52963172Y29063224D01*
X52987000Y29015569D01*
X53010828Y28991741D01*
X53058483Y28967913D01*
X53249104Y28967913D01*
X52772551Y29182362D02*
X52748724Y29206190D01*
X52701069Y29230017D01*
X52581930Y29230017D01*
X52534275Y29206190D01*
X52510448Y29182362D01*
X52486620Y29134707D01*
X52486620Y29087051D01*
X52510448Y29015569D01*
X52796379Y28729637D01*
X52486620Y28729637D01*
X52057723Y29063224D02*
X52057723Y28729637D01*
X52176861Y29253845D02*
X52295999Y28896430D01*
X51986240Y28896430D01*
X55592072Y29428137D02*
X55878004Y29428137D01*
X55735038Y29428137D02*
X55735038Y29928517D01*
X55782693Y29857034D01*
X55830349Y29809379D01*
X55878004Y29785551D01*
X55163175Y29761724D02*
X55163175Y29428137D01*
X55282313Y29952345D02*
X55401451Y29594930D01*
X55091692Y29594930D01*
X54805761Y29928517D02*
X54758106Y29928517D01*
X54710450Y29904690D01*
X54686623Y29880862D01*
X54662795Y29833207D01*
X54638968Y29737896D01*
X54638968Y29618758D01*
X54662795Y29523448D01*
X54686623Y29475792D01*
X54710450Y29451965D01*
X54758106Y29428137D01*
X54805761Y29428137D01*
X54853416Y29451965D01*
X54877244Y29475792D01*
X54901071Y29523448D01*
X54924899Y29618758D01*
X54924899Y29737896D01*
X54901071Y29833207D01*
X54877244Y29880862D01*
X54853416Y29904690D01*
X54805761Y29928517D01*
X54424519Y29428137D02*
X54424519Y29928517D01*
X54376864Y29618758D02*
X54233898Y29428137D01*
X54233898Y29761724D02*
X54424519Y29571103D01*
X53638208Y29475792D02*
X53614380Y29451965D01*
X53638208Y29428137D01*
X53662035Y29451965D01*
X53638208Y29475792D01*
X53638208Y29428137D01*
X53137828Y29428137D02*
X53423759Y29428137D01*
X53280793Y29428137D02*
X53280793Y29928517D01*
X53328449Y29857034D01*
X53376104Y29809379D01*
X53423759Y29785551D01*
X52947207Y29428137D02*
X52565965Y29928517D01*
X52875724Y29928517D02*
X52828069Y29904690D01*
X52804241Y29857034D01*
X52828069Y29809379D01*
X52875724Y29785551D01*
X52923379Y29809379D01*
X52947207Y29857034D01*
X52923379Y29904690D01*
X52875724Y29928517D01*
X52589792Y29451965D02*
X52565965Y29499620D01*
X52589792Y29547275D01*
X52637448Y29571103D01*
X52685103Y29547275D01*
X52708930Y29499620D01*
X52685103Y29451965D01*
X52637448Y29428137D01*
X52589792Y29451965D01*
X51994102Y29880862D02*
X51970274Y29904690D01*
X51922619Y29928517D01*
X51803481Y29928517D01*
X51755826Y29904690D01*
X51731998Y29880862D01*
X51708170Y29833207D01*
X51708170Y29785551D01*
X51731998Y29714069D01*
X52017930Y29428137D01*
X51708170Y29428137D01*
X51255446Y29928517D02*
X51493722Y29928517D01*
X51517550Y29690241D01*
X51493722Y29714069D01*
X51446067Y29737896D01*
X51326929Y29737896D01*
X51279273Y29714069D01*
X51255446Y29690241D01*
X51231618Y29642586D01*
X51231618Y29523448D01*
X51255446Y29475792D01*
X51279273Y29451965D01*
X51326929Y29428137D01*
X51446067Y29428137D01*
X51493722Y29451965D01*
X51517550Y29475792D01*
X51017170Y29761724D02*
X51017170Y29261344D01*
X51017170Y29737896D02*
X50969514Y29761724D01*
X50874204Y29761724D01*
X50826549Y29737896D01*
X50802721Y29714069D01*
X50778893Y29666413D01*
X50778893Y29523448D01*
X50802721Y29475792D01*
X50826549Y29451965D01*
X50874204Y29428137D01*
X50969514Y29428137D01*
X51017170Y29451965D01*
X50564445Y29761724D02*
X50564445Y29261344D01*
X50564445Y29737896D02*
X50516790Y29761724D01*
X50421479Y29761724D01*
X50373824Y29737896D01*
X50349996Y29714069D01*
X50326169Y29666413D01*
X50326169Y29523448D01*
X50349996Y29475792D01*
X50373824Y29451965D01*
X50421479Y29428137D01*
X50516790Y29428137D01*
X50564445Y29451965D01*
X50111720Y29428137D02*
X50111720Y29761724D01*
X50111720Y29714069D02*
X50087892Y29737896D01*
X50040237Y29761724D01*
X49968754Y29761724D01*
X49921099Y29737896D01*
X49897271Y29690241D01*
X49897271Y29428137D01*
X49897271Y29690241D02*
X49873444Y29737896D01*
X49825789Y29761724D01*
X49754306Y29761724D01*
X49706650Y29737896D01*
X49682823Y29690241D01*
X49682823Y29428137D01*
%TO.C,R25*%
X51851862Y36453172D02*
X51613586Y36619966D01*
X51851862Y36739104D02*
X51351482Y36739104D01*
X51351482Y36548483D01*
X51375310Y36500828D01*
X51399137Y36477000D01*
X51446792Y36453172D01*
X51518275Y36453172D01*
X51565930Y36477000D01*
X51589758Y36500828D01*
X51613586Y36548483D01*
X51613586Y36739104D01*
X51399137Y36262551D02*
X51375310Y36238724D01*
X51351482Y36191069D01*
X51351482Y36071930D01*
X51375310Y36024275D01*
X51399137Y36000448D01*
X51446792Y35976620D01*
X51494448Y35976620D01*
X51565930Y36000448D01*
X51851862Y36286379D01*
X51851862Y35976620D01*
X51351482Y35523895D02*
X51351482Y35762171D01*
X51589758Y35785999D01*
X51565930Y35762171D01*
X51542103Y35714516D01*
X51542103Y35595378D01*
X51565930Y35547723D01*
X51589758Y35523895D01*
X51637413Y35500068D01*
X51756551Y35500068D01*
X51804207Y35523895D01*
X51828034Y35547723D01*
X51851862Y35595378D01*
X51851862Y35714516D01*
X51828034Y35762171D01*
X51804207Y35785999D01*
X50700637Y37080552D02*
X50676810Y37056725D01*
X50652982Y37009070D01*
X50652982Y36889931D01*
X50676810Y36842276D01*
X50700637Y36818449D01*
X50748292Y36794621D01*
X50795948Y36794621D01*
X50867430Y36818449D01*
X51153362Y37104380D01*
X51153362Y36794621D01*
X50652982Y36627828D02*
X50652982Y36294241D01*
X51153362Y36508690D01*
X50652982Y36008310D02*
X50652982Y35960654D01*
X50676810Y35912999D01*
X50700637Y35889171D01*
X50748292Y35865344D01*
X50843603Y35841516D01*
X50962741Y35841516D01*
X51058051Y35865344D01*
X51105707Y35889171D01*
X51129534Y35912999D01*
X51153362Y35960654D01*
X51153362Y36008310D01*
X51129534Y36055965D01*
X51105707Y36079792D01*
X51058051Y36103620D01*
X50962741Y36127448D01*
X50843603Y36127448D01*
X50748292Y36103620D01*
X50700637Y36079792D01*
X50676810Y36055965D01*
X50652982Y36008310D01*
X51153362Y35627068D02*
X50652982Y35627068D01*
X50962741Y35579412D02*
X51153362Y35436447D01*
X50819775Y35436447D02*
X51010396Y35627068D01*
%TO.C,R26*%
X51851862Y33151172D02*
X51613586Y33317966D01*
X51851862Y33437104D02*
X51351482Y33437104D01*
X51351482Y33246483D01*
X51375310Y33198828D01*
X51399137Y33175000D01*
X51446792Y33151172D01*
X51518275Y33151172D01*
X51565930Y33175000D01*
X51589758Y33198828D01*
X51613586Y33246483D01*
X51613586Y33437104D01*
X51399137Y32960551D02*
X51375310Y32936724D01*
X51351482Y32889069D01*
X51351482Y32769930D01*
X51375310Y32722275D01*
X51399137Y32698448D01*
X51446792Y32674620D01*
X51494448Y32674620D01*
X51565930Y32698448D01*
X51851862Y32984379D01*
X51851862Y32674620D01*
X51351482Y32245723D02*
X51351482Y32341033D01*
X51375310Y32388689D01*
X51399137Y32412516D01*
X51470620Y32460171D01*
X51565930Y32483999D01*
X51756551Y32483999D01*
X51804207Y32460171D01*
X51828034Y32436344D01*
X51851862Y32388689D01*
X51851862Y32293378D01*
X51828034Y32245723D01*
X51804207Y32221895D01*
X51756551Y32198068D01*
X51637413Y32198068D01*
X51589758Y32221895D01*
X51565930Y32245723D01*
X51542103Y32293378D01*
X51542103Y32388689D01*
X51565930Y32436344D01*
X51589758Y32460171D01*
X51637413Y32483999D01*
X51153362Y33492621D02*
X51153362Y33778552D01*
X51153362Y33635587D02*
X50652982Y33635587D01*
X50724465Y33683242D01*
X50772120Y33730897D01*
X50795948Y33778552D01*
X50652982Y33063724D02*
X50652982Y33159034D01*
X50676810Y33206690D01*
X50700637Y33230517D01*
X50772120Y33278172D01*
X50867430Y33302000D01*
X51058051Y33302000D01*
X51105707Y33278172D01*
X51129534Y33254345D01*
X51153362Y33206690D01*
X51153362Y33111379D01*
X51129534Y33063724D01*
X51105707Y33039896D01*
X51058051Y33016069D01*
X50938913Y33016069D01*
X50891258Y33039896D01*
X50867430Y33063724D01*
X50843603Y33111379D01*
X50843603Y33206690D01*
X50867430Y33254345D01*
X50891258Y33278172D01*
X50938913Y33302000D01*
X50652982Y32563344D02*
X50652982Y32801620D01*
X50891258Y32825448D01*
X50867430Y32801620D01*
X50843603Y32753965D01*
X50843603Y32634827D01*
X50867430Y32587171D01*
X50891258Y32563344D01*
X50938913Y32539516D01*
X51058051Y32539516D01*
X51105707Y32563344D01*
X51129534Y32587171D01*
X51153362Y32634827D01*
X51153362Y32753965D01*
X51129534Y32801620D01*
X51105707Y32825448D01*
X51153362Y32325068D02*
X50652982Y32325068D01*
X50962741Y32277412D02*
X51153362Y32134447D01*
X50819775Y32134447D02*
X51010396Y32325068D01*
%TO.C,R27*%
X43088862Y9973672D02*
X42850586Y10140466D01*
X43088862Y10259604D02*
X42588482Y10259604D01*
X42588482Y10068983D01*
X42612310Y10021328D01*
X42636137Y9997500D01*
X42683792Y9973672D01*
X42755275Y9973672D01*
X42802930Y9997500D01*
X42826758Y10021328D01*
X42850586Y10068983D01*
X42850586Y10259604D01*
X42636137Y9783051D02*
X42612310Y9759224D01*
X42588482Y9711569D01*
X42588482Y9592430D01*
X42612310Y9544775D01*
X42636137Y9520948D01*
X42683792Y9497120D01*
X42731448Y9497120D01*
X42802930Y9520948D01*
X43088862Y9806879D01*
X43088862Y9497120D01*
X42588482Y9330327D02*
X42588482Y8996740D01*
X43088862Y9211189D01*
X41937637Y10410431D02*
X41913810Y10386604D01*
X41889982Y10338949D01*
X41889982Y10219810D01*
X41913810Y10172155D01*
X41937637Y10148328D01*
X41985292Y10124500D01*
X42032948Y10124500D01*
X42104430Y10148328D01*
X42390362Y10434259D01*
X42390362Y10124500D01*
X42390362Y9910051D02*
X41889982Y9910051D01*
X42390362Y9624120D02*
X42104430Y9838569D01*
X41889982Y9624120D02*
X42175913Y9910051D01*
X41937637Y9433499D02*
X41913810Y9409671D01*
X41889982Y9362016D01*
X41889982Y9242878D01*
X41913810Y9195223D01*
X41937637Y9171395D01*
X41985292Y9147568D01*
X42032948Y9147568D01*
X42104430Y9171395D01*
X42390362Y9457327D01*
X42390362Y9147568D01*
%TO.C,R28*%
X45755862Y9973672D02*
X45517586Y10140466D01*
X45755862Y10259604D02*
X45255482Y10259604D01*
X45255482Y10068983D01*
X45279310Y10021328D01*
X45303137Y9997500D01*
X45350792Y9973672D01*
X45422275Y9973672D01*
X45469930Y9997500D01*
X45493758Y10021328D01*
X45517586Y10068983D01*
X45517586Y10259604D01*
X45303137Y9783051D02*
X45279310Y9759224D01*
X45255482Y9711569D01*
X45255482Y9592430D01*
X45279310Y9544775D01*
X45303137Y9520948D01*
X45350792Y9497120D01*
X45398448Y9497120D01*
X45469930Y9520948D01*
X45755862Y9806879D01*
X45755862Y9497120D01*
X45469930Y9211189D02*
X45446103Y9258844D01*
X45422275Y9282671D01*
X45374620Y9306499D01*
X45350792Y9306499D01*
X45303137Y9282671D01*
X45279310Y9258844D01*
X45255482Y9211189D01*
X45255482Y9115878D01*
X45279310Y9068223D01*
X45303137Y9044395D01*
X45350792Y9020568D01*
X45374620Y9020568D01*
X45422275Y9044395D01*
X45446103Y9068223D01*
X45469930Y9115878D01*
X45469930Y9211189D01*
X45493758Y9258844D01*
X45517586Y9282671D01*
X45565241Y9306499D01*
X45660551Y9306499D01*
X45708207Y9282671D01*
X45732034Y9258844D01*
X45755862Y9211189D01*
X45755862Y9115878D01*
X45732034Y9068223D01*
X45708207Y9044395D01*
X45660551Y9020568D01*
X45565241Y9020568D01*
X45517586Y9044395D01*
X45493758Y9068223D01*
X45469930Y9115878D01*
X44604637Y10410431D02*
X44580810Y10386604D01*
X44556982Y10338949D01*
X44556982Y10219810D01*
X44580810Y10172155D01*
X44604637Y10148328D01*
X44652292Y10124500D01*
X44699948Y10124500D01*
X44771430Y10148328D01*
X45057362Y10434259D01*
X45057362Y10124500D01*
X45057362Y9910051D02*
X44556982Y9910051D01*
X45057362Y9624120D02*
X44771430Y9838569D01*
X44556982Y9624120D02*
X44842913Y9910051D01*
X44604637Y9433499D02*
X44580810Y9409671D01*
X44556982Y9362016D01*
X44556982Y9242878D01*
X44580810Y9195223D01*
X44604637Y9171395D01*
X44652292Y9147568D01*
X44699948Y9147568D01*
X44771430Y9171395D01*
X45057362Y9457327D01*
X45057362Y9147568D01*
%TO.C,R29*%
X48422862Y9973672D02*
X48184586Y10140466D01*
X48422862Y10259604D02*
X47922482Y10259604D01*
X47922482Y10068983D01*
X47946310Y10021328D01*
X47970137Y9997500D01*
X48017792Y9973672D01*
X48089275Y9973672D01*
X48136930Y9997500D01*
X48160758Y10021328D01*
X48184586Y10068983D01*
X48184586Y10259604D01*
X47970137Y9783051D02*
X47946310Y9759224D01*
X47922482Y9711569D01*
X47922482Y9592430D01*
X47946310Y9544775D01*
X47970137Y9520948D01*
X48017792Y9497120D01*
X48065448Y9497120D01*
X48136930Y9520948D01*
X48422862Y9806879D01*
X48422862Y9497120D01*
X48422862Y9258844D02*
X48422862Y9163533D01*
X48399034Y9115878D01*
X48375207Y9092050D01*
X48303724Y9044395D01*
X48208413Y9020568D01*
X48017792Y9020568D01*
X47970137Y9044395D01*
X47946310Y9068223D01*
X47922482Y9115878D01*
X47922482Y9211189D01*
X47946310Y9258844D01*
X47970137Y9282671D01*
X48017792Y9306499D01*
X48136930Y9306499D01*
X48184586Y9282671D01*
X48208413Y9258844D01*
X48232241Y9211189D01*
X48232241Y9115878D01*
X48208413Y9068223D01*
X48184586Y9044395D01*
X48136930Y9020568D01*
X47271637Y10410431D02*
X47247810Y10386604D01*
X47223982Y10338949D01*
X47223982Y10219810D01*
X47247810Y10172155D01*
X47271637Y10148328D01*
X47319292Y10124500D01*
X47366948Y10124500D01*
X47438430Y10148328D01*
X47724362Y10434259D01*
X47724362Y10124500D01*
X47724362Y9910051D02*
X47223982Y9910051D01*
X47724362Y9624120D02*
X47438430Y9838569D01*
X47223982Y9624120D02*
X47509913Y9910051D01*
X47271637Y9433499D02*
X47247810Y9409671D01*
X47223982Y9362016D01*
X47223982Y9242878D01*
X47247810Y9195223D01*
X47271637Y9171395D01*
X47319292Y9147568D01*
X47366948Y9147568D01*
X47438430Y9171395D01*
X47724362Y9457327D01*
X47724362Y9147568D01*
%TO.C,R30*%
X51089862Y9973672D02*
X50851586Y10140466D01*
X51089862Y10259604D02*
X50589482Y10259604D01*
X50589482Y10068983D01*
X50613310Y10021328D01*
X50637137Y9997500D01*
X50684792Y9973672D01*
X50756275Y9973672D01*
X50803930Y9997500D01*
X50827758Y10021328D01*
X50851586Y10068983D01*
X50851586Y10259604D01*
X50589482Y9806879D02*
X50589482Y9497120D01*
X50780103Y9663913D01*
X50780103Y9592430D01*
X50803930Y9544775D01*
X50827758Y9520948D01*
X50875413Y9497120D01*
X50994551Y9497120D01*
X51042207Y9520948D01*
X51066034Y9544775D01*
X51089862Y9592430D01*
X51089862Y9735396D01*
X51066034Y9783051D01*
X51042207Y9806879D01*
X50589482Y9187361D02*
X50589482Y9139706D01*
X50613310Y9092050D01*
X50637137Y9068223D01*
X50684792Y9044395D01*
X50780103Y9020568D01*
X50899241Y9020568D01*
X50994551Y9044395D01*
X51042207Y9068223D01*
X51066034Y9092050D01*
X51089862Y9139706D01*
X51089862Y9187361D01*
X51066034Y9235016D01*
X51042207Y9258844D01*
X50994551Y9282671D01*
X50899241Y9306499D01*
X50780103Y9306499D01*
X50684792Y9282671D01*
X50637137Y9258844D01*
X50613310Y9235016D01*
X50589482Y9187361D01*
X49938637Y10410431D02*
X49914810Y10386604D01*
X49890982Y10338949D01*
X49890982Y10219810D01*
X49914810Y10172155D01*
X49938637Y10148328D01*
X49986292Y10124500D01*
X50033948Y10124500D01*
X50105430Y10148328D01*
X50391362Y10434259D01*
X50391362Y10124500D01*
X50391362Y9910051D02*
X49890982Y9910051D01*
X50391362Y9624120D02*
X50105430Y9838569D01*
X49890982Y9624120D02*
X50176913Y9910051D01*
X49938637Y9433499D02*
X49914810Y9409671D01*
X49890982Y9362016D01*
X49890982Y9242878D01*
X49914810Y9195223D01*
X49938637Y9171395D01*
X49986292Y9147568D01*
X50033948Y9147568D01*
X50105430Y9171395D01*
X50391362Y9457327D01*
X50391362Y9147568D01*
%TO.C,R31*%
X53756862Y9973672D02*
X53518586Y10140466D01*
X53756862Y10259604D02*
X53256482Y10259604D01*
X53256482Y10068983D01*
X53280310Y10021328D01*
X53304137Y9997500D01*
X53351792Y9973672D01*
X53423275Y9973672D01*
X53470930Y9997500D01*
X53494758Y10021328D01*
X53518586Y10068983D01*
X53518586Y10259604D01*
X53256482Y9806879D02*
X53256482Y9497120D01*
X53447103Y9663913D01*
X53447103Y9592430D01*
X53470930Y9544775D01*
X53494758Y9520948D01*
X53542413Y9497120D01*
X53661551Y9497120D01*
X53709207Y9520948D01*
X53733034Y9544775D01*
X53756862Y9592430D01*
X53756862Y9735396D01*
X53733034Y9783051D01*
X53709207Y9806879D01*
X53756862Y9020568D02*
X53756862Y9306499D01*
X53756862Y9163533D02*
X53256482Y9163533D01*
X53327965Y9211189D01*
X53375620Y9258844D01*
X53399448Y9306499D01*
X52605637Y10410431D02*
X52581810Y10386604D01*
X52557982Y10338949D01*
X52557982Y10219810D01*
X52581810Y10172155D01*
X52605637Y10148328D01*
X52653292Y10124500D01*
X52700948Y10124500D01*
X52772430Y10148328D01*
X53058362Y10434259D01*
X53058362Y10124500D01*
X53058362Y9910051D02*
X52557982Y9910051D01*
X53058362Y9624120D02*
X52772430Y9838569D01*
X52557982Y9624120D02*
X52843913Y9910051D01*
X52605637Y9433499D02*
X52581810Y9409671D01*
X52557982Y9362016D01*
X52557982Y9242878D01*
X52581810Y9195223D01*
X52605637Y9171395D01*
X52653292Y9147568D01*
X52700948Y9147568D01*
X52772430Y9171395D01*
X53058362Y9457327D01*
X53058362Y9147568D01*
%TO.C,R32*%
X56423862Y9973672D02*
X56185586Y10140466D01*
X56423862Y10259604D02*
X55923482Y10259604D01*
X55923482Y10068983D01*
X55947310Y10021328D01*
X55971137Y9997500D01*
X56018792Y9973672D01*
X56090275Y9973672D01*
X56137930Y9997500D01*
X56161758Y10021328D01*
X56185586Y10068983D01*
X56185586Y10259604D01*
X55923482Y9806879D02*
X55923482Y9497120D01*
X56114103Y9663913D01*
X56114103Y9592430D01*
X56137930Y9544775D01*
X56161758Y9520948D01*
X56209413Y9497120D01*
X56328551Y9497120D01*
X56376207Y9520948D01*
X56400034Y9544775D01*
X56423862Y9592430D01*
X56423862Y9735396D01*
X56400034Y9783051D01*
X56376207Y9806879D01*
X55971137Y9306499D02*
X55947310Y9282671D01*
X55923482Y9235016D01*
X55923482Y9115878D01*
X55947310Y9068223D01*
X55971137Y9044395D01*
X56018792Y9020568D01*
X56066448Y9020568D01*
X56137930Y9044395D01*
X56423862Y9330327D01*
X56423862Y9020568D01*
X55272637Y10410431D02*
X55248810Y10386604D01*
X55224982Y10338949D01*
X55224982Y10219810D01*
X55248810Y10172155D01*
X55272637Y10148328D01*
X55320292Y10124500D01*
X55367948Y10124500D01*
X55439430Y10148328D01*
X55725362Y10434259D01*
X55725362Y10124500D01*
X55725362Y9910051D02*
X55224982Y9910051D01*
X55725362Y9624120D02*
X55439430Y9838569D01*
X55224982Y9624120D02*
X55510913Y9910051D01*
X55272637Y9433499D02*
X55248810Y9409671D01*
X55224982Y9362016D01*
X55224982Y9242878D01*
X55248810Y9195223D01*
X55272637Y9171395D01*
X55320292Y9147568D01*
X55367948Y9147568D01*
X55439430Y9171395D01*
X55725362Y9457327D01*
X55725362Y9147568D01*
%TO.C,R33*%
X59090862Y9973672D02*
X58852586Y10140466D01*
X59090862Y10259604D02*
X58590482Y10259604D01*
X58590482Y10068983D01*
X58614310Y10021328D01*
X58638137Y9997500D01*
X58685792Y9973672D01*
X58757275Y9973672D01*
X58804930Y9997500D01*
X58828758Y10021328D01*
X58852586Y10068983D01*
X58852586Y10259604D01*
X58590482Y9806879D02*
X58590482Y9497120D01*
X58781103Y9663913D01*
X58781103Y9592430D01*
X58804930Y9544775D01*
X58828758Y9520948D01*
X58876413Y9497120D01*
X58995551Y9497120D01*
X59043207Y9520948D01*
X59067034Y9544775D01*
X59090862Y9592430D01*
X59090862Y9735396D01*
X59067034Y9783051D01*
X59043207Y9806879D01*
X58590482Y9330327D02*
X58590482Y9020568D01*
X58781103Y9187361D01*
X58781103Y9115878D01*
X58804930Y9068223D01*
X58828758Y9044395D01*
X58876413Y9020568D01*
X58995551Y9020568D01*
X59043207Y9044395D01*
X59067034Y9068223D01*
X59090862Y9115878D01*
X59090862Y9258844D01*
X59067034Y9306499D01*
X59043207Y9330327D01*
X57939637Y10410431D02*
X57915810Y10386604D01*
X57891982Y10338949D01*
X57891982Y10219810D01*
X57915810Y10172155D01*
X57939637Y10148328D01*
X57987292Y10124500D01*
X58034948Y10124500D01*
X58106430Y10148328D01*
X58392362Y10434259D01*
X58392362Y10124500D01*
X58392362Y9910051D02*
X57891982Y9910051D01*
X58392362Y9624120D02*
X58106430Y9838569D01*
X57891982Y9624120D02*
X58177913Y9910051D01*
X57939637Y9433499D02*
X57915810Y9409671D01*
X57891982Y9362016D01*
X57891982Y9242878D01*
X57915810Y9195223D01*
X57939637Y9171395D01*
X57987292Y9147568D01*
X58034948Y9147568D01*
X58106430Y9171395D01*
X58392362Y9457327D01*
X58392362Y9147568D01*
D11*
%TO.C,U1*%
X11611428Y29609142D02*
X12845142Y29609142D01*
X12990285Y29536571D01*
X13062857Y29464000D01*
X13135428Y29318857D01*
X13135428Y29028571D01*
X13062857Y28883428D01*
X12990285Y28810857D01*
X12845142Y28738285D01*
X11611428Y28738285D01*
X13135428Y27214285D02*
X13135428Y28085142D01*
X13135428Y27649714D02*
X11611428Y27649714D01*
X11829142Y27794857D01*
X11974285Y27940000D01*
X12046857Y28085142D01*
D14*
X9826761Y27559000D02*
X10302952Y27559000D01*
X10112476Y28035190D02*
X10302952Y27559000D01*
X10112476Y27082809D01*
X10683904Y27844714D02*
X10302952Y27559000D01*
X10683904Y27273285D01*
D11*
%TO.C,U4*%
X50854428Y17925142D02*
X52088142Y17925142D01*
X52233285Y17852571D01*
X52305857Y17780000D01*
X52378428Y17634857D01*
X52378428Y17344571D01*
X52305857Y17199428D01*
X52233285Y17126857D01*
X52088142Y17054285D01*
X50854428Y17054285D01*
X51362428Y15675428D02*
X52378428Y15675428D01*
X50781857Y16038285D02*
X51870428Y16401142D01*
X51870428Y15457714D01*
D14*
%TO.C,U3*%
X57530904Y25566619D02*
X57530904Y24757095D01*
X57483285Y24661857D01*
X57435666Y24614238D01*
X57340428Y24566619D01*
X57149952Y24566619D01*
X57054714Y24614238D01*
X57007095Y24661857D01*
X56959476Y24757095D01*
X56959476Y25566619D01*
X56578523Y25566619D02*
X55959476Y25566619D01*
X56292809Y25185666D01*
X56149952Y25185666D01*
X56054714Y25138047D01*
X56007095Y25090428D01*
X55959476Y24995190D01*
X55959476Y24757095D01*
X56007095Y24661857D01*
X56054714Y24614238D01*
X56149952Y24566619D01*
X56435666Y24566619D01*
X56530904Y24614238D01*
X56578523Y24661857D01*
D10*
%TO.C,R4*%
X46390862Y50629396D02*
X46152586Y50796190D01*
X46390862Y50915328D02*
X45890482Y50915328D01*
X45890482Y50724707D01*
X45914310Y50677051D01*
X45938137Y50653224D01*
X45985792Y50629396D01*
X46057275Y50629396D01*
X46104930Y50653224D01*
X46128758Y50677051D01*
X46152586Y50724707D01*
X46152586Y50915328D01*
X46057275Y50200499D02*
X46390862Y50200499D01*
X45866654Y50319637D02*
X46224069Y50438775D01*
X46224069Y50129016D01*
X47089362Y50716845D02*
X47089362Y51002776D01*
X47089362Y50859810D02*
X46588982Y50859810D01*
X46660465Y50907466D01*
X46708120Y50955121D01*
X46731948Y51002776D01*
X46588982Y50407086D02*
X46588982Y50359430D01*
X46612810Y50311775D01*
X46636637Y50287948D01*
X46684292Y50264120D01*
X46779603Y50240292D01*
X46898741Y50240292D01*
X46994051Y50264120D01*
X47041707Y50287948D01*
X47065534Y50311775D01*
X47089362Y50359430D01*
X47089362Y50407086D01*
X47065534Y50454741D01*
X47041707Y50478569D01*
X46994051Y50502396D01*
X46898741Y50526224D01*
X46779603Y50526224D01*
X46684292Y50502396D01*
X46636637Y50478569D01*
X46612810Y50454741D01*
X46588982Y50407086D01*
X47089362Y50025844D02*
X46588982Y50025844D01*
X46898741Y49978189D02*
X47089362Y49835223D01*
X46755775Y49835223D02*
X46946396Y50025844D01*
%TO.C,R14*%
X30007862Y48708672D02*
X29769586Y48875466D01*
X30007862Y48994604D02*
X29507482Y48994604D01*
X29507482Y48803983D01*
X29531310Y48756328D01*
X29555137Y48732500D01*
X29602792Y48708672D01*
X29674275Y48708672D01*
X29721930Y48732500D01*
X29745758Y48756328D01*
X29769586Y48803983D01*
X29769586Y48994604D01*
X30007862Y48232120D02*
X30007862Y48518051D01*
X30007862Y48375086D02*
X29507482Y48375086D01*
X29578965Y48422741D01*
X29626620Y48470396D01*
X29650448Y48518051D01*
X29674275Y47803223D02*
X30007862Y47803223D01*
X29483654Y47922361D02*
X29841069Y48041499D01*
X29841069Y47731740D01*
X30372775Y48891431D02*
X30706362Y48891431D01*
X30182154Y49010570D02*
X30539569Y49129708D01*
X30539569Y48819949D01*
X30372775Y48414879D02*
X30706362Y48414879D01*
X30182154Y48534017D02*
X30539569Y48653155D01*
X30539569Y48343396D01*
X30253637Y48176603D02*
X30229810Y48152775D01*
X30205982Y48105120D01*
X30205982Y47985982D01*
X30229810Y47938327D01*
X30253637Y47914499D01*
X30301292Y47890671D01*
X30348948Y47890671D01*
X30420430Y47914499D01*
X30706362Y48200430D01*
X30706362Y47890671D01*
X30706362Y47676223D02*
X30205982Y47676223D01*
X30706362Y47390291D02*
X30420430Y47604740D01*
X30205982Y47390291D02*
X30491913Y47676223D01*
D11*
%TO.C,U2*%
X26216428Y44849142D02*
X27450142Y44849142D01*
X27595285Y44776571D01*
X27667857Y44704000D01*
X27740428Y44558857D01*
X27740428Y44268571D01*
X27667857Y44123428D01*
X27595285Y44050857D01*
X27450142Y43978285D01*
X26216428Y43978285D01*
X26361571Y43325142D02*
X26289000Y43252571D01*
X26216428Y43107428D01*
X26216428Y42744571D01*
X26289000Y42599428D01*
X26361571Y42526857D01*
X26506714Y42454285D01*
X26651857Y42454285D01*
X26869571Y42526857D01*
X27740428Y43397714D01*
X27740428Y42454285D01*
D14*
X24177761Y42037000D02*
X24653952Y42037000D01*
X24463476Y42513190D02*
X24653952Y42037000D01*
X24463476Y41560809D01*
X25034904Y42322714D02*
X24653952Y42037000D01*
X25034904Y41751285D01*
D11*
%TO.C,D5*%
X35614428Y57004857D02*
X34090428Y57004857D01*
X34090428Y56642000D01*
X34163000Y56424285D01*
X34308142Y56279142D01*
X34453285Y56206571D01*
X34743571Y56134000D01*
X34961285Y56134000D01*
X35251571Y56206571D01*
X35396714Y56279142D01*
X35541857Y56424285D01*
X35614428Y56642000D01*
X35614428Y57004857D01*
X34090428Y54755142D02*
X34090428Y55480857D01*
X34816142Y55553428D01*
X34743571Y55480857D01*
X34671000Y55335714D01*
X34671000Y54972857D01*
X34743571Y54827714D01*
X34816142Y54755142D01*
X34961285Y54682571D01*
X35324142Y54682571D01*
X35469285Y54755142D01*
X35541857Y54827714D01*
X35614428Y54972857D01*
X35614428Y55335714D01*
X35541857Y55480857D01*
X35469285Y55553428D01*
D12*
X33458996Y54198278D02*
X33458996Y53960001D01*
X33601962Y54245933D02*
X33101582Y54079140D01*
X33601962Y53912346D01*
X33601962Y57811911D02*
X33101582Y57811911D01*
X33601962Y57525980D02*
X33316030Y57740429D01*
X33101582Y57525980D02*
X33387513Y57811911D01*
D10*
%TO.C,C4*%
X8751207Y30690396D02*
X8775034Y30714224D01*
X8798862Y30785707D01*
X8798862Y30833362D01*
X8775034Y30904845D01*
X8727379Y30952500D01*
X8679724Y30976328D01*
X8584413Y31000155D01*
X8512930Y31000155D01*
X8417620Y30976328D01*
X8369965Y30952500D01*
X8322310Y30904845D01*
X8298482Y30833362D01*
X8298482Y30785707D01*
X8322310Y30714224D01*
X8346137Y30690396D01*
X8465275Y30261499D02*
X8798862Y30261499D01*
X8274654Y30380637D02*
X8632069Y30499775D01*
X8632069Y30190016D01*
X9497362Y31254397D02*
X9497362Y31540329D01*
X9497362Y31397363D02*
X8996982Y31397363D01*
X9068465Y31445018D01*
X9116120Y31492673D01*
X9139948Y31540329D01*
X8996982Y30944638D02*
X8996982Y30896983D01*
X9020810Y30849328D01*
X9044637Y30825500D01*
X9092292Y30801672D01*
X9187603Y30777845D01*
X9306741Y30777845D01*
X9402051Y30801672D01*
X9449707Y30825500D01*
X9473534Y30849328D01*
X9497362Y30896983D01*
X9497362Y30944638D01*
X9473534Y30992293D01*
X9449707Y31016121D01*
X9402051Y31039949D01*
X9306741Y31063776D01*
X9187603Y31063776D01*
X9092292Y31039949D01*
X9044637Y31016121D01*
X9020810Y30992293D01*
X8996982Y30944638D01*
X8996982Y30468086D02*
X8996982Y30420430D01*
X9020810Y30372775D01*
X9044637Y30348948D01*
X9092292Y30325120D01*
X9187603Y30301292D01*
X9306741Y30301292D01*
X9402051Y30325120D01*
X9449707Y30348948D01*
X9473534Y30372775D01*
X9497362Y30420430D01*
X9497362Y30468086D01*
X9473534Y30515741D01*
X9449707Y30539569D01*
X9402051Y30563396D01*
X9306741Y30587224D01*
X9187603Y30587224D01*
X9092292Y30563396D01*
X9044637Y30539569D01*
X9020810Y30515741D01*
X8996982Y30468086D01*
X9163775Y30086844D02*
X9497362Y30086844D01*
X9211430Y30086844D02*
X9187603Y30063016D01*
X9163775Y30015361D01*
X9163775Y29943878D01*
X9187603Y29896223D01*
X9235258Y29872395D01*
X9497362Y29872395D01*
X9235258Y29467326D02*
X9235258Y29634119D01*
X9497362Y29634119D02*
X8996982Y29634119D01*
X8996982Y29395843D01*
%TO.C,C3*%
X20054207Y43263396D02*
X20078034Y43287224D01*
X20101862Y43358707D01*
X20101862Y43406362D01*
X20078034Y43477845D01*
X20030379Y43525500D01*
X19982724Y43549328D01*
X19887413Y43573155D01*
X19815930Y43573155D01*
X19720620Y43549328D01*
X19672965Y43525500D01*
X19625310Y43477845D01*
X19601482Y43406362D01*
X19601482Y43358707D01*
X19625310Y43287224D01*
X19649137Y43263396D01*
X19601482Y43096603D02*
X19601482Y42786844D01*
X19792103Y42953637D01*
X19792103Y42882154D01*
X19815930Y42834499D01*
X19839758Y42810671D01*
X19887413Y42786844D01*
X20006551Y42786844D01*
X20054207Y42810671D01*
X20078034Y42834499D01*
X20101862Y42882154D01*
X20101862Y43025120D01*
X20078034Y43072775D01*
X20054207Y43096603D01*
X20800362Y43589121D02*
X20800362Y43875052D01*
X20800362Y43732087D02*
X20299982Y43732087D01*
X20371465Y43779742D01*
X20419120Y43827397D01*
X20442948Y43875052D01*
X20299982Y43279362D02*
X20299982Y43231707D01*
X20323810Y43184051D01*
X20347637Y43160224D01*
X20395292Y43136396D01*
X20490603Y43112569D01*
X20609741Y43112569D01*
X20705051Y43136396D01*
X20752707Y43160224D01*
X20776534Y43184051D01*
X20800362Y43231707D01*
X20800362Y43279362D01*
X20776534Y43327017D01*
X20752707Y43350845D01*
X20705051Y43374672D01*
X20609741Y43398500D01*
X20490603Y43398500D01*
X20395292Y43374672D01*
X20347637Y43350845D01*
X20323810Y43327017D01*
X20299982Y43279362D01*
X20466775Y42683671D02*
X20800362Y42683671D01*
X20466775Y42898120D02*
X20728879Y42898120D01*
X20776534Y42874292D01*
X20800362Y42826637D01*
X20800362Y42755154D01*
X20776534Y42707499D01*
X20752707Y42683671D01*
X20538258Y42278602D02*
X20538258Y42445395D01*
X20800362Y42445395D02*
X20299982Y42445395D01*
X20299982Y42207119D01*
D11*
%TO.C,C2*%
X17816285Y46497240D02*
X17888857Y46569811D01*
X17961428Y46787525D01*
X17961428Y46932668D01*
X17888857Y47150382D01*
X17743714Y47295525D01*
X17598571Y47368097D01*
X17308285Y47440668D01*
X17090571Y47440668D01*
X16800285Y47368097D01*
X16655142Y47295525D01*
X16510000Y47150382D01*
X16437428Y46932668D01*
X16437428Y46787525D01*
X16510000Y46569811D01*
X16582571Y46497240D01*
X16582571Y45916668D02*
X16510000Y45844097D01*
X16437428Y45698954D01*
X16437428Y45336097D01*
X16510000Y45190954D01*
X16582571Y45118382D01*
X16727714Y45045811D01*
X16872857Y45045811D01*
X17090571Y45118382D01*
X17961428Y45989240D01*
X17961428Y45045811D01*
X14830697Y51822531D02*
X14830697Y50661388D01*
X15411268Y51241960D02*
X14250125Y51241960D01*
%TO.C,C10*%
X33364714Y23712714D02*
X33437285Y23640142D01*
X33655000Y23567571D01*
X33800142Y23567571D01*
X34017857Y23640142D01*
X34163000Y23785285D01*
X34235571Y23930428D01*
X34308142Y24220714D01*
X34308142Y24438428D01*
X34235571Y24728714D01*
X34163000Y24873857D01*
X34017857Y25019000D01*
X33800142Y25091571D01*
X33655000Y25091571D01*
X33437285Y25019000D01*
X33364714Y24946428D01*
X31913285Y23567571D02*
X32784142Y23567571D01*
X32348714Y23567571D02*
X32348714Y25091571D01*
X32493857Y24873857D01*
X32639000Y24728714D01*
X32784142Y24656142D01*
X30969857Y25091571D02*
X30824714Y25091571D01*
X30679571Y25019000D01*
X30607000Y24946428D01*
X30534428Y24801285D01*
X30461857Y24511000D01*
X30461857Y24148142D01*
X30534428Y23857857D01*
X30607000Y23712714D01*
X30679571Y23640142D01*
X30824714Y23567571D01*
X30969857Y23567571D01*
X31115000Y23640142D01*
X31187571Y23712714D01*
X31260142Y23857857D01*
X31332714Y24148142D01*
X31332714Y24511000D01*
X31260142Y24801285D01*
X31187571Y24946428D01*
X31115000Y25019000D01*
X30969857Y25091571D01*
X27187071Y21476062D02*
X26025928Y21476062D01*
X26606500Y20895491D02*
X26606500Y22056634D01*
D10*
%TO.C,R2*%
X5925396Y28158137D02*
X6092190Y28396413D01*
X6211328Y28158137D02*
X6211328Y28658517D01*
X6020707Y28658517D01*
X5973051Y28634690D01*
X5949224Y28610862D01*
X5925396Y28563207D01*
X5925396Y28491724D01*
X5949224Y28444069D01*
X5973051Y28420241D01*
X6020707Y28396413D01*
X6211328Y28396413D01*
X5734775Y28610862D02*
X5710948Y28634690D01*
X5663292Y28658517D01*
X5544154Y28658517D01*
X5496499Y28634690D01*
X5472671Y28610862D01*
X5448844Y28563207D01*
X5448844Y28515551D01*
X5472671Y28444069D01*
X5758603Y28158137D01*
X5448844Y28158137D01*
X6584708Y27912362D02*
X6560880Y27936190D01*
X6513225Y27960017D01*
X6394087Y27960017D01*
X6346431Y27936190D01*
X6322604Y27912362D01*
X6298776Y27864707D01*
X6298776Y27817051D01*
X6322604Y27745569D01*
X6608535Y27459637D01*
X6298776Y27459637D01*
X5869879Y27960017D02*
X5965190Y27960017D01*
X6012845Y27936190D01*
X6036672Y27912362D01*
X6084328Y27840879D01*
X6108155Y27745569D01*
X6108155Y27554948D01*
X6084328Y27507292D01*
X6060500Y27483465D01*
X6012845Y27459637D01*
X5917534Y27459637D01*
X5869879Y27483465D01*
X5846051Y27507292D01*
X5822224Y27554948D01*
X5822224Y27674086D01*
X5846051Y27721741D01*
X5869879Y27745569D01*
X5917534Y27769396D01*
X6012845Y27769396D01*
X6060500Y27745569D01*
X6084328Y27721741D01*
X6108155Y27674086D01*
X5512465Y27960017D02*
X5464810Y27960017D01*
X5417154Y27936190D01*
X5393327Y27912362D01*
X5369499Y27864707D01*
X5345671Y27769396D01*
X5345671Y27650258D01*
X5369499Y27554948D01*
X5393327Y27507292D01*
X5417154Y27483465D01*
X5464810Y27459637D01*
X5512465Y27459637D01*
X5560120Y27483465D01*
X5583948Y27507292D01*
X5607775Y27554948D01*
X5631603Y27650258D01*
X5631603Y27769396D01*
X5607775Y27864707D01*
X5583948Y27912362D01*
X5560120Y27936190D01*
X5512465Y27960017D01*
X4845291Y27459637D02*
X5012085Y27697913D01*
X5131223Y27459637D02*
X5131223Y27960017D01*
X4940602Y27960017D01*
X4892947Y27936190D01*
X4869119Y27912362D01*
X4845291Y27864707D01*
X4845291Y27793224D01*
X4869119Y27745569D01*
X4892947Y27721741D01*
X4940602Y27697913D01*
X5131223Y27697913D01*
D11*
%TO.C,D14*%
X61903428Y6295571D02*
X60379428Y6295571D01*
X60379428Y5932714D01*
X60452000Y5715000D01*
X60597142Y5569857D01*
X60742285Y5497285D01*
X61032571Y5424714D01*
X61250285Y5424714D01*
X61540571Y5497285D01*
X61685714Y5569857D01*
X61830857Y5715000D01*
X61903428Y5932714D01*
X61903428Y6295571D01*
X61903428Y3973285D02*
X61903428Y4844142D01*
X61903428Y4408714D02*
X60379428Y4408714D01*
X60597142Y4553857D01*
X60742285Y4699000D01*
X60814857Y4844142D01*
X60887428Y2667000D02*
X61903428Y2667000D01*
X60306857Y3029857D02*
X61395428Y3392714D01*
X61395428Y2449285D01*
D12*
X59890962Y6376911D02*
X59390582Y6376911D01*
X59890962Y6090980D02*
X59605030Y6305429D01*
X59390582Y6090980D02*
X59676513Y6376911D01*
X59747996Y2763278D02*
X59747996Y2525001D01*
X59890962Y2810933D02*
X59390582Y2644140D01*
X59890962Y2477346D01*
D10*
%TO.C,R34*%
X61757862Y9973672D02*
X61519586Y10140466D01*
X61757862Y10259604D02*
X61257482Y10259604D01*
X61257482Y10068983D01*
X61281310Y10021328D01*
X61305137Y9997500D01*
X61352792Y9973672D01*
X61424275Y9973672D01*
X61471930Y9997500D01*
X61495758Y10021328D01*
X61519586Y10068983D01*
X61519586Y10259604D01*
X61257482Y9806879D02*
X61257482Y9497120D01*
X61448103Y9663913D01*
X61448103Y9592430D01*
X61471930Y9544775D01*
X61495758Y9520948D01*
X61543413Y9497120D01*
X61662551Y9497120D01*
X61710207Y9520948D01*
X61734034Y9544775D01*
X61757862Y9592430D01*
X61757862Y9735396D01*
X61734034Y9783051D01*
X61710207Y9806879D01*
X61424275Y9068223D02*
X61757862Y9068223D01*
X61233654Y9187361D02*
X61591069Y9306499D01*
X61591069Y8996740D01*
X60606637Y10410431D02*
X60582810Y10386604D01*
X60558982Y10338949D01*
X60558982Y10219810D01*
X60582810Y10172155D01*
X60606637Y10148328D01*
X60654292Y10124500D01*
X60701948Y10124500D01*
X60773430Y10148328D01*
X61059362Y10434259D01*
X61059362Y10124500D01*
X61059362Y9910051D02*
X60558982Y9910051D01*
X61059362Y9624120D02*
X60773430Y9838569D01*
X60558982Y9624120D02*
X60844913Y9910051D01*
X60606637Y9433499D02*
X60582810Y9409671D01*
X60558982Y9362016D01*
X60558982Y9242878D01*
X60582810Y9195223D01*
X60606637Y9171395D01*
X60654292Y9147568D01*
X60701948Y9147568D01*
X60773430Y9171395D01*
X61059362Y9457327D01*
X61059362Y9147568D01*
D11*
%TO.C,F1*%
X12834620Y33276177D02*
X13342620Y33276177D01*
X13342620Y32477891D02*
X13342620Y34001891D01*
X12616905Y34001891D01*
X11238048Y32477891D02*
X12108905Y32477891D01*
X11673477Y32477891D02*
X11673477Y34001891D01*
X11818620Y33784177D01*
X11963762Y33639034D01*
X12108905Y33566462D01*
%TO.C,F3*%
X40520620Y39118177D02*
X41028620Y39118177D01*
X41028620Y38319891D02*
X41028620Y39843891D01*
X40302905Y39843891D01*
X39867477Y39843891D02*
X38924048Y39843891D01*
X39432048Y39263320D01*
X39214334Y39263320D01*
X39069191Y39190748D01*
X38996620Y39118177D01*
X38924048Y38973034D01*
X38924048Y38610177D01*
X38996620Y38465034D01*
X39069191Y38392462D01*
X39214334Y38319891D01*
X39649762Y38319891D01*
X39794905Y38392462D01*
X39867477Y38465034D01*
D10*
%TO.C,C19*%
X47486207Y38421672D02*
X47510034Y38445500D01*
X47533862Y38516983D01*
X47533862Y38564638D01*
X47510034Y38636121D01*
X47462379Y38683776D01*
X47414724Y38707604D01*
X47319413Y38731431D01*
X47247930Y38731431D01*
X47152620Y38707604D01*
X47104965Y38683776D01*
X47057310Y38636121D01*
X47033482Y38564638D01*
X47033482Y38516983D01*
X47057310Y38445500D01*
X47081137Y38421672D01*
X47533862Y37945120D02*
X47533862Y38231051D01*
X47533862Y38088086D02*
X47033482Y38088086D01*
X47104965Y38135741D01*
X47152620Y38183396D01*
X47176448Y38231051D01*
X47533862Y37706844D02*
X47533862Y37611533D01*
X47510034Y37563878D01*
X47486207Y37540050D01*
X47414724Y37492395D01*
X47319413Y37468568D01*
X47128792Y37468568D01*
X47081137Y37492395D01*
X47057310Y37516223D01*
X47033482Y37563878D01*
X47033482Y37659189D01*
X47057310Y37706844D01*
X47081137Y37730671D01*
X47128792Y37754499D01*
X47247930Y37754499D01*
X47295586Y37730671D01*
X47319413Y37706844D01*
X47343241Y37659189D01*
X47343241Y37563878D01*
X47319413Y37516223D01*
X47295586Y37492395D01*
X47247930Y37468568D01*
X46835362Y39001397D02*
X46835362Y39287329D01*
X46835362Y39144363D02*
X46334982Y39144363D01*
X46406465Y39192018D01*
X46454120Y39239673D01*
X46477948Y39287329D01*
X46334982Y38691638D02*
X46334982Y38643983D01*
X46358810Y38596328D01*
X46382637Y38572500D01*
X46430292Y38548672D01*
X46525603Y38524845D01*
X46644741Y38524845D01*
X46740051Y38548672D01*
X46787707Y38572500D01*
X46811534Y38596328D01*
X46835362Y38643983D01*
X46835362Y38691638D01*
X46811534Y38739293D01*
X46787707Y38763121D01*
X46740051Y38786949D01*
X46644741Y38810776D01*
X46525603Y38810776D01*
X46430292Y38786949D01*
X46382637Y38763121D01*
X46358810Y38739293D01*
X46334982Y38691638D01*
X46334982Y38215086D02*
X46334982Y38167430D01*
X46358810Y38119775D01*
X46382637Y38095948D01*
X46430292Y38072120D01*
X46525603Y38048292D01*
X46644741Y38048292D01*
X46740051Y38072120D01*
X46787707Y38095948D01*
X46811534Y38119775D01*
X46835362Y38167430D01*
X46835362Y38215086D01*
X46811534Y38262741D01*
X46787707Y38286569D01*
X46740051Y38310396D01*
X46644741Y38334224D01*
X46525603Y38334224D01*
X46430292Y38310396D01*
X46382637Y38286569D01*
X46358810Y38262741D01*
X46334982Y38215086D01*
X46501775Y37833844D02*
X46835362Y37833844D01*
X46549430Y37833844D02*
X46525603Y37810016D01*
X46501775Y37762361D01*
X46501775Y37690878D01*
X46525603Y37643223D01*
X46573258Y37619395D01*
X46835362Y37619395D01*
X46573258Y37214326D02*
X46573258Y37381119D01*
X46835362Y37381119D02*
X46334982Y37381119D01*
X46334982Y37142843D01*
D11*
%TO.C,C20*%
X51115685Y43219914D02*
X51188257Y43292485D01*
X51260828Y43510200D01*
X51260828Y43655342D01*
X51188257Y43873057D01*
X51043114Y44018200D01*
X50897971Y44090771D01*
X50607685Y44163342D01*
X50389971Y44163342D01*
X50099685Y44090771D01*
X49954542Y44018200D01*
X49809400Y43873057D01*
X49736828Y43655342D01*
X49736828Y43510200D01*
X49809400Y43292485D01*
X49881971Y43219914D01*
X49881971Y42639342D02*
X49809400Y42566771D01*
X49736828Y42421628D01*
X49736828Y42058771D01*
X49809400Y41913628D01*
X49881971Y41841057D01*
X50027114Y41768485D01*
X50172257Y41768485D01*
X50389971Y41841057D01*
X51260828Y42711914D01*
X51260828Y41768485D01*
X49736828Y40825057D02*
X49736828Y40679914D01*
X49809400Y40534771D01*
X49881971Y40462200D01*
X50027114Y40389628D01*
X50317400Y40317057D01*
X50680257Y40317057D01*
X50970542Y40389628D01*
X51115685Y40462200D01*
X51188257Y40534771D01*
X51260828Y40679914D01*
X51260828Y40825057D01*
X51188257Y40970200D01*
X51115685Y41042771D01*
X50970542Y41115342D01*
X50680257Y41187914D01*
X50317400Y41187914D01*
X50027114Y41115342D01*
X49881971Y41042771D01*
X49809400Y40970200D01*
X49736828Y40825057D01*
X53268517Y37809351D02*
X53268517Y36648208D01*
X53849088Y37228780D02*
X52687945Y37228780D01*
%TO.C,U5*%
X48468642Y33410071D02*
X48468642Y32176357D01*
X48396071Y32031214D01*
X48323500Y31958642D01*
X48178357Y31886071D01*
X47888071Y31886071D01*
X47742928Y31958642D01*
X47670357Y32031214D01*
X47597785Y32176357D01*
X47597785Y33410071D01*
X46146357Y33410071D02*
X46872071Y33410071D01*
X46944642Y32684357D01*
X46872071Y32756928D01*
X46726928Y32829500D01*
X46364071Y32829500D01*
X46218928Y32756928D01*
X46146357Y32684357D01*
X46073785Y32539214D01*
X46073785Y32176357D01*
X46146357Y32031214D01*
X46218928Y31958642D01*
X46364071Y31886071D01*
X46726928Y31886071D01*
X46872071Y31958642D01*
X46944642Y32031214D01*
D10*
%TO.C,R35*%
X55503172Y35079637D02*
X55669966Y35317913D01*
X55789104Y35079637D02*
X55789104Y35580017D01*
X55598483Y35580017D01*
X55550828Y35556190D01*
X55527000Y35532362D01*
X55503172Y35484707D01*
X55503172Y35413224D01*
X55527000Y35365569D01*
X55550828Y35341741D01*
X55598483Y35317913D01*
X55789104Y35317913D01*
X55336379Y35580017D02*
X55026620Y35580017D01*
X55193413Y35389396D01*
X55121930Y35389396D01*
X55074275Y35365569D01*
X55050448Y35341741D01*
X55026620Y35294086D01*
X55026620Y35174948D01*
X55050448Y35127292D01*
X55074275Y35103465D01*
X55121930Y35079637D01*
X55264896Y35079637D01*
X55312551Y35103465D01*
X55336379Y35127292D01*
X54573895Y35580017D02*
X54812171Y35580017D01*
X54835999Y35341741D01*
X54812171Y35365569D01*
X54764516Y35389396D01*
X54645378Y35389396D01*
X54597723Y35365569D01*
X54573895Y35341741D01*
X54550068Y35294086D01*
X54550068Y35174948D01*
X54573895Y35127292D01*
X54597723Y35103465D01*
X54645378Y35079637D01*
X54764516Y35079637D01*
X54812171Y35103465D01*
X54835999Y35127292D01*
X55400000Y34714724D02*
X55400000Y34381137D01*
X55519138Y34905345D02*
X55638276Y34547930D01*
X55328517Y34547930D01*
X55185551Y34881517D02*
X54851965Y34881517D01*
X55066413Y34381137D01*
X54661344Y34381137D02*
X54661344Y34881517D01*
X54613689Y34571758D02*
X54470723Y34381137D01*
X54470723Y34714724D02*
X54661344Y34524103D01*
%TO.C,R36*%
X56836672Y36984637D02*
X57003466Y37222913D01*
X57122604Y36984637D02*
X57122604Y37485017D01*
X56931983Y37485017D01*
X56884328Y37461190D01*
X56860500Y37437362D01*
X56836672Y37389707D01*
X56836672Y37318224D01*
X56860500Y37270569D01*
X56884328Y37246741D01*
X56931983Y37222913D01*
X57122604Y37222913D01*
X56669879Y37485017D02*
X56360120Y37485017D01*
X56526913Y37294396D01*
X56455430Y37294396D01*
X56407775Y37270569D01*
X56383948Y37246741D01*
X56360120Y37199086D01*
X56360120Y37079948D01*
X56383948Y37032292D01*
X56407775Y37008465D01*
X56455430Y36984637D01*
X56598396Y36984637D01*
X56646051Y37008465D01*
X56669879Y37032292D01*
X55931223Y37485017D02*
X56026533Y37485017D01*
X56074189Y37461190D01*
X56098016Y37437362D01*
X56145671Y37365879D01*
X56169499Y37270569D01*
X56169499Y37079948D01*
X56145671Y37032292D01*
X56121844Y37008465D01*
X56074189Y36984637D01*
X55978878Y36984637D01*
X55931223Y37008465D01*
X55907395Y37032292D01*
X55883568Y37079948D01*
X55883568Y37199086D01*
X55907395Y37246741D01*
X55931223Y37270569D01*
X55978878Y37294396D01*
X56074189Y37294396D01*
X56121844Y37270569D01*
X56145671Y37246741D01*
X56169499Y37199086D01*
X56733500Y36619724D02*
X56733500Y36286137D01*
X56852638Y36810345D02*
X56971776Y36452930D01*
X56662017Y36452930D01*
X56519051Y36786517D02*
X56185465Y36786517D01*
X56399913Y36286137D01*
X55994844Y36286137D02*
X55994844Y36786517D01*
X55947189Y36476758D02*
X55804223Y36286137D01*
X55804223Y36619724D02*
X55994844Y36429103D01*
D13*
%TO.C,U6*%
X17266194Y21373011D02*
X17883051Y21373011D01*
X17955622Y21336725D01*
X17991908Y21300440D01*
X18028194Y21227868D01*
X18028194Y21082725D01*
X17991908Y21010154D01*
X17955622Y20973868D01*
X17883051Y20937582D01*
X17266194Y20937582D01*
X17266194Y20248154D02*
X17266194Y20393297D01*
X17302480Y20465868D01*
X17338765Y20502154D01*
X17447622Y20574725D01*
X17592765Y20611011D01*
X17883051Y20611011D01*
X17955622Y20574725D01*
X17991908Y20538440D01*
X18028194Y20465868D01*
X18028194Y20320725D01*
X17991908Y20248154D01*
X17955622Y20211868D01*
X17883051Y20175582D01*
X17701622Y20175582D01*
X17629051Y20211868D01*
X17592765Y20248154D01*
X17556480Y20320725D01*
X17556480Y20465868D01*
X17592765Y20538440D01*
X17629051Y20574725D01*
X17701622Y20611011D01*
D12*
X19107694Y20808103D02*
X18869418Y20808103D01*
X19155349Y20665137D02*
X18988556Y21165517D01*
X18821762Y20665137D01*
X18654969Y20665137D02*
X18654969Y21165517D01*
X18464348Y21165517D01*
X18416693Y21141690D01*
X18392865Y21117862D01*
X18369038Y21070207D01*
X18369038Y20998724D01*
X18392865Y20951069D01*
X18416693Y20927241D01*
X18464348Y20903413D01*
X18654969Y20903413D01*
X18202244Y21165517D02*
X17868658Y20665137D01*
X17868658Y21165517D02*
X18202244Y20665137D01*
X17606554Y20951069D02*
X17654209Y20974896D01*
X17678037Y20998724D01*
X17701864Y21046379D01*
X17701864Y21070207D01*
X17678037Y21117862D01*
X17654209Y21141690D01*
X17606554Y21165517D01*
X17511243Y21165517D01*
X17463588Y21141690D01*
X17439760Y21117862D01*
X17415933Y21070207D01*
X17415933Y21046379D01*
X17439760Y20998724D01*
X17463588Y20974896D01*
X17511243Y20951069D01*
X17606554Y20951069D01*
X17654209Y20927241D01*
X17678037Y20903413D01*
X17701864Y20855758D01*
X17701864Y20760448D01*
X17678037Y20712792D01*
X17654209Y20688965D01*
X17606554Y20665137D01*
X17511243Y20665137D01*
X17463588Y20688965D01*
X17439760Y20712792D01*
X17415933Y20760448D01*
X17415933Y20855758D01*
X17439760Y20903413D01*
X17463588Y20927241D01*
X17511243Y20951069D01*
X16939380Y20665137D02*
X17225312Y20665137D01*
X17082346Y20665137D02*
X17082346Y21165517D01*
X17130001Y21094034D01*
X17177657Y21046379D01*
X17225312Y21022551D01*
X16629621Y21165517D02*
X16581966Y21165517D01*
X16534311Y21141690D01*
X16510483Y21117862D01*
X16486656Y21070207D01*
X16462828Y20974896D01*
X16462828Y20855758D01*
X16486656Y20760448D01*
X16510483Y20712792D01*
X16534311Y20688965D01*
X16581966Y20665137D01*
X16629621Y20665137D01*
X16677277Y20688965D01*
X16701104Y20712792D01*
X16724932Y20760448D01*
X16748760Y20855758D01*
X16748760Y20974896D01*
X16724932Y21070207D01*
X16701104Y21117862D01*
X16677277Y21141690D01*
X16629621Y21165517D01*
X16248380Y20855758D02*
X15867138Y20855758D01*
X15676517Y21165517D02*
X15366758Y21165517D01*
X15533551Y20974896D01*
X15462068Y20974896D01*
X15414413Y20951069D01*
X15390585Y20927241D01*
X15366758Y20879586D01*
X15366758Y20760448D01*
X15390585Y20712792D01*
X15414413Y20688965D01*
X15462068Y20665137D01*
X15605034Y20665137D01*
X15652689Y20688965D01*
X15676517Y20712792D01*
X14890205Y20665137D02*
X15176137Y20665137D01*
X15033171Y20665137D02*
X15033171Y21165517D01*
X15080826Y21094034D01*
X15128481Y21046379D01*
X15176137Y21022551D01*
X14699584Y20688965D02*
X14628101Y20665137D01*
X14508963Y20665137D01*
X14461308Y20688965D01*
X14437480Y20712792D01*
X14413653Y20760448D01*
X14413653Y20808103D01*
X14437480Y20855758D01*
X14461308Y20879586D01*
X14508963Y20903413D01*
X14604274Y20927241D01*
X14651929Y20951069D01*
X14675757Y20974896D01*
X14699584Y21022551D01*
X14699584Y21070207D01*
X14675757Y21117862D01*
X14651929Y21141690D01*
X14604274Y21165517D01*
X14485136Y21165517D01*
X14413653Y21141690D01*
X14223032Y20808103D02*
X13984756Y20808103D01*
X14270687Y20665137D02*
X14103894Y21165517D01*
X13937100Y20665137D01*
X13508203Y21141690D02*
X13555859Y21165517D01*
X13627341Y21165517D01*
X13698824Y21141690D01*
X13746480Y21094034D01*
X13770307Y21046379D01*
X13794135Y20951069D01*
X13794135Y20879586D01*
X13770307Y20784275D01*
X13746480Y20736620D01*
X13698824Y20688965D01*
X13627341Y20665137D01*
X13579686Y20665137D01*
X13508203Y20688965D01*
X13484376Y20712792D01*
X13484376Y20879586D01*
X13579686Y20879586D01*
X13269927Y20855758D02*
X12888685Y20855758D01*
X12698064Y21165517D02*
X12364478Y21165517D01*
X12578926Y20665137D01*
D14*
%TO.C,R22*%
X76069380Y25153857D02*
X75593190Y25487190D01*
X76069380Y25725285D02*
X75069380Y25725285D01*
X75069380Y25344333D01*
X75117000Y25249095D01*
X75164619Y25201476D01*
X75259857Y25153857D01*
X75402714Y25153857D01*
X75497952Y25201476D01*
X75545571Y25249095D01*
X75593190Y25344333D01*
X75593190Y25725285D01*
X75164619Y24772904D02*
X75117000Y24725285D01*
X75069380Y24630047D01*
X75069380Y24391952D01*
X75117000Y24296714D01*
X75164619Y24249095D01*
X75259857Y24201476D01*
X75355095Y24201476D01*
X75497952Y24249095D01*
X76069380Y24820523D01*
X76069380Y24201476D01*
X75164619Y23820523D02*
X75117000Y23772904D01*
X75069380Y23677666D01*
X75069380Y23439571D01*
X75117000Y23344333D01*
X75164619Y23296714D01*
X75259857Y23249095D01*
X75355095Y23249095D01*
X75497952Y23296714D01*
X76069380Y23868142D01*
X76069380Y23249095D01*
%TO.C,C1*%
X8128000Y28448000D02*
X8128000Y27432000D01*
X8128000Y25400000D02*
X9652000Y25400000D01*
X9652000Y28448000D02*
X8128000Y28448000D01*
X8128000Y26416000D02*
X8128000Y25400000D01*
X9652000Y27432000D02*
X9652000Y28448000D01*
X9652000Y25400000D02*
X9652000Y26416000D01*
X9779000Y28575000D02*
G75*
G03*
X9779000Y28575000I-127000J0D01*
G01*
%TO.C,C5*%
X13970000Y30734000D02*
X13970000Y32258000D01*
X11938000Y32258000D02*
X10922000Y32258000D01*
X12954000Y30734000D02*
X13970000Y30734000D01*
X10922000Y30734000D02*
X11938000Y30734000D01*
X10922000Y32258000D02*
X10922000Y30734000D01*
X13970000Y32258000D02*
X12954000Y32258000D01*
X10922000Y32258000D02*
G75*
G03*
X10922000Y32258000I-127000J0D01*
G01*
%TO.C,C6*%
X20955000Y47625000D02*
X22479000Y47625000D01*
X20955000Y48641000D02*
X20955000Y47625000D01*
X22479000Y49657000D02*
X22479000Y50673000D01*
X22479000Y47625000D02*
X22479000Y48641000D01*
X20955000Y50673000D02*
X20955000Y49657000D01*
X22479000Y50673000D02*
X20955000Y50673000D01*
X21082000Y47498000D02*
G75*
G03*
X21082000Y47498000I-127000J0D01*
G01*
%TO.C,C7*%
X21107400Y44704000D02*
X21107400Y43688000D01*
X21107400Y42672000D02*
X21107400Y41656000D01*
X22631400Y41656000D02*
X22631400Y42672000D01*
X22631400Y43688000D02*
X22631400Y44704000D01*
X21107400Y41656000D02*
X22631400Y41656000D01*
X22631400Y44704000D02*
X21107400Y44704000D01*
X22758400Y44831000D02*
G75*
G03*
X22758400Y44831000I-127000J0D01*
G01*
%TO.C,C8*%
X14986000Y30480000D02*
X14986000Y29464000D01*
X16510000Y29464000D02*
X16510000Y30480000D01*
X16510000Y31496000D02*
X16510000Y32512000D01*
X14986000Y29464000D02*
X16510000Y29464000D01*
X14986000Y32512000D02*
X14986000Y31496000D01*
X16510000Y32512000D02*
X14986000Y32512000D01*
X15113000Y29337000D02*
G75*
G03*
X15113000Y29337000I-127000J0D01*
G01*
%TO.C,C9*%
X33528000Y49911000D02*
X32004000Y49911000D01*
X32004000Y49911000D02*
X32004000Y48895000D01*
X32004000Y47879000D02*
X32004000Y46863000D01*
X33528000Y46863000D02*
X33528000Y47879000D01*
X33528000Y48895000D02*
X33528000Y49911000D01*
X32004000Y46863000D02*
X33528000Y46863000D01*
X32131000Y46736000D02*
G75*
G03*
X32131000Y46736000I-127000J0D01*
G01*
%TO.C,C11*%
X25527000Y22987000D02*
X25527000Y24003000D01*
X24003000Y20955000D02*
X25527000Y20955000D01*
X25527000Y20955000D02*
X25527000Y21971000D01*
X24003000Y21971000D02*
X24003000Y20955000D01*
X24003000Y24003000D02*
X24003000Y22987000D01*
X25527000Y24003000D02*
X24003000Y24003000D01*
X25654000Y24130000D02*
G75*
G03*
X25654000Y24130000I-127000J0D01*
G01*
%TO.C,C12*%
X49657000Y26035000D02*
X49657000Y25019000D01*
X51181000Y26035000D02*
X49657000Y26035000D01*
X51181000Y22987000D02*
X51181000Y24003000D01*
X49657000Y22987000D02*
X51181000Y22987000D01*
X49657000Y24003000D02*
X49657000Y22987000D01*
X51181000Y25019000D02*
X51181000Y26035000D01*
X51308000Y26162000D02*
G75*
G03*
X51308000Y26162000I-127000J0D01*
G01*
%TO.C,C13*%
X63754000Y25654000D02*
X63754000Y26670000D01*
X63754000Y23622000D02*
X63754000Y24638000D01*
X62230000Y24638000D02*
X62230000Y23622000D01*
X62230000Y23622000D02*
X63754000Y23622000D01*
X62230000Y26670000D02*
X62230000Y25654000D01*
X63754000Y26670000D02*
X62230000Y26670000D01*
X63881000Y26797000D02*
G75*
G03*
X63881000Y26797000I-127000J0D01*
G01*
%TO.C,C14*%
X70231000Y17780000D02*
X70231000Y18796000D01*
X68707000Y15748000D02*
X70231000Y15748000D01*
X68707000Y16764000D02*
X68707000Y15748000D01*
X68707000Y18796000D02*
X68707000Y17780000D01*
X70231000Y15748000D02*
X70231000Y16764000D01*
X70231000Y18796000D02*
X68707000Y18796000D01*
X70358000Y18923000D02*
G75*
G03*
X70358000Y18923000I-127000J0D01*
G01*
%TO.C,C15*%
X62484000Y21590000D02*
X63500000Y21590000D01*
X65532000Y23114000D02*
X64516000Y23114000D01*
X62484000Y23114000D02*
X62484000Y21590000D01*
X64516000Y21590000D02*
X65532000Y21590000D01*
X65532000Y21590000D02*
X65532000Y23114000D01*
X63500000Y23114000D02*
X62484000Y23114000D01*
X62484000Y23114000D02*
G75*
G03*
X62484000Y23114000I-127000J0D01*
G01*
%TO.C,C16*%
X65532000Y29210000D02*
X64516000Y29210000D01*
X62484000Y29210000D02*
X62484000Y27686000D01*
X64516000Y27686000D02*
X65532000Y27686000D01*
X63500000Y29210000D02*
X62484000Y29210000D01*
X65532000Y27686000D02*
X65532000Y29210000D01*
X62484000Y27686000D02*
X63500000Y27686000D01*
X62484000Y29210000D02*
G75*
G03*
X62484000Y29210000I-127000J0D01*
G01*
%TO.C,C17*%
X53149500Y31750000D02*
X53149500Y30734000D01*
X54673500Y33782000D02*
X53149500Y33782000D01*
X54673500Y32766000D02*
X54673500Y33782000D01*
X54673500Y30734000D02*
X54673500Y31750000D01*
X53149500Y33782000D02*
X53149500Y32766000D01*
X53149500Y30734000D02*
X54673500Y30734000D01*
X53276500Y30607000D02*
G75*
G03*
X53276500Y30607000I-127000J0D01*
G01*
%TO.C,C18*%
X47625000Y21717000D02*
X46101000Y21717000D01*
X47625000Y18669000D02*
X47625000Y19685000D01*
X46101000Y21717000D02*
X46101000Y20701000D01*
X46101000Y18669000D02*
X47625000Y18669000D01*
X47625000Y20701000D02*
X47625000Y21717000D01*
X46101000Y19685000D02*
X46101000Y18669000D01*
X47752000Y21844000D02*
G75*
G03*
X47752000Y21844000I-127000J0D01*
G01*
%TO.C,D1*%
X13967460Y47525940D02*
X13967460Y47876460D01*
X9466580Y47525940D02*
X9466580Y47876460D01*
X13517880Y47525940D02*
X13517880Y47876460D01*
X13967460Y51026060D02*
X13967460Y50675540D01*
X13517880Y51026060D02*
X13517880Y50675540D01*
X9466580Y51026060D02*
X9466580Y50675540D01*
X9466580Y47525940D02*
X13967460Y47525940D01*
X9466580Y51026060D02*
X13967460Y51026060D01*
%TO.C,D2*%
X20292060Y35849560D02*
X19941540Y35849560D01*
X20292060Y40350440D02*
X20292060Y35849560D01*
X16791940Y36299140D02*
X17142460Y36299140D01*
X20292060Y36299140D02*
X19941540Y36299140D01*
X16791940Y40350440D02*
X16791940Y35849560D01*
X20292060Y40350440D02*
X19941540Y40350440D01*
X16791940Y35849560D02*
X17142460Y35849560D01*
X16791940Y40350440D02*
X17142460Y40350440D01*
%TO.C,L1*%
X27940000Y38100000D02*
X27178000Y38100000D01*
X34059000Y40409000D02*
X34059000Y27409000D01*
X27559000Y38481000D02*
X27559000Y37719000D01*
X21059000Y27409000D02*
X21059000Y40409000D01*
X21059000Y40409000D02*
X34059000Y40409000D01*
X34059000Y27409000D02*
X21059000Y27409000D01*
%TO.C,Q1*%
X17653000Y31623000D02*
X17653000Y30607000D01*
X17653000Y30607000D02*
X20256500Y30607000D01*
X20256500Y31623000D02*
X17653000Y31623000D01*
X20256500Y31623000D02*
X20256500Y30607000D01*
X20258090Y30764480D02*
G75*
G03*
X20258090Y30764480I-159070J0D01*
G01*
%TO.C,R1*%
X5715000Y32385000D02*
X7239000Y32385000D01*
X7239000Y34417000D02*
X7239000Y35433000D01*
X5715000Y33401000D02*
X5715000Y32385000D01*
X5715000Y35433000D02*
X5715000Y34417000D01*
X7239000Y32385000D02*
X7239000Y33401000D01*
X7239000Y35433000D02*
X5715000Y35433000D01*
X5842000Y32258000D02*
G75*
G03*
X5842000Y32258000I-127000J0D01*
G01*
%TO.C,R3*%
X7366000Y31115000D02*
X6350000Y31115000D01*
X5334000Y31115000D02*
X4318000Y31115000D01*
X6350000Y29591000D02*
X7366000Y29591000D01*
X7366000Y29591000D02*
X7366000Y31115000D01*
X4318000Y29591000D02*
X5334000Y29591000D01*
X4318000Y31115000D02*
X4318000Y29591000D01*
X7620000Y29591000D02*
G75*
G03*
X7620000Y29591000I-127000J0D01*
G01*
%TO.C,R5*%
X34290000Y48831500D02*
X35814000Y48831500D01*
X34290000Y49847500D02*
X34290000Y48831500D01*
X35814000Y51879500D02*
X34290000Y51879500D01*
X35814000Y48831500D02*
X35814000Y49847500D01*
X35814000Y50863500D02*
X35814000Y51879500D01*
X34290000Y51879500D02*
X34290000Y50863500D01*
X35941000Y52006500D02*
G75*
G03*
X35941000Y52006500I-127000J0D01*
G01*
%TO.C,R6*%
X21717000Y54102000D02*
X21717000Y53086000D01*
X23241000Y53086000D02*
X23241000Y54102000D01*
X23241000Y54102000D02*
X21717000Y54102000D01*
X23241000Y51054000D02*
X23241000Y52070000D01*
X21717000Y51054000D02*
X23241000Y51054000D01*
X21717000Y52070000D02*
X21717000Y51054000D01*
X21844000Y50927000D02*
G75*
G03*
X21844000Y50927000I-127000J0D01*
G01*
%TO.C,R7*%
X28194000Y50927000D02*
X28194000Y51943000D01*
X26670000Y50927000D02*
X28194000Y50927000D01*
X26670000Y51943000D02*
X26670000Y50927000D01*
X28194000Y53975000D02*
X26670000Y53975000D01*
X28194000Y52959000D02*
X28194000Y53975000D01*
X26670000Y53975000D02*
X26670000Y52959000D01*
X26797000Y50800000D02*
G75*
G03*
X26797000Y50800000I-127000J0D01*
G01*
%TO.C,R8*%
X31623000Y50927000D02*
X33147000Y50927000D01*
X31623000Y53975000D02*
X31623000Y52959000D01*
X31623000Y51943000D02*
X31623000Y50927000D01*
X33147000Y50927000D02*
X33147000Y51943000D01*
X33147000Y52959000D02*
X33147000Y53975000D01*
X33147000Y53975000D02*
X31623000Y53975000D01*
X31750000Y50800000D02*
G75*
G03*
X31750000Y50800000I-127000J0D01*
G01*
%TO.C,R9*%
X16256000Y28448000D02*
X15240000Y28448000D01*
X17272000Y26924000D02*
X18288000Y26924000D01*
X15240000Y28448000D02*
X15240000Y26924000D01*
X18288000Y28448000D02*
X17272000Y28448000D01*
X15240000Y26924000D02*
X16256000Y26924000D01*
X18288000Y26924000D02*
X18288000Y28448000D01*
X15240000Y28448000D02*
G75*
G03*
X15240000Y28448000I-127000J0D01*
G01*
%TO.C,R10*%
X16319500Y23558500D02*
X17843500Y23558500D01*
X17843500Y26606500D02*
X16319500Y26606500D01*
X17843500Y23558500D02*
X17843500Y24574500D01*
X16319500Y24574500D02*
X16319500Y23558500D01*
X17843500Y25590500D02*
X17843500Y26606500D01*
X16319500Y26606500D02*
X16319500Y25590500D01*
X17970500Y26733500D02*
G75*
G03*
X17970500Y26733500I-127000J0D01*
G01*
%TO.C,R11*%
X25146000Y47625000D02*
X26670000Y47625000D01*
X26670000Y49657000D02*
X26670000Y50673000D01*
X25146000Y50673000D02*
X25146000Y49657000D01*
X26670000Y47625000D02*
X26670000Y48641000D01*
X26670000Y50673000D02*
X25146000Y50673000D01*
X25146000Y48641000D02*
X25146000Y47625000D01*
X25273000Y47498000D02*
G75*
G03*
X25273000Y47498000I-127000J0D01*
G01*
%TO.C,R12*%
X24638000Y47625000D02*
X24638000Y48641000D01*
X24638000Y50673000D02*
X23114000Y50673000D01*
X23114000Y48641000D02*
X23114000Y47625000D01*
X24638000Y49657000D02*
X24638000Y50673000D01*
X23114000Y50673000D02*
X23114000Y49657000D01*
X23114000Y47625000D02*
X24638000Y47625000D01*
X23241000Y47498000D02*
G75*
G03*
X23241000Y47498000I-127000J0D01*
G01*
%TO.C,R13*%
X32258000Y44831000D02*
X33274000Y44831000D01*
X32258000Y46355000D02*
X32258000Y44831000D01*
X34290000Y44831000D02*
X35306000Y44831000D01*
X35306000Y46355000D02*
X34290000Y46355000D01*
X35306000Y44831000D02*
X35306000Y46355000D01*
X33274000Y46355000D02*
X32258000Y46355000D01*
X32258000Y46355000D02*
G75*
G03*
X32258000Y46355000I-127000J0D01*
G01*
%TO.C,R16*%
X38782000Y31817000D02*
X38782000Y37017000D01*
X35132000Y37017000D02*
X35132000Y31817000D01*
%TO.C,R18*%
X64770000Y24638000D02*
X64770000Y23622000D01*
X66294000Y23622000D02*
X66294000Y24638000D01*
X66294000Y25654000D02*
X66294000Y26670000D01*
X66294000Y26670000D02*
X64770000Y26670000D01*
X64770000Y26670000D02*
X64770000Y25654000D01*
X64770000Y23622000D02*
X66294000Y23622000D01*
X64897000Y23495000D02*
G75*
G03*
X64897000Y23495000I-127000J0D01*
G01*
%TO.C,R19*%
X67310000Y25146000D02*
X68326000Y25146000D01*
X70358000Y26670000D02*
X69342000Y26670000D01*
X69342000Y25146000D02*
X70358000Y25146000D01*
X68326000Y26670000D02*
X67310000Y26670000D01*
X67310000Y26670000D02*
X67310000Y25146000D01*
X70358000Y25146000D02*
X70358000Y26670000D01*
X70612000Y25146000D02*
G75*
G03*
X70612000Y25146000I-127000J0D01*
G01*
%TO.C,R20*%
X70739000Y13843000D02*
X70739000Y12827000D01*
X72263000Y15875000D02*
X70739000Y15875000D01*
X70739000Y12827000D02*
X72263000Y12827000D01*
X70739000Y15875000D02*
X70739000Y14859000D01*
X72263000Y14859000D02*
X72263000Y15875000D01*
X72263000Y12827000D02*
X72263000Y13843000D01*
X70866000Y12700000D02*
G75*
G03*
X70866000Y12700000I-127000J0D01*
G01*
%TO.C,R21*%
X16002000Y23558500D02*
X16002000Y24574500D01*
X16002000Y26606500D02*
X14478000Y26606500D01*
X14478000Y26606500D02*
X14478000Y25590500D01*
X14478000Y23558500D02*
X16002000Y23558500D01*
X14478000Y24574500D02*
X14478000Y23558500D01*
X16002000Y25590500D02*
X16002000Y26606500D01*
X14605000Y23431500D02*
G75*
G03*
X14605000Y23431500I-127000J0D01*
G01*
%TO.C,R23*%
X55181500Y33782000D02*
X55181500Y32766000D01*
X56705500Y33782000D02*
X55181500Y33782000D01*
X56705500Y30734000D02*
X56705500Y31750000D01*
X56705500Y32766000D02*
X56705500Y33782000D01*
X55181500Y31750000D02*
X55181500Y30734000D01*
X55181500Y30734000D02*
X56705500Y30734000D01*
X56832500Y33909000D02*
G75*
G03*
X56832500Y33909000I-127000J0D01*
G01*
%TO.C,R24*%
X54165500Y30035500D02*
X53149500Y30035500D01*
X53149500Y28511500D02*
X54165500Y28511500D01*
X51117500Y30035500D02*
X51117500Y28511500D01*
X54165500Y28511500D02*
X54165500Y30035500D01*
X52133500Y30035500D02*
X51117500Y30035500D01*
X51117500Y28511500D02*
X52133500Y28511500D01*
X51117500Y30035500D02*
G75*
G03*
X51117500Y30035500I-127000J0D01*
G01*
%TO.C,R25*%
X50546000Y34607500D02*
X52070000Y34607500D01*
X52070000Y36639500D02*
X52070000Y37655500D01*
X52070000Y34607500D02*
X52070000Y35623500D01*
X50546000Y35623500D02*
X50546000Y34607500D01*
X50546000Y37655500D02*
X50546000Y36639500D01*
X52070000Y37655500D02*
X50546000Y37655500D01*
X50673000Y34480500D02*
G75*
G03*
X50673000Y34480500I-127000J0D01*
G01*
%TO.C,R26*%
X50546000Y32321500D02*
X50546000Y31305500D01*
X50546000Y34353500D02*
X50546000Y33337500D01*
X52070000Y31305500D02*
X52070000Y32321500D01*
X52070000Y33337500D02*
X52070000Y34353500D01*
X52070000Y34353500D02*
X50546000Y34353500D01*
X50546000Y31305500D02*
X52070000Y31305500D01*
X50673000Y31178500D02*
G75*
G03*
X50673000Y31178500I-127000J0D01*
G01*
%TO.C,R27*%
X43307000Y10160000D02*
X43307000Y11176000D01*
X41783000Y11176000D02*
X41783000Y10160000D01*
X41783000Y8128000D02*
X43307000Y8128000D01*
X41783000Y9144000D02*
X41783000Y8128000D01*
X43307000Y8128000D02*
X43307000Y9144000D01*
X43307000Y11176000D02*
X41783000Y11176000D01*
X41910000Y8001000D02*
G75*
G03*
X41910000Y8001000I-127000J0D01*
G01*
%TO.C,R28*%
X45974000Y8128000D02*
X45974000Y9144000D01*
X44450000Y8128000D02*
X45974000Y8128000D01*
X45974000Y11176000D02*
X44450000Y11176000D01*
X44450000Y11176000D02*
X44450000Y10160000D01*
X44450000Y9144000D02*
X44450000Y8128000D01*
X45974000Y10160000D02*
X45974000Y11176000D01*
X44577000Y8001000D02*
G75*
G03*
X44577000Y8001000I-127000J0D01*
G01*
%TO.C,R29*%
X48641000Y10160000D02*
X48641000Y11176000D01*
X48641000Y8128000D02*
X48641000Y9144000D01*
X47117000Y11176000D02*
X47117000Y10160000D01*
X47117000Y8128000D02*
X48641000Y8128000D01*
X48641000Y11176000D02*
X47117000Y11176000D01*
X47117000Y9144000D02*
X47117000Y8128000D01*
X47244000Y8001000D02*
G75*
G03*
X47244000Y8001000I-127000J0D01*
G01*
%TO.C,R30*%
X51308000Y8128000D02*
X51308000Y9144000D01*
X49784000Y9144000D02*
X49784000Y8128000D01*
X49784000Y8128000D02*
X51308000Y8128000D01*
X49784000Y11176000D02*
X49784000Y10160000D01*
X51308000Y11176000D02*
X49784000Y11176000D01*
X51308000Y10160000D02*
X51308000Y11176000D01*
X49911000Y8001000D02*
G75*
G03*
X49911000Y8001000I-127000J0D01*
G01*
%TO.C,R31*%
X53975000Y11176000D02*
X52451000Y11176000D01*
X52451000Y9144000D02*
X52451000Y8128000D01*
X52451000Y11176000D02*
X52451000Y10160000D01*
X53975000Y10160000D02*
X53975000Y11176000D01*
X53975000Y8128000D02*
X53975000Y9144000D01*
X52451000Y8128000D02*
X53975000Y8128000D01*
X52578000Y8001000D02*
G75*
G03*
X52578000Y8001000I-127000J0D01*
G01*
%TO.C,R32*%
X56642000Y10160000D02*
X56642000Y11176000D01*
X56642000Y11176000D02*
X55118000Y11176000D01*
X55118000Y11176000D02*
X55118000Y10160000D01*
X55118000Y8128000D02*
X56642000Y8128000D01*
X56642000Y8128000D02*
X56642000Y9144000D01*
X55118000Y9144000D02*
X55118000Y8128000D01*
X55245000Y8001000D02*
G75*
G03*
X55245000Y8001000I-127000J0D01*
G01*
%TO.C,R33*%
X57785000Y11176000D02*
X57785000Y10160000D01*
X57785000Y9144000D02*
X57785000Y8128000D01*
X59309000Y10160000D02*
X59309000Y11176000D01*
X59309000Y11176000D02*
X57785000Y11176000D01*
X59309000Y8128000D02*
X59309000Y9144000D01*
X57785000Y8128000D02*
X59309000Y8128000D01*
X57912000Y8001000D02*
G75*
G03*
X57912000Y8001000I-127000J0D01*
G01*
%TO.C,U1*%
X10846000Y30048000D02*
X14046000Y30048000D01*
X14046000Y26848000D02*
X14046000Y30048000D01*
X10846000Y26848000D02*
X14046000Y26848000D01*
X10846000Y26848000D02*
X10846000Y30048000D01*
X11811000Y26543000D02*
G75*
G03*
X11811000Y26543000I-127000J0D01*
G01*
%TO.C,U4*%
X49784000Y12164000D02*
X49784000Y21364000D01*
X53589000Y12164000D02*
X53589000Y21364000D01*
X49789000Y12164000D02*
X53589000Y12164000D01*
X49784000Y21364000D02*
X53594000Y21364000D01*
X50292000Y12164000D02*
X50292000Y21364000D01*
X51054000Y14859000D02*
G75*
G03*
X51054000Y14859000I-127000J0D01*
G01*
%TO.C,U3*%
X54444000Y22267000D02*
X59094000Y22267000D01*
X54444000Y27517000D02*
X59094000Y27517000D01*
X54444000Y22267000D02*
X54444000Y22492000D01*
X54444000Y27517000D02*
X54444000Y27292000D01*
X54444000Y22492000D02*
X53094000Y22492000D01*
X59094000Y22267000D02*
X59094000Y22492000D01*
X59094000Y27517000D02*
X59094000Y27292000D01*
%TO.C,R4*%
X47244000Y52070000D02*
X45720000Y52070000D01*
X45720000Y52070000D02*
X45720000Y51054000D01*
X45720000Y49022000D02*
X47244000Y49022000D01*
X47244000Y49022000D02*
X47244000Y50038000D01*
X47244000Y51054000D02*
X47244000Y52070000D01*
X45720000Y50038000D02*
X45720000Y49022000D01*
X47371000Y52197000D02*
G75*
G03*
X47371000Y52197000I-127000J0D01*
G01*
%TO.C,R14*%
X30861000Y48895000D02*
X30861000Y49911000D01*
X30861000Y46863000D02*
X30861000Y47879000D01*
X29337000Y49911000D02*
X29337000Y48895000D01*
X29337000Y47879000D02*
X29337000Y46863000D01*
X29337000Y46863000D02*
X30861000Y46863000D01*
X30861000Y49911000D02*
X29337000Y49911000D01*
X30988000Y50038000D02*
G75*
G03*
X30988000Y50038000I-127000J0D01*
G01*
%TO.C,U2*%
X25201000Y41338000D02*
X25201000Y46038000D01*
X28901000Y41338000D02*
X28901000Y46038000D01*
X25201000Y46038000D02*
X28901000Y46038000D01*
X25201000Y41338000D02*
X28901000Y41338000D01*
X26416000Y41783000D02*
G75*
G03*
X26416000Y41783000I-127000J0D01*
G01*
%TO.C,C4*%
X9652000Y29083000D02*
X9652000Y30099000D01*
X8128000Y29083000D02*
X9652000Y29083000D01*
X8128000Y32131000D02*
X8128000Y31115000D01*
X9652000Y31115000D02*
X9652000Y32131000D01*
X9652000Y32131000D02*
X8128000Y32131000D01*
X8128000Y30099000D02*
X8128000Y29083000D01*
X9779000Y32258000D02*
G75*
G03*
X9779000Y32258000I-127000J0D01*
G01*
%TO.C,C3*%
X20955000Y41656000D02*
X20955000Y42672000D01*
X20955000Y44704000D02*
X19431000Y44704000D01*
X19431000Y42672000D02*
X19431000Y41656000D01*
X19431000Y41656000D02*
X20955000Y41656000D01*
X19431000Y44704000D02*
X19431000Y43688000D01*
X20955000Y43688000D02*
X20955000Y44704000D01*
X21082000Y44831000D02*
G75*
G03*
X21082000Y44831000I-127000J0D01*
G01*
%TO.C,C2*%
X18971260Y43243500D02*
X18971260Y49242980D01*
X15572740Y50543460D02*
X18971260Y50543460D01*
X14719300Y51843940D02*
X14719300Y50645060D01*
X15572740Y43243500D02*
X15572740Y49242980D01*
X14218920Y51244500D02*
X15318740Y51244500D01*
%TO.C,C10*%
X26004520Y21582380D02*
X27203400Y21582380D01*
X27256740Y22184360D02*
X27256740Y26583640D01*
X27757120Y26583640D02*
X36758880Y26583640D01*
X26603960Y21082000D02*
X26603960Y22181820D01*
X36758880Y22184360D02*
X27757120Y22184360D01*
%TO.C,R2*%
X5334000Y28829000D02*
X4318000Y28829000D01*
X7366000Y27305000D02*
X7366000Y28829000D01*
X4318000Y27305000D02*
X5334000Y27305000D01*
X4318000Y28829000D02*
X4318000Y27305000D01*
X6350000Y27305000D02*
X7366000Y27305000D01*
X7366000Y28829000D02*
X6350000Y28829000D01*
X7620000Y27305000D02*
G75*
G03*
X7620000Y27305000I-127000J0D01*
G01*
%TO.C,R34*%
X61976000Y8128000D02*
X61976000Y9144000D01*
X60452000Y8128000D02*
X61976000Y8128000D01*
X61976000Y11176000D02*
X60452000Y11176000D01*
X60452000Y11176000D02*
X60452000Y10160000D01*
X60452000Y9144000D02*
X60452000Y8128000D01*
X61976000Y10160000D02*
X61976000Y11176000D01*
X60579000Y8001000D02*
G75*
G03*
X60579000Y8001000I-127000J0D01*
G01*
%TO.C,F1*%
X11049000Y34544000D02*
X13335000Y34544000D01*
X11049000Y38100000D02*
X13335000Y38100000D01*
%TO.C,F3*%
X38735000Y43942000D02*
X41021000Y43942000D01*
X38735000Y40386000D02*
X41021000Y40386000D01*
%TO.C,C19*%
X47752000Y36576000D02*
X47752000Y37592000D01*
X46228000Y37592000D02*
X46228000Y36576000D01*
X47752000Y39624000D02*
X46228000Y39624000D01*
X46228000Y36576000D02*
X47752000Y36576000D01*
X46228000Y39624000D02*
X46228000Y38608000D01*
X47752000Y38608000D02*
X47752000Y39624000D01*
X46355000Y36449000D02*
G75*
G03*
X46355000Y36449000I-127000J0D01*
G01*
%TO.C,C20*%
X53662580Y37226240D02*
X52562760Y37226240D01*
X52308760Y45227240D02*
X52308760Y39227760D01*
X52308760Y37927280D02*
X48910240Y37927280D01*
X53162200Y36626800D02*
X53162200Y37825680D01*
X48910240Y45227240D02*
X48910240Y39227760D01*
%TO.C,U5*%
X49847500Y30670500D02*
X49847500Y34480500D01*
X49847500Y30670500D02*
X44767500Y30670500D01*
X49847500Y31178500D02*
X44767500Y31178500D01*
X44767500Y30670500D02*
X44767500Y34480500D01*
X49847500Y34480500D02*
X44767500Y34480500D01*
X49339500Y31813500D02*
G75*
G03*
X49339500Y31813500I-127000J0D01*
G01*
%TO.C,R35*%
X56705500Y34226500D02*
X56705500Y35750500D01*
X53657500Y35750500D02*
X53657500Y34226500D01*
X54673500Y35750500D02*
X53657500Y35750500D01*
X56705500Y35750500D02*
X55689500Y35750500D01*
X55689500Y34226500D02*
X56705500Y34226500D01*
X53657500Y34226500D02*
X54673500Y34226500D01*
X56959500Y34226500D02*
G75*
G03*
X56959500Y34226500I-127000J0D01*
G01*
%TO.C,R36*%
X58039000Y36131500D02*
X58039000Y37655500D01*
X54991000Y37655500D02*
X54991000Y36131500D01*
X58039000Y37655500D02*
X57023000Y37655500D01*
X56007000Y37655500D02*
X54991000Y37655500D01*
X54991000Y36131500D02*
X56007000Y36131500D01*
X57023000Y36131500D02*
X58039000Y36131500D01*
X58293000Y36131500D02*
G75*
G03*
X58293000Y36131500I-127000J0D01*
G01*
%TO.C,U6*%
X16954500Y20383500D02*
X16954500Y21399500D01*
X16954500Y21399500D02*
X14351000Y21399500D01*
X14351000Y20383500D02*
X16954500Y20383500D01*
X14351000Y20383500D02*
X14351000Y21399500D01*
X14667550Y21242020D02*
G75*
G03*
X14667550Y21242020I-159070J0D01*
G01*
%TO.C,R22*%
X70692000Y27111000D02*
X70692000Y21911000D01*
X74342000Y21911000D02*
X74342000Y27111000D01*
%TD*%
D15*
%TO.C,D3*%
X24765000Y55880000D03*
%TD*%
%TO.C,D4*%
X29845000Y55880000D03*
%TD*%
%TO.C,D7*%
X42545000Y4445000D03*
%TD*%
%TO.C,D8*%
X45212000Y4445000D03*
%TD*%
%TO.C,D9*%
X47879000Y4445000D03*
%TD*%
%TO.C,D10*%
X50546000Y4445000D03*
%TD*%
%TO.C,D11*%
X53213000Y4445000D03*
%TD*%
%TO.C,D12*%
X55880000Y4445000D03*
%TD*%
%TO.C,D13*%
X58547000Y4445000D03*
%TD*%
%TO.C,D5*%
X34925000Y55880000D03*
%TD*%
%TO.C,D14*%
X61214000Y4445000D03*
%TD*%
M02*
