%TF.GenerationSoftware,KiCad,Pcbnew,6.0.4-6f826c9f35~116~ubuntu20.04.1*%
%TF.CreationDate,2022-07-20T11:28:41+00:00*%
%TF.ProjectId,LION2CELL01D,4c494f4e-3243-4454-9c4c-3031442e6b69,rev?*%
%TF.SameCoordinates,Original*%
%TF.FileFunction,Paste,Bot*%
%TF.FilePolarity,Positive*%
%FSLAX46Y46*%
G04 Gerber Fmt 4.6, Leading zero omitted, Abs format (unit mm)*
G04 Created by KiCad (PCBNEW 6.0.4-6f826c9f35~116~ubuntu20.04.1) date 2022-07-20 11:28:41*
%MOMM*%
%LPD*%
G01*
G04 APERTURE LIST*
G04 Aperture macros list*
%AMOutline4P*
0 Free polygon, 4 corners , with rotation*
0 The origin of the aperture is its center*
0 number of corners: always 4*
0 $1 to $8 corner X, Y*
0 $9 Rotation angle, in degrees counterclockwise*
0 create outline with 4 corners*
4,1,4,$1,$2,$3,$4,$5,$6,$7,$8,$1,$2,$9*%
G04 Aperture macros list end*
%ADD10R,1.397000X0.889000*%
%ADD11R,0.889000X1.397000*%
%ADD12R,2.499360X1.800860*%
%ADD13R,1.800860X2.499360*%
%ADD14R,1.500000X1.050000*%
%ADD15R,5.500000X3.000000*%
%ADD16R,0.800100X1.000760*%
%ADD17R,3.200000X1.000000*%
%ADD18R,0.850000X0.350000*%
%ADD19R,1.400000X2.000000*%
%ADD20O,1.473200X0.609600*%
%ADD21R,1.450000X0.450000*%
%ADD22R,0.280000X0.850000*%
%ADD23R,0.850000X0.280000*%
%ADD24R,0.280000X1.125000*%
%ADD25R,0.400000X0.450000*%
%ADD26Outline4P,-0.562500X-0.140000X0.562500X-0.140000X0.562500X0.140000X-0.562500X0.140000X90.000000*%
%ADD27R,2.050000X3.050000*%
%ADD28R,2.499360X2.550160*%
%ADD29R,2.550160X2.700020*%
%ADD30R,3.330000X3.810000*%
%ADD31R,1.200000X2.000000*%
%ADD32O,0.609600X1.473200*%
G04 APERTURE END LIST*
D10*
%TO.C,C1*%
X8890000Y27876500D03*
X8890000Y25971500D03*
%TD*%
D11*
%TO.C,C5*%
X11493500Y31496000D03*
X13398500Y31496000D03*
%TD*%
D10*
%TO.C,C6*%
X21717000Y48196500D03*
X21717000Y50101500D03*
%TD*%
%TO.C,C7*%
X21869400Y44132500D03*
X21869400Y42227500D03*
%TD*%
%TO.C,C8*%
X15748000Y30035500D03*
X15748000Y31940500D03*
%TD*%
%TO.C,C9*%
X32766000Y47434500D03*
X32766000Y49339500D03*
%TD*%
%TO.C,C11*%
X24765000Y23431500D03*
X24765000Y21526500D03*
%TD*%
%TO.C,C12*%
X50419000Y25463500D03*
X50419000Y23558500D03*
%TD*%
%TO.C,C13*%
X62992000Y26098500D03*
X62992000Y24193500D03*
%TD*%
%TO.C,C14*%
X69469000Y18224500D03*
X69469000Y16319500D03*
%TD*%
D11*
%TO.C,C15*%
X63055500Y22352000D03*
X64960500Y22352000D03*
%TD*%
%TO.C,C16*%
X63055500Y28448000D03*
X64960500Y28448000D03*
%TD*%
D10*
%TO.C,C17*%
X53911500Y31305500D03*
X53911500Y33210500D03*
%TD*%
%TO.C,C18*%
X46863000Y21145500D03*
X46863000Y19240500D03*
%TD*%
D12*
%TO.C,D1*%
X9718040Y49276000D03*
X13716000Y49276000D03*
%TD*%
D13*
%TO.C,D2*%
X18542000Y40098980D03*
X18542000Y36101020D03*
%TD*%
D14*
%TO.C,D3*%
X24765000Y53880000D03*
X24765000Y57880000D03*
%TD*%
%TO.C,D4*%
X29845000Y53880000D03*
X29845000Y57880000D03*
%TD*%
%TO.C,D7*%
X42545000Y2445000D03*
X42545000Y6445000D03*
%TD*%
%TO.C,D8*%
X45212000Y2445000D03*
X45212000Y6445000D03*
%TD*%
%TO.C,D9*%
X47879000Y2445000D03*
X47879000Y6445000D03*
%TD*%
%TO.C,D10*%
X50546000Y2445000D03*
X50546000Y6445000D03*
%TD*%
%TO.C,D11*%
X53213000Y2445000D03*
X53213000Y6445000D03*
%TD*%
%TO.C,D12*%
X55880000Y2445000D03*
X55880000Y6445000D03*
%TD*%
%TO.C,D13*%
X58547000Y2445000D03*
X58547000Y6445000D03*
%TD*%
D15*
%TO.C,L1*%
X27559000Y38909000D03*
X27559000Y28909000D03*
%TD*%
D16*
%TO.C,Q1*%
X18923000Y32214820D03*
X19875500Y30015180D03*
X17970500Y30015180D03*
%TD*%
D10*
%TO.C,R1*%
X6477000Y32956500D03*
X6477000Y34861500D03*
%TD*%
D11*
%TO.C,R3*%
X6794500Y30353000D03*
X4889500Y30353000D03*
%TD*%
D10*
%TO.C,R5*%
X35052000Y51308000D03*
X35052000Y49403000D03*
%TD*%
%TO.C,R6*%
X22479000Y51625500D03*
X22479000Y53530500D03*
%TD*%
%TO.C,R7*%
X27432000Y51498500D03*
X27432000Y53403500D03*
%TD*%
%TO.C,R8*%
X32385000Y51498500D03*
X32385000Y53403500D03*
%TD*%
D11*
%TO.C,R9*%
X15811500Y27686000D03*
X17716500Y27686000D03*
%TD*%
D10*
%TO.C,R10*%
X17081500Y26035000D03*
X17081500Y24130000D03*
%TD*%
%TO.C,R11*%
X25908000Y48196500D03*
X25908000Y50101500D03*
%TD*%
%TO.C,R12*%
X23876000Y48196500D03*
X23876000Y50101500D03*
%TD*%
D11*
%TO.C,R13*%
X32829500Y45593000D03*
X34734500Y45593000D03*
%TD*%
D17*
%TO.C,R16*%
X36957000Y37517000D03*
X36957000Y31317000D03*
%TD*%
D10*
%TO.C,R18*%
X65532000Y24193500D03*
X65532000Y26098500D03*
%TD*%
D11*
%TO.C,R19*%
X69786500Y25908000D03*
X67881500Y25908000D03*
%TD*%
D10*
%TO.C,R20*%
X71501000Y13398500D03*
X71501000Y15303500D03*
%TD*%
%TO.C,R21*%
X15240000Y24130000D03*
X15240000Y26035000D03*
%TD*%
%TO.C,R23*%
X55943500Y33210500D03*
X55943500Y31305500D03*
%TD*%
D11*
%TO.C,R24*%
X51689000Y29273500D03*
X53594000Y29273500D03*
%TD*%
D10*
%TO.C,R25*%
X51308000Y35179000D03*
X51308000Y37084000D03*
%TD*%
%TO.C,R26*%
X51308000Y31877000D03*
X51308000Y33782000D03*
%TD*%
%TO.C,R27*%
X42545000Y8699500D03*
X42545000Y10604500D03*
%TD*%
%TO.C,R28*%
X45212000Y8699500D03*
X45212000Y10604500D03*
%TD*%
%TO.C,R29*%
X47879000Y8699500D03*
X47879000Y10604500D03*
%TD*%
%TO.C,R30*%
X50546000Y8699500D03*
X50546000Y10604500D03*
%TD*%
%TO.C,R31*%
X53213000Y8699500D03*
X53213000Y10604500D03*
%TD*%
%TO.C,R32*%
X55880000Y8699500D03*
X55880000Y10604500D03*
%TD*%
%TO.C,R33*%
X58547000Y8699500D03*
X58547000Y10604500D03*
%TD*%
D18*
%TO.C,U1*%
X10971000Y27473000D03*
X10971000Y28123000D03*
X10971000Y28773000D03*
X10971000Y29423000D03*
X13921000Y29423000D03*
X13921000Y28773000D03*
X13921000Y28123000D03*
X13921000Y27473000D03*
D19*
X12446000Y28448000D03*
%TD*%
D20*
%TO.C,U4*%
X48895000Y12954000D03*
X48895000Y14224000D03*
X48895000Y15494000D03*
X48895000Y16764000D03*
X48895000Y18034000D03*
X48895000Y19304000D03*
X48895000Y20574000D03*
X54483000Y20574000D03*
X54483000Y19304000D03*
X54483000Y18034000D03*
X54483000Y16764000D03*
X54483000Y15494000D03*
X54483000Y14224000D03*
X54483000Y12954000D03*
%TD*%
D21*
%TO.C,U3*%
X53819000Y22942000D03*
X53819000Y23592000D03*
X53819000Y24242000D03*
X53819000Y24892000D03*
X53819000Y25542000D03*
X53819000Y26192000D03*
X53819000Y26842000D03*
X59719000Y26842000D03*
X59719000Y26192000D03*
X59719000Y25542000D03*
X59719000Y24892000D03*
X59719000Y24242000D03*
X59719000Y23592000D03*
X59719000Y22942000D03*
%TD*%
D10*
%TO.C,R4*%
X46482000Y51498500D03*
X46482000Y49593500D03*
%TD*%
%TO.C,R14*%
X30099000Y49339500D03*
X30099000Y47434500D03*
%TD*%
D22*
%TO.C,U2*%
X26301000Y41463000D03*
D23*
X25326000Y41938000D03*
X25326000Y42438000D03*
X25326000Y42938000D03*
X25326000Y43438000D03*
X25326000Y43938000D03*
X25326000Y44438000D03*
X25326000Y44938000D03*
X25326000Y45438000D03*
D22*
X26301000Y45913000D03*
X27801000Y45913000D03*
D23*
X28776000Y45438000D03*
X28776000Y44938000D03*
X28776000Y44438000D03*
X28776000Y43938000D03*
X28776000Y43438000D03*
X28776000Y42938000D03*
X28776000Y42438000D03*
X28776000Y41938000D03*
D22*
X27801000Y41463000D03*
D24*
X26751000Y45763000D03*
X27351000Y45763000D03*
D25*
X27051000Y45438000D03*
D26*
X27351000Y41613000D03*
D25*
X27051000Y41938000D03*
D27*
X27051000Y43688000D03*
D24*
X26751000Y41613000D03*
%TD*%
D14*
%TO.C,D5*%
X34925000Y53880000D03*
X34925000Y57880000D03*
%TD*%
D10*
%TO.C,C4*%
X8890000Y31559500D03*
X8890000Y29654500D03*
%TD*%
%TO.C,C3*%
X20193000Y44132500D03*
X20193000Y42227500D03*
%TD*%
D28*
%TO.C,C2*%
X17272000Y48768000D03*
X17272000Y43718480D03*
%TD*%
D29*
%TO.C,C10*%
X29083000Y24384000D03*
X35433000Y24384000D03*
%TD*%
D11*
%TO.C,R2*%
X6794500Y28067000D03*
X4889500Y28067000D03*
%TD*%
D14*
%TO.C,D14*%
X61214000Y2445000D03*
X61214000Y6445000D03*
%TD*%
D10*
%TO.C,R34*%
X61214000Y8699500D03*
X61214000Y10604500D03*
%TD*%
D30*
%TO.C,F1*%
X9282000Y36322000D03*
X15102000Y36322000D03*
%TD*%
%TO.C,F3*%
X36968000Y42164000D03*
X42788000Y42164000D03*
%TD*%
D31*
%TO.C,J15*%
X13208000Y24892000D03*
X10668000Y24892000D03*
%TD*%
D10*
%TO.C,C19*%
X46990000Y37147500D03*
X46990000Y39052500D03*
%TD*%
D28*
%TO.C,C20*%
X50609500Y39702740D03*
X50609500Y44752260D03*
%TD*%
D32*
%TO.C,U5*%
X49212500Y29781500D03*
X47942500Y29781500D03*
X46672500Y29781500D03*
X45402500Y29781500D03*
X45402500Y35369500D03*
X46672500Y35369500D03*
X47942500Y35369500D03*
X49212500Y35369500D03*
%TD*%
D11*
%TO.C,R35*%
X56134000Y34988500D03*
X54229000Y34988500D03*
%TD*%
%TO.C,R36*%
X57467500Y36893500D03*
X55562500Y36893500D03*
%TD*%
D16*
%TO.C,U6*%
X14732000Y21991320D03*
X16637000Y21991320D03*
X15684500Y19791680D03*
%TD*%
D17*
%TO.C,R22*%
X72517000Y21411000D03*
X72517000Y27611000D03*
%TD*%
M02*
