  0
SECTION
  2
HEADER
  9
$ANGBASE
  50
0.0
  9
$ANGDIR
  70
1
  9
$MEASUREMENT
  70
0
  0
ENDSEC
  0
SECTION
  2
TABLES
  0
TABLE
  2
LTYPE
  70
4
  0
LTYPE
  5
40F
  2
CONTINUOUS
  70
0
  3
Solid line
  72
65
  73
0
  40
0.0
  0
LTYPE
  5
410
  2
DASHDOT
 70
0
  3
Dash Dot ____ _ ____ _
 72
65
 73
4
 40
2.0
 49
1.25
 49
-0.25
 49
0.25
 49
-0.25
  0
LTYPE
  5
411
  2
DASHED
 70
0
  3
Dashed __ __ __ __ __
 72
65
 73
2
 40
0.75
 49
0.5
 49
-0.25
  0
LTYPE
  5
43B
  2
DOTTED
 70
0
  3
Dotted .  .  .  .
 72
65
 73
2
 40
0.2
 49
0.0
 49
-0.2
  0
ENDTAB
  0
TABLE
  2
STYLE
  70
4
  0
STYLE
  2
KICAD
  70
0
  40
0
  41
1
  42
1
  50
0
  71
0
  3
isocp.shx
  0
STYLE
  2
KICADB
  70
0
  40
0
  41
1
  42
1
  50
0
  71
0
  3
isocp.shx
  0
STYLE
  2
KICADI
  70
0
  40
0
  41
1
  42
1
  50
15
  71
0
  3
isocp.shx
  0
STYLE
  2
KICADBI
  70
0
  40
0
  41
1
  42
1
  50
15
  71
0
  3
isocp.shx
  0
ENDTAB
  0
TABLE
  2
LAYER
  70
1
  0
LAYER
  2
BLACK
  70
0
  62
7
  6
CONTINUOUS
  0
ENDTAB
  0
ENDSEC
  0
SECTION
  2
ENTITIES
0
LINE
8
BLACK
6
CONTINUOUS
10
1.4755646456692912
20
1.3406637795275591
11
1.4765951574803149
21
1.3401485039370078
0
LINE
8
BLACK
6
CONTINUOUS
10
1.4765951574803149
20
1.3401485039370078
11
1.4773499999999999
21
1.3392781496062991
0
LINE
8
BLACK
6
CONTINUOUS
10
1.4773499999999999
20
1.3392781496062991
11
1.4777143307086613
21
1.338185157480315
0
LINE
8
BLACK
6
CONTINUOUS
10
1.4777143307086613
20
1.338185157480315
11
1.4776326771653543
21
1.3370359448818898
0
LINE
8
BLACK
6
CONTINUOUS
10
1.4776326771653543
20
1.3370359448818898
11
1.4755510236220473
21
1.3327458267716534
0
LINE
8
BLACK
6
CONTINUOUS
10
1.4755510236220473
20
1.3327458267716534
11
1.475395
21
1.3324979921259843
0
LINE
8
BLACK
6
CONTINUOUS
10
1.475395
20
1.3324979921259843
11
1.4753651574803148
21
1.3324258661417323
0
LINE
8
BLACK
6
CONTINUOUS
10
1.4753651574803148
20
1.3324258661417323
11
1.4753218110236219
21
1.3323816535433071
0
LINE
8
BLACK
6
CONTINUOUS
10
1.4753218110236219
20
1.3323816535433071
11
1.4752426771653544
21
1.3322559448818898
0
LINE
8
BLACK
6
CONTINUOUS
10
1.4752426771653544
20
1.3322559448818898
11
1.4749466929133859
21
1.331999251968504
0
LINE
8
BLACK
6
CONTINUOUS
10
1.4749466929133859
20
1.331999251968504
11
1.4724724409448819
21
1.3294768110236219
0
LINE
8
BLACK
6
CONTINUOUS
10
1.4724724409448819
20
1.3294768110236219
11
1.4999738976377952
21
1.3295158661417323
0
LINE
8
BLACK
6
CONTINUOUS
10
1.4999738976377952
20
1.3295158661417323
11
1.4999535039370078
21
1.3378158661417323
0
LINE
8
BLACK
6
CONTINUOUS
10
1.4999535039370078
20
1.3378158661417323
11
1.5000102362204724
21
1.3383919291338582
0
LINE
8
BLACK
6
CONTINUOUS
10
1.5000102362204724
20
1.3383919291338582
11
1.5004511417322834
21
1.3394563385826772
0
LINE
8
BLACK
6
CONTINUOUS
10
1.5004511417322834
20
1.3394563385826772
11
1.5012657874015747
21
1.3402709842519684
0
LINE
8
BLACK
6
CONTINUOUS
10
1.5012657874015747
20
1.3402709842519684
11
1.5023301968503937
21
1.3407118897637795
0
LINE
8
BLACK
6
CONTINUOUS
10
1.5023301968503937
20
1.3407118897637795
11
1.5034823228346457
21
1.3407118897637795
0
LINE
8
BLACK
6
CONTINUOUS
10
1.5034823228346457
20
1.3407118897637795
11
1.5045467322834645
21
1.3402709842519684
0
LINE
8
BLACK
6
CONTINUOUS
10
1.5045467322834645
20
1.3402709842519684
11
1.5053613779527559
21
1.3394563385826772
0
LINE
8
BLACK
6
CONTINUOUS
10
1.5053613779527559
20
1.3394563385826772
11
1.5058022834645668
21
1.3383919291338582
0
LINE
8
BLACK
6
CONTINUOUS
10
1.5058022834645668
20
1.3383919291338582
11
1.5058590157480314
21
1.3153187007874017
0
LINE
8
BLACK
6
CONTINUOUS
10
1.5058590157480314
20
1.3153187007874017
11
1.5058022834645668
21
1.3147426377952756
0
LINE
8
BLACK
6
CONTINUOUS
10
1.5058022834645668
20
1.3147426377952756
11
1.5053613779527559
21
1.3136782283464568
0
LINE
8
BLACK
6
CONTINUOUS
10
1.5053613779527559
20
1.3136782283464568
11
1.5045467322834645
21
1.3128635826771653
0
LINE
8
BLACK
6
CONTINUOUS
10
1.5045467322834645
20
1.3128635826771653
11
1.5034823228346457
21
1.3124226771653542
0
LINE
8
BLACK
6
CONTINUOUS
10
1.5034823228346457
20
1.3124226771653542
11
1.5023301968503937
21
1.3124226771653542
0
LINE
8
BLACK
6
CONTINUOUS
10
1.5023301968503937
20
1.3124226771653542
11
1.5012657874015747
21
1.3128635826771653
0
LINE
8
BLACK
6
CONTINUOUS
10
1.5012657874015747
20
1.3128635826771653
11
1.5004511417322834
21
1.3136782283464568
0
LINE
8
BLACK
6
CONTINUOUS
10
1.5004511417322834
20
1.3136782283464568
11
1.5000102362204724
21
1.3147426377952756
0
LINE
8
BLACK
6
CONTINUOUS
10
1.5000102362204724
20
1.3147426377952756
11
1.4999882677165355
21
1.3236662598425197
0
LINE
8
BLACK
6
CONTINUOUS
10
1.4999882677165355
20
1.3236662598425197
11
1.4635361811023622
21
1.3236145275590552
0
LINE
8
BLACK
6
CONTINUOUS
10
1.4635361811023622
20
1.3236145275590552
11
1.4635340944881889
21
1.3236147244094487
0
LINE
8
BLACK
6
CONTINUOUS
10
1.4635340944881889
20
1.3236147244094487
11
1.4635330708661416
21
1.3236145275590552
0
LINE
8
BLACK
6
CONTINUOUS
10
1.4635330708661416
20
1.3236145275590552
11
1.4635300393700788
21
1.3236151181102362
0
LINE
8
BLACK
6
CONTINUOUS
10
1.4635300393700788
20
1.3236151181102362
11
1.4629601181102363
21
1.3236712598425198
0
LINE
8
BLACK
6
CONTINUOUS
10
1.4629601181102363
20
1.3236712598425198
11
1.46269
21
1.3237831102362205
0
LINE
8
BLACK
6
CONTINUOUS
10
1.46269
20
1.3237831102362205
11
1.4624033858267715
21
1.3238404724409449
0
LINE
8
BLACK
6
CONTINUOUS
10
1.4624033858267715
20
1.3238404724409449
11
1.4621629921259842
21
1.3240014173228347
0
LINE
8
BLACK
6
CONTINUOUS
10
1.4621629921259842
20
1.3240014173228347
11
1.4618957086614173
21
1.3241121653543306
0
LINE
8
BLACK
6
CONTINUOUS
10
1.4618957086614173
20
1.3241121653543306
11
1.4616889763779528
21
1.3243188582677166
0
LINE
8
BLACK
6
CONTINUOUS
10
1.4616889763779528
20
1.3243188582677166
11
1.4614461023622047
21
1.3244815354330708
0
LINE
8
BLACK
6
CONTINUOUS
10
1.4614461023622047
20
1.3244815354330708
11
1.461285590551181
21
1.3247222440944881
0
LINE
8
BLACK
6
CONTINUOUS
10
1.461285590551181
20
1.3247222440944881
11
1.461081062992126
21
1.3249268110236221
0
LINE
8
BLACK
6
CONTINUOUS
10
1.461081062992126
20
1.3249268110236221
11
1.4609691732283465
21
1.3251968897637796
0
LINE
8
BLACK
6
CONTINUOUS
10
1.4609691732283465
20
1.3251968897637796
11
1.4608070078740156
21
1.325440157480315
0
LINE
8
BLACK
6
CONTINUOUS
10
1.4608070078740156
20
1.325440157480315
11
1.4607508661417323
21
1.3257239370078739
0
LINE
8
BLACK
6
CONTINUOUS
10
1.4607508661417323
20
1.3257239370078739
11
1.4606401574803149
21
1.3259912204724409
0
LINE
8
BLACK
6
CONTINUOUS
10
1.4606401574803149
20
1.3259912204724409
11
1.4606401574803149
21
1.3262835826771653
0
LINE
8
BLACK
6
CONTINUOUS
10
1.4606401574803149
20
1.3262835826771653
11
1.4605834251968504
21
1.3265703937007873
0
LINE
8
BLACK
6
CONTINUOUS
10
1.4605834251968504
20
1.3265703937007873
11
1.4606401574803149
21
1.3268540157480315
0
LINE
8
BLACK
6
CONTINUOUS
10
1.4606401574803149
20
1.3268540157480315
11
1.4606401574803149
21
1.3271433464566929
0
LINE
8
BLACK
6
CONTINUOUS
10
1.4606401574803149
20
1.3271433464566929
11
1.4607520078740157
21
1.3274134251968503
0
LINE
8
BLACK
6
CONTINUOUS
10
1.4607520078740157
20
1.3274134251968503
11
1.4608093700787401
21
1.3277000787401574
0
LINE
8
BLACK
6
CONTINUOUS
10
1.4608093700787401
20
1.3277000787401574
11
1.4609703149606299
21
1.3279404330708662
0
LINE
8
BLACK
6
CONTINUOUS
10
1.4609703149606299
20
1.3279404330708662
11
1.461081062992126
21
1.3282077559055119
0
LINE
8
BLACK
6
CONTINUOUS
10
1.461081062992126
20
1.3282077559055119
11
1.4612877559055117
21
1.3284144488188976
0
LINE
8
BLACK
6
CONTINUOUS
10
1.4612877559055117
20
1.3284144488188976
11
1.4614504330708662
21
1.3286573622047244
0
LINE
8
BLACK
6
CONTINUOUS
10
1.4614504330708662
20
1.3286573622047244
11
1.4616995275590552
21
1.3288262204724408
0
LINE
8
BLACK
6
CONTINUOUS
10
1.4616995275590552
20
1.3288262204724408
11
1.4618957086614173
21
1.3290224015748031
0
LINE
8
BLACK
6
CONTINUOUS
10
1.4618957086614173
20
1.3290224015748031
11
1.4621353543307087
21
1.329121653543307
0
LINE
8
BLACK
6
CONTINUOUS
10
1.4621353543307087
20
1.329121653543307
11
1.4674734251968504
21
1.3327403149606298
0
LINE
8
BLACK
6
CONTINUOUS
10
1.4674734251968504
20
1.3327403149606298
11
1.4705740551181101
21
1.3359013779527558
0
LINE
8
BLACK
6
CONTINUOUS
10
1.4705740551181101
20
1.3359013779527558
11
1.4721437401574802
21
1.3391363779527559
0
LINE
8
BLACK
6
CONTINUOUS
10
1.4721437401574802
20
1.3391363779527559
11
1.4724520866141733
21
1.3396262598425197
0
LINE
8
BLACK
6
CONTINUOUS
10
1.4724520866141733
20
1.3396262598425197
11
1.4733224803149605
21
1.3403811023622048
0
LINE
8
BLACK
6
CONTINUOUS
10
1.4733224803149605
20
1.3403811023622048
11
1.4744154330708661
21
1.3407454330708661
0
LINE
8
BLACK
6
CONTINUOUS
10
1.4744154330708661
20
1.3407454330708661
11
1.4755646456692912
21
1.3406637795275591
0
LINE
8
BLACK
6
CONTINUOUS
10
1.5034823228346457
20
1.3782072047244094
11
1.5045467322834645
21
1.3777662992125983
0
LINE
8
BLACK
6
CONTINUOUS
10
1.5045467322834645
20
1.3777662992125983
11
1.5053613779527559
21
1.3769516535433071
0
LINE
8
BLACK
6
CONTINUOUS
10
1.5053613779527559
20
1.3769516535433071
11
1.5058022834645668
21
1.3758872440944883
0
LINE
8
BLACK
6
CONTINUOUS
10
1.5058022834645668
20
1.3758872440944883
11
1.5058022834645668
21
1.3747351181102363
0
LINE
8
BLACK
6
CONTINUOUS
10
1.5058022834645668
20
1.3747351181102363
11
1.5053613779527559
21
1.3736707086614173
0
LINE
8
BLACK
6
CONTINUOUS
10
1.5053613779527559
20
1.3736707086614173
11
1.5045467322834645
21
1.372856062992126
0
LINE
8
BLACK
6
CONTINUOUS
10
1.5045467322834645
20
1.372856062992126
11
1.5034823228346457
21
1.372415157480315
0
LINE
8
BLACK
6
CONTINUOUS
10
1.5034823228346457
20
1.372415157480315
11
1.4870673228346456
21
1.372391811023622
0
LINE
8
BLACK
6
CONTINUOUS
10
1.4870673228346456
20
1.372391811023622
11
1.4870853937007873
21
1.3674298425196849
0
LINE
8
BLACK
6
CONTINUOUS
10
1.4870853937007873
20
1.3674298425196849
11
1.5045995669291339
21
1.3552329921259842
0
LINE
8
BLACK
6
CONTINUOUS
10
1.5045995669291339
20
1.3552329921259842
11
1.5050389370078741
21
1.3548561811023623
0
LINE
8
BLACK
6
CONTINUOUS
10
1.5050389370078741
20
1.3548561811023623
11
1.5056581102362205
21
1.3538845669291337
0
LINE
8
BLACK
6
CONTINUOUS
10
1.5056581102362205
20
1.3538845669291337
11
1.5058583464566928
21
1.3527500393700786
0
LINE
8
BLACK
6
CONTINUOUS
10
1.5058583464566928
20
1.3527500393700786
11
1.5056091338582678
21
1.3516251968503936
0
LINE
8
BLACK
6
CONTINUOUS
10
1.5056091338582678
20
1.3516251968503936
11
1.5049484251968503
21
1.350681338582677
0
LINE
8
BLACK
6
CONTINUOUS
10
1.5049484251968503
20
1.350681338582677
11
1.5039768503937008
21
1.3500621653543308
0
LINE
8
BLACK
6
CONTINUOUS
10
1.5039768503937008
20
1.3500621653543308
11
1.5028422834645669
21
1.349861968503937
0
LINE
8
BLACK
6
CONTINUOUS
10
1.5028422834645669
20
1.349861968503937
11
1.5017174409448819
21
1.3501111417322835
0
LINE
8
BLACK
6
CONTINUOUS
10
1.5017174409448819
20
1.3501111417322835
11
1.4871085433070865
21
1.3602847637795275
0
LINE
8
BLACK
6
CONTINUOUS
10
1.4871085433070865
20
1.3602847637795275
11
1.4870546062992125
21
1.3597370078740156
0
LINE
8
BLACK
6
CONTINUOUS
10
1.4870546062992125
20
1.3597370078740156
11
1.4870140157480314
21
1.3596390157480314
0
LINE
8
BLACK
6
CONTINUOUS
10
1.4870140157480314
20
1.3596390157480314
11
1.4870064960629921
21
1.3595331496062992
0
LINE
8
BLACK
6
CONTINUOUS
10
1.4870064960629921
20
1.3595331496062992
11
1.4867581496062992
21
1.3590213779527558
0
LINE
8
BLACK
6
CONTINUOUS
10
1.4867581496062992
20
1.3590213779527558
11
1.4866137007874016
21
1.3586725984251968
0
LINE
8
BLACK
6
CONTINUOUS
10
1.4866137007874016
20
1.3586725984251968
11
1.486565590551181
21
1.3586244881889764
0
LINE
8
BLACK
6
CONTINUOUS
10
1.486565590551181
20
1.3586244881889764
11
1.484924842519685
21
1.3552430314960631
0
LINE
8
BLACK
6
CONTINUOUS
10
1.484924842519685
20
1.3552430314960631
11
1.4847687401574803
21
1.3549949999999999
0
LINE
8
BLACK
6
CONTINUOUS
10
1.4847687401574803
20
1.3549949999999999
11
1.4847389370078741
21
1.3549230708661417
0
LINE
8
BLACK
6
CONTINUOUS
10
1.4847389370078741
20
1.3549230708661417
11
1.4846944094488188
21
1.354876968503937
0
LINE
8
BLACK
6
CONTINUOUS
10
1.4846944094488188
20
1.354876968503937
11
1.4846164960629922
21
1.3547531496062992
0
LINE
8
BLACK
6
CONTINUOUS
10
1.4846164960629922
20
1.3547531496062992
11
1.4843607874015747
21
1.3545313779527559
0
LINE
8
BLACK
6
CONTINUOUS
10
1.4843607874015747
20
1.3545313779527559
11
1.4824969685039371
21
1.3526008661417324
0
LINE
8
BLACK
6
CONTINUOUS
10
1.4824969685039371
20
1.3526008661417324
11
1.482270590551181
21
1.3524150787401574
0
LINE
8
BLACK
6
CONTINUOUS
10
1.482270590551181
20
1.3524150787401574
11
1.4822194488188976
21
1.3523561023622046
0
LINE
8
BLACK
6
CONTINUOUS
10
1.4822194488188976
20
1.3523561023622046
11
1.4821637795275591
21
1.3523274409448818
0
LINE
8
BLACK
6
CONTINUOUS
10
1.4821637795275591
20
1.3523274409448818
11
1.4820495275590551
21
1.3522336614173227
0
LINE
8
BLACK
6
CONTINUOUS
10
1.4820495275590551
20
1.3522336614173227
11
1.4817027165354331
21
1.35209
0
LINE
8
BLACK
6
CONTINUOUS
10
1.4817027165354331
20
1.35209
11
1.4779800393700786
21
1.3501729921259842
0
LINE
8
BLACK
6
CONTINUOUS
10
1.4779800393700786
20
1.3501729921259842
11
1.4774394094488188
21
1.3499661023622047
0
LINE
8
BLACK
6
CONTINUOUS
10
1.4774394094488188
20
1.3499661023622047
11
1.4773335826771654
21
1.3499585826771654
0
LINE
8
BLACK
6
CONTINUOUS
10
1.4773335826771654
20
1.3499585826771654
11
1.4772355905511811
21
1.3499179921259843
0
LINE
8
BLACK
6
CONTINUOUS
10
1.4772355905511811
20
1.3499179921259843
11
1.4766923228346456
21
1.3499129921259843
0
LINE
8
BLACK
6
CONTINUOUS
10
1.4766923228346456
20
1.3499129921259843
11
1.4762901968503936
21
1.3498844488188977
0
LINE
8
BLACK
6
CONTINUOUS
10
1.4762901968503936
20
1.3498844488188977
11
1.4762174803149606
21
1.3499086614173228
0
LINE
8
BLACK
6
CONTINUOUS
10
1.4762174803149606
20
1.3499086614173228
11
1.4710352362204724
21
1.3498612598425197
0
LINE
8
BLACK
6
CONTINUOUS
10
1.4710352362204724
20
1.3498612598425197
11
1.4704591732283465
21
1.3499179921259843
0
LINE
8
BLACK
6
CONTINUOUS
10
1.4704591732283465
20
1.3499179921259843
11
1.4703611811023622
21
1.3499585433070866
0
LINE
8
BLACK
6
CONTINUOUS
10
1.4703611811023622
20
1.3499585433070866
11
1.4702553149606299
21
1.3499661023622047
0
LINE
8
BLACK
6
CONTINUOUS
10
1.4702553149606299
20
1.3499661023622047
11
1.4697435433070867
21
1.3502144094488189
0
LINE
8
BLACK
6
CONTINUOUS
10
1.4697435433070867
20
1.3502144094488189
11
1.4693947637795275
21
1.3503588976377952
0
LINE
8
BLACK
6
CONTINUOUS
10
1.4693947637795275
20
1.3503588976377952
11
1.4693466535433071
21
1.350406968503937
0
LINE
8
BLACK
6
CONTINUOUS
10
1.4693466535433071
20
1.350406968503937
11
1.4659651968503937
21
1.3520477559055117
0
LINE
8
BLACK
6
CONTINUOUS
10
1.4659651968503937
20
1.3520477559055117
11
1.4657171653543306
21
1.3522038188976377
0
LINE
8
BLACK
6
CONTINUOUS
10
1.4657171653543306
20
1.3522038188976377
11
1.4656452362204724
21
1.3522336614173227
0
LINE
8
BLACK
6
CONTINUOUS
10
1.4656452362204724
20
1.3522336614173227
11
1.4655991338582677
21
1.3522781496062992
0
LINE
8
BLACK
6
CONTINUOUS
10
1.4655991338582677
20
1.3522781496062992
11
1.4654753149606299
21
1.3523561023622046
0
LINE
8
BLACK
6
CONTINUOUS
10
1.4654753149606299
20
1.3523561023622046
11
1.4652535433070866
21
1.3526117716535433
0
LINE
8
BLACK
6
CONTINUOUS
10
1.4652535433070866
20
1.3526117716535433
11
1.463323031496063
21
1.3544756299212599
0
LINE
8
BLACK
6
CONTINUOUS
10
1.463323031496063
20
1.3544756299212599
11
1.4631372440944881
21
1.354701968503937
0
LINE
8
BLACK
6
CONTINUOUS
10
1.4631372440944881
20
1.354701968503937
11
1.4630782677165355
21
1.3547531496062992
0
LINE
8
BLACK
6
CONTINUOUS
10
1.4630782677165355
20
1.3547531496062992
11
1.4630496062992127
21
1.354808779527559
0
LINE
8
BLACK
6
CONTINUOUS
10
1.4630496062992127
20
1.354808779527559
11
1.4629558267716536
21
1.3549230708661417
0
LINE
8
BLACK
6
CONTINUOUS
10
1.4629558267716536
20
1.3549230708661417
11
1.4628121653543307
21
1.355269842519685
0
LINE
8
BLACK
6
CONTINUOUS
10
1.4628121653543307
20
1.355269842519685
11
1.4608951574803148
21
1.3589925590551182
0
LINE
8
BLACK
6
CONTINUOUS
10
1.4608951574803148
20
1.3589925590551182
11
1.4606882677165354
21
1.359533188976378
0
LINE
8
BLACK
6
CONTINUOUS
10
1.4606882677165354
20
1.359533188976378
11
1.4606807480314961
21
1.3596389763779528
0
LINE
8
BLACK
6
CONTINUOUS
10
1.4606807480314961
20
1.3596389763779528
11
1.4606401574803149
21
1.3597370078740156
0
LINE
8
BLACK
6
CONTINUOUS
10
1.4606401574803149
20
1.3597370078740156
11
1.4606383070866142
21
1.3602358661417322
0
LINE
8
BLACK
6
CONTINUOUS
10
1.4606383070866142
20
1.3602358661417322
11
1.4606066141732283
21
1.3606824015748031
0
LINE
8
BLACK
6
CONTINUOUS
10
1.4606066141732283
20
1.3606824015748031
11
1.4606363779527558
21
1.3607716929133857
0
LINE
8
BLACK
6
CONTINUOUS
10
1.4606363779527558
20
1.3607716929133857
11
1.4605834251968504
21
1.3753111811023622
0
LINE
8
BLACK
6
CONTINUOUS
10
1.4605834251968504
20
1.3753111811023622
11
1.4606401574803149
21
1.3758872440944883
0
LINE
8
BLACK
6
CONTINUOUS
10
1.4606401574803149
20
1.3758872440944883
11
1.461081062992126
21
1.3769516535433071
0
LINE
8
BLACK
6
CONTINUOUS
10
1.461081062992126
20
1.3769516535433071
11
1.4618957086614173
21
1.3777662992125983
0
LINE
8
BLACK
6
CONTINUOUS
10
1.4618957086614173
20
1.3777662992125983
11
1.4629601181102363
21
1.3782072047244094
0
LINE
8
BLACK
6
CONTINUOUS
10
1.4629601181102363
20
1.3782072047244094
11
1.5029062598425196
21
1.378263937007874
0
LINE
8
BLACK
6
CONTINUOUS
10
1.5029062598425196
20
1.378263937007874
11
1.5034823228346457
21
1.3782072047244094
0
LINE
8
BLACK
6
CONTINUOUS
10
1.4664450393700788
20
1.3723625196850393
11
1.4664866929133857
21
1.360923622047244
0
LINE
8
BLACK
6
CONTINUOUS
10
1.4664866929133857
20
1.360923622047244
11
1.467879251968504
21
1.3582193700787402
0
LINE
8
BLACK
6
CONTINUOUS
10
1.467879251968504
20
1.3582193700787402
11
1.4691126377952755
21
1.3570286220472441
0
LINE
8
BLACK
6
CONTINUOUS
10
1.4691126377952755
20
1.3570286220472441
11
1.4718048031496063
21
1.3557223228346456
0
LINE
8
BLACK
6
CONTINUOUS
10
1.4718048031496063
20
1.3557223228346456
11
1.476042283464567
21
1.3557611023622047
0
LINE
8
BLACK
6
CONTINUOUS
10
1.476042283464567
20
1.3557611023622047
11
1.4787531889763779
21
1.3571570866141731
0
LINE
8
BLACK
6
CONTINUOUS
10
1.4787531889763779
20
1.3571570866141731
11
1.479943937007874
21
1.3583904724409448
0
LINE
8
BLACK
6
CONTINUOUS
10
1.479943937007874
20
1.3583904724409448
11
1.4812575984251968
21
1.3610977952755905
0
LINE
8
BLACK
6
CONTINUOUS
10
1.4812575984251968
20
1.3610977952755905
11
1.4812404330708662
21
1.3658091732283464
0
LINE
8
BLACK
6
CONTINUOUS
10
1.4812404330708662
20
1.3658091732283464
11
1.4812065354330708
21
1.366001338582677
0
LINE
8
BLACK
6
CONTINUOUS
10
1.4812065354330708
20
1.366001338582677
11
1.4812391732283465
21
1.3661487795275591
0
LINE
8
BLACK
6
CONTINUOUS
10
1.4812391732283465
20
1.3661487795275591
11
1.4812164566929134
21
1.3723835039370078
0
LINE
8
BLACK
6
CONTINUOUS
10
1.4812164566929134
20
1.3723835039370078
11
1.4664450393700788
21
1.3723625196850393
0
LINE
8
BLACK
6
CONTINUOUS
10
1.4880086220472442
20
1.417624094488189
11
1.488051653543307
21
1.4176305118110235
0
LINE
8
BLACK
6
CONTINUOUS
10
1.488051653543307
20
1.4176305118110235
11
1.4881253149606299
21
1.4176125984251968
0
LINE
8
BLACK
6
CONTINUOUS
10
1.4881253149606299
20
1.4176125984251968
11
1.4884841732283465
21
1.4175772834645668
0
LINE
8
BLACK
6
CONTINUOUS
10
1.4884841732283465
20
1.4175772834645668
11
1.4887860629921259
21
1.4174522047244094
0
LINE
8
BLACK
6
CONTINUOUS
10
1.4887860629921259
20
1.4174522047244094
11
1.4961233070866142
21
1.4156711023622046
0
LINE
8
BLACK
6
CONTINUOUS
10
1.4961233070866142
20
1.4156711023622046
11
1.4961657874015748
21
1.415655905511811
0
LINE
8
BLACK
6
CONTINUOUS
10
1.4961657874015748
20
1.415655905511811
11
1.4961870472440943
21
1.4156544094488188
0
LINE
8
BLACK
6
CONTINUOUS
10
1.4961870472440943
20
1.4156544094488188
11
1.4962345669291339
21
1.4156313385826771
0
LINE
8
BLACK
6
CONTINUOUS
10
1.4962345669291339
20
1.4156313385826771
11
1.4966684251968503
21
1.4154763385826772
0
LINE
8
BLACK
6
CONTINUOUS
10
1.4966684251968503
20
1.4154763385826772
11
1.4968853937007873
21
1.4153155118110237
0
LINE
8
BLACK
6
CONTINUOUS
10
1.4968853937007873
20
1.4153155118110237
11
1.5004772047244095
21
1.4135727559055118
0
LINE
8
BLACK
6
CONTINUOUS
10
1.5004772047244095
20
1.4135727559055118
11
1.5007250787401574
21
1.4134166929133858
0
LINE
8
BLACK
6
CONTINUOUS
10
1.5007250787401574
20
1.4134166929133858
11
1.5007971259842519
21
1.4133868897637796
0
LINE
8
BLACK
6
CONTINUOUS
10
1.5007971259842519
20
1.4133868897637796
11
1.5008432283464566
21
1.4133423228346456
0
LINE
8
BLACK
6
CONTINUOUS
10
1.5008432283464566
20
1.4133423228346456
11
1.5009670866141731
21
1.4132644094488189
0
LINE
8
BLACK
6
CONTINUOUS
10
1.5009670866141731
20
1.4132644094488189
11
1.5011887795275589
21
1.4130087401574802
0
LINE
8
BLACK
6
CONTINUOUS
10
1.5011887795275589
20
1.4130087401574802
11
1.5031193700787402
21
1.4111449212598426
0
LINE
8
BLACK
6
CONTINUOUS
10
1.5031193700787402
20
1.4111449212598426
11
1.5033051181102361
21
1.4109185433070865
0
LINE
8
BLACK
6
CONTINUOUS
10
1.5033051181102361
20
1.4109185433070865
11
1.5033641732283465
21
1.4108673622047243
0
LINE
8
BLACK
6
CONTINUOUS
10
1.5033641732283465
20
1.4108673622047243
11
1.5033927952755906
21
1.4108116929133858
0
LINE
8
BLACK
6
CONTINUOUS
10
1.5033927952755906
20
1.4108116929133858
11
1.5034866141732284
21
1.4106974409448818
0
LINE
8
BLACK
6
CONTINUOUS
10
1.5034866141732284
20
1.4106974409448818
11
1.5036302755905511
21
1.4103505511811023
0
LINE
8
BLACK
6
CONTINUOUS
10
1.5036302755905511
20
1.4103505511811023
11
1.5055472834645669
21
1.4066279527559056
0
LINE
8
BLACK
6
CONTINUOUS
10
1.5055472834645669
20
1.4066279527559056
11
1.5057541732283464
21
1.4060873622047243
0
LINE
8
BLACK
6
CONTINUOUS
10
1.5057541732283464
20
1.4060873622047243
11
1.5057616929133857
21
1.4059814566929134
0
LINE
8
BLACK
6
CONTINUOUS
10
1.5057616929133857
20
1.4059814566929134
11
1.5058022834645668
21
1.4058835039370079
0
LINE
8
BLACK
6
CONTINUOUS
10
1.5058022834645668
20
1.4058835039370079
11
1.5058098818897638
21
1.4053031102362203
0
LINE
8
BLACK
6
CONTINUOUS
10
1.5058098818897638
20
1.4053031102362203
11
1.5058358267716536
21
1.4049381496062991
0
LINE
8
BLACK
6
CONTINUOUS
10
1.5058358267716536
20
1.4049381496062991
11
1.5058154724409449
21
1.4048770866141731
0
LINE
8
BLACK
6
CONTINUOUS
10
1.5058154724409449
20
1.4048770866141731
11
1.5058590157480314
21
1.4015579133858267
0
LINE
8
BLACK
6
CONTINUOUS
10
1.5058590157480314
20
1.4015579133858267
11
1.5058022834645668
21
1.4009818503937008
0
LINE
8
BLACK
6
CONTINUOUS
10
1.5058022834645668
20
1.4009818503937008
11
1.5057616929133857
21
1.4008838582677166
0
LINE
8
BLACK
6
CONTINUOUS
10
1.5057616929133857
20
1.4008838582677166
11
1.5057541732283464
21
1.4007779921259842
0
LINE
8
BLACK
6
CONTINUOUS
10
1.5057541732283464
20
1.4007779921259842
11
1.5055058267716535
21
1.400266220472441
0
LINE
8
BLACK
6
CONTINUOUS
10
1.5055058267716535
20
1.400266220472441
11
1.5053613779527559
21
1.3999174409448818
0
LINE
8
BLACK
6
CONTINUOUS
10
1.5053613779527559
20
1.3999174409448818
11
1.5053132677165355
21
1.3998693307086614
0
LINE
8
BLACK
6
CONTINUOUS
10
1.5053132677165355
20
1.3998693307086614
11
1.5036725196850393
21
1.396487874015748
0
LINE
8
BLACK
6
CONTINUOUS
10
1.5036725196850393
20
1.396487874015748
11
1.5035164173228346
21
1.3962398425196849
0
LINE
8
BLACK
6
CONTINUOUS
10
1.5035164173228346
20
1.3962398425196849
11
1.5034866141732284
21
1.3961679133858267
0
LINE
8
BLACK
6
CONTINUOUS
10
1.5034866141732284
20
1.3961679133858267
11
1.5034420866141731
21
1.396121811023622
0
LINE
8
BLACK
6
CONTINUOUS
10
1.5034420866141731
20
1.396121811023622
11
1.5033641732283465
21
1.3959979921259842
0
LINE
8
BLACK
6
CONTINUOUS
10
1.5033641732283465
20
1.3959979921259842
11
1.5031083858267715
21
1.3957761811023621
0
LINE
8
BLACK
6
CONTINUOUS
10
1.5031083858267715
20
1.3957761811023621
11
1.5012445669291339
21
1.3938456692913386
0
LINE
8
BLACK
6
CONTINUOUS
10
1.5012445669291339
20
1.3938456692913386
11
1.5010182283464566
21
1.3936599212598424
0
LINE
8
BLACK
6
CONTINUOUS
10
1.5010182283464566
20
1.3936599212598424
11
1.5009670866141731
21
1.3936009448818898
0
LINE
8
BLACK
6
CONTINUOUS
10
1.5009670866141731
20
1.3936009448818898
11
1.5009114566929134
21
1.393572283464567
0
LINE
8
BLACK
6
CONTINUOUS
10
1.5009114566929134
20
1.393572283464567
11
1.5007971259842519
21
1.3934784645669291
0
LINE
8
BLACK
6
CONTINUOUS
10
1.5007971259842519
20
1.3934784645669291
11
1.5004501968503936
21
1.3933347637795275
0
LINE
8
BLACK
6
CONTINUOUS
10
1.5004501968503936
20
1.3933347637795275
11
1.4967276771653544
21
1.3914178346456691
0
LINE
8
BLACK
6
CONTINUOUS
10
1.4967276771653544
20
1.3914178346456691
11
1.4966855511811024
21
1.3914016929133859
0
LINE
8
BLACK
6
CONTINUOUS
10
1.4966855511811024
20
1.3914016929133859
11
1.4966684251968503
21
1.3913890157480315
0
LINE
8
BLACK
6
CONTINUOUS
10
1.4966684251968503
20
1.3913890157480315
11
1.4966194094488188
21
1.3913763779527559
0
LINE
8
BLACK
6
CONTINUOUS
10
1.4966194094488188
20
1.3913763779527559
11
1.4961870472440943
21
1.3912109448818897
0
LINE
8
BLACK
6
CONTINUOUS
10
1.4961870472440943
20
1.3912109448818897
11
1.4958958267716536
21
1.3911902362204724
0
LINE
8
BLACK
6
CONTINUOUS
10
1.4958958267716536
20
1.3911902362204724
11
1.488624251968504
21
1.3893194881889763
0
LINE
8
BLACK
6
CONTINUOUS
10
1.488624251968504
20
1.3893194881889763
11
1.4885243700787401
21
1.38930468503937
0
LINE
8
BLACK
6
CONTINUOUS
10
1.4885243700787401
20
1.38930468503937
11
1.4884841732283465
21
1.3892880708661417
0
LINE
8
BLACK
6
CONTINUOUS
10
1.4884841732283465
20
1.3892880708661417
11
1.4884087795275591
21
1.3892876377952756
0
LINE
8
BLACK
6
CONTINUOUS
10
1.4884087795275591
20
1.3892876377952756
11
1.488051653543307
21
1.389234842519685
0
LINE
8
BLACK
6
CONTINUOUS
10
1.488051653543307
20
1.389234842519685
11
1.4877230708661418
21
1.3892837007874015
0
LINE
8
BLACK
6
CONTINUOUS
10
1.4877230708661418
20
1.3892837007874015
11
1.4785342913385826
21
1.3892313385826771
0
LINE
8
BLACK
6
CONTINUOUS
10
1.4785342913385826
20
1.3892313385826771
11
1.4784337401574803
21
1.3892412204724409
0
LINE
8
BLACK
6
CONTINUOUS
10
1.4784337401574803
20
1.3892412204724409
11
1.4783907480314959
21
1.389234842519685
0
LINE
8
BLACK
6
CONTINUOUS
10
1.4783907480314959
20
1.389234842519685
11
1.4783170472440945
21
1.3892527165354331
0
LINE
8
BLACK
6
CONTINUOUS
10
1.4783170472440945
20
1.3892527165354331
11
1.4779582283464567
21
1.3892880708661417
0
LINE
8
BLACK
6
CONTINUOUS
10
1.4779582283464567
20
1.3892880708661417
11
1.4776562992125983
21
1.3894131102362204
0
LINE
8
BLACK
6
CONTINUOUS
10
1.4776562992125983
20
1.3894131102362204
11
1.470319094488189
21
1.3911942519685039
0
LINE
8
BLACK
6
CONTINUOUS
10
1.470319094488189
20
1.3911942519685039
11
1.4702765748031497
21
1.3912094094488188
0
LINE
8
BLACK
6
CONTINUOUS
10
1.4702765748031497
20
1.3912094094488188
11
1.4702553149606299
21
1.3912109448818897
0
LINE
8
BLACK
6
CONTINUOUS
10
1.4702553149606299
20
1.3912109448818897
11
1.4702076377952755
21
1.3912340551181102
0
LINE
8
BLACK
6
CONTINUOUS
10
1.4702076377952755
20
1.3912340551181102
11
1.4697739763779527
21
1.3913890157480315
0
LINE
8
BLACK
6
CONTINUOUS
10
1.4697739763779527
20
1.3913890157480315
11
1.4695570078740157
21
1.3915497244094488
0
LINE
8
BLACK
6
CONTINUOUS
10
1.4695570078740157
20
1.3915497244094488
11
1.4659651968503937
21
1.3932925984251969
0
LINE
8
BLACK
6
CONTINUOUS
10
1.4659651968503937
20
1.3932925984251969
11
1.4657171653543306
21
1.3934486614173227
0
LINE
8
BLACK
6
CONTINUOUS
10
1.4657171653543306
20
1.3934486614173227
11
1.4656452362204724
21
1.3934785039370079
0
LINE
8
BLACK
6
CONTINUOUS
10
1.4656452362204724
20
1.3934785039370079
11
1.4655991338582677
21
1.3935229921259842
0
LINE
8
BLACK
6
CONTINUOUS
10
1.4655991338582677
20
1.3935229921259842
11
1.4654753149606299
21
1.3936009448818898
0
LINE
8
BLACK
6
CONTINUOUS
10
1.4654753149606299
20
1.3936009448818898
11
1.4652535433070866
21
1.3938566141732283
0
LINE
8
BLACK
6
CONTINUOUS
10
1.4652535433070866
20
1.3938566141732283
11
1.463323031496063
21
1.3957204724409449
0
LINE
8
BLACK
6
CONTINUOUS
10
1.463323031496063
20
1.3957204724409449
11
1.4631372440944881
21
1.3959468110236219
0
LINE
8
BLACK
6
CONTINUOUS
10
1.4631372440944881
20
1.3959468110236219
11
1.4630782677165355
21
1.3959979921259842
0
LINE
8
BLACK
6
CONTINUOUS
10
1.4630782677165355
20
1.3959979921259842
11
1.4630496062992127
21
1.3960536220472441
0
LINE
8
BLACK
6
CONTINUOUS
10
1.4630496062992127
20
1.3960536220472441
11
1.4629558267716536
21
1.3961679133858267
0
LINE
8
BLACK
6
CONTINUOUS
10
1.4629558267716536
20
1.3961679133858267
11
1.4628121653543307
21
1.3965146850393702
0
LINE
8
BLACK
6
CONTINUOUS
10
1.4628121653543307
20
1.3965146850393702
11
1.4608951574803148
21
1.4002374015748031
0
LINE
8
BLACK
6
CONTINUOUS
10
1.4608951574803148
20
1.4002374015748031
11
1.4606882677165354
21
1.4007780314960629
0
LINE
8
BLACK
6
CONTINUOUS
10
1.4606882677165354
20
1.4007780314960629
11
1.4606807480314961
21
1.4008838188976378
0
LINE
8
BLACK
6
CONTINUOUS
10
1.4606807480314961
20
1.4008838188976378
11
1.4606401574803149
21
1.4009818503937008
0
LINE
8
BLACK
6
CONTINUOUS
10
1.4606401574803149
20
1.4009818503937008
11
1.4606325196850394
21
1.4015622834645669
0
LINE
8
BLACK
6
CONTINUOUS
10
1.4606325196850394
20
1.4015622834645669
11
1.4606066141732283
21
1.4019272440944881
0
LINE
8
BLACK
6
CONTINUOUS
10
1.4606066141732283
20
1.4019272440944881
11
1.4606269291338583
21
1.4019882677165354
0
LINE
8
BLACK
6
CONTINUOUS
10
1.4606269291338583
20
1.4019882677165354
11
1.4605834251968504
21
1.4053074409448818
0
LINE
8
BLACK
6
CONTINUOUS
10
1.4605834251968504
20
1.4053074409448818
11
1.4606401574803149
21
1.4058835039370079
0
LINE
8
BLACK
6
CONTINUOUS
10
1.4606401574803149
20
1.4058835039370079
11
1.4606807480314961
21
1.4059814960629922
0
LINE
8
BLACK
6
CONTINUOUS
10
1.4606807480314961
20
1.4059814960629922
11
1.4606882677165354
21
1.4060873228346455
0
LINE
8
BLACK
6
CONTINUOUS
10
1.4606882677165354
20
1.4060873228346455
11
1.4609364566929133
21
1.4065988582677165
0
LINE
8
BLACK
6
CONTINUOUS
10
1.4609364566929133
20
1.4065988582677165
11
1.461081062992126
21
1.4069479133858267
0
LINE
8
BLACK
6
CONTINUOUS
10
1.461081062992126
20
1.4069479133858267
11
1.4611291732283465
21
1.4069960236220471
0
LINE
8
BLACK
6
CONTINUOUS
10
1.4611291732283465
20
1.4069960236220471
11
1.4627699212598424
21
1.4103774803149607
0
LINE
8
BLACK
6
CONTINUOUS
10
1.4627699212598424
20
1.4103774803149607
11
1.4629259842519684
21
1.4106254724409448
0
LINE
8
BLACK
6
CONTINUOUS
10
1.4629259842519684
20
1.4106254724409448
11
1.4629558267716536
21
1.4106974409448818
0
LINE
8
BLACK
6
CONTINUOUS
10
1.4629558267716536
20
1.4106974409448818
11
1.4630003149606299
21
1.4107435039370078
0
LINE
8
BLACK
6
CONTINUOUS
10
1.4630003149606299
20
1.4107435039370078
11
1.4630782677165355
21
1.4108673622047243
0
LINE
8
BLACK
6
CONTINUOUS
10
1.4630782677165355
20
1.4108673622047243
11
1.463333937007874
21
1.4110890944881889
0
LINE
8
BLACK
6
CONTINUOUS
10
1.463333937007874
20
1.4110890944881889
11
1.4651977952755906
21
1.4130196456692914
0
LINE
8
BLACK
6
CONTINUOUS
10
1.4651977952755906
20
1.4130196456692914
11
1.4654241338582676
21
1.4132053937007873
0
LINE
8
BLACK
6
CONTINUOUS
10
1.4654241338582676
20
1.4132053937007873
11
1.4654753149606299
21
1.4132644094488189
0
LINE
8
BLACK
6
CONTINUOUS
10
1.4654753149606299
20
1.4132644094488189
11
1.4655309448818898
21
1.413293031496063
0
LINE
8
BLACK
6
CONTINUOUS
10
1.4655309448818898
20
1.413293031496063
11
1.4656452362204724
21
1.4133868503937008
0
LINE
8
BLACK
6
CONTINUOUS
10
1.4656452362204724
20
1.4133868503937008
11
1.4659920866141731
21
1.4135305118110235
0
LINE
8
BLACK
6
CONTINUOUS
10
1.4659920866141731
20
1.4135305118110235
11
1.4697147244094488
21
1.4154475196850393
0
LINE
8
BLACK
6
CONTINUOUS
10
1.4697147244094488
20
1.4154475196850393
11
1.4697568110236221
21
1.4154636220472441
0
LINE
8
BLACK
6
CONTINUOUS
10
1.4697568110236221
20
1.4154636220472441
11
1.4697739763779527
21
1.4154763385826772
0
LINE
8
BLACK
6
CONTINUOUS
10
1.4697739763779527
20
1.4154763385826772
11
1.4698229133858267
21
1.4154888976377953
0
LINE
8
BLACK
6
CONTINUOUS
10
1.4698229133858267
20
1.4154888976377953
11
1.4702553149606299
21
1.4156544094488188
0
LINE
8
BLACK
6
CONTINUOUS
10
1.4702553149606299
20
1.4156544094488188
11
1.4705465354330709
21
1.4156750787401575
0
LINE
8
BLACK
6
CONTINUOUS
10
1.4705465354330709
20
1.4156750787401575
11
1.4778181496062992
21
1.4175458661417322
0
LINE
8
BLACK
6
CONTINUOUS
10
1.4778181496062992
20
1.4175458661417322
11
1.4779179921259842
21
1.4175606299212598
0
LINE
8
BLACK
6
CONTINUOUS
10
1.4779179921259842
20
1.4175606299212598
11
1.4779582283464567
21
1.4175772834645668
0
LINE
8
BLACK
6
CONTINUOUS
10
1.4779582283464567
20
1.4175772834645668
11
1.4780335826771653
21
1.4175776771653543
0
LINE
8
BLACK
6
CONTINUOUS
10
1.4780335826771653
20
1.4175776771653543
11
1.4783907480314959
21
1.4176305118110235
0
LINE
8
BLACK
6
CONTINUOUS
10
1.4783907480314959
20
1.4176305118110235
11
1.4787192913385827
21
1.4175816141732283
0
LINE
8
BLACK
6
CONTINUOUS
10
1.4787192913385827
20
1.4175816141732283
11
1.4879081102362204
21
1.4176340157480314
0
LINE
8
BLACK
6
CONTINUOUS
10
1.4879081102362204
20
1.4176340157480314
11
1.4880086220472442
21
1.417624094488189
0
LINE
8
BLACK
6
CONTINUOUS
10
1.4786995275590551
20
1.4117294094488189
11
1.4718738582677164
21
1.4099733858267716
0
LINE
8
BLACK
6
CONTINUOUS
10
1.4718738582677164
20
1.4099733858267716
11
1.4689415354330708
21
1.4084633858267717
0
LINE
8
BLACK
6
CONTINUOUS
10
1.4689415354330708
20
1.4084633858267717
11
1.4677508267716535
21
1.4072300393700787
0
LINE
8
BLACK
6
CONTINUOUS
10
1.4677508267716535
20
1.4072300393700787
11
1.46644968503937
21
1.4045485433070866
0
LINE
8
BLACK
6
CONTINUOUS
10
1.46644968503937
20
1.4045485433070866
11
1.4664807480314961
21
1.40218
0
LINE
8
BLACK
6
CONTINUOUS
10
1.4664807480314961
20
1.40218
11
1.467879251968504
21
1.3994642125984251
0
LINE
8
BLACK
6
CONTINUOUS
10
1.467879251968504
20
1.3994642125984251
11
1.4691126377952755
21
1.398273464566929
0
LINE
8
BLACK
6
CONTINUOUS
10
1.4691126377952755
20
1.398273464566929
11
1.472262874015748
21
1.3967449212598424
0
LINE
8
BLACK
6
CONTINUOUS
10
1.472262874015748
20
1.3967449212598424
11
1.4790942913385827
21
1.3950865748031496
0
LINE
8
BLACK
6
CONTINUOUS
10
1.4790942913385827
20
1.3950865748031496
11
1.4877428346456694
21
1.3951359055118109
0
LINE
8
BLACK
6
CONTINUOUS
10
1.4877428346456694
20
1.3951359055118109
11
1.4945685039370078
21
1.3968919291338582
0
LINE
8
BLACK
6
CONTINUOUS
10
1.4945685039370078
20
1.3968919291338582
11
1.4975008267716534
21
1.3984019685039371
0
LINE
8
BLACK
6
CONTINUOUS
10
1.4975008267716534
20
1.3984019685039371
11
1.4986916141732283
21
1.39963531496063
0
LINE
8
BLACK
6
CONTINUOUS
10
1.4986916141732283
20
1.39963531496063
11
1.499992716535433
21
1.4023167716535432
0
LINE
8
BLACK
6
CONTINUOUS
10
1.499992716535433
20
1.4023167716535432
11
1.4999616535433071
21
1.40468531496063
0
LINE
8
BLACK
6
CONTINUOUS
10
1.4999616535433071
20
1.40468531496063
11
1.4985631496062992
21
1.4074010629921259
0
LINE
8
BLACK
6
CONTINUOUS
10
1.4985631496062992
20
1.4074010629921259
11
1.4973297637795275
21
1.408591811023622
0
LINE
8
BLACK
6
CONTINUOUS
10
1.4973297637795275
20
1.408591811023622
11
1.4941794881889763
21
1.4101203937007873
0
LINE
8
BLACK
6
CONTINUOUS
10
1.4941794881889763
20
1.4101203937007873
11
1.4873480708661417
21
1.4117787401574802
0
LINE
8
BLACK
6
CONTINUOUS
10
1.4873480708661417
20
1.4117787401574802
11
1.4786995275590551
21
1.4117294094488189
  0
ENDSEC
  0
EOF
