  0
SECTION
  2
HEADER
  9
$ANGBASE
  50
0.0
  9
$ANGDIR
  70
1
  9
$MEASUREMENT
  70
0
  0
ENDSEC
  0
SECTION
  2
TABLES
  0
TABLE
  2
LTYPE
  70
4
  0
LTYPE
  5
40F
  2
CONTINUOUS
  70
0
  3
Solid line
  72
65
  73
0
  40
0.0
  0
LTYPE
  5
410
  2
DASHDOT
 70
0
  3
Dash Dot ____ _ ____ _
 72
65
 73
4
 40
2.0
 49
1.25
 49
-0.25
 49
0.25
 49
-0.25
  0
LTYPE
  5
411
  2
DASHED
 70
0
  3
Dashed __ __ __ __ __
 72
65
 73
2
 40
0.75
 49
0.5
 49
-0.25
  0
LTYPE
  5
43B
  2
DOTTED
 70
0
  3
Dotted .  .  .  .
 72
65
 73
2
 40
0.2
 49
0.0
 49
-0.2
  0
ENDTAB
  0
TABLE
  2
STYLE
  70
4
  0
STYLE
  2
KICAD
  70
0
  40
0
  41
1
  42
1
  50
0
  71
0
  3
isocp.shx
  0
STYLE
  2
KICADB
  70
0
  40
0
  41
1
  42
1
  50
0
  71
0
  3
isocp.shx
  0
STYLE
  2
KICADI
  70
0
  40
0
  41
1
  42
1
  50
15
  71
0
  3
isocp.shx
  0
STYLE
  2
KICADBI
  70
0
  40
0
  41
1
  42
1
  50
15
  71
0
  3
isocp.shx
  0
ENDTAB
  0
TABLE
  2
LAYER
  70
1
  0
LAYER
  2
BLACK
  70
0
  62
7
  6
CONTINUOUS
  0
ENDTAB
  0
ENDSEC
  0
SECTION
  2
ENTITIES
0
LINE
8
BLACK
6
CONTINUOUS
10
2.77753
20
0.810761
11
2.77724
21
0.811457
0
LINE
8
BLACK
6
CONTINUOUS
10
2.77724
20
0.811457
11
2.77724
21
1.11854
0
LINE
8
BLACK
6
CONTINUOUS
10
2.77724
20
1.11854
11
2.77753
21
1.11924
0
LINE
8
BLACK
6
CONTINUOUS
10
2.77753
20
1.11924
11
2.77823
21
1.11953
0
LINE
8
BLACK
6
CONTINUOUS
10
2.77823
20
1.11953
11
2.93177
21
1.11953
0
LINE
8
BLACK
6
CONTINUOUS
10
2.93177
20
1.11953
11
2.93247
21
1.11924
0
LINE
8
BLACK
6
CONTINUOUS
10
2.93247
20
1.11924
11
2.93276
21
1.11854
0
LINE
8
BLACK
6
CONTINUOUS
10
2.93276
20
1.11854
11
2.93276
21
0.811457
0
LINE
8
BLACK
6
CONTINUOUS
10
2.93276
20
0.811457
11
2.93247
21
0.810761
0
LINE
8
BLACK
6
CONTINUOUS
10
2.93247
20
0.810761
11
2.93177
21
0.810472
0
LINE
8
BLACK
6
CONTINUOUS
10
2.93177
20
0.810472
11
2.77823
21
0.810472
0
LINE
8
BLACK
6
CONTINUOUS
10
2.77823
20
0.810472
11
2.77753
21
0.810761
0
LINE
8
BLACK
6
CONTINUOUS
10
2.77921
20
1.11756
11
2.77921
21
0.812441
0
LINE
8
BLACK
6
CONTINUOUS
10
2.77921
20
0.812441
11
2.93079
21
0.812441
0
LINE
8
BLACK
6
CONTINUOUS
10
2.93079
20
0.812441
11
2.93079
21
1.11756
0
LINE
8
BLACK
6
CONTINUOUS
10
2.93079
20
1.11756
11
2.77921
21
1.11756
0
LINE
8
BLACK
6
CONTINUOUS
10
2.07879
20
0.869068
11
2.0785
21
0.869764
0
LINE
8
BLACK
6
CONTINUOUS
10
2.0785
20
0.869764
11
2.0785
21
1.09024
0
LINE
8
BLACK
6
CONTINUOUS
10
2.0785
20
1.09024
11
2.07879
21
1.09093
0
LINE
8
BLACK
6
CONTINUOUS
10
2.07879
20
1.09093
11
2.07949
21
1.09122
0
LINE
8
BLACK
6
CONTINUOUS
10
2.07949
20
1.09122
11
2.39051
21
1.09122
0
LINE
8
BLACK
6
CONTINUOUS
10
2.39051
20
1.09122
11
2.39121
21
1.09093
0
LINE
8
BLACK
6
CONTINUOUS
10
2.39121
20
1.09093
11
2.3915
21
1.09024
0
LINE
8
BLACK
6
CONTINUOUS
10
2.3915
20
1.09024
11
2.3915
21
0.869764
0
LINE
8
BLACK
6
CONTINUOUS
10
2.3915
20
0.869764
11
2.39121
21
0.869068
0
LINE
8
BLACK
6
CONTINUOUS
10
2.39121
20
0.869068
11
2.39051
21
0.86878
0
LINE
8
BLACK
6
CONTINUOUS
10
2.39051
20
0.86878
11
2.07949
21
0.86878
0
LINE
8
BLACK
6
CONTINUOUS
10
2.07949
20
0.86878
11
2.07879
21
0.869068
0
LINE
8
BLACK
6
CONTINUOUS
10
2.08047
20
1.08925
11
2.08047
21
0.870748
0
LINE
8
BLACK
6
CONTINUOUS
10
2.08047
20
0.870748
11
2.38953
21
0.870748
0
LINE
8
BLACK
6
CONTINUOUS
10
2.38953
20
0.870748
11
2.38953
21
1.08925
0
LINE
8
BLACK
6
CONTINUOUS
10
2.38953
20
1.08925
11
2.08047
21
1.08925
0
LINE
8
BLACK
6
CONTINUOUS
10
1.37753
20
1.20076
11
1.37724
21
1.20146
0
LINE
8
BLACK
6
CONTINUOUS
10
1.37724
20
1.20146
11
1.37724
21
1.50854
0
LINE
8
BLACK
6
CONTINUOUS
10
1.37724
20
1.50854
11
1.37753
21
1.50924
0
LINE
8
BLACK
6
CONTINUOUS
10
1.37753
20
1.50924
11
1.37823
21
1.50953
0
LINE
8
BLACK
6
CONTINUOUS
10
1.37823
20
1.50953
11
1.53177
21
1.50953
0
LINE
8
BLACK
6
CONTINUOUS
10
1.53177
20
1.50953
11
1.53247
21
1.50924
0
LINE
8
BLACK
6
CONTINUOUS
10
1.53247
20
1.50924
11
1.53276
21
1.50854
0
LINE
8
BLACK
6
CONTINUOUS
10
1.53276
20
1.50854
11
1.53276
21
1.20146
0
LINE
8
BLACK
6
CONTINUOUS
10
1.53276
20
1.20146
11
1.53247
21
1.20076
0
LINE
8
BLACK
6
CONTINUOUS
10
1.53247
20
1.20076
11
1.53177
21
1.20047
0
LINE
8
BLACK
6
CONTINUOUS
10
1.53177
20
1.20047
11
1.37823
21
1.20047
0
LINE
8
BLACK
6
CONTINUOUS
10
1.37823
20
1.20047
11
1.37753
21
1.20076
0
LINE
8
BLACK
6
CONTINUOUS
10
1.37921
20
1.50756
11
1.37921
21
1.20244
0
LINE
8
BLACK
6
CONTINUOUS
10
1.37921
20
1.20244
11
1.53079
21
1.20244
0
LINE
8
BLACK
6
CONTINUOUS
10
1.53079
20
1.20244
11
1.53079
21
1.50756
0
LINE
8
BLACK
6
CONTINUOUS
10
1.53079
20
1.50756
11
1.37921
21
1.50756
  0
ENDSEC
  0
EOF
