  0
SECTION
  2
HEADER
  9
$ANGBASE
  50
0.0
  9
$ANGDIR
  70
1
  9
$MEASUREMENT
  70
0
  0
ENDSEC
  0
SECTION
  2
TABLES
  0
TABLE
  2
LTYPE
  70
4
  0
LTYPE
  5
40F
  2
CONTINUOUS
  70
0
  3
Solid line
  72
65
  73
0
  40
0.0
  0
LTYPE
  5
410
  2
DASHDOT
 70
0
  3
Dash Dot ____ _ ____ _
 72
65
 73
4
 40
2.0
 49
1.25
 49
-0.25
 49
0.25
 49
-0.25
  0
LTYPE
  5
411
  2
DASHED
 70
0
  3
Dashed __ __ __ __ __
 72
65
 73
2
 40
0.75
 49
0.5
 49
-0.25
  0
LTYPE
  5
43B
  2
DOTTED
 70
0
  3
Dotted .  .  .  .
 72
65
 73
2
 40
0.2
 49
0.0
 49
-0.2
  0
ENDTAB
  0
TABLE
  2
STYLE
  70
4
  0
STYLE
  2
KICAD
  70
0
  40
0
  41
1
  42
1
  50
0
  71
0
  3
isocp.shx
  0
STYLE
  2
KICADB
  70
0
  40
0
  41
1
  42
1
  50
0
  71
0
  3
isocp.shx
  0
STYLE
  2
KICADI
  70
0
  40
0
  41
1
  42
1
  50
15
  71
0
  3
isocp.shx
  0
STYLE
  2
KICADBI
  70
0
  40
0
  41
1
  42
1
  50
15
  71
0
  3
isocp.shx
  0
ENDTAB
  0
TABLE
  2
LAYER
  70
1
  0
LAYER
  2
BLACK
  70
0
  62
7
  6
CONTINUOUS
  0
ENDTAB
  0
ENDSEC
  0
SECTION
  2
ENTITIES
0
LINE
8
BLACK
6
CONTINUOUS
10
1.7045275590551181
20
0.0755905511811024
11
1.6454724409448818
21
0.0755905511811024
0
LINE
8
BLACK
6
CONTINUOUS
10
1.6454724409448818
20
0.0755905511811024
11
1.6454724409448818
21
0.1169291338582677
0
LINE
8
BLACK
6
CONTINUOUS
10
1.6454724409448818
20
0.1169291338582677
11
1.7045275590551181
21
0.1169291338582677
0
LINE
8
BLACK
6
CONTINUOUS
10
1.7045275590551181
20
0.1169291338582677
11
1.7045275590551181
21
0.0755905511811024
0
LINE
8
BLACK
6
CONTINUOUS
10
1.8095275590551181
20
0.0755905511811024
11
1.7504724409448817
21
0.0755905511811024
0
LINE
8
BLACK
6
CONTINUOUS
10
1.7504724409448817
20
0.0755905511811024
11
1.7504724409448817
21
0.1169291338582677
0
LINE
8
BLACK
6
CONTINUOUS
10
1.7504724409448817
20
0.1169291338582677
11
1.8095275590551181
21
0.1169291338582677
0
LINE
8
BLACK
6
CONTINUOUS
10
1.8095275590551181
20
0.1169291338582677
11
1.8095275590551181
21
0.0755905511811024
0
LINE
8
BLACK
6
CONTINUOUS
10
1.9145275590551181
20
0.0755905511811024
11
1.855472440944882
21
0.0755905511811024
0
LINE
8
BLACK
6
CONTINUOUS
10
1.855472440944882
20
0.0755905511811024
11
1.855472440944882
21
0.1169291338582677
0
LINE
8
BLACK
6
CONTINUOUS
10
1.855472440944882
20
0.1169291338582677
11
1.9145275590551181
21
0.1169291338582677
0
LINE
8
BLACK
6
CONTINUOUS
10
1.9145275590551181
20
0.1169291338582677
11
1.9145275590551181
21
0.0755905511811024
0
LINE
8
BLACK
6
CONTINUOUS
10
2.0195275590551183
20
0.0755905511811024
11
1.9604724409448819
21
0.0755905511811024
0
LINE
8
BLACK
6
CONTINUOUS
10
1.9604724409448819
20
0.0755905511811024
11
1.9604724409448819
21
0.1169291338582677
0
LINE
8
BLACK
6
CONTINUOUS
10
1.9604724409448819
20
0.1169291338582677
11
2.0195275590551183
21
0.1169291338582677
0
LINE
8
BLACK
6
CONTINUOUS
10
2.0195275590551183
20
0.1169291338582677
11
2.0195275590551183
21
0.0755905511811024
0
LINE
8
BLACK
6
CONTINUOUS
10
2.1245275590551183
20
0.0755905511811024
11
2.0654724409448817
21
0.0755905511811024
0
LINE
8
BLACK
6
CONTINUOUS
10
2.0654724409448817
20
0.0755905511811024
11
2.0654724409448817
21
0.1169291338582677
0
LINE
8
BLACK
6
CONTINUOUS
10
2.0654724409448817
20
0.1169291338582677
11
2.1245275590551183
21
0.1169291338582677
0
LINE
8
BLACK
6
CONTINUOUS
10
2.1245275590551183
20
0.1169291338582677
11
2.1245275590551183
21
0.0755905511811024
0
LINE
8
BLACK
6
CONTINUOUS
10
2.2295275590551182
20
0.0755905511811024
11
2.1704724409448817
21
0.0755905511811024
0
LINE
8
BLACK
6
CONTINUOUS
10
2.1704724409448817
20
0.0755905511811024
11
2.1704724409448817
21
0.1169291338582677
0
LINE
8
BLACK
6
CONTINUOUS
10
2.1704724409448817
20
0.1169291338582677
11
2.2295275590551182
21
0.1169291338582677
0
LINE
8
BLACK
6
CONTINUOUS
10
2.2295275590551182
20
0.1169291338582677
11
2.2295275590551182
21
0.0755905511811024
0
LINE
8
BLACK
6
CONTINUOUS
10
2.3345275590551182
20
0.0755905511811024
11
2.2754724409448817
21
0.0755905511811024
0
LINE
8
BLACK
6
CONTINUOUS
10
2.2754724409448817
20
0.0755905511811024
11
2.2754724409448817
21
0.1169291338582677
0
LINE
8
BLACK
6
CONTINUOUS
10
2.2754724409448817
20
0.1169291338582677
11
2.3345275590551182
21
0.1169291338582677
0
LINE
8
BLACK
6
CONTINUOUS
10
2.3345275590551182
20
0.1169291338582677
11
2.3345275590551182
21
0.0755905511811024
0
LINE
8
BLACK
6
CONTINUOUS
10
2.4395275590551182
20
0.0755905511811024
11
2.3804724409448816
21
0.0755905511811024
0
LINE
8
BLACK
6
CONTINUOUS
10
2.3804724409448816
20
0.0755905511811024
11
2.3804724409448816
21
0.1169291338582677
0
LINE
8
BLACK
6
CONTINUOUS
10
2.3804724409448816
20
0.1169291338582677
11
2.4395275590551182
21
0.1169291338582677
0
LINE
8
BLACK
6
CONTINUOUS
10
2.4395275590551182
20
0.1169291338582677
11
2.4395275590551182
21
0.0755905511811024
0
LINE
8
BLACK
6
CONTINUOUS
10
1.7045275590551181
20
0.2330708661417323
11
1.6454724409448818
21
0.2330708661417323
0
LINE
8
BLACK
6
CONTINUOUS
10
1.6454724409448818
20
0.2330708661417323
11
1.6454724409448818
21
0.2744094488188976
0
LINE
8
BLACK
6
CONTINUOUS
10
1.6454724409448818
20
0.2744094488188976
11
1.7045275590551181
21
0.2744094488188976
0
LINE
8
BLACK
6
CONTINUOUS
10
1.7045275590551181
20
0.2744094488188976
11
1.7045275590551181
21
0.2330708661417323
0
LINE
8
BLACK
6
CONTINUOUS
10
1.8095275590551181
20
0.2330708661417323
11
1.7504724409448817
21
0.2330708661417323
0
LINE
8
BLACK
6
CONTINUOUS
10
1.7504724409448817
20
0.2330708661417323
11
1.7504724409448817
21
0.2744094488188976
0
LINE
8
BLACK
6
CONTINUOUS
10
1.7504724409448817
20
0.2744094488188976
11
1.8095275590551181
21
0.2744094488188976
0
LINE
8
BLACK
6
CONTINUOUS
10
1.8095275590551181
20
0.2744094488188976
11
1.8095275590551181
21
0.2330708661417323
0
LINE
8
BLACK
6
CONTINUOUS
10
1.9145275590551181
20
0.2330708661417323
11
1.855472440944882
21
0.2330708661417323
0
LINE
8
BLACK
6
CONTINUOUS
10
1.855472440944882
20
0.2330708661417323
11
1.855472440944882
21
0.2744094488188976
0
LINE
8
BLACK
6
CONTINUOUS
10
1.855472440944882
20
0.2744094488188976
11
1.9145275590551181
21
0.2744094488188976
0
LINE
8
BLACK
6
CONTINUOUS
10
1.9145275590551181
20
0.2744094488188976
11
1.9145275590551181
21
0.2330708661417323
0
LINE
8
BLACK
6
CONTINUOUS
10
2.0195275590551183
20
0.2330708661417323
11
1.9604724409448819
21
0.2330708661417323
0
LINE
8
BLACK
6
CONTINUOUS
10
1.9604724409448819
20
0.2330708661417323
11
1.9604724409448819
21
0.2744094488188976
0
LINE
8
BLACK
6
CONTINUOUS
10
1.9604724409448819
20
0.2744094488188976
11
2.0195275590551183
21
0.2744094488188976
0
LINE
8
BLACK
6
CONTINUOUS
10
2.0195275590551183
20
0.2744094488188976
11
2.0195275590551183
21
0.2330708661417323
0
LINE
8
BLACK
6
CONTINUOUS
10
2.1245275590551183
20
0.2330708661417323
11
2.0654724409448817
21
0.2330708661417323
0
LINE
8
BLACK
6
CONTINUOUS
10
2.0654724409448817
20
0.2330708661417323
11
2.0654724409448817
21
0.2744094488188976
0
LINE
8
BLACK
6
CONTINUOUS
10
2.0654724409448817
20
0.2744094488188976
11
2.1245275590551183
21
0.2744094488188976
0
LINE
8
BLACK
6
CONTINUOUS
10
2.1245275590551183
20
0.2744094488188976
11
2.1245275590551183
21
0.2330708661417323
0
LINE
8
BLACK
6
CONTINUOUS
10
2.2295275590551182
20
0.2330708661417323
11
2.1704724409448817
21
0.2330708661417323
0
LINE
8
BLACK
6
CONTINUOUS
10
2.1704724409448817
20
0.2330708661417323
11
2.1704724409448817
21
0.2744094488188976
0
LINE
8
BLACK
6
CONTINUOUS
10
2.1704724409448817
20
0.2744094488188976
11
2.2295275590551182
21
0.2744094488188976
0
LINE
8
BLACK
6
CONTINUOUS
10
2.2295275590551182
20
0.2744094488188976
11
2.2295275590551182
21
0.2330708661417323
0
LINE
8
BLACK
6
CONTINUOUS
10
2.3345275590551182
20
0.2330708661417323
11
2.2754724409448817
21
0.2330708661417323
0
LINE
8
BLACK
6
CONTINUOUS
10
2.2754724409448817
20
0.2330708661417323
11
2.2754724409448817
21
0.2744094488188976
0
LINE
8
BLACK
6
CONTINUOUS
10
2.2754724409448817
20
0.2744094488188976
11
2.3345275590551182
21
0.2744094488188976
0
LINE
8
BLACK
6
CONTINUOUS
10
2.3345275590551182
20
0.2744094488188976
11
2.3345275590551182
21
0.2330708661417323
0
LINE
8
BLACK
6
CONTINUOUS
10
2.4395275590551182
20
0.2330708661417323
11
2.3804724409448816
21
0.2330708661417323
0
LINE
8
BLACK
6
CONTINUOUS
10
2.3804724409448816
20
0.2330708661417323
11
2.3804724409448816
21
0.2744094488188976
0
LINE
8
BLACK
6
CONTINUOUS
10
2.3804724409448816
20
0.2744094488188976
11
2.4395275590551182
21
0.2744094488188976
0
LINE
8
BLACK
6
CONTINUOUS
10
2.4395275590551182
20
0.2744094488188976
11
2.4395275590551182
21
0.2330708661417323
0
LINE
8
BLACK
6
CONTINUOUS
10
1.7024999999999999
20
0.325
11
1.6475
21
0.325
0
LINE
8
BLACK
6
CONTINUOUS
10
1.6475
20
0.325
11
1.6475
21
0.36
0
LINE
8
BLACK
6
CONTINUOUS
10
1.6475
20
0.36
11
1.7024999999999999
21
0.36
0
LINE
8
BLACK
6
CONTINUOUS
10
1.7024999999999999
20
0.36
11
1.7024999999999999
21
0.325
0
LINE
8
BLACK
6
CONTINUOUS
10
1.8074999999999999
20
0.325
11
1.7524999999999999
21
0.325
0
LINE
8
BLACK
6
CONTINUOUS
10
1.7524999999999999
20
0.325
11
1.7524999999999999
21
0.36
0
LINE
8
BLACK
6
CONTINUOUS
10
1.7524999999999999
20
0.36
11
1.8074999999999999
21
0.36
0
LINE
8
BLACK
6
CONTINUOUS
10
1.8074999999999999
20
0.36
11
1.8074999999999999
21
0.325
0
LINE
8
BLACK
6
CONTINUOUS
10
1.9124999999999999
20
0.325
11
1.8574999999999999
21
0.325
0
LINE
8
BLACK
6
CONTINUOUS
10
1.8574999999999999
20
0.325
11
1.8574999999999999
21
0.36
0
LINE
8
BLACK
6
CONTINUOUS
10
1.8574999999999999
20
0.36
11
1.9124999999999999
21
0.36
0
LINE
8
BLACK
6
CONTINUOUS
10
1.9124999999999999
20
0.36
11
1.9124999999999999
21
0.325
0
LINE
8
BLACK
6
CONTINUOUS
10
2.0175000000000001
20
0.325
11
1.9624999999999999
21
0.325
0
LINE
8
BLACK
6
CONTINUOUS
10
1.9624999999999999
20
0.325
11
1.9624999999999999
21
0.36
0
LINE
8
BLACK
6
CONTINUOUS
10
1.9624999999999999
20
0.36
11
2.0175000000000001
21
0.36
0
LINE
8
BLACK
6
CONTINUOUS
10
2.0175000000000001
20
0.36
11
2.0175000000000001
21
0.325
0
LINE
8
BLACK
6
CONTINUOUS
10
2.1225000000000001
20
0.325
11
2.0674999999999999
21
0.325
0
LINE
8
BLACK
6
CONTINUOUS
10
2.0674999999999999
20
0.325
11
2.0674999999999999
21
0.36
0
LINE
8
BLACK
6
CONTINUOUS
10
2.0674999999999999
20
0.36
11
2.1225000000000001
21
0.36
0
LINE
8
BLACK
6
CONTINUOUS
10
2.1225000000000001
20
0.36
11
2.1225000000000001
21
0.325
0
LINE
8
BLACK
6
CONTINUOUS
10
2.2275
20
0.325
11
2.1724999999999999
21
0.325
0
LINE
8
BLACK
6
CONTINUOUS
10
2.1724999999999999
20
0.325
11
2.1724999999999999
21
0.36
0
LINE
8
BLACK
6
CONTINUOUS
10
2.1724999999999999
20
0.36
11
2.2275
21
0.36
0
LINE
8
BLACK
6
CONTINUOUS
10
2.2275
20
0.36
11
2.2275
21
0.325
0
LINE
8
BLACK
6
CONTINUOUS
10
2.3325
20
0.325
11
2.2774999999999999
21
0.325
0
LINE
8
BLACK
6
CONTINUOUS
10
2.2774999999999999
20
0.325
11
2.2774999999999999
21
0.36
0
LINE
8
BLACK
6
CONTINUOUS
10
2.2774999999999999
20
0.36
11
2.3325
21
0.36
0
LINE
8
BLACK
6
CONTINUOUS
10
2.3325
20
0.36
11
2.3325
21
0.325
0
LINE
8
BLACK
6
CONTINUOUS
10
2.4375
20
0.325
11
2.3824999999999998
21
0.325
0
LINE
8
BLACK
6
CONTINUOUS
10
2.3824999999999998
20
0.325
11
2.3824999999999998
21
0.36
0
LINE
8
BLACK
6
CONTINUOUS
10
2.3824999999999998
20
0.36
11
2.4375
21
0.36
0
LINE
8
BLACK
6
CONTINUOUS
10
2.4375
20
0.36
11
2.4375
21
0.325
0
LINE
8
BLACK
6
CONTINUOUS
10
1.7024999999999999
20
0.4
11
1.6475
21
0.4
0
LINE
8
BLACK
6
CONTINUOUS
10
1.6475
20
0.4
11
1.6475
21
0.435
0
LINE
8
BLACK
6
CONTINUOUS
10
1.6475
20
0.435
11
1.7024999999999999
21
0.435
0
LINE
8
BLACK
6
CONTINUOUS
10
1.7024999999999999
20
0.435
11
1.7024999999999999
21
0.4
0
LINE
8
BLACK
6
CONTINUOUS
10
1.8074999999999999
20
0.4
11
1.7524999999999999
21
0.4
0
LINE
8
BLACK
6
CONTINUOUS
10
1.7524999999999999
20
0.4
11
1.7524999999999999
21
0.435
0
LINE
8
BLACK
6
CONTINUOUS
10
1.7524999999999999
20
0.435
11
1.8074999999999999
21
0.435
0
LINE
8
BLACK
6
CONTINUOUS
10
1.8074999999999999
20
0.435
11
1.8074999999999999
21
0.4
0
LINE
8
BLACK
6
CONTINUOUS
10
1.9124999999999999
20
0.4
11
1.8574999999999999
21
0.4
0
LINE
8
BLACK
6
CONTINUOUS
10
1.8574999999999999
20
0.4
11
1.8574999999999999
21
0.435
0
LINE
8
BLACK
6
CONTINUOUS
10
1.8574999999999999
20
0.435
11
1.9124999999999999
21
0.435
0
LINE
8
BLACK
6
CONTINUOUS
10
1.9124999999999999
20
0.435
11
1.9124999999999999
21
0.4
0
LINE
8
BLACK
6
CONTINUOUS
10
2.0175000000000001
20
0.4
11
1.9624999999999999
21
0.4
0
LINE
8
BLACK
6
CONTINUOUS
10
1.9624999999999999
20
0.4
11
1.9624999999999999
21
0.435
0
LINE
8
BLACK
6
CONTINUOUS
10
1.9624999999999999
20
0.435
11
2.0175000000000001
21
0.435
0
LINE
8
BLACK
6
CONTINUOUS
10
2.0175000000000001
20
0.435
11
2.0175000000000001
21
0.4
0
LINE
8
BLACK
6
CONTINUOUS
10
2.1225000000000001
20
0.4
11
2.0674999999999999
21
0.4
0
LINE
8
BLACK
6
CONTINUOUS
10
2.0674999999999999
20
0.4
11
2.0674999999999999
21
0.435
0
LINE
8
BLACK
6
CONTINUOUS
10
2.0674999999999999
20
0.435
11
2.1225000000000001
21
0.435
0
LINE
8
BLACK
6
CONTINUOUS
10
2.1225000000000001
20
0.435
11
2.1225000000000001
21
0.4
0
LINE
8
BLACK
6
CONTINUOUS
10
2.2275
20
0.4
11
2.1724999999999999
21
0.4
0
LINE
8
BLACK
6
CONTINUOUS
10
2.1724999999999999
20
0.4
11
2.1724999999999999
21
0.435
0
LINE
8
BLACK
6
CONTINUOUS
10
2.1724999999999999
20
0.435
11
2.2275
21
0.435
0
LINE
8
BLACK
6
CONTINUOUS
10
2.2275
20
0.435
11
2.2275
21
0.4
0
LINE
8
BLACK
6
CONTINUOUS
10
2.3325
20
0.4
11
2.2774999999999999
21
0.4
0
LINE
8
BLACK
6
CONTINUOUS
10
2.2774999999999999
20
0.4
11
2.2774999999999999
21
0.435
0
LINE
8
BLACK
6
CONTINUOUS
10
2.2774999999999999
20
0.435
11
2.3325
21
0.435
0
LINE
8
BLACK
6
CONTINUOUS
10
2.3325
20
0.435
11
2.3325
21
0.4
0
LINE
8
BLACK
6
CONTINUOUS
10
2.4375
20
0.4
11
2.3824999999999998
21
0.4
0
LINE
8
BLACK
6
CONTINUOUS
10
2.3824999999999998
20
0.4
11
2.3824999999999998
21
0.435
0
LINE
8
BLACK
6
CONTINUOUS
10
2.3824999999999998
20
0.435
11
2.4375
21
0.435
0
LINE
8
BLACK
6
CONTINUOUS
10
2.4375
20
0.435
11
2.4375
21
0.4
0
LINE
8
BLACK
6
CONTINUOUS
10
1.9435662992125984
20
0.5218973228346456
11
1.9465922047244093
21
0.5210865354330708
0
LINE
8
BLACK
6
CONTINUOUS
10
1.9465922047244093
20
0.5210865354330708
11
1.9493051181102361
21
0.5195202362204724
0
LINE
8
BLACK
6
CONTINUOUS
10
1.9493051181102361
20
0.5195202362204724
11
1.9515202362204724
21
0.5173051181102362
0
LINE
8
BLACK
6
CONTINUOUS
10
1.9515202362204724
20
0.5173051181102362
11
1.9530865354330709
21
0.5145922047244095
0
LINE
8
BLACK
6
CONTINUOUS
10
1.9530865354330709
20
0.5145922047244095
11
1.9538973228346457
21
0.5115662992125984
0
LINE
8
BLACK
6
CONTINUOUS
10
1.9538973228346457
20
0.5115662992125984
11
1.9538973228346457
21
0.5084337007874016
0
LINE
8
BLACK
6
CONTINUOUS
10
1.9538973228346457
20
0.5084337007874016
11
1.9530865354330709
21
0.5054077952755905
0
LINE
8
BLACK
6
CONTINUOUS
10
1.9530865354330709
20
0.5054077952755905
11
1.9515202362204724
21
0.5026948818897637
0
LINE
8
BLACK
6
CONTINUOUS
10
1.9515202362204724
20
0.5026948818897637
11
1.9493051181102361
21
0.5004797637795275
0
LINE
8
BLACK
6
CONTINUOUS
10
1.9493051181102361
20
0.5004797637795275
11
1.9465922047244093
21
0.4989134645669291
0
LINE
8
BLACK
6
CONTINUOUS
10
1.9465922047244093
20
0.4989134645669291
11
1.9435662992125984
21
0.4981026771653543
0
LINE
8
BLACK
6
CONTINUOUS
10
1.9435662992125984
20
0.4981026771653543
11
1.9079999999999999
21
0.498
0
LINE
8
BLACK
6
CONTINUOUS
10
1.9079999999999999
20
0.498
11
1.9064337007874015
21
0.4981026771653543
0
LINE
8
BLACK
6
CONTINUOUS
10
1.9064337007874015
20
0.4981026771653543
11
1.9034077952755906
21
0.4989134645669291
0
LINE
8
BLACK
6
CONTINUOUS
10
1.9034077952755906
20
0.4989134645669291
11
1.9006948818897638
21
0.5004797637795275
0
LINE
8
BLACK
6
CONTINUOUS
10
1.9006948818897638
20
0.5004797637795275
11
1.8984797637795274
21
0.5026948818897637
0
LINE
8
BLACK
6
CONTINUOUS
10
1.8984797637795274
20
0.5026948818897637
11
1.896913464566929
21
0.5054077952755905
0
LINE
8
BLACK
6
CONTINUOUS
10
1.896913464566929
20
0.5054077952755905
11
1.8961026771653542
21
0.5084337007874016
0
LINE
8
BLACK
6
CONTINUOUS
10
1.8961026771653542
20
0.5084337007874016
11
1.8961026771653542
21
0.5115662992125984
0
LINE
8
BLACK
6
CONTINUOUS
10
1.8961026771653542
20
0.5115662992125984
11
1.896913464566929
21
0.5145922047244095
0
LINE
8
BLACK
6
CONTINUOUS
10
1.896913464566929
20
0.5145922047244095
11
1.8984797637795274
21
0.5173051181102362
0
LINE
8
BLACK
6
CONTINUOUS
10
1.8984797637795274
20
0.5173051181102362
11
1.9006948818897638
21
0.5195202362204724
0
LINE
8
BLACK
6
CONTINUOUS
10
1.9006948818897638
20
0.5195202362204724
11
1.9034077952755906
21
0.5210865354330708
0
LINE
8
BLACK
6
CONTINUOUS
10
1.9034077952755906
20
0.5210865354330708
11
1.9064337007874015
21
0.5218973228346456
0
LINE
8
BLACK
6
CONTINUOUS
10
1.9064337007874015
20
0.5218973228346456
11
1.9419999999999999
21
0.522
0
LINE
8
BLACK
6
CONTINUOUS
10
1.9419999999999999
20
0.522
11
1.9435662992125984
21
0.5218973228346456
0
LINE
8
BLACK
6
CONTINUOUS
10
2.1635662992125986
20
0.5218973228346456
11
2.1665922047244095
21
0.5210865354330708
0
LINE
8
BLACK
6
CONTINUOUS
10
2.1665922047244095
20
0.5210865354330708
11
2.1693051181102363
21
0.5195202362204724
0
LINE
8
BLACK
6
CONTINUOUS
10
2.1693051181102363
20
0.5195202362204724
11
2.1715202362204722
21
0.5173051181102362
0
LINE
8
BLACK
6
CONTINUOUS
10
2.1715202362204722
20
0.5173051181102362
11
2.1730865354330708
21
0.5145922047244095
0
LINE
8
BLACK
6
CONTINUOUS
10
2.1730865354330708
20
0.5145922047244095
11
2.1738973228346454
21
0.5115662992125984
0
LINE
8
BLACK
6
CONTINUOUS
10
2.1738973228346454
20
0.5115662992125984
11
2.1738973228346454
21
0.5084337007874016
0
LINE
8
BLACK
6
CONTINUOUS
10
2.1738973228346454
20
0.5084337007874016
11
2.1730865354330708
21
0.5054077952755905
0
LINE
8
BLACK
6
CONTINUOUS
10
2.1730865354330708
20
0.5054077952755905
11
2.1715202362204722
21
0.5026948818897637
0
LINE
8
BLACK
6
CONTINUOUS
10
2.1715202362204722
20
0.5026948818897637
11
2.1693051181102363
21
0.5004797637795275
0
LINE
8
BLACK
6
CONTINUOUS
10
2.1693051181102363
20
0.5004797637795275
11
2.1665922047244095
21
0.4989134645669291
0
LINE
8
BLACK
6
CONTINUOUS
10
2.1665922047244095
20
0.4989134645669291
11
2.1635662992125986
21
0.4981026771653543
0
LINE
8
BLACK
6
CONTINUOUS
10
2.1635662992125986
20
0.4981026771653543
11
2.1280000000000001
21
0.498
0
LINE
8
BLACK
6
CONTINUOUS
10
2.1280000000000001
20
0.498
11
2.1264337007874015
21
0.4981026771653543
0
LINE
8
BLACK
6
CONTINUOUS
10
2.1264337007874015
20
0.4981026771653543
11
2.1234077952755905
21
0.4989134645669291
0
LINE
8
BLACK
6
CONTINUOUS
10
2.1234077952755905
20
0.4989134645669291
11
2.1206948818897637
21
0.5004797637795275
0
LINE
8
BLACK
6
CONTINUOUS
10
2.1206948818897637
20
0.5004797637795275
11
2.1184797637795274
21
0.5026948818897637
0
LINE
8
BLACK
6
CONTINUOUS
10
2.1184797637795274
20
0.5026948818897637
11
2.1169134645669292
21
0.5054077952755905
0
LINE
8
BLACK
6
CONTINUOUS
10
2.1169134645669292
20
0.5054077952755905
11
2.1161026771653542
21
0.5084337007874016
0
LINE
8
BLACK
6
CONTINUOUS
10
2.1161026771653542
20
0.5084337007874016
11
2.1161026771653542
21
0.5115662992125984
0
LINE
8
BLACK
6
CONTINUOUS
10
2.1161026771653542
20
0.5115662992125984
11
2.1169134645669292
21
0.5145922047244095
0
LINE
8
BLACK
6
CONTINUOUS
10
2.1169134645669292
20
0.5145922047244095
11
2.1184797637795274
21
0.5173051181102362
0
LINE
8
BLACK
6
CONTINUOUS
10
2.1184797637795274
20
0.5173051181102362
11
2.1206948818897637
21
0.5195202362204724
0
LINE
8
BLACK
6
CONTINUOUS
10
2.1206948818897637
20
0.5195202362204724
11
2.1234077952755905
21
0.5210865354330708
0
LINE
8
BLACK
6
CONTINUOUS
10
2.1234077952755905
20
0.5210865354330708
11
2.1264337007874015
21
0.5218973228346456
0
LINE
8
BLACK
6
CONTINUOUS
10
2.1264337007874015
20
0.5218973228346456
11
2.1619999999999999
21
0.522
0
LINE
8
BLACK
6
CONTINUOUS
10
2.1619999999999999
20
0.522
11
2.1635662992125986
21
0.5218973228346456
0
LINE
8
BLACK
6
CONTINUOUS
10
2.8424999999999998
20
0.51
11
2.7875000000000001
21
0.51
0
LINE
8
BLACK
6
CONTINUOUS
10
2.7875000000000001
20
0.51
11
2.7875000000000001
21
0.545
0
LINE
8
BLACK
6
CONTINUOUS
10
2.7875000000000001
20
0.545
11
2.8424999999999998
21
0.545
0
LINE
8
BLACK
6
CONTINUOUS
10
2.8424999999999998
20
0.545
11
2.8424999999999998
21
0.51
0
LINE
8
BLACK
6
CONTINUOUS
10
1.9435662992125984
20
0.5718973228346457
11
1.9465922047244093
21
0.5710865354330709
0
LINE
8
BLACK
6
CONTINUOUS
10
1.9465922047244093
20
0.5710865354330709
11
1.9493051181102361
21
0.5695202362204724
0
LINE
8
BLACK
6
CONTINUOUS
10
1.9493051181102361
20
0.5695202362204724
11
1.9515202362204724
21
0.5673051181102362
0
LINE
8
BLACK
6
CONTINUOUS
10
1.9515202362204724
20
0.5673051181102362
11
1.9530865354330709
21
0.5645922047244094
0
LINE
8
BLACK
6
CONTINUOUS
10
1.9530865354330709
20
0.5645922047244094
11
1.9538973228346457
21
0.5615662992125984
0
LINE
8
BLACK
6
CONTINUOUS
10
1.9538973228346457
20
0.5615662992125984
11
1.9538973228346457
21
0.5584337007874015
0
LINE
8
BLACK
6
CONTINUOUS
10
1.9538973228346457
20
0.5584337007874015
11
1.9530865354330709
21
0.5554077952755906
0
LINE
8
BLACK
6
CONTINUOUS
10
1.9530865354330709
20
0.5554077952755906
11
1.9515202362204724
21
0.5526948818897638
0
LINE
8
BLACK
6
CONTINUOUS
10
1.9515202362204724
20
0.5526948818897638
11
1.9493051181102361
21
0.5504797637795276
0
LINE
8
BLACK
6
CONTINUOUS
10
1.9493051181102361
20
0.5504797637795276
11
1.9465922047244093
21
0.5489134645669291
0
LINE
8
BLACK
6
CONTINUOUS
10
1.9465922047244093
20
0.5489134645669291
11
1.9435662992125984
21
0.5481026771653543
0
LINE
8
BLACK
6
CONTINUOUS
10
1.9435662992125984
20
0.5481026771653543
11
1.9079999999999999
21
0.548
0
LINE
8
BLACK
6
CONTINUOUS
10
1.9079999999999999
20
0.548
11
1.9064337007874015
21
0.5481026771653543
0
LINE
8
BLACK
6
CONTINUOUS
10
1.9064337007874015
20
0.5481026771653543
11
1.9034077952755906
21
0.5489134645669291
0
LINE
8
BLACK
6
CONTINUOUS
10
1.9034077952755906
20
0.5489134645669291
11
1.9006948818897638
21
0.5504797637795276
0
LINE
8
BLACK
6
CONTINUOUS
10
1.9006948818897638
20
0.5504797637795276
11
1.8984797637795274
21
0.5526948818897638
0
LINE
8
BLACK
6
CONTINUOUS
10
1.8984797637795274
20
0.5526948818897638
11
1.896913464566929
21
0.5554077952755906
0
LINE
8
BLACK
6
CONTINUOUS
10
1.896913464566929
20
0.5554077952755906
11
1.8961026771653542
21
0.5584337007874015
0
LINE
8
BLACK
6
CONTINUOUS
10
1.8961026771653542
20
0.5584337007874015
11
1.8961026771653542
21
0.5615662992125984
0
LINE
8
BLACK
6
CONTINUOUS
10
1.8961026771653542
20
0.5615662992125984
11
1.896913464566929
21
0.5645922047244094
0
LINE
8
BLACK
6
CONTINUOUS
10
1.896913464566929
20
0.5645922047244094
11
1.8984797637795274
21
0.5673051181102362
0
LINE
8
BLACK
6
CONTINUOUS
10
1.8984797637795274
20
0.5673051181102362
11
1.9006948818897638
21
0.5695202362204724
0
LINE
8
BLACK
6
CONTINUOUS
10
1.9006948818897638
20
0.5695202362204724
11
1.9034077952755906
21
0.5710865354330709
0
LINE
8
BLACK
6
CONTINUOUS
10
1.9034077952755906
20
0.5710865354330709
11
1.9064337007874015
21
0.5718973228346457
0
LINE
8
BLACK
6
CONTINUOUS
10
1.9064337007874015
20
0.5718973228346457
11
1.9419999999999999
21
0.572
0
LINE
8
BLACK
6
CONTINUOUS
10
1.9419999999999999
20
0.572
11
1.9435662992125984
21
0.5718973228346457
0
LINE
8
BLACK
6
CONTINUOUS
10
2.1635662992125986
20
0.5718973228346457
11
2.1665922047244095
21
0.5710865354330709
0
LINE
8
BLACK
6
CONTINUOUS
10
2.1665922047244095
20
0.5710865354330709
11
2.1693051181102363
21
0.5695202362204724
0
LINE
8
BLACK
6
CONTINUOUS
10
2.1693051181102363
20
0.5695202362204724
11
2.1715202362204722
21
0.5673051181102362
0
LINE
8
BLACK
6
CONTINUOUS
10
2.1715202362204722
20
0.5673051181102362
11
2.1730865354330708
21
0.5645922047244094
0
LINE
8
BLACK
6
CONTINUOUS
10
2.1730865354330708
20
0.5645922047244094
11
2.1738973228346454
21
0.5615662992125984
0
LINE
8
BLACK
6
CONTINUOUS
10
2.1738973228346454
20
0.5615662992125984
11
2.1738973228346454
21
0.5584337007874015
0
LINE
8
BLACK
6
CONTINUOUS
10
2.1738973228346454
20
0.5584337007874015
11
2.1730865354330708
21
0.5554077952755906
0
LINE
8
BLACK
6
CONTINUOUS
10
2.1730865354330708
20
0.5554077952755906
11
2.1715202362204722
21
0.5526948818897638
0
LINE
8
BLACK
6
CONTINUOUS
10
2.1715202362204722
20
0.5526948818897638
11
2.1693051181102363
21
0.5504797637795276
0
LINE
8
BLACK
6
CONTINUOUS
10
2.1693051181102363
20
0.5504797637795276
11
2.1665922047244095
21
0.5489134645669291
0
LINE
8
BLACK
6
CONTINUOUS
10
2.1665922047244095
20
0.5489134645669291
11
2.1635662992125986
21
0.5481026771653543
0
LINE
8
BLACK
6
CONTINUOUS
10
2.1635662992125986
20
0.5481026771653543
11
2.1280000000000001
21
0.548
0
LINE
8
BLACK
6
CONTINUOUS
10
2.1280000000000001
20
0.548
11
2.1264337007874015
21
0.5481026771653543
0
LINE
8
BLACK
6
CONTINUOUS
10
2.1264337007874015
20
0.5481026771653543
11
2.1234077952755905
21
0.5489134645669291
0
LINE
8
BLACK
6
CONTINUOUS
10
2.1234077952755905
20
0.5489134645669291
11
2.1206948818897637
21
0.5504797637795276
0
LINE
8
BLACK
6
CONTINUOUS
10
2.1206948818897637
20
0.5504797637795276
11
2.1184797637795274
21
0.5526948818897638
0
LINE
8
BLACK
6
CONTINUOUS
10
2.1184797637795274
20
0.5526948818897638
11
2.1169134645669292
21
0.5554077952755906
0
LINE
8
BLACK
6
CONTINUOUS
10
2.1169134645669292
20
0.5554077952755906
11
2.1161026771653542
21
0.5584337007874015
0
LINE
8
BLACK
6
CONTINUOUS
10
2.1161026771653542
20
0.5584337007874015
11
2.1161026771653542
21
0.5615662992125984
0
LINE
8
BLACK
6
CONTINUOUS
10
2.1161026771653542
20
0.5615662992125984
11
2.1169134645669292
21
0.5645922047244094
0
LINE
8
BLACK
6
CONTINUOUS
10
2.1169134645669292
20
0.5645922047244094
11
2.1184797637795274
21
0.5673051181102362
0
LINE
8
BLACK
6
CONTINUOUS
10
2.1184797637795274
20
0.5673051181102362
11
2.1206948818897637
21
0.5695202362204724
0
LINE
8
BLACK
6
CONTINUOUS
10
2.1206948818897637
20
0.5695202362204724
11
2.1234077952755905
21
0.5710865354330709
0
LINE
8
BLACK
6
CONTINUOUS
10
2.1234077952755905
20
0.5710865354330709
11
2.1264337007874015
21
0.5718973228346457
0
LINE
8
BLACK
6
CONTINUOUS
10
2.1264337007874015
20
0.5718973228346457
11
2.1619999999999999
21
0.572
0
LINE
8
BLACK
6
CONTINUOUS
10
2.1619999999999999
20
0.572
11
2.1635662992125986
21
0.5718973228346457
0
LINE
8
BLACK
6
CONTINUOUS
10
2.8424999999999998
20
0.585
11
2.7875000000000001
21
0.585
0
LINE
8
BLACK
6
CONTINUOUS
10
2.7875000000000001
20
0.585
11
2.7875000000000001
21
0.62
0
LINE
8
BLACK
6
CONTINUOUS
10
2.7875000000000001
20
0.62
11
2.8424999999999998
21
0.62
0
LINE
8
BLACK
6
CONTINUOUS
10
2.8424999999999998
20
0.62
11
2.8424999999999998
21
0.585
0
LINE
8
BLACK
6
CONTINUOUS
10
1.9435662992125984
20
0.6218973228346456
11
1.9465922047244093
21
0.6210865354330708
0
LINE
8
BLACK
6
CONTINUOUS
10
1.9465922047244093
20
0.6210865354330708
11
1.9493051181102361
21
0.6195202362204725
0
LINE
8
BLACK
6
CONTINUOUS
10
1.9493051181102361
20
0.6195202362204725
11
1.9515202362204724
21
0.6173051181102363
0
LINE
8
BLACK
6
CONTINUOUS
10
1.9515202362204724
20
0.6173051181102363
11
1.9530865354330709
21
0.6145922047244095
0
LINE
8
BLACK
6
CONTINUOUS
10
1.9530865354330709
20
0.6145922047244095
11
1.9538973228346457
21
0.6115662992125984
0
LINE
8
BLACK
6
CONTINUOUS
10
1.9538973228346457
20
0.6115662992125984
11
1.9538973228346457
21
0.6084337007874016
0
LINE
8
BLACK
6
CONTINUOUS
10
1.9538973228346457
20
0.6084337007874016
11
1.9530865354330709
21
0.6054077952755905
0
LINE
8
BLACK
6
CONTINUOUS
10
1.9530865354330709
20
0.6054077952755905
11
1.9515202362204724
21
0.6026948818897637
0
LINE
8
BLACK
6
CONTINUOUS
10
1.9515202362204724
20
0.6026948818897637
11
1.9493051181102361
21
0.6004797637795275
0
LINE
8
BLACK
6
CONTINUOUS
10
1.9493051181102361
20
0.6004797637795275
11
1.9465922047244093
21
0.5989134645669291
0
LINE
8
BLACK
6
CONTINUOUS
10
1.9465922047244093
20
0.5989134645669291
11
1.9435662992125984
21
0.5981026771653544
0
LINE
8
BLACK
6
CONTINUOUS
10
1.9435662992125984
20
0.5981026771653544
11
1.9079999999999999
21
0.598
0
LINE
8
BLACK
6
CONTINUOUS
10
1.9079999999999999
20
0.598
11
1.9064337007874015
21
0.5981026771653544
0
LINE
8
BLACK
6
CONTINUOUS
10
1.9064337007874015
20
0.5981026771653544
11
1.9034077952755906
21
0.5989134645669291
0
LINE
8
BLACK
6
CONTINUOUS
10
1.9034077952755906
20
0.5989134645669291
11
1.9006948818897638
21
0.6004797637795275
0
LINE
8
BLACK
6
CONTINUOUS
10
1.9006948818897638
20
0.6004797637795275
11
1.8984797637795274
21
0.6026948818897637
0
LINE
8
BLACK
6
CONTINUOUS
10
1.8984797637795274
20
0.6026948818897637
11
1.896913464566929
21
0.6054077952755905
0
LINE
8
BLACK
6
CONTINUOUS
10
1.896913464566929
20
0.6054077952755905
11
1.8961026771653542
21
0.6084337007874016
0
LINE
8
BLACK
6
CONTINUOUS
10
1.8961026771653542
20
0.6084337007874016
11
1.8961026771653542
21
0.6115662992125984
0
LINE
8
BLACK
6
CONTINUOUS
10
1.8961026771653542
20
0.6115662992125984
11
1.896913464566929
21
0.6145922047244095
0
LINE
8
BLACK
6
CONTINUOUS
10
1.896913464566929
20
0.6145922047244095
11
1.8984797637795274
21
0.6173051181102363
0
LINE
8
BLACK
6
CONTINUOUS
10
1.8984797637795274
20
0.6173051181102363
11
1.9006948818897638
21
0.6195202362204725
0
LINE
8
BLACK
6
CONTINUOUS
10
1.9006948818897638
20
0.6195202362204725
11
1.9034077952755906
21
0.6210865354330708
0
LINE
8
BLACK
6
CONTINUOUS
10
1.9034077952755906
20
0.6210865354330708
11
1.9064337007874015
21
0.6218973228346456
0
LINE
8
BLACK
6
CONTINUOUS
10
1.9064337007874015
20
0.6218973228346456
11
1.9419999999999999
21
0.622
0
LINE
8
BLACK
6
CONTINUOUS
10
1.9419999999999999
20
0.622
11
1.9435662992125984
21
0.6218973228346456
0
LINE
8
BLACK
6
CONTINUOUS
10
2.1635662992125986
20
0.6218973228346456
11
2.1665922047244095
21
0.6210865354330708
0
LINE
8
BLACK
6
CONTINUOUS
10
2.1665922047244095
20
0.6210865354330708
11
2.1693051181102363
21
0.6195202362204725
0
LINE
8
BLACK
6
CONTINUOUS
10
2.1693051181102363
20
0.6195202362204725
11
2.1715202362204722
21
0.6173051181102363
0
LINE
8
BLACK
6
CONTINUOUS
10
2.1715202362204722
20
0.6173051181102363
11
2.1730865354330708
21
0.6145922047244095
0
LINE
8
BLACK
6
CONTINUOUS
10
2.1730865354330708
20
0.6145922047244095
11
2.1738973228346454
21
0.6115662992125984
0
LINE
8
BLACK
6
CONTINUOUS
10
2.1738973228346454
20
0.6115662992125984
11
2.1738973228346454
21
0.6084337007874016
0
LINE
8
BLACK
6
CONTINUOUS
10
2.1738973228346454
20
0.6084337007874016
11
2.1730865354330708
21
0.6054077952755905
0
LINE
8
BLACK
6
CONTINUOUS
10
2.1730865354330708
20
0.6054077952755905
11
2.1715202362204722
21
0.6026948818897637
0
LINE
8
BLACK
6
CONTINUOUS
10
2.1715202362204722
20
0.6026948818897637
11
2.1693051181102363
21
0.6004797637795275
0
LINE
8
BLACK
6
CONTINUOUS
10
2.1693051181102363
20
0.6004797637795275
11
2.1665922047244095
21
0.5989134645669291
0
LINE
8
BLACK
6
CONTINUOUS
10
2.1665922047244095
20
0.5989134645669291
11
2.1635662992125986
21
0.5981026771653544
0
LINE
8
BLACK
6
CONTINUOUS
10
2.1635662992125986
20
0.5981026771653544
11
2.1280000000000001
21
0.598
0
LINE
8
BLACK
6
CONTINUOUS
10
2.1280000000000001
20
0.598
11
2.1264337007874015
21
0.5981026771653544
0
LINE
8
BLACK
6
CONTINUOUS
10
2.1264337007874015
20
0.5981026771653544
11
2.1234077952755905
21
0.5989134645669291
0
LINE
8
BLACK
6
CONTINUOUS
10
2.1234077952755905
20
0.5989134645669291
11
2.1206948818897637
21
0.6004797637795275
0
LINE
8
BLACK
6
CONTINUOUS
10
2.1206948818897637
20
0.6004797637795275
11
2.1184797637795274
21
0.6026948818897637
0
LINE
8
BLACK
6
CONTINUOUS
10
2.1184797637795274
20
0.6026948818897637
11
2.1169134645669292
21
0.6054077952755905
0
LINE
8
BLACK
6
CONTINUOUS
10
2.1169134645669292
20
0.6054077952755905
11
2.1161026771653542
21
0.6084337007874016
0
LINE
8
BLACK
6
CONTINUOUS
10
2.1161026771653542
20
0.6084337007874016
11
2.1161026771653542
21
0.6115662992125984
0
LINE
8
BLACK
6
CONTINUOUS
10
2.1161026771653542
20
0.6115662992125984
11
2.1169134645669292
21
0.6145922047244095
0
LINE
8
BLACK
6
CONTINUOUS
10
2.1169134645669292
20
0.6145922047244095
11
2.1184797637795274
21
0.6173051181102363
0
LINE
8
BLACK
6
CONTINUOUS
10
2.1184797637795274
20
0.6173051181102363
11
2.1206948818897637
21
0.6195202362204725
0
LINE
8
BLACK
6
CONTINUOUS
10
2.1206948818897637
20
0.6195202362204725
11
2.1234077952755905
21
0.6210865354330708
0
LINE
8
BLACK
6
CONTINUOUS
10
2.1234077952755905
20
0.6210865354330708
11
2.1264337007874015
21
0.6218973228346456
0
LINE
8
BLACK
6
CONTINUOUS
10
2.1264337007874015
20
0.6218973228346456
11
2.1619999999999999
21
0.622
0
LINE
8
BLACK
6
CONTINUOUS
10
2.1619999999999999
20
0.622
11
2.1635662992125986
21
0.6218973228346456
0
LINE
8
BLACK
6
CONTINUOUS
10
2.7624999999999997
20
0.625
11
2.7075
21
0.625
0
LINE
8
BLACK
6
CONTINUOUS
10
2.7075
20
0.625
11
2.7075
21
0.66
0
LINE
8
BLACK
6
CONTINUOUS
10
2.7075
20
0.66
11
2.7624999999999997
21
0.66
0
LINE
8
BLACK
6
CONTINUOUS
10
2.7624999999999997
20
0.66
11
2.7624999999999997
21
0.625
0
LINE
8
BLACK
6
CONTINUOUS
10
1.9435662992125984
20
0.6718973228346456
11
1.9465922047244093
21
0.6710865354330708
0
LINE
8
BLACK
6
CONTINUOUS
10
1.9465922047244093
20
0.6710865354330708
11
1.9493051181102361
21
0.6695202362204724
0
LINE
8
BLACK
6
CONTINUOUS
10
1.9493051181102361
20
0.6695202362204724
11
1.9515202362204724
21
0.6673051181102362
0
LINE
8
BLACK
6
CONTINUOUS
10
1.9515202362204724
20
0.6673051181102362
11
1.9530865354330709
21
0.6645922047244094
0
LINE
8
BLACK
6
CONTINUOUS
10
1.9530865354330709
20
0.6645922047244094
11
1.9538973228346457
21
0.6615662992125985
0
LINE
8
BLACK
6
CONTINUOUS
10
1.9538973228346457
20
0.6615662992125985
11
1.9538973228346457
21
0.6584337007874016
0
LINE
8
BLACK
6
CONTINUOUS
10
1.9538973228346457
20
0.6584337007874016
11
1.9530865354330709
21
0.6554077952755906
0
LINE
8
BLACK
6
CONTINUOUS
10
1.9530865354330709
20
0.6554077952755906
11
1.9515202362204724
21
0.6526948818897638
0
LINE
8
BLACK
6
CONTINUOUS
10
1.9515202362204724
20
0.6526948818897638
11
1.9493051181102361
21
0.6504797637795275
0
LINE
8
BLACK
6
CONTINUOUS
10
1.9493051181102361
20
0.6504797637795275
11
1.9465922047244093
21
0.6489134645669291
0
LINE
8
BLACK
6
CONTINUOUS
10
1.9465922047244093
20
0.6489134645669291
11
1.9435662992125984
21
0.6481026771653543
0
LINE
8
BLACK
6
CONTINUOUS
10
1.9435662992125984
20
0.6481026771653543
11
1.9079999999999999
21
0.648
0
LINE
8
BLACK
6
CONTINUOUS
10
1.9079999999999999
20
0.648
11
1.9064337007874015
21
0.6481026771653543
0
LINE
8
BLACK
6
CONTINUOUS
10
1.9064337007874015
20
0.6481026771653543
11
1.9034077952755906
21
0.6489134645669291
0
LINE
8
BLACK
6
CONTINUOUS
10
1.9034077952755906
20
0.6489134645669291
11
1.9006948818897638
21
0.6504797637795275
0
LINE
8
BLACK
6
CONTINUOUS
10
1.9006948818897638
20
0.6504797637795275
11
1.8984797637795274
21
0.6526948818897638
0
LINE
8
BLACK
6
CONTINUOUS
10
1.8984797637795274
20
0.6526948818897638
11
1.896913464566929
21
0.6554077952755906
0
LINE
8
BLACK
6
CONTINUOUS
10
1.896913464566929
20
0.6554077952755906
11
1.8961026771653542
21
0.6584337007874016
0
LINE
8
BLACK
6
CONTINUOUS
10
1.8961026771653542
20
0.6584337007874016
11
1.8961026771653542
21
0.6615662992125985
0
LINE
8
BLACK
6
CONTINUOUS
10
1.8961026771653542
20
0.6615662992125985
11
1.896913464566929
21
0.6645922047244094
0
LINE
8
BLACK
6
CONTINUOUS
10
1.896913464566929
20
0.6645922047244094
11
1.8984797637795274
21
0.6673051181102362
0
LINE
8
BLACK
6
CONTINUOUS
10
1.8984797637795274
20
0.6673051181102362
11
1.9006948818897638
21
0.6695202362204724
0
LINE
8
BLACK
6
CONTINUOUS
10
1.9006948818897638
20
0.6695202362204724
11
1.9034077952755906
21
0.6710865354330708
0
LINE
8
BLACK
6
CONTINUOUS
10
1.9034077952755906
20
0.6710865354330708
11
1.9064337007874015
21
0.6718973228346456
0
LINE
8
BLACK
6
CONTINUOUS
10
1.9064337007874015
20
0.6718973228346456
11
1.9419999999999999
21
0.6719999999999999
0
LINE
8
BLACK
6
CONTINUOUS
10
1.9419999999999999
20
0.6719999999999999
11
1.9435662992125984
21
0.6718973228346456
0
LINE
8
BLACK
6
CONTINUOUS
10
2.1635662992125986
20
0.6718973228346456
11
2.1665922047244095
21
0.6710865354330708
0
LINE
8
BLACK
6
CONTINUOUS
10
2.1665922047244095
20
0.6710865354330708
11
2.1693051181102363
21
0.6695202362204724
0
LINE
8
BLACK
6
CONTINUOUS
10
2.1693051181102363
20
0.6695202362204724
11
2.1715202362204722
21
0.6673051181102362
0
LINE
8
BLACK
6
CONTINUOUS
10
2.1715202362204722
20
0.6673051181102362
11
2.1730865354330708
21
0.6645922047244094
0
LINE
8
BLACK
6
CONTINUOUS
10
2.1730865354330708
20
0.6645922047244094
11
2.1738973228346454
21
0.6615662992125985
0
LINE
8
BLACK
6
CONTINUOUS
10
2.1738973228346454
20
0.6615662992125985
11
2.1738973228346454
21
0.6584337007874016
0
LINE
8
BLACK
6
CONTINUOUS
10
2.1738973228346454
20
0.6584337007874016
11
2.1730865354330708
21
0.6554077952755906
0
LINE
8
BLACK
6
CONTINUOUS
10
2.1730865354330708
20
0.6554077952755906
11
2.1715202362204722
21
0.6526948818897638
0
LINE
8
BLACK
6
CONTINUOUS
10
2.1715202362204722
20
0.6526948818897638
11
2.1693051181102363
21
0.6504797637795275
0
LINE
8
BLACK
6
CONTINUOUS
10
2.1693051181102363
20
0.6504797637795275
11
2.1665922047244095
21
0.6489134645669291
0
LINE
8
BLACK
6
CONTINUOUS
10
2.1665922047244095
20
0.6489134645669291
11
2.1635662992125986
21
0.6481026771653543
0
LINE
8
BLACK
6
CONTINUOUS
10
2.1635662992125986
20
0.6481026771653543
11
2.1280000000000001
21
0.648
0
LINE
8
BLACK
6
CONTINUOUS
10
2.1280000000000001
20
0.648
11
2.1264337007874015
21
0.6481026771653543
0
LINE
8
BLACK
6
CONTINUOUS
10
2.1264337007874015
20
0.6481026771653543
11
2.1234077952755905
21
0.6489134645669291
0
LINE
8
BLACK
6
CONTINUOUS
10
2.1234077952755905
20
0.6489134645669291
11
2.1206948818897637
21
0.6504797637795275
0
LINE
8
BLACK
6
CONTINUOUS
10
2.1206948818897637
20
0.6504797637795275
11
2.1184797637795274
21
0.6526948818897638
0
LINE
8
BLACK
6
CONTINUOUS
10
2.1184797637795274
20
0.6526948818897638
11
2.1169134645669292
21
0.6554077952755906
0
LINE
8
BLACK
6
CONTINUOUS
10
2.1169134645669292
20
0.6554077952755906
11
2.1161026771653542
21
0.6584337007874016
0
LINE
8
BLACK
6
CONTINUOUS
10
2.1161026771653542
20
0.6584337007874016
11
2.1161026771653542
21
0.6615662992125985
0
LINE
8
BLACK
6
CONTINUOUS
10
2.1161026771653542
20
0.6615662992125985
11
2.1169134645669292
21
0.6645922047244094
0
LINE
8
BLACK
6
CONTINUOUS
10
2.1169134645669292
20
0.6645922047244094
11
2.1184797637795274
21
0.6673051181102362
0
LINE
8
BLACK
6
CONTINUOUS
10
2.1184797637795274
20
0.6673051181102362
11
2.1206948818897637
21
0.6695202362204724
0
LINE
8
BLACK
6
CONTINUOUS
10
2.1206948818897637
20
0.6695202362204724
11
2.1234077952755905
21
0.6710865354330708
0
LINE
8
BLACK
6
CONTINUOUS
10
2.1234077952755905
20
0.6710865354330708
11
2.1264337007874015
21
0.6718973228346456
0
LINE
8
BLACK
6
CONTINUOUS
10
2.1264337007874015
20
0.6718973228346456
11
2.1619999999999999
21
0.6719999999999999
0
LINE
8
BLACK
6
CONTINUOUS
10
2.1619999999999999
20
0.6719999999999999
11
2.1635662992125986
21
0.6718973228346456
0
LINE
8
BLACK
6
CONTINUOUS
10
1.9435662992125984
20
0.7218973228346457
11
1.9465922047244093
21
0.7210865354330709
0
LINE
8
BLACK
6
CONTINUOUS
10
1.9465922047244093
20
0.7210865354330709
11
1.9493051181102361
21
0.7195202362204725
0
LINE
8
BLACK
6
CONTINUOUS
10
1.9493051181102361
20
0.7195202362204725
11
1.9515202362204724
21
0.7173051181102362
0
LINE
8
BLACK
6
CONTINUOUS
10
1.9515202362204724
20
0.7173051181102362
11
1.9530865354330709
21
0.7145922047244094
0
LINE
8
BLACK
6
CONTINUOUS
10
1.9530865354330709
20
0.7145922047244094
11
1.9538973228346457
21
0.7115662992125984
0
LINE
8
BLACK
6
CONTINUOUS
10
1.9538973228346457
20
0.7115662992125984
11
1.9538973228346457
21
0.7084337007874015
0
LINE
8
BLACK
6
CONTINUOUS
10
1.9538973228346457
20
0.7084337007874015
11
1.9530865354330709
21
0.7054077952755905
0
LINE
8
BLACK
6
CONTINUOUS
10
1.9530865354330709
20
0.7054077952755905
11
1.9515202362204724
21
0.7026948818897638
0
LINE
8
BLACK
6
CONTINUOUS
10
1.9515202362204724
20
0.7026948818897638
11
1.9493051181102361
21
0.7004797637795276
0
LINE
8
BLACK
6
CONTINUOUS
10
1.9493051181102361
20
0.7004797637795276
11
1.9465922047244093
21
0.6989134645669292
0
LINE
8
BLACK
6
CONTINUOUS
10
1.9465922047244093
20
0.6989134645669292
11
1.9435662992125984
21
0.6981026771653543
0
LINE
8
BLACK
6
CONTINUOUS
10
1.9435662992125984
20
0.6981026771653543
11
1.9079999999999999
21
0.698
0
LINE
8
BLACK
6
CONTINUOUS
10
1.9079999999999999
20
0.698
11
1.9064337007874015
21
0.6981026771653543
0
LINE
8
BLACK
6
CONTINUOUS
10
1.9064337007874015
20
0.6981026771653543
11
1.9034077952755906
21
0.6989134645669292
0
LINE
8
BLACK
6
CONTINUOUS
10
1.9034077952755906
20
0.6989134645669292
11
1.9006948818897638
21
0.7004797637795276
0
LINE
8
BLACK
6
CONTINUOUS
10
1.9006948818897638
20
0.7004797637795276
11
1.8984797637795274
21
0.7026948818897638
0
LINE
8
BLACK
6
CONTINUOUS
10
1.8984797637795274
20
0.7026948818897638
11
1.896913464566929
21
0.7054077952755905
0
LINE
8
BLACK
6
CONTINUOUS
10
1.896913464566929
20
0.7054077952755905
11
1.8961026771653542
21
0.7084337007874015
0
LINE
8
BLACK
6
CONTINUOUS
10
1.8961026771653542
20
0.7084337007874015
11
1.8961026771653542
21
0.7115662992125984
0
LINE
8
BLACK
6
CONTINUOUS
10
1.8961026771653542
20
0.7115662992125984
11
1.896913464566929
21
0.7145922047244094
0
LINE
8
BLACK
6
CONTINUOUS
10
1.896913464566929
20
0.7145922047244094
11
1.8984797637795274
21
0.7173051181102362
0
LINE
8
BLACK
6
CONTINUOUS
10
1.8984797637795274
20
0.7173051181102362
11
1.9006948818897638
21
0.7195202362204725
0
LINE
8
BLACK
6
CONTINUOUS
10
1.9006948818897638
20
0.7195202362204725
11
1.9034077952755906
21
0.7210865354330709
0
LINE
8
BLACK
6
CONTINUOUS
10
1.9034077952755906
20
0.7210865354330709
11
1.9064337007874015
21
0.7218973228346457
0
LINE
8
BLACK
6
CONTINUOUS
10
1.9064337007874015
20
0.7218973228346457
11
1.9419999999999999
21
0.722
0
LINE
8
BLACK
6
CONTINUOUS
10
1.9419999999999999
20
0.722
11
1.9435662992125984
21
0.7218973228346457
0
LINE
8
BLACK
6
CONTINUOUS
10
2.1635662992125986
20
0.7218973228346457
11
2.1665922047244095
21
0.7210865354330709
0
LINE
8
BLACK
6
CONTINUOUS
10
2.1665922047244095
20
0.7210865354330709
11
2.1693051181102363
21
0.7195202362204725
0
LINE
8
BLACK
6
CONTINUOUS
10
2.1693051181102363
20
0.7195202362204725
11
2.1715202362204722
21
0.7173051181102362
0
LINE
8
BLACK
6
CONTINUOUS
10
2.1715202362204722
20
0.7173051181102362
11
2.1730865354330708
21
0.7145922047244094
0
LINE
8
BLACK
6
CONTINUOUS
10
2.1730865354330708
20
0.7145922047244094
11
2.1738973228346454
21
0.7115662992125984
0
LINE
8
BLACK
6
CONTINUOUS
10
2.1738973228346454
20
0.7115662992125984
11
2.1738973228346454
21
0.7084337007874015
0
LINE
8
BLACK
6
CONTINUOUS
10
2.1738973228346454
20
0.7084337007874015
11
2.1730865354330708
21
0.7054077952755905
0
LINE
8
BLACK
6
CONTINUOUS
10
2.1730865354330708
20
0.7054077952755905
11
2.1715202362204722
21
0.7026948818897638
0
LINE
8
BLACK
6
CONTINUOUS
10
2.1715202362204722
20
0.7026948818897638
11
2.1693051181102363
21
0.7004797637795276
0
LINE
8
BLACK
6
CONTINUOUS
10
2.1693051181102363
20
0.7004797637795276
11
2.1665922047244095
21
0.6989134645669292
0
LINE
8
BLACK
6
CONTINUOUS
10
2.1665922047244095
20
0.6989134645669292
11
2.1635662992125986
21
0.6981026771653543
0
LINE
8
BLACK
6
CONTINUOUS
10
2.1635662992125986
20
0.6981026771653543
11
2.1280000000000001
21
0.698
0
LINE
8
BLACK
6
CONTINUOUS
10
2.1280000000000001
20
0.698
11
2.1264337007874015
21
0.6981026771653543
0
LINE
8
BLACK
6
CONTINUOUS
10
2.1264337007874015
20
0.6981026771653543
11
2.1234077952755905
21
0.6989134645669292
0
LINE
8
BLACK
6
CONTINUOUS
10
2.1234077952755905
20
0.6989134645669292
11
2.1206948818897637
21
0.7004797637795276
0
LINE
8
BLACK
6
CONTINUOUS
10
2.1206948818897637
20
0.7004797637795276
11
2.1184797637795274
21
0.7026948818897638
0
LINE
8
BLACK
6
CONTINUOUS
10
2.1184797637795274
20
0.7026948818897638
11
2.1169134645669292
21
0.7054077952755905
0
LINE
8
BLACK
6
CONTINUOUS
10
2.1169134645669292
20
0.7054077952755905
11
2.1161026771653542
21
0.7084337007874015
0
LINE
8
BLACK
6
CONTINUOUS
10
2.1161026771653542
20
0.7084337007874015
11
2.1161026771653542
21
0.7115662992125984
0
LINE
8
BLACK
6
CONTINUOUS
10
2.1161026771653542
20
0.7115662992125984
11
2.1169134645669292
21
0.7145922047244094
0
LINE
8
BLACK
6
CONTINUOUS
10
2.1169134645669292
20
0.7145922047244094
11
2.1184797637795274
21
0.7173051181102362
0
LINE
8
BLACK
6
CONTINUOUS
10
2.1184797637795274
20
0.7173051181102362
11
2.1206948818897637
21
0.7195202362204725
0
LINE
8
BLACK
6
CONTINUOUS
10
2.1206948818897637
20
0.7195202362204725
11
2.1234077952755905
21
0.7210865354330709
0
LINE
8
BLACK
6
CONTINUOUS
10
2.1234077952755905
20
0.7210865354330709
11
2.1264337007874015
21
0.7218973228346457
0
LINE
8
BLACK
6
CONTINUOUS
10
2.1264337007874015
20
0.7218973228346457
11
2.1619999999999999
21
0.722
0
LINE
8
BLACK
6
CONTINUOUS
10
2.1619999999999999
20
0.722
11
2.1635662992125986
21
0.7218973228346457
0
LINE
8
BLACK
6
CONTINUOUS
10
2.7624999999999997
20
0.7
11
2.7075
21
0.7
0
LINE
8
BLACK
6
CONTINUOUS
10
2.7075
20
0.7
11
2.7075
21
0.735
0
LINE
8
BLACK
6
CONTINUOUS
10
2.7075
20
0.735
11
2.7624999999999997
21
0.735
0
LINE
8
BLACK
6
CONTINUOUS
10
2.7624999999999997
20
0.735
11
2.7624999999999997
21
0.7
0
LINE
8
BLACK
6
CONTINUOUS
10
1.8725000000000001
20
0.74
11
1.8174999999999999
21
0.74
0
LINE
8
BLACK
6
CONTINUOUS
10
1.8174999999999999
20
0.74
11
1.8174999999999999
21
0.775
0
LINE
8
BLACK
6
CONTINUOUS
10
1.8174999999999999
20
0.775
11
1.8725000000000001
21
0.775
0
LINE
8
BLACK
6
CONTINUOUS
10
1.8725000000000001
20
0.775
11
1.8725000000000001
21
0.74
0
LINE
8
BLACK
6
CONTINUOUS
10
1.9435662992125984
20
0.7718973228346456
11
1.9465922047244093
21
0.7710865354330708
0
LINE
8
BLACK
6
CONTINUOUS
10
1.9465922047244093
20
0.7710865354330708
11
1.9493051181102361
21
0.7695202362204724
0
LINE
8
BLACK
6
CONTINUOUS
10
1.9493051181102361
20
0.7695202362204724
11
1.9515202362204724
21
0.7673051181102362
0
LINE
8
BLACK
6
CONTINUOUS
10
1.9515202362204724
20
0.7673051181102362
11
1.9530865354330709
21
0.7645922047244095
0
LINE
8
BLACK
6
CONTINUOUS
10
1.9530865354330709
20
0.7645922047244095
11
1.9538973228346457
21
0.7615662992125984
0
LINE
8
BLACK
6
CONTINUOUS
10
1.9538973228346457
20
0.7615662992125984
11
1.9538973228346457
21
0.7584337007874016
0
LINE
8
BLACK
6
CONTINUOUS
10
1.9538973228346457
20
0.7584337007874016
11
1.9530865354330709
21
0.7554077952755905
0
LINE
8
BLACK
6
CONTINUOUS
10
1.9530865354330709
20
0.7554077952755905
11
1.9515202362204724
21
0.7526948818897637
0
LINE
8
BLACK
6
CONTINUOUS
10
1.9515202362204724
20
0.7526948818897637
11
1.9493051181102361
21
0.7504797637795275
0
LINE
8
BLACK
6
CONTINUOUS
10
1.9493051181102361
20
0.7504797637795275
11
1.9465922047244093
21
0.7489134645669291
0
LINE
8
BLACK
6
CONTINUOUS
10
1.9465922047244093
20
0.7489134645669291
11
1.9435662992125984
21
0.7481026771653543
0
LINE
8
BLACK
6
CONTINUOUS
10
1.9435662992125984
20
0.7481026771653543
11
1.9079999999999999
21
0.748
0
LINE
8
BLACK
6
CONTINUOUS
10
1.9079999999999999
20
0.748
11
1.9064337007874015
21
0.7481026771653543
0
LINE
8
BLACK
6
CONTINUOUS
10
1.9064337007874015
20
0.7481026771653543
11
1.9034077952755906
21
0.7489134645669291
0
LINE
8
BLACK
6
CONTINUOUS
10
1.9034077952755906
20
0.7489134645669291
11
1.9006948818897638
21
0.7504797637795275
0
LINE
8
BLACK
6
CONTINUOUS
10
1.9006948818897638
20
0.7504797637795275
11
1.8984797637795274
21
0.7526948818897637
0
LINE
8
BLACK
6
CONTINUOUS
10
1.8984797637795274
20
0.7526948818897637
11
1.896913464566929
21
0.7554077952755905
0
LINE
8
BLACK
6
CONTINUOUS
10
1.896913464566929
20
0.7554077952755905
11
1.8961026771653542
21
0.7584337007874016
0
LINE
8
BLACK
6
CONTINUOUS
10
1.8961026771653542
20
0.7584337007874016
11
1.8961026771653542
21
0.7615662992125984
0
LINE
8
BLACK
6
CONTINUOUS
10
1.8961026771653542
20
0.7615662992125984
11
1.896913464566929
21
0.7645922047244095
0
LINE
8
BLACK
6
CONTINUOUS
10
1.896913464566929
20
0.7645922047244095
11
1.8984797637795274
21
0.7673051181102362
0
LINE
8
BLACK
6
CONTINUOUS
10
1.8984797637795274
20
0.7673051181102362
11
1.9006948818897638
21
0.7695202362204724
0
LINE
8
BLACK
6
CONTINUOUS
10
1.9006948818897638
20
0.7695202362204724
11
1.9034077952755906
21
0.7710865354330708
0
LINE
8
BLACK
6
CONTINUOUS
10
1.9034077952755906
20
0.7710865354330708
11
1.9064337007874015
21
0.7718973228346456
0
LINE
8
BLACK
6
CONTINUOUS
10
1.9064337007874015
20
0.7718973228346456
11
1.9419999999999999
21
0.772
0
LINE
8
BLACK
6
CONTINUOUS
10
1.9419999999999999
20
0.772
11
1.9435662992125984
21
0.7718973228346456
0
LINE
8
BLACK
6
CONTINUOUS
10
2.1635662992125986
20
0.7718973228346456
11
2.1665922047244095
21
0.7710865354330708
0
LINE
8
BLACK
6
CONTINUOUS
10
2.1665922047244095
20
0.7710865354330708
11
2.1693051181102363
21
0.7695202362204724
0
LINE
8
BLACK
6
CONTINUOUS
10
2.1693051181102363
20
0.7695202362204724
11
2.1715202362204722
21
0.7673051181102362
0
LINE
8
BLACK
6
CONTINUOUS
10
2.1715202362204722
20
0.7673051181102362
11
2.1730865354330708
21
0.7645922047244095
0
LINE
8
BLACK
6
CONTINUOUS
10
2.1730865354330708
20
0.7645922047244095
11
2.1738973228346454
21
0.7615662992125984
0
LINE
8
BLACK
6
CONTINUOUS
10
2.1738973228346454
20
0.7615662992125984
11
2.1738973228346454
21
0.7584337007874016
0
LINE
8
BLACK
6
CONTINUOUS
10
2.1738973228346454
20
0.7584337007874016
11
2.1730865354330708
21
0.7554077952755905
0
LINE
8
BLACK
6
CONTINUOUS
10
2.1730865354330708
20
0.7554077952755905
11
2.1715202362204722
21
0.7526948818897637
0
LINE
8
BLACK
6
CONTINUOUS
10
2.1715202362204722
20
0.7526948818897637
11
2.1693051181102363
21
0.7504797637795275
0
LINE
8
BLACK
6
CONTINUOUS
10
2.1693051181102363
20
0.7504797637795275
11
2.1665922047244095
21
0.7489134645669291
0
LINE
8
BLACK
6
CONTINUOUS
10
2.1665922047244095
20
0.7489134645669291
11
2.1635662992125986
21
0.7481026771653543
0
LINE
8
BLACK
6
CONTINUOUS
10
2.1635662992125986
20
0.7481026771653543
11
2.1280000000000001
21
0.748
0
LINE
8
BLACK
6
CONTINUOUS
10
2.1280000000000001
20
0.748
11
2.1264337007874015
21
0.7481026771653543
0
LINE
8
BLACK
6
CONTINUOUS
10
2.1264337007874015
20
0.7481026771653543
11
2.1234077952755905
21
0.7489134645669291
0
LINE
8
BLACK
6
CONTINUOUS
10
2.1234077952755905
20
0.7489134645669291
11
2.1206948818897637
21
0.7504797637795275
0
LINE
8
BLACK
6
CONTINUOUS
10
2.1206948818897637
20
0.7504797637795275
11
2.1184797637795274
21
0.7526948818897637
0
LINE
8
BLACK
6
CONTINUOUS
10
2.1184797637795274
20
0.7526948818897637
11
2.1169134645669292
21
0.7554077952755905
0
LINE
8
BLACK
6
CONTINUOUS
10
2.1169134645669292
20
0.7554077952755905
11
2.1161026771653542
21
0.7584337007874016
0
LINE
8
BLACK
6
CONTINUOUS
10
2.1161026771653542
20
0.7584337007874016
11
2.1161026771653542
21
0.7615662992125984
0
LINE
8
BLACK
6
CONTINUOUS
10
2.1161026771653542
20
0.7615662992125984
11
2.1169134645669292
21
0.7645922047244095
0
LINE
8
BLACK
6
CONTINUOUS
10
2.1169134645669292
20
0.7645922047244095
11
2.1184797637795274
21
0.7673051181102362
0
LINE
8
BLACK
6
CONTINUOUS
10
2.1184797637795274
20
0.7673051181102362
11
2.1206948818897637
21
0.7695202362204724
0
LINE
8
BLACK
6
CONTINUOUS
10
2.1206948818897637
20
0.7695202362204724
11
2.1234077952755905
21
0.7710865354330708
0
LINE
8
BLACK
6
CONTINUOUS
10
2.1234077952755905
20
0.7710865354330708
11
2.1264337007874015
21
0.7718973228346456
0
LINE
8
BLACK
6
CONTINUOUS
10
2.1264337007874015
20
0.7718973228346456
11
2.1619999999999999
21
0.772
0
LINE
8
BLACK
6
CONTINUOUS
10
2.1619999999999999
20
0.772
11
2.1635662992125986
21
0.7718973228346456
0
LINE
8
BLACK
6
CONTINUOUS
10
0.63325
20
0.7595
11
0.60175
21
0.7595
0
LINE
8
BLACK
6
CONTINUOUS
10
0.60175
20
0.7595
11
0.60175
21
0.7988999999999999
0
LINE
8
BLACK
6
CONTINUOUS
10
0.60175
20
0.7988999999999999
11
0.63325
21
0.7988999999999999
0
LINE
8
BLACK
6
CONTINUOUS
10
0.63325
20
0.7988999999999999
11
0.63325
21
0.7595
0
LINE
8
BLACK
6
CONTINUOUS
10
1.9435662992125984
20
0.8218973228346457
11
1.9465922047244093
21
0.8210865354330709
0
LINE
8
BLACK
6
CONTINUOUS
10
1.9465922047244093
20
0.8210865354330709
11
1.9493051181102361
21
0.8195202362204724
0
LINE
8
BLACK
6
CONTINUOUS
10
1.9493051181102361
20
0.8195202362204724
11
1.9515202362204724
21
0.8173051181102362
0
LINE
8
BLACK
6
CONTINUOUS
10
1.9515202362204724
20
0.8173051181102362
11
1.9530865354330709
21
0.8145922047244094
0
LINE
8
BLACK
6
CONTINUOUS
10
1.9530865354330709
20
0.8145922047244094
11
1.9538973228346457
21
0.8115662992125984
0
LINE
8
BLACK
6
CONTINUOUS
10
1.9538973228346457
20
0.8115662992125984
11
1.9538973228346457
21
0.8084337007874015
0
LINE
8
BLACK
6
CONTINUOUS
10
1.9538973228346457
20
0.8084337007874015
11
1.9530865354330709
21
0.8054077952755906
0
LINE
8
BLACK
6
CONTINUOUS
10
1.9530865354330709
20
0.8054077952755906
11
1.9515202362204724
21
0.8026948818897638
0
LINE
8
BLACK
6
CONTINUOUS
10
1.9515202362204724
20
0.8026948818897638
11
1.9493051181102361
21
0.8004797637795276
0
LINE
8
BLACK
6
CONTINUOUS
10
1.9493051181102361
20
0.8004797637795276
11
1.9465922047244093
21
0.7989134645669291
0
LINE
8
BLACK
6
CONTINUOUS
10
1.9465922047244093
20
0.7989134645669291
11
1.9435662992125984
21
0.7981026771653543
0
LINE
8
BLACK
6
CONTINUOUS
10
1.9435662992125984
20
0.7981026771653543
11
1.9079999999999999
21
0.7979999999999999
0
LINE
8
BLACK
6
CONTINUOUS
10
1.9079999999999999
20
0.7979999999999999
11
1.9064337007874015
21
0.7981026771653543
0
LINE
8
BLACK
6
CONTINUOUS
10
1.9064337007874015
20
0.7981026771653543
11
1.9034077952755906
21
0.7989134645669291
0
LINE
8
BLACK
6
CONTINUOUS
10
1.9034077952755906
20
0.7989134645669291
11
1.9006948818897638
21
0.8004797637795276
0
LINE
8
BLACK
6
CONTINUOUS
10
1.9006948818897638
20
0.8004797637795276
11
1.8984797637795274
21
0.8026948818897638
0
LINE
8
BLACK
6
CONTINUOUS
10
1.8984797637795274
20
0.8026948818897638
11
1.896913464566929
21
0.8054077952755906
0
LINE
8
BLACK
6
CONTINUOUS
10
1.896913464566929
20
0.8054077952755906
11
1.8961026771653542
21
0.8084337007874015
0
LINE
8
BLACK
6
CONTINUOUS
10
1.8961026771653542
20
0.8084337007874015
11
1.8961026771653542
21
0.8115662992125984
0
LINE
8
BLACK
6
CONTINUOUS
10
1.8961026771653542
20
0.8115662992125984
11
1.896913464566929
21
0.8145922047244094
0
LINE
8
BLACK
6
CONTINUOUS
10
1.896913464566929
20
0.8145922047244094
11
1.8984797637795274
21
0.8173051181102362
0
LINE
8
BLACK
6
CONTINUOUS
10
1.8984797637795274
20
0.8173051181102362
11
1.9006948818897638
21
0.8195202362204724
0
LINE
8
BLACK
6
CONTINUOUS
10
1.9006948818897638
20
0.8195202362204724
11
1.9034077952755906
21
0.8210865354330709
0
LINE
8
BLACK
6
CONTINUOUS
10
1.9034077952755906
20
0.8210865354330709
11
1.9064337007874015
21
0.8218973228346457
0
LINE
8
BLACK
6
CONTINUOUS
10
1.9064337007874015
20
0.8218973228346457
11
1.9419999999999999
21
0.822
0
LINE
8
BLACK
6
CONTINUOUS
10
1.9419999999999999
20
0.822
11
1.9435662992125984
21
0.8218973228346457
0
LINE
8
BLACK
6
CONTINUOUS
10
2.1635662992125986
20
0.8218973228346457
11
2.1665922047244095
21
0.8210865354330709
0
LINE
8
BLACK
6
CONTINUOUS
10
2.1665922047244095
20
0.8210865354330709
11
2.1693051181102363
21
0.8195202362204724
0
LINE
8
BLACK
6
CONTINUOUS
10
2.1693051181102363
20
0.8195202362204724
11
2.1715202362204722
21
0.8173051181102362
0
LINE
8
BLACK
6
CONTINUOUS
10
2.1715202362204722
20
0.8173051181102362
11
2.1730865354330708
21
0.8145922047244094
0
LINE
8
BLACK
6
CONTINUOUS
10
2.1730865354330708
20
0.8145922047244094
11
2.1738973228346454
21
0.8115662992125984
0
LINE
8
BLACK
6
CONTINUOUS
10
2.1738973228346454
20
0.8115662992125984
11
2.1738973228346454
21
0.8084337007874015
0
LINE
8
BLACK
6
CONTINUOUS
10
2.1738973228346454
20
0.8084337007874015
11
2.1730865354330708
21
0.8054077952755906
0
LINE
8
BLACK
6
CONTINUOUS
10
2.1730865354330708
20
0.8054077952755906
11
2.1715202362204722
21
0.8026948818897638
0
LINE
8
BLACK
6
CONTINUOUS
10
2.1715202362204722
20
0.8026948818897638
11
2.1693051181102363
21
0.8004797637795276
0
LINE
8
BLACK
6
CONTINUOUS
10
2.1693051181102363
20
0.8004797637795276
11
2.1665922047244095
21
0.7989134645669291
0
LINE
8
BLACK
6
CONTINUOUS
10
2.1665922047244095
20
0.7989134645669291
11
2.1635662992125986
21
0.7981026771653543
0
LINE
8
BLACK
6
CONTINUOUS
10
2.1635662992125986
20
0.7981026771653543
11
2.1280000000000001
21
0.7979999999999999
0
LINE
8
BLACK
6
CONTINUOUS
10
2.1280000000000001
20
0.7979999999999999
11
2.1264337007874015
21
0.7981026771653543
0
LINE
8
BLACK
6
CONTINUOUS
10
2.1264337007874015
20
0.7981026771653543
11
2.1234077952755905
21
0.7989134645669291
0
LINE
8
BLACK
6
CONTINUOUS
10
2.1234077952755905
20
0.7989134645669291
11
2.1206948818897637
21
0.8004797637795276
0
LINE
8
BLACK
6
CONTINUOUS
10
2.1206948818897637
20
0.8004797637795276
11
2.1184797637795274
21
0.8026948818897638
0
LINE
8
BLACK
6
CONTINUOUS
10
2.1184797637795274
20
0.8026948818897638
11
2.1169134645669292
21
0.8054077952755906
0
LINE
8
BLACK
6
CONTINUOUS
10
2.1169134645669292
20
0.8054077952755906
11
2.1161026771653542
21
0.8084337007874015
0
LINE
8
BLACK
6
CONTINUOUS
10
2.1161026771653542
20
0.8084337007874015
11
2.1161026771653542
21
0.8115662992125984
0
LINE
8
BLACK
6
CONTINUOUS
10
2.1161026771653542
20
0.8115662992125984
11
2.1169134645669292
21
0.8145922047244094
0
LINE
8
BLACK
6
CONTINUOUS
10
2.1169134645669292
20
0.8145922047244094
11
2.1184797637795274
21
0.8173051181102362
0
LINE
8
BLACK
6
CONTINUOUS
10
2.1184797637795274
20
0.8173051181102362
11
2.1206948818897637
21
0.8195202362204724
0
LINE
8
BLACK
6
CONTINUOUS
10
2.1206948818897637
20
0.8195202362204724
11
2.1234077952755905
21
0.8210865354330709
0
LINE
8
BLACK
6
CONTINUOUS
10
2.1234077952755905
20
0.8210865354330709
11
2.1264337007874015
21
0.8218973228346457
0
LINE
8
BLACK
6
CONTINUOUS
10
2.1264337007874015
20
0.8218973228346457
11
2.1619999999999999
21
0.822
0
LINE
8
BLACK
6
CONTINUOUS
10
2.1619999999999999
20
0.822
11
2.1635662992125986
21
0.8218973228346457
0
LINE
8
BLACK
6
CONTINUOUS
10
1.8725000000000001
20
0.8149999999999999
11
1.8174999999999999
21
0.8149999999999999
0
LINE
8
BLACK
6
CONTINUOUS
10
1.8174999999999999
20
0.8149999999999999
11
1.8174999999999999
21
0.85
0
LINE
8
BLACK
6
CONTINUOUS
10
1.8174999999999999
20
0.85
11
1.8725000000000001
21
0.85
0
LINE
8
BLACK
6
CONTINUOUS
10
1.8725000000000001
20
0.85
11
1.8725000000000001
21
0.8149999999999999
0
LINE
8
BLACK
6
CONTINUOUS
10
2.9179921259842518
20
0.8232677165354331
11
2.7920078740157481
21
0.8232677165354331
0
LINE
8
BLACK
6
CONTINUOUS
10
2.7920078740157481
20
0.8232677165354331
11
2.7920078740157481
21
0.8626377952755905
0
LINE
8
BLACK
6
CONTINUOUS
10
2.7920078740157481
20
0.8626377952755905
11
2.9179921259842518
21
0.8626377952755905
0
LINE
8
BLACK
6
CONTINUOUS
10
2.9179921259842518
20
0.8626377952755905
11
2.9179921259842518
21
0.8232677165354331
0
LINE
8
BLACK
6
CONTINUOUS
10
1.0024999999999999
20
0.83
11
0.9475
21
0.83
0
LINE
8
BLACK
6
CONTINUOUS
10
0.9475
20
0.83
11
0.9475
21
0.865
0
LINE
8
BLACK
6
CONTINUOUS
10
0.9475
20
0.865
11
1.0024999999999999
21
0.865
0
LINE
8
BLACK
6
CONTINUOUS
10
1.0024999999999999
20
0.865
11
1.0024999999999999
21
0.83
0
LINE
8
BLACK
6
CONTINUOUS
10
0.59575
20
0.8461
11
0.56425
21
0.8461
0
LINE
8
BLACK
6
CONTINUOUS
10
0.56425
20
0.8461
11
0.56425
21
0.8855
0
LINE
8
BLACK
6
CONTINUOUS
10
0.56425
20
0.8855
11
0.59575
21
0.8855
0
LINE
8
BLACK
6
CONTINUOUS
10
0.59575
20
0.8855
11
0.59575
21
0.8461
0
LINE
8
BLACK
6
CONTINUOUS
10
0.67075
20
0.8461
11
0.63925
21
0.8461
0
LINE
8
BLACK
6
CONTINUOUS
10
0.63925
20
0.8461
11
0.63925
21
0.8855
0
LINE
8
BLACK
6
CONTINUOUS
10
0.63925
20
0.8855
11
0.67075
21
0.8855
0
LINE
8
BLACK
6
CONTINUOUS
10
0.67075
20
0.8855
11
0.67075
21
0.8461
0
LINE
8
BLACK
6
CONTINUOUS
10
2.5
20
0.8525
11
2.4649999999999999
21
0.8525
0
LINE
8
BLACK
6
CONTINUOUS
10
2.4649999999999999
20
0.8525
11
2.4649999999999999
21
0.9075
0
LINE
8
BLACK
6
CONTINUOUS
10
2.4649999999999999
20
0.9075
11
2.5
21
0.9075
0
LINE
8
BLACK
6
CONTINUOUS
10
2.5
20
0.9075
11
2.5
21
0.8525
0
LINE
8
BLACK
6
CONTINUOUS
10
2.5749999999999997
20
0.8525
11
2.54
21
0.8525
0
LINE
8
BLACK
6
CONTINUOUS
10
2.54
20
0.8525
11
2.54
21
0.9075
0
LINE
8
BLACK
6
CONTINUOUS
10
2.54
20
0.9075
11
2.5749999999999997
21
0.9075
0
LINE
8
BLACK
6
CONTINUOUS
10
2.5749999999999997
20
0.9075
11
2.5749999999999997
21
0.8525
0
LINE
8
BLACK
6
CONTINUOUS
10
2.1474015748031494
20
0.8943700787401575
11
2.0903149606299212
21
0.8943700787401575
0
LINE
8
BLACK
6
CONTINUOUS
10
2.0903149606299212
20
0.8943700787401575
11
2.0903149606299212
21
0.9120866141732283
0
LINE
8
BLACK
6
CONTINUOUS
10
2.0903149606299212
20
0.9120866141732283
11
2.1474015748031494
21
0.9120866141732283
0
LINE
8
BLACK
6
CONTINUOUS
10
2.1474015748031494
20
0.9120866141732283
11
2.1474015748031494
21
0.8943700787401575
0
LINE
8
BLACK
6
CONTINUOUS
10
2.3796850393700786
20
0.8943700787401575
11
2.3225984251968503
21
0.8943700787401575
0
LINE
8
BLACK
6
CONTINUOUS
10
2.3225984251968503
20
0.8943700787401575
11
2.3225984251968503
21
0.9120866141732283
0
LINE
8
BLACK
6
CONTINUOUS
10
2.3225984251968503
20
0.9120866141732283
11
2.3796850393700786
21
0.9120866141732283
0
LINE
8
BLACK
6
CONTINUOUS
10
2.3796850393700786
20
0.9120866141732283
11
2.3796850393700786
21
0.8943700787401575
0
LINE
8
BLACK
6
CONTINUOUS
10
1.0024999999999999
20
0.905
11
0.9475
21
0.905
0
LINE
8
BLACK
6
CONTINUOUS
10
0.9475
20
0.905
11
0.9475
21
0.9399999999999999
0
LINE
8
BLACK
6
CONTINUOUS
10
0.9475
20
0.9399999999999999
11
1.0024999999999999
21
0.9399999999999999
0
LINE
8
BLACK
6
CONTINUOUS
10
1.0024999999999999
20
0.9399999999999999
11
1.0024999999999999
21
0.905
0
LINE
8
BLACK
6
CONTINUOUS
10
1.1952
20
0.9068499999999999
11
1.0948
21
0.9068499999999999
0
LINE
8
BLACK
6
CONTINUOUS
10
1.0948
20
0.9068499999999999
11
1.0948
21
1.01315
0
LINE
8
BLACK
6
CONTINUOUS
10
1.0948
20
1.01315
11
1.1952
21
1.01315
0
LINE
8
BLACK
6
CONTINUOUS
10
1.1952
20
1.01315
11
1.1952
21
0.9068499999999999
0
LINE
8
BLACK
6
CONTINUOUS
10
1.4452
20
0.9068499999999999
11
1.3448
21
0.9068499999999999
0
LINE
8
BLACK
6
CONTINUOUS
10
1.3448
20
0.9068499999999999
11
1.3448
21
1.01315
0
LINE
8
BLACK
6
CONTINUOUS
10
1.3448
20
1.01315
11
1.4452
21
1.01315
0
LINE
8
BLACK
6
CONTINUOUS
10
1.4452
20
1.01315
11
1.4452
21
0.9068499999999999
0
LINE
8
BLACK
6
CONTINUOUS
10
2.0124999999999997
20
0.91
11
1.9575
21
0.91
0
LINE
8
BLACK
6
CONTINUOUS
10
1.9575
20
0.91
11
1.9575
21
0.945
0
LINE
8
BLACK
6
CONTINUOUS
10
1.9575
20
0.945
11
2.0124999999999997
21
0.945
0
LINE
8
BLACK
6
CONTINUOUS
10
2.0124999999999997
20
0.945
11
2.0124999999999997
21
0.91
0
LINE
8
BLACK
6
CONTINUOUS
10
2.1474015748031494
20
0.9199606299212598
11
2.0903149606299212
21
0.9199606299212598
0
LINE
8
BLACK
6
CONTINUOUS
10
2.0903149606299212
20
0.9199606299212598
11
2.0903149606299212
21
0.9376771653543307
0
LINE
8
BLACK
6
CONTINUOUS
10
2.0903149606299212
20
0.9376771653543307
11
2.1474015748031494
21
0.9376771653543307
0
LINE
8
BLACK
6
CONTINUOUS
10
2.1474015748031494
20
0.9376771653543307
11
2.1474015748031494
21
0.9199606299212598
0
LINE
8
BLACK
6
CONTINUOUS
10
2.3796850393700786
20
0.9199606299212598
11
2.3225984251968503
21
0.9199606299212598
0
LINE
8
BLACK
6
CONTINUOUS
10
2.3225984251968503
20
0.9199606299212598
11
2.3225984251968503
21
0.9376771653543307
0
LINE
8
BLACK
6
CONTINUOUS
10
2.3225984251968503
20
0.9376771653543307
11
2.3796850393700786
21
0.9376771653543307
0
LINE
8
BLACK
6
CONTINUOUS
10
2.3796850393700786
20
0.9376771653543307
11
2.3796850393700786
21
0.9199606299212598
0
LINE
8
BLACK
6
CONTINUOUS
10
0.6274999999999999
20
0.9325
11
0.5725
21
0.9325
0
LINE
8
BLACK
6
CONTINUOUS
10
0.5725
20
0.9325
11
0.5725
21
0.9675
0
LINE
8
BLACK
6
CONTINUOUS
10
0.5725
20
0.9675
11
0.6274999999999999
21
0.9675
0
LINE
8
BLACK
6
CONTINUOUS
10
0.6274999999999999
20
0.9675
11
0.6274999999999999
21
0.9325
0
LINE
8
BLACK
6
CONTINUOUS
10
0.7
20
0.9325
11
0.645
21
0.9325
0
LINE
8
BLACK
6
CONTINUOUS
10
0.645
20
0.9325
11
0.645
21
0.9675
0
LINE
8
BLACK
6
CONTINUOUS
10
0.645
20
0.9675
11
0.7
21
0.9675
0
LINE
8
BLACK
6
CONTINUOUS
10
0.7
20
0.9675
11
0.7
21
0.9325
0
LINE
8
BLACK
6
CONTINUOUS
10
2.5074999999999998
20
0.9349999999999999
11
2.4525000000000001
21
0.9349999999999999
0
LINE
8
BLACK
6
CONTINUOUS
10
2.4525000000000001
20
0.9349999999999999
11
2.4525000000000001
21
0.97
0
LINE
8
BLACK
6
CONTINUOUS
10
2.4525000000000001
20
0.97
11
2.5074999999999998
21
0.97
0
LINE
8
BLACK
6
CONTINUOUS
10
2.5074999999999998
20
0.97
11
2.5074999999999998
21
0.9349999999999999
0
LINE
8
BLACK
6
CONTINUOUS
10
2.6074999999999999
20
0.9349999999999999
11
2.5524999999999998
21
0.9349999999999999
0
LINE
8
BLACK
6
CONTINUOUS
10
2.5524999999999998
20
0.9349999999999999
11
2.5524999999999998
21
0.97
0
LINE
8
BLACK
6
CONTINUOUS
10
2.5524999999999998
20
0.97
11
2.6074999999999999
21
0.97
0
LINE
8
BLACK
6
CONTINUOUS
10
2.6074999999999999
20
0.97
11
2.6074999999999999
21
0.9349999999999999
0
LINE
8
BLACK
6
CONTINUOUS
10
0.4436220472440945
20
0.9406299212598425
11
0.3963779527559055
21
0.9406299212598425
0
LINE
8
BLACK
6
CONTINUOUS
10
0.3963779527559055
20
0.9406299212598425
11
0.3963779527559055
21
1.0193700787401574
0
LINE
8
BLACK
6
CONTINUOUS
10
0.3963779527559055
20
1.0193700787401574
11
0.4436220472440945
21
1.0193700787401574
0
LINE
8
BLACK
6
CONTINUOUS
10
0.4436220472440945
20
1.0193700787401574
11
0.4436220472440945
21
0.9406299212598425
0
LINE
8
BLACK
6
CONTINUOUS
10
0.5436220472440945
20
0.9406299212598425
11
0.4963779527559055
21
0.9406299212598425
0
LINE
8
BLACK
6
CONTINUOUS
10
0.4963779527559055
20
0.9406299212598425
11
0.4963779527559055
21
1.0193700787401574
0
LINE
8
BLACK
6
CONTINUOUS
10
0.4963779527559055
20
1.0193700787401574
11
0.5436220472440945
21
1.0193700787401574
0
LINE
8
BLACK
6
CONTINUOUS
10
0.5436220472440945
20
1.0193700787401574
11
0.5436220472440945
21
0.9406299212598425
0
LINE
8
BLACK
6
CONTINUOUS
10
2.1474015748031494
20
0.9455511811023621
11
2.0903149606299212
21
0.9455511811023621
0
LINE
8
BLACK
6
CONTINUOUS
10
2.0903149606299212
20
0.9455511811023621
11
2.0903149606299212
21
0.9632677165354331
0
LINE
8
BLACK
6
CONTINUOUS
10
2.0903149606299212
20
0.9632677165354331
11
2.1474015748031494
21
0.9632677165354331
0
LINE
8
BLACK
6
CONTINUOUS
10
2.1474015748031494
20
0.9632677165354331
11
2.1474015748031494
21
0.9455511811023621
0
LINE
8
BLACK
6
CONTINUOUS
10
2.3796850393700786
20
0.9455511811023621
11
2.3225984251968503
21
0.9455511811023621
0
LINE
8
BLACK
6
CONTINUOUS
10
2.3225984251968503
20
0.9455511811023621
11
2.3225984251968503
21
0.9632677165354331
0
LINE
8
BLACK
6
CONTINUOUS
10
2.3225984251968503
20
0.9632677165354331
11
2.3796850393700786
21
0.9632677165354331
0
LINE
8
BLACK
6
CONTINUOUS
10
2.3796850393700786
20
0.9632677165354331
11
2.3796850393700786
21
0.9455511811023621
0
LINE
8
BLACK
6
CONTINUOUS
10
2.1474015748031494
20
0.9711417322834646
11
2.0903149606299212
21
0.9711417322834646
0
LINE
8
BLACK
6
CONTINUOUS
10
2.0903149606299212
20
0.9711417322834646
11
2.0903149606299212
21
0.9888582677165354
0
LINE
8
BLACK
6
CONTINUOUS
10
2.0903149606299212
20
0.9888582677165354
11
2.1474015748031494
21
0.9888582677165354
0
LINE
8
BLACK
6
CONTINUOUS
10
2.1474015748031494
20
0.9888582677165354
11
2.1474015748031494
21
0.9711417322834646
0
LINE
8
BLACK
6
CONTINUOUS
10
2.3796850393700786
20
0.9711417322834646
11
2.3225984251968503
21
0.9711417322834646
0
LINE
8
BLACK
6
CONTINUOUS
10
2.3225984251968503
20
0.9711417322834646
11
2.3225984251968503
21
0.9888582677165354
0
LINE
8
BLACK
6
CONTINUOUS
10
2.3225984251968503
20
0.9888582677165354
11
2.3796850393700786
21
0.9888582677165354
0
LINE
8
BLACK
6
CONTINUOUS
10
2.3796850393700786
20
0.9888582677165354
11
2.3796850393700786
21
0.9711417322834646
0
LINE
8
BLACK
6
CONTINUOUS
10
2.0124999999999997
20
0.985
11
1.9575
21
0.985
0
LINE
8
BLACK
6
CONTINUOUS
10
1.9575
20
0.985
11
1.9575
21
1.02
0
LINE
8
BLACK
6
CONTINUOUS
10
1.9575
20
1.02
11
2.0124999999999997
21
1.02
0
LINE
8
BLACK
6
CONTINUOUS
10
2.0124999999999997
20
1.02
11
2.0124999999999997
21
0.985
0
LINE
8
BLACK
6
CONTINUOUS
10
2.6899999999999999
20
0.9924999999999999
11
2.6549999999999998
21
0.9924999999999999
0
LINE
8
BLACK
6
CONTINUOUS
10
2.6549999999999998
20
0.9924999999999999
11
2.6549999999999998
21
1.0474999999999999
0
LINE
8
BLACK
6
CONTINUOUS
10
2.6549999999999998
20
1.0474999999999999
11
2.6899999999999999
21
1.0474999999999999
0
LINE
8
BLACK
6
CONTINUOUS
10
2.6899999999999999
20
1.0474999999999999
11
2.6899999999999999
21
0.9924999999999999
0
LINE
8
BLACK
6
CONTINUOUS
10
2.7650000000000001
20
0.9924999999999999
11
2.73
21
0.9924999999999999
0
LINE
8
BLACK
6
CONTINUOUS
10
2.73
20
0.9924999999999999
11
2.73
21
1.0474999999999999
0
LINE
8
BLACK
6
CONTINUOUS
10
2.73
20
1.0474999999999999
11
2.7650000000000001
21
1.0474999999999999
0
LINE
8
BLACK
6
CONTINUOUS
10
2.7650000000000001
20
1.0474999999999999
11
2.7650000000000001
21
0.9924999999999999
0
LINE
8
BLACK
6
CONTINUOUS
10
2.1474015748031494
20
0.9967322834645669
11
2.0903149606299212
21
0.9967322834645669
0
LINE
8
BLACK
6
CONTINUOUS
10
2.0903149606299212
20
0.9967322834645669
11
2.0903149606299212
21
1.0144488188976377
0
LINE
8
BLACK
6
CONTINUOUS
10
2.0903149606299212
20
1.0144488188976377
11
2.1474015748031494
21
1.0144488188976377
0
LINE
8
BLACK
6
CONTINUOUS
10
2.1474015748031494
20
1.0144488188976377
11
2.1474015748031494
21
0.9967322834645669
0
LINE
8
BLACK
6
CONTINUOUS
10
2.3796850393700786
20
0.9967322834645669
11
2.3225984251968503
21
0.9967322834645669
0
LINE
8
BLACK
6
CONTINUOUS
10
2.3225984251968503
20
0.9967322834645669
11
2.3225984251968503
21
1.0144488188976377
0
LINE
8
BLACK
6
CONTINUOUS
10
2.3225984251968503
20
1.0144488188976377
11
2.3796850393700786
21
1.0144488188976377
0
LINE
8
BLACK
6
CONTINUOUS
10
2.3796850393700786
20
1.0144488188976377
11
2.3796850393700786
21
0.9967322834645669
0
LINE
8
BLACK
6
CONTINUOUS
10
0.3775
20
1.0049999999999999
11
0.3225
21
1.0049999999999999
0
LINE
8
BLACK
6
CONTINUOUS
10
0.3225
20
1.0049999999999999
11
0.3225
21
1.04
0
LINE
8
BLACK
6
CONTINUOUS
10
0.3225
20
1.04
11
0.3775
21
1.04
0
LINE
8
BLACK
6
CONTINUOUS
10
0.3775
20
1.04
11
0.3775
21
1.0049999999999999
0
LINE
8
BLACK
6
CONTINUOUS
10
0.6274999999999999
20
1.0075000000000001
11
0.5725
21
1.0075000000000001
0
LINE
8
BLACK
6
CONTINUOUS
10
0.5725
20
1.0075000000000001
11
0.5725
21
1.0425
0
LINE
8
BLACK
6
CONTINUOUS
10
0.5725
20
1.0425
11
0.6274999999999999
21
1.0425
0
LINE
8
BLACK
6
CONTINUOUS
10
0.6274999999999999
20
1.0425
11
0.6274999999999999
21
1.0075000000000001
0
LINE
8
BLACK
6
CONTINUOUS
10
0.7
20
1.0075000000000001
11
0.645
21
1.0075000000000001
0
LINE
8
BLACK
6
CONTINUOUS
10
0.645
20
1.0075000000000001
11
0.645
21
1.0425
0
LINE
8
BLACK
6
CONTINUOUS
10
0.645
20
1.0425
11
0.7
21
1.0425
0
LINE
8
BLACK
6
CONTINUOUS
10
0.7
20
1.0425
11
0.7
21
1.0075000000000001
0
LINE
8
BLACK
6
CONTINUOUS
10
2.5074999999999998
20
1.01
11
2.4525000000000001
21
1.01
0
LINE
8
BLACK
6
CONTINUOUS
10
2.4525000000000001
20
1.01
11
2.4525000000000001
21
1.0449999999999999
0
LINE
8
BLACK
6
CONTINUOUS
10
2.4525000000000001
20
1.0449999999999999
11
2.5074999999999998
21
1.0449999999999999
0
LINE
8
BLACK
6
CONTINUOUS
10
2.5074999999999998
20
1.0449999999999999
11
2.5074999999999998
21
1.01
0
LINE
8
BLACK
6
CONTINUOUS
10
2.6074999999999999
20
1.01
11
2.5524999999999998
21
1.01
0
LINE
8
BLACK
6
CONTINUOUS
10
2.5524999999999998
20
1.01
11
2.5524999999999998
21
1.0449999999999999
0
LINE
8
BLACK
6
CONTINUOUS
10
2.5524999999999998
20
1.0449999999999999
11
2.6074999999999999
21
1.0449999999999999
0
LINE
8
BLACK
6
CONTINUOUS
10
2.6074999999999999
20
1.0449999999999999
11
2.6074999999999999
21
1.01
0
LINE
8
BLACK
6
CONTINUOUS
10
2.1474015748031494
20
1.0223228346456692
11
2.0903149606299212
21
1.0223228346456692
0
LINE
8
BLACK
6
CONTINUOUS
10
2.0903149606299212
20
1.0223228346456692
11
2.0903149606299212
21
1.04003937007874
0
LINE
8
BLACK
6
CONTINUOUS
10
2.0903149606299212
20
1.04003937007874
11
2.1474015748031494
21
1.04003937007874
0
LINE
8
BLACK
6
CONTINUOUS
10
2.1474015748031494
20
1.04003937007874
11
2.1474015748031494
21
1.0223228346456692
0
LINE
8
BLACK
6
CONTINUOUS
10
2.3796850393700786
20
1.0223228346456692
11
2.3225984251968503
21
1.0223228346456692
0
LINE
8
BLACK
6
CONTINUOUS
10
2.3225984251968503
20
1.0223228346456692
11
2.3225984251968503
21
1.04003937007874
0
LINE
8
BLACK
6
CONTINUOUS
10
2.3225984251968503
20
1.04003937007874
11
2.3796850393700786
21
1.04003937007874
0
LINE
8
BLACK
6
CONTINUOUS
10
2.3796850393700786
20
1.04003937007874
11
2.3796850393700786
21
1.0223228346456692
0
LINE
8
BLACK
6
CONTINUOUS
10
2.1474015748031494
20
1.0479133858267717
11
2.0903149606299212
21
1.0479133858267717
0
LINE
8
BLACK
6
CONTINUOUS
10
2.0903149606299212
20
1.0479133858267717
11
2.0903149606299212
21
1.0656299212598426
0
LINE
8
BLACK
6
CONTINUOUS
10
2.0903149606299212
20
1.0656299212598426
11
2.1474015748031494
21
1.0656299212598426
0
LINE
8
BLACK
6
CONTINUOUS
10
2.1474015748031494
20
1.0656299212598426
11
2.1474015748031494
21
1.0479133858267717
0
LINE
8
BLACK
6
CONTINUOUS
10
2.3796850393700786
20
1.0479133858267717
11
2.3225984251968503
21
1.0479133858267717
0
LINE
8
BLACK
6
CONTINUOUS
10
2.3225984251968503
20
1.0479133858267717
11
2.3225984251968503
21
1.0656299212598426
0
LINE
8
BLACK
6
CONTINUOUS
10
2.3225984251968503
20
1.0656299212598426
11
2.3796850393700786
21
1.0656299212598426
0
LINE
8
BLACK
6
CONTINUOUS
10
2.3796850393700786
20
1.0656299212598426
11
2.3796850393700786
21
1.0479133858267717
0
LINE
8
BLACK
6
CONTINUOUS
10
0.64
20
1.0625
11
0.605
21
1.0625
0
LINE
8
BLACK
6
CONTINUOUS
10
0.605
20
1.0625
11
0.605
21
1.1174999999999999
0
LINE
8
BLACK
6
CONTINUOUS
10
0.605
20
1.1174999999999999
11
0.64
21
1.1174999999999999
0
LINE
8
BLACK
6
CONTINUOUS
10
0.64
20
1.1174999999999999
11
0.64
21
1.0625
0
LINE
8
BLACK
6
CONTINUOUS
10
0.715
20
1.0625
11
0.6799999999999999
21
1.0625
0
LINE
8
BLACK
6
CONTINUOUS
10
0.6799999999999999
20
1.0625
11
0.6799999999999999
21
1.1174999999999999
0
LINE
8
BLACK
6
CONTINUOUS
10
0.6799999999999999
20
1.1174999999999999
11
0.715
21
1.1174999999999999
0
LINE
8
BLACK
6
CONTINUOUS
10
0.715
20
1.1174999999999999
11
0.715
21
1.0625
0
LINE
8
BLACK
6
CONTINUOUS
10
2.9179921259842518
20
1.0673622047244093
11
2.7920078740157481
21
1.0673622047244093
0
LINE
8
BLACK
6
CONTINUOUS
10
2.7920078740157481
20
1.0673622047244093
11
2.7920078740157481
21
1.106732283464567
0
LINE
8
BLACK
6
CONTINUOUS
10
2.7920078740157481
20
1.106732283464567
11
2.9179921259842518
21
1.106732283464567
0
LINE
8
BLACK
6
CONTINUOUS
10
2.9179921259842518
20
1.106732283464567
11
2.9179921259842518
21
1.0673622047244093
0
LINE
8
BLACK
6
CONTINUOUS
10
0.4486614173228347
20
1.0747244094488189
11
0.4151968503937008
21
1.0747244094488189
0
LINE
8
BLACK
6
CONTINUOUS
10
0.4151968503937008
20
1.0747244094488189
11
0.4151968503937008
21
1.088503937007874
0
LINE
8
BLACK
6
CONTINUOUS
10
0.4151968503937008
20
1.088503937007874
11
0.4486614173228347
21
1.088503937007874
0
LINE
8
BLACK
6
CONTINUOUS
10
0.4486614173228347
20
1.088503937007874
11
0.4486614173228347
21
1.0747244094488189
0
LINE
8
BLACK
6
CONTINUOUS
10
0.5648031496062992
20
1.0747244094488189
11
0.5313385826771654
21
1.0747244094488189
0
LINE
8
BLACK
6
CONTINUOUS
10
0.5313385826771654
20
1.0747244094488189
11
0.5313385826771654
21
1.088503937007874
0
LINE
8
BLACK
6
CONTINUOUS
10
0.5313385826771654
20
1.088503937007874
11
0.5648031496062992
21
1.088503937007874
0
LINE
8
BLACK
6
CONTINUOUS
10
0.5648031496062992
20
1.088503937007874
11
0.5648031496062992
21
1.0747244094488189
0
LINE
8
BLACK
6
CONTINUOUS
10
0.21
20
1.0774999999999999
11
0.175
21
1.0774999999999999
0
LINE
8
BLACK
6
CONTINUOUS
10
0.175
20
1.0774999999999999
11
0.175
21
1.1325000000000001
0
LINE
8
BLACK
6
CONTINUOUS
10
0.175
20
1.1325000000000001
11
0.21
21
1.1325000000000001
0
LINE
8
BLACK
6
CONTINUOUS
10
0.21
20
1.1325000000000001
11
0.21
21
1.0774999999999999
0
LINE
8
BLACK
6
CONTINUOUS
10
0.285
20
1.0774999999999999
11
0.25
21
1.0774999999999999
0
LINE
8
BLACK
6
CONTINUOUS
10
0.25
20
1.0774999999999999
11
0.25
21
1.1325000000000001
0
LINE
8
BLACK
6
CONTINUOUS
10
0.25
20
1.1325000000000001
11
0.285
21
1.1325000000000001
0
LINE
8
BLACK
6
CONTINUOUS
10
0.285
20
1.1325000000000001
11
0.285
21
1.0774999999999999
0
LINE
8
BLACK
6
CONTINUOUS
10
1.1932677165354331
20
1.0790944881889764
11
0.9767322834645669
21
1.0790944881889764
0
LINE
8
BLACK
6
CONTINUOUS
10
0.9767322834645669
20
1.0790944881889764
11
0.9767322834645669
21
1.1972047244094488
0
LINE
8
BLACK
6
CONTINUOUS
10
0.9767322834645669
20
1.1972047244094488
11
1.1932677165354331
21
1.1972047244094488
0
LINE
8
BLACK
6
CONTINUOUS
10
1.1932677165354331
20
1.1972047244094488
11
1.1932677165354331
21
1.0790944881889764
0
LINE
8
BLACK
6
CONTINUOUS
10
0.3775
20
1.0800000000000001
11
0.3225
21
1.0800000000000001
0
LINE
8
BLACK
6
CONTINUOUS
10
0.3225
20
1.0800000000000001
11
0.3225
21
1.115
0
LINE
8
BLACK
6
CONTINUOUS
10
0.3225
20
1.115
11
0.3775
21
1.115
0
LINE
8
BLACK
6
CONTINUOUS
10
0.3775
20
1.115
11
0.3775
21
1.0800000000000001
0
LINE
8
BLACK
6
CONTINUOUS
10
0.5175590551181102
20
1.0806299212598425
11
0.4624409448818897
21
1.0806299212598425
0
LINE
8
BLACK
6
CONTINUOUS
10
0.4624409448818897
20
1.0806299212598425
11
0.4624409448818897
21
1.1593700787401575
0
LINE
8
BLACK
6
CONTINUOUS
10
0.4624409448818897
20
1.1593700787401575
11
0.5175590551181102
21
1.1593700787401575
0
LINE
8
BLACK
6
CONTINUOUS
10
0.5175590551181102
20
1.1593700787401575
11
0.5175590551181102
21
1.0806299212598425
0
LINE
8
BLACK
6
CONTINUOUS
10
2.5
20
1.0925
11
2.4649999999999999
21
1.0925
0
LINE
8
BLACK
6
CONTINUOUS
10
2.4649999999999999
20
1.0925
11
2.4649999999999999
21
1.1475
0
LINE
8
BLACK
6
CONTINUOUS
10
2.4649999999999999
20
1.1475
11
2.5
21
1.1475
0
LINE
8
BLACK
6
CONTINUOUS
10
2.5
20
1.1475
11
2.5
21
1.0925
0
LINE
8
BLACK
6
CONTINUOUS
10
2.5749999999999997
20
1.0925
11
2.54
21
1.0925
0
LINE
8
BLACK
6
CONTINUOUS
10
2.54
20
1.0925
11
2.54
21
1.1475
0
LINE
8
BLACK
6
CONTINUOUS
10
2.54
20
1.1475
11
2.5749999999999997
21
1.1475
0
LINE
8
BLACK
6
CONTINUOUS
10
2.5749999999999997
20
1.1475
11
2.5749999999999997
21
1.0925
0
LINE
8
BLACK
6
CONTINUOUS
10
0.4486614173228347
20
1.1003149606299212
11
0.4151968503937008
21
1.1003149606299212
0
LINE
8
BLACK
6
CONTINUOUS
10
0.4151968503937008
20
1.1003149606299212
11
0.4151968503937008
21
1.1140944881889763
0
LINE
8
BLACK
6
CONTINUOUS
10
0.4151968503937008
20
1.1140944881889763
11
0.4486614173228347
21
1.1140944881889763
0
LINE
8
BLACK
6
CONTINUOUS
10
0.4486614173228347
20
1.1140944881889763
11
0.4486614173228347
21
1.1003149606299212
0
LINE
8
BLACK
6
CONTINUOUS
10
0.5648031496062992
20
1.1003149606299212
11
0.5313385826771654
21
1.1003149606299212
0
LINE
8
BLACK
6
CONTINUOUS
10
0.5313385826771654
20
1.1003149606299212
11
0.5313385826771654
21
1.1140944881889763
0
LINE
8
BLACK
6
CONTINUOUS
10
0.5313385826771654
20
1.1140944881889763
11
0.5648031496062992
21
1.1140944881889763
0
LINE
8
BLACK
6
CONTINUOUS
10
0.5648031496062992
20
1.1140944881889763
11
0.5648031496062992
21
1.1003149606299212
0
LINE
8
BLACK
6
CONTINUOUS
10
2.0524999999999998
20
1.125
11
2.0175000000000001
21
1.125
0
LINE
8
BLACK
6
CONTINUOUS
10
2.0175000000000001
20
1.125
11
2.0175000000000001
21
1.1799999999999999
0
LINE
8
BLACK
6
CONTINUOUS
10
2.0175000000000001
20
1.1799999999999999
11
2.0524999999999998
21
1.1799999999999999
0
LINE
8
BLACK
6
CONTINUOUS
10
2.0524999999999998
20
1.1799999999999999
11
2.0524999999999998
21
1.125
0
LINE
8
BLACK
6
CONTINUOUS
10
2.1274999999999999
20
1.125
11
2.0924999999999998
21
1.125
0
LINE
8
BLACK
6
CONTINUOUS
10
2.0924999999999998
20
1.125
11
2.0924999999999998
21
1.1799999999999999
0
LINE
8
BLACK
6
CONTINUOUS
10
2.0924999999999998
20
1.1799999999999999
11
2.1274999999999999
21
1.1799999999999999
0
LINE
8
BLACK
6
CONTINUOUS
10
2.1274999999999999
20
1.1799999999999999
11
2.1274999999999999
21
1.125
0
LINE
8
BLACK
6
CONTINUOUS
10
0.4486614173228347
20
1.1259055118110235
11
0.4151968503937008
21
1.1259055118110235
0
LINE
8
BLACK
6
CONTINUOUS
10
0.4151968503937008
20
1.1259055118110235
11
0.4151968503937008
21
1.1396850393700788
0
LINE
8
BLACK
6
CONTINUOUS
10
0.4151968503937008
20
1.1396850393700788
11
0.4486614173228347
21
1.1396850393700788
0
LINE
8
BLACK
6
CONTINUOUS
10
0.4486614173228347
20
1.1396850393700788
11
0.4486614173228347
21
1.1259055118110235
0
LINE
8
BLACK
6
CONTINUOUS
10
0.5648031496062992
20
1.1259055118110235
11
0.5313385826771654
21
1.1259055118110235
0
LINE
8
BLACK
6
CONTINUOUS
10
0.5313385826771654
20
1.1259055118110235
11
0.5313385826771654
21
1.1396850393700788
0
LINE
8
BLACK
6
CONTINUOUS
10
0.5313385826771654
20
1.1396850393700788
11
0.5648031496062992
21
1.1396850393700788
0
LINE
8
BLACK
6
CONTINUOUS
10
0.5648031496062992
20
1.1396850393700788
11
0.5648031496062992
21
1.1259055118110235
0
LINE
8
BLACK
6
CONTINUOUS
10
1.7920922047244094
20
1.2005865354330709
11
1.7948051181102362
21
1.1990202362204725
0
LINE
8
BLACK
6
CONTINUOUS
10
1.7948051181102362
20
1.1990202362204725
11
1.7970202362204724
21
1.1968051181102362
0
LINE
8
BLACK
6
CONTINUOUS
10
1.7970202362204724
20
1.1968051181102362
11
1.7985865354330708
21
1.1940922047244094
0
LINE
8
BLACK
6
CONTINUOUS
10
1.7985865354330708
20
1.1940922047244094
11
1.7993973228346456
21
1.1910662992125984
0
LINE
8
BLACK
6
CONTINUOUS
10
1.7993973228346456
20
1.1910662992125984
11
1.7994999999999999
21
1.1555
0
LINE
8
BLACK
6
CONTINUOUS
10
1.7994999999999999
20
1.1555
11
1.7993973228346456
21
1.1539337007874015
0
LINE
8
BLACK
6
CONTINUOUS
10
1.7993973228346456
20
1.1539337007874015
11
1.7985865354330708
21
1.1509077952755906
0
LINE
8
BLACK
6
CONTINUOUS
10
1.7985865354330708
20
1.1509077952755906
11
1.7970202362204724
21
1.1481948818897638
0
LINE
8
BLACK
6
CONTINUOUS
10
1.7970202362204724
20
1.1481948818897638
11
1.7948051181102362
21
1.1459797637795275
0
LINE
8
BLACK
6
CONTINUOUS
10
1.7948051181102362
20
1.1459797637795275
11
1.7920922047244094
21
1.1444134645669291
0
LINE
8
BLACK
6
CONTINUOUS
10
1.7920922047244094
20
1.1444134645669291
11
1.7890662992125983
21
1.1436026771653542
0
LINE
8
BLACK
6
CONTINUOUS
10
1.7890662992125983
20
1.1436026771653542
11
1.7859337007874014
21
1.1436026771653542
0
LINE
8
BLACK
6
CONTINUOUS
10
1.7859337007874014
20
1.1436026771653542
11
1.7829077952755905
21
1.1444134645669291
0
LINE
8
BLACK
6
CONTINUOUS
10
1.7829077952755905
20
1.1444134645669291
11
1.7801948818897637
21
1.1459797637795275
0
LINE
8
BLACK
6
CONTINUOUS
10
1.7801948818897637
20
1.1459797637795275
11
1.7779797637795276
21
1.1481948818897638
0
LINE
8
BLACK
6
CONTINUOUS
10
1.7779797637795276
20
1.1481948818897638
11
1.7764134645669292
21
1.1509077952755906
0
LINE
8
BLACK
6
CONTINUOUS
10
1.7764134645669292
20
1.1509077952755906
11
1.7756026771653544
21
1.1539337007874015
0
LINE
8
BLACK
6
CONTINUOUS
10
1.7756026771653544
20
1.1539337007874015
11
1.7754999999999999
21
1.1895
0
LINE
8
BLACK
6
CONTINUOUS
10
1.7754999999999999
20
1.1895
11
1.7756026771653544
21
1.1910662992125984
0
LINE
8
BLACK
6
CONTINUOUS
10
1.7756026771653544
20
1.1910662992125984
11
1.7764134645669292
21
1.1940922047244094
0
LINE
8
BLACK
6
CONTINUOUS
10
1.7764134645669292
20
1.1940922047244094
11
1.7779797637795276
21
1.1968051181102362
0
LINE
8
BLACK
6
CONTINUOUS
10
1.7779797637795276
20
1.1968051181102362
11
1.7801948818897637
21
1.1990202362204725
0
LINE
8
BLACK
6
CONTINUOUS
10
1.7801948818897637
20
1.1990202362204725
11
1.7829077952755905
21
1.2005865354330709
0
LINE
8
BLACK
6
CONTINUOUS
10
1.7829077952755905
20
1.2005865354330709
11
1.7859337007874014
21
1.2013973228346457
0
LINE
8
BLACK
6
CONTINUOUS
10
1.7859337007874014
20
1.2013973228346457
11
1.7890662992125983
21
1.2013973228346457
0
LINE
8
BLACK
6
CONTINUOUS
10
1.7890662992125983
20
1.2013973228346457
11
1.7920922047244094
21
1.2005865354330709
0
LINE
8
BLACK
6
CONTINUOUS
10
1.8420922047244095
20
1.2005865354330709
11
1.8448051181102363
21
1.1990202362204725
0
LINE
8
BLACK
6
CONTINUOUS
10
1.8448051181102363
20
1.1990202362204725
11
1.8470202362204724
21
1.1968051181102362
0
LINE
8
BLACK
6
CONTINUOUS
10
1.8470202362204724
20
1.1968051181102362
11
1.8485865354330708
21
1.1940922047244094
0
LINE
8
BLACK
6
CONTINUOUS
10
1.8485865354330708
20
1.1940922047244094
11
1.8493973228346456
21
1.1910662992125984
0
LINE
8
BLACK
6
CONTINUOUS
10
1.8493973228346456
20
1.1910662992125984
11
1.8494999999999999
21
1.1555
0
LINE
8
BLACK
6
CONTINUOUS
10
1.8494999999999999
20
1.1555
11
1.8493973228346456
21
1.1539337007874015
0
LINE
8
BLACK
6
CONTINUOUS
10
1.8493973228346456
20
1.1539337007874015
11
1.8485865354330708
21
1.1509077952755906
0
LINE
8
BLACK
6
CONTINUOUS
10
1.8485865354330708
20
1.1509077952755906
11
1.8470202362204724
21
1.1481948818897638
0
LINE
8
BLACK
6
CONTINUOUS
10
1.8470202362204724
20
1.1481948818897638
11
1.8448051181102363
21
1.1459797637795275
0
LINE
8
BLACK
6
CONTINUOUS
10
1.8448051181102363
20
1.1459797637795275
11
1.8420922047244095
21
1.1444134645669291
0
LINE
8
BLACK
6
CONTINUOUS
10
1.8420922047244095
20
1.1444134645669291
11
1.8390662992125983
21
1.1436026771653542
0
LINE
8
BLACK
6
CONTINUOUS
10
1.8390662992125983
20
1.1436026771653542
11
1.8359337007874015
21
1.1436026771653542
0
LINE
8
BLACK
6
CONTINUOUS
10
1.8359337007874015
20
1.1436026771653542
11
1.8329077952755906
21
1.1444134645669291
0
LINE
8
BLACK
6
CONTINUOUS
10
1.8329077952755906
20
1.1444134645669291
11
1.8301948818897638
21
1.1459797637795275
0
LINE
8
BLACK
6
CONTINUOUS
10
1.8301948818897638
20
1.1459797637795275
11
1.8279797637795274
21
1.1481948818897638
0
LINE
8
BLACK
6
CONTINUOUS
10
1.8279797637795274
20
1.1481948818897638
11
1.826413464566929
21
1.1509077952755906
0
LINE
8
BLACK
6
CONTINUOUS
10
1.826413464566929
20
1.1509077952755906
11
1.8256026771653542
21
1.1539337007874015
0
LINE
8
BLACK
6
CONTINUOUS
10
1.8256026771653542
20
1.1539337007874015
11
1.8254999999999999
21
1.1895
0
LINE
8
BLACK
6
CONTINUOUS
10
1.8254999999999999
20
1.1895
11
1.8256026771653542
21
1.1910662992125984
0
LINE
8
BLACK
6
CONTINUOUS
10
1.8256026771653542
20
1.1910662992125984
11
1.826413464566929
21
1.1940922047244094
0
LINE
8
BLACK
6
CONTINUOUS
10
1.826413464566929
20
1.1940922047244094
11
1.8279797637795274
21
1.1968051181102362
0
LINE
8
BLACK
6
CONTINUOUS
10
1.8279797637795274
20
1.1968051181102362
11
1.8301948818897638
21
1.1990202362204725
0
LINE
8
BLACK
6
CONTINUOUS
10
1.8301948818897638
20
1.1990202362204725
11
1.8329077952755906
21
1.2005865354330709
0
LINE
8
BLACK
6
CONTINUOUS
10
1.8329077952755906
20
1.2005865354330709
11
1.8359337007874015
21
1.2013973228346457
0
LINE
8
BLACK
6
CONTINUOUS
10
1.8359337007874015
20
1.2013973228346457
11
1.8390662992125983
21
1.2013973228346457
0
LINE
8
BLACK
6
CONTINUOUS
10
1.8390662992125983
20
1.2013973228346457
11
1.8420922047244095
21
1.2005865354330709
0
LINE
8
BLACK
6
CONTINUOUS
10
1.8920922047244093
20
1.2005865354330709
11
1.8948051181102361
21
1.1990202362204725
0
LINE
8
BLACK
6
CONTINUOUS
10
1.8948051181102361
20
1.1990202362204725
11
1.8970202362204724
21
1.1968051181102362
0
LINE
8
BLACK
6
CONTINUOUS
10
1.8970202362204724
20
1.1968051181102362
11
1.8985865354330709
21
1.1940922047244094
0
LINE
8
BLACK
6
CONTINUOUS
10
1.8985865354330709
20
1.1940922047244094
11
1.8993973228346457
21
1.1910662992125984
0
LINE
8
BLACK
6
CONTINUOUS
10
1.8993973228346457
20
1.1910662992125984
11
1.8995
21
1.1555
0
LINE
8
BLACK
6
CONTINUOUS
10
1.8995
20
1.1555
11
1.8993973228346457
21
1.1539337007874015
0
LINE
8
BLACK
6
CONTINUOUS
10
1.8993973228346457
20
1.1539337007874015
11
1.8985865354330709
21
1.1509077952755906
0
LINE
8
BLACK
6
CONTINUOUS
10
1.8985865354330709
20
1.1509077952755906
11
1.8970202362204724
21
1.1481948818897638
0
LINE
8
BLACK
6
CONTINUOUS
10
1.8970202362204724
20
1.1481948818897638
11
1.8948051181102361
21
1.1459797637795275
0
LINE
8
BLACK
6
CONTINUOUS
10
1.8948051181102361
20
1.1459797637795275
11
1.8920922047244093
21
1.1444134645669291
0
LINE
8
BLACK
6
CONTINUOUS
10
1.8920922047244093
20
1.1444134645669291
11
1.8890662992125984
21
1.1436026771653542
0
LINE
8
BLACK
6
CONTINUOUS
10
1.8890662992125984
20
1.1436026771653542
11
1.8859337007874015
21
1.1436026771653542
0
LINE
8
BLACK
6
CONTINUOUS
10
1.8859337007874015
20
1.1436026771653542
11
1.8829077952755906
21
1.1444134645669291
0
LINE
8
BLACK
6
CONTINUOUS
10
1.8829077952755906
20
1.1444134645669291
11
1.8801948818897638
21
1.1459797637795275
0
LINE
8
BLACK
6
CONTINUOUS
10
1.8801948818897638
20
1.1459797637795275
11
1.8779797637795275
21
1.1481948818897638
0
LINE
8
BLACK
6
CONTINUOUS
10
1.8779797637795275
20
1.1481948818897638
11
1.876413464566929
21
1.1509077952755906
0
LINE
8
BLACK
6
CONTINUOUS
10
1.876413464566929
20
1.1509077952755906
11
1.8756026771653542
21
1.1539337007874015
0
LINE
8
BLACK
6
CONTINUOUS
10
1.8756026771653542
20
1.1539337007874015
11
1.8754999999999999
21
1.1895
0
LINE
8
BLACK
6
CONTINUOUS
10
1.8754999999999999
20
1.1895
11
1.8756026771653542
21
1.1910662992125984
0
LINE
8
BLACK
6
CONTINUOUS
10
1.8756026771653542
20
1.1910662992125984
11
1.876413464566929
21
1.1940922047244094
0
LINE
8
BLACK
6
CONTINUOUS
10
1.876413464566929
20
1.1940922047244094
11
1.8779797637795275
21
1.1968051181102362
0
LINE
8
BLACK
6
CONTINUOUS
10
1.8779797637795275
20
1.1968051181102362
11
1.8801948818897638
21
1.1990202362204725
0
LINE
8
BLACK
6
CONTINUOUS
10
1.8801948818897638
20
1.1990202362204725
11
1.8829077952755906
21
1.2005865354330709
0
LINE
8
BLACK
6
CONTINUOUS
10
1.8829077952755906
20
1.2005865354330709
11
1.8859337007874015
21
1.2013973228346457
0
LINE
8
BLACK
6
CONTINUOUS
10
1.8859337007874015
20
1.2013973228346457
11
1.8890662992125984
21
1.2013973228346457
0
LINE
8
BLACK
6
CONTINUOUS
10
1.8890662992125984
20
1.2013973228346457
11
1.8920922047244093
21
1.2005865354330709
0
LINE
8
BLACK
6
CONTINUOUS
10
1.9420922047244094
20
1.2005865354330709
11
1.9448051181102362
21
1.1990202362204725
0
LINE
8
BLACK
6
CONTINUOUS
10
1.9448051181102362
20
1.1990202362204725
11
1.9470202362204725
21
1.1968051181102362
0
LINE
8
BLACK
6
CONTINUOUS
10
1.9470202362204725
20
1.1968051181102362
11
1.9485865354330709
21
1.1940922047244094
0
LINE
8
BLACK
6
CONTINUOUS
10
1.9485865354330709
20
1.1940922047244094
11
1.9493973228346457
21
1.1910662992125984
0
LINE
8
BLACK
6
CONTINUOUS
10
1.9493973228346457
20
1.1910662992125984
11
1.9495
21
1.1555
0
LINE
8
BLACK
6
CONTINUOUS
10
1.9495
20
1.1555
11
1.9493973228346457
21
1.1539337007874015
0
LINE
8
BLACK
6
CONTINUOUS
10
1.9493973228346457
20
1.1539337007874015
11
1.9485865354330709
21
1.1509077952755906
0
LINE
8
BLACK
6
CONTINUOUS
10
1.9485865354330709
20
1.1509077952755906
11
1.9470202362204725
21
1.1481948818897638
0
LINE
8
BLACK
6
CONTINUOUS
10
1.9470202362204725
20
1.1481948818897638
11
1.9448051181102362
21
1.1459797637795275
0
LINE
8
BLACK
6
CONTINUOUS
10
1.9448051181102362
20
1.1459797637795275
11
1.9420922047244094
21
1.1444134645669291
0
LINE
8
BLACK
6
CONTINUOUS
10
1.9420922047244094
20
1.1444134645669291
11
1.9390662992125984
21
1.1436026771653542
0
LINE
8
BLACK
6
CONTINUOUS
10
1.9390662992125984
20
1.1436026771653542
11
1.9359337007874016
21
1.1436026771653542
0
LINE
8
BLACK
6
CONTINUOUS
10
1.9359337007874016
20
1.1436026771653542
11
1.9329077952755904
21
1.1444134645669291
0
LINE
8
BLACK
6
CONTINUOUS
10
1.9329077952755904
20
1.1444134645669291
11
1.9301948818897636
21
1.1459797637795275
0
LINE
8
BLACK
6
CONTINUOUS
10
1.9301948818897636
20
1.1459797637795275
11
1.9279797637795275
21
1.1481948818897638
0
LINE
8
BLACK
6
CONTINUOUS
10
1.9279797637795275
20
1.1481948818897638
11
1.9264134645669291
21
1.1509077952755906
0
LINE
8
BLACK
6
CONTINUOUS
10
1.9264134645669291
20
1.1509077952755906
11
1.9256026771653543
21
1.1539337007874015
0
LINE
8
BLACK
6
CONTINUOUS
10
1.9256026771653543
20
1.1539337007874015
11
1.9255
21
1.1895
0
LINE
8
BLACK
6
CONTINUOUS
10
1.9255
20
1.1895
11
1.9256026771653543
21
1.1910662992125984
0
LINE
8
BLACK
6
CONTINUOUS
10
1.9256026771653543
20
1.1910662992125984
11
1.9264134645669291
21
1.1940922047244094
0
LINE
8
BLACK
6
CONTINUOUS
10
1.9264134645669291
20
1.1940922047244094
11
1.9279797637795275
21
1.1968051181102362
0
LINE
8
BLACK
6
CONTINUOUS
10
1.9279797637795275
20
1.1968051181102362
11
1.9301948818897636
21
1.1990202362204725
0
LINE
8
BLACK
6
CONTINUOUS
10
1.9301948818897636
20
1.1990202362204725
11
1.9329077952755904
21
1.2005865354330709
0
LINE
8
BLACK
6
CONTINUOUS
10
1.9329077952755904
20
1.2005865354330709
11
1.9359337007874016
21
1.2013973228346457
0
LINE
8
BLACK
6
CONTINUOUS
10
1.9359337007874016
20
1.2013973228346457
11
1.9390662992125984
21
1.2013973228346457
0
LINE
8
BLACK
6
CONTINUOUS
10
1.9390662992125984
20
1.2013973228346457
11
1.9420922047244094
21
1.2005865354330709
0
LINE
8
BLACK
6
CONTINUOUS
10
0.3775
20
1.1499999999999999
11
0.3225
21
1.1499999999999999
0
LINE
8
BLACK
6
CONTINUOUS
10
0.3225
20
1.1499999999999999
11
0.3225
21
1.1850000000000001
0
LINE
8
BLACK
6
CONTINUOUS
10
0.3225
20
1.1850000000000001
11
0.3775
21
1.1850000000000001
0
LINE
8
BLACK
6
CONTINUOUS
10
0.3775
20
1.1850000000000001
11
0.3775
21
1.1499999999999999
0
LINE
8
BLACK
6
CONTINUOUS
10
0.4486614173228347
20
1.151496062992126
11
0.4151968503937008
21
1.151496062992126
0
LINE
8
BLACK
6
CONTINUOUS
10
0.4151968503937008
20
1.151496062992126
11
0.4151968503937008
21
1.1652755905511811
0
LINE
8
BLACK
6
CONTINUOUS
10
0.4151968503937008
20
1.1652755905511811
11
0.4486614173228347
21
1.1652755905511811
0
LINE
8
BLACK
6
CONTINUOUS
10
0.4486614173228347
20
1.1652755905511811
11
0.4486614173228347
21
1.151496062992126
0
LINE
8
BLACK
6
CONTINUOUS
10
0.5648031496062992
20
1.151496062992126
11
0.5313385826771654
21
1.151496062992126
0
LINE
8
BLACK
6
CONTINUOUS
10
0.5313385826771654
20
1.151496062992126
11
0.5313385826771654
21
1.1652755905511811
0
LINE
8
BLACK
6
CONTINUOUS
10
0.5313385826771654
20
1.1652755905511811
11
0.5648031496062992
21
1.1652755905511811
0
LINE
8
BLACK
6
CONTINUOUS
10
0.5648031496062992
20
1.1652755905511811
11
0.5648031496062992
21
1.151496062992126
0
LINE
8
BLACK
6
CONTINUOUS
10
0.7232499999999999
20
1.1619999999999999
11
0.69175
21
1.1619999999999999
0
LINE
8
BLACK
6
CONTINUOUS
10
0.69175
20
1.1619999999999999
11
0.69175
21
1.2014
0
LINE
8
BLACK
6
CONTINUOUS
10
0.69175
20
1.2014
11
0.7232499999999999
21
1.2014
0
LINE
8
BLACK
6
CONTINUOUS
10
0.7232499999999999
20
1.2014
11
0.7232499999999999
21
1.1619999999999999
0
LINE
8
BLACK
6
CONTINUOUS
10
0.79825
20
1.1619999999999999
11
0.7667499999999999
21
1.1619999999999999
0
LINE
8
BLACK
6
CONTINUOUS
10
0.7667499999999999
20
1.1619999999999999
11
0.7667499999999999
21
1.2014
0
LINE
8
BLACK
6
CONTINUOUS
10
0.7667499999999999
20
1.2014
11
0.79825
21
1.2014
0
LINE
8
BLACK
6
CONTINUOUS
10
0.79825
20
1.2014
11
0.79825
21
1.1619999999999999
0
LINE
8
BLACK
6
CONTINUOUS
10
0.6475
20
1.165
11
0.5925
21
1.165
0
LINE
8
BLACK
6
CONTINUOUS
10
0.5925
20
1.165
11
0.5925
21
1.2
0
LINE
8
BLACK
6
CONTINUOUS
10
0.5925
20
1.2
11
0.6475
21
1.2
0
LINE
8
BLACK
6
CONTINUOUS
10
0.6475
20
1.2
11
0.6475
21
1.165
0
LINE
8
BLACK
6
CONTINUOUS
10
0.21
20
1.1675
11
0.175
21
1.1675
0
LINE
8
BLACK
6
CONTINUOUS
10
0.175
20
1.1675
11
0.175
21
1.2224999999999999
0
LINE
8
BLACK
6
CONTINUOUS
10
0.175
20
1.2224999999999999
11
0.21
21
1.2224999999999999
0
LINE
8
BLACK
6
CONTINUOUS
10
0.21
20
1.2224999999999999
11
0.21
21
1.1675
0
LINE
8
BLACK
6
CONTINUOUS
10
0.285
20
1.1675
11
0.25
21
1.1675
0
LINE
8
BLACK
6
CONTINUOUS
10
0.25
20
1.1675
11
0.25
21
1.2224999999999999
0
LINE
8
BLACK
6
CONTINUOUS
10
0.25
20
1.2224999999999999
11
0.285
21
1.2224999999999999
0
LINE
8
BLACK
6
CONTINUOUS
10
0.285
20
1.2224999999999999
11
0.285
21
1.1675
0
LINE
8
BLACK
6
CONTINUOUS
10
0.47
20
1.2124999999999999
11
0.435
21
1.2124999999999999
0
LINE
8
BLACK
6
CONTINUOUS
10
0.435
20
1.2124999999999999
11
0.435
21
1.2675000000000001
0
LINE
8
BLACK
6
CONTINUOUS
10
0.435
20
1.2675000000000001
11
0.47
21
1.2675000000000001
0
LINE
8
BLACK
6
CONTINUOUS
10
0.47
20
1.2675000000000001
11
0.47
21
1.2124999999999999
0
LINE
8
BLACK
6
CONTINUOUS
10
0.545
20
1.2124999999999999
11
0.51
21
1.2124999999999999
0
LINE
8
BLACK
6
CONTINUOUS
10
0.51
20
1.2124999999999999
11
0.51
21
1.2675000000000001
0
LINE
8
BLACK
6
CONTINUOUS
10
0.51
20
1.2675000000000001
11
0.545
21
1.2675000000000001
0
LINE
8
BLACK
6
CONTINUOUS
10
0.545
20
1.2675000000000001
11
0.545
21
1.2124999999999999
0
LINE
8
BLACK
6
CONTINUOUS
10
1.5179921259842519
20
1.2132677165354331
11
1.392007874015748
21
1.2132677165354331
0
LINE
8
BLACK
6
CONTINUOUS
10
1.392007874015748
20
1.2132677165354331
11
1.392007874015748
21
1.2526377952755905
0
LINE
8
BLACK
6
CONTINUOUS
10
1.392007874015748
20
1.2526377952755905
11
1.5179921259842519
21
1.2526377952755905
0
LINE
8
BLACK
6
CONTINUOUS
10
1.5179921259842519
20
1.2526377952755905
11
1.5179921259842519
21
1.2132677165354331
0
LINE
8
BLACK
6
CONTINUOUS
10
2.1499999999999999
20
1.2150000000000001
11
2.0949999999999998
21
1.2150000000000001
0
LINE
8
BLACK
6
CONTINUOUS
10
2.0949999999999998
20
1.2150000000000001
11
2.0949999999999998
21
1.25
0
LINE
8
BLACK
6
CONTINUOUS
10
2.0949999999999998
20
1.25
11
2.1499999999999999
21
1.25
0
LINE
8
BLACK
6
CONTINUOUS
10
2.1499999999999999
20
1.25
11
2.1499999999999999
21
1.2150000000000001
0
LINE
8
BLACK
6
CONTINUOUS
10
2.23
20
1.2150000000000001
11
2.1749999999999998
21
1.2150000000000001
0
LINE
8
BLACK
6
CONTINUOUS
10
2.1749999999999998
20
1.2150000000000001
11
2.1749999999999998
21
1.25
0
LINE
8
BLACK
6
CONTINUOUS
10
2.1749999999999998
20
1.25
11
2.23
21
1.25
0
LINE
8
BLACK
6
CONTINUOUS
10
2.23
20
1.25
11
2.23
21
1.2150000000000001
0
LINE
8
BLACK
6
CONTINUOUS
10
0.3775
20
1.2249999999999999
11
0.3225
21
1.2249999999999999
0
LINE
8
BLACK
6
CONTINUOUS
10
0.3225
20
1.2249999999999999
11
0.3225
21
1.26
0
LINE
8
BLACK
6
CONTINUOUS
10
0.3225
20
1.26
11
0.3775
21
1.26
0
LINE
8
BLACK
6
CONTINUOUS
10
0.3775
20
1.26
11
0.3775
21
1.2249999999999999
0
LINE
8
BLACK
6
CONTINUOUS
10
2.0474999999999999
20
1.2375
11
1.9924999999999999
21
1.2375
0
LINE
8
BLACK
6
CONTINUOUS
10
1.9924999999999999
20
1.2375
11
1.9924999999999999
21
1.2725
0
LINE
8
BLACK
6
CONTINUOUS
10
1.9924999999999999
20
1.2725
11
2.0474999999999999
21
1.2725
0
LINE
8
BLACK
6
CONTINUOUS
10
2.0474999999999999
20
1.2725
11
2.0474999999999999
21
1.2375
0
LINE
8
BLACK
6
CONTINUOUS
10
0.6475
20
1.24
11
0.5925
21
1.24
0
LINE
8
BLACK
6
CONTINUOUS
10
0.5925
20
1.24
11
0.5925
21
1.2749999999999999
0
LINE
8
BLACK
6
CONTINUOUS
10
0.5925
20
1.2749999999999999
11
0.6475
21
1.2749999999999999
0
LINE
8
BLACK
6
CONTINUOUS
10
0.6475
20
1.2749999999999999
11
0.6475
21
1.24
0
LINE
8
BLACK
6
CONTINUOUS
10
0.76075
20
1.2485999999999999
11
0.72925
21
1.2485999999999999
0
LINE
8
BLACK
6
CONTINUOUS
10
0.72925
20
1.2485999999999999
11
0.72925
21
1.288
0
LINE
8
BLACK
6
CONTINUOUS
10
0.72925
20
1.288
11
0.76075
21
1.288
0
LINE
8
BLACK
6
CONTINUOUS
10
0.76075
20
1.288
11
0.76075
21
1.2485999999999999
0
LINE
8
BLACK
6
CONTINUOUS
10
0.2825
20
1.28
11
0.2275
21
1.28
0
LINE
8
BLACK
6
CONTINUOUS
10
0.2275
20
1.28
11
0.2275
21
1.3149999999999999
0
LINE
8
BLACK
6
CONTINUOUS
10
0.2275
20
1.3149999999999999
11
0.2825
21
1.3149999999999999
0
LINE
8
BLACK
6
CONTINUOUS
10
0.2825
20
1.3149999999999999
11
0.2825
21
1.28
0
LINE
8
BLACK
6
CONTINUOUS
10
2.1499999999999999
20
1.29
11
2.0949999999999998
21
1.29
0
LINE
8
BLACK
6
CONTINUOUS
10
2.0949999999999998
20
1.29
11
2.0949999999999998
21
1.325
0
LINE
8
BLACK
6
CONTINUOUS
10
2.0949999999999998
20
1.325
11
2.1499999999999999
21
1.325
0
LINE
8
BLACK
6
CONTINUOUS
10
2.1499999999999999
20
1.325
11
2.1499999999999999
21
1.29
0
LINE
8
BLACK
6
CONTINUOUS
10
2.23
20
1.29
11
2.1749999999999998
21
1.29
0
LINE
8
BLACK
6
CONTINUOUS
10
2.1749999999999998
20
1.29
11
2.1749999999999998
21
1.325
0
LINE
8
BLACK
6
CONTINUOUS
10
2.1749999999999998
20
1.325
11
2.23
21
1.325
0
LINE
8
BLACK
6
CONTINUOUS
10
2.23
20
1.325
11
2.23
21
1.29
0
LINE
8
BLACK
6
CONTINUOUS
10
2.0474999999999999
20
1.3125
11
1.9924999999999999
21
1.3125
0
LINE
8
BLACK
6
CONTINUOUS
10
1.9924999999999999
20
1.3125
11
1.9924999999999999
21
1.3474999999999999
0
LINE
8
BLACK
6
CONTINUOUS
10
1.9924999999999999
20
1.3474999999999999
11
2.0474999999999999
21
1.3474999999999999
0
LINE
8
BLACK
6
CONTINUOUS
10
2.0474999999999999
20
1.3474999999999999
11
2.0474999999999999
21
1.3125
0
LINE
8
BLACK
6
CONTINUOUS
10
2.1524999999999999
20
1.3499999999999999
11
2.1175000000000002
21
1.3499999999999999
0
LINE
8
BLACK
6
CONTINUOUS
10
2.1175000000000002
20
1.3499999999999999
11
2.1175000000000002
21
1.405
0
LINE
8
BLACK
6
CONTINUOUS
10
2.1175000000000002
20
1.405
11
2.1524999999999999
21
1.405
0
LINE
8
BLACK
6
CONTINUOUS
10
2.1524999999999999
20
1.405
11
2.1524999999999999
21
1.3499999999999999
0
LINE
8
BLACK
6
CONTINUOUS
10
2.2275
20
1.3499999999999999
11
2.1924999999999999
21
1.3499999999999999
0
LINE
8
BLACK
6
CONTINUOUS
10
2.1924999999999999
20
1.3499999999999999
11
2.1924999999999999
21
1.405
0
LINE
8
BLACK
6
CONTINUOUS
10
2.1924999999999999
20
1.405
11
2.2275
21
1.405
0
LINE
8
BLACK
6
CONTINUOUS
10
2.2275
20
1.405
11
2.2275
21
1.3499999999999999
0
LINE
8
BLACK
6
CONTINUOUS
10
0.2825
20
1.355
11
0.2275
21
1.355
0
LINE
8
BLACK
6
CONTINUOUS
10
0.2275
20
1.355
11
0.2275
21
1.3899999999999999
0
LINE
8
BLACK
6
CONTINUOUS
10
0.2275
20
1.3899999999999999
11
0.2825
21
1.3899999999999999
0
LINE
8
BLACK
6
CONTINUOUS
10
0.2825
20
1.3899999999999999
11
0.2825
21
1.355
0
LINE
8
BLACK
6
CONTINUOUS
10
0.4309842519685039
20
1.355
11
0.2998818897637795
21
1.355
0
LINE
8
BLACK
6
CONTINUOUS
10
0.2998818897637795
20
1.355
11
0.2998818897637795
21
1.5049999999999999
0
LINE
8
BLACK
6
CONTINUOUS
10
0.2998818897637795
20
1.5049999999999999
11
0.4309842519685039
21
1.5049999999999999
0
LINE
8
BLACK
6
CONTINUOUS
10
0.4309842519685039
20
1.5049999999999999
11
0.4309842519685039
21
1.355
0
LINE
8
BLACK
6
CONTINUOUS
10
0.6601181102362205
20
1.355
11
0.5290157480314961
21
1.355
0
LINE
8
BLACK
6
CONTINUOUS
10
0.5290157480314961
20
1.355
11
0.5290157480314961
21
1.5049999999999999
0
LINE
8
BLACK
6
CONTINUOUS
10
0.5290157480314961
20
1.5049999999999999
11
0.6601181102362205
21
1.5049999999999999
0
LINE
8
BLACK
6
CONTINUOUS
10
0.6601181102362205
20
1.5049999999999999
11
0.6601181102362205
21
1.355
0
LINE
8
BLACK
6
CONTINUOUS
10
1.7920922047244094
20
1.4205865354330709
11
1.7948051181102362
21
1.4190202362204725
0
LINE
8
BLACK
6
CONTINUOUS
10
1.7948051181102362
20
1.4190202362204725
11
1.7970202362204724
21
1.4168051181102361
0
LINE
8
BLACK
6
CONTINUOUS
10
1.7970202362204724
20
1.4168051181102361
11
1.7985865354330708
21
1.4140922047244093
0
LINE
8
BLACK
6
CONTINUOUS
10
1.7985865354330708
20
1.4140922047244093
11
1.7993973228346456
21
1.4110662992125984
0
LINE
8
BLACK
6
CONTINUOUS
10
1.7993973228346456
20
1.4110662992125984
11
1.7994999999999999
21
1.3754999999999999
0
LINE
8
BLACK
6
CONTINUOUS
10
1.7994999999999999
20
1.3754999999999999
11
1.7993973228346456
21
1.3739337007874015
0
LINE
8
BLACK
6
CONTINUOUS
10
1.7993973228346456
20
1.3739337007874015
11
1.7985865354330708
21
1.3709077952755906
0
LINE
8
BLACK
6
CONTINUOUS
10
1.7985865354330708
20
1.3709077952755906
11
1.7970202362204724
21
1.3681948818897638
0
LINE
8
BLACK
6
CONTINUOUS
10
1.7970202362204724
20
1.3681948818897638
11
1.7948051181102362
21
1.3659797637795275
0
LINE
8
BLACK
6
CONTINUOUS
10
1.7948051181102362
20
1.3659797637795275
11
1.7920922047244094
21
1.364413464566929
0
LINE
8
BLACK
6
CONTINUOUS
10
1.7920922047244094
20
1.364413464566929
11
1.7890662992125983
21
1.3636026771653542
0
LINE
8
BLACK
6
CONTINUOUS
10
1.7890662992125983
20
1.3636026771653542
11
1.7859337007874014
21
1.3636026771653542
0
LINE
8
BLACK
6
CONTINUOUS
10
1.7859337007874014
20
1.3636026771653542
11
1.7829077952755905
21
1.364413464566929
0
LINE
8
BLACK
6
CONTINUOUS
10
1.7829077952755905
20
1.364413464566929
11
1.7801948818897637
21
1.3659797637795275
0
LINE
8
BLACK
6
CONTINUOUS
10
1.7801948818897637
20
1.3659797637795275
11
1.7779797637795276
21
1.3681948818897638
0
LINE
8
BLACK
6
CONTINUOUS
10
1.7779797637795276
20
1.3681948818897638
11
1.7764134645669292
21
1.3709077952755906
0
LINE
8
BLACK
6
CONTINUOUS
10
1.7764134645669292
20
1.3709077952755906
11
1.7756026771653544
21
1.3739337007874015
0
LINE
8
BLACK
6
CONTINUOUS
10
1.7756026771653544
20
1.3739337007874015
11
1.7754999999999999
21
1.4095
0
LINE
8
BLACK
6
CONTINUOUS
10
1.7754999999999999
20
1.4095
11
1.7756026771653544
21
1.4110662992125984
0
LINE
8
BLACK
6
CONTINUOUS
10
1.7756026771653544
20
1.4110662992125984
11
1.7764134645669292
21
1.4140922047244093
0
LINE
8
BLACK
6
CONTINUOUS
10
1.7764134645669292
20
1.4140922047244093
11
1.7779797637795276
21
1.4168051181102361
0
LINE
8
BLACK
6
CONTINUOUS
10
1.7779797637795276
20
1.4168051181102361
11
1.7801948818897637
21
1.4190202362204725
0
LINE
8
BLACK
6
CONTINUOUS
10
1.7801948818897637
20
1.4190202362204725
11
1.7829077952755905
21
1.4205865354330709
0
LINE
8
BLACK
6
CONTINUOUS
10
1.7829077952755905
20
1.4205865354330709
11
1.7859337007874014
21
1.4213973228346457
0
LINE
8
BLACK
6
CONTINUOUS
10
1.7859337007874014
20
1.4213973228346457
11
1.7890662992125983
21
1.4213973228346457
0
LINE
8
BLACK
6
CONTINUOUS
10
1.7890662992125983
20
1.4213973228346457
11
1.7920922047244094
21
1.4205865354330709
0
LINE
8
BLACK
6
CONTINUOUS
10
1.8420922047244095
20
1.4205865354330709
11
1.8448051181102363
21
1.4190202362204725
0
LINE
8
BLACK
6
CONTINUOUS
10
1.8448051181102363
20
1.4190202362204725
11
1.8470202362204724
21
1.4168051181102361
0
LINE
8
BLACK
6
CONTINUOUS
10
1.8470202362204724
20
1.4168051181102361
11
1.8485865354330708
21
1.4140922047244093
0
LINE
8
BLACK
6
CONTINUOUS
10
1.8485865354330708
20
1.4140922047244093
11
1.8493973228346456
21
1.4110662992125984
0
LINE
8
BLACK
6
CONTINUOUS
10
1.8493973228346456
20
1.4110662992125984
11
1.8494999999999999
21
1.3754999999999999
0
LINE
8
BLACK
6
CONTINUOUS
10
1.8494999999999999
20
1.3754999999999999
11
1.8493973228346456
21
1.3739337007874015
0
LINE
8
BLACK
6
CONTINUOUS
10
1.8493973228346456
20
1.3739337007874015
11
1.8485865354330708
21
1.3709077952755906
0
LINE
8
BLACK
6
CONTINUOUS
10
1.8485865354330708
20
1.3709077952755906
11
1.8470202362204724
21
1.3681948818897638
0
LINE
8
BLACK
6
CONTINUOUS
10
1.8470202362204724
20
1.3681948818897638
11
1.8448051181102363
21
1.3659797637795275
0
LINE
8
BLACK
6
CONTINUOUS
10
1.8448051181102363
20
1.3659797637795275
11
1.8420922047244095
21
1.364413464566929
0
LINE
8
BLACK
6
CONTINUOUS
10
1.8420922047244095
20
1.364413464566929
11
1.8390662992125983
21
1.3636026771653542
0
LINE
8
BLACK
6
CONTINUOUS
10
1.8390662992125983
20
1.3636026771653542
11
1.8359337007874015
21
1.3636026771653542
0
LINE
8
BLACK
6
CONTINUOUS
10
1.8359337007874015
20
1.3636026771653542
11
1.8329077952755906
21
1.364413464566929
0
LINE
8
BLACK
6
CONTINUOUS
10
1.8329077952755906
20
1.364413464566929
11
1.8301948818897638
21
1.3659797637795275
0
LINE
8
BLACK
6
CONTINUOUS
10
1.8301948818897638
20
1.3659797637795275
11
1.8279797637795274
21
1.3681948818897638
0
LINE
8
BLACK
6
CONTINUOUS
10
1.8279797637795274
20
1.3681948818897638
11
1.826413464566929
21
1.3709077952755906
0
LINE
8
BLACK
6
CONTINUOUS
10
1.826413464566929
20
1.3709077952755906
11
1.8256026771653542
21
1.3739337007874015
0
LINE
8
BLACK
6
CONTINUOUS
10
1.8256026771653542
20
1.3739337007874015
11
1.8254999999999999
21
1.4095
0
LINE
8
BLACK
6
CONTINUOUS
10
1.8254999999999999
20
1.4095
11
1.8256026771653542
21
1.4110662992125984
0
LINE
8
BLACK
6
CONTINUOUS
10
1.8256026771653542
20
1.4110662992125984
11
1.826413464566929
21
1.4140922047244093
0
LINE
8
BLACK
6
CONTINUOUS
10
1.826413464566929
20
1.4140922047244093
11
1.8279797637795274
21
1.4168051181102361
0
LINE
8
BLACK
6
CONTINUOUS
10
1.8279797637795274
20
1.4168051181102361
11
1.8301948818897638
21
1.4190202362204725
0
LINE
8
BLACK
6
CONTINUOUS
10
1.8301948818897638
20
1.4190202362204725
11
1.8329077952755906
21
1.4205865354330709
0
LINE
8
BLACK
6
CONTINUOUS
10
1.8329077952755906
20
1.4205865354330709
11
1.8359337007874015
21
1.4213973228346457
0
LINE
8
BLACK
6
CONTINUOUS
10
1.8359337007874015
20
1.4213973228346457
11
1.8390662992125983
21
1.4213973228346457
0
LINE
8
BLACK
6
CONTINUOUS
10
1.8390662992125983
20
1.4213973228346457
11
1.8420922047244095
21
1.4205865354330709
0
LINE
8
BLACK
6
CONTINUOUS
10
1.8920922047244093
20
1.4205865354330709
11
1.8948051181102361
21
1.4190202362204725
0
LINE
8
BLACK
6
CONTINUOUS
10
1.8948051181102361
20
1.4190202362204725
11
1.8970202362204724
21
1.4168051181102361
0
LINE
8
BLACK
6
CONTINUOUS
10
1.8970202362204724
20
1.4168051181102361
11
1.8985865354330709
21
1.4140922047244093
0
LINE
8
BLACK
6
CONTINUOUS
10
1.8985865354330709
20
1.4140922047244093
11
1.8993973228346457
21
1.4110662992125984
0
LINE
8
BLACK
6
CONTINUOUS
10
1.8993973228346457
20
1.4110662992125984
11
1.8995
21
1.3754999999999999
0
LINE
8
BLACK
6
CONTINUOUS
10
1.8995
20
1.3754999999999999
11
1.8993973228346457
21
1.3739337007874015
0
LINE
8
BLACK
6
CONTINUOUS
10
1.8993973228346457
20
1.3739337007874015
11
1.8985865354330709
21
1.3709077952755906
0
LINE
8
BLACK
6
CONTINUOUS
10
1.8985865354330709
20
1.3709077952755906
11
1.8970202362204724
21
1.3681948818897638
0
LINE
8
BLACK
6
CONTINUOUS
10
1.8970202362204724
20
1.3681948818897638
11
1.8948051181102361
21
1.3659797637795275
0
LINE
8
BLACK
6
CONTINUOUS
10
1.8948051181102361
20
1.3659797637795275
11
1.8920922047244093
21
1.364413464566929
0
LINE
8
BLACK
6
CONTINUOUS
10
1.8920922047244093
20
1.364413464566929
11
1.8890662992125984
21
1.3636026771653542
0
LINE
8
BLACK
6
CONTINUOUS
10
1.8890662992125984
20
1.3636026771653542
11
1.8859337007874015
21
1.3636026771653542
0
LINE
8
BLACK
6
CONTINUOUS
10
1.8859337007874015
20
1.3636026771653542
11
1.8829077952755906
21
1.364413464566929
0
LINE
8
BLACK
6
CONTINUOUS
10
1.8829077952755906
20
1.364413464566929
11
1.8801948818897638
21
1.3659797637795275
0
LINE
8
BLACK
6
CONTINUOUS
10
1.8801948818897638
20
1.3659797637795275
11
1.8779797637795275
21
1.3681948818897638
0
LINE
8
BLACK
6
CONTINUOUS
10
1.8779797637795275
20
1.3681948818897638
11
1.876413464566929
21
1.3709077952755906
0
LINE
8
BLACK
6
CONTINUOUS
10
1.876413464566929
20
1.3709077952755906
11
1.8756026771653542
21
1.3739337007874015
0
LINE
8
BLACK
6
CONTINUOUS
10
1.8756026771653542
20
1.3739337007874015
11
1.8754999999999999
21
1.4095
0
LINE
8
BLACK
6
CONTINUOUS
10
1.8754999999999999
20
1.4095
11
1.8756026771653542
21
1.4110662992125984
0
LINE
8
BLACK
6
CONTINUOUS
10
1.8756026771653542
20
1.4110662992125984
11
1.876413464566929
21
1.4140922047244093
0
LINE
8
BLACK
6
CONTINUOUS
10
1.876413464566929
20
1.4140922047244093
11
1.8779797637795275
21
1.4168051181102361
0
LINE
8
BLACK
6
CONTINUOUS
10
1.8779797637795275
20
1.4168051181102361
11
1.8801948818897638
21
1.4190202362204725
0
LINE
8
BLACK
6
CONTINUOUS
10
1.8801948818897638
20
1.4190202362204725
11
1.8829077952755906
21
1.4205865354330709
0
LINE
8
BLACK
6
CONTINUOUS
10
1.8829077952755906
20
1.4205865354330709
11
1.8859337007874015
21
1.4213973228346457
0
LINE
8
BLACK
6
CONTINUOUS
10
1.8859337007874015
20
1.4213973228346457
11
1.8890662992125984
21
1.4213973228346457
0
LINE
8
BLACK
6
CONTINUOUS
10
1.8890662992125984
20
1.4213973228346457
11
1.8920922047244093
21
1.4205865354330709
0
LINE
8
BLACK
6
CONTINUOUS
10
1.9420922047244094
20
1.4205865354330709
11
1.9448051181102362
21
1.4190202362204725
0
LINE
8
BLACK
6
CONTINUOUS
10
1.9448051181102362
20
1.4190202362204725
11
1.9470202362204725
21
1.4168051181102361
0
LINE
8
BLACK
6
CONTINUOUS
10
1.9470202362204725
20
1.4168051181102361
11
1.9485865354330709
21
1.4140922047244093
0
LINE
8
BLACK
6
CONTINUOUS
10
1.9485865354330709
20
1.4140922047244093
11
1.9493973228346457
21
1.4110662992125984
0
LINE
8
BLACK
6
CONTINUOUS
10
1.9493973228346457
20
1.4110662992125984
11
1.9495
21
1.3754999999999999
0
LINE
8
BLACK
6
CONTINUOUS
10
1.9495
20
1.3754999999999999
11
1.9493973228346457
21
1.3739337007874015
0
LINE
8
BLACK
6
CONTINUOUS
10
1.9493973228346457
20
1.3739337007874015
11
1.9485865354330709
21
1.3709077952755906
0
LINE
8
BLACK
6
CONTINUOUS
10
1.9485865354330709
20
1.3709077952755906
11
1.9470202362204725
21
1.3681948818897638
0
LINE
8
BLACK
6
CONTINUOUS
10
1.9470202362204725
20
1.3681948818897638
11
1.9448051181102362
21
1.3659797637795275
0
LINE
8
BLACK
6
CONTINUOUS
10
1.9448051181102362
20
1.3659797637795275
11
1.9420922047244094
21
1.364413464566929
0
LINE
8
BLACK
6
CONTINUOUS
10
1.9420922047244094
20
1.364413464566929
11
1.9390662992125984
21
1.3636026771653542
0
LINE
8
BLACK
6
CONTINUOUS
10
1.9390662992125984
20
1.3636026771653542
11
1.9359337007874016
21
1.3636026771653542
0
LINE
8
BLACK
6
CONTINUOUS
10
1.9359337007874016
20
1.3636026771653542
11
1.9329077952755904
21
1.364413464566929
0
LINE
8
BLACK
6
CONTINUOUS
10
1.9329077952755904
20
1.364413464566929
11
1.9301948818897636
21
1.3659797637795275
0
LINE
8
BLACK
6
CONTINUOUS
10
1.9301948818897636
20
1.3659797637795275
11
1.9279797637795275
21
1.3681948818897638
0
LINE
8
BLACK
6
CONTINUOUS
10
1.9279797637795275
20
1.3681948818897638
11
1.9264134645669291
21
1.3709077952755906
0
LINE
8
BLACK
6
CONTINUOUS
10
1.9264134645669291
20
1.3709077952755906
11
1.9256026771653543
21
1.3739337007874015
0
LINE
8
BLACK
6
CONTINUOUS
10
1.9256026771653543
20
1.3739337007874015
11
1.9255
21
1.4095
0
LINE
8
BLACK
6
CONTINUOUS
10
1.9255
20
1.4095
11
1.9256026771653543
21
1.4110662992125984
0
LINE
8
BLACK
6
CONTINUOUS
10
1.9256026771653543
20
1.4110662992125984
11
1.9264134645669291
21
1.4140922047244093
0
LINE
8
BLACK
6
CONTINUOUS
10
1.9264134645669291
20
1.4140922047244093
11
1.9279797637795275
21
1.4168051181102361
0
LINE
8
BLACK
6
CONTINUOUS
10
1.9279797637795275
20
1.4168051181102361
11
1.9301948818897636
21
1.4190202362204725
0
LINE
8
BLACK
6
CONTINUOUS
10
1.9301948818897636
20
1.4190202362204725
11
1.9329077952755904
21
1.4205865354330709
0
LINE
8
BLACK
6
CONTINUOUS
10
1.9329077952755904
20
1.4205865354330709
11
1.9359337007874016
21
1.4213973228346457
0
LINE
8
BLACK
6
CONTINUOUS
10
1.9359337007874016
20
1.4213973228346457
11
1.9390662992125984
21
1.4213973228346457
0
LINE
8
BLACK
6
CONTINUOUS
10
1.9390662992125984
20
1.4213973228346457
11
1.9420922047244094
21
1.4205865354330709
0
LINE
8
BLACK
6
CONTINUOUS
10
2.0474999999999999
20
1.3674999999999999
11
1.9924999999999999
21
1.3674999999999999
0
LINE
8
BLACK
6
CONTINUOUS
10
1.9924999999999999
20
1.3674999999999999
11
1.9924999999999999
21
1.4024999999999999
0
LINE
8
BLACK
6
CONTINUOUS
10
1.9924999999999999
20
1.4024999999999999
11
2.0474999999999999
21
1.4024999999999999
0
LINE
8
BLACK
6
CONTINUOUS
10
2.0474999999999999
20
1.4024999999999999
11
2.0474999999999999
21
1.3674999999999999
0
LINE
8
BLACK
6
CONTINUOUS
10
0.76545
20
1.3720999999999999
11
0.69455
21
1.3720999999999999
0
LINE
8
BLACK
6
CONTINUOUS
10
0.69455
20
1.3720999999999999
11
0.69455
21
1.4704999999999999
0
LINE
8
BLACK
6
CONTINUOUS
10
0.69455
20
1.4704999999999999
11
0.76545
21
1.4704999999999999
0
LINE
8
BLACK
6
CONTINUOUS
10
0.76545
20
1.4704999999999999
11
0.76545
21
1.3720999999999999
0
LINE
8
BLACK
6
CONTINUOUS
10
2.2050000000000001
20
1.425
11
2.1699999999999999
21
1.425
0
LINE
8
BLACK
6
CONTINUOUS
10
2.1699999999999999
20
1.425
11
2.1699999999999999
21
1.48
0
LINE
8
BLACK
6
CONTINUOUS
10
2.1699999999999999
20
1.48
11
2.2050000000000001
21
1.48
0
LINE
8
BLACK
6
CONTINUOUS
10
2.2050000000000001
20
1.48
11
2.2050000000000001
21
1.425
0
LINE
8
BLACK
6
CONTINUOUS
10
2.2799999999999998
20
1.425
11
2.2450000000000001
21
1.425
0
LINE
8
BLACK
6
CONTINUOUS
10
2.2450000000000001
20
1.425
11
2.2450000000000001
21
1.48
0
LINE
8
BLACK
6
CONTINUOUS
10
2.2450000000000001
20
1.48
11
2.2799999999999998
21
1.48
0
LINE
8
BLACK
6
CONTINUOUS
10
2.2799999999999998
20
1.48
11
2.2799999999999998
21
1.425
0
LINE
8
BLACK
6
CONTINUOUS
10
2.0474999999999999
20
1.4424999999999999
11
1.9924999999999999
21
1.4424999999999999
0
LINE
8
BLACK
6
CONTINUOUS
10
1.9924999999999999
20
1.4424999999999999
11
1.9924999999999999
21
1.4775
0
LINE
8
BLACK
6
CONTINUOUS
10
1.9924999999999999
20
1.4775
11
2.0474999999999999
21
1.4775
0
LINE
8
BLACK
6
CONTINUOUS
10
2.0474999999999999
20
1.4775
11
2.0474999999999999
21
1.4424999999999999
0
LINE
8
BLACK
6
CONTINUOUS
10
1.8774999999999999
20
1.4450000000000001
11
1.8225
21
1.4450000000000001
0
LINE
8
BLACK
6
CONTINUOUS
10
1.8225
20
1.4450000000000001
11
1.8225
21
1.48
0
LINE
8
BLACK
6
CONTINUOUS
10
1.8225
20
1.48
11
1.8774999999999999
21
1.48
0
LINE
8
BLACK
6
CONTINUOUS
10
1.8774999999999999
20
1.48
11
1.8774999999999999
21
1.4450000000000001
0
LINE
8
BLACK
6
CONTINUOUS
10
1.5179921259842519
20
1.4573622047244095
11
1.392007874015748
21
1.4573622047244095
0
LINE
8
BLACK
6
CONTINUOUS
10
1.392007874015748
20
1.4573622047244095
11
1.392007874015748
21
1.4967322834645669
0
LINE
8
BLACK
6
CONTINUOUS
10
1.392007874015748
20
1.4967322834645669
11
1.5179921259842519
21
1.4967322834645669
0
LINE
8
BLACK
6
CONTINUOUS
10
1.5179921259842519
20
1.4967322834645669
11
1.5179921259842519
21
1.4573622047244095
0
LINE
8
BLACK
6
CONTINUOUS
10
1.1932677165354331
20
1.4727952755905511
11
0.9767322834645669
21
1.4727952755905511
0
LINE
8
BLACK
6
CONTINUOUS
10
0.9767322834645669
20
1.4727952755905511
11
0.9767322834645669
21
1.5909055118110236
0
LINE
8
BLACK
6
CONTINUOUS
10
0.9767322834645669
20
1.5909055118110236
11
1.1932677165354331
21
1.5909055118110236
0
LINE
8
BLACK
6
CONTINUOUS
10
1.1932677165354331
20
1.5909055118110236
11
1.1932677165354331
21
1.4727952755905511
0
LINE
8
BLACK
6
CONTINUOUS
10
2.0417000000000001
20
1.5128999999999999
11
1.9433
21
1.5128999999999999
0
LINE
8
BLACK
6
CONTINUOUS
10
1.9433
20
1.5128999999999999
11
1.9433
21
1.6133
0
LINE
8
BLACK
6
CONTINUOUS
10
1.9433
20
1.6133
11
2.0417000000000001
21
1.6133
0
LINE
8
BLACK
6
CONTINUOUS
10
2.0417000000000001
20
1.6133
11
2.0417000000000001
21
1.5128999999999999
0
LINE
8
BLACK
6
CONTINUOUS
10
1.8774999999999999
20
1.52
11
1.8225
21
1.52
0
LINE
8
BLACK
6
CONTINUOUS
10
1.8225
20
1.52
11
1.8225
21
1.5549999999999999
0
LINE
8
BLACK
6
CONTINUOUS
10
1.8225
20
1.5549999999999999
11
1.8774999999999999
21
1.5549999999999999
0
LINE
8
BLACK
6
CONTINUOUS
10
1.8774999999999999
20
1.5549999999999999
11
1.8774999999999999
21
1.52
0
LINE
8
BLACK
6
CONTINUOUS
10
0.76545
20
1.5294999999999999
11
0.69455
21
1.5294999999999999
0
LINE
8
BLACK
6
CONTINUOUS
10
0.69455
20
1.5294999999999999
11
0.69455
21
1.6278999999999999
0
LINE
8
BLACK
6
CONTINUOUS
10
0.69455
20
1.6278999999999999
11
0.76545
21
1.6278999999999999
0
LINE
8
BLACK
6
CONTINUOUS
10
0.76545
20
1.6278999999999999
11
0.76545
21
1.5294999999999999
0
LINE
8
BLACK
6
CONTINUOUS
10
1.520984251968504
20
1.585
11
1.3898818897637795
21
1.585
0
LINE
8
BLACK
6
CONTINUOUS
10
1.3898818897637795
20
1.585
11
1.3898818897637795
21
1.7349999999999999
0
LINE
8
BLACK
6
CONTINUOUS
10
1.3898818897637795
20
1.7349999999999999
11
1.520984251968504
21
1.7349999999999999
0
LINE
8
BLACK
6
CONTINUOUS
10
1.520984251968504
20
1.7349999999999999
11
1.520984251968504
21
1.585
0
LINE
8
BLACK
6
CONTINUOUS
10
1.7501181102362204
20
1.585
11
1.6190157480314959
21
1.585
0
LINE
8
BLACK
6
CONTINUOUS
10
1.6190157480314959
20
1.585
11
1.6190157480314959
21
1.7349999999999999
0
LINE
8
BLACK
6
CONTINUOUS
10
1.6190157480314959
20
1.7349999999999999
11
1.7501181102362204
21
1.7349999999999999
0
LINE
8
BLACK
6
CONTINUOUS
10
1.7501181102362204
20
1.7349999999999999
11
1.7501181102362204
21
1.585
0
LINE
8
BLACK
6
CONTINUOUS
10
1.040984251968504
20
1.6156692913385826
11
1.0299606299212598
21
1.6156692913385826
0
LINE
8
BLACK
6
CONTINUOUS
10
1.0299606299212598
20
1.6156692913385826
11
1.0299606299212598
21
1.6491338582677164
0
LINE
8
BLACK
6
CONTINUOUS
10
1.0299606299212598
20
1.6491338582677164
11
1.040984251968504
21
1.6491338582677164
0
LINE
8
BLACK
6
CONTINUOUS
10
1.040984251968504
20
1.6491338582677164
11
1.040984251968504
21
1.6156692913385826
0
LINE
8
BLACK
6
CONTINUOUS
10
1.1000393700787401
20
1.6156692913385826
11
1.0890157480314961
21
1.6156692913385826
0
LINE
8
BLACK
6
CONTINUOUS
10
1.0890157480314961
20
1.6156692913385826
11
1.0890157480314961
21
1.6491338582677164
0
LINE
8
BLACK
6
CONTINUOUS
10
1.0890157480314961
20
1.6491338582677164
11
1.1000393700787401
21
1.6491338582677164
0
LINE
8
BLACK
6
CONTINUOUS
10
1.1000393700787401
20
1.6491338582677164
11
1.1000393700787401
21
1.6156692913385826
0
LINE
8
BLACK
6
CONTINUOUS
10
1.0587007874015748
20
1.7977559055118111
11
1.0712992125984251
21
1.7977559055118111
0
LINE
8
BLACK
6
CONTINUOUS
10
1.0712992125984251
20
1.7977559055118111
11
1.0712992125984251
21
1.8238385826771653
0
LINE
8
BLACK
6
CONTINUOUS
10
1.0712992125984251
20
1.8238385826771653
11
1.0823228346456693
21
1.8238385826771653
0
LINE
8
BLACK
6
CONTINUOUS
10
1.0823228346456693
20
1.8238385826771653
11
1.0823228346456693
21
1.78003937007874
0
LINE
8
BLACK
6
CONTINUOUS
10
1.0823228346456693
20
1.78003937007874
11
1.1053543307086613
21
1.78003937007874
0
LINE
8
BLACK
6
CONTINUOUS
10
1.1053543307086613
20
1.78003937007874
11
1.1053543307086613
21
1.6599606299212597
0
LINE
8
BLACK
6
CONTINUOUS
10
1.1053543307086613
20
1.6599606299212597
11
1.0823228346456693
21
1.6599606299212597
0
LINE
8
BLACK
6
CONTINUOUS
10
1.0823228346456693
20
1.6599606299212597
11
1.0823228346456693
21
1.6161614173228347
0
LINE
8
BLACK
6
CONTINUOUS
10
1.0823228346456693
20
1.6161614173228347
11
1.0712992125984251
21
1.6161614173228347
0
LINE
8
BLACK
6
CONTINUOUS
10
1.0712992125984251
20
1.6161614173228347
11
1.0712992125984251
21
1.6422440944881889
0
LINE
8
BLACK
6
CONTINUOUS
10
1.0712992125984251
20
1.6422440944881889
11
1.0587007874015748
21
1.6422440944881889
0
LINE
8
BLACK
6
CONTINUOUS
10
1.0587007874015748
20
1.6422440944881889
11
1.0587007874015748
21
1.6161614173228347
0
LINE
8
BLACK
6
CONTINUOUS
10
1.0587007874015748
20
1.6161614173228347
11
1.0476771653543306
21
1.6161614173228347
0
LINE
8
BLACK
6
CONTINUOUS
10
1.0476771653543306
20
1.6161614173228347
11
1.0476771653543306
21
1.6599606299212597
0
LINE
8
BLACK
6
CONTINUOUS
10
1.0476771653543306
20
1.6599606299212597
11
1.0246456692913386
21
1.6599606299212597
0
LINE
8
BLACK
6
CONTINUOUS
10
1.0246456692913386
20
1.6599606299212597
11
1.0246456692913386
21
1.78003937007874
0
LINE
8
BLACK
6
CONTINUOUS
10
1.0246456692913386
20
1.78003937007874
11
1.0476771653543306
21
1.78003937007874
0
LINE
8
BLACK
6
CONTINUOUS
10
1.0476771653543306
20
1.78003937007874
11
1.0476771653543306
21
1.8238385826771653
0
LINE
8
BLACK
6
CONTINUOUS
10
1.0476771653543306
20
1.8238385826771653
11
1.0587007874015748
21
1.8238385826771653
0
LINE
8
BLACK
6
CONTINUOUS
10
1.0587007874015748
20
1.8238385826771653
11
1.0587007874015748
21
1.7977559055118111
0
LINE
8
BLACK
6
CONTINUOUS
10
0.8225
20
1.645
11
0.7675
21
1.645
0
LINE
8
BLACK
6
CONTINUOUS
10
0.7675
20
1.645
11
0.7675
21
1.6799999999999999
0
LINE
8
BLACK
6
CONTINUOUS
10
0.7675
20
1.6799999999999999
11
0.8225
21
1.6799999999999999
0
LINE
8
BLACK
6
CONTINUOUS
10
0.8225
20
1.6799999999999999
11
0.8225
21
1.645
0
LINE
8
BLACK
6
CONTINUOUS
10
0.8885
20
1.645
11
0.8335
21
1.645
0
LINE
8
BLACK
6
CONTINUOUS
10
0.8335
20
1.645
11
0.8335
21
1.6799999999999999
0
LINE
8
BLACK
6
CONTINUOUS
10
0.8335
20
1.6799999999999999
11
0.8885
21
1.6799999999999999
0
LINE
8
BLACK
6
CONTINUOUS
10
0.8885
20
1.6799999999999999
11
0.8885
21
1.645
0
LINE
8
BLACK
6
CONTINUOUS
10
1.0138188976377953
20
1.6455905511811024
11
0.9803543307086614
21
1.6455905511811024
0
LINE
8
BLACK
6
CONTINUOUS
10
0.9803543307086614
20
1.6455905511811024
11
0.9803543307086614
21
1.6566141732283464
0
LINE
8
BLACK
6
CONTINUOUS
10
0.9803543307086614
20
1.6566141732283464
11
1.0138188976377953
21
1.6566141732283464
0
LINE
8
BLACK
6
CONTINUOUS
10
1.0138188976377953
20
1.6566141732283464
11
1.0138188976377953
21
1.6455905511811024
0
LINE
8
BLACK
6
CONTINUOUS
10
1.1496456692913386
20
1.6455905511811024
11
1.1161811023622048
21
1.6455905511811024
0
LINE
8
BLACK
6
CONTINUOUS
10
1.1161811023622048
20
1.6455905511811024
11
1.1161811023622048
21
1.6566141732283464
0
LINE
8
BLACK
6
CONTINUOUS
10
1.1161811023622048
20
1.6566141732283464
11
1.1496456692913386
21
1.6566141732283464
0
LINE
8
BLACK
6
CONTINUOUS
10
1.1496456692913386
20
1.6566141732283464
11
1.1496456692913386
21
1.6455905511811024
0
LINE
8
BLACK
6
CONTINUOUS
10
1.0138188976377953
20
1.6652755905511811
11
0.9803543307086614
21
1.6652755905511811
0
LINE
8
BLACK
6
CONTINUOUS
10
0.9803543307086614
20
1.6652755905511811
11
0.9803543307086614
21
1.6762992125984251
0
LINE
8
BLACK
6
CONTINUOUS
10
0.9803543307086614
20
1.6762992125984251
11
1.0138188976377953
21
1.6762992125984251
0
LINE
8
BLACK
6
CONTINUOUS
10
1.0138188976377953
20
1.6762992125984251
11
1.0138188976377953
21
1.6652755905511811
0
LINE
8
BLACK
6
CONTINUOUS
10
1.1496456692913386
20
1.6652755905511811
11
1.1161811023622048
21
1.6652755905511811
0
LINE
8
BLACK
6
CONTINUOUS
10
1.1161811023622048
20
1.6652755905511811
11
1.1161811023622048
21
1.6762992125984251
0
LINE
8
BLACK
6
CONTINUOUS
10
1.1161811023622048
20
1.6762992125984251
11
1.1496456692913386
21
1.6762992125984251
0
LINE
8
BLACK
6
CONTINUOUS
10
1.1496456692913386
20
1.6762992125984251
11
1.1496456692913386
21
1.6652755905511811
0
LINE
8
BLACK
6
CONTINUOUS
10
0.7292
20
1.671
11
0.6308
21
1.671
0
LINE
8
BLACK
6
CONTINUOUS
10
0.6308
20
1.671
11
0.6308
21
1.7713999999999999
0
LINE
8
BLACK
6
CONTINUOUS
10
0.6308
20
1.7713999999999999
11
0.7292
21
1.7713999999999999
0
LINE
8
BLACK
6
CONTINUOUS
10
0.7292
20
1.7713999999999999
11
0.7292
21
1.671
0
LINE
8
BLACK
6
CONTINUOUS
10
1.0138188976377953
20
1.6849606299212598
11
0.9803543307086614
21
1.6849606299212598
0
LINE
8
BLACK
6
CONTINUOUS
10
0.9803543307086614
20
1.6849606299212598
11
0.9803543307086614
21
1.695984251968504
0
LINE
8
BLACK
6
CONTINUOUS
10
0.9803543307086614
20
1.695984251968504
11
1.0138188976377953
21
1.695984251968504
0
LINE
8
BLACK
6
CONTINUOUS
10
1.0138188976377953
20
1.695984251968504
11
1.0138188976377953
21
1.6849606299212598
0
LINE
8
BLACK
6
CONTINUOUS
10
1.1496456692913386
20
1.6849606299212598
11
1.1161811023622048
21
1.6849606299212598
0
LINE
8
BLACK
6
CONTINUOUS
10
1.1161811023622048
20
1.6849606299212598
11
1.1161811023622048
21
1.695984251968504
0
LINE
8
BLACK
6
CONTINUOUS
10
1.1161811023622048
20
1.695984251968504
11
1.1496456692913386
21
1.695984251968504
0
LINE
8
BLACK
6
CONTINUOUS
10
1.1496456692913386
20
1.695984251968504
11
1.1496456692913386
21
1.6849606299212598
0
LINE
8
BLACK
6
CONTINUOUS
10
1.0138188976377953
20
1.7046456692913385
11
0.9803543307086614
21
1.7046456692913385
0
LINE
8
BLACK
6
CONTINUOUS
10
0.9803543307086614
20
1.7046456692913385
11
0.9803543307086614
21
1.7156692913385827
0
LINE
8
BLACK
6
CONTINUOUS
10
0.9803543307086614
20
1.7156692913385827
11
1.0138188976377953
21
1.7156692913385827
0
LINE
8
BLACK
6
CONTINUOUS
10
1.0138188976377953
20
1.7156692913385827
11
1.0138188976377953
21
1.7046456692913385
0
LINE
8
BLACK
6
CONTINUOUS
10
1.1496456692913386
20
1.7046456692913385
11
1.1161811023622048
21
1.7046456692913385
0
LINE
8
BLACK
6
CONTINUOUS
10
1.1161811023622048
20
1.7046456692913385
11
1.1161811023622048
21
1.7156692913385827
0
LINE
8
BLACK
6
CONTINUOUS
10
1.1161811023622048
20
1.7156692913385827
11
1.1496456692913386
21
1.7156692913385827
0
LINE
8
BLACK
6
CONTINUOUS
10
1.1496456692913386
20
1.7156692913385827
11
1.1496456692913386
21
1.7046456692913385
0
LINE
8
BLACK
6
CONTINUOUS
10
2.0417000000000001
20
1.7117
11
1.9433
21
1.7117
0
LINE
8
BLACK
6
CONTINUOUS
10
1.9433
20
1.7117
11
1.9433
21
1.8121
0
LINE
8
BLACK
6
CONTINUOUS
10
1.9433
20
1.8121
11
2.0417000000000001
21
1.8121
0
LINE
8
BLACK
6
CONTINUOUS
10
2.0417000000000001
20
1.8121
11
2.0417000000000001
21
1.7117
0
LINE
8
BLACK
6
CONTINUOUS
10
0.8225
20
1.72
11
0.7675
21
1.72
0
LINE
8
BLACK
6
CONTINUOUS
10
0.7675
20
1.72
11
0.7675
21
1.7549999999999999
0
LINE
8
BLACK
6
CONTINUOUS
10
0.7675
20
1.7549999999999999
11
0.8225
21
1.7549999999999999
0
LINE
8
BLACK
6
CONTINUOUS
10
0.8225
20
1.7549999999999999
11
0.8225
21
1.72
0
LINE
8
BLACK
6
CONTINUOUS
10
0.8885
20
1.72
11
0.8335
21
1.72
0
LINE
8
BLACK
6
CONTINUOUS
10
0.8335
20
1.72
11
0.8335
21
1.7549999999999999
0
LINE
8
BLACK
6
CONTINUOUS
10
0.8335
20
1.7549999999999999
11
0.8885
21
1.7549999999999999
0
LINE
8
BLACK
6
CONTINUOUS
10
0.8885
20
1.7549999999999999
11
0.8885
21
1.72
0
LINE
8
BLACK
6
CONTINUOUS
10
1.0138188976377953
20
1.7243307086614172
11
0.9803543307086614
21
1.7243307086614172
0
LINE
8
BLACK
6
CONTINUOUS
10
0.9803543307086614
20
1.7243307086614172
11
0.9803543307086614
21
1.7353543307086614
0
LINE
8
BLACK
6
CONTINUOUS
10
0.9803543307086614
20
1.7353543307086614
11
1.0138188976377953
21
1.7353543307086614
0
LINE
8
BLACK
6
CONTINUOUS
10
1.0138188976377953
20
1.7353543307086614
11
1.0138188976377953
21
1.7243307086614172
0
LINE
8
BLACK
6
CONTINUOUS
10
1.1496456692913386
20
1.7243307086614172
11
1.1161811023622048
21
1.7243307086614172
0
LINE
8
BLACK
6
CONTINUOUS
10
1.1161811023622048
20
1.7243307086614172
11
1.1161811023622048
21
1.7353543307086614
0
LINE
8
BLACK
6
CONTINUOUS
10
1.1161811023622048
20
1.7353543307086614
11
1.1496456692913386
21
1.7353543307086614
0
LINE
8
BLACK
6
CONTINUOUS
10
1.1496456692913386
20
1.7353543307086614
11
1.1496456692913386
21
1.7243307086614172
0
LINE
8
BLACK
6
CONTINUOUS
10
1.0138188976377953
20
1.7440157480314959
11
0.9803543307086614
21
1.7440157480314959
0
LINE
8
BLACK
6
CONTINUOUS
10
0.9803543307086614
20
1.7440157480314959
11
0.9803543307086614
21
1.7550393700787401
0
LINE
8
BLACK
6
CONTINUOUS
10
0.9803543307086614
20
1.7550393700787401
11
1.0138188976377953
21
1.7550393700787401
0
LINE
8
BLACK
6
CONTINUOUS
10
1.0138188976377953
20
1.7550393700787401
11
1.0138188976377953
21
1.7440157480314959
0
LINE
8
BLACK
6
CONTINUOUS
10
1.1496456692913386
20
1.7440157480314959
11
1.1161811023622048
21
1.7440157480314959
0
LINE
8
BLACK
6
CONTINUOUS
10
1.1161811023622048
20
1.7440157480314959
11
1.1161811023622048
21
1.7550393700787401
0
LINE
8
BLACK
6
CONTINUOUS
10
1.1161811023622048
20
1.7550393700787401
11
1.1496456692913386
21
1.7550393700787401
0
LINE
8
BLACK
6
CONTINUOUS
10
1.1496456692913386
20
1.7550393700787401
11
1.1496456692913386
21
1.7440157480314959
0
LINE
8
BLACK
6
CONTINUOUS
10
1.0138188976377953
20
1.7637007874015747
11
0.9803543307086614
21
1.7637007874015747
0
LINE
8
BLACK
6
CONTINUOUS
10
0.9803543307086614
20
1.7637007874015747
11
0.9803543307086614
21
1.7747244094488188
0
LINE
8
BLACK
6
CONTINUOUS
10
0.9803543307086614
20
1.7747244094488188
11
1.0138188976377953
21
1.7747244094488188
0
LINE
8
BLACK
6
CONTINUOUS
10
1.0138188976377953
20
1.7747244094488188
11
1.0138188976377953
21
1.7637007874015747
0
LINE
8
BLACK
6
CONTINUOUS
10
1.1496456692913386
20
1.7637007874015747
11
1.1161811023622048
21
1.7637007874015747
0
LINE
8
BLACK
6
CONTINUOUS
10
1.1161811023622048
20
1.7637007874015747
11
1.1161811023622048
21
1.7747244094488188
0
LINE
8
BLACK
6
CONTINUOUS
10
1.1161811023622048
20
1.7747244094488188
11
1.1496456692913386
21
1.7747244094488188
0
LINE
8
BLACK
6
CONTINUOUS
10
1.1496456692913386
20
1.7747244094488188
11
1.1496456692913386
21
1.7637007874015747
0
LINE
8
BLACK
6
CONTINUOUS
10
1.3100000000000001
20
1.7674999999999998
11
1.2749999999999999
21
1.7674999999999998
0
LINE
8
BLACK
6
CONTINUOUS
10
1.2749999999999999
20
1.7674999999999998
11
1.2749999999999999
21
1.8225
0
LINE
8
BLACK
6
CONTINUOUS
10
1.2749999999999999
20
1.8225
11
1.3100000000000001
21
1.8225
0
LINE
8
BLACK
6
CONTINUOUS
10
1.3100000000000001
20
1.8225
11
1.3100000000000001
21
1.7674999999999998
0
LINE
8
BLACK
6
CONTINUOUS
10
1.385
20
1.7674999999999998
11
1.3499999999999999
21
1.7674999999999998
0
LINE
8
BLACK
6
CONTINUOUS
10
1.3499999999999999
20
1.7674999999999998
11
1.3499999999999999
21
1.8225
0
LINE
8
BLACK
6
CONTINUOUS
10
1.3499999999999999
20
1.8225
11
1.385
21
1.8225
0
LINE
8
BLACK
6
CONTINUOUS
10
1.385
20
1.8225
11
1.385
21
1.7674999999999998
0
LINE
8
BLACK
6
CONTINUOUS
10
1.0138188976377953
20
1.7833858267716536
11
0.9803543307086614
21
1.7833858267716536
0
LINE
8
BLACK
6
CONTINUOUS
10
0.9803543307086614
20
1.7833858267716536
11
0.9803543307086614
21
1.7944094488188975
0
LINE
8
BLACK
6
CONTINUOUS
10
0.9803543307086614
20
1.7944094488188975
11
1.0138188976377953
21
1.7944094488188975
0
LINE
8
BLACK
6
CONTINUOUS
10
1.0138188976377953
20
1.7944094488188975
11
1.0138188976377953
21
1.7833858267716536
0
LINE
8
BLACK
6
CONTINUOUS
10
1.1496456692913386
20
1.7833858267716536
11
1.1161811023622048
21
1.7833858267716536
0
LINE
8
BLACK
6
CONTINUOUS
10
1.1161811023622048
20
1.7833858267716536
11
1.1161811023622048
21
1.7944094488188975
0
LINE
8
BLACK
6
CONTINUOUS
10
1.1161811023622048
20
1.7944094488188975
11
1.1496456692913386
21
1.7944094488188975
0
LINE
8
BLACK
6
CONTINUOUS
10
1.1496456692913386
20
1.7944094488188975
11
1.1496456692913386
21
1.7833858267716536
0
LINE
8
BLACK
6
CONTINUOUS
10
1.040984251968504
20
1.7908661417322835
11
1.0299606299212598
21
1.7908661417322835
0
LINE
8
BLACK
6
CONTINUOUS
10
1.0299606299212598
20
1.7908661417322835
11
1.0299606299212598
21
1.8243307086614173
0
LINE
8
BLACK
6
CONTINUOUS
10
1.0299606299212598
20
1.8243307086614173
11
1.040984251968504
21
1.8243307086614173
0
LINE
8
BLACK
6
CONTINUOUS
10
1.040984251968504
20
1.8243307086614173
11
1.040984251968504
21
1.7908661417322835
0
LINE
8
BLACK
6
CONTINUOUS
10
1.1000393700787401
20
1.7908661417322835
11
1.0890157480314961
21
1.7908661417322835
0
LINE
8
BLACK
6
CONTINUOUS
10
1.0890157480314961
20
1.7908661417322835
11
1.0890157480314961
21
1.8243307086614173
0
LINE
8
BLACK
6
CONTINUOUS
10
1.0890157480314961
20
1.8243307086614173
11
1.1000393700787401
21
1.8243307086614173
0
LINE
8
BLACK
6
CONTINUOUS
10
1.1000393700787401
20
1.8243307086614173
11
1.1000393700787401
21
1.7908661417322835
0
LINE
8
BLACK
6
CONTINUOUS
10
1.2124999999999999
20
1.8499999999999999
11
1.1575
21
1.8499999999999999
0
LINE
8
BLACK
6
CONTINUOUS
10
1.1575
20
1.8499999999999999
11
1.1575
21
1.885
0
LINE
8
BLACK
6
CONTINUOUS
10
1.1575
20
1.885
11
1.2124999999999999
21
1.885
0
LINE
8
BLACK
6
CONTINUOUS
10
1.2124999999999999
20
1.885
11
1.2124999999999999
21
1.8499999999999999
0
LINE
8
BLACK
6
CONTINUOUS
10
1.3174999999999999
20
1.8499999999999999
11
1.2625
21
1.8499999999999999
0
LINE
8
BLACK
6
CONTINUOUS
10
1.2625
20
1.8499999999999999
11
1.2625
21
1.885
0
LINE
8
BLACK
6
CONTINUOUS
10
1.2625
20
1.885
11
1.3174999999999999
21
1.885
0
LINE
8
BLACK
6
CONTINUOUS
10
1.3174999999999999
20
1.885
11
1.3174999999999999
21
1.8499999999999999
0
LINE
8
BLACK
6
CONTINUOUS
10
0.7292
20
1.8697999999999999
11
0.6308
21
1.8697999999999999
0
LINE
8
BLACK
6
CONTINUOUS
10
0.6308
20
1.8697999999999999
11
0.6308
21
1.9702
0
LINE
8
BLACK
6
CONTINUOUS
10
0.6308
20
1.9702
11
0.7292
21
1.9702
0
LINE
8
BLACK
6
CONTINUOUS
10
0.7292
20
1.9702
11
0.7292
21
1.8697999999999999
0
LINE
8
BLACK
6
CONTINUOUS
10
0.8825
20
1.8799999999999999
11
0.8275
21
1.8799999999999999
0
LINE
8
BLACK
6
CONTINUOUS
10
0.8275
20
1.8799999999999999
11
0.8275
21
1.915
0
LINE
8
BLACK
6
CONTINUOUS
10
0.8275
20
1.915
11
0.8825
21
1.915
0
LINE
8
BLACK
6
CONTINUOUS
10
0.8825
20
1.915
11
0.8825
21
1.8799999999999999
0
LINE
8
BLACK
6
CONTINUOUS
10
0.9675
20
1.8799999999999999
11
0.9125
21
1.8799999999999999
0
LINE
8
BLACK
6
CONTINUOUS
10
0.9125
20
1.8799999999999999
11
0.9125
21
1.915
0
LINE
8
BLACK
6
CONTINUOUS
10
0.9125
20
1.915
11
0.9675
21
1.915
0
LINE
8
BLACK
6
CONTINUOUS
10
0.9675
20
1.915
11
0.9675
21
1.8799999999999999
0
LINE
8
BLACK
6
CONTINUOUS
10
1.0474999999999999
20
1.8799999999999999
11
0.9924999999999999
21
1.8799999999999999
0
LINE
8
BLACK
6
CONTINUOUS
10
0.9924999999999999
20
1.8799999999999999
11
0.9924999999999999
21
1.915
0
LINE
8
BLACK
6
CONTINUOUS
10
0.9924999999999999
20
1.915
11
1.0474999999999999
21
1.915
0
LINE
8
BLACK
6
CONTINUOUS
10
1.0474999999999999
20
1.915
11
1.0474999999999999
21
1.8799999999999999
0
LINE
8
BLACK
6
CONTINUOUS
10
0.4318
20
1.90455
11
0.3334
21
1.90455
0
LINE
8
BLACK
6
CONTINUOUS
10
0.3334
20
1.90455
11
0.3334
21
1.9754499999999999
0
LINE
8
BLACK
6
CONTINUOUS
10
0.3334
20
1.9754499999999999
11
0.4318
21
1.9754499999999999
0
LINE
8
BLACK
6
CONTINUOUS
10
0.4318
20
1.9754499999999999
11
0.4318
21
1.90455
0
LINE
8
BLACK
6
CONTINUOUS
10
0.5891999999999999
20
1.90455
11
0.4908
21
1.90455
0
LINE
8
BLACK
6
CONTINUOUS
10
0.4908
20
1.90455
11
0.4908
21
1.9754499999999999
0
LINE
8
BLACK
6
CONTINUOUS
10
0.4908
20
1.9754499999999999
11
0.5891999999999999
21
1.9754499999999999
0
LINE
8
BLACK
6
CONTINUOUS
10
0.5891999999999999
20
1.9754499999999999
11
0.5891999999999999
21
1.90455
0
LINE
8
BLACK
6
CONTINUOUS
10
1.2124999999999999
20
1.925
11
1.1575
21
1.925
0
LINE
8
BLACK
6
CONTINUOUS
10
1.1575
20
1.925
11
1.1575
21
1.96
0
LINE
8
BLACK
6
CONTINUOUS
10
1.1575
20
1.96
11
1.2124999999999999
21
1.96
0
LINE
8
BLACK
6
CONTINUOUS
10
1.2124999999999999
20
1.96
11
1.2124999999999999
21
1.925
0
LINE
8
BLACK
6
CONTINUOUS
10
1.3174999999999999
20
1.925
11
1.2625
21
1.925
0
LINE
8
BLACK
6
CONTINUOUS
10
1.2625
20
1.925
11
1.2625
21
1.96
0
LINE
8
BLACK
6
CONTINUOUS
10
1.2625
20
1.96
11
1.3174999999999999
21
1.96
0
LINE
8
BLACK
6
CONTINUOUS
10
1.3174999999999999
20
1.96
11
1.3174999999999999
21
1.925
0
LINE
8
BLACK
6
CONTINUOUS
10
1.4075
20
1.9275
11
1.3525
21
1.9275
0
LINE
8
BLACK
6
CONTINUOUS
10
1.3525
20
1.9275
11
1.3525
21
1.9624999999999999
0
LINE
8
BLACK
6
CONTINUOUS
10
1.3525
20
1.9624999999999999
11
1.4075
21
1.9624999999999999
0
LINE
8
BLACK
6
CONTINUOUS
10
1.4075
20
1.9624999999999999
11
1.4075
21
1.9275
0
LINE
8
BLACK
6
CONTINUOUS
10
1.8574999999999999
20
1.9350000000000001
11
1.8025
21
1.9350000000000001
0
LINE
8
BLACK
6
CONTINUOUS
10
1.8025
20
1.9350000000000001
11
1.8025
21
1.97
0
LINE
8
BLACK
6
CONTINUOUS
10
1.8025
20
1.97
11
1.8574999999999999
21
1.97
0
LINE
8
BLACK
6
CONTINUOUS
10
1.8574999999999999
20
1.97
11
1.8574999999999999
21
1.9350000000000001
0
LINE
8
BLACK
6
CONTINUOUS
10
0.8825
20
1.9549999999999998
11
0.8275
21
1.9549999999999998
0
LINE
8
BLACK
6
CONTINUOUS
10
0.8275
20
1.9549999999999998
11
0.8275
21
1.99
0
LINE
8
BLACK
6
CONTINUOUS
10
0.8275
20
1.99
11
0.8825
21
1.99
0
LINE
8
BLACK
6
CONTINUOUS
10
0.8825
20
1.99
11
0.8825
21
1.9549999999999998
0
LINE
8
BLACK
6
CONTINUOUS
10
0.9675
20
1.9549999999999998
11
0.9125
21
1.9549999999999998
0
LINE
8
BLACK
6
CONTINUOUS
10
0.9125
20
1.9549999999999998
11
0.9125
21
1.99
0
LINE
8
BLACK
6
CONTINUOUS
10
0.9125
20
1.99
11
0.9675
21
1.99
0
LINE
8
BLACK
6
CONTINUOUS
10
0.9675
20
1.99
11
0.9675
21
1.9549999999999998
0
LINE
8
BLACK
6
CONTINUOUS
10
1.0474999999999999
20
1.9549999999999998
11
0.9924999999999999
21
1.9549999999999998
0
LINE
8
BLACK
6
CONTINUOUS
10
0.9924999999999999
20
1.9549999999999998
11
0.9924999999999999
21
1.99
0
LINE
8
BLACK
6
CONTINUOUS
10
0.9924999999999999
20
1.99
11
1.0474999999999999
21
1.99
0
LINE
8
BLACK
6
CONTINUOUS
10
1.0474999999999999
20
1.99
11
1.0474999999999999
21
1.9549999999999998
0
LINE
8
BLACK
6
CONTINUOUS
10
1.4075
20
2.0024999999999999
11
1.3525
21
2.0024999999999999
0
LINE
8
BLACK
6
CONTINUOUS
10
1.3525
20
2.0024999999999999
11
1.3525
21
2.0375000000000001
0
LINE
8
BLACK
6
CONTINUOUS
10
1.3525
20
2.0375000000000001
11
1.4075
21
2.0375000000000001
0
LINE
8
BLACK
6
CONTINUOUS
10
1.4075
20
2.0375000000000001
11
1.4075
21
2.0024999999999999
0
LINE
8
BLACK
6
CONTINUOUS
10
1.1074999999999999
20
2.0099999999999998
11
1.0525
21
2.0099999999999998
0
LINE
8
BLACK
6
CONTINUOUS
10
1.0525
20
2.0099999999999998
11
1.0525
21
2.0449999999999999
0
LINE
8
BLACK
6
CONTINUOUS
10
1.0525
20
2.0449999999999999
11
1.1074999999999999
21
2.0449999999999999
0
LINE
8
BLACK
6
CONTINUOUS
10
1.1074999999999999
20
2.0449999999999999
11
1.1074999999999999
21
2.0099999999999998
0
LINE
8
BLACK
6
CONTINUOUS
10
1.3025
20
2.0099999999999998
11
1.2475000000000001
21
2.0099999999999998
0
LINE
8
BLACK
6
CONTINUOUS
10
1.2475000000000001
20
2.0099999999999998
11
1.2475000000000001
21
2.0449999999999999
0
LINE
8
BLACK
6
CONTINUOUS
10
1.2475000000000001
20
2.0449999999999999
11
1.3025
21
2.0449999999999999
0
LINE
8
BLACK
6
CONTINUOUS
10
1.3025
20
2.0449999999999999
11
1.3025
21
2.0099999999999998
0
LINE
8
BLACK
6
CONTINUOUS
10
1.8574999999999999
20
2.0099999999999998
11
1.8025
21
2.0099999999999998
0
LINE
8
BLACK
6
CONTINUOUS
10
1.8025
20
2.0099999999999998
11
1.8025
21
2.0449999999999999
0
LINE
8
BLACK
6
CONTINUOUS
10
1.8025
20
2.0449999999999999
11
1.8574999999999999
21
2.0449999999999999
0
LINE
8
BLACK
6
CONTINUOUS
10
1.8574999999999999
20
2.0449999999999999
11
1.8574999999999999
21
2.0099999999999998
0
LINE
8
BLACK
6
CONTINUOUS
10
0.9125
20
2.0150000000000001
11
0.8574999999999999
21
2.0150000000000001
0
LINE
8
BLACK
6
CONTINUOUS
10
0.8574999999999999
20
2.0150000000000001
11
0.8574999999999999
21
2.0499999999999998
0
LINE
8
BLACK
6
CONTINUOUS
10
0.8574999999999999
20
2.0499999999999998
11
0.9125
21
2.0499999999999998
0
LINE
8
BLACK
6
CONTINUOUS
10
0.9125
20
2.0499999999999998
11
0.9125
21
2.0150000000000001
0
LINE
8
BLACK
6
CONTINUOUS
10
1.1074999999999999
20
2.085
11
1.0525
21
2.085
0
LINE
8
BLACK
6
CONTINUOUS
10
1.0525
20
2.085
11
1.0525
21
2.1200000000000001
0
LINE
8
BLACK
6
CONTINUOUS
10
1.0525
20
2.1200000000000001
11
1.1074999999999999
21
2.1200000000000001
0
LINE
8
BLACK
6
CONTINUOUS
10
1.1074999999999999
20
2.1200000000000001
11
1.1074999999999999
21
2.085
0
LINE
8
BLACK
6
CONTINUOUS
10
1.3025
20
2.085
11
1.2475000000000001
21
2.085
0
LINE
8
BLACK
6
CONTINUOUS
10
1.2475000000000001
20
2.085
11
1.2475000000000001
21
2.1200000000000001
0
LINE
8
BLACK
6
CONTINUOUS
10
1.2475000000000001
20
2.1200000000000001
11
1.3025
21
2.1200000000000001
0
LINE
8
BLACK
6
CONTINUOUS
10
1.3025
20
2.1200000000000001
11
1.3025
21
2.085
0
LINE
8
BLACK
6
CONTINUOUS
10
0.9125
20
2.0899999999999999
11
0.8574999999999999
21
2.0899999999999999
0
LINE
8
BLACK
6
CONTINUOUS
10
0.8574999999999999
20
2.0899999999999999
11
0.8574999999999999
21
2.125
0
LINE
8
BLACK
6
CONTINUOUS
10
0.8574999999999999
20
2.125
11
0.9125
21
2.125
0
LINE
8
BLACK
6
CONTINUOUS
10
0.9125
20
2.125
11
0.9125
21
2.0899999999999999
0
LINE
8
BLACK
6
CONTINUOUS
10
1.0045275590551181
20
2.1005905511811025
11
0.9454724409448819
21
2.1005905511811025
0
LINE
8
BLACK
6
CONTINUOUS
10
0.9454724409448819
20
2.1005905511811025
11
0.9454724409448819
21
2.1419291338582678
0
LINE
8
BLACK
6
CONTINUOUS
10
0.9454724409448819
20
2.1419291338582678
11
1.0045275590551181
21
2.1419291338582678
0
LINE
8
BLACK
6
CONTINUOUS
10
1.0045275590551181
20
2.1419291338582678
11
1.0045275590551181
21
2.1005905511811025
0
LINE
8
BLACK
6
CONTINUOUS
10
1.2045275590551181
20
2.1005905511811025
11
1.1454724409448818
21
2.1005905511811025
0
LINE
8
BLACK
6
CONTINUOUS
10
1.1454724409448818
20
2.1005905511811025
11
1.1454724409448818
21
2.1419291338582678
0
LINE
8
BLACK
6
CONTINUOUS
10
1.1454724409448818
20
2.1419291338582678
11
1.2045275590551181
21
2.1419291338582678
0
LINE
8
BLACK
6
CONTINUOUS
10
1.2045275590551181
20
2.1419291338582678
11
1.2045275590551181
21
2.1005905511811025
0
LINE
8
BLACK
6
CONTINUOUS
10
1.4045275590551181
20
2.1005905511811025
11
1.3454724409448819
21
2.1005905511811025
0
LINE
8
BLACK
6
CONTINUOUS
10
1.3454724409448819
20
2.1005905511811025
11
1.3454724409448819
21
2.1419291338582678
0
LINE
8
BLACK
6
CONTINUOUS
10
1.3454724409448819
20
2.1419291338582678
11
1.4045275590551181
21
2.1419291338582678
0
LINE
8
BLACK
6
CONTINUOUS
10
1.4045275590551181
20
2.1419291338582678
11
1.4045275590551181
21
2.1005905511811025
0
LINE
8
BLACK
6
CONTINUOUS
10
1.0045275590551181
20
2.2580708661417321
11
0.9454724409448819
21
2.2580708661417321
0
LINE
8
BLACK
6
CONTINUOUS
10
0.9454724409448819
20
2.2580708661417321
11
0.9454724409448819
21
2.2994094488188974
0
LINE
8
BLACK
6
CONTINUOUS
10
0.9454724409448819
20
2.2994094488188974
11
1.0045275590551181
21
2.2994094488188974
0
LINE
8
BLACK
6
CONTINUOUS
10
1.0045275590551181
20
2.2994094488188974
11
1.0045275590551181
21
2.2580708661417321
0
LINE
8
BLACK
6
CONTINUOUS
10
1.2045275590551181
20
2.2580708661417321
11
1.1454724409448818
21
2.2580708661417321
0
LINE
8
BLACK
6
CONTINUOUS
10
1.1454724409448818
20
2.2580708661417321
11
1.1454724409448818
21
2.2994094488188974
0
LINE
8
BLACK
6
CONTINUOUS
10
1.1454724409448818
20
2.2994094488188974
11
1.2045275590551181
21
2.2994094488188974
0
LINE
8
BLACK
6
CONTINUOUS
10
1.2045275590551181
20
2.2994094488188974
11
1.2045275590551181
21
2.2580708661417321
0
LINE
8
BLACK
6
CONTINUOUS
10
1.4045275590551181
20
2.2580708661417321
11
1.3454724409448819
21
2.2580708661417321
0
LINE
8
BLACK
6
CONTINUOUS
10
1.3454724409448819
20
2.2580708661417321
11
1.3454724409448819
21
2.2994094488188974
0
LINE
8
BLACK
6
CONTINUOUS
10
1.3454724409448819
20
2.2994094488188974
11
1.4045275590551181
21
2.2994094488188974
0
LINE
8
BLACK
6
CONTINUOUS
10
1.4045275590551181
20
2.2994094488188974
11
1.4045275590551181
21
2.2580708661417321
  0
ENDSEC
  0
EOF
