  0
SECTION
  2
HEADER
  9
$ANGBASE
  50
0.0
  9
$ANGDIR
  70
1
  9
$MEASUREMENT
  70
0
  0
ENDSEC
  0
SECTION
  2
TABLES
  0
TABLE
  2
LTYPE
  70
4
  0
LTYPE
  5
40F
  2
CONTINUOUS
  70
0
  3
Solid line
  72
65
  73
0
  40
0.0
  0
LTYPE
  5
410
  2
DASHDOT
 70
0
  3
Dash Dot ____ _ ____ _
 72
65
 73
4
 40
2.0
 49
1.25
 49
-0.25
 49
0.25
 49
-0.25
  0
LTYPE
  5
411
  2
DASHED
 70
0
  3
Dashed __ __ __ __ __
 72
65
 73
2
 40
0.75
 49
0.5
 49
-0.25
  0
LTYPE
  5
43B
  2
DOTTED
 70
0
  3
Dotted .  .  .  .
 72
65
 73
2
 40
0.2
 49
0.0
 49
-0.2
  0
ENDTAB
  0
TABLE
  2
STYLE
  70
4
  0
STYLE
  2
KICAD
  70
0
  40
0
  41
1
  42
1
  50
0
  71
0
  3
isocp.shx
  0
STYLE
  2
KICADB
  70
0
  40
0
  41
1
  42
1
  50
0
  71
0
  3
isocp.shx
  0
STYLE
  2
KICADI
  70
0
  40
0
  41
1
  42
1
  50
15
  71
0
  3
isocp.shx
  0
STYLE
  2
KICADBI
  70
0
  40
0
  41
1
  42
1
  50
15
  71
0
  3
isocp.shx
  0
ENDTAB
  0
TABLE
  2
LAYER
  70
1
  0
LAYER
  2
BLACK
  70
0
  62
7
  6
CONTINUOUS
  0
ENDTAB
  0
ENDSEC
  0
SECTION
  2
ENTITIES
0
LINE
8
BLACK
6
CONTINUOUS
10
2.87792
20
0.229534
11
2.88197
21
0.242958
0
LINE
8
BLACK
6
CONTINUOUS
10
2.88197
20
0.242958
11
2.8875
21
0.255846
0
LINE
8
BLACK
6
CONTINUOUS
10
2.8875
20
0.255846
11
2.89442
21
0.268039
0
LINE
8
BLACK
6
CONTINUOUS
10
2.89442
20
0.268039
11
2.90267
21
0.279383
0
LINE
8
BLACK
6
CONTINUOUS
10
2.90267
20
0.279383
11
2.91212
21
0.289738
0
LINE
8
BLACK
6
CONTINUOUS
10
2.91212
20
0.289738
11
2.92267
21
0.298974
0
LINE
8
BLACK
6
CONTINUOUS
10
2.92267
20
0.298974
11
2.93419
21
0.306977
0
LINE
8
BLACK
6
CONTINUOUS
10
2.93419
20
0.306977
11
2.94652
21
0.313646
0
LINE
8
BLACK
6
CONTINUOUS
10
2.94652
20
0.313646
11
2.95952
21
0.318899
0
LINE
8
BLACK
6
CONTINUOUS
10
2.95952
20
0.318899
11
2.97303
21
0.32267
0
LINE
8
BLACK
6
CONTINUOUS
10
2.97303
20
0.32267
11
2.98687
21
0.324912
0
LINE
8
BLACK
6
CONTINUOUS
10
2.98687
20
0.324912
11
3.00088
21
0.325597
0
LINE
8
BLACK
6
CONTINUOUS
10
3.00088
20
0.325597
11
3.01487
21
0.324716
0
LINE
8
BLACK
6
CONTINUOUS
10
3.01487
20
0.324716
11
3.02868
21
0.322281
0
LINE
8
BLACK
6
CONTINUOUS
10
3.02868
20
0.322281
11
3.04213
21
0.318322
0
LINE
8
BLACK
6
CONTINUOUS
10
3.04213
20
0.318322
11
3.05506
21
0.312889
0
LINE
8
BLACK
6
CONTINUOUS
10
3.05506
20
0.312889
11
3.0673
21
0.306048
0
LINE
8
BLACK
6
CONTINUOUS
10
3.0673
20
0.306048
11
3.0787
21
0.297885
0
LINE
8
BLACK
6
CONTINUOUS
10
3.0787
20
0.297885
11
3.08912
21
0.288502
0
LINE
8
BLACK
6
CONTINUOUS
10
3.08912
20
0.288502
11
3.09843
21
0.278016
0
LINE
8
BLACK
6
CONTINUOUS
10
3.09843
20
0.278016
11
3.10651
21
0.266558
0
LINE
8
BLACK
6
CONTINUOUS
10
3.10651
20
0.266558
11
3.11327
21
0.25427
0
LINE
8
BLACK
6
CONTINUOUS
10
3.11327
20
0.25427
11
3.11861
21
0.241306
0
LINE
8
BLACK
6
CONTINUOUS
10
3.11861
20
0.241306
11
3.12248
21
0.227826
0
LINE
8
BLACK
6
CONTINUOUS
10
3.12248
20
0.227826
11
3.12482
21
0.214001
0
LINE
8
BLACK
6
CONTINUOUS
10
3.12482
20
0.214001
11
3.1256
21
0.2
0
LINE
8
BLACK
6
CONTINUOUS
10
3.1256
20
0.2
11
3.12555
21
0.196493
0
LINE
8
BLACK
6
CONTINUOUS
10
3.12555
20
0.196493
11
3.12438
21
0.18252
0
LINE
8
BLACK
6
CONTINUOUS
10
3.12438
20
0.18252
11
3.12165
21
0.168765
0
LINE
8
BLACK
6
CONTINUOUS
10
3.12165
20
0.168765
11
3.11741
21
0.155399
0
LINE
8
BLACK
6
CONTINUOUS
10
3.11741
20
0.155399
11
3.11171
21
0.142589
0
LINE
8
BLACK
6
CONTINUOUS
10
3.11171
20
0.142589
11
3.10461
21
0.130494
0
LINE
8
BLACK
6
CONTINUOUS
10
3.10461
20
0.130494
11
3.09622
21
0.119266
0
LINE
8
BLACK
6
CONTINUOUS
10
3.09622
20
0.119266
11
3.08662
21
0.109044
0
LINE
8
BLACK
6
CONTINUOUS
10
3.08662
20
0.109044
11
3.07594
21
0.0999558
0
LINE
8
BLACK
6
CONTINUOUS
10
3.07594
20
0.0999558
11
3.06431
21
0.0921146
0
LINE
8
BLACK
6
CONTINUOUS
10
3.06431
20
0.0921146
11
3.05189
21
0.0856181
0
LINE
8
BLACK
6
CONTINUOUS
10
3.05189
20
0.0856181
11
3.03881
21
0.0805473
0
LINE
8
BLACK
6
CONTINUOUS
10
3.03881
20
0.0805473
11
3.02526
21
0.0769654
0
LINE
8
BLACK
6
CONTINUOUS
10
3.02526
20
0.0769654
11
3.01138
21
0.0749169
0
LINE
8
BLACK
6
CONTINUOUS
10
3.01138
20
0.0749169
11
2.99737
21
0.0744276
0
LINE
8
BLACK
6
CONTINUOUS
10
2.99737
20
0.0744276
11
2.98339
21
0.0755033
0
LINE
8
BLACK
6
CONTINUOUS
10
2.98339
20
0.0755033
11
2.96961
21
0.0781309
0
LINE
8
BLACK
6
CONTINUOUS
10
2.96961
20
0.0781309
11
2.95622
21
0.0822774
0
LINE
8
BLACK
6
CONTINUOUS
10
2.95622
20
0.0822774
11
2.94337
21
0.0878912
0
LINE
8
BLACK
6
CONTINUOUS
10
2.94337
20
0.0878912
11
2.93123
21
0.0949024
0
LINE
8
BLACK
6
CONTINUOUS
10
2.93123
20
0.0949024
11
2.91994
21
0.103224
0
LINE
8
BLACK
6
CONTINUOUS
10
2.91994
20
0.103224
11
2.90965
21
0.112751
0
LINE
8
BLACK
6
CONTINUOUS
10
2.90965
20
0.112751
11
2.90049
21
0.123366
0
LINE
8
BLACK
6
CONTINUOUS
10
2.90049
20
0.123366
11
2.89257
21
0.134936
0
LINE
8
BLACK
6
CONTINUOUS
10
2.89257
20
0.134936
11
2.88598
21
0.147317
0
LINE
8
BLACK
6
CONTINUOUS
10
2.88598
20
0.147317
11
2.88082
21
0.160354
0
LINE
8
BLACK
6
CONTINUOUS
10
2.88082
20
0.160354
11
2.87714
21
0.173886
0
LINE
8
BLACK
6
CONTINUOUS
10
2.87714
20
0.173886
11
2.875
21
0.187744
0
LINE
8
BLACK
6
CONTINUOUS
10
2.875
20
0.187744
11
2.87441
21
0.201754
0
LINE
8
BLACK
6
CONTINUOUS
10
2.87441
20
0.201754
11
2.87453
21
0.20348
0
LINE
8
BLACK
6
CONTINUOUS
10
2.87453
20
0.20348
11
2.87539
21
0.215742
0
LINE
8
BLACK
6
CONTINUOUS
10
2.87539
20
0.215742
11
2.87792
21
0.229534
0
LINE
8
BLACK
6
CONTINUOUS
10
2.8914
20
0.178102
11
2.89463
21
0.165765
0
LINE
8
BLACK
6
CONTINUOUS
10
2.89463
20
0.165765
11
2.89927
21
0.153881
0
LINE
8
BLACK
6
CONTINUOUS
10
2.89927
20
0.153881
11
2.90524
21
0.142609
0
LINE
8
BLACK
6
CONTINUOUS
10
2.90524
20
0.142609
11
2.91246
21
0.132098
0
LINE
8
BLACK
6
CONTINUOUS
10
2.91246
20
0.132098
11
2.92085
21
0.122486
0
LINE
8
BLACK
6
CONTINUOUS
10
2.92085
20
0.122486
11
2.93028
21
0.113902
0
LINE
8
BLACK
6
CONTINUOUS
10
2.93028
20
0.113902
11
2.94064
21
0.106459
0
LINE
8
BLACK
6
CONTINUOUS
10
2.94064
20
0.106459
11
2.95178
21
0.100256
0
LINE
8
BLACK
6
CONTINUOUS
10
2.95178
20
0.100256
11
2.96357
21
0.095375
0
LINE
8
BLACK
6
CONTINUOUS
10
2.96357
20
0.095375
11
2.97583
21
0.0918807
0
LINE
8
BLACK
6
CONTINUOUS
10
2.97583
20
0.0918807
11
2.98842
21
0.0898194
0
LINE
8
BLACK
6
CONTINUOUS
10
2.98842
20
0.0898194
11
3.00116
21
0.0892186
0
LINE
8
BLACK
6
CONTINUOUS
10
3.00116
20
0.0892186
11
3.01389
21
0.0900861
0
LINE
8
BLACK
6
CONTINUOUS
10
3.01389
20
0.0900861
11
3.02643
21
0.0924105
0
LINE
8
BLACK
6
CONTINUOUS
10
3.02643
20
0.0924105
11
3.03862
21
0.0961609
0
LINE
8
BLACK
6
CONTINUOUS
10
3.03862
20
0.0961609
11
3.0503
21
0.101288
0
LINE
8
BLACK
6
CONTINUOUS
10
3.0503
20
0.101288
11
3.06131
21
0.107723
0
LINE
8
BLACK
6
CONTINUOUS
10
3.06131
20
0.107723
11
3.07151
21
0.115381
0
LINE
8
BLACK
6
CONTINUOUS
10
3.07151
20
0.115381
11
3.08076
21
0.124161
0
LINE
8
BLACK
6
CONTINUOUS
10
3.08076
20
0.124161
11
3.08894
21
0.133946
0
LINE
8
BLACK
6
CONTINUOUS
10
3.08894
20
0.133946
11
3.09594
21
0.144606
0
LINE
8
BLACK
6
CONTINUOUS
10
3.09594
20
0.144606
11
3.10168
21
0.156001
0
LINE
8
BLACK
6
CONTINUOUS
10
3.10168
20
0.156001
11
3.10606
21
0.167979
0
LINE
8
BLACK
6
CONTINUOUS
10
3.10606
20
0.167979
11
3.10904
21
0.180381
0
LINE
8
BLACK
6
CONTINUOUS
10
3.10904
20
0.180381
11
3.11057
21
0.193044
0
LINE
8
BLACK
6
CONTINUOUS
10
3.11057
20
0.193044
11
3.11079
21
0.2
0
LINE
8
BLACK
6
CONTINUOUS
10
3.11079
20
0.2
11
3.11005
21
0.212734
0
LINE
8
BLACK
6
CONTINUOUS
10
3.11005
20
0.212734
11
3.10786
21
0.225298
0
LINE
8
BLACK
6
CONTINUOUS
10
3.10786
20
0.225298
11
3.10424
21
0.237528
0
LINE
8
BLACK
6
CONTINUOUS
10
3.10424
20
0.237528
11
3.09923
21
0.24926
0
LINE
8
BLACK
6
CONTINUOUS
10
3.09923
20
0.24926
11
3.09291
21
0.260339
0
LINE
8
BLACK
6
CONTINUOUS
10
3.09291
20
0.260339
11
3.08536
21
0.270619
0
LINE
8
BLACK
6
CONTINUOUS
10
3.08536
20
0.270619
11
3.07668
21
0.279962
0
LINE
8
BLACK
6
CONTINUOUS
10
3.07668
20
0.279962
11
3.06698
21
0.288246
0
LINE
8
BLACK
6
CONTINUOUS
10
3.06698
20
0.288246
11
3.0564
21
0.295359
0
LINE
8
BLACK
6
CONTINUOUS
10
3.0564
20
0.295359
11
3.04506
21
0.301209
0
LINE
8
BLACK
6
CONTINUOUS
10
3.04506
20
0.301209
11
3.03313
21
0.305718
0
LINE
8
BLACK
6
CONTINUOUS
10
3.03313
20
0.305718
11
3.02076
21
0.308825
0
LINE
8
BLACK
6
CONTINUOUS
10
3.02076
20
0.308825
11
3.00811
21
0.31049
0
LINE
8
BLACK
6
CONTINUOUS
10
3.00811
20
0.31049
11
2.99536
21
0.31069
0
LINE
8
BLACK
6
CONTINUOUS
10
2.99536
20
0.31069
11
2.98267
21
0.309423
0
LINE
8
BLACK
6
CONTINUOUS
10
2.98267
20
0.309423
11
2.97021
21
0.306706
0
LINE
8
BLACK
6
CONTINUOUS
10
2.97021
20
0.306706
11
2.95814
21
0.302575
0
LINE
8
BLACK
6
CONTINUOUS
10
2.95814
20
0.302575
11
2.94663
21
0.297084
0
LINE
8
BLACK
6
CONTINUOUS
10
2.94663
20
0.297084
11
2.93582
21
0.290306
0
LINE
8
BLACK
6
CONTINUOUS
10
2.93582
20
0.290306
11
2.92587
21
0.282331
0
LINE
8
BLACK
6
CONTINUOUS
10
2.92587
20
0.282331
11
2.9169
21
0.273265
0
LINE
8
BLACK
6
CONTINUOUS
10
2.9169
20
0.273265
11
2.90903
21
0.263228
0
LINE
8
BLACK
6
CONTINUOUS
10
2.90903
20
0.263228
11
2.90236
21
0.252353
0
LINE
8
BLACK
6
CONTINUOUS
10
2.90236
20
0.252353
11
2.89699
21
0.240784
0
LINE
8
BLACK
6
CONTINUOUS
10
2.89699
20
0.240784
11
2.89299
21
0.228674
0
LINE
8
BLACK
6
CONTINUOUS
10
2.89299
20
0.228674
11
2.8904
21
0.216184
0
LINE
8
BLACK
6
CONTINUOUS
10
2.8904
20
0.216184
11
2.88927
21
0.20348
0
LINE
8
BLACK
6
CONTINUOUS
10
2.88927
20
0.20348
11
2.8896
21
0.19073
0
LINE
8
BLACK
6
CONTINUOUS
10
2.8896
20
0.19073
11
2.8914
21
0.178102
0
LINE
8
BLACK
6
CONTINUOUS
10
0.0779217
20
0.229534
11
0.0819746
21
0.242958
0
LINE
8
BLACK
6
CONTINUOUS
10
0.0819746
20
0.242958
11
0.0874986
21
0.255846
0
LINE
8
BLACK
6
CONTINUOUS
10
0.0874986
20
0.255846
11
0.0944248
21
0.268039
0
LINE
8
BLACK
6
CONTINUOUS
10
0.0944248
20
0.268039
11
0.102667
21
0.279383
0
LINE
8
BLACK
6
CONTINUOUS
10
0.102667
20
0.279383
11
0.112122
21
0.289738
0
LINE
8
BLACK
6
CONTINUOUS
10
0.112122
20
0.289738
11
0.122673
21
0.298974
0
LINE
8
BLACK
6
CONTINUOUS
10
0.122673
20
0.298974
11
0.134187
21
0.306977
0
LINE
8
BLACK
6
CONTINUOUS
10
0.134187
20
0.306977
11
0.146522
21
0.313646
0
LINE
8
BLACK
6
CONTINUOUS
10
0.146522
20
0.313646
11
0.159523
21
0.318899
0
LINE
8
BLACK
6
CONTINUOUS
10
0.159523
20
0.318899
11
0.173029
21
0.32267
0
LINE
8
BLACK
6
CONTINUOUS
10
0.173029
20
0.32267
11
0.186871
21
0.324912
0
LINE
8
BLACK
6
CONTINUOUS
10
0.186871
20
0.324912
11
0.200877
21
0.325597
0
LINE
8
BLACK
6
CONTINUOUS
10
0.200877
20
0.325597
11
0.214872
21
0.324716
0
LINE
8
BLACK
6
CONTINUOUS
10
0.214872
20
0.324716
11
0.228681
21
0.322281
0
LINE
8
BLACK
6
CONTINUOUS
10
0.228681
20
0.322281
11
0.242133
21
0.318322
0
LINE
8
BLACK
6
CONTINUOUS
10
0.242133
20
0.318322
11
0.255059
21
0.312889
0
LINE
8
BLACK
6
CONTINUOUS
10
0.255059
20
0.312889
11
0.2673
21
0.306048
0
LINE
8
BLACK
6
CONTINUOUS
10
0.2673
20
0.306048
11
0.278701
21
0.297885
0
LINE
8
BLACK
6
CONTINUOUS
10
0.278701
20
0.297885
11
0.289122
21
0.288502
0
LINE
8
BLACK
6
CONTINUOUS
10
0.289122
20
0.288502
11
0.298432
21
0.278016
0
LINE
8
BLACK
6
CONTINUOUS
10
0.298432
20
0.278016
11
0.306515
21
0.266558
0
LINE
8
BLACK
6
CONTINUOUS
10
0.306515
20
0.266558
11
0.31327
21
0.25427
0
LINE
8
BLACK
6
CONTINUOUS
10
0.31327
20
0.25427
11
0.318614
21
0.241306
0
LINE
8
BLACK
6
CONTINUOUS
10
0.318614
20
0.241306
11
0.322479
21
0.227826
0
LINE
8
BLACK
6
CONTINUOUS
10
0.322479
20
0.227826
11
0.324817
21
0.214001
0
LINE
8
BLACK
6
CONTINUOUS
10
0.324817
20
0.214001
11
0.3256
21
0.2
0
LINE
8
BLACK
6
CONTINUOUS
10
0.3256
20
0.2
11
0.325551
21
0.196493
0
LINE
8
BLACK
6
CONTINUOUS
10
0.325551
20
0.196493
11
0.324378
21
0.18252
0
LINE
8
BLACK
6
CONTINUOUS
10
0.324378
20
0.18252
11
0.321654
21
0.168765
0
LINE
8
BLACK
6
CONTINUOUS
10
0.321654
20
0.168765
11
0.317414
21
0.155399
0
LINE
8
BLACK
6
CONTINUOUS
10
0.317414
20
0.155399
11
0.311711
21
0.142589
0
LINE
8
BLACK
6
CONTINUOUS
10
0.311711
20
0.142589
11
0.304615
21
0.130494
0
LINE
8
BLACK
6
CONTINUOUS
10
0.304615
20
0.130494
11
0.296215
21
0.119266
0
LINE
8
BLACK
6
CONTINUOUS
10
0.296215
20
0.119266
11
0.286616
21
0.109044
0
LINE
8
BLACK
6
CONTINUOUS
10
0.286616
20
0.109044
11
0.275938
21
0.0999558
0
LINE
8
BLACK
6
CONTINUOUS
10
0.275938
20
0.0999558
11
0.264313
21
0.0921146
0
LINE
8
BLACK
6
CONTINUOUS
10
0.264313
20
0.0921146
11
0.251886
21
0.0856181
0
LINE
8
BLACK
6
CONTINUOUS
10
0.251886
20
0.0856181
11
0.238813
21
0.0805473
0
LINE
8
BLACK
6
CONTINUOUS
10
0.238813
20
0.0805473
11
0.225255
21
0.0769654
0
LINE
8
BLACK
6
CONTINUOUS
10
0.225255
20
0.0769654
11
0.211383
21
0.0749169
0
LINE
8
BLACK
6
CONTINUOUS
10
0.211383
20
0.0749169
11
0.19737
21
0.0744276
0
LINE
8
BLACK
6
CONTINUOUS
10
0.19737
20
0.0744276
11
0.183389
21
0.0755033
0
LINE
8
BLACK
6
CONTINUOUS
10
0.183389
20
0.0755033
11
0.169615
21
0.0781309
0
LINE
8
BLACK
6
CONTINUOUS
10
0.169615
20
0.0781309
11
0.156219
21
0.0822774
0
LINE
8
BLACK
6
CONTINUOUS
10
0.156219
20
0.0822774
11
0.14337
21
0.0878912
0
LINE
8
BLACK
6
CONTINUOUS
10
0.14337
20
0.0878912
11
0.131226
21
0.0949024
0
LINE
8
BLACK
6
CONTINUOUS
10
0.131226
20
0.0949024
11
0.11994
21
0.103224
0
LINE
8
BLACK
6
CONTINUOUS
10
0.11994
20
0.103224
11
0.109651
21
0.112751
0
LINE
8
BLACK
6
CONTINUOUS
10
0.109651
20
0.112751
11
0.100488
21
0.123366
0
LINE
8
BLACK
6
CONTINUOUS
10
0.100488
20
0.123366
11
0.0925663
21
0.134936
0
LINE
8
BLACK
6
CONTINUOUS
10
0.0925663
20
0.134936
11
0.0859831
21
0.147317
0
LINE
8
BLACK
6
CONTINUOUS
10
0.0859831
20
0.147317
11
0.0808212
21
0.160354
0
LINE
8
BLACK
6
CONTINUOUS
10
0.0808212
20
0.160354
11
0.0771446
21
0.173886
0
LINE
8
BLACK
6
CONTINUOUS
10
0.0771446
20
0.173886
11
0.0749994
21
0.187744
0
LINE
8
BLACK
6
CONTINUOUS
10
0.0749994
20
0.187744
11
0.0744122
21
0.201754
0
LINE
8
BLACK
6
CONTINUOUS
10
0.0744122
20
0.201754
11
0.074533
21
0.20348
0
LINE
8
BLACK
6
CONTINUOUS
10
0.074533
20
0.20348
11
0.0753904
21
0.215742
0
LINE
8
BLACK
6
CONTINUOUS
10
0.0753904
20
0.215742
11
0.0779217
21
0.229534
0
LINE
8
BLACK
6
CONTINUOUS
10
0.0913983
20
0.178102
11
0.0946349
21
0.165765
0
LINE
8
BLACK
6
CONTINUOUS
10
0.0946349
20
0.165765
11
0.0992681
21
0.153881
0
LINE
8
BLACK
6
CONTINUOUS
10
0.0992681
20
0.153881
11
0.105236
21
0.142609
0
LINE
8
BLACK
6
CONTINUOUS
10
0.105236
20
0.142609
11
0.112461
21
0.132098
0
LINE
8
BLACK
6
CONTINUOUS
10
0.112461
20
0.132098
11
0.120845
21
0.122486
0
LINE
8
BLACK
6
CONTINUOUS
10
0.120845
20
0.122486
11
0.130279
21
0.113902
0
LINE
8
BLACK
6
CONTINUOUS
10
0.130279
20
0.113902
11
0.140637
21
0.106459
0
LINE
8
BLACK
6
CONTINUOUS
10
0.140637
20
0.106459
11
0.151782
21
0.100256
0
LINE
8
BLACK
6
CONTINUOUS
10
0.151782
20
0.100256
11
0.163566
21
0.095375
0
LINE
8
BLACK
6
CONTINUOUS
10
0.163566
20
0.095375
11
0.175832
21
0.0918807
0
LINE
8
BLACK
6
CONTINUOUS
10
0.175832
20
0.0918807
11
0.18842
21
0.0898194
0
LINE
8
BLACK
6
CONTINUOUS
10
0.18842
20
0.0898194
11
0.20116
21
0.0892186
0
LINE
8
BLACK
6
CONTINUOUS
10
0.20116
20
0.0892186
11
0.213885
21
0.0900861
0
LINE
8
BLACK
6
CONTINUOUS
10
0.213885
20
0.0900861
11
0.226426
21
0.0924105
0
LINE
8
BLACK
6
CONTINUOUS
10
0.226426
20
0.0924105
11
0.238617
21
0.0961609
0
LINE
8
BLACK
6
CONTINUOUS
10
0.238617
20
0.0961609
11
0.250296
21
0.101288
0
LINE
8
BLACK
6
CONTINUOUS
10
0.250296
20
0.101288
11
0.261309
21
0.107723
0
LINE
8
BLACK
6
CONTINUOUS
10
0.261309
20
0.107723
11
0.271509
21
0.115381
0
LINE
8
BLACK
6
CONTINUOUS
10
0.271509
20
0.115381
11
0.280761
21
0.124161
0
LINE
8
BLACK
6
CONTINUOUS
10
0.280761
20
0.124161
11
0.288942
21
0.133946
0
LINE
8
BLACK
6
CONTINUOUS
10
0.288942
20
0.133946
11
0.295945
21
0.144606
0
LINE
8
BLACK
6
CONTINUOUS
10
0.295945
20
0.144606
11
0.301676
21
0.156001
0
LINE
8
BLACK
6
CONTINUOUS
10
0.301676
20
0.156001
11
0.306059
21
0.167979
0
LINE
8
BLACK
6
CONTINUOUS
10
0.306059
20
0.167979
11
0.309036
21
0.180381
0
LINE
8
BLACK
6
CONTINUOUS
10
0.309036
20
0.180381
11
0.310569
21
0.193044
0
LINE
8
BLACK
6
CONTINUOUS
10
0.310569
20
0.193044
11
0.310787
21
0.2
0
LINE
8
BLACK
6
CONTINUOUS
10
0.310787
20
0.2
11
0.310053
21
0.212734
0
LINE
8
BLACK
6
CONTINUOUS
10
0.310053
20
0.212734
11
0.30786
21
0.225298
0
LINE
8
BLACK
6
CONTINUOUS
10
0.30786
20
0.225298
11
0.304238
21
0.237528
0
LINE
8
BLACK
6
CONTINUOUS
10
0.304238
20
0.237528
11
0.299234
21
0.24926
0
LINE
8
BLACK
6
CONTINUOUS
10
0.299234
20
0.24926
11
0.292914
21
0.260339
0
LINE
8
BLACK
6
CONTINUOUS
10
0.292914
20
0.260339
11
0.285363
21
0.270619
0
LINE
8
BLACK
6
CONTINUOUS
10
0.285363
20
0.270619
11
0.276681
21
0.279962
0
LINE
8
BLACK
6
CONTINUOUS
10
0.276681
20
0.279962
11
0.266982
21
0.288246
0
LINE
8
BLACK
6
CONTINUOUS
10
0.266982
20
0.288246
11
0.256395
21
0.295359
0
LINE
8
BLACK
6
CONTINUOUS
10
0.256395
20
0.295359
11
0.245061
21
0.301209
0
LINE
8
BLACK
6
CONTINUOUS
10
0.245061
20
0.301209
11
0.23313
21
0.305718
0
LINE
8
BLACK
6
CONTINUOUS
10
0.23313
20
0.305718
11
0.220759
21
0.308825
0
LINE
8
BLACK
6
CONTINUOUS
10
0.220759
20
0.308825
11
0.208114
21
0.31049
0
LINE
8
BLACK
6
CONTINUOUS
10
0.208114
20
0.31049
11
0.195361
21
0.31069
0
LINE
8
BLACK
6
CONTINUOUS
10
0.195361
20
0.31069
11
0.182669
21
0.309423
0
LINE
8
BLACK
6
CONTINUOUS
10
0.182669
20
0.309423
11
0.170207
21
0.306706
0
LINE
8
BLACK
6
CONTINUOUS
10
0.170207
20
0.306706
11
0.15814
21
0.302575
0
LINE
8
BLACK
6
CONTINUOUS
10
0.15814
20
0.302575
11
0.146628
21
0.297084
0
LINE
8
BLACK
6
CONTINUOUS
10
0.146628
20
0.297084
11
0.135823
21
0.290306
0
LINE
8
BLACK
6
CONTINUOUS
10
0.135823
20
0.290306
11
0.125869
21
0.282331
0
LINE
8
BLACK
6
CONTINUOUS
10
0.125869
20
0.282331
11
0.116897
21
0.273265
0
LINE
8
BLACK
6
CONTINUOUS
10
0.116897
20
0.273265
11
0.109027
21
0.263228
0
LINE
8
BLACK
6
CONTINUOUS
10
0.109027
20
0.263228
11
0.102363
21
0.252353
0
LINE
8
BLACK
6
CONTINUOUS
10
0.102363
20
0.252353
11
0.0969924
21
0.240784
0
LINE
8
BLACK
6
CONTINUOUS
10
0.0969924
20
0.240784
11
0.0929876
21
0.228674
0
LINE
8
BLACK
6
CONTINUOUS
10
0.0929876
20
0.228674
11
0.0904011
21
0.216184
0
LINE
8
BLACK
6
CONTINUOUS
10
0.0904011
20
0.216184
11
0.0892672
21
0.20348
0
LINE
8
BLACK
6
CONTINUOUS
10
0.0892672
20
0.20348
11
0.0896011
21
0.19073
0
LINE
8
BLACK
6
CONTINUOUS
10
0.0896011
20
0.19073
11
0.0913983
21
0.178102
0
LINE
8
BLACK
6
CONTINUOUS
10
0.0779217
20
2.22953
11
0.0819746
21
2.24296
0
LINE
8
BLACK
6
CONTINUOUS
10
0.0819746
20
2.24296
11
0.0874986
21
2.25585
0
LINE
8
BLACK
6
CONTINUOUS
10
0.0874986
20
2.25585
11
0.0944248
21
2.26804
0
LINE
8
BLACK
6
CONTINUOUS
10
0.0944248
20
2.26804
11
0.102667
21
2.27938
0
LINE
8
BLACK
6
CONTINUOUS
10
0.102667
20
2.27938
11
0.112122
21
2.28974
0
LINE
8
BLACK
6
CONTINUOUS
10
0.112122
20
2.28974
11
0.122673
21
2.29897
0
LINE
8
BLACK
6
CONTINUOUS
10
0.122673
20
2.29897
11
0.134187
21
2.30698
0
LINE
8
BLACK
6
CONTINUOUS
10
0.134187
20
2.30698
11
0.146522
21
2.31365
0
LINE
8
BLACK
6
CONTINUOUS
10
0.146522
20
2.31365
11
0.159523
21
2.3189
0
LINE
8
BLACK
6
CONTINUOUS
10
0.159523
20
2.3189
11
0.173029
21
2.32267
0
LINE
8
BLACK
6
CONTINUOUS
10
0.173029
20
2.32267
11
0.186871
21
2.32491
0
LINE
8
BLACK
6
CONTINUOUS
10
0.186871
20
2.32491
11
0.200877
21
2.3256
0
LINE
8
BLACK
6
CONTINUOUS
10
0.200877
20
2.3256
11
0.214872
21
2.32472
0
LINE
8
BLACK
6
CONTINUOUS
10
0.214872
20
2.32472
11
0.228681
21
2.32228
0
LINE
8
BLACK
6
CONTINUOUS
10
0.228681
20
2.32228
11
0.242133
21
2.31832
0
LINE
8
BLACK
6
CONTINUOUS
10
0.242133
20
2.31832
11
0.255059
21
2.31289
0
LINE
8
BLACK
6
CONTINUOUS
10
0.255059
20
2.31289
11
0.2673
21
2.30605
0
LINE
8
BLACK
6
CONTINUOUS
10
0.2673
20
2.30605
11
0.278701
21
2.29788
0
LINE
8
BLACK
6
CONTINUOUS
10
0.278701
20
2.29788
11
0.289122
21
2.2885
0
LINE
8
BLACK
6
CONTINUOUS
10
0.289122
20
2.2885
11
0.298432
21
2.27802
0
LINE
8
BLACK
6
CONTINUOUS
10
0.298432
20
2.27802
11
0.306515
21
2.26656
0
LINE
8
BLACK
6
CONTINUOUS
10
0.306515
20
2.26656
11
0.31327
21
2.25427
0
LINE
8
BLACK
6
CONTINUOUS
10
0.31327
20
2.25427
11
0.318614
21
2.24131
0
LINE
8
BLACK
6
CONTINUOUS
10
0.318614
20
2.24131
11
0.322479
21
2.22783
0
LINE
8
BLACK
6
CONTINUOUS
10
0.322479
20
2.22783
11
0.324817
21
2.214
0
LINE
8
BLACK
6
CONTINUOUS
10
0.324817
20
2.214
11
0.3256
21
2.2
0
LINE
8
BLACK
6
CONTINUOUS
10
0.3256
20
2.2
11
0.325551
21
2.19649
0
LINE
8
BLACK
6
CONTINUOUS
10
0.325551
20
2.19649
11
0.324378
21
2.18252
0
LINE
8
BLACK
6
CONTINUOUS
10
0.324378
20
2.18252
11
0.321654
21
2.16876
0
LINE
8
BLACK
6
CONTINUOUS
10
0.321654
20
2.16876
11
0.317414
21
2.1554
0
LINE
8
BLACK
6
CONTINUOUS
10
0.317414
20
2.1554
11
0.311711
21
2.14259
0
LINE
8
BLACK
6
CONTINUOUS
10
0.311711
20
2.14259
11
0.304615
21
2.13049
0
LINE
8
BLACK
6
CONTINUOUS
10
0.304615
20
2.13049
11
0.296215
21
2.11927
0
LINE
8
BLACK
6
CONTINUOUS
10
0.296215
20
2.11927
11
0.286616
21
2.10904
0
LINE
8
BLACK
6
CONTINUOUS
10
0.286616
20
2.10904
11
0.275938
21
2.09996
0
LINE
8
BLACK
6
CONTINUOUS
10
0.275938
20
2.09996
11
0.264313
21
2.09211
0
LINE
8
BLACK
6
CONTINUOUS
10
0.264313
20
2.09211
11
0.251886
21
2.08562
0
LINE
8
BLACK
6
CONTINUOUS
10
0.251886
20
2.08562
11
0.238813
21
2.08055
0
LINE
8
BLACK
6
CONTINUOUS
10
0.238813
20
2.08055
11
0.225255
21
2.07697
0
LINE
8
BLACK
6
CONTINUOUS
10
0.225255
20
2.07697
11
0.211383
21
2.07492
0
LINE
8
BLACK
6
CONTINUOUS
10
0.211383
20
2.07492
11
0.19737
21
2.07443
0
LINE
8
BLACK
6
CONTINUOUS
10
0.19737
20
2.07443
11
0.183389
21
2.0755
0
LINE
8
BLACK
6
CONTINUOUS
10
0.183389
20
2.0755
11
0.169615
21
2.07813
0
LINE
8
BLACK
6
CONTINUOUS
10
0.169615
20
2.07813
11
0.156219
21
2.08228
0
LINE
8
BLACK
6
CONTINUOUS
10
0.156219
20
2.08228
11
0.14337
21
2.08789
0
LINE
8
BLACK
6
CONTINUOUS
10
0.14337
20
2.08789
11
0.131226
21
2.0949
0
LINE
8
BLACK
6
CONTINUOUS
10
0.131226
20
2.0949
11
0.11994
21
2.10322
0
LINE
8
BLACK
6
CONTINUOUS
10
0.11994
20
2.10322
11
0.109651
21
2.11275
0
LINE
8
BLACK
6
CONTINUOUS
10
0.109651
20
2.11275
11
0.100488
21
2.12337
0
LINE
8
BLACK
6
CONTINUOUS
10
0.100488
20
2.12337
11
0.0925663
21
2.13494
0
LINE
8
BLACK
6
CONTINUOUS
10
0.0925663
20
2.13494
11
0.0859831
21
2.14732
0
LINE
8
BLACK
6
CONTINUOUS
10
0.0859831
20
2.14732
11
0.0808212
21
2.16035
0
LINE
8
BLACK
6
CONTINUOUS
10
0.0808212
20
2.16035
11
0.0771446
21
2.17389
0
LINE
8
BLACK
6
CONTINUOUS
10
0.0771446
20
2.17389
11
0.0749994
21
2.18774
0
LINE
8
BLACK
6
CONTINUOUS
10
0.0749994
20
2.18774
11
0.0744122
21
2.20175
0
LINE
8
BLACK
6
CONTINUOUS
10
0.0744122
20
2.20175
11
0.074533
21
2.20348
0
LINE
8
BLACK
6
CONTINUOUS
10
0.074533
20
2.20348
11
0.0753904
21
2.21574
0
LINE
8
BLACK
6
CONTINUOUS
10
0.0753904
20
2.21574
11
0.0779217
21
2.22953
0
LINE
8
BLACK
6
CONTINUOUS
10
0.0913983
20
2.1781
11
0.0946349
21
2.16576
0
LINE
8
BLACK
6
CONTINUOUS
10
0.0946349
20
2.16576
11
0.0992681
21
2.15388
0
LINE
8
BLACK
6
CONTINUOUS
10
0.0992681
20
2.15388
11
0.105236
21
2.14261
0
LINE
8
BLACK
6
CONTINUOUS
10
0.105236
20
2.14261
11
0.112461
21
2.1321
0
LINE
8
BLACK
6
CONTINUOUS
10
0.112461
20
2.1321
11
0.120845
21
2.12249
0
LINE
8
BLACK
6
CONTINUOUS
10
0.120845
20
2.12249
11
0.130279
21
2.1139
0
LINE
8
BLACK
6
CONTINUOUS
10
0.130279
20
2.1139
11
0.140637
21
2.10646
0
LINE
8
BLACK
6
CONTINUOUS
10
0.140637
20
2.10646
11
0.151782
21
2.10026
0
LINE
8
BLACK
6
CONTINUOUS
10
0.151782
20
2.10026
11
0.163566
21
2.09537
0
LINE
8
BLACK
6
CONTINUOUS
10
0.163566
20
2.09537
11
0.175832
21
2.09188
0
LINE
8
BLACK
6
CONTINUOUS
10
0.175832
20
2.09188
11
0.18842
21
2.08982
0
LINE
8
BLACK
6
CONTINUOUS
10
0.18842
20
2.08982
11
0.20116
21
2.08922
0
LINE
8
BLACK
6
CONTINUOUS
10
0.20116
20
2.08922
11
0.213885
21
2.09009
0
LINE
8
BLACK
6
CONTINUOUS
10
0.213885
20
2.09009
11
0.226426
21
2.09241
0
LINE
8
BLACK
6
CONTINUOUS
10
0.226426
20
2.09241
11
0.238617
21
2.09616
0
LINE
8
BLACK
6
CONTINUOUS
10
0.238617
20
2.09616
11
0.250296
21
2.10129
0
LINE
8
BLACK
6
CONTINUOUS
10
0.250296
20
2.10129
11
0.261309
21
2.10772
0
LINE
8
BLACK
6
CONTINUOUS
10
0.261309
20
2.10772
11
0.271509
21
2.11538
0
LINE
8
BLACK
6
CONTINUOUS
10
0.271509
20
2.11538
11
0.280761
21
2.12416
0
LINE
8
BLACK
6
CONTINUOUS
10
0.280761
20
2.12416
11
0.288942
21
2.13395
0
LINE
8
BLACK
6
CONTINUOUS
10
0.288942
20
2.13395
11
0.295945
21
2.14461
0
LINE
8
BLACK
6
CONTINUOUS
10
0.295945
20
2.14461
11
0.301676
21
2.156
0
LINE
8
BLACK
6
CONTINUOUS
10
0.301676
20
2.156
11
0.306059
21
2.16798
0
LINE
8
BLACK
6
CONTINUOUS
10
0.306059
20
2.16798
11
0.309036
21
2.18038
0
LINE
8
BLACK
6
CONTINUOUS
10
0.309036
20
2.18038
11
0.310569
21
2.19304
0
LINE
8
BLACK
6
CONTINUOUS
10
0.310569
20
2.19304
11
0.310787
21
2.2
0
LINE
8
BLACK
6
CONTINUOUS
10
0.310787
20
2.2
11
0.310053
21
2.21273
0
LINE
8
BLACK
6
CONTINUOUS
10
0.310053
20
2.21273
11
0.30786
21
2.2253
0
LINE
8
BLACK
6
CONTINUOUS
10
0.30786
20
2.2253
11
0.304238
21
2.23753
0
LINE
8
BLACK
6
CONTINUOUS
10
0.304238
20
2.23753
11
0.299234
21
2.24926
0
LINE
8
BLACK
6
CONTINUOUS
10
0.299234
20
2.24926
11
0.292914
21
2.26034
0
LINE
8
BLACK
6
CONTINUOUS
10
0.292914
20
2.26034
11
0.285363
21
2.27062
0
LINE
8
BLACK
6
CONTINUOUS
10
0.285363
20
2.27062
11
0.276681
21
2.27996
0
LINE
8
BLACK
6
CONTINUOUS
10
0.276681
20
2.27996
11
0.266982
21
2.28825
0
LINE
8
BLACK
6
CONTINUOUS
10
0.266982
20
2.28825
11
0.256395
21
2.29536
0
LINE
8
BLACK
6
CONTINUOUS
10
0.256395
20
2.29536
11
0.245061
21
2.30121
0
LINE
8
BLACK
6
CONTINUOUS
10
0.245061
20
2.30121
11
0.23313
21
2.30572
0
LINE
8
BLACK
6
CONTINUOUS
10
0.23313
20
2.30572
11
0.220759
21
2.30883
0
LINE
8
BLACK
6
CONTINUOUS
10
0.220759
20
2.30883
11
0.208114
21
2.31049
0
LINE
8
BLACK
6
CONTINUOUS
10
0.208114
20
2.31049
11
0.195361
21
2.31069
0
LINE
8
BLACK
6
CONTINUOUS
10
0.195361
20
2.31069
11
0.182669
21
2.30942
0
LINE
8
BLACK
6
CONTINUOUS
10
0.182669
20
2.30942
11
0.170207
21
2.30671
0
LINE
8
BLACK
6
CONTINUOUS
10
0.170207
20
2.30671
11
0.15814
21
2.30257
0
LINE
8
BLACK
6
CONTINUOUS
10
0.15814
20
2.30257
11
0.146628
21
2.29708
0
LINE
8
BLACK
6
CONTINUOUS
10
0.146628
20
2.29708
11
0.135823
21
2.29031
0
LINE
8
BLACK
6
CONTINUOUS
10
0.135823
20
2.29031
11
0.125869
21
2.28233
0
LINE
8
BLACK
6
CONTINUOUS
10
0.125869
20
2.28233
11
0.116897
21
2.27327
0
LINE
8
BLACK
6
CONTINUOUS
10
0.116897
20
2.27327
11
0.109027
21
2.26323
0
LINE
8
BLACK
6
CONTINUOUS
10
0.109027
20
2.26323
11
0.102363
21
2.25235
0
LINE
8
BLACK
6
CONTINUOUS
10
0.102363
20
2.25235
11
0.0969924
21
2.24078
0
LINE
8
BLACK
6
CONTINUOUS
10
0.0969924
20
2.24078
11
0.0929876
21
2.22867
0
LINE
8
BLACK
6
CONTINUOUS
10
0.0929876
20
2.22867
11
0.0904011
21
2.21618
0
LINE
8
BLACK
6
CONTINUOUS
10
0.0904011
20
2.21618
11
0.0892672
21
2.20348
0
LINE
8
BLACK
6
CONTINUOUS
10
0.0892672
20
2.20348
11
0.0896011
21
2.19073
0
LINE
8
BLACK
6
CONTINUOUS
10
0.0896011
20
2.19073
11
0.0913983
21
2.1781
0
LINE
8
BLACK
6
CONTINUOUS
10
2.87792
20
2.22953
11
2.88197
21
2.24296
0
LINE
8
BLACK
6
CONTINUOUS
10
2.88197
20
2.24296
11
2.8875
21
2.25585
0
LINE
8
BLACK
6
CONTINUOUS
10
2.8875
20
2.25585
11
2.89442
21
2.26804
0
LINE
8
BLACK
6
CONTINUOUS
10
2.89442
20
2.26804
11
2.90267
21
2.27938
0
LINE
8
BLACK
6
CONTINUOUS
10
2.90267
20
2.27938
11
2.91212
21
2.28974
0
LINE
8
BLACK
6
CONTINUOUS
10
2.91212
20
2.28974
11
2.92267
21
2.29897
0
LINE
8
BLACK
6
CONTINUOUS
10
2.92267
20
2.29897
11
2.93419
21
2.30698
0
LINE
8
BLACK
6
CONTINUOUS
10
2.93419
20
2.30698
11
2.94652
21
2.31365
0
LINE
8
BLACK
6
CONTINUOUS
10
2.94652
20
2.31365
11
2.95952
21
2.3189
0
LINE
8
BLACK
6
CONTINUOUS
10
2.95952
20
2.3189
11
2.97303
21
2.32267
0
LINE
8
BLACK
6
CONTINUOUS
10
2.97303
20
2.32267
11
2.98687
21
2.32491
0
LINE
8
BLACK
6
CONTINUOUS
10
2.98687
20
2.32491
11
3.00088
21
2.3256
0
LINE
8
BLACK
6
CONTINUOUS
10
3.00088
20
2.3256
11
3.01487
21
2.32472
0
LINE
8
BLACK
6
CONTINUOUS
10
3.01487
20
2.32472
11
3.02868
21
2.32228
0
LINE
8
BLACK
6
CONTINUOUS
10
3.02868
20
2.32228
11
3.04213
21
2.31832
0
LINE
8
BLACK
6
CONTINUOUS
10
3.04213
20
2.31832
11
3.05506
21
2.31289
0
LINE
8
BLACK
6
CONTINUOUS
10
3.05506
20
2.31289
11
3.0673
21
2.30605
0
LINE
8
BLACK
6
CONTINUOUS
10
3.0673
20
2.30605
11
3.0787
21
2.29788
0
LINE
8
BLACK
6
CONTINUOUS
10
3.0787
20
2.29788
11
3.08912
21
2.2885
0
LINE
8
BLACK
6
CONTINUOUS
10
3.08912
20
2.2885
11
3.09843
21
2.27802
0
LINE
8
BLACK
6
CONTINUOUS
10
3.09843
20
2.27802
11
3.10651
21
2.26656
0
LINE
8
BLACK
6
CONTINUOUS
10
3.10651
20
2.26656
11
3.11327
21
2.25427
0
LINE
8
BLACK
6
CONTINUOUS
10
3.11327
20
2.25427
11
3.11861
21
2.24131
0
LINE
8
BLACK
6
CONTINUOUS
10
3.11861
20
2.24131
11
3.12248
21
2.22783
0
LINE
8
BLACK
6
CONTINUOUS
10
3.12248
20
2.22783
11
3.12482
21
2.214
0
LINE
8
BLACK
6
CONTINUOUS
10
3.12482
20
2.214
11
3.1256
21
2.2
0
LINE
8
BLACK
6
CONTINUOUS
10
3.1256
20
2.2
11
3.12555
21
2.19649
0
LINE
8
BLACK
6
CONTINUOUS
10
3.12555
20
2.19649
11
3.12438
21
2.18252
0
LINE
8
BLACK
6
CONTINUOUS
10
3.12438
20
2.18252
11
3.12165
21
2.16876
0
LINE
8
BLACK
6
CONTINUOUS
10
3.12165
20
2.16876
11
3.11741
21
2.1554
0
LINE
8
BLACK
6
CONTINUOUS
10
3.11741
20
2.1554
11
3.11171
21
2.14259
0
LINE
8
BLACK
6
CONTINUOUS
10
3.11171
20
2.14259
11
3.10461
21
2.13049
0
LINE
8
BLACK
6
CONTINUOUS
10
3.10461
20
2.13049
11
3.09622
21
2.11927
0
LINE
8
BLACK
6
CONTINUOUS
10
3.09622
20
2.11927
11
3.08662
21
2.10904
0
LINE
8
BLACK
6
CONTINUOUS
10
3.08662
20
2.10904
11
3.07594
21
2.09996
0
LINE
8
BLACK
6
CONTINUOUS
10
3.07594
20
2.09996
11
3.06431
21
2.09211
0
LINE
8
BLACK
6
CONTINUOUS
10
3.06431
20
2.09211
11
3.05189
21
2.08562
0
LINE
8
BLACK
6
CONTINUOUS
10
3.05189
20
2.08562
11
3.03881
21
2.08055
0
LINE
8
BLACK
6
CONTINUOUS
10
3.03881
20
2.08055
11
3.02526
21
2.07697
0
LINE
8
BLACK
6
CONTINUOUS
10
3.02526
20
2.07697
11
3.01138
21
2.07492
0
LINE
8
BLACK
6
CONTINUOUS
10
3.01138
20
2.07492
11
2.99737
21
2.07443
0
LINE
8
BLACK
6
CONTINUOUS
10
2.99737
20
2.07443
11
2.98339
21
2.0755
0
LINE
8
BLACK
6
CONTINUOUS
10
2.98339
20
2.0755
11
2.96961
21
2.07813
0
LINE
8
BLACK
6
CONTINUOUS
10
2.96961
20
2.07813
11
2.95622
21
2.08228
0
LINE
8
BLACK
6
CONTINUOUS
10
2.95622
20
2.08228
11
2.94337
21
2.08789
0
LINE
8
BLACK
6
CONTINUOUS
10
2.94337
20
2.08789
11
2.93123
21
2.0949
0
LINE
8
BLACK
6
CONTINUOUS
10
2.93123
20
2.0949
11
2.91994
21
2.10322
0
LINE
8
BLACK
6
CONTINUOUS
10
2.91994
20
2.10322
11
2.90965
21
2.11275
0
LINE
8
BLACK
6
CONTINUOUS
10
2.90965
20
2.11275
11
2.90049
21
2.12337
0
LINE
8
BLACK
6
CONTINUOUS
10
2.90049
20
2.12337
11
2.89257
21
2.13494
0
LINE
8
BLACK
6
CONTINUOUS
10
2.89257
20
2.13494
11
2.88598
21
2.14732
0
LINE
8
BLACK
6
CONTINUOUS
10
2.88598
20
2.14732
11
2.88082
21
2.16035
0
LINE
8
BLACK
6
CONTINUOUS
10
2.88082
20
2.16035
11
2.87714
21
2.17389
0
LINE
8
BLACK
6
CONTINUOUS
10
2.87714
20
2.17389
11
2.875
21
2.18774
0
LINE
8
BLACK
6
CONTINUOUS
10
2.875
20
2.18774
11
2.87441
21
2.20175
0
LINE
8
BLACK
6
CONTINUOUS
10
2.87441
20
2.20175
11
2.87453
21
2.20348
0
LINE
8
BLACK
6
CONTINUOUS
10
2.87453
20
2.20348
11
2.87539
21
2.21574
0
LINE
8
BLACK
6
CONTINUOUS
10
2.87539
20
2.21574
11
2.87792
21
2.22953
0
LINE
8
BLACK
6
CONTINUOUS
10
2.8914
20
2.1781
11
2.89463
21
2.16576
0
LINE
8
BLACK
6
CONTINUOUS
10
2.89463
20
2.16576
11
2.89927
21
2.15388
0
LINE
8
BLACK
6
CONTINUOUS
10
2.89927
20
2.15388
11
2.90524
21
2.14261
0
LINE
8
BLACK
6
CONTINUOUS
10
2.90524
20
2.14261
11
2.91246
21
2.1321
0
LINE
8
BLACK
6
CONTINUOUS
10
2.91246
20
2.1321
11
2.92085
21
2.12249
0
LINE
8
BLACK
6
CONTINUOUS
10
2.92085
20
2.12249
11
2.93028
21
2.1139
0
LINE
8
BLACK
6
CONTINUOUS
10
2.93028
20
2.1139
11
2.94064
21
2.10646
0
LINE
8
BLACK
6
CONTINUOUS
10
2.94064
20
2.10646
11
2.95178
21
2.10026
0
LINE
8
BLACK
6
CONTINUOUS
10
2.95178
20
2.10026
11
2.96357
21
2.09537
0
LINE
8
BLACK
6
CONTINUOUS
10
2.96357
20
2.09537
11
2.97583
21
2.09188
0
LINE
8
BLACK
6
CONTINUOUS
10
2.97583
20
2.09188
11
2.98842
21
2.08982
0
LINE
8
BLACK
6
CONTINUOUS
10
2.98842
20
2.08982
11
3.00116
21
2.08922
0
LINE
8
BLACK
6
CONTINUOUS
10
3.00116
20
2.08922
11
3.01389
21
2.09009
0
LINE
8
BLACK
6
CONTINUOUS
10
3.01389
20
2.09009
11
3.02643
21
2.09241
0
LINE
8
BLACK
6
CONTINUOUS
10
3.02643
20
2.09241
11
3.03862
21
2.09616
0
LINE
8
BLACK
6
CONTINUOUS
10
3.03862
20
2.09616
11
3.0503
21
2.10129
0
LINE
8
BLACK
6
CONTINUOUS
10
3.0503
20
2.10129
11
3.06131
21
2.10772
0
LINE
8
BLACK
6
CONTINUOUS
10
3.06131
20
2.10772
11
3.07151
21
2.11538
0
LINE
8
BLACK
6
CONTINUOUS
10
3.07151
20
2.11538
11
3.08076
21
2.12416
0
LINE
8
BLACK
6
CONTINUOUS
10
3.08076
20
2.12416
11
3.08894
21
2.13395
0
LINE
8
BLACK
6
CONTINUOUS
10
3.08894
20
2.13395
11
3.09594
21
2.14461
0
LINE
8
BLACK
6
CONTINUOUS
10
3.09594
20
2.14461
11
3.10168
21
2.156
0
LINE
8
BLACK
6
CONTINUOUS
10
3.10168
20
2.156
11
3.10606
21
2.16798
0
LINE
8
BLACK
6
CONTINUOUS
10
3.10606
20
2.16798
11
3.10904
21
2.18038
0
LINE
8
BLACK
6
CONTINUOUS
10
3.10904
20
2.18038
11
3.11057
21
2.19304
0
LINE
8
BLACK
6
CONTINUOUS
10
3.11057
20
2.19304
11
3.11079
21
2.2
0
LINE
8
BLACK
6
CONTINUOUS
10
3.11079
20
2.2
11
3.11005
21
2.21273
0
LINE
8
BLACK
6
CONTINUOUS
10
3.11005
20
2.21273
11
3.10786
21
2.2253
0
LINE
8
BLACK
6
CONTINUOUS
10
3.10786
20
2.2253
11
3.10424
21
2.23753
0
LINE
8
BLACK
6
CONTINUOUS
10
3.10424
20
2.23753
11
3.09923
21
2.24926
0
LINE
8
BLACK
6
CONTINUOUS
10
3.09923
20
2.24926
11
3.09291
21
2.26034
0
LINE
8
BLACK
6
CONTINUOUS
10
3.09291
20
2.26034
11
3.08536
21
2.27062
0
LINE
8
BLACK
6
CONTINUOUS
10
3.08536
20
2.27062
11
3.07668
21
2.27996
0
LINE
8
BLACK
6
CONTINUOUS
10
3.07668
20
2.27996
11
3.06698
21
2.28825
0
LINE
8
BLACK
6
CONTINUOUS
10
3.06698
20
2.28825
11
3.0564
21
2.29536
0
LINE
8
BLACK
6
CONTINUOUS
10
3.0564
20
2.29536
11
3.04506
21
2.30121
0
LINE
8
BLACK
6
CONTINUOUS
10
3.04506
20
2.30121
11
3.03313
21
2.30572
0
LINE
8
BLACK
6
CONTINUOUS
10
3.03313
20
2.30572
11
3.02076
21
2.30883
0
LINE
8
BLACK
6
CONTINUOUS
10
3.02076
20
2.30883
11
3.00811
21
2.31049
0
LINE
8
BLACK
6
CONTINUOUS
10
3.00811
20
2.31049
11
2.99536
21
2.31069
0
LINE
8
BLACK
6
CONTINUOUS
10
2.99536
20
2.31069
11
2.98267
21
2.30942
0
LINE
8
BLACK
6
CONTINUOUS
10
2.98267
20
2.30942
11
2.97021
21
2.30671
0
LINE
8
BLACK
6
CONTINUOUS
10
2.97021
20
2.30671
11
2.95814
21
2.30257
0
LINE
8
BLACK
6
CONTINUOUS
10
2.95814
20
2.30257
11
2.94663
21
2.29708
0
LINE
8
BLACK
6
CONTINUOUS
10
2.94663
20
2.29708
11
2.93582
21
2.29031
0
LINE
8
BLACK
6
CONTINUOUS
10
2.93582
20
2.29031
11
2.92587
21
2.28233
0
LINE
8
BLACK
6
CONTINUOUS
10
2.92587
20
2.28233
11
2.9169
21
2.27327
0
LINE
8
BLACK
6
CONTINUOUS
10
2.9169
20
2.27327
11
2.90903
21
2.26323
0
LINE
8
BLACK
6
CONTINUOUS
10
2.90903
20
2.26323
11
2.90236
21
2.25235
0
LINE
8
BLACK
6
CONTINUOUS
10
2.90236
20
2.25235
11
2.89699
21
2.24078
0
LINE
8
BLACK
6
CONTINUOUS
10
2.89699
20
2.24078
11
2.89299
21
2.22867
0
LINE
8
BLACK
6
CONTINUOUS
10
2.89299
20
2.22867
11
2.8904
21
2.21618
0
LINE
8
BLACK
6
CONTINUOUS
10
2.8904
20
2.21618
11
2.88927
21
2.20348
0
LINE
8
BLACK
6
CONTINUOUS
10
2.88927
20
2.20348
11
2.8896
21
2.19073
0
LINE
8
BLACK
6
CONTINUOUS
10
2.8896
20
2.19073
11
2.8914
21
2.1781
  0
ENDSEC
  0
EOF
