  0
SECTION
  2
HEADER
  9
$ANGBASE
  50
0.0
  9
$ANGDIR
  70
1
  9
$MEASUREMENT
  70
0
  0
ENDSEC
  0
SECTION
  2
TABLES
  0
TABLE
  2
LTYPE
  70
4
  0
LTYPE
  5
40F
  2
CONTINUOUS
  70
0
  3
Solid line
  72
65
  73
0
  40
0.0
  0
LTYPE
  5
410
  2
DASHDOT
 70
0
  3
Dash Dot ____ _ ____ _
 72
65
 73
4
 40
2.0
 49
1.25
 49
-0.25
 49
0.25
 49
-0.25
  0
LTYPE
  5
411
  2
DASHED
 70
0
  3
Dashed __ __ __ __ __
 72
65
 73
2
 40
0.75
 49
0.5
 49
-0.25
  0
LTYPE
  5
43B
  2
DOTTED
 70
0
  3
Dotted .  .  .  .
 72
65
 73
2
 40
0.2
 49
0.0
 49
-0.2
  0
ENDTAB
  0
TABLE
  2
STYLE
  70
4
  0
STYLE
  2
KICAD
  70
0
  40
0
  41
1
  42
1
  50
0
  71
0
  3
isocp.shx
  0
STYLE
  2
KICADB
  70
0
  40
0
  41
1
  42
1
  50
0
  71
0
  3
isocp.shx
  0
STYLE
  2
KICADI
  70
0
  40
0
  41
1
  42
1
  50
15
  71
0
  3
isocp.shx
  0
STYLE
  2
KICADBI
  70
0
  40
0
  41
1
  42
1
  50
15
  71
0
  3
isocp.shx
  0
ENDTAB
  0
TABLE
  2
LAYER
  70
1
  0
LAYER
  2
BLACK
  70
0
  62
7
  6
CONTINUOUS
  0
ENDTAB
  0
ENDSEC
  0
SECTION
  2
ENTITIES
0
LINE
8
BLACK
6
CONTINUOUS
10
2.43953
20
0.0755906
11
2.38047
21
0.0755906
0
LINE
8
BLACK
6
CONTINUOUS
10
2.38047
20
0.0755906
11
2.38047
21
0.116929
0
LINE
8
BLACK
6
CONTINUOUS
10
2.38047
20
0.116929
11
2.43953
21
0.116929
0
LINE
8
BLACK
6
CONTINUOUS
10
2.43953
20
0.116929
11
2.43953
21
0.0755906
0
LINE
8
BLACK
6
CONTINUOUS
10
1.70453
20
0.0755906
11
1.64547
21
0.0755906
0
LINE
8
BLACK
6
CONTINUOUS
10
1.64547
20
0.0755906
11
1.64547
21
0.116929
0
LINE
8
BLACK
6
CONTINUOUS
10
1.64547
20
0.116929
11
1.70453
21
0.116929
0
LINE
8
BLACK
6
CONTINUOUS
10
1.70453
20
0.116929
11
1.70453
21
0.0755906
0
LINE
8
BLACK
6
CONTINUOUS
10
1.80953
20
0.0755906
11
1.75047
21
0.0755906
0
LINE
8
BLACK
6
CONTINUOUS
10
1.75047
20
0.0755906
11
1.75047
21
0.116929
0
LINE
8
BLACK
6
CONTINUOUS
10
1.75047
20
0.116929
11
1.80953
21
0.116929
0
LINE
8
BLACK
6
CONTINUOUS
10
1.80953
20
0.116929
11
1.80953
21
0.0755906
0
LINE
8
BLACK
6
CONTINUOUS
10
1.91453
20
0.0755906
11
1.85547
21
0.0755906
0
LINE
8
BLACK
6
CONTINUOUS
10
1.85547
20
0.0755906
11
1.85547
21
0.116929
0
LINE
8
BLACK
6
CONTINUOUS
10
1.85547
20
0.116929
11
1.91453
21
0.116929
0
LINE
8
BLACK
6
CONTINUOUS
10
1.91453
20
0.116929
11
1.91453
21
0.0755906
0
LINE
8
BLACK
6
CONTINUOUS
10
2.01953
20
0.0755906
11
1.96047
21
0.0755906
0
LINE
8
BLACK
6
CONTINUOUS
10
1.96047
20
0.0755906
11
1.96047
21
0.116929
0
LINE
8
BLACK
6
CONTINUOUS
10
1.96047
20
0.116929
11
2.01953
21
0.116929
0
LINE
8
BLACK
6
CONTINUOUS
10
2.01953
20
0.116929
11
2.01953
21
0.0755906
0
LINE
8
BLACK
6
CONTINUOUS
10
2.12453
20
0.0755906
11
2.06547
21
0.0755906
0
LINE
8
BLACK
6
CONTINUOUS
10
2.06547
20
0.0755906
11
2.06547
21
0.116929
0
LINE
8
BLACK
6
CONTINUOUS
10
2.06547
20
0.116929
11
2.12453
21
0.116929
0
LINE
8
BLACK
6
CONTINUOUS
10
2.12453
20
0.116929
11
2.12453
21
0.0755906
0
LINE
8
BLACK
6
CONTINUOUS
10
2.22953
20
0.0755906
11
2.17047
21
0.0755906
0
LINE
8
BLACK
6
CONTINUOUS
10
2.17047
20
0.0755906
11
2.17047
21
0.116929
0
LINE
8
BLACK
6
CONTINUOUS
10
2.17047
20
0.116929
11
2.22953
21
0.116929
0
LINE
8
BLACK
6
CONTINUOUS
10
2.22953
20
0.116929
11
2.22953
21
0.0755906
0
LINE
8
BLACK
6
CONTINUOUS
10
2.33453
20
0.0755906
11
2.27547
21
0.0755906
0
LINE
8
BLACK
6
CONTINUOUS
10
2.27547
20
0.0755906
11
2.27547
21
0.116929
0
LINE
8
BLACK
6
CONTINUOUS
10
2.27547
20
0.116929
11
2.33453
21
0.116929
0
LINE
8
BLACK
6
CONTINUOUS
10
2.33453
20
0.116929
11
2.33453
21
0.0755906
0
LINE
8
BLACK
6
CONTINUOUS
10
2.33453
20
0.233071
11
2.27547
21
0.233071
0
LINE
8
BLACK
6
CONTINUOUS
10
2.27547
20
0.233071
11
2.27547
21
0.274409
0
LINE
8
BLACK
6
CONTINUOUS
10
2.27547
20
0.274409
11
2.33453
21
0.274409
0
LINE
8
BLACK
6
CONTINUOUS
10
2.33453
20
0.274409
11
2.33453
21
0.233071
0
LINE
8
BLACK
6
CONTINUOUS
10
2.22953
20
0.233071
11
2.17047
21
0.233071
0
LINE
8
BLACK
6
CONTINUOUS
10
2.17047
20
0.233071
11
2.17047
21
0.274409
0
LINE
8
BLACK
6
CONTINUOUS
10
2.17047
20
0.274409
11
2.22953
21
0.274409
0
LINE
8
BLACK
6
CONTINUOUS
10
2.22953
20
0.274409
11
2.22953
21
0.233071
0
LINE
8
BLACK
6
CONTINUOUS
10
2.43953
20
0.233071
11
2.38047
21
0.233071
0
LINE
8
BLACK
6
CONTINUOUS
10
2.38047
20
0.233071
11
2.38047
21
0.274409
0
LINE
8
BLACK
6
CONTINUOUS
10
2.38047
20
0.274409
11
2.43953
21
0.274409
0
LINE
8
BLACK
6
CONTINUOUS
10
2.43953
20
0.274409
11
2.43953
21
0.233071
0
LINE
8
BLACK
6
CONTINUOUS
10
2.12453
20
0.233071
11
2.06547
21
0.233071
0
LINE
8
BLACK
6
CONTINUOUS
10
2.06547
20
0.233071
11
2.06547
21
0.274409
0
LINE
8
BLACK
6
CONTINUOUS
10
2.06547
20
0.274409
11
2.12453
21
0.274409
0
LINE
8
BLACK
6
CONTINUOUS
10
2.12453
20
0.274409
11
2.12453
21
0.233071
0
LINE
8
BLACK
6
CONTINUOUS
10
2.01953
20
0.233071
11
1.96047
21
0.233071
0
LINE
8
BLACK
6
CONTINUOUS
10
1.96047
20
0.233071
11
1.96047
21
0.274409
0
LINE
8
BLACK
6
CONTINUOUS
10
1.96047
20
0.274409
11
2.01953
21
0.274409
0
LINE
8
BLACK
6
CONTINUOUS
10
2.01953
20
0.274409
11
2.01953
21
0.233071
0
LINE
8
BLACK
6
CONTINUOUS
10
1.91453
20
0.233071
11
1.85547
21
0.233071
0
LINE
8
BLACK
6
CONTINUOUS
10
1.85547
20
0.233071
11
1.85547
21
0.274409
0
LINE
8
BLACK
6
CONTINUOUS
10
1.85547
20
0.274409
11
1.91453
21
0.274409
0
LINE
8
BLACK
6
CONTINUOUS
10
1.91453
20
0.274409
11
1.91453
21
0.233071
0
LINE
8
BLACK
6
CONTINUOUS
10
1.80953
20
0.233071
11
1.75047
21
0.233071
0
LINE
8
BLACK
6
CONTINUOUS
10
1.75047
20
0.233071
11
1.75047
21
0.274409
0
LINE
8
BLACK
6
CONTINUOUS
10
1.75047
20
0.274409
11
1.80953
21
0.274409
0
LINE
8
BLACK
6
CONTINUOUS
10
1.80953
20
0.274409
11
1.80953
21
0.233071
0
LINE
8
BLACK
6
CONTINUOUS
10
1.70453
20
0.233071
11
1.64547
21
0.233071
0
LINE
8
BLACK
6
CONTINUOUS
10
1.64547
20
0.233071
11
1.64547
21
0.274409
0
LINE
8
BLACK
6
CONTINUOUS
10
1.64547
20
0.274409
11
1.70453
21
0.274409
0
LINE
8
BLACK
6
CONTINUOUS
10
1.70453
20
0.274409
11
1.70453
21
0.233071
0
LINE
8
BLACK
6
CONTINUOUS
10
1.7025
20
0.325
11
1.6475
21
0.325
0
LINE
8
BLACK
6
CONTINUOUS
10
1.6475
20
0.325
11
1.6475
21
0.36
0
LINE
8
BLACK
6
CONTINUOUS
10
1.6475
20
0.36
11
1.7025
21
0.36
0
LINE
8
BLACK
6
CONTINUOUS
10
1.7025
20
0.36
11
1.7025
21
0.325
0
LINE
8
BLACK
6
CONTINUOUS
10
2.3325
20
0.325
11
2.2775
21
0.325
0
LINE
8
BLACK
6
CONTINUOUS
10
2.2775
20
0.325
11
2.2775
21
0.36
0
LINE
8
BLACK
6
CONTINUOUS
10
2.2775
20
0.36
11
2.3325
21
0.36
0
LINE
8
BLACK
6
CONTINUOUS
10
2.3325
20
0.36
11
2.3325
21
0.325
0
LINE
8
BLACK
6
CONTINUOUS
10
2.2275
20
0.325
11
2.1725
21
0.325
0
LINE
8
BLACK
6
CONTINUOUS
10
2.1725
20
0.325
11
2.1725
21
0.36
0
LINE
8
BLACK
6
CONTINUOUS
10
2.1725
20
0.36
11
2.2275
21
0.36
0
LINE
8
BLACK
6
CONTINUOUS
10
2.2275
20
0.36
11
2.2275
21
0.325
0
LINE
8
BLACK
6
CONTINUOUS
10
2.1225
20
0.325
11
2.0675
21
0.325
0
LINE
8
BLACK
6
CONTINUOUS
10
2.0675
20
0.325
11
2.0675
21
0.36
0
LINE
8
BLACK
6
CONTINUOUS
10
2.0675
20
0.36
11
2.1225
21
0.36
0
LINE
8
BLACK
6
CONTINUOUS
10
2.1225
20
0.36
11
2.1225
21
0.325
0
LINE
8
BLACK
6
CONTINUOUS
10
2.0175
20
0.325
11
1.9625
21
0.325
0
LINE
8
BLACK
6
CONTINUOUS
10
1.9625
20
0.325
11
1.9625
21
0.36
0
LINE
8
BLACK
6
CONTINUOUS
10
1.9625
20
0.36
11
2.0175
21
0.36
0
LINE
8
BLACK
6
CONTINUOUS
10
2.0175
20
0.36
11
2.0175
21
0.325
0
LINE
8
BLACK
6
CONTINUOUS
10
1.9125
20
0.325
11
1.8575
21
0.325
0
LINE
8
BLACK
6
CONTINUOUS
10
1.8575
20
0.325
11
1.8575
21
0.36
0
LINE
8
BLACK
6
CONTINUOUS
10
1.8575
20
0.36
11
1.9125
21
0.36
0
LINE
8
BLACK
6
CONTINUOUS
10
1.9125
20
0.36
11
1.9125
21
0.325
0
LINE
8
BLACK
6
CONTINUOUS
10
1.8075
20
0.325
11
1.7525
21
0.325
0
LINE
8
BLACK
6
CONTINUOUS
10
1.7525
20
0.325
11
1.7525
21
0.36
0
LINE
8
BLACK
6
CONTINUOUS
10
1.7525
20
0.36
11
1.8075
21
0.36
0
LINE
8
BLACK
6
CONTINUOUS
10
1.8075
20
0.36
11
1.8075
21
0.325
0
LINE
8
BLACK
6
CONTINUOUS
10
2.4375
20
0.325
11
2.3825
21
0.325
0
LINE
8
BLACK
6
CONTINUOUS
10
2.3825
20
0.325
11
2.3825
21
0.36
0
LINE
8
BLACK
6
CONTINUOUS
10
2.3825
20
0.36
11
2.4375
21
0.36
0
LINE
8
BLACK
6
CONTINUOUS
10
2.4375
20
0.36
11
2.4375
21
0.325
0
LINE
8
BLACK
6
CONTINUOUS
10
1.7025
20
0.4
11
1.6475
21
0.4
0
LINE
8
BLACK
6
CONTINUOUS
10
1.6475
20
0.4
11
1.6475
21
0.435
0
LINE
8
BLACK
6
CONTINUOUS
10
1.6475
20
0.435
11
1.7025
21
0.435
0
LINE
8
BLACK
6
CONTINUOUS
10
1.7025
20
0.435
11
1.7025
21
0.4
0
LINE
8
BLACK
6
CONTINUOUS
10
2.4375
20
0.4
11
2.3825
21
0.4
0
LINE
8
BLACK
6
CONTINUOUS
10
2.3825
20
0.4
11
2.3825
21
0.435
0
LINE
8
BLACK
6
CONTINUOUS
10
2.3825
20
0.435
11
2.4375
21
0.435
0
LINE
8
BLACK
6
CONTINUOUS
10
2.4375
20
0.435
11
2.4375
21
0.4
0
LINE
8
BLACK
6
CONTINUOUS
10
2.3325
20
0.4
11
2.2775
21
0.4
0
LINE
8
BLACK
6
CONTINUOUS
10
2.2775
20
0.4
11
2.2775
21
0.435
0
LINE
8
BLACK
6
CONTINUOUS
10
2.2775
20
0.435
11
2.3325
21
0.435
0
LINE
8
BLACK
6
CONTINUOUS
10
2.3325
20
0.435
11
2.3325
21
0.4
0
LINE
8
BLACK
6
CONTINUOUS
10
2.2275
20
0.4
11
2.1725
21
0.4
0
LINE
8
BLACK
6
CONTINUOUS
10
2.1725
20
0.4
11
2.1725
21
0.435
0
LINE
8
BLACK
6
CONTINUOUS
10
2.1725
20
0.435
11
2.2275
21
0.435
0
LINE
8
BLACK
6
CONTINUOUS
10
2.2275
20
0.435
11
2.2275
21
0.4
0
LINE
8
BLACK
6
CONTINUOUS
10
2.1225
20
0.4
11
2.0675
21
0.4
0
LINE
8
BLACK
6
CONTINUOUS
10
2.0675
20
0.4
11
2.0675
21
0.435
0
LINE
8
BLACK
6
CONTINUOUS
10
2.0675
20
0.435
11
2.1225
21
0.435
0
LINE
8
BLACK
6
CONTINUOUS
10
2.1225
20
0.435
11
2.1225
21
0.4
0
LINE
8
BLACK
6
CONTINUOUS
10
2.0175
20
0.4
11
1.9625
21
0.4
0
LINE
8
BLACK
6
CONTINUOUS
10
1.9625
20
0.4
11
1.9625
21
0.435
0
LINE
8
BLACK
6
CONTINUOUS
10
1.9625
20
0.435
11
2.0175
21
0.435
0
LINE
8
BLACK
6
CONTINUOUS
10
2.0175
20
0.435
11
2.0175
21
0.4
0
LINE
8
BLACK
6
CONTINUOUS
10
1.9125
20
0.4
11
1.8575
21
0.4
0
LINE
8
BLACK
6
CONTINUOUS
10
1.8575
20
0.4
11
1.8575
21
0.435
0
LINE
8
BLACK
6
CONTINUOUS
10
1.8575
20
0.435
11
1.9125
21
0.435
0
LINE
8
BLACK
6
CONTINUOUS
10
1.9125
20
0.435
11
1.9125
21
0.4
0
LINE
8
BLACK
6
CONTINUOUS
10
1.8075
20
0.4
11
1.7525
21
0.4
0
LINE
8
BLACK
6
CONTINUOUS
10
1.7525
20
0.4
11
1.7525
21
0.435
0
LINE
8
BLACK
6
CONTINUOUS
10
1.7525
20
0.435
11
1.8075
21
0.435
0
LINE
8
BLACK
6
CONTINUOUS
10
1.8075
20
0.435
11
1.8075
21
0.4
0
LINE
8
BLACK
6
CONTINUOUS
10
2.16433
20
0.521771
11
2.16841
21
0.520143
0
LINE
8
BLACK
6
CONTINUOUS
10
2.16841
20
0.520143
11
2.17163
21
0.517155
0
LINE
8
BLACK
6
CONTINUOUS
10
2.17163
20
0.517155
11
2.17356
21
0.513207
0
LINE
8
BLACK
6
CONTINUOUS
10
2.17356
20
0.513207
11
2.17394
21
0.508829
0
LINE
8
BLACK
6
CONTINUOUS
10
2.17394
20
0.508829
11
2.17272
21
0.504608
0
LINE
8
BLACK
6
CONTINUOUS
10
2.17272
20
0.504608
11
2.17006
21
0.50111
0
LINE
8
BLACK
6
CONTINUOUS
10
2.17006
20
0.50111
11
2.16632
21
0.498805
0
LINE
8
BLACK
6
CONTINUOUS
10
2.16632
20
0.498805
11
2.162
21
0.498
0
LINE
8
BLACK
6
CONTINUOUS
10
2.162
20
0.498
11
2.128
21
0.498
0
LINE
8
BLACK
6
CONTINUOUS
10
2.128
20
0.498
11
2.12567
21
0.498229
0
LINE
8
BLACK
6
CONTINUOUS
10
2.12567
20
0.498229
11
2.12159
21
0.499857
0
LINE
8
BLACK
6
CONTINUOUS
10
2.12159
20
0.499857
11
2.11837
21
0.502845
0
LINE
8
BLACK
6
CONTINUOUS
10
2.11837
20
0.502845
11
2.11644
21
0.506793
0
LINE
8
BLACK
6
CONTINUOUS
10
2.11644
20
0.506793
11
2.11606
21
0.511171
0
LINE
8
BLACK
6
CONTINUOUS
10
2.11606
20
0.511171
11
2.11728
21
0.515392
0
LINE
8
BLACK
6
CONTINUOUS
10
2.11728
20
0.515392
11
2.11994
21
0.51889
0
LINE
8
BLACK
6
CONTINUOUS
10
2.11994
20
0.51889
11
2.12368
21
0.521195
0
LINE
8
BLACK
6
CONTINUOUS
10
2.12368
20
0.521195
11
2.128
21
0.522
0
LINE
8
BLACK
6
CONTINUOUS
10
2.128
20
0.522
11
2.162
21
0.522
0
LINE
8
BLACK
6
CONTINUOUS
10
2.162
20
0.522
11
2.16433
21
0.521771
0
LINE
8
BLACK
6
CONTINUOUS
10
1.94433
20
0.521771
11
1.94841
21
0.520143
0
LINE
8
BLACK
6
CONTINUOUS
10
1.94841
20
0.520143
11
1.95163
21
0.517155
0
LINE
8
BLACK
6
CONTINUOUS
10
1.95163
20
0.517155
11
1.95356
21
0.513207
0
LINE
8
BLACK
6
CONTINUOUS
10
1.95356
20
0.513207
11
1.95394
21
0.508829
0
LINE
8
BLACK
6
CONTINUOUS
10
1.95394
20
0.508829
11
1.95272
21
0.504608
0
LINE
8
BLACK
6
CONTINUOUS
10
1.95272
20
0.504608
11
1.95006
21
0.50111
0
LINE
8
BLACK
6
CONTINUOUS
10
1.95006
20
0.50111
11
1.94632
21
0.498805
0
LINE
8
BLACK
6
CONTINUOUS
10
1.94632
20
0.498805
11
1.942
21
0.498
0
LINE
8
BLACK
6
CONTINUOUS
10
1.942
20
0.498
11
1.908
21
0.498
0
LINE
8
BLACK
6
CONTINUOUS
10
1.908
20
0.498
11
1.90567
21
0.498229
0
LINE
8
BLACK
6
CONTINUOUS
10
1.90567
20
0.498229
11
1.90159
21
0.499857
0
LINE
8
BLACK
6
CONTINUOUS
10
1.90159
20
0.499857
11
1.89837
21
0.502845
0
LINE
8
BLACK
6
CONTINUOUS
10
1.89837
20
0.502845
11
1.89644
21
0.506793
0
LINE
8
BLACK
6
CONTINUOUS
10
1.89644
20
0.506793
11
1.89606
21
0.511171
0
LINE
8
BLACK
6
CONTINUOUS
10
1.89606
20
0.511171
11
1.89728
21
0.515392
0
LINE
8
BLACK
6
CONTINUOUS
10
1.89728
20
0.515392
11
1.89994
21
0.51889
0
LINE
8
BLACK
6
CONTINUOUS
10
1.89994
20
0.51889
11
1.90368
21
0.521195
0
LINE
8
BLACK
6
CONTINUOUS
10
1.90368
20
0.521195
11
1.908
21
0.522
0
LINE
8
BLACK
6
CONTINUOUS
10
1.908
20
0.522
11
1.942
21
0.522
0
LINE
8
BLACK
6
CONTINUOUS
10
1.942
20
0.522
11
1.94433
21
0.521771
0
LINE
8
BLACK
6
CONTINUOUS
10
2.8425
20
0.51
11
2.7875
21
0.51
0
LINE
8
BLACK
6
CONTINUOUS
10
2.7875
20
0.51
11
2.7875
21
0.545
0
LINE
8
BLACK
6
CONTINUOUS
10
2.7875
20
0.545
11
2.8425
21
0.545
0
LINE
8
BLACK
6
CONTINUOUS
10
2.8425
20
0.545
11
2.8425
21
0.51
0
LINE
8
BLACK
6
CONTINUOUS
10
2.16433
20
0.571771
11
2.16841
21
0.570143
0
LINE
8
BLACK
6
CONTINUOUS
10
2.16841
20
0.570143
11
2.17163
21
0.567155
0
LINE
8
BLACK
6
CONTINUOUS
10
2.17163
20
0.567155
11
2.17356
21
0.563207
0
LINE
8
BLACK
6
CONTINUOUS
10
2.17356
20
0.563207
11
2.17394
21
0.558829
0
LINE
8
BLACK
6
CONTINUOUS
10
2.17394
20
0.558829
11
2.17272
21
0.554608
0
LINE
8
BLACK
6
CONTINUOUS
10
2.17272
20
0.554608
11
2.17006
21
0.55111
0
LINE
8
BLACK
6
CONTINUOUS
10
2.17006
20
0.55111
11
2.16632
21
0.548805
0
LINE
8
BLACK
6
CONTINUOUS
10
2.16632
20
0.548805
11
2.162
21
0.548
0
LINE
8
BLACK
6
CONTINUOUS
10
2.162
20
0.548
11
2.128
21
0.548
0
LINE
8
BLACK
6
CONTINUOUS
10
2.128
20
0.548
11
2.12567
21
0.548229
0
LINE
8
BLACK
6
CONTINUOUS
10
2.12567
20
0.548229
11
2.12159
21
0.549857
0
LINE
8
BLACK
6
CONTINUOUS
10
2.12159
20
0.549857
11
2.11837
21
0.552845
0
LINE
8
BLACK
6
CONTINUOUS
10
2.11837
20
0.552845
11
2.11644
21
0.556793
0
LINE
8
BLACK
6
CONTINUOUS
10
2.11644
20
0.556793
11
2.11606
21
0.561171
0
LINE
8
BLACK
6
CONTINUOUS
10
2.11606
20
0.561171
11
2.11728
21
0.565392
0
LINE
8
BLACK
6
CONTINUOUS
10
2.11728
20
0.565392
11
2.11994
21
0.56889
0
LINE
8
BLACK
6
CONTINUOUS
10
2.11994
20
0.56889
11
2.12368
21
0.571195
0
LINE
8
BLACK
6
CONTINUOUS
10
2.12368
20
0.571195
11
2.128
21
0.572
0
LINE
8
BLACK
6
CONTINUOUS
10
2.128
20
0.572
11
2.162
21
0.572
0
LINE
8
BLACK
6
CONTINUOUS
10
2.162
20
0.572
11
2.16433
21
0.571771
0
LINE
8
BLACK
6
CONTINUOUS
10
1.94433
20
0.571771
11
1.94841
21
0.570143
0
LINE
8
BLACK
6
CONTINUOUS
10
1.94841
20
0.570143
11
1.95163
21
0.567155
0
LINE
8
BLACK
6
CONTINUOUS
10
1.95163
20
0.567155
11
1.95356
21
0.563207
0
LINE
8
BLACK
6
CONTINUOUS
10
1.95356
20
0.563207
11
1.95394
21
0.558829
0
LINE
8
BLACK
6
CONTINUOUS
10
1.95394
20
0.558829
11
1.95272
21
0.554608
0
LINE
8
BLACK
6
CONTINUOUS
10
1.95272
20
0.554608
11
1.95006
21
0.55111
0
LINE
8
BLACK
6
CONTINUOUS
10
1.95006
20
0.55111
11
1.94632
21
0.548805
0
LINE
8
BLACK
6
CONTINUOUS
10
1.94632
20
0.548805
11
1.942
21
0.548
0
LINE
8
BLACK
6
CONTINUOUS
10
1.942
20
0.548
11
1.908
21
0.548
0
LINE
8
BLACK
6
CONTINUOUS
10
1.908
20
0.548
11
1.90567
21
0.548229
0
LINE
8
BLACK
6
CONTINUOUS
10
1.90567
20
0.548229
11
1.90159
21
0.549857
0
LINE
8
BLACK
6
CONTINUOUS
10
1.90159
20
0.549857
11
1.89837
21
0.552845
0
LINE
8
BLACK
6
CONTINUOUS
10
1.89837
20
0.552845
11
1.89644
21
0.556793
0
LINE
8
BLACK
6
CONTINUOUS
10
1.89644
20
0.556793
11
1.89606
21
0.561171
0
LINE
8
BLACK
6
CONTINUOUS
10
1.89606
20
0.561171
11
1.89728
21
0.565392
0
LINE
8
BLACK
6
CONTINUOUS
10
1.89728
20
0.565392
11
1.89994
21
0.56889
0
LINE
8
BLACK
6
CONTINUOUS
10
1.89994
20
0.56889
11
1.90368
21
0.571195
0
LINE
8
BLACK
6
CONTINUOUS
10
1.90368
20
0.571195
11
1.908
21
0.572
0
LINE
8
BLACK
6
CONTINUOUS
10
1.908
20
0.572
11
1.942
21
0.572
0
LINE
8
BLACK
6
CONTINUOUS
10
1.942
20
0.572
11
1.94433
21
0.571771
0
LINE
8
BLACK
6
CONTINUOUS
10
2.8425
20
0.585
11
2.7875
21
0.585
0
LINE
8
BLACK
6
CONTINUOUS
10
2.7875
20
0.585
11
2.7875
21
0.62
0
LINE
8
BLACK
6
CONTINUOUS
10
2.7875
20
0.62
11
2.8425
21
0.62
0
LINE
8
BLACK
6
CONTINUOUS
10
2.8425
20
0.62
11
2.8425
21
0.585
0
LINE
8
BLACK
6
CONTINUOUS
10
1.94433
20
0.621771
11
1.94841
21
0.620143
0
LINE
8
BLACK
6
CONTINUOUS
10
1.94841
20
0.620143
11
1.95163
21
0.617155
0
LINE
8
BLACK
6
CONTINUOUS
10
1.95163
20
0.617155
11
1.95356
21
0.613207
0
LINE
8
BLACK
6
CONTINUOUS
10
1.95356
20
0.613207
11
1.95394
21
0.608829
0
LINE
8
BLACK
6
CONTINUOUS
10
1.95394
20
0.608829
11
1.95272
21
0.604608
0
LINE
8
BLACK
6
CONTINUOUS
10
1.95272
20
0.604608
11
1.95006
21
0.60111
0
LINE
8
BLACK
6
CONTINUOUS
10
1.95006
20
0.60111
11
1.94632
21
0.598805
0
LINE
8
BLACK
6
CONTINUOUS
10
1.94632
20
0.598805
11
1.942
21
0.598
0
LINE
8
BLACK
6
CONTINUOUS
10
1.942
20
0.598
11
1.908
21
0.598
0
LINE
8
BLACK
6
CONTINUOUS
10
1.908
20
0.598
11
1.90567
21
0.598229
0
LINE
8
BLACK
6
CONTINUOUS
10
1.90567
20
0.598229
11
1.90159
21
0.599857
0
LINE
8
BLACK
6
CONTINUOUS
10
1.90159
20
0.599857
11
1.89837
21
0.602845
0
LINE
8
BLACK
6
CONTINUOUS
10
1.89837
20
0.602845
11
1.89644
21
0.606793
0
LINE
8
BLACK
6
CONTINUOUS
10
1.89644
20
0.606793
11
1.89606
21
0.611171
0
LINE
8
BLACK
6
CONTINUOUS
10
1.89606
20
0.611171
11
1.89728
21
0.615392
0
LINE
8
BLACK
6
CONTINUOUS
10
1.89728
20
0.615392
11
1.89994
21
0.61889
0
LINE
8
BLACK
6
CONTINUOUS
10
1.89994
20
0.61889
11
1.90368
21
0.621195
0
LINE
8
BLACK
6
CONTINUOUS
10
1.90368
20
0.621195
11
1.908
21
0.622
0
LINE
8
BLACK
6
CONTINUOUS
10
1.908
20
0.622
11
1.942
21
0.622
0
LINE
8
BLACK
6
CONTINUOUS
10
1.942
20
0.622
11
1.94433
21
0.621771
0
LINE
8
BLACK
6
CONTINUOUS
10
2.16433
20
0.621771
11
2.16841
21
0.620143
0
LINE
8
BLACK
6
CONTINUOUS
10
2.16841
20
0.620143
11
2.17163
21
0.617155
0
LINE
8
BLACK
6
CONTINUOUS
10
2.17163
20
0.617155
11
2.17356
21
0.613207
0
LINE
8
BLACK
6
CONTINUOUS
10
2.17356
20
0.613207
11
2.17394
21
0.608829
0
LINE
8
BLACK
6
CONTINUOUS
10
2.17394
20
0.608829
11
2.17272
21
0.604608
0
LINE
8
BLACK
6
CONTINUOUS
10
2.17272
20
0.604608
11
2.17006
21
0.60111
0
LINE
8
BLACK
6
CONTINUOUS
10
2.17006
20
0.60111
11
2.16632
21
0.598805
0
LINE
8
BLACK
6
CONTINUOUS
10
2.16632
20
0.598805
11
2.162
21
0.598
0
LINE
8
BLACK
6
CONTINUOUS
10
2.162
20
0.598
11
2.128
21
0.598
0
LINE
8
BLACK
6
CONTINUOUS
10
2.128
20
0.598
11
2.12567
21
0.598229
0
LINE
8
BLACK
6
CONTINUOUS
10
2.12567
20
0.598229
11
2.12159
21
0.599857
0
LINE
8
BLACK
6
CONTINUOUS
10
2.12159
20
0.599857
11
2.11837
21
0.602845
0
LINE
8
BLACK
6
CONTINUOUS
10
2.11837
20
0.602845
11
2.11644
21
0.606793
0
LINE
8
BLACK
6
CONTINUOUS
10
2.11644
20
0.606793
11
2.11606
21
0.611171
0
LINE
8
BLACK
6
CONTINUOUS
10
2.11606
20
0.611171
11
2.11728
21
0.615392
0
LINE
8
BLACK
6
CONTINUOUS
10
2.11728
20
0.615392
11
2.11994
21
0.61889
0
LINE
8
BLACK
6
CONTINUOUS
10
2.11994
20
0.61889
11
2.12368
21
0.621195
0
LINE
8
BLACK
6
CONTINUOUS
10
2.12368
20
0.621195
11
2.128
21
0.622
0
LINE
8
BLACK
6
CONTINUOUS
10
2.128
20
0.622
11
2.162
21
0.622
0
LINE
8
BLACK
6
CONTINUOUS
10
2.162
20
0.622
11
2.16433
21
0.621771
0
LINE
8
BLACK
6
CONTINUOUS
10
2.7625
20
0.625
11
2.7075
21
0.625
0
LINE
8
BLACK
6
CONTINUOUS
10
2.7075
20
0.625
11
2.7075
21
0.66
0
LINE
8
BLACK
6
CONTINUOUS
10
2.7075
20
0.66
11
2.7625
21
0.66
0
LINE
8
BLACK
6
CONTINUOUS
10
2.7625
20
0.66
11
2.7625
21
0.625
0
LINE
8
BLACK
6
CONTINUOUS
10
2.16433
20
0.671771
11
2.16841
21
0.670143
0
LINE
8
BLACK
6
CONTINUOUS
10
2.16841
20
0.670143
11
2.17163
21
0.667155
0
LINE
8
BLACK
6
CONTINUOUS
10
2.17163
20
0.667155
11
2.17356
21
0.663207
0
LINE
8
BLACK
6
CONTINUOUS
10
2.17356
20
0.663207
11
2.17394
21
0.658829
0
LINE
8
BLACK
6
CONTINUOUS
10
2.17394
20
0.658829
11
2.17272
21
0.654608
0
LINE
8
BLACK
6
CONTINUOUS
10
2.17272
20
0.654608
11
2.17006
21
0.65111
0
LINE
8
BLACK
6
CONTINUOUS
10
2.17006
20
0.65111
11
2.16632
21
0.648805
0
LINE
8
BLACK
6
CONTINUOUS
10
2.16632
20
0.648805
11
2.162
21
0.648
0
LINE
8
BLACK
6
CONTINUOUS
10
2.162
20
0.648
11
2.128
21
0.648
0
LINE
8
BLACK
6
CONTINUOUS
10
2.128
20
0.648
11
2.12567
21
0.648229
0
LINE
8
BLACK
6
CONTINUOUS
10
2.12567
20
0.648229
11
2.12159
21
0.649857
0
LINE
8
BLACK
6
CONTINUOUS
10
2.12159
20
0.649857
11
2.11837
21
0.652845
0
LINE
8
BLACK
6
CONTINUOUS
10
2.11837
20
0.652845
11
2.11644
21
0.656793
0
LINE
8
BLACK
6
CONTINUOUS
10
2.11644
20
0.656793
11
2.11606
21
0.661171
0
LINE
8
BLACK
6
CONTINUOUS
10
2.11606
20
0.661171
11
2.11728
21
0.665392
0
LINE
8
BLACK
6
CONTINUOUS
10
2.11728
20
0.665392
11
2.11994
21
0.66889
0
LINE
8
BLACK
6
CONTINUOUS
10
2.11994
20
0.66889
11
2.12368
21
0.671195
0
LINE
8
BLACK
6
CONTINUOUS
10
2.12368
20
0.671195
11
2.128
21
0.672
0
LINE
8
BLACK
6
CONTINUOUS
10
2.128
20
0.672
11
2.162
21
0.672
0
LINE
8
BLACK
6
CONTINUOUS
10
2.162
20
0.672
11
2.16433
21
0.671771
0
LINE
8
BLACK
6
CONTINUOUS
10
1.94433
20
0.671771
11
1.94841
21
0.670143
0
LINE
8
BLACK
6
CONTINUOUS
10
1.94841
20
0.670143
11
1.95163
21
0.667155
0
LINE
8
BLACK
6
CONTINUOUS
10
1.95163
20
0.667155
11
1.95356
21
0.663207
0
LINE
8
BLACK
6
CONTINUOUS
10
1.95356
20
0.663207
11
1.95394
21
0.658829
0
LINE
8
BLACK
6
CONTINUOUS
10
1.95394
20
0.658829
11
1.95272
21
0.654608
0
LINE
8
BLACK
6
CONTINUOUS
10
1.95272
20
0.654608
11
1.95006
21
0.65111
0
LINE
8
BLACK
6
CONTINUOUS
10
1.95006
20
0.65111
11
1.94632
21
0.648805
0
LINE
8
BLACK
6
CONTINUOUS
10
1.94632
20
0.648805
11
1.942
21
0.648
0
LINE
8
BLACK
6
CONTINUOUS
10
1.942
20
0.648
11
1.908
21
0.648
0
LINE
8
BLACK
6
CONTINUOUS
10
1.908
20
0.648
11
1.90567
21
0.648229
0
LINE
8
BLACK
6
CONTINUOUS
10
1.90567
20
0.648229
11
1.90159
21
0.649857
0
LINE
8
BLACK
6
CONTINUOUS
10
1.90159
20
0.649857
11
1.89837
21
0.652845
0
LINE
8
BLACK
6
CONTINUOUS
10
1.89837
20
0.652845
11
1.89644
21
0.656793
0
LINE
8
BLACK
6
CONTINUOUS
10
1.89644
20
0.656793
11
1.89606
21
0.661171
0
LINE
8
BLACK
6
CONTINUOUS
10
1.89606
20
0.661171
11
1.89728
21
0.665392
0
LINE
8
BLACK
6
CONTINUOUS
10
1.89728
20
0.665392
11
1.89994
21
0.66889
0
LINE
8
BLACK
6
CONTINUOUS
10
1.89994
20
0.66889
11
1.90368
21
0.671195
0
LINE
8
BLACK
6
CONTINUOUS
10
1.90368
20
0.671195
11
1.908
21
0.672
0
LINE
8
BLACK
6
CONTINUOUS
10
1.908
20
0.672
11
1.942
21
0.672
0
LINE
8
BLACK
6
CONTINUOUS
10
1.942
20
0.672
11
1.94433
21
0.671771
0
LINE
8
BLACK
6
CONTINUOUS
10
1.94433
20
0.721771
11
1.94841
21
0.720143
0
LINE
8
BLACK
6
CONTINUOUS
10
1.94841
20
0.720143
11
1.95163
21
0.717155
0
LINE
8
BLACK
6
CONTINUOUS
10
1.95163
20
0.717155
11
1.95356
21
0.713207
0
LINE
8
BLACK
6
CONTINUOUS
10
1.95356
20
0.713207
11
1.95394
21
0.708829
0
LINE
8
BLACK
6
CONTINUOUS
10
1.95394
20
0.708829
11
1.95272
21
0.704608
0
LINE
8
BLACK
6
CONTINUOUS
10
1.95272
20
0.704608
11
1.95006
21
0.70111
0
LINE
8
BLACK
6
CONTINUOUS
10
1.95006
20
0.70111
11
1.94632
21
0.698805
0
LINE
8
BLACK
6
CONTINUOUS
10
1.94632
20
0.698805
11
1.942
21
0.698
0
LINE
8
BLACK
6
CONTINUOUS
10
1.942
20
0.698
11
1.908
21
0.698
0
LINE
8
BLACK
6
CONTINUOUS
10
1.908
20
0.698
11
1.90567
21
0.698229
0
LINE
8
BLACK
6
CONTINUOUS
10
1.90567
20
0.698229
11
1.90159
21
0.699857
0
LINE
8
BLACK
6
CONTINUOUS
10
1.90159
20
0.699857
11
1.89837
21
0.702845
0
LINE
8
BLACK
6
CONTINUOUS
10
1.89837
20
0.702845
11
1.89644
21
0.706793
0
LINE
8
BLACK
6
CONTINUOUS
10
1.89644
20
0.706793
11
1.89606
21
0.711171
0
LINE
8
BLACK
6
CONTINUOUS
10
1.89606
20
0.711171
11
1.89728
21
0.715392
0
LINE
8
BLACK
6
CONTINUOUS
10
1.89728
20
0.715392
11
1.89994
21
0.71889
0
LINE
8
BLACK
6
CONTINUOUS
10
1.89994
20
0.71889
11
1.90368
21
0.721195
0
LINE
8
BLACK
6
CONTINUOUS
10
1.90368
20
0.721195
11
1.908
21
0.722
0
LINE
8
BLACK
6
CONTINUOUS
10
1.908
20
0.722
11
1.942
21
0.722
0
LINE
8
BLACK
6
CONTINUOUS
10
1.942
20
0.722
11
1.94433
21
0.721771
0
LINE
8
BLACK
6
CONTINUOUS
10
2.16433
20
0.721771
11
2.16841
21
0.720143
0
LINE
8
BLACK
6
CONTINUOUS
10
2.16841
20
0.720143
11
2.17163
21
0.717155
0
LINE
8
BLACK
6
CONTINUOUS
10
2.17163
20
0.717155
11
2.17356
21
0.713207
0
LINE
8
BLACK
6
CONTINUOUS
10
2.17356
20
0.713207
11
2.17394
21
0.708829
0
LINE
8
BLACK
6
CONTINUOUS
10
2.17394
20
0.708829
11
2.17272
21
0.704608
0
LINE
8
BLACK
6
CONTINUOUS
10
2.17272
20
0.704608
11
2.17006
21
0.70111
0
LINE
8
BLACK
6
CONTINUOUS
10
2.17006
20
0.70111
11
2.16632
21
0.698805
0
LINE
8
BLACK
6
CONTINUOUS
10
2.16632
20
0.698805
11
2.162
21
0.698
0
LINE
8
BLACK
6
CONTINUOUS
10
2.162
20
0.698
11
2.128
21
0.698
0
LINE
8
BLACK
6
CONTINUOUS
10
2.128
20
0.698
11
2.12567
21
0.698229
0
LINE
8
BLACK
6
CONTINUOUS
10
2.12567
20
0.698229
11
2.12159
21
0.699857
0
LINE
8
BLACK
6
CONTINUOUS
10
2.12159
20
0.699857
11
2.11837
21
0.702845
0
LINE
8
BLACK
6
CONTINUOUS
10
2.11837
20
0.702845
11
2.11644
21
0.706793
0
LINE
8
BLACK
6
CONTINUOUS
10
2.11644
20
0.706793
11
2.11606
21
0.711171
0
LINE
8
BLACK
6
CONTINUOUS
10
2.11606
20
0.711171
11
2.11728
21
0.715392
0
LINE
8
BLACK
6
CONTINUOUS
10
2.11728
20
0.715392
11
2.11994
21
0.71889
0
LINE
8
BLACK
6
CONTINUOUS
10
2.11994
20
0.71889
11
2.12368
21
0.721195
0
LINE
8
BLACK
6
CONTINUOUS
10
2.12368
20
0.721195
11
2.128
21
0.722
0
LINE
8
BLACK
6
CONTINUOUS
10
2.128
20
0.722
11
2.162
21
0.722
0
LINE
8
BLACK
6
CONTINUOUS
10
2.162
20
0.722
11
2.16433
21
0.721771
0
LINE
8
BLACK
6
CONTINUOUS
10
2.7625
20
0.7
11
2.7075
21
0.7
0
LINE
8
BLACK
6
CONTINUOUS
10
2.7075
20
0.7
11
2.7075
21
0.735
0
LINE
8
BLACK
6
CONTINUOUS
10
2.7075
20
0.735
11
2.7625
21
0.735
0
LINE
8
BLACK
6
CONTINUOUS
10
2.7625
20
0.735
11
2.7625
21
0.7
0
LINE
8
BLACK
6
CONTINUOUS
10
1.8725
20
0.74
11
1.8175
21
0.74
0
LINE
8
BLACK
6
CONTINUOUS
10
1.8175
20
0.74
11
1.8175
21
0.775
0
LINE
8
BLACK
6
CONTINUOUS
10
1.8175
20
0.775
11
1.8725
21
0.775
0
LINE
8
BLACK
6
CONTINUOUS
10
1.8725
20
0.775
11
1.8725
21
0.74
0
LINE
8
BLACK
6
CONTINUOUS
10
1.94433
20
0.771771
11
1.94841
21
0.770143
0
LINE
8
BLACK
6
CONTINUOUS
10
1.94841
20
0.770143
11
1.95163
21
0.767155
0
LINE
8
BLACK
6
CONTINUOUS
10
1.95163
20
0.767155
11
1.95356
21
0.763207
0
LINE
8
BLACK
6
CONTINUOUS
10
1.95356
20
0.763207
11
1.95394
21
0.758829
0
LINE
8
BLACK
6
CONTINUOUS
10
1.95394
20
0.758829
11
1.95272
21
0.754608
0
LINE
8
BLACK
6
CONTINUOUS
10
1.95272
20
0.754608
11
1.95006
21
0.75111
0
LINE
8
BLACK
6
CONTINUOUS
10
1.95006
20
0.75111
11
1.94632
21
0.748805
0
LINE
8
BLACK
6
CONTINUOUS
10
1.94632
20
0.748805
11
1.942
21
0.748
0
LINE
8
BLACK
6
CONTINUOUS
10
1.942
20
0.748
11
1.908
21
0.748
0
LINE
8
BLACK
6
CONTINUOUS
10
1.908
20
0.748
11
1.90567
21
0.748229
0
LINE
8
BLACK
6
CONTINUOUS
10
1.90567
20
0.748229
11
1.90159
21
0.749857
0
LINE
8
BLACK
6
CONTINUOUS
10
1.90159
20
0.749857
11
1.89837
21
0.752845
0
LINE
8
BLACK
6
CONTINUOUS
10
1.89837
20
0.752845
11
1.89644
21
0.756793
0
LINE
8
BLACK
6
CONTINUOUS
10
1.89644
20
0.756793
11
1.89606
21
0.761171
0
LINE
8
BLACK
6
CONTINUOUS
10
1.89606
20
0.761171
11
1.89728
21
0.765392
0
LINE
8
BLACK
6
CONTINUOUS
10
1.89728
20
0.765392
11
1.89994
21
0.76889
0
LINE
8
BLACK
6
CONTINUOUS
10
1.89994
20
0.76889
11
1.90368
21
0.771195
0
LINE
8
BLACK
6
CONTINUOUS
10
1.90368
20
0.771195
11
1.908
21
0.772
0
LINE
8
BLACK
6
CONTINUOUS
10
1.908
20
0.772
11
1.942
21
0.772
0
LINE
8
BLACK
6
CONTINUOUS
10
1.942
20
0.772
11
1.94433
21
0.771771
0
LINE
8
BLACK
6
CONTINUOUS
10
2.16433
20
0.771771
11
2.16841
21
0.770143
0
LINE
8
BLACK
6
CONTINUOUS
10
2.16841
20
0.770143
11
2.17163
21
0.767155
0
LINE
8
BLACK
6
CONTINUOUS
10
2.17163
20
0.767155
11
2.17356
21
0.763207
0
LINE
8
BLACK
6
CONTINUOUS
10
2.17356
20
0.763207
11
2.17394
21
0.758829
0
LINE
8
BLACK
6
CONTINUOUS
10
2.17394
20
0.758829
11
2.17272
21
0.754608
0
LINE
8
BLACK
6
CONTINUOUS
10
2.17272
20
0.754608
11
2.17006
21
0.75111
0
LINE
8
BLACK
6
CONTINUOUS
10
2.17006
20
0.75111
11
2.16632
21
0.748805
0
LINE
8
BLACK
6
CONTINUOUS
10
2.16632
20
0.748805
11
2.162
21
0.748
0
LINE
8
BLACK
6
CONTINUOUS
10
2.162
20
0.748
11
2.128
21
0.748
0
LINE
8
BLACK
6
CONTINUOUS
10
2.128
20
0.748
11
2.12567
21
0.748229
0
LINE
8
BLACK
6
CONTINUOUS
10
2.12567
20
0.748229
11
2.12159
21
0.749857
0
LINE
8
BLACK
6
CONTINUOUS
10
2.12159
20
0.749857
11
2.11837
21
0.752845
0
LINE
8
BLACK
6
CONTINUOUS
10
2.11837
20
0.752845
11
2.11644
21
0.756793
0
LINE
8
BLACK
6
CONTINUOUS
10
2.11644
20
0.756793
11
2.11606
21
0.761171
0
LINE
8
BLACK
6
CONTINUOUS
10
2.11606
20
0.761171
11
2.11728
21
0.765392
0
LINE
8
BLACK
6
CONTINUOUS
10
2.11728
20
0.765392
11
2.11994
21
0.76889
0
LINE
8
BLACK
6
CONTINUOUS
10
2.11994
20
0.76889
11
2.12368
21
0.771195
0
LINE
8
BLACK
6
CONTINUOUS
10
2.12368
20
0.771195
11
2.128
21
0.772
0
LINE
8
BLACK
6
CONTINUOUS
10
2.128
20
0.772
11
2.162
21
0.772
0
LINE
8
BLACK
6
CONTINUOUS
10
2.162
20
0.772
11
2.16433
21
0.771771
0
LINE
8
BLACK
6
CONTINUOUS
10
0.63325
20
0.7595
11
0.60175
21
0.7595
0
LINE
8
BLACK
6
CONTINUOUS
10
0.60175
20
0.7595
11
0.60175
21
0.7989
0
LINE
8
BLACK
6
CONTINUOUS
10
0.60175
20
0.7989
11
0.63325
21
0.7989
0
LINE
8
BLACK
6
CONTINUOUS
10
0.63325
20
0.7989
11
0.63325
21
0.7595
0
LINE
8
BLACK
6
CONTINUOUS
10
1.94433
20
0.821771
11
1.94841
21
0.820143
0
LINE
8
BLACK
6
CONTINUOUS
10
1.94841
20
0.820143
11
1.95163
21
0.817155
0
LINE
8
BLACK
6
CONTINUOUS
10
1.95163
20
0.817155
11
1.95356
21
0.813207
0
LINE
8
BLACK
6
CONTINUOUS
10
1.95356
20
0.813207
11
1.95394
21
0.808829
0
LINE
8
BLACK
6
CONTINUOUS
10
1.95394
20
0.808829
11
1.95272
21
0.804608
0
LINE
8
BLACK
6
CONTINUOUS
10
1.95272
20
0.804608
11
1.95006
21
0.80111
0
LINE
8
BLACK
6
CONTINUOUS
10
1.95006
20
0.80111
11
1.94632
21
0.798805
0
LINE
8
BLACK
6
CONTINUOUS
10
1.94632
20
0.798805
11
1.942
21
0.798
0
LINE
8
BLACK
6
CONTINUOUS
10
1.942
20
0.798
11
1.908
21
0.798
0
LINE
8
BLACK
6
CONTINUOUS
10
1.908
20
0.798
11
1.90567
21
0.798229
0
LINE
8
BLACK
6
CONTINUOUS
10
1.90567
20
0.798229
11
1.90159
21
0.799857
0
LINE
8
BLACK
6
CONTINUOUS
10
1.90159
20
0.799857
11
1.89837
21
0.802845
0
LINE
8
BLACK
6
CONTINUOUS
10
1.89837
20
0.802845
11
1.89644
21
0.806793
0
LINE
8
BLACK
6
CONTINUOUS
10
1.89644
20
0.806793
11
1.89606
21
0.811171
0
LINE
8
BLACK
6
CONTINUOUS
10
1.89606
20
0.811171
11
1.89728
21
0.815392
0
LINE
8
BLACK
6
CONTINUOUS
10
1.89728
20
0.815392
11
1.89994
21
0.81889
0
LINE
8
BLACK
6
CONTINUOUS
10
1.89994
20
0.81889
11
1.90368
21
0.821195
0
LINE
8
BLACK
6
CONTINUOUS
10
1.90368
20
0.821195
11
1.908
21
0.822
0
LINE
8
BLACK
6
CONTINUOUS
10
1.908
20
0.822
11
1.942
21
0.822
0
LINE
8
BLACK
6
CONTINUOUS
10
1.942
20
0.822
11
1.94433
21
0.821771
0
LINE
8
BLACK
6
CONTINUOUS
10
2.16433
20
0.821771
11
2.16841
21
0.820143
0
LINE
8
BLACK
6
CONTINUOUS
10
2.16841
20
0.820143
11
2.17163
21
0.817155
0
LINE
8
BLACK
6
CONTINUOUS
10
2.17163
20
0.817155
11
2.17356
21
0.813207
0
LINE
8
BLACK
6
CONTINUOUS
10
2.17356
20
0.813207
11
2.17394
21
0.808829
0
LINE
8
BLACK
6
CONTINUOUS
10
2.17394
20
0.808829
11
2.17272
21
0.804608
0
LINE
8
BLACK
6
CONTINUOUS
10
2.17272
20
0.804608
11
2.17006
21
0.80111
0
LINE
8
BLACK
6
CONTINUOUS
10
2.17006
20
0.80111
11
2.16632
21
0.798805
0
LINE
8
BLACK
6
CONTINUOUS
10
2.16632
20
0.798805
11
2.162
21
0.798
0
LINE
8
BLACK
6
CONTINUOUS
10
2.162
20
0.798
11
2.128
21
0.798
0
LINE
8
BLACK
6
CONTINUOUS
10
2.128
20
0.798
11
2.12567
21
0.798229
0
LINE
8
BLACK
6
CONTINUOUS
10
2.12567
20
0.798229
11
2.12159
21
0.799857
0
LINE
8
BLACK
6
CONTINUOUS
10
2.12159
20
0.799857
11
2.11837
21
0.802845
0
LINE
8
BLACK
6
CONTINUOUS
10
2.11837
20
0.802845
11
2.11644
21
0.806793
0
LINE
8
BLACK
6
CONTINUOUS
10
2.11644
20
0.806793
11
2.11606
21
0.811171
0
LINE
8
BLACK
6
CONTINUOUS
10
2.11606
20
0.811171
11
2.11728
21
0.815392
0
LINE
8
BLACK
6
CONTINUOUS
10
2.11728
20
0.815392
11
2.11994
21
0.81889
0
LINE
8
BLACK
6
CONTINUOUS
10
2.11994
20
0.81889
11
2.12368
21
0.821195
0
LINE
8
BLACK
6
CONTINUOUS
10
2.12368
20
0.821195
11
2.128
21
0.822
0
LINE
8
BLACK
6
CONTINUOUS
10
2.128
20
0.822
11
2.162
21
0.822
0
LINE
8
BLACK
6
CONTINUOUS
10
2.162
20
0.822
11
2.16433
21
0.821771
0
LINE
8
BLACK
6
CONTINUOUS
10
1.8725
20
0.815
11
1.8175
21
0.815
0
LINE
8
BLACK
6
CONTINUOUS
10
1.8175
20
0.815
11
1.8175
21
0.85
0
LINE
8
BLACK
6
CONTINUOUS
10
1.8175
20
0.85
11
1.8725
21
0.85
0
LINE
8
BLACK
6
CONTINUOUS
10
1.8725
20
0.85
11
1.8725
21
0.815
0
LINE
8
BLACK
6
CONTINUOUS
10
2.91799
20
0.823268
11
2.79201
21
0.823268
0
LINE
8
BLACK
6
CONTINUOUS
10
2.79201
20
0.823268
11
2.79201
21
0.862638
0
LINE
8
BLACK
6
CONTINUOUS
10
2.79201
20
0.862638
11
2.91799
21
0.862638
0
LINE
8
BLACK
6
CONTINUOUS
10
2.91799
20
0.862638
11
2.91799
21
0.823268
0
LINE
8
BLACK
6
CONTINUOUS
10
1.0025
20
0.83
11
0.9475
21
0.83
0
LINE
8
BLACK
6
CONTINUOUS
10
0.9475
20
0.83
11
0.9475
21
0.865
0
LINE
8
BLACK
6
CONTINUOUS
10
0.9475
20
0.865
11
1.0025
21
0.865
0
LINE
8
BLACK
6
CONTINUOUS
10
1.0025
20
0.865
11
1.0025
21
0.83
0
LINE
8
BLACK
6
CONTINUOUS
10
0.59575
20
0.8461
11
0.56425
21
0.8461
0
LINE
8
BLACK
6
CONTINUOUS
10
0.56425
20
0.8461
11
0.56425
21
0.8855
0
LINE
8
BLACK
6
CONTINUOUS
10
0.56425
20
0.8855
11
0.59575
21
0.8855
0
LINE
8
BLACK
6
CONTINUOUS
10
0.59575
20
0.8855
11
0.59575
21
0.8461
0
LINE
8
BLACK
6
CONTINUOUS
10
0.67075
20
0.8461
11
0.63925
21
0.8461
0
LINE
8
BLACK
6
CONTINUOUS
10
0.63925
20
0.8461
11
0.63925
21
0.8855
0
LINE
8
BLACK
6
CONTINUOUS
10
0.63925
20
0.8855
11
0.67075
21
0.8855
0
LINE
8
BLACK
6
CONTINUOUS
10
0.67075
20
0.8855
11
0.67075
21
0.8461
0
LINE
8
BLACK
6
CONTINUOUS
10
2.5
20
0.8525
11
2.465
21
0.8525
0
LINE
8
BLACK
6
CONTINUOUS
10
2.465
20
0.8525
11
2.465
21
0.9075
0
LINE
8
BLACK
6
CONTINUOUS
10
2.465
20
0.9075
11
2.5
21
0.9075
0
LINE
8
BLACK
6
CONTINUOUS
10
2.5
20
0.9075
11
2.5
21
0.8525
0
LINE
8
BLACK
6
CONTINUOUS
10
2.575
20
0.8525
11
2.54
21
0.8525
0
LINE
8
BLACK
6
CONTINUOUS
10
2.54
20
0.8525
11
2.54
21
0.9075
0
LINE
8
BLACK
6
CONTINUOUS
10
2.54
20
0.9075
11
2.575
21
0.9075
0
LINE
8
BLACK
6
CONTINUOUS
10
2.575
20
0.9075
11
2.575
21
0.8525
0
LINE
8
BLACK
6
CONTINUOUS
10
2.37969
20
0.89437
11
2.3226
21
0.89437
0
LINE
8
BLACK
6
CONTINUOUS
10
2.3226
20
0.89437
11
2.3226
21
0.912087
0
LINE
8
BLACK
6
CONTINUOUS
10
2.3226
20
0.912087
11
2.37969
21
0.912087
0
LINE
8
BLACK
6
CONTINUOUS
10
2.37969
20
0.912087
11
2.37969
21
0.89437
0
LINE
8
BLACK
6
CONTINUOUS
10
2.1474
20
0.89437
11
2.09031
21
0.89437
0
LINE
8
BLACK
6
CONTINUOUS
10
2.09031
20
0.89437
11
2.09031
21
0.912087
0
LINE
8
BLACK
6
CONTINUOUS
10
2.09031
20
0.912087
11
2.1474
21
0.912087
0
LINE
8
BLACK
6
CONTINUOUS
10
2.1474
20
0.912087
11
2.1474
21
0.89437
0
LINE
8
BLACK
6
CONTINUOUS
10
1.0025
20
0.905
11
0.9475
21
0.905
0
LINE
8
BLACK
6
CONTINUOUS
10
0.9475
20
0.905
11
0.9475
21
0.94
0
LINE
8
BLACK
6
CONTINUOUS
10
0.9475
20
0.94
11
1.0025
21
0.94
0
LINE
8
BLACK
6
CONTINUOUS
10
1.0025
20
0.94
11
1.0025
21
0.905
0
LINE
8
BLACK
6
CONTINUOUS
10
1.1952
20
0.90685
11
1.0948
21
0.90685
0
LINE
8
BLACK
6
CONTINUOUS
10
1.0948
20
0.90685
11
1.0948
21
1.01315
0
LINE
8
BLACK
6
CONTINUOUS
10
1.0948
20
1.01315
11
1.1952
21
1.01315
0
LINE
8
BLACK
6
CONTINUOUS
10
1.1952
20
1.01315
11
1.1952
21
0.90685
0
LINE
8
BLACK
6
CONTINUOUS
10
1.4452
20
0.90685
11
1.3448
21
0.90685
0
LINE
8
BLACK
6
CONTINUOUS
10
1.3448
20
0.90685
11
1.3448
21
1.01315
0
LINE
8
BLACK
6
CONTINUOUS
10
1.3448
20
1.01315
11
1.4452
21
1.01315
0
LINE
8
BLACK
6
CONTINUOUS
10
1.4452
20
1.01315
11
1.4452
21
0.90685
0
LINE
8
BLACK
6
CONTINUOUS
10
2.0125
20
0.91
11
1.9575
21
0.91
0
LINE
8
BLACK
6
CONTINUOUS
10
1.9575
20
0.91
11
1.9575
21
0.945
0
LINE
8
BLACK
6
CONTINUOUS
10
1.9575
20
0.945
11
2.0125
21
0.945
0
LINE
8
BLACK
6
CONTINUOUS
10
2.0125
20
0.945
11
2.0125
21
0.91
0
LINE
8
BLACK
6
CONTINUOUS
10
2.1474
20
0.919961
11
2.09031
21
0.919961
0
LINE
8
BLACK
6
CONTINUOUS
10
2.09031
20
0.919961
11
2.09031
21
0.937677
0
LINE
8
BLACK
6
CONTINUOUS
10
2.09031
20
0.937677
11
2.1474
21
0.937677
0
LINE
8
BLACK
6
CONTINUOUS
10
2.1474
20
0.937677
11
2.1474
21
0.919961
0
LINE
8
BLACK
6
CONTINUOUS
10
2.37969
20
0.919961
11
2.3226
21
0.919961
0
LINE
8
BLACK
6
CONTINUOUS
10
2.3226
20
0.919961
11
2.3226
21
0.937677
0
LINE
8
BLACK
6
CONTINUOUS
10
2.3226
20
0.937677
11
2.37969
21
0.937677
0
LINE
8
BLACK
6
CONTINUOUS
10
2.37969
20
0.937677
11
2.37969
21
0.919961
0
LINE
8
BLACK
6
CONTINUOUS
10
0.6275
20
0.9325
11
0.5725
21
0.9325
0
LINE
8
BLACK
6
CONTINUOUS
10
0.5725
20
0.9325
11
0.5725
21
0.9675
0
LINE
8
BLACK
6
CONTINUOUS
10
0.5725
20
0.9675
11
0.6275
21
0.9675
0
LINE
8
BLACK
6
CONTINUOUS
10
0.6275
20
0.9675
11
0.6275
21
0.9325
0
LINE
8
BLACK
6
CONTINUOUS
10
0.7
20
0.9325
11
0.645
21
0.9325
0
LINE
8
BLACK
6
CONTINUOUS
10
0.645
20
0.9325
11
0.645
21
0.9675
0
LINE
8
BLACK
6
CONTINUOUS
10
0.645
20
0.9675
11
0.7
21
0.9675
0
LINE
8
BLACK
6
CONTINUOUS
10
0.7
20
0.9675
11
0.7
21
0.9325
0
LINE
8
BLACK
6
CONTINUOUS
10
2.5075
20
0.935
11
2.4525
21
0.935
0
LINE
8
BLACK
6
CONTINUOUS
10
2.4525
20
0.935
11
2.4525
21
0.97
0
LINE
8
BLACK
6
CONTINUOUS
10
2.4525
20
0.97
11
2.5075
21
0.97
0
LINE
8
BLACK
6
CONTINUOUS
10
2.5075
20
0.97
11
2.5075
21
0.935
0
LINE
8
BLACK
6
CONTINUOUS
10
2.6075
20
0.935
11
2.5525
21
0.935
0
LINE
8
BLACK
6
CONTINUOUS
10
2.5525
20
0.935
11
2.5525
21
0.97
0
LINE
8
BLACK
6
CONTINUOUS
10
2.5525
20
0.97
11
2.6075
21
0.97
0
LINE
8
BLACK
6
CONTINUOUS
10
2.6075
20
0.97
11
2.6075
21
0.935
0
LINE
8
BLACK
6
CONTINUOUS
10
0.443622
20
0.94063
11
0.396378
21
0.94063
0
LINE
8
BLACK
6
CONTINUOUS
10
0.396378
20
0.94063
11
0.396378
21
1.01937
0
LINE
8
BLACK
6
CONTINUOUS
10
0.396378
20
1.01937
11
0.443622
21
1.01937
0
LINE
8
BLACK
6
CONTINUOUS
10
0.443622
20
1.01937
11
0.443622
21
0.94063
0
LINE
8
BLACK
6
CONTINUOUS
10
0.543622
20
0.94063
11
0.496378
21
0.94063
0
LINE
8
BLACK
6
CONTINUOUS
10
0.496378
20
0.94063
11
0.496378
21
1.01937
0
LINE
8
BLACK
6
CONTINUOUS
10
0.496378
20
1.01937
11
0.543622
21
1.01937
0
LINE
8
BLACK
6
CONTINUOUS
10
0.543622
20
1.01937
11
0.543622
21
0.94063
0
LINE
8
BLACK
6
CONTINUOUS
10
2.1474
20
0.945551
11
2.09031
21
0.945551
0
LINE
8
BLACK
6
CONTINUOUS
10
2.09031
20
0.945551
11
2.09031
21
0.963268
0
LINE
8
BLACK
6
CONTINUOUS
10
2.09031
20
0.963268
11
2.1474
21
0.963268
0
LINE
8
BLACK
6
CONTINUOUS
10
2.1474
20
0.963268
11
2.1474
21
0.945551
0
LINE
8
BLACK
6
CONTINUOUS
10
2.37969
20
0.945551
11
2.3226
21
0.945551
0
LINE
8
BLACK
6
CONTINUOUS
10
2.3226
20
0.945551
11
2.3226
21
0.963268
0
LINE
8
BLACK
6
CONTINUOUS
10
2.3226
20
0.963268
11
2.37969
21
0.963268
0
LINE
8
BLACK
6
CONTINUOUS
10
2.37969
20
0.963268
11
2.37969
21
0.945551
0
LINE
8
BLACK
6
CONTINUOUS
10
2.37969
20
0.971142
11
2.3226
21
0.971142
0
LINE
8
BLACK
6
CONTINUOUS
10
2.3226
20
0.971142
11
2.3226
21
0.988858
0
LINE
8
BLACK
6
CONTINUOUS
10
2.3226
20
0.988858
11
2.37969
21
0.988858
0
LINE
8
BLACK
6
CONTINUOUS
10
2.37969
20
0.988858
11
2.37969
21
0.971142
0
LINE
8
BLACK
6
CONTINUOUS
10
2.1474
20
0.971142
11
2.09031
21
0.971142
0
LINE
8
BLACK
6
CONTINUOUS
10
2.09031
20
0.971142
11
2.09031
21
0.988858
0
LINE
8
BLACK
6
CONTINUOUS
10
2.09031
20
0.988858
11
2.1474
21
0.988858
0
LINE
8
BLACK
6
CONTINUOUS
10
2.1474
20
0.988858
11
2.1474
21
0.971142
0
LINE
8
BLACK
6
CONTINUOUS
10
2.0125
20
0.985
11
1.9575
21
0.985
0
LINE
8
BLACK
6
CONTINUOUS
10
1.9575
20
0.985
11
1.9575
21
1.02
0
LINE
8
BLACK
6
CONTINUOUS
10
1.9575
20
1.02
11
2.0125
21
1.02
0
LINE
8
BLACK
6
CONTINUOUS
10
2.0125
20
1.02
11
2.0125
21
0.985
0
LINE
8
BLACK
6
CONTINUOUS
10
2.69
20
0.9925
11
2.655
21
0.9925
0
LINE
8
BLACK
6
CONTINUOUS
10
2.655
20
0.9925
11
2.655
21
1.0475
0
LINE
8
BLACK
6
CONTINUOUS
10
2.655
20
1.0475
11
2.69
21
1.0475
0
LINE
8
BLACK
6
CONTINUOUS
10
2.69
20
1.0475
11
2.69
21
0.9925
0
LINE
8
BLACK
6
CONTINUOUS
10
2.765
20
0.9925
11
2.73
21
0.9925
0
LINE
8
BLACK
6
CONTINUOUS
10
2.73
20
0.9925
11
2.73
21
1.0475
0
LINE
8
BLACK
6
CONTINUOUS
10
2.73
20
1.0475
11
2.765
21
1.0475
0
LINE
8
BLACK
6
CONTINUOUS
10
2.765
20
1.0475
11
2.765
21
0.9925
0
LINE
8
BLACK
6
CONTINUOUS
10
2.37969
20
0.996732
11
2.3226
21
0.996732
0
LINE
8
BLACK
6
CONTINUOUS
10
2.3226
20
0.996732
11
2.3226
21
1.01445
0
LINE
8
BLACK
6
CONTINUOUS
10
2.3226
20
1.01445
11
2.37969
21
1.01445
0
LINE
8
BLACK
6
CONTINUOUS
10
2.37969
20
1.01445
11
2.37969
21
0.996732
0
LINE
8
BLACK
6
CONTINUOUS
10
2.1474
20
0.996732
11
2.09031
21
0.996732
0
LINE
8
BLACK
6
CONTINUOUS
10
2.09031
20
0.996732
11
2.09031
21
1.01445
0
LINE
8
BLACK
6
CONTINUOUS
10
2.09031
20
1.01445
11
2.1474
21
1.01445
0
LINE
8
BLACK
6
CONTINUOUS
10
2.1474
20
1.01445
11
2.1474
21
0.996732
0
LINE
8
BLACK
6
CONTINUOUS
10
0.3775
20
1.005
11
0.3225
21
1.005
0
LINE
8
BLACK
6
CONTINUOUS
10
0.3225
20
1.005
11
0.3225
21
1.04
0
LINE
8
BLACK
6
CONTINUOUS
10
0.3225
20
1.04
11
0.3775
21
1.04
0
LINE
8
BLACK
6
CONTINUOUS
10
0.3775
20
1.04
11
0.3775
21
1.005
0
LINE
8
BLACK
6
CONTINUOUS
10
0.6275
20
1.0075
11
0.5725
21
1.0075
0
LINE
8
BLACK
6
CONTINUOUS
10
0.5725
20
1.0075
11
0.5725
21
1.0425
0
LINE
8
BLACK
6
CONTINUOUS
10
0.5725
20
1.0425
11
0.6275
21
1.0425
0
LINE
8
BLACK
6
CONTINUOUS
10
0.6275
20
1.0425
11
0.6275
21
1.0075
0
LINE
8
BLACK
6
CONTINUOUS
10
0.7
20
1.0075
11
0.645
21
1.0075
0
LINE
8
BLACK
6
CONTINUOUS
10
0.645
20
1.0075
11
0.645
21
1.0425
0
LINE
8
BLACK
6
CONTINUOUS
10
0.645
20
1.0425
11
0.7
21
1.0425
0
LINE
8
BLACK
6
CONTINUOUS
10
0.7
20
1.0425
11
0.7
21
1.0075
0
LINE
8
BLACK
6
CONTINUOUS
10
2.6075
20
1.01
11
2.5525
21
1.01
0
LINE
8
BLACK
6
CONTINUOUS
10
2.5525
20
1.01
11
2.5525
21
1.045
0
LINE
8
BLACK
6
CONTINUOUS
10
2.5525
20
1.045
11
2.6075
21
1.045
0
LINE
8
BLACK
6
CONTINUOUS
10
2.6075
20
1.045
11
2.6075
21
1.01
0
LINE
8
BLACK
6
CONTINUOUS
10
2.5075
20
1.01
11
2.4525
21
1.01
0
LINE
8
BLACK
6
CONTINUOUS
10
2.4525
20
1.01
11
2.4525
21
1.045
0
LINE
8
BLACK
6
CONTINUOUS
10
2.4525
20
1.045
11
2.5075
21
1.045
0
LINE
8
BLACK
6
CONTINUOUS
10
2.5075
20
1.045
11
2.5075
21
1.01
0
LINE
8
BLACK
6
CONTINUOUS
10
2.1474
20
1.02232
11
2.09031
21
1.02232
0
LINE
8
BLACK
6
CONTINUOUS
10
2.09031
20
1.02232
11
2.09031
21
1.04004
0
LINE
8
BLACK
6
CONTINUOUS
10
2.09031
20
1.04004
11
2.1474
21
1.04004
0
LINE
8
BLACK
6
CONTINUOUS
10
2.1474
20
1.04004
11
2.1474
21
1.02232
0
LINE
8
BLACK
6
CONTINUOUS
10
2.37969
20
1.02232
11
2.3226
21
1.02232
0
LINE
8
BLACK
6
CONTINUOUS
10
2.3226
20
1.02232
11
2.3226
21
1.04004
0
LINE
8
BLACK
6
CONTINUOUS
10
2.3226
20
1.04004
11
2.37969
21
1.04004
0
LINE
8
BLACK
6
CONTINUOUS
10
2.37969
20
1.04004
11
2.37969
21
1.02232
0
LINE
8
BLACK
6
CONTINUOUS
10
2.37969
20
1.04791
11
2.3226
21
1.04791
0
LINE
8
BLACK
6
CONTINUOUS
10
2.3226
20
1.04791
11
2.3226
21
1.06563
0
LINE
8
BLACK
6
CONTINUOUS
10
2.3226
20
1.06563
11
2.37969
21
1.06563
0
LINE
8
BLACK
6
CONTINUOUS
10
2.37969
20
1.06563
11
2.37969
21
1.04791
0
LINE
8
BLACK
6
CONTINUOUS
10
2.1474
20
1.04791
11
2.09031
21
1.04791
0
LINE
8
BLACK
6
CONTINUOUS
10
2.09031
20
1.04791
11
2.09031
21
1.06563
0
LINE
8
BLACK
6
CONTINUOUS
10
2.09031
20
1.06563
11
2.1474
21
1.06563
0
LINE
8
BLACK
6
CONTINUOUS
10
2.1474
20
1.06563
11
2.1474
21
1.04791
0
LINE
8
BLACK
6
CONTINUOUS
10
0.715
20
1.0625
11
0.68
21
1.0625
0
LINE
8
BLACK
6
CONTINUOUS
10
0.68
20
1.0625
11
0.68
21
1.1175
0
LINE
8
BLACK
6
CONTINUOUS
10
0.68
20
1.1175
11
0.715
21
1.1175
0
LINE
8
BLACK
6
CONTINUOUS
10
0.715
20
1.1175
11
0.715
21
1.0625
0
LINE
8
BLACK
6
CONTINUOUS
10
0.64
20
1.0625
11
0.605
21
1.0625
0
LINE
8
BLACK
6
CONTINUOUS
10
0.605
20
1.0625
11
0.605
21
1.1175
0
LINE
8
BLACK
6
CONTINUOUS
10
0.605
20
1.1175
11
0.64
21
1.1175
0
LINE
8
BLACK
6
CONTINUOUS
10
0.64
20
1.1175
11
0.64
21
1.0625
0
LINE
8
BLACK
6
CONTINUOUS
10
2.91799
20
1.06736
11
2.79201
21
1.06736
0
LINE
8
BLACK
6
CONTINUOUS
10
2.79201
20
1.06736
11
2.79201
21
1.10673
0
LINE
8
BLACK
6
CONTINUOUS
10
2.79201
20
1.10673
11
2.91799
21
1.10673
0
LINE
8
BLACK
6
CONTINUOUS
10
2.91799
20
1.10673
11
2.91799
21
1.06736
0
LINE
8
BLACK
6
CONTINUOUS
10
0.564803
20
1.07472
11
0.531339
21
1.07472
0
LINE
8
BLACK
6
CONTINUOUS
10
0.531339
20
1.07472
11
0.531339
21
1.0885
0
LINE
8
BLACK
6
CONTINUOUS
10
0.531339
20
1.0885
11
0.564803
21
1.0885
0
LINE
8
BLACK
6
CONTINUOUS
10
0.564803
20
1.0885
11
0.564803
21
1.07472
0
LINE
8
BLACK
6
CONTINUOUS
10
0.448661
20
1.07472
11
0.415197
21
1.07472
0
LINE
8
BLACK
6
CONTINUOUS
10
0.415197
20
1.07472
11
0.415197
21
1.0885
0
LINE
8
BLACK
6
CONTINUOUS
10
0.415197
20
1.0885
11
0.448661
21
1.0885
0
LINE
8
BLACK
6
CONTINUOUS
10
0.448661
20
1.0885
11
0.448661
21
1.07472
0
LINE
8
BLACK
6
CONTINUOUS
10
0.21
20
1.0775
11
0.175
21
1.0775
0
LINE
8
BLACK
6
CONTINUOUS
10
0.175
20
1.0775
11
0.175
21
1.1325
0
LINE
8
BLACK
6
CONTINUOUS
10
0.175
20
1.1325
11
0.21
21
1.1325
0
LINE
8
BLACK
6
CONTINUOUS
10
0.21
20
1.1325
11
0.21
21
1.0775
0
LINE
8
BLACK
6
CONTINUOUS
10
0.285
20
1.0775
11
0.25
21
1.0775
0
LINE
8
BLACK
6
CONTINUOUS
10
0.25
20
1.0775
11
0.25
21
1.1325
0
LINE
8
BLACK
6
CONTINUOUS
10
0.25
20
1.1325
11
0.285
21
1.1325
0
LINE
8
BLACK
6
CONTINUOUS
10
0.285
20
1.1325
11
0.285
21
1.0775
0
LINE
8
BLACK
6
CONTINUOUS
10
1.19327
20
1.07909
11
0.976732
21
1.07909
0
LINE
8
BLACK
6
CONTINUOUS
10
0.976732
20
1.07909
11
0.976732
21
1.1972
0
LINE
8
BLACK
6
CONTINUOUS
10
0.976732
20
1.1972
11
1.19327
21
1.1972
0
LINE
8
BLACK
6
CONTINUOUS
10
1.19327
20
1.1972
11
1.19327
21
1.07909
0
LINE
8
BLACK
6
CONTINUOUS
10
0.3775
20
1.08
11
0.3225
21
1.08
0
LINE
8
BLACK
6
CONTINUOUS
10
0.3225
20
1.08
11
0.3225
21
1.115
0
LINE
8
BLACK
6
CONTINUOUS
10
0.3225
20
1.115
11
0.3775
21
1.115
0
LINE
8
BLACK
6
CONTINUOUS
10
0.3775
20
1.115
11
0.3775
21
1.08
0
LINE
8
BLACK
6
CONTINUOUS
10
0.517559
20
1.08063
11
0.462441
21
1.08063
0
LINE
8
BLACK
6
CONTINUOUS
10
0.462441
20
1.08063
11
0.462441
21
1.15937
0
LINE
8
BLACK
6
CONTINUOUS
10
0.462441
20
1.15937
11
0.517559
21
1.15937
0
LINE
8
BLACK
6
CONTINUOUS
10
0.517559
20
1.15937
11
0.517559
21
1.08063
0
LINE
8
BLACK
6
CONTINUOUS
10
2.575
20
1.0925
11
2.54
21
1.0925
0
LINE
8
BLACK
6
CONTINUOUS
10
2.54
20
1.0925
11
2.54
21
1.1475
0
LINE
8
BLACK
6
CONTINUOUS
10
2.54
20
1.1475
11
2.575
21
1.1475
0
LINE
8
BLACK
6
CONTINUOUS
10
2.575
20
1.1475
11
2.575
21
1.0925
0
LINE
8
BLACK
6
CONTINUOUS
10
2.5
20
1.0925
11
2.465
21
1.0925
0
LINE
8
BLACK
6
CONTINUOUS
10
2.465
20
1.0925
11
2.465
21
1.1475
0
LINE
8
BLACK
6
CONTINUOUS
10
2.465
20
1.1475
11
2.5
21
1.1475
0
LINE
8
BLACK
6
CONTINUOUS
10
2.5
20
1.1475
11
2.5
21
1.0925
0
LINE
8
BLACK
6
CONTINUOUS
10
0.564803
20
1.10031
11
0.531339
21
1.10031
0
LINE
8
BLACK
6
CONTINUOUS
10
0.531339
20
1.10031
11
0.531339
21
1.11409
0
LINE
8
BLACK
6
CONTINUOUS
10
0.531339
20
1.11409
11
0.564803
21
1.11409
0
LINE
8
BLACK
6
CONTINUOUS
10
0.564803
20
1.11409
11
0.564803
21
1.10031
0
LINE
8
BLACK
6
CONTINUOUS
10
0.448661
20
1.10031
11
0.415197
21
1.10031
0
LINE
8
BLACK
6
CONTINUOUS
10
0.415197
20
1.10031
11
0.415197
21
1.11409
0
LINE
8
BLACK
6
CONTINUOUS
10
0.415197
20
1.11409
11
0.448661
21
1.11409
0
LINE
8
BLACK
6
CONTINUOUS
10
0.448661
20
1.11409
11
0.448661
21
1.10031
0
LINE
8
BLACK
6
CONTINUOUS
10
2.1275
20
1.125
11
2.0925
21
1.125
0
LINE
8
BLACK
6
CONTINUOUS
10
2.0925
20
1.125
11
2.0925
21
1.18
0
LINE
8
BLACK
6
CONTINUOUS
10
2.0925
20
1.18
11
2.1275
21
1.18
0
LINE
8
BLACK
6
CONTINUOUS
10
2.1275
20
1.18
11
2.1275
21
1.125
0
LINE
8
BLACK
6
CONTINUOUS
10
2.0525
20
1.125
11
2.0175
21
1.125
0
LINE
8
BLACK
6
CONTINUOUS
10
2.0175
20
1.125
11
2.0175
21
1.18
0
LINE
8
BLACK
6
CONTINUOUS
10
2.0175
20
1.18
11
2.0525
21
1.18
0
LINE
8
BLACK
6
CONTINUOUS
10
2.0525
20
1.18
11
2.0525
21
1.125
0
LINE
8
BLACK
6
CONTINUOUS
10
0.448661
20
1.12591
11
0.415197
21
1.12591
0
LINE
8
BLACK
6
CONTINUOUS
10
0.415197
20
1.12591
11
0.415197
21
1.13969
0
LINE
8
BLACK
6
CONTINUOUS
10
0.415197
20
1.13969
11
0.448661
21
1.13969
0
LINE
8
BLACK
6
CONTINUOUS
10
0.448661
20
1.13969
11
0.448661
21
1.12591
0
LINE
8
BLACK
6
CONTINUOUS
10
0.564803
20
1.12591
11
0.531339
21
1.12591
0
LINE
8
BLACK
6
CONTINUOUS
10
0.531339
20
1.12591
11
0.531339
21
1.13969
0
LINE
8
BLACK
6
CONTINUOUS
10
0.531339
20
1.13969
11
0.564803
21
1.13969
0
LINE
8
BLACK
6
CONTINUOUS
10
0.564803
20
1.13969
11
0.564803
21
1.12591
0
LINE
8
BLACK
6
CONTINUOUS
10
1.94289
20
1.20022
11
1.94639
21
1.19756
0
LINE
8
BLACK
6
CONTINUOUS
10
1.94639
20
1.19756
11
1.9487
21
1.19382
0
LINE
8
BLACK
6
CONTINUOUS
10
1.9487
20
1.19382
11
1.9495
21
1.1895
0
LINE
8
BLACK
6
CONTINUOUS
10
1.9495
20
1.1895
11
1.9495
21
1.1555
0
LINE
8
BLACK
6
CONTINUOUS
10
1.9495
20
1.1555
11
1.94927
21
1.15317
0
LINE
8
BLACK
6
CONTINUOUS
10
1.94927
20
1.15317
11
1.94764
21
1.14909
0
LINE
8
BLACK
6
CONTINUOUS
10
1.94764
20
1.14909
11
1.94465
21
1.14587
0
LINE
8
BLACK
6
CONTINUOUS
10
1.94465
20
1.14587
11
1.94071
21
1.14394
0
LINE
8
BLACK
6
CONTINUOUS
10
1.94071
20
1.14394
11
1.93633
21
1.14356
0
LINE
8
BLACK
6
CONTINUOUS
10
1.93633
20
1.14356
11
1.93211
21
1.14478
0
LINE
8
BLACK
6
CONTINUOUS
10
1.93211
20
1.14478
11
1.92861
21
1.14744
0
LINE
8
BLACK
6
CONTINUOUS
10
1.92861
20
1.14744
11
1.9263
21
1.15118
0
LINE
8
BLACK
6
CONTINUOUS
10
1.9263
20
1.15118
11
1.9255
21
1.1555
0
LINE
8
BLACK
6
CONTINUOUS
10
1.9255
20
1.1555
11
1.9255
21
1.1895
0
LINE
8
BLACK
6
CONTINUOUS
10
1.9255
20
1.1895
11
1.92573
21
1.19183
0
LINE
8
BLACK
6
CONTINUOUS
10
1.92573
20
1.19183
11
1.92736
21
1.19591
0
LINE
8
BLACK
6
CONTINUOUS
10
1.92736
20
1.19591
11
1.93035
21
1.19913
0
LINE
8
BLACK
6
CONTINUOUS
10
1.93035
20
1.19913
11
1.93429
21
1.20106
0
LINE
8
BLACK
6
CONTINUOUS
10
1.93429
20
1.20106
11
1.93867
21
1.20144
0
LINE
8
BLACK
6
CONTINUOUS
10
1.93867
20
1.20144
11
1.94289
21
1.20022
0
LINE
8
BLACK
6
CONTINUOUS
10
1.89289
20
1.20022
11
1.89639
21
1.19756
0
LINE
8
BLACK
6
CONTINUOUS
10
1.89639
20
1.19756
11
1.8987
21
1.19382
0
LINE
8
BLACK
6
CONTINUOUS
10
1.8987
20
1.19382
11
1.8995
21
1.1895
0
LINE
8
BLACK
6
CONTINUOUS
10
1.8995
20
1.1895
11
1.8995
21
1.1555
0
LINE
8
BLACK
6
CONTINUOUS
10
1.8995
20
1.1555
11
1.89927
21
1.15317
0
LINE
8
BLACK
6
CONTINUOUS
10
1.89927
20
1.15317
11
1.89764
21
1.14909
0
LINE
8
BLACK
6
CONTINUOUS
10
1.89764
20
1.14909
11
1.89465
21
1.14587
0
LINE
8
BLACK
6
CONTINUOUS
10
1.89465
20
1.14587
11
1.89071
21
1.14394
0
LINE
8
BLACK
6
CONTINUOUS
10
1.89071
20
1.14394
11
1.88633
21
1.14356
0
LINE
8
BLACK
6
CONTINUOUS
10
1.88633
20
1.14356
11
1.88211
21
1.14478
0
LINE
8
BLACK
6
CONTINUOUS
10
1.88211
20
1.14478
11
1.87861
21
1.14744
0
LINE
8
BLACK
6
CONTINUOUS
10
1.87861
20
1.14744
11
1.8763
21
1.15118
0
LINE
8
BLACK
6
CONTINUOUS
10
1.8763
20
1.15118
11
1.8755
21
1.1555
0
LINE
8
BLACK
6
CONTINUOUS
10
1.8755
20
1.1555
11
1.8755
21
1.1895
0
LINE
8
BLACK
6
CONTINUOUS
10
1.8755
20
1.1895
11
1.87573
21
1.19183
0
LINE
8
BLACK
6
CONTINUOUS
10
1.87573
20
1.19183
11
1.87736
21
1.19591
0
LINE
8
BLACK
6
CONTINUOUS
10
1.87736
20
1.19591
11
1.88035
21
1.19913
0
LINE
8
BLACK
6
CONTINUOUS
10
1.88035
20
1.19913
11
1.88429
21
1.20106
0
LINE
8
BLACK
6
CONTINUOUS
10
1.88429
20
1.20106
11
1.88867
21
1.20144
0
LINE
8
BLACK
6
CONTINUOUS
10
1.88867
20
1.20144
11
1.89289
21
1.20022
0
LINE
8
BLACK
6
CONTINUOUS
10
1.84289
20
1.20022
11
1.84639
21
1.19756
0
LINE
8
BLACK
6
CONTINUOUS
10
1.84639
20
1.19756
11
1.8487
21
1.19382
0
LINE
8
BLACK
6
CONTINUOUS
10
1.8487
20
1.19382
11
1.8495
21
1.1895
0
LINE
8
BLACK
6
CONTINUOUS
10
1.8495
20
1.1895
11
1.8495
21
1.1555
0
LINE
8
BLACK
6
CONTINUOUS
10
1.8495
20
1.1555
11
1.84927
21
1.15317
0
LINE
8
BLACK
6
CONTINUOUS
10
1.84927
20
1.15317
11
1.84764
21
1.14909
0
LINE
8
BLACK
6
CONTINUOUS
10
1.84764
20
1.14909
11
1.84465
21
1.14587
0
LINE
8
BLACK
6
CONTINUOUS
10
1.84465
20
1.14587
11
1.84071
21
1.14394
0
LINE
8
BLACK
6
CONTINUOUS
10
1.84071
20
1.14394
11
1.83633
21
1.14356
0
LINE
8
BLACK
6
CONTINUOUS
10
1.83633
20
1.14356
11
1.83211
21
1.14478
0
LINE
8
BLACK
6
CONTINUOUS
10
1.83211
20
1.14478
11
1.82861
21
1.14744
0
LINE
8
BLACK
6
CONTINUOUS
10
1.82861
20
1.14744
11
1.8263
21
1.15118
0
LINE
8
BLACK
6
CONTINUOUS
10
1.8263
20
1.15118
11
1.8255
21
1.1555
0
LINE
8
BLACK
6
CONTINUOUS
10
1.8255
20
1.1555
11
1.8255
21
1.1895
0
LINE
8
BLACK
6
CONTINUOUS
10
1.8255
20
1.1895
11
1.82573
21
1.19183
0
LINE
8
BLACK
6
CONTINUOUS
10
1.82573
20
1.19183
11
1.82736
21
1.19591
0
LINE
8
BLACK
6
CONTINUOUS
10
1.82736
20
1.19591
11
1.83035
21
1.19913
0
LINE
8
BLACK
6
CONTINUOUS
10
1.83035
20
1.19913
11
1.83429
21
1.20106
0
LINE
8
BLACK
6
CONTINUOUS
10
1.83429
20
1.20106
11
1.83867
21
1.20144
0
LINE
8
BLACK
6
CONTINUOUS
10
1.83867
20
1.20144
11
1.84289
21
1.20022
0
LINE
8
BLACK
6
CONTINUOUS
10
1.79289
20
1.20022
11
1.79639
21
1.19756
0
LINE
8
BLACK
6
CONTINUOUS
10
1.79639
20
1.19756
11
1.7987
21
1.19382
0
LINE
8
BLACK
6
CONTINUOUS
10
1.7987
20
1.19382
11
1.7995
21
1.1895
0
LINE
8
BLACK
6
CONTINUOUS
10
1.7995
20
1.1895
11
1.7995
21
1.1555
0
LINE
8
BLACK
6
CONTINUOUS
10
1.7995
20
1.1555
11
1.79927
21
1.15317
0
LINE
8
BLACK
6
CONTINUOUS
10
1.79927
20
1.15317
11
1.79764
21
1.14909
0
LINE
8
BLACK
6
CONTINUOUS
10
1.79764
20
1.14909
11
1.79465
21
1.14587
0
LINE
8
BLACK
6
CONTINUOUS
10
1.79465
20
1.14587
11
1.79071
21
1.14394
0
LINE
8
BLACK
6
CONTINUOUS
10
1.79071
20
1.14394
11
1.78633
21
1.14356
0
LINE
8
BLACK
6
CONTINUOUS
10
1.78633
20
1.14356
11
1.78211
21
1.14478
0
LINE
8
BLACK
6
CONTINUOUS
10
1.78211
20
1.14478
11
1.77861
21
1.14744
0
LINE
8
BLACK
6
CONTINUOUS
10
1.77861
20
1.14744
11
1.7763
21
1.15118
0
LINE
8
BLACK
6
CONTINUOUS
10
1.7763
20
1.15118
11
1.7755
21
1.1555
0
LINE
8
BLACK
6
CONTINUOUS
10
1.7755
20
1.1555
11
1.7755
21
1.1895
0
LINE
8
BLACK
6
CONTINUOUS
10
1.7755
20
1.1895
11
1.77573
21
1.19183
0
LINE
8
BLACK
6
CONTINUOUS
10
1.77573
20
1.19183
11
1.77736
21
1.19591
0
LINE
8
BLACK
6
CONTINUOUS
10
1.77736
20
1.19591
11
1.78035
21
1.19913
0
LINE
8
BLACK
6
CONTINUOUS
10
1.78035
20
1.19913
11
1.78429
21
1.20106
0
LINE
8
BLACK
6
CONTINUOUS
10
1.78429
20
1.20106
11
1.78867
21
1.20144
0
LINE
8
BLACK
6
CONTINUOUS
10
1.78867
20
1.20144
11
1.79289
21
1.20022
0
LINE
8
BLACK
6
CONTINUOUS
10
0.3775
20
1.15
11
0.3225
21
1.15
0
LINE
8
BLACK
6
CONTINUOUS
10
0.3225
20
1.15
11
0.3225
21
1.185
0
LINE
8
BLACK
6
CONTINUOUS
10
0.3225
20
1.185
11
0.3775
21
1.185
0
LINE
8
BLACK
6
CONTINUOUS
10
0.3775
20
1.185
11
0.3775
21
1.15
0
LINE
8
BLACK
6
CONTINUOUS
10
0.448661
20
1.1515
11
0.415197
21
1.1515
0
LINE
8
BLACK
6
CONTINUOUS
10
0.415197
20
1.1515
11
0.415197
21
1.16528
0
LINE
8
BLACK
6
CONTINUOUS
10
0.415197
20
1.16528
11
0.448661
21
1.16528
0
LINE
8
BLACK
6
CONTINUOUS
10
0.448661
20
1.16528
11
0.448661
21
1.1515
0
LINE
8
BLACK
6
CONTINUOUS
10
0.564803
20
1.1515
11
0.531339
21
1.1515
0
LINE
8
BLACK
6
CONTINUOUS
10
0.531339
20
1.1515
11
0.531339
21
1.16528
0
LINE
8
BLACK
6
CONTINUOUS
10
0.531339
20
1.16528
11
0.564803
21
1.16528
0
LINE
8
BLACK
6
CONTINUOUS
10
0.564803
20
1.16528
11
0.564803
21
1.1515
0
LINE
8
BLACK
6
CONTINUOUS
10
0.72325
20
1.162
11
0.69175
21
1.162
0
LINE
8
BLACK
6
CONTINUOUS
10
0.69175
20
1.162
11
0.69175
21
1.2014
0
LINE
8
BLACK
6
CONTINUOUS
10
0.69175
20
1.2014
11
0.72325
21
1.2014
0
LINE
8
BLACK
6
CONTINUOUS
10
0.72325
20
1.2014
11
0.72325
21
1.162
0
LINE
8
BLACK
6
CONTINUOUS
10
0.79825
20
1.162
11
0.76675
21
1.162
0
LINE
8
BLACK
6
CONTINUOUS
10
0.76675
20
1.162
11
0.76675
21
1.2014
0
LINE
8
BLACK
6
CONTINUOUS
10
0.76675
20
1.2014
11
0.79825
21
1.2014
0
LINE
8
BLACK
6
CONTINUOUS
10
0.79825
20
1.2014
11
0.79825
21
1.162
0
LINE
8
BLACK
6
CONTINUOUS
10
0.6475
20
1.165
11
0.5925
21
1.165
0
LINE
8
BLACK
6
CONTINUOUS
10
0.5925
20
1.165
11
0.5925
21
1.2
0
LINE
8
BLACK
6
CONTINUOUS
10
0.5925
20
1.2
11
0.6475
21
1.2
0
LINE
8
BLACK
6
CONTINUOUS
10
0.6475
20
1.2
11
0.6475
21
1.165
0
LINE
8
BLACK
6
CONTINUOUS
10
0.21
20
1.1675
11
0.175
21
1.1675
0
LINE
8
BLACK
6
CONTINUOUS
10
0.175
20
1.1675
11
0.175
21
1.2225
0
LINE
8
BLACK
6
CONTINUOUS
10
0.175
20
1.2225
11
0.21
21
1.2225
0
LINE
8
BLACK
6
CONTINUOUS
10
0.21
20
1.2225
11
0.21
21
1.1675
0
LINE
8
BLACK
6
CONTINUOUS
10
0.285
20
1.1675
11
0.25
21
1.1675
0
LINE
8
BLACK
6
CONTINUOUS
10
0.25
20
1.1675
11
0.25
21
1.2225
0
LINE
8
BLACK
6
CONTINUOUS
10
0.25
20
1.2225
11
0.285
21
1.2225
0
LINE
8
BLACK
6
CONTINUOUS
10
0.285
20
1.2225
11
0.285
21
1.1675
0
LINE
8
BLACK
6
CONTINUOUS
10
0.47
20
1.2125
11
0.435
21
1.2125
0
LINE
8
BLACK
6
CONTINUOUS
10
0.435
20
1.2125
11
0.435
21
1.2675
0
LINE
8
BLACK
6
CONTINUOUS
10
0.435
20
1.2675
11
0.47
21
1.2675
0
LINE
8
BLACK
6
CONTINUOUS
10
0.47
20
1.2675
11
0.47
21
1.2125
0
LINE
8
BLACK
6
CONTINUOUS
10
0.545
20
1.2125
11
0.51
21
1.2125
0
LINE
8
BLACK
6
CONTINUOUS
10
0.51
20
1.2125
11
0.51
21
1.2675
0
LINE
8
BLACK
6
CONTINUOUS
10
0.51
20
1.2675
11
0.545
21
1.2675
0
LINE
8
BLACK
6
CONTINUOUS
10
0.545
20
1.2675
11
0.545
21
1.2125
0
LINE
8
BLACK
6
CONTINUOUS
10
1.51799
20
1.21327
11
1.39201
21
1.21327
0
LINE
8
BLACK
6
CONTINUOUS
10
1.39201
20
1.21327
11
1.39201
21
1.25264
0
LINE
8
BLACK
6
CONTINUOUS
10
1.39201
20
1.25264
11
1.51799
21
1.25264
0
LINE
8
BLACK
6
CONTINUOUS
10
1.51799
20
1.25264
11
1.51799
21
1.21327
0
LINE
8
BLACK
6
CONTINUOUS
10
2.15
20
1.215
11
2.095
21
1.215
0
LINE
8
BLACK
6
CONTINUOUS
10
2.095
20
1.215
11
2.095
21
1.25
0
LINE
8
BLACK
6
CONTINUOUS
10
2.095
20
1.25
11
2.15
21
1.25
0
LINE
8
BLACK
6
CONTINUOUS
10
2.15
20
1.25
11
2.15
21
1.215
0
LINE
8
BLACK
6
CONTINUOUS
10
2.23
20
1.215
11
2.175
21
1.215
0
LINE
8
BLACK
6
CONTINUOUS
10
2.175
20
1.215
11
2.175
21
1.25
0
LINE
8
BLACK
6
CONTINUOUS
10
2.175
20
1.25
11
2.23
21
1.25
0
LINE
8
BLACK
6
CONTINUOUS
10
2.23
20
1.25
11
2.23
21
1.215
0
LINE
8
BLACK
6
CONTINUOUS
10
0.3775
20
1.225
11
0.3225
21
1.225
0
LINE
8
BLACK
6
CONTINUOUS
10
0.3225
20
1.225
11
0.3225
21
1.26
0
LINE
8
BLACK
6
CONTINUOUS
10
0.3225
20
1.26
11
0.3775
21
1.26
0
LINE
8
BLACK
6
CONTINUOUS
10
0.3775
20
1.26
11
0.3775
21
1.225
0
LINE
8
BLACK
6
CONTINUOUS
10
2.0475
20
1.2375
11
1.9925
21
1.2375
0
LINE
8
BLACK
6
CONTINUOUS
10
1.9925
20
1.2375
11
1.9925
21
1.2725
0
LINE
8
BLACK
6
CONTINUOUS
10
1.9925
20
1.2725
11
2.0475
21
1.2725
0
LINE
8
BLACK
6
CONTINUOUS
10
2.0475
20
1.2725
11
2.0475
21
1.2375
0
LINE
8
BLACK
6
CONTINUOUS
10
0.6475
20
1.24
11
0.5925
21
1.24
0
LINE
8
BLACK
6
CONTINUOUS
10
0.5925
20
1.24
11
0.5925
21
1.275
0
LINE
8
BLACK
6
CONTINUOUS
10
0.5925
20
1.275
11
0.6475
21
1.275
0
LINE
8
BLACK
6
CONTINUOUS
10
0.6475
20
1.275
11
0.6475
21
1.24
0
LINE
8
BLACK
6
CONTINUOUS
10
0.76075
20
1.2486
11
0.72925
21
1.2486
0
LINE
8
BLACK
6
CONTINUOUS
10
0.72925
20
1.2486
11
0.72925
21
1.288
0
LINE
8
BLACK
6
CONTINUOUS
10
0.72925
20
1.288
11
0.76075
21
1.288
0
LINE
8
BLACK
6
CONTINUOUS
10
0.76075
20
1.288
11
0.76075
21
1.2486
0
LINE
8
BLACK
6
CONTINUOUS
10
0.2825
20
1.28
11
0.2275
21
1.28
0
LINE
8
BLACK
6
CONTINUOUS
10
0.2275
20
1.28
11
0.2275
21
1.315
0
LINE
8
BLACK
6
CONTINUOUS
10
0.2275
20
1.315
11
0.2825
21
1.315
0
LINE
8
BLACK
6
CONTINUOUS
10
0.2825
20
1.315
11
0.2825
21
1.28
0
LINE
8
BLACK
6
CONTINUOUS
10
2.23
20
1.29
11
2.175
21
1.29
0
LINE
8
BLACK
6
CONTINUOUS
10
2.175
20
1.29
11
2.175
21
1.325
0
LINE
8
BLACK
6
CONTINUOUS
10
2.175
20
1.325
11
2.23
21
1.325
0
LINE
8
BLACK
6
CONTINUOUS
10
2.23
20
1.325
11
2.23
21
1.29
0
LINE
8
BLACK
6
CONTINUOUS
10
2.15
20
1.29
11
2.095
21
1.29
0
LINE
8
BLACK
6
CONTINUOUS
10
2.095
20
1.29
11
2.095
21
1.325
0
LINE
8
BLACK
6
CONTINUOUS
10
2.095
20
1.325
11
2.15
21
1.325
0
LINE
8
BLACK
6
CONTINUOUS
10
2.15
20
1.325
11
2.15
21
1.29
0
LINE
8
BLACK
6
CONTINUOUS
10
2.0475
20
1.3125
11
1.9925
21
1.3125
0
LINE
8
BLACK
6
CONTINUOUS
10
1.9925
20
1.3125
11
1.9925
21
1.3475
0
LINE
8
BLACK
6
CONTINUOUS
10
1.9925
20
1.3475
11
2.0475
21
1.3475
0
LINE
8
BLACK
6
CONTINUOUS
10
2.0475
20
1.3475
11
2.0475
21
1.3125
0
LINE
8
BLACK
6
CONTINUOUS
10
2.1525
20
1.35
11
2.1175
21
1.35
0
LINE
8
BLACK
6
CONTINUOUS
10
2.1175
20
1.35
11
2.1175
21
1.405
0
LINE
8
BLACK
6
CONTINUOUS
10
2.1175
20
1.405
11
2.1525
21
1.405
0
LINE
8
BLACK
6
CONTINUOUS
10
2.1525
20
1.405
11
2.1525
21
1.35
0
LINE
8
BLACK
6
CONTINUOUS
10
2.2275
20
1.35
11
2.1925
21
1.35
0
LINE
8
BLACK
6
CONTINUOUS
10
2.1925
20
1.35
11
2.1925
21
1.405
0
LINE
8
BLACK
6
CONTINUOUS
10
2.1925
20
1.405
11
2.2275
21
1.405
0
LINE
8
BLACK
6
CONTINUOUS
10
2.2275
20
1.405
11
2.2275
21
1.35
0
LINE
8
BLACK
6
CONTINUOUS
10
0.2825
20
1.355
11
0.2275
21
1.355
0
LINE
8
BLACK
6
CONTINUOUS
10
0.2275
20
1.355
11
0.2275
21
1.39
0
LINE
8
BLACK
6
CONTINUOUS
10
0.2275
20
1.39
11
0.2825
21
1.39
0
LINE
8
BLACK
6
CONTINUOUS
10
0.2825
20
1.39
11
0.2825
21
1.355
0
LINE
8
BLACK
6
CONTINUOUS
10
0.660118
20
1.355
11
0.529016
21
1.355
0
LINE
8
BLACK
6
CONTINUOUS
10
0.529016
20
1.355
11
0.529016
21
1.505
0
LINE
8
BLACK
6
CONTINUOUS
10
0.529016
20
1.505
11
0.660118
21
1.505
0
LINE
8
BLACK
6
CONTINUOUS
10
0.660118
20
1.505
11
0.660118
21
1.355
0
LINE
8
BLACK
6
CONTINUOUS
10
0.430984
20
1.355
11
0.299882
21
1.355
0
LINE
8
BLACK
6
CONTINUOUS
10
0.299882
20
1.355
11
0.299882
21
1.505
0
LINE
8
BLACK
6
CONTINUOUS
10
0.299882
20
1.505
11
0.430984
21
1.505
0
LINE
8
BLACK
6
CONTINUOUS
10
0.430984
20
1.505
11
0.430984
21
1.355
0
LINE
8
BLACK
6
CONTINUOUS
10
1.79289
20
1.42022
11
1.79639
21
1.41756
0
LINE
8
BLACK
6
CONTINUOUS
10
1.79639
20
1.41756
11
1.7987
21
1.41382
0
LINE
8
BLACK
6
CONTINUOUS
10
1.7987
20
1.41382
11
1.7995
21
1.4095
0
LINE
8
BLACK
6
CONTINUOUS
10
1.7995
20
1.4095
11
1.7995
21
1.3755
0
LINE
8
BLACK
6
CONTINUOUS
10
1.7995
20
1.3755
11
1.79927
21
1.37317
0
LINE
8
BLACK
6
CONTINUOUS
10
1.79927
20
1.37317
11
1.79764
21
1.36909
0
LINE
8
BLACK
6
CONTINUOUS
10
1.79764
20
1.36909
11
1.79465
21
1.36587
0
LINE
8
BLACK
6
CONTINUOUS
10
1.79465
20
1.36587
11
1.79071
21
1.36394
0
LINE
8
BLACK
6
CONTINUOUS
10
1.79071
20
1.36394
11
1.78633
21
1.36356
0
LINE
8
BLACK
6
CONTINUOUS
10
1.78633
20
1.36356
11
1.78211
21
1.36478
0
LINE
8
BLACK
6
CONTINUOUS
10
1.78211
20
1.36478
11
1.77861
21
1.36744
0
LINE
8
BLACK
6
CONTINUOUS
10
1.77861
20
1.36744
11
1.7763
21
1.37118
0
LINE
8
BLACK
6
CONTINUOUS
10
1.7763
20
1.37118
11
1.7755
21
1.3755
0
LINE
8
BLACK
6
CONTINUOUS
10
1.7755
20
1.3755
11
1.7755
21
1.4095
0
LINE
8
BLACK
6
CONTINUOUS
10
1.7755
20
1.4095
11
1.77573
21
1.41183
0
LINE
8
BLACK
6
CONTINUOUS
10
1.77573
20
1.41183
11
1.77736
21
1.41591
0
LINE
8
BLACK
6
CONTINUOUS
10
1.77736
20
1.41591
11
1.78035
21
1.41913
0
LINE
8
BLACK
6
CONTINUOUS
10
1.78035
20
1.41913
11
1.78429
21
1.42106
0
LINE
8
BLACK
6
CONTINUOUS
10
1.78429
20
1.42106
11
1.78867
21
1.42144
0
LINE
8
BLACK
6
CONTINUOUS
10
1.78867
20
1.42144
11
1.79289
21
1.42022
0
LINE
8
BLACK
6
CONTINUOUS
10
1.84289
20
1.42022
11
1.84639
21
1.41756
0
LINE
8
BLACK
6
CONTINUOUS
10
1.84639
20
1.41756
11
1.8487
21
1.41382
0
LINE
8
BLACK
6
CONTINUOUS
10
1.8487
20
1.41382
11
1.8495
21
1.4095
0
LINE
8
BLACK
6
CONTINUOUS
10
1.8495
20
1.4095
11
1.8495
21
1.3755
0
LINE
8
BLACK
6
CONTINUOUS
10
1.8495
20
1.3755
11
1.84927
21
1.37317
0
LINE
8
BLACK
6
CONTINUOUS
10
1.84927
20
1.37317
11
1.84764
21
1.36909
0
LINE
8
BLACK
6
CONTINUOUS
10
1.84764
20
1.36909
11
1.84465
21
1.36587
0
LINE
8
BLACK
6
CONTINUOUS
10
1.84465
20
1.36587
11
1.84071
21
1.36394
0
LINE
8
BLACK
6
CONTINUOUS
10
1.84071
20
1.36394
11
1.83633
21
1.36356
0
LINE
8
BLACK
6
CONTINUOUS
10
1.83633
20
1.36356
11
1.83211
21
1.36478
0
LINE
8
BLACK
6
CONTINUOUS
10
1.83211
20
1.36478
11
1.82861
21
1.36744
0
LINE
8
BLACK
6
CONTINUOUS
10
1.82861
20
1.36744
11
1.8263
21
1.37118
0
LINE
8
BLACK
6
CONTINUOUS
10
1.8263
20
1.37118
11
1.8255
21
1.3755
0
LINE
8
BLACK
6
CONTINUOUS
10
1.8255
20
1.3755
11
1.8255
21
1.4095
0
LINE
8
BLACK
6
CONTINUOUS
10
1.8255
20
1.4095
11
1.82573
21
1.41183
0
LINE
8
BLACK
6
CONTINUOUS
10
1.82573
20
1.41183
11
1.82736
21
1.41591
0
LINE
8
BLACK
6
CONTINUOUS
10
1.82736
20
1.41591
11
1.83035
21
1.41913
0
LINE
8
BLACK
6
CONTINUOUS
10
1.83035
20
1.41913
11
1.83429
21
1.42106
0
LINE
8
BLACK
6
CONTINUOUS
10
1.83429
20
1.42106
11
1.83867
21
1.42144
0
LINE
8
BLACK
6
CONTINUOUS
10
1.83867
20
1.42144
11
1.84289
21
1.42022
0
LINE
8
BLACK
6
CONTINUOUS
10
1.89289
20
1.42022
11
1.89639
21
1.41756
0
LINE
8
BLACK
6
CONTINUOUS
10
1.89639
20
1.41756
11
1.8987
21
1.41382
0
LINE
8
BLACK
6
CONTINUOUS
10
1.8987
20
1.41382
11
1.8995
21
1.4095
0
LINE
8
BLACK
6
CONTINUOUS
10
1.8995
20
1.4095
11
1.8995
21
1.3755
0
LINE
8
BLACK
6
CONTINUOUS
10
1.8995
20
1.3755
11
1.89927
21
1.37317
0
LINE
8
BLACK
6
CONTINUOUS
10
1.89927
20
1.37317
11
1.89764
21
1.36909
0
LINE
8
BLACK
6
CONTINUOUS
10
1.89764
20
1.36909
11
1.89465
21
1.36587
0
LINE
8
BLACK
6
CONTINUOUS
10
1.89465
20
1.36587
11
1.89071
21
1.36394
0
LINE
8
BLACK
6
CONTINUOUS
10
1.89071
20
1.36394
11
1.88633
21
1.36356
0
LINE
8
BLACK
6
CONTINUOUS
10
1.88633
20
1.36356
11
1.88211
21
1.36478
0
LINE
8
BLACK
6
CONTINUOUS
10
1.88211
20
1.36478
11
1.87861
21
1.36744
0
LINE
8
BLACK
6
CONTINUOUS
10
1.87861
20
1.36744
11
1.8763
21
1.37118
0
LINE
8
BLACK
6
CONTINUOUS
10
1.8763
20
1.37118
11
1.8755
21
1.3755
0
LINE
8
BLACK
6
CONTINUOUS
10
1.8755
20
1.3755
11
1.8755
21
1.4095
0
LINE
8
BLACK
6
CONTINUOUS
10
1.8755
20
1.4095
11
1.87573
21
1.41183
0
LINE
8
BLACK
6
CONTINUOUS
10
1.87573
20
1.41183
11
1.87736
21
1.41591
0
LINE
8
BLACK
6
CONTINUOUS
10
1.87736
20
1.41591
11
1.88035
21
1.41913
0
LINE
8
BLACK
6
CONTINUOUS
10
1.88035
20
1.41913
11
1.88429
21
1.42106
0
LINE
8
BLACK
6
CONTINUOUS
10
1.88429
20
1.42106
11
1.88867
21
1.42144
0
LINE
8
BLACK
6
CONTINUOUS
10
1.88867
20
1.42144
11
1.89289
21
1.42022
0
LINE
8
BLACK
6
CONTINUOUS
10
1.94289
20
1.42022
11
1.94639
21
1.41756
0
LINE
8
BLACK
6
CONTINUOUS
10
1.94639
20
1.41756
11
1.9487
21
1.41382
0
LINE
8
BLACK
6
CONTINUOUS
10
1.9487
20
1.41382
11
1.9495
21
1.4095
0
LINE
8
BLACK
6
CONTINUOUS
10
1.9495
20
1.4095
11
1.9495
21
1.3755
0
LINE
8
BLACK
6
CONTINUOUS
10
1.9495
20
1.3755
11
1.94927
21
1.37317
0
LINE
8
BLACK
6
CONTINUOUS
10
1.94927
20
1.37317
11
1.94764
21
1.36909
0
LINE
8
BLACK
6
CONTINUOUS
10
1.94764
20
1.36909
11
1.94465
21
1.36587
0
LINE
8
BLACK
6
CONTINUOUS
10
1.94465
20
1.36587
11
1.94071
21
1.36394
0
LINE
8
BLACK
6
CONTINUOUS
10
1.94071
20
1.36394
11
1.93633
21
1.36356
0
LINE
8
BLACK
6
CONTINUOUS
10
1.93633
20
1.36356
11
1.93211
21
1.36478
0
LINE
8
BLACK
6
CONTINUOUS
10
1.93211
20
1.36478
11
1.92861
21
1.36744
0
LINE
8
BLACK
6
CONTINUOUS
10
1.92861
20
1.36744
11
1.9263
21
1.37118
0
LINE
8
BLACK
6
CONTINUOUS
10
1.9263
20
1.37118
11
1.9255
21
1.3755
0
LINE
8
BLACK
6
CONTINUOUS
10
1.9255
20
1.3755
11
1.9255
21
1.4095
0
LINE
8
BLACK
6
CONTINUOUS
10
1.9255
20
1.4095
11
1.92573
21
1.41183
0
LINE
8
BLACK
6
CONTINUOUS
10
1.92573
20
1.41183
11
1.92736
21
1.41591
0
LINE
8
BLACK
6
CONTINUOUS
10
1.92736
20
1.41591
11
1.93035
21
1.41913
0
LINE
8
BLACK
6
CONTINUOUS
10
1.93035
20
1.41913
11
1.93429
21
1.42106
0
LINE
8
BLACK
6
CONTINUOUS
10
1.93429
20
1.42106
11
1.93867
21
1.42144
0
LINE
8
BLACK
6
CONTINUOUS
10
1.93867
20
1.42144
11
1.94289
21
1.42022
0
LINE
8
BLACK
6
CONTINUOUS
10
2.0475
20
1.3675
11
1.9925
21
1.3675
0
LINE
8
BLACK
6
CONTINUOUS
10
1.9925
20
1.3675
11
1.9925
21
1.4025
0
LINE
8
BLACK
6
CONTINUOUS
10
1.9925
20
1.4025
11
2.0475
21
1.4025
0
LINE
8
BLACK
6
CONTINUOUS
10
2.0475
20
1.4025
11
2.0475
21
1.3675
0
LINE
8
BLACK
6
CONTINUOUS
10
0.76545
20
1.3721
11
0.69455
21
1.3721
0
LINE
8
BLACK
6
CONTINUOUS
10
0.69455
20
1.3721
11
0.69455
21
1.4705
0
LINE
8
BLACK
6
CONTINUOUS
10
0.69455
20
1.4705
11
0.76545
21
1.4705
0
LINE
8
BLACK
6
CONTINUOUS
10
0.76545
20
1.4705
11
0.76545
21
1.3721
0
LINE
8
BLACK
6
CONTINUOUS
10
2.28
20
1.425
11
2.245
21
1.425
0
LINE
8
BLACK
6
CONTINUOUS
10
2.245
20
1.425
11
2.245
21
1.48
0
LINE
8
BLACK
6
CONTINUOUS
10
2.245
20
1.48
11
2.28
21
1.48
0
LINE
8
BLACK
6
CONTINUOUS
10
2.28
20
1.48
11
2.28
21
1.425
0
LINE
8
BLACK
6
CONTINUOUS
10
2.205
20
1.425
11
2.17
21
1.425
0
LINE
8
BLACK
6
CONTINUOUS
10
2.17
20
1.425
11
2.17
21
1.48
0
LINE
8
BLACK
6
CONTINUOUS
10
2.17
20
1.48
11
2.205
21
1.48
0
LINE
8
BLACK
6
CONTINUOUS
10
2.205
20
1.48
11
2.205
21
1.425
0
LINE
8
BLACK
6
CONTINUOUS
10
2.0475
20
1.4425
11
1.9925
21
1.4425
0
LINE
8
BLACK
6
CONTINUOUS
10
1.9925
20
1.4425
11
1.9925
21
1.4775
0
LINE
8
BLACK
6
CONTINUOUS
10
1.9925
20
1.4775
11
2.0475
21
1.4775
0
LINE
8
BLACK
6
CONTINUOUS
10
2.0475
20
1.4775
11
2.0475
21
1.4425
0
LINE
8
BLACK
6
CONTINUOUS
10
1.8775
20
1.445
11
1.8225
21
1.445
0
LINE
8
BLACK
6
CONTINUOUS
10
1.8225
20
1.445
11
1.8225
21
1.48
0
LINE
8
BLACK
6
CONTINUOUS
10
1.8225
20
1.48
11
1.8775
21
1.48
0
LINE
8
BLACK
6
CONTINUOUS
10
1.8775
20
1.48
11
1.8775
21
1.445
0
LINE
8
BLACK
6
CONTINUOUS
10
1.51799
20
1.45736
11
1.39201
21
1.45736
0
LINE
8
BLACK
6
CONTINUOUS
10
1.39201
20
1.45736
11
1.39201
21
1.49673
0
LINE
8
BLACK
6
CONTINUOUS
10
1.39201
20
1.49673
11
1.51799
21
1.49673
0
LINE
8
BLACK
6
CONTINUOUS
10
1.51799
20
1.49673
11
1.51799
21
1.45736
0
LINE
8
BLACK
6
CONTINUOUS
10
1.19327
20
1.4728
11
0.976732
21
1.4728
0
LINE
8
BLACK
6
CONTINUOUS
10
0.976732
20
1.4728
11
0.976732
21
1.59091
0
LINE
8
BLACK
6
CONTINUOUS
10
0.976732
20
1.59091
11
1.19327
21
1.59091
0
LINE
8
BLACK
6
CONTINUOUS
10
1.19327
20
1.59091
11
1.19327
21
1.4728
0
LINE
8
BLACK
6
CONTINUOUS
10
2.0417
20
1.5129
11
1.9433
21
1.5129
0
LINE
8
BLACK
6
CONTINUOUS
10
1.9433
20
1.5129
11
1.9433
21
1.6133
0
LINE
8
BLACK
6
CONTINUOUS
10
1.9433
20
1.6133
11
2.0417
21
1.6133
0
LINE
8
BLACK
6
CONTINUOUS
10
2.0417
20
1.6133
11
2.0417
21
1.5129
0
LINE
8
BLACK
6
CONTINUOUS
10
1.8775
20
1.52
11
1.8225
21
1.52
0
LINE
8
BLACK
6
CONTINUOUS
10
1.8225
20
1.52
11
1.8225
21
1.555
0
LINE
8
BLACK
6
CONTINUOUS
10
1.8225
20
1.555
11
1.8775
21
1.555
0
LINE
8
BLACK
6
CONTINUOUS
10
1.8775
20
1.555
11
1.8775
21
1.52
0
LINE
8
BLACK
6
CONTINUOUS
10
0.76545
20
1.5295
11
0.69455
21
1.5295
0
LINE
8
BLACK
6
CONTINUOUS
10
0.69455
20
1.5295
11
0.69455
21
1.6279
0
LINE
8
BLACK
6
CONTINUOUS
10
0.69455
20
1.6279
11
0.76545
21
1.6279
0
LINE
8
BLACK
6
CONTINUOUS
10
0.76545
20
1.6279
11
0.76545
21
1.5295
0
LINE
8
BLACK
6
CONTINUOUS
10
1.52098
20
1.585
11
1.38988
21
1.585
0
LINE
8
BLACK
6
CONTINUOUS
10
1.38988
20
1.585
11
1.38988
21
1.735
0
LINE
8
BLACK
6
CONTINUOUS
10
1.38988
20
1.735
11
1.52098
21
1.735
0
LINE
8
BLACK
6
CONTINUOUS
10
1.52098
20
1.735
11
1.52098
21
1.585
0
LINE
8
BLACK
6
CONTINUOUS
10
1.75012
20
1.585
11
1.61902
21
1.585
0
LINE
8
BLACK
6
CONTINUOUS
10
1.61902
20
1.585
11
1.61902
21
1.735
0
LINE
8
BLACK
6
CONTINUOUS
10
1.61902
20
1.735
11
1.75012
21
1.735
0
LINE
8
BLACK
6
CONTINUOUS
10
1.75012
20
1.735
11
1.75012
21
1.585
0
LINE
8
BLACK
6
CONTINUOUS
10
1.04098
20
1.61567
11
1.02996
21
1.61567
0
LINE
8
BLACK
6
CONTINUOUS
10
1.02996
20
1.61567
11
1.02996
21
1.64913
0
LINE
8
BLACK
6
CONTINUOUS
10
1.02996
20
1.64913
11
1.04098
21
1.64913
0
LINE
8
BLACK
6
CONTINUOUS
10
1.04098
20
1.64913
11
1.04098
21
1.61567
0
LINE
8
BLACK
6
CONTINUOUS
10
1.10004
20
1.61567
11
1.08902
21
1.61567
0
LINE
8
BLACK
6
CONTINUOUS
10
1.08902
20
1.61567
11
1.08902
21
1.64913
0
LINE
8
BLACK
6
CONTINUOUS
10
1.08902
20
1.64913
11
1.10004
21
1.64913
0
LINE
8
BLACK
6
CONTINUOUS
10
1.10004
20
1.64913
11
1.10004
21
1.61567
0
LINE
8
BLACK
6
CONTINUOUS
10
1.0587
20
1.79776
11
1.0713
21
1.79776
0
LINE
8
BLACK
6
CONTINUOUS
10
1.0713
20
1.79776
11
1.0713
21
1.82384
0
LINE
8
BLACK
6
CONTINUOUS
10
1.0713
20
1.82384
11
1.08232
21
1.82384
0
LINE
8
BLACK
6
CONTINUOUS
10
1.08232
20
1.82384
11
1.08232
21
1.78004
0
LINE
8
BLACK
6
CONTINUOUS
10
1.08232
20
1.78004
11
1.10535
21
1.78004
0
LINE
8
BLACK
6
CONTINUOUS
10
1.10535
20
1.78004
11
1.10535
21
1.65996
0
LINE
8
BLACK
6
CONTINUOUS
10
1.10535
20
1.65996
11
1.08232
21
1.65996
0
LINE
8
BLACK
6
CONTINUOUS
10
1.08232
20
1.65996
11
1.08232
21
1.61616
0
LINE
8
BLACK
6
CONTINUOUS
10
1.08232
20
1.61616
11
1.0713
21
1.61616
0
LINE
8
BLACK
6
CONTINUOUS
10
1.0713
20
1.61616
11
1.0713
21
1.64224
0
LINE
8
BLACK
6
CONTINUOUS
10
1.0713
20
1.64224
11
1.0587
21
1.64224
0
LINE
8
BLACK
6
CONTINUOUS
10
1.0587
20
1.64224
11
1.0587
21
1.61616
0
LINE
8
BLACK
6
CONTINUOUS
10
1.0587
20
1.61616
11
1.04768
21
1.61616
0
LINE
8
BLACK
6
CONTINUOUS
10
1.04768
20
1.61616
11
1.04768
21
1.65996
0
LINE
8
BLACK
6
CONTINUOUS
10
1.04768
20
1.65996
11
1.02465
21
1.65996
0
LINE
8
BLACK
6
CONTINUOUS
10
1.02465
20
1.65996
11
1.02465
21
1.78004
0
LINE
8
BLACK
6
CONTINUOUS
10
1.02465
20
1.78004
11
1.04768
21
1.78004
0
LINE
8
BLACK
6
CONTINUOUS
10
1.04768
20
1.78004
11
1.04768
21
1.82384
0
LINE
8
BLACK
6
CONTINUOUS
10
1.04768
20
1.82384
11
1.0587
21
1.82384
0
LINE
8
BLACK
6
CONTINUOUS
10
1.0587
20
1.82384
11
1.0587
21
1.79776
0
LINE
8
BLACK
6
CONTINUOUS
10
0.8885
20
1.645
11
0.8335
21
1.645
0
LINE
8
BLACK
6
CONTINUOUS
10
0.8335
20
1.645
11
0.8335
21
1.68
0
LINE
8
BLACK
6
CONTINUOUS
10
0.8335
20
1.68
11
0.8885
21
1.68
0
LINE
8
BLACK
6
CONTINUOUS
10
0.8885
20
1.68
11
0.8885
21
1.645
0
LINE
8
BLACK
6
CONTINUOUS
10
0.8225
20
1.645
11
0.7675
21
1.645
0
LINE
8
BLACK
6
CONTINUOUS
10
0.7675
20
1.645
11
0.7675
21
1.68
0
LINE
8
BLACK
6
CONTINUOUS
10
0.7675
20
1.68
11
0.8225
21
1.68
0
LINE
8
BLACK
6
CONTINUOUS
10
0.8225
20
1.68
11
0.8225
21
1.645
0
LINE
8
BLACK
6
CONTINUOUS
10
1.01382
20
1.64559
11
0.980354
21
1.64559
0
LINE
8
BLACK
6
CONTINUOUS
10
0.980354
20
1.64559
11
0.980354
21
1.65661
0
LINE
8
BLACK
6
CONTINUOUS
10
0.980354
20
1.65661
11
1.01382
21
1.65661
0
LINE
8
BLACK
6
CONTINUOUS
10
1.01382
20
1.65661
11
1.01382
21
1.64559
0
LINE
8
BLACK
6
CONTINUOUS
10
1.14965
20
1.64559
11
1.11618
21
1.64559
0
LINE
8
BLACK
6
CONTINUOUS
10
1.11618
20
1.64559
11
1.11618
21
1.65661
0
LINE
8
BLACK
6
CONTINUOUS
10
1.11618
20
1.65661
11
1.14965
21
1.65661
0
LINE
8
BLACK
6
CONTINUOUS
10
1.14965
20
1.65661
11
1.14965
21
1.64559
0
LINE
8
BLACK
6
CONTINUOUS
10
1.01382
20
1.66528
11
0.980354
21
1.66528
0
LINE
8
BLACK
6
CONTINUOUS
10
0.980354
20
1.66528
11
0.980354
21
1.6763
0
LINE
8
BLACK
6
CONTINUOUS
10
0.980354
20
1.6763
11
1.01382
21
1.6763
0
LINE
8
BLACK
6
CONTINUOUS
10
1.01382
20
1.6763
11
1.01382
21
1.66528
0
LINE
8
BLACK
6
CONTINUOUS
10
1.14965
20
1.66528
11
1.11618
21
1.66528
0
LINE
8
BLACK
6
CONTINUOUS
10
1.11618
20
1.66528
11
1.11618
21
1.6763
0
LINE
8
BLACK
6
CONTINUOUS
10
1.11618
20
1.6763
11
1.14965
21
1.6763
0
LINE
8
BLACK
6
CONTINUOUS
10
1.14965
20
1.6763
11
1.14965
21
1.66528
0
LINE
8
BLACK
6
CONTINUOUS
10
0.7292
20
1.671
11
0.6308
21
1.671
0
LINE
8
BLACK
6
CONTINUOUS
10
0.6308
20
1.671
11
0.6308
21
1.7714
0
LINE
8
BLACK
6
CONTINUOUS
10
0.6308
20
1.7714
11
0.7292
21
1.7714
0
LINE
8
BLACK
6
CONTINUOUS
10
0.7292
20
1.7714
11
0.7292
21
1.671
0
LINE
8
BLACK
6
CONTINUOUS
10
1.14965
20
1.68496
11
1.11618
21
1.68496
0
LINE
8
BLACK
6
CONTINUOUS
10
1.11618
20
1.68496
11
1.11618
21
1.69598
0
LINE
8
BLACK
6
CONTINUOUS
10
1.11618
20
1.69598
11
1.14965
21
1.69598
0
LINE
8
BLACK
6
CONTINUOUS
10
1.14965
20
1.69598
11
1.14965
21
1.68496
0
LINE
8
BLACK
6
CONTINUOUS
10
1.01382
20
1.68496
11
0.980354
21
1.68496
0
LINE
8
BLACK
6
CONTINUOUS
10
0.980354
20
1.68496
11
0.980354
21
1.69598
0
LINE
8
BLACK
6
CONTINUOUS
10
0.980354
20
1.69598
11
1.01382
21
1.69598
0
LINE
8
BLACK
6
CONTINUOUS
10
1.01382
20
1.69598
11
1.01382
21
1.68496
0
LINE
8
BLACK
6
CONTINUOUS
10
1.14965
20
1.70465
11
1.11618
21
1.70465
0
LINE
8
BLACK
6
CONTINUOUS
10
1.11618
20
1.70465
11
1.11618
21
1.71567
0
LINE
8
BLACK
6
CONTINUOUS
10
1.11618
20
1.71567
11
1.14965
21
1.71567
0
LINE
8
BLACK
6
CONTINUOUS
10
1.14965
20
1.71567
11
1.14965
21
1.70465
0
LINE
8
BLACK
6
CONTINUOUS
10
1.01382
20
1.70465
11
0.980354
21
1.70465
0
LINE
8
BLACK
6
CONTINUOUS
10
0.980354
20
1.70465
11
0.980354
21
1.71567
0
LINE
8
BLACK
6
CONTINUOUS
10
0.980354
20
1.71567
11
1.01382
21
1.71567
0
LINE
8
BLACK
6
CONTINUOUS
10
1.01382
20
1.71567
11
1.01382
21
1.70465
0
LINE
8
BLACK
6
CONTINUOUS
10
2.0417
20
1.7117
11
1.9433
21
1.7117
0
LINE
8
BLACK
6
CONTINUOUS
10
1.9433
20
1.7117
11
1.9433
21
1.8121
0
LINE
8
BLACK
6
CONTINUOUS
10
1.9433
20
1.8121
11
2.0417
21
1.8121
0
LINE
8
BLACK
6
CONTINUOUS
10
2.0417
20
1.8121
11
2.0417
21
1.7117
0
LINE
8
BLACK
6
CONTINUOUS
10
0.8225
20
1.72
11
0.7675
21
1.72
0
LINE
8
BLACK
6
CONTINUOUS
10
0.7675
20
1.72
11
0.7675
21
1.755
0
LINE
8
BLACK
6
CONTINUOUS
10
0.7675
20
1.755
11
0.8225
21
1.755
0
LINE
8
BLACK
6
CONTINUOUS
10
0.8225
20
1.755
11
0.8225
21
1.72
0
LINE
8
BLACK
6
CONTINUOUS
10
0.8885
20
1.72
11
0.8335
21
1.72
0
LINE
8
BLACK
6
CONTINUOUS
10
0.8335
20
1.72
11
0.8335
21
1.755
0
LINE
8
BLACK
6
CONTINUOUS
10
0.8335
20
1.755
11
0.8885
21
1.755
0
LINE
8
BLACK
6
CONTINUOUS
10
0.8885
20
1.755
11
0.8885
21
1.72
0
LINE
8
BLACK
6
CONTINUOUS
10
1.01382
20
1.72433
11
0.980354
21
1.72433
0
LINE
8
BLACK
6
CONTINUOUS
10
0.980354
20
1.72433
11
0.980354
21
1.73535
0
LINE
8
BLACK
6
CONTINUOUS
10
0.980354
20
1.73535
11
1.01382
21
1.73535
0
LINE
8
BLACK
6
CONTINUOUS
10
1.01382
20
1.73535
11
1.01382
21
1.72433
0
LINE
8
BLACK
6
CONTINUOUS
10
1.14965
20
1.72433
11
1.11618
21
1.72433
0
LINE
8
BLACK
6
CONTINUOUS
10
1.11618
20
1.72433
11
1.11618
21
1.73535
0
LINE
8
BLACK
6
CONTINUOUS
10
1.11618
20
1.73535
11
1.14965
21
1.73535
0
LINE
8
BLACK
6
CONTINUOUS
10
1.14965
20
1.73535
11
1.14965
21
1.72433
0
LINE
8
BLACK
6
CONTINUOUS
10
1.14965
20
1.74402
11
1.11618
21
1.74402
0
LINE
8
BLACK
6
CONTINUOUS
10
1.11618
20
1.74402
11
1.11618
21
1.75504
0
LINE
8
BLACK
6
CONTINUOUS
10
1.11618
20
1.75504
11
1.14965
21
1.75504
0
LINE
8
BLACK
6
CONTINUOUS
10
1.14965
20
1.75504
11
1.14965
21
1.74402
0
LINE
8
BLACK
6
CONTINUOUS
10
1.01382
20
1.74402
11
0.980354
21
1.74402
0
LINE
8
BLACK
6
CONTINUOUS
10
0.980354
20
1.74402
11
0.980354
21
1.75504
0
LINE
8
BLACK
6
CONTINUOUS
10
0.980354
20
1.75504
11
1.01382
21
1.75504
0
LINE
8
BLACK
6
CONTINUOUS
10
1.01382
20
1.75504
11
1.01382
21
1.74402
0
LINE
8
BLACK
6
CONTINUOUS
10
1.14965
20
1.7637
11
1.11618
21
1.7637
0
LINE
8
BLACK
6
CONTINUOUS
10
1.11618
20
1.7637
11
1.11618
21
1.77472
0
LINE
8
BLACK
6
CONTINUOUS
10
1.11618
20
1.77472
11
1.14965
21
1.77472
0
LINE
8
BLACK
6
CONTINUOUS
10
1.14965
20
1.77472
11
1.14965
21
1.7637
0
LINE
8
BLACK
6
CONTINUOUS
10
1.01382
20
1.7637
11
0.980354
21
1.7637
0
LINE
8
BLACK
6
CONTINUOUS
10
0.980354
20
1.7637
11
0.980354
21
1.77472
0
LINE
8
BLACK
6
CONTINUOUS
10
0.980354
20
1.77472
11
1.01382
21
1.77472
0
LINE
8
BLACK
6
CONTINUOUS
10
1.01382
20
1.77472
11
1.01382
21
1.7637
0
LINE
8
BLACK
6
CONTINUOUS
10
1.31
20
1.7675
11
1.275
21
1.7675
0
LINE
8
BLACK
6
CONTINUOUS
10
1.275
20
1.7675
11
1.275
21
1.8225
0
LINE
8
BLACK
6
CONTINUOUS
10
1.275
20
1.8225
11
1.31
21
1.8225
0
LINE
8
BLACK
6
CONTINUOUS
10
1.31
20
1.8225
11
1.31
21
1.7675
0
LINE
8
BLACK
6
CONTINUOUS
10
1.385
20
1.7675
11
1.35
21
1.7675
0
LINE
8
BLACK
6
CONTINUOUS
10
1.35
20
1.7675
11
1.35
21
1.8225
0
LINE
8
BLACK
6
CONTINUOUS
10
1.35
20
1.8225
11
1.385
21
1.8225
0
LINE
8
BLACK
6
CONTINUOUS
10
1.385
20
1.8225
11
1.385
21
1.7675
0
LINE
8
BLACK
6
CONTINUOUS
10
1.01382
20
1.78339
11
0.980354
21
1.78339
0
LINE
8
BLACK
6
CONTINUOUS
10
0.980354
20
1.78339
11
0.980354
21
1.79441
0
LINE
8
BLACK
6
CONTINUOUS
10
0.980354
20
1.79441
11
1.01382
21
1.79441
0
LINE
8
BLACK
6
CONTINUOUS
10
1.01382
20
1.79441
11
1.01382
21
1.78339
0
LINE
8
BLACK
6
CONTINUOUS
10
1.14965
20
1.78339
11
1.11618
21
1.78339
0
LINE
8
BLACK
6
CONTINUOUS
10
1.11618
20
1.78339
11
1.11618
21
1.79441
0
LINE
8
BLACK
6
CONTINUOUS
10
1.11618
20
1.79441
11
1.14965
21
1.79441
0
LINE
8
BLACK
6
CONTINUOUS
10
1.14965
20
1.79441
11
1.14965
21
1.78339
0
LINE
8
BLACK
6
CONTINUOUS
10
1.04098
20
1.79087
11
1.02996
21
1.79087
0
LINE
8
BLACK
6
CONTINUOUS
10
1.02996
20
1.79087
11
1.02996
21
1.82433
0
LINE
8
BLACK
6
CONTINUOUS
10
1.02996
20
1.82433
11
1.04098
21
1.82433
0
LINE
8
BLACK
6
CONTINUOUS
10
1.04098
20
1.82433
11
1.04098
21
1.79087
0
LINE
8
BLACK
6
CONTINUOUS
10
1.10004
20
1.79087
11
1.08902
21
1.79087
0
LINE
8
BLACK
6
CONTINUOUS
10
1.08902
20
1.79087
11
1.08902
21
1.82433
0
LINE
8
BLACK
6
CONTINUOUS
10
1.08902
20
1.82433
11
1.10004
21
1.82433
0
LINE
8
BLACK
6
CONTINUOUS
10
1.10004
20
1.82433
11
1.10004
21
1.79087
0
LINE
8
BLACK
6
CONTINUOUS
10
1.3175
20
1.85
11
1.2625
21
1.85
0
LINE
8
BLACK
6
CONTINUOUS
10
1.2625
20
1.85
11
1.2625
21
1.885
0
LINE
8
BLACK
6
CONTINUOUS
10
1.2625
20
1.885
11
1.3175
21
1.885
0
LINE
8
BLACK
6
CONTINUOUS
10
1.3175
20
1.885
11
1.3175
21
1.85
0
LINE
8
BLACK
6
CONTINUOUS
10
1.2125
20
1.85
11
1.1575
21
1.85
0
LINE
8
BLACK
6
CONTINUOUS
10
1.1575
20
1.85
11
1.1575
21
1.885
0
LINE
8
BLACK
6
CONTINUOUS
10
1.1575
20
1.885
11
1.2125
21
1.885
0
LINE
8
BLACK
6
CONTINUOUS
10
1.2125
20
1.885
11
1.2125
21
1.85
0
LINE
8
BLACK
6
CONTINUOUS
10
0.7292
20
1.8698
11
0.6308
21
1.8698
0
LINE
8
BLACK
6
CONTINUOUS
10
0.6308
20
1.8698
11
0.6308
21
1.9702
0
LINE
8
BLACK
6
CONTINUOUS
10
0.6308
20
1.9702
11
0.7292
21
1.9702
0
LINE
8
BLACK
6
CONTINUOUS
10
0.7292
20
1.9702
11
0.7292
21
1.8698
0
LINE
8
BLACK
6
CONTINUOUS
10
0.8825
20
1.88
11
0.8275
21
1.88
0
LINE
8
BLACK
6
CONTINUOUS
10
0.8275
20
1.88
11
0.8275
21
1.915
0
LINE
8
BLACK
6
CONTINUOUS
10
0.8275
20
1.915
11
0.8825
21
1.915
0
LINE
8
BLACK
6
CONTINUOUS
10
0.8825
20
1.915
11
0.8825
21
1.88
0
LINE
8
BLACK
6
CONTINUOUS
10
0.9675
20
1.88
11
0.9125
21
1.88
0
LINE
8
BLACK
6
CONTINUOUS
10
0.9125
20
1.88
11
0.9125
21
1.915
0
LINE
8
BLACK
6
CONTINUOUS
10
0.9125
20
1.915
11
0.9675
21
1.915
0
LINE
8
BLACK
6
CONTINUOUS
10
0.9675
20
1.915
11
0.9675
21
1.88
0
LINE
8
BLACK
6
CONTINUOUS
10
1.0475
20
1.88
11
0.9925
21
1.88
0
LINE
8
BLACK
6
CONTINUOUS
10
0.9925
20
1.88
11
0.9925
21
1.915
0
LINE
8
BLACK
6
CONTINUOUS
10
0.9925
20
1.915
11
1.0475
21
1.915
0
LINE
8
BLACK
6
CONTINUOUS
10
1.0475
20
1.915
11
1.0475
21
1.88
0
LINE
8
BLACK
6
CONTINUOUS
10
0.5892
20
1.90455
11
0.4908
21
1.90455
0
LINE
8
BLACK
6
CONTINUOUS
10
0.4908
20
1.90455
11
0.4908
21
1.97545
0
LINE
8
BLACK
6
CONTINUOUS
10
0.4908
20
1.97545
11
0.5892
21
1.97545
0
LINE
8
BLACK
6
CONTINUOUS
10
0.5892
20
1.97545
11
0.5892
21
1.90455
0
LINE
8
BLACK
6
CONTINUOUS
10
0.4318
20
1.90455
11
0.3334
21
1.90455
0
LINE
8
BLACK
6
CONTINUOUS
10
0.3334
20
1.90455
11
0.3334
21
1.97545
0
LINE
8
BLACK
6
CONTINUOUS
10
0.3334
20
1.97545
11
0.4318
21
1.97545
0
LINE
8
BLACK
6
CONTINUOUS
10
0.4318
20
1.97545
11
0.4318
21
1.90455
0
LINE
8
BLACK
6
CONTINUOUS
10
1.3175
20
1.925
11
1.2625
21
1.925
0
LINE
8
BLACK
6
CONTINUOUS
10
1.2625
20
1.925
11
1.2625
21
1.96
0
LINE
8
BLACK
6
CONTINUOUS
10
1.2625
20
1.96
11
1.3175
21
1.96
0
LINE
8
BLACK
6
CONTINUOUS
10
1.3175
20
1.96
11
1.3175
21
1.925
0
LINE
8
BLACK
6
CONTINUOUS
10
1.2125
20
1.925
11
1.1575
21
1.925
0
LINE
8
BLACK
6
CONTINUOUS
10
1.1575
20
1.925
11
1.1575
21
1.96
0
LINE
8
BLACK
6
CONTINUOUS
10
1.1575
20
1.96
11
1.2125
21
1.96
0
LINE
8
BLACK
6
CONTINUOUS
10
1.2125
20
1.96
11
1.2125
21
1.925
0
LINE
8
BLACK
6
CONTINUOUS
10
1.4075
20
1.9275
11
1.3525
21
1.9275
0
LINE
8
BLACK
6
CONTINUOUS
10
1.3525
20
1.9275
11
1.3525
21
1.9625
0
LINE
8
BLACK
6
CONTINUOUS
10
1.3525
20
1.9625
11
1.4075
21
1.9625
0
LINE
8
BLACK
6
CONTINUOUS
10
1.4075
20
1.9625
11
1.4075
21
1.9275
0
LINE
8
BLACK
6
CONTINUOUS
10
1.8575
20
1.935
11
1.8025
21
1.935
0
LINE
8
BLACK
6
CONTINUOUS
10
1.8025
20
1.935
11
1.8025
21
1.97
0
LINE
8
BLACK
6
CONTINUOUS
10
1.8025
20
1.97
11
1.8575
21
1.97
0
LINE
8
BLACK
6
CONTINUOUS
10
1.8575
20
1.97
11
1.8575
21
1.935
0
LINE
8
BLACK
6
CONTINUOUS
10
0.9675
20
1.955
11
0.9125
21
1.955
0
LINE
8
BLACK
6
CONTINUOUS
10
0.9125
20
1.955
11
0.9125
21
1.99
0
LINE
8
BLACK
6
CONTINUOUS
10
0.9125
20
1.99
11
0.9675
21
1.99
0
LINE
8
BLACK
6
CONTINUOUS
10
0.9675
20
1.99
11
0.9675
21
1.955
0
LINE
8
BLACK
6
CONTINUOUS
10
1.0475
20
1.955
11
0.9925
21
1.955
0
LINE
8
BLACK
6
CONTINUOUS
10
0.9925
20
1.955
11
0.9925
21
1.99
0
LINE
8
BLACK
6
CONTINUOUS
10
0.9925
20
1.99
11
1.0475
21
1.99
0
LINE
8
BLACK
6
CONTINUOUS
10
1.0475
20
1.99
11
1.0475
21
1.955
0
LINE
8
BLACK
6
CONTINUOUS
10
0.8825
20
1.955
11
0.8275
21
1.955
0
LINE
8
BLACK
6
CONTINUOUS
10
0.8275
20
1.955
11
0.8275
21
1.99
0
LINE
8
BLACK
6
CONTINUOUS
10
0.8275
20
1.99
11
0.8825
21
1.99
0
LINE
8
BLACK
6
CONTINUOUS
10
0.8825
20
1.99
11
0.8825
21
1.955
0
LINE
8
BLACK
6
CONTINUOUS
10
1.4075
20
2.0025
11
1.3525
21
2.0025
0
LINE
8
BLACK
6
CONTINUOUS
10
1.3525
20
2.0025
11
1.3525
21
2.0375
0
LINE
8
BLACK
6
CONTINUOUS
10
1.3525
20
2.0375
11
1.4075
21
2.0375
0
LINE
8
BLACK
6
CONTINUOUS
10
1.4075
20
2.0375
11
1.4075
21
2.0025
0
LINE
8
BLACK
6
CONTINUOUS
10
1.3025
20
2.01
11
1.2475
21
2.01
0
LINE
8
BLACK
6
CONTINUOUS
10
1.2475
20
2.01
11
1.2475
21
2.045
0
LINE
8
BLACK
6
CONTINUOUS
10
1.2475
20
2.045
11
1.3025
21
2.045
0
LINE
8
BLACK
6
CONTINUOUS
10
1.3025
20
2.045
11
1.3025
21
2.01
0
LINE
8
BLACK
6
CONTINUOUS
10
1.8575
20
2.01
11
1.8025
21
2.01
0
LINE
8
BLACK
6
CONTINUOUS
10
1.8025
20
2.01
11
1.8025
21
2.045
0
LINE
8
BLACK
6
CONTINUOUS
10
1.8025
20
2.045
11
1.8575
21
2.045
0
LINE
8
BLACK
6
CONTINUOUS
10
1.8575
20
2.045
11
1.8575
21
2.01
0
LINE
8
BLACK
6
CONTINUOUS
10
1.1075
20
2.01
11
1.0525
21
2.01
0
LINE
8
BLACK
6
CONTINUOUS
10
1.0525
20
2.01
11
1.0525
21
2.045
0
LINE
8
BLACK
6
CONTINUOUS
10
1.0525
20
2.045
11
1.1075
21
2.045
0
LINE
8
BLACK
6
CONTINUOUS
10
1.1075
20
2.045
11
1.1075
21
2.01
0
LINE
8
BLACK
6
CONTINUOUS
10
0.9125
20
2.015
11
0.8575
21
2.015
0
LINE
8
BLACK
6
CONTINUOUS
10
0.8575
20
2.015
11
0.8575
21
2.05
0
LINE
8
BLACK
6
CONTINUOUS
10
0.8575
20
2.05
11
0.9125
21
2.05
0
LINE
8
BLACK
6
CONTINUOUS
10
0.9125
20
2.05
11
0.9125
21
2.015
0
LINE
8
BLACK
6
CONTINUOUS
10
1.3025
20
2.085
11
1.2475
21
2.085
0
LINE
8
BLACK
6
CONTINUOUS
10
1.2475
20
2.085
11
1.2475
21
2.12
0
LINE
8
BLACK
6
CONTINUOUS
10
1.2475
20
2.12
11
1.3025
21
2.12
0
LINE
8
BLACK
6
CONTINUOUS
10
1.3025
20
2.12
11
1.3025
21
2.085
0
LINE
8
BLACK
6
CONTINUOUS
10
1.1075
20
2.085
11
1.0525
21
2.085
0
LINE
8
BLACK
6
CONTINUOUS
10
1.0525
20
2.085
11
1.0525
21
2.12
0
LINE
8
BLACK
6
CONTINUOUS
10
1.0525
20
2.12
11
1.1075
21
2.12
0
LINE
8
BLACK
6
CONTINUOUS
10
1.1075
20
2.12
11
1.1075
21
2.085
0
LINE
8
BLACK
6
CONTINUOUS
10
0.9125
20
2.09
11
0.8575
21
2.09
0
LINE
8
BLACK
6
CONTINUOUS
10
0.8575
20
2.09
11
0.8575
21
2.125
0
LINE
8
BLACK
6
CONTINUOUS
10
0.8575
20
2.125
11
0.9125
21
2.125
0
LINE
8
BLACK
6
CONTINUOUS
10
0.9125
20
2.125
11
0.9125
21
2.09
0
LINE
8
BLACK
6
CONTINUOUS
10
1.20453
20
2.10059
11
1.14547
21
2.10059
0
LINE
8
BLACK
6
CONTINUOUS
10
1.14547
20
2.10059
11
1.14547
21
2.14193
0
LINE
8
BLACK
6
CONTINUOUS
10
1.14547
20
2.14193
11
1.20453
21
2.14193
0
LINE
8
BLACK
6
CONTINUOUS
10
1.20453
20
2.14193
11
1.20453
21
2.10059
0
LINE
8
BLACK
6
CONTINUOUS
10
1.40453
20
2.10059
11
1.34547
21
2.10059
0
LINE
8
BLACK
6
CONTINUOUS
10
1.34547
20
2.10059
11
1.34547
21
2.14193
0
LINE
8
BLACK
6
CONTINUOUS
10
1.34547
20
2.14193
11
1.40453
21
2.14193
0
LINE
8
BLACK
6
CONTINUOUS
10
1.40453
20
2.14193
11
1.40453
21
2.10059
0
LINE
8
BLACK
6
CONTINUOUS
10
1.00453
20
2.10059
11
0.945472
21
2.10059
0
LINE
8
BLACK
6
CONTINUOUS
10
0.945472
20
2.10059
11
0.945472
21
2.14193
0
LINE
8
BLACK
6
CONTINUOUS
10
0.945472
20
2.14193
11
1.00453
21
2.14193
0
LINE
8
BLACK
6
CONTINUOUS
10
1.00453
20
2.14193
11
1.00453
21
2.10059
0
LINE
8
BLACK
6
CONTINUOUS
10
1.20453
20
2.25807
11
1.14547
21
2.25807
0
LINE
8
BLACK
6
CONTINUOUS
10
1.14547
20
2.25807
11
1.14547
21
2.29941
0
LINE
8
BLACK
6
CONTINUOUS
10
1.14547
20
2.29941
11
1.20453
21
2.29941
0
LINE
8
BLACK
6
CONTINUOUS
10
1.20453
20
2.29941
11
1.20453
21
2.25807
0
LINE
8
BLACK
6
CONTINUOUS
10
1.40453
20
2.25807
11
1.34547
21
2.25807
0
LINE
8
BLACK
6
CONTINUOUS
10
1.34547
20
2.25807
11
1.34547
21
2.29941
0
LINE
8
BLACK
6
CONTINUOUS
10
1.34547
20
2.29941
11
1.40453
21
2.29941
0
LINE
8
BLACK
6
CONTINUOUS
10
1.40453
20
2.29941
11
1.40453
21
2.25807
0
LINE
8
BLACK
6
CONTINUOUS
10
1.00453
20
2.25807
11
0.945472
21
2.25807
0
LINE
8
BLACK
6
CONTINUOUS
10
0.945472
20
2.25807
11
0.945472
21
2.29941
0
LINE
8
BLACK
6
CONTINUOUS
10
0.945472
20
2.29941
11
1.00453
21
2.29941
0
LINE
8
BLACK
6
CONTINUOUS
10
1.00453
20
2.29941
11
1.00453
21
2.25807
  0
ENDSEC
  0
EOF
