  0
SECTION
  2
HEADER
  9
$ANGBASE
  50
0.0
  9
$ANGDIR
  70
1
  9
$MEASUREMENT
  70
0
  0
ENDSEC
  0
SECTION
  2
TABLES
  0
TABLE
  2
LTYPE
  70
4
  0
LTYPE
  5
40F
  2
CONTINUOUS
  70
0
  3
Solid line
  72
65
  73
0
  40
0.0
  0
LTYPE
  5
410
  2
DASHDOT
 70
0
  3
Dash Dot ____ _ ____ _
 72
65
 73
4
 40
2.0
 49
1.25
 49
-0.25
 49
0.25
 49
-0.25
  0
LTYPE
  5
411
  2
DASHED
 70
0
  3
Dashed __ __ __ __ __
 72
65
 73
2
 40
0.75
 49
0.5
 49
-0.25
  0
LTYPE
  5
43B
  2
DOTTED
 70
0
  3
Dotted .  .  .  .
 72
65
 73
2
 40
0.2
 49
0.0
 49
-0.2
  0
ENDTAB
  0
TABLE
  2
STYLE
  70
4
  0
STYLE
  2
KICAD
  70
0
  40
0
  41
1
  42
1
  50
0
  71
0
  3
isocp.shx
  0
STYLE
  2
KICADB
  70
0
  40
0
  41
1
  42
1
  50
0
  71
0
  3
isocp.shx
  0
STYLE
  2
KICADI
  70
0
  40
0
  41
1
  42
1
  50
15
  71
0
  3
isocp.shx
  0
STYLE
  2
KICADBI
  70
0
  40
0
  41
1
  42
1
  50
15
  71
0
  3
isocp.shx
  0
ENDTAB
  0
TABLE
  2
LAYER
  70
1
  0
LAYER
  2
BLACK
  70
0
  62
7
  6
CONTINUOUS
  0
ENDTAB
  0
ENDSEC
  0
SECTION
  2
ENTITIES
0
LINE
8
BLACK
6
CONTINUOUS
10
0.66315
20
0.04
11
0.51315
21
0.04
0
LINE
8
BLACK
6
CONTINUOUS
10
0.51315
20
0.04
11
0.51315
21
0.19
0
LINE
8
BLACK
6
CONTINUOUS
10
0.51315
20
0.19
11
0.66315
21
0.19
0
LINE
8
BLACK
6
CONTINUOUS
10
0.66315
20
0.19
11
0.66315
21
0.04
0
LINE
8
BLACK
6
CONTINUOUS
10
0.86
20
0.04
11
0.71
21
0.04
0
LINE
8
BLACK
6
CONTINUOUS
10
0.71
20
0.04
11
0.71
21
0.19
0
LINE
8
BLACK
6
CONTINUOUS
10
0.71
20
0.19
11
0.86
21
0.19
0
LINE
8
BLACK
6
CONTINUOUS
10
0.86
20
0.19
11
0.86
21
0.04
0
LINE
8
BLACK
6
CONTINUOUS
10
0.20865
20
0.317793
11
0.222132
21
0.316018
0
LINE
8
BLACK
6
CONTINUOUS
10
0.222132
20
0.316018
11
0.23532
21
0.312706
0
LINE
8
BLACK
6
CONTINUOUS
10
0.23532
20
0.312706
11
0.24804
21
0.307899
0
LINE
8
BLACK
6
CONTINUOUS
10
0.24804
20
0.307899
11
0.260123
21
0.301662
0
LINE
8
BLACK
6
CONTINUOUS
10
0.260123
20
0.301662
11
0.271409
21
0.294078
0
LINE
8
BLACK
6
CONTINUOUS
10
0.271409
20
0.294078
11
0.281749
21
0.285247
0
LINE
8
BLACK
6
CONTINUOUS
10
0.281749
20
0.285247
11
0.291006
21
0.275286
0
LINE
8
BLACK
6
CONTINUOUS
10
0.291006
20
0.275286
11
0.299056
21
0.264327
0
LINE
8
BLACK
6
CONTINUOUS
10
0.299056
20
0.264327
11
0.305793
21
0.252516
0
LINE
8
BLACK
6
CONTINUOUS
10
0.305793
20
0.252516
11
0.311128
21
0.240008
0
LINE
8
BLACK
6
CONTINUOUS
10
0.311128
20
0.240008
11
0.31499
21
0.226971
0
LINE
8
BLACK
6
CONTINUOUS
10
0.31499
20
0.226971
11
0.317327
21
0.213575
0
LINE
8
BLACK
6
CONTINUOUS
10
0.317327
20
0.213575
11
0.31811
21
0.2
0
LINE
8
BLACK
6
CONTINUOUS
10
0.31811
20
0.2
11
0.317877
21
0.192584
0
LINE
8
BLACK
6
CONTINUOUS
10
0.317877
20
0.192584
11
0.316244
21
0.179084
0
LINE
8
BLACK
6
CONTINUOUS
10
0.316244
20
0.179084
11
0.313069
21
0.165862
0
LINE
8
BLACK
6
CONTINUOUS
10
0.313069
20
0.165862
11
0.308396
21
0.153093
0
LINE
8
BLACK
6
CONTINUOUS
10
0.308396
20
0.153093
11
0.302286
21
0.140945
0
LINE
8
BLACK
6
CONTINUOUS
10
0.302286
20
0.140945
11
0.294821
21
0.12958
0
LINE
8
BLACK
6
CONTINUOUS
10
0.294821
20
0.12958
11
0.286099
21
0.119148
0
LINE
8
BLACK
6
CONTINUOUS
10
0.286099
20
0.119148
11
0.276235
21
0.109788
0
LINE
8
BLACK
6
CONTINUOUS
10
0.276235
20
0.109788
11
0.265361
21
0.101623
0
LINE
8
BLACK
6
CONTINUOUS
10
0.265361
20
0.101623
11
0.253621
21
0.094763
0
LINE
8
BLACK
6
CONTINUOUS
10
0.253621
20
0.094763
11
0.24117
21
0.0892974
0
LINE
8
BLACK
6
CONTINUOUS
10
0.24117
20
0.0892974
11
0.228173
21
0.0852991
0
LINE
8
BLACK
6
CONTINUOUS
10
0.228173
20
0.0852991
11
0.214803
21
0.0828211
0
LINE
8
BLACK
6
CONTINUOUS
10
0.214803
20
0.0828211
11
0.201237
21
0.0818962
0
LINE
8
BLACK
6
CONTINUOUS
10
0.201237
20
0.0818962
11
0.187654
21
0.0825368
0
LINE
8
BLACK
6
CONTINUOUS
10
0.187654
20
0.0825368
11
0.174235
21
0.0847343
0
LINE
8
BLACK
6
CONTINUOUS
10
0.174235
20
0.0847343
11
0.161157
21
0.0884595
0
LINE
8
BLACK
6
CONTINUOUS
10
0.161157
20
0.0884595
11
0.148595
21
0.0936631
0
LINE
8
BLACK
6
CONTINUOUS
10
0.148595
20
0.0936631
11
0.136713
21
0.100276
0
LINE
8
BLACK
6
CONTINUOUS
10
0.136713
20
0.100276
11
0.125671
21
0.108211
0
LINE
8
BLACK
6
CONTINUOUS
10
0.125671
20
0.108211
11
0.115613
21
0.117363
0
LINE
8
BLACK
6
CONTINUOUS
10
0.115613
20
0.117363
11
0.106675
21
0.127609
0
LINE
8
BLACK
6
CONTINUOUS
10
0.106675
20
0.127609
11
0.0989727
21
0.138816
0
LINE
8
BLACK
6
CONTINUOUS
10
0.0989727
20
0.138816
11
0.0926099
21
0.150833
0
LINE
8
BLACK
6
CONTINUOUS
10
0.0926099
20
0.150833
11
0.0876705
21
0.163502
0
LINE
8
BLACK
6
CONTINUOUS
10
0.0876705
20
0.163502
11
0.0842199
21
0.176655
0
LINE
8
BLACK
6
CONTINUOUS
10
0.0842199
20
0.176655
11
0.082304
21
0.190117
0
LINE
8
BLACK
6
CONTINUOUS
10
0.082304
20
0.190117
11
0.081948
21
0.20371
0
LINE
8
BLACK
6
CONTINUOUS
10
0.081948
20
0.20371
11
0.0831568
21
0.217254
0
LINE
8
BLACK
6
CONTINUOUS
10
0.0831568
20
0.217254
11
0.0859143
21
0.230569
0
LINE
8
BLACK
6
CONTINUOUS
10
0.0859143
20
0.230569
11
0.0901839
21
0.243479
0
LINE
8
BLACK
6
CONTINUOUS
10
0.0901839
20
0.243479
11
0.0959091
21
0.255813
0
LINE
8
BLACK
6
CONTINUOUS
10
0.0959091
20
0.255813
11
0.103014
21
0.267407
0
LINE
8
BLACK
6
CONTINUOUS
10
0.103014
20
0.267407
11
0.111404
21
0.278108
0
LINE
8
BLACK
6
CONTINUOUS
10
0.111404
20
0.278108
11
0.120969
21
0.287773
0
LINE
8
BLACK
6
CONTINUOUS
10
0.120969
20
0.287773
11
0.131581
21
0.296275
0
LINE
8
BLACK
6
CONTINUOUS
10
0.131581
20
0.296275
11
0.1431
21
0.303501
0
LINE
8
BLACK
6
CONTINUOUS
10
0.1431
20
0.303501
11
0.155373
21
0.309355
0
LINE
8
BLACK
6
CONTINUOUS
10
0.155373
20
0.309355
11
0.168238
21
0.313759
0
LINE
8
BLACK
6
CONTINUOUS
10
0.168238
20
0.313759
11
0.181524
21
0.316656
0
LINE
8
BLACK
6
CONTINUOUS
10
0.181524
20
0.316656
11
0.195054
21
0.318007
0
LINE
8
BLACK
6
CONTINUOUS
10
0.195054
20
0.318007
11
0.20865
21
0.317793
0
LINE
8
BLACK
6
CONTINUOUS
10
3.00865
20
0.317793
11
3.02213
21
0.316018
0
LINE
8
BLACK
6
CONTINUOUS
10
3.02213
20
0.316018
11
3.03532
21
0.312706
0
LINE
8
BLACK
6
CONTINUOUS
10
3.03532
20
0.312706
11
3.04804
21
0.307899
0
LINE
8
BLACK
6
CONTINUOUS
10
3.04804
20
0.307899
11
3.06012
21
0.301662
0
LINE
8
BLACK
6
CONTINUOUS
10
3.06012
20
0.301662
11
3.07141
21
0.294078
0
LINE
8
BLACK
6
CONTINUOUS
10
3.07141
20
0.294078
11
3.08175
21
0.285247
0
LINE
8
BLACK
6
CONTINUOUS
10
3.08175
20
0.285247
11
3.09101
21
0.275286
0
LINE
8
BLACK
6
CONTINUOUS
10
3.09101
20
0.275286
11
3.09906
21
0.264327
0
LINE
8
BLACK
6
CONTINUOUS
10
3.09906
20
0.264327
11
3.10579
21
0.252516
0
LINE
8
BLACK
6
CONTINUOUS
10
3.10579
20
0.252516
11
3.11113
21
0.240008
0
LINE
8
BLACK
6
CONTINUOUS
10
3.11113
20
0.240008
11
3.11499
21
0.226971
0
LINE
8
BLACK
6
CONTINUOUS
10
3.11499
20
0.226971
11
3.11733
21
0.213575
0
LINE
8
BLACK
6
CONTINUOUS
10
3.11733
20
0.213575
11
3.11811
21
0.2
0
LINE
8
BLACK
6
CONTINUOUS
10
3.11811
20
0.2
11
3.11788
21
0.192584
0
LINE
8
BLACK
6
CONTINUOUS
10
3.11788
20
0.192584
11
3.11624
21
0.179084
0
LINE
8
BLACK
6
CONTINUOUS
10
3.11624
20
0.179084
11
3.11307
21
0.165862
0
LINE
8
BLACK
6
CONTINUOUS
10
3.11307
20
0.165862
11
3.1084
21
0.153093
0
LINE
8
BLACK
6
CONTINUOUS
10
3.1084
20
0.153093
11
3.10229
21
0.140945
0
LINE
8
BLACK
6
CONTINUOUS
10
3.10229
20
0.140945
11
3.09482
21
0.12958
0
LINE
8
BLACK
6
CONTINUOUS
10
3.09482
20
0.12958
11
3.0861
21
0.119148
0
LINE
8
BLACK
6
CONTINUOUS
10
3.0861
20
0.119148
11
3.07624
21
0.109788
0
LINE
8
BLACK
6
CONTINUOUS
10
3.07624
20
0.109788
11
3.06536
21
0.101623
0
LINE
8
BLACK
6
CONTINUOUS
10
3.06536
20
0.101623
11
3.05362
21
0.094763
0
LINE
8
BLACK
6
CONTINUOUS
10
3.05362
20
0.094763
11
3.04117
21
0.0892974
0
LINE
8
BLACK
6
CONTINUOUS
10
3.04117
20
0.0892974
11
3.02817
21
0.0852991
0
LINE
8
BLACK
6
CONTINUOUS
10
3.02817
20
0.0852991
11
3.0148
21
0.0828211
0
LINE
8
BLACK
6
CONTINUOUS
10
3.0148
20
0.0828211
11
3.00124
21
0.0818962
0
LINE
8
BLACK
6
CONTINUOUS
10
3.00124
20
0.0818962
11
2.98765
21
0.0825368
0
LINE
8
BLACK
6
CONTINUOUS
10
2.98765
20
0.0825368
11
2.97424
21
0.0847343
0
LINE
8
BLACK
6
CONTINUOUS
10
2.97424
20
0.0847343
11
2.96116
21
0.0884595
0
LINE
8
BLACK
6
CONTINUOUS
10
2.96116
20
0.0884595
11
2.94859
21
0.0936631
0
LINE
8
BLACK
6
CONTINUOUS
10
2.94859
20
0.0936631
11
2.93671
21
0.100276
0
LINE
8
BLACK
6
CONTINUOUS
10
2.93671
20
0.100276
11
2.92567
21
0.108211
0
LINE
8
BLACK
6
CONTINUOUS
10
2.92567
20
0.108211
11
2.91561
21
0.117363
0
LINE
8
BLACK
6
CONTINUOUS
10
2.91561
20
0.117363
11
2.90667
21
0.127609
0
LINE
8
BLACK
6
CONTINUOUS
10
2.90667
20
0.127609
11
2.89897
21
0.138816
0
LINE
8
BLACK
6
CONTINUOUS
10
2.89897
20
0.138816
11
2.89261
21
0.150833
0
LINE
8
BLACK
6
CONTINUOUS
10
2.89261
20
0.150833
11
2.88767
21
0.163502
0
LINE
8
BLACK
6
CONTINUOUS
10
2.88767
20
0.163502
11
2.88422
21
0.176655
0
LINE
8
BLACK
6
CONTINUOUS
10
2.88422
20
0.176655
11
2.8823
21
0.190117
0
LINE
8
BLACK
6
CONTINUOUS
10
2.8823
20
0.190117
11
2.88195
21
0.20371
0
LINE
8
BLACK
6
CONTINUOUS
10
2.88195
20
0.20371
11
2.88316
21
0.217254
0
LINE
8
BLACK
6
CONTINUOUS
10
2.88316
20
0.217254
11
2.88591
21
0.230569
0
LINE
8
BLACK
6
CONTINUOUS
10
2.88591
20
0.230569
11
2.89018
21
0.243479
0
LINE
8
BLACK
6
CONTINUOUS
10
2.89018
20
0.243479
11
2.89591
21
0.255813
0
LINE
8
BLACK
6
CONTINUOUS
10
2.89591
20
0.255813
11
2.90301
21
0.267407
0
LINE
8
BLACK
6
CONTINUOUS
10
2.90301
20
0.267407
11
2.9114
21
0.278108
0
LINE
8
BLACK
6
CONTINUOUS
10
2.9114
20
0.278108
11
2.92097
21
0.287773
0
LINE
8
BLACK
6
CONTINUOUS
10
2.92097
20
0.287773
11
2.93158
21
0.296275
0
LINE
8
BLACK
6
CONTINUOUS
10
2.93158
20
0.296275
11
2.9431
21
0.303501
0
LINE
8
BLACK
6
CONTINUOUS
10
2.9431
20
0.303501
11
2.95537
21
0.309355
0
LINE
8
BLACK
6
CONTINUOUS
10
2.95537
20
0.309355
11
2.96824
21
0.313759
0
LINE
8
BLACK
6
CONTINUOUS
10
2.96824
20
0.313759
11
2.98152
21
0.316656
0
LINE
8
BLACK
6
CONTINUOUS
10
2.98152
20
0.316656
11
2.99505
21
0.318007
0
LINE
8
BLACK
6
CONTINUOUS
10
2.99505
20
0.318007
11
3.00865
21
0.317793
0
LINE
8
BLACK
6
CONTINUOUS
10
2.55398
20
0.0984173
11
2.48798
21
0.0984173
0
LINE
8
BLACK
6
CONTINUOUS
10
2.48798
20
0.0984173
11
2.48798
21
0.164417
0
LINE
8
BLACK
6
CONTINUOUS
10
2.48798
20
0.164417
11
2.55398
21
0.164417
0
LINE
8
BLACK
6
CONTINUOUS
10
2.55398
20
0.164417
11
2.55398
21
0.0984173
0
LINE
8
BLACK
6
CONTINUOUS
10
2.80202
20
0.0984173
11
2.73602
21
0.0984173
0
LINE
8
BLACK
6
CONTINUOUS
10
2.73602
20
0.0984173
11
2.73602
21
0.164417
0
LINE
8
BLACK
6
CONTINUOUS
10
2.73602
20
0.164417
11
2.80202
21
0.164417
0
LINE
8
BLACK
6
CONTINUOUS
10
2.80202
20
0.164417
11
2.80202
21
0.0984173
0
LINE
8
BLACK
6
CONTINUOUS
10
1.38
20
0.12
11
1.32
21
0.12
0
LINE
8
BLACK
6
CONTINUOUS
10
1.32
20
0.12
11
1.32
21
0.18
0
LINE
8
BLACK
6
CONTINUOUS
10
1.32
20
0.18
11
1.38
21
0.18
0
LINE
8
BLACK
6
CONTINUOUS
10
1.38
20
0.18
11
1.38
21
0.12
0
LINE
8
BLACK
6
CONTINUOUS
10
1.28
20
0.12
11
1.22
21
0.12
0
LINE
8
BLACK
6
CONTINUOUS
10
1.22
20
0.12
11
1.22
21
0.18
0
LINE
8
BLACK
6
CONTINUOUS
10
1.22
20
0.18
11
1.28
21
0.18
0
LINE
8
BLACK
6
CONTINUOUS
10
1.28
20
0.18
11
1.28
21
0.12
0
LINE
8
BLACK
6
CONTINUOUS
10
1.48
20
0.12
11
1.42
21
0.12
0
LINE
8
BLACK
6
CONTINUOUS
10
1.42
20
0.12
11
1.42
21
0.18
0
LINE
8
BLACK
6
CONTINUOUS
10
1.42
20
0.18
11
1.48
21
0.18
0
LINE
8
BLACK
6
CONTINUOUS
10
1.48
20
0.18
11
1.48
21
0.12
0
LINE
8
BLACK
6
CONTINUOUS
10
1.58
20
0.12
11
1.52
21
0.12
0
LINE
8
BLACK
6
CONTINUOUS
10
1.52
20
0.12
11
1.52
21
0.18
0
LINE
8
BLACK
6
CONTINUOUS
10
1.52
20
0.18
11
1.58
21
0.18
0
LINE
8
BLACK
6
CONTINUOUS
10
1.58
20
0.18
11
1.58
21
0.12
0
LINE
8
BLACK
6
CONTINUOUS
10
2.41923
20
0.227342
11
2.42818
21
0.224944
0
LINE
8
BLACK
6
CONTINUOUS
10
2.42818
20
0.224944
11
2.43657
21
0.221029
0
LINE
8
BLACK
6
CONTINUOUS
10
2.43657
20
0.221029
11
2.44416
21
0.215715
0
LINE
8
BLACK
6
CONTINUOUS
10
2.44416
20
0.215715
11
2.45071
21
0.209164
0
LINE
8
BLACK
6
CONTINUOUS
10
2.45071
20
0.209164
11
2.45603
21
0.201575
0
LINE
8
BLACK
6
CONTINUOUS
10
2.45603
20
0.201575
11
2.45994
21
0.193178
0
LINE
8
BLACK
6
CONTINUOUS
10
2.45994
20
0.193178
11
2.46234
21
0.184229
0
LINE
8
BLACK
6
CONTINUOUS
10
2.46234
20
0.184229
11
2.46315
21
0.175
0
LINE
8
BLACK
6
CONTINUOUS
10
2.46315
20
0.175
11
2.46234
21
0.165771
0
LINE
8
BLACK
6
CONTINUOUS
10
2.46234
20
0.165771
11
2.45994
21
0.156822
0
LINE
8
BLACK
6
CONTINUOUS
10
2.45994
20
0.156822
11
2.45603
21
0.148425
0
LINE
8
BLACK
6
CONTINUOUS
10
2.45603
20
0.148425
11
2.45071
21
0.140836
0
LINE
8
BLACK
6
CONTINUOUS
10
2.45071
20
0.140836
11
2.44416
21
0.134285
0
LINE
8
BLACK
6
CONTINUOUS
10
2.44416
20
0.134285
11
2.43657
21
0.128971
0
LINE
8
BLACK
6
CONTINUOUS
10
2.43657
20
0.128971
11
2.42818
21
0.125056
0
LINE
8
BLACK
6
CONTINUOUS
10
2.42818
20
0.125056
11
2.41923
21
0.122658
0
LINE
8
BLACK
6
CONTINUOUS
10
2.41923
20
0.122658
11
2.41
21
0.12185
0
LINE
8
BLACK
6
CONTINUOUS
10
2.41
20
0.12185
11
2.40077
21
0.122658
0
LINE
8
BLACK
6
CONTINUOUS
10
2.40077
20
0.122658
11
2.39182
21
0.125056
0
LINE
8
BLACK
6
CONTINUOUS
10
2.39182
20
0.125056
11
2.38343
21
0.128971
0
LINE
8
BLACK
6
CONTINUOUS
10
2.38343
20
0.128971
11
2.37584
21
0.134285
0
LINE
8
BLACK
6
CONTINUOUS
10
2.37584
20
0.134285
11
2.36929
21
0.140836
0
LINE
8
BLACK
6
CONTINUOUS
10
2.36929
20
0.140836
11
2.36397
21
0.148425
0
LINE
8
BLACK
6
CONTINUOUS
10
2.36397
20
0.148425
11
2.36006
21
0.156822
0
LINE
8
BLACK
6
CONTINUOUS
10
2.36006
20
0.156822
11
2.35766
21
0.165771
0
LINE
8
BLACK
6
CONTINUOUS
10
2.35766
20
0.165771
11
2.3575
21
0.167575
0
LINE
8
BLACK
6
CONTINUOUS
10
2.3575
20
0.167575
11
2.35734
21
0.165771
0
LINE
8
BLACK
6
CONTINUOUS
10
2.35734
20
0.165771
11
2.35494
21
0.156822
0
LINE
8
BLACK
6
CONTINUOUS
10
2.35494
20
0.156822
11
2.35103
21
0.148425
0
LINE
8
BLACK
6
CONTINUOUS
10
2.35103
20
0.148425
11
2.34571
21
0.140836
0
LINE
8
BLACK
6
CONTINUOUS
10
2.34571
20
0.140836
11
2.33916
21
0.134285
0
LINE
8
BLACK
6
CONTINUOUS
10
2.33916
20
0.134285
11
2.33157
21
0.128971
0
LINE
8
BLACK
6
CONTINUOUS
10
2.33157
20
0.128971
11
2.32318
21
0.125056
0
LINE
8
BLACK
6
CONTINUOUS
10
2.32318
20
0.125056
11
2.31423
21
0.122658
0
LINE
8
BLACK
6
CONTINUOUS
10
2.31423
20
0.122658
11
2.305
21
0.12185
0
LINE
8
BLACK
6
CONTINUOUS
10
2.305
20
0.12185
11
2.29577
21
0.122658
0
LINE
8
BLACK
6
CONTINUOUS
10
2.29577
20
0.122658
11
2.28682
21
0.125056
0
LINE
8
BLACK
6
CONTINUOUS
10
2.28682
20
0.125056
11
2.27843
21
0.128971
0
LINE
8
BLACK
6
CONTINUOUS
10
2.27843
20
0.128971
11
2.27084
21
0.134285
0
LINE
8
BLACK
6
CONTINUOUS
10
2.27084
20
0.134285
11
2.26429
21
0.140836
0
LINE
8
BLACK
6
CONTINUOUS
10
2.26429
20
0.140836
11
2.25897
21
0.148425
0
LINE
8
BLACK
6
CONTINUOUS
10
2.25897
20
0.148425
11
2.25506
21
0.156822
0
LINE
8
BLACK
6
CONTINUOUS
10
2.25506
20
0.156822
11
2.25266
21
0.165771
0
LINE
8
BLACK
6
CONTINUOUS
10
2.25266
20
0.165771
11
2.2525
21
0.167575
0
LINE
8
BLACK
6
CONTINUOUS
10
2.2525
20
0.167575
11
2.25234
21
0.165771
0
LINE
8
BLACK
6
CONTINUOUS
10
2.25234
20
0.165771
11
2.24994
21
0.156822
0
LINE
8
BLACK
6
CONTINUOUS
10
2.24994
20
0.156822
11
2.24603
21
0.148425
0
LINE
8
BLACK
6
CONTINUOUS
10
2.24603
20
0.148425
11
2.24071
21
0.140836
0
LINE
8
BLACK
6
CONTINUOUS
10
2.24071
20
0.140836
11
2.23416
21
0.134285
0
LINE
8
BLACK
6
CONTINUOUS
10
2.23416
20
0.134285
11
2.22657
21
0.128971
0
LINE
8
BLACK
6
CONTINUOUS
10
2.22657
20
0.128971
11
2.21818
21
0.125056
0
LINE
8
BLACK
6
CONTINUOUS
10
2.21818
20
0.125056
11
2.20923
21
0.122658
0
LINE
8
BLACK
6
CONTINUOUS
10
2.20923
20
0.122658
11
2.2
21
0.12185
0
LINE
8
BLACK
6
CONTINUOUS
10
2.2
20
0.12185
11
2.19077
21
0.122658
0
LINE
8
BLACK
6
CONTINUOUS
10
2.19077
20
0.122658
11
2.18182
21
0.125056
0
LINE
8
BLACK
6
CONTINUOUS
10
2.18182
20
0.125056
11
2.17343
21
0.128971
0
LINE
8
BLACK
6
CONTINUOUS
10
2.17343
20
0.128971
11
2.16584
21
0.134285
0
LINE
8
BLACK
6
CONTINUOUS
10
2.16584
20
0.134285
11
2.15929
21
0.140836
0
LINE
8
BLACK
6
CONTINUOUS
10
2.15929
20
0.140836
11
2.15397
21
0.148425
0
LINE
8
BLACK
6
CONTINUOUS
10
2.15397
20
0.148425
11
2.15006
21
0.156822
0
LINE
8
BLACK
6
CONTINUOUS
10
2.15006
20
0.156822
11
2.14766
21
0.165771
0
LINE
8
BLACK
6
CONTINUOUS
10
2.14766
20
0.165771
11
2.1475
21
0.167575
0
LINE
8
BLACK
6
CONTINUOUS
10
2.1475
20
0.167575
11
2.14734
21
0.165771
0
LINE
8
BLACK
6
CONTINUOUS
10
2.14734
20
0.165771
11
2.14494
21
0.156822
0
LINE
8
BLACK
6
CONTINUOUS
10
2.14494
20
0.156822
11
2.14103
21
0.148425
0
LINE
8
BLACK
6
CONTINUOUS
10
2.14103
20
0.148425
11
2.13571
21
0.140836
0
LINE
8
BLACK
6
CONTINUOUS
10
2.13571
20
0.140836
11
2.12916
21
0.134285
0
LINE
8
BLACK
6
CONTINUOUS
10
2.12916
20
0.134285
11
2.12157
21
0.128971
0
LINE
8
BLACK
6
CONTINUOUS
10
2.12157
20
0.128971
11
2.11318
21
0.125056
0
LINE
8
BLACK
6
CONTINUOUS
10
2.11318
20
0.125056
11
2.10423
21
0.122658
0
LINE
8
BLACK
6
CONTINUOUS
10
2.10423
20
0.122658
11
2.095
21
0.12185
0
LINE
8
BLACK
6
CONTINUOUS
10
2.095
20
0.12185
11
2.08577
21
0.122658
0
LINE
8
BLACK
6
CONTINUOUS
10
2.08577
20
0.122658
11
2.07682
21
0.125056
0
LINE
8
BLACK
6
CONTINUOUS
10
2.07682
20
0.125056
11
2.06843
21
0.128971
0
LINE
8
BLACK
6
CONTINUOUS
10
2.06843
20
0.128971
11
2.06084
21
0.134285
0
LINE
8
BLACK
6
CONTINUOUS
10
2.06084
20
0.134285
11
2.05429
21
0.140836
0
LINE
8
BLACK
6
CONTINUOUS
10
2.05429
20
0.140836
11
2.04897
21
0.148425
0
LINE
8
BLACK
6
CONTINUOUS
10
2.04897
20
0.148425
11
2.04506
21
0.156822
0
LINE
8
BLACK
6
CONTINUOUS
10
2.04506
20
0.156822
11
2.04266
21
0.165771
0
LINE
8
BLACK
6
CONTINUOUS
10
2.04266
20
0.165771
11
2.0425
21
0.167575
0
LINE
8
BLACK
6
CONTINUOUS
10
2.0425
20
0.167575
11
2.04234
21
0.165771
0
LINE
8
BLACK
6
CONTINUOUS
10
2.04234
20
0.165771
11
2.03994
21
0.156822
0
LINE
8
BLACK
6
CONTINUOUS
10
2.03994
20
0.156822
11
2.03603
21
0.148425
0
LINE
8
BLACK
6
CONTINUOUS
10
2.03603
20
0.148425
11
2.03071
21
0.140836
0
LINE
8
BLACK
6
CONTINUOUS
10
2.03071
20
0.140836
11
2.02416
21
0.134285
0
LINE
8
BLACK
6
CONTINUOUS
10
2.02416
20
0.134285
11
2.01657
21
0.128971
0
LINE
8
BLACK
6
CONTINUOUS
10
2.01657
20
0.128971
11
2.00818
21
0.125056
0
LINE
8
BLACK
6
CONTINUOUS
10
2.00818
20
0.125056
11
1.99923
21
0.122658
0
LINE
8
BLACK
6
CONTINUOUS
10
1.99923
20
0.122658
11
1.99
21
0.12185
0
LINE
8
BLACK
6
CONTINUOUS
10
1.99
20
0.12185
11
1.98077
21
0.122658
0
LINE
8
BLACK
6
CONTINUOUS
10
1.98077
20
0.122658
11
1.97182
21
0.125056
0
LINE
8
BLACK
6
CONTINUOUS
10
1.97182
20
0.125056
11
1.96343
21
0.128971
0
LINE
8
BLACK
6
CONTINUOUS
10
1.96343
20
0.128971
11
1.95584
21
0.134285
0
LINE
8
BLACK
6
CONTINUOUS
10
1.95584
20
0.134285
11
1.94929
21
0.140836
0
LINE
8
BLACK
6
CONTINUOUS
10
1.94929
20
0.140836
11
1.94397
21
0.148425
0
LINE
8
BLACK
6
CONTINUOUS
10
1.94397
20
0.148425
11
1.94006
21
0.156822
0
LINE
8
BLACK
6
CONTINUOUS
10
1.94006
20
0.156822
11
1.93766
21
0.165771
0
LINE
8
BLACK
6
CONTINUOUS
10
1.93766
20
0.165771
11
1.9375
21
0.167575
0
LINE
8
BLACK
6
CONTINUOUS
10
1.9375
20
0.167575
11
1.93734
21
0.165771
0
LINE
8
BLACK
6
CONTINUOUS
10
1.93734
20
0.165771
11
1.93494
21
0.156822
0
LINE
8
BLACK
6
CONTINUOUS
10
1.93494
20
0.156822
11
1.93103
21
0.148425
0
LINE
8
BLACK
6
CONTINUOUS
10
1.93103
20
0.148425
11
1.92571
21
0.140836
0
LINE
8
BLACK
6
CONTINUOUS
10
1.92571
20
0.140836
11
1.91916
21
0.134285
0
LINE
8
BLACK
6
CONTINUOUS
10
1.91916
20
0.134285
11
1.91157
21
0.128971
0
LINE
8
BLACK
6
CONTINUOUS
10
1.91157
20
0.128971
11
1.90318
21
0.125056
0
LINE
8
BLACK
6
CONTINUOUS
10
1.90318
20
0.125056
11
1.89423
21
0.122658
0
LINE
8
BLACK
6
CONTINUOUS
10
1.89423
20
0.122658
11
1.885
21
0.12185
0
LINE
8
BLACK
6
CONTINUOUS
10
1.885
20
0.12185
11
1.87577
21
0.122658
0
LINE
8
BLACK
6
CONTINUOUS
10
1.87577
20
0.122658
11
1.86682
21
0.125056
0
LINE
8
BLACK
6
CONTINUOUS
10
1.86682
20
0.125056
11
1.85843
21
0.128971
0
LINE
8
BLACK
6
CONTINUOUS
10
1.85843
20
0.128971
11
1.85084
21
0.134285
0
LINE
8
BLACK
6
CONTINUOUS
10
1.85084
20
0.134285
11
1.84429
21
0.140836
0
LINE
8
BLACK
6
CONTINUOUS
10
1.84429
20
0.140836
11
1.83897
21
0.148425
0
LINE
8
BLACK
6
CONTINUOUS
10
1.83897
20
0.148425
11
1.83506
21
0.156822
0
LINE
8
BLACK
6
CONTINUOUS
10
1.83506
20
0.156822
11
1.83266
21
0.165771
0
LINE
8
BLACK
6
CONTINUOUS
10
1.83266
20
0.165771
11
1.8325
21
0.167575
0
LINE
8
BLACK
6
CONTINUOUS
10
1.8325
20
0.167575
11
1.83234
21
0.165771
0
LINE
8
BLACK
6
CONTINUOUS
10
1.83234
20
0.165771
11
1.82994
21
0.156822
0
LINE
8
BLACK
6
CONTINUOUS
10
1.82994
20
0.156822
11
1.82603
21
0.148425
0
LINE
8
BLACK
6
CONTINUOUS
10
1.82603
20
0.148425
11
1.82071
21
0.140836
0
LINE
8
BLACK
6
CONTINUOUS
10
1.82071
20
0.140836
11
1.81416
21
0.134285
0
LINE
8
BLACK
6
CONTINUOUS
10
1.81416
20
0.134285
11
1.80657
21
0.128971
0
LINE
8
BLACK
6
CONTINUOUS
10
1.80657
20
0.128971
11
1.79818
21
0.125056
0
LINE
8
BLACK
6
CONTINUOUS
10
1.79818
20
0.125056
11
1.78923
21
0.122658
0
LINE
8
BLACK
6
CONTINUOUS
10
1.78923
20
0.122658
11
1.78
21
0.12185
0
LINE
8
BLACK
6
CONTINUOUS
10
1.78
20
0.12185
11
1.77077
21
0.122658
0
LINE
8
BLACK
6
CONTINUOUS
10
1.77077
20
0.122658
11
1.76182
21
0.125056
0
LINE
8
BLACK
6
CONTINUOUS
10
1.76182
20
0.125056
11
1.75343
21
0.128971
0
LINE
8
BLACK
6
CONTINUOUS
10
1.75343
20
0.128971
11
1.74584
21
0.134285
0
LINE
8
BLACK
6
CONTINUOUS
10
1.74584
20
0.134285
11
1.73929
21
0.140836
0
LINE
8
BLACK
6
CONTINUOUS
10
1.73929
20
0.140836
11
1.73397
21
0.148425
0
LINE
8
BLACK
6
CONTINUOUS
10
1.73397
20
0.148425
11
1.73006
21
0.156822
0
LINE
8
BLACK
6
CONTINUOUS
10
1.73006
20
0.156822
11
1.72766
21
0.165771
0
LINE
8
BLACK
6
CONTINUOUS
10
1.72766
20
0.165771
11
1.7275
21
0.167575
0
LINE
8
BLACK
6
CONTINUOUS
10
1.7275
20
0.167575
11
1.72734
21
0.165771
0
LINE
8
BLACK
6
CONTINUOUS
10
1.72734
20
0.165771
11
1.72494
21
0.156822
0
LINE
8
BLACK
6
CONTINUOUS
10
1.72494
20
0.156822
11
1.72103
21
0.148425
0
LINE
8
BLACK
6
CONTINUOUS
10
1.72103
20
0.148425
11
1.71571
21
0.140836
0
LINE
8
BLACK
6
CONTINUOUS
10
1.71571
20
0.140836
11
1.70916
21
0.134285
0
LINE
8
BLACK
6
CONTINUOUS
10
1.70916
20
0.134285
11
1.70157
21
0.128971
0
LINE
8
BLACK
6
CONTINUOUS
10
1.70157
20
0.128971
11
1.69318
21
0.125056
0
LINE
8
BLACK
6
CONTINUOUS
10
1.69318
20
0.125056
11
1.68423
21
0.122658
0
LINE
8
BLACK
6
CONTINUOUS
10
1.68423
20
0.122658
11
1.675
21
0.12185
0
LINE
8
BLACK
6
CONTINUOUS
10
1.675
20
0.12185
11
1.66577
21
0.122658
0
LINE
8
BLACK
6
CONTINUOUS
10
1.66577
20
0.122658
11
1.65682
21
0.125056
0
LINE
8
BLACK
6
CONTINUOUS
10
1.65682
20
0.125056
11
1.64843
21
0.128971
0
LINE
8
BLACK
6
CONTINUOUS
10
1.64843
20
0.128971
11
1.64084
21
0.134285
0
LINE
8
BLACK
6
CONTINUOUS
10
1.64084
20
0.134285
11
1.63429
21
0.140836
0
LINE
8
BLACK
6
CONTINUOUS
10
1.63429
20
0.140836
11
1.62897
21
0.148425
0
LINE
8
BLACK
6
CONTINUOUS
10
1.62897
20
0.148425
11
1.62506
21
0.156822
0
LINE
8
BLACK
6
CONTINUOUS
10
1.62506
20
0.156822
11
1.62266
21
0.165771
0
LINE
8
BLACK
6
CONTINUOUS
10
1.62266
20
0.165771
11
1.62185
21
0.175
0
LINE
8
BLACK
6
CONTINUOUS
10
1.62185
20
0.175
11
1.62266
21
0.184229
0
LINE
8
BLACK
6
CONTINUOUS
10
1.62266
20
0.184229
11
1.62506
21
0.193178
0
LINE
8
BLACK
6
CONTINUOUS
10
1.62506
20
0.193178
11
1.62897
21
0.201575
0
LINE
8
BLACK
6
CONTINUOUS
10
1.62897
20
0.201575
11
1.63429
21
0.209164
0
LINE
8
BLACK
6
CONTINUOUS
10
1.63429
20
0.209164
11
1.64084
21
0.215715
0
LINE
8
BLACK
6
CONTINUOUS
10
1.64084
20
0.215715
11
1.64843
21
0.221029
0
LINE
8
BLACK
6
CONTINUOUS
10
1.64843
20
0.221029
11
1.65682
21
0.224944
0
LINE
8
BLACK
6
CONTINUOUS
10
1.65682
20
0.224944
11
1.66577
21
0.227342
0
LINE
8
BLACK
6
CONTINUOUS
10
1.66577
20
0.227342
11
1.675
21
0.22815
0
LINE
8
BLACK
6
CONTINUOUS
10
1.675
20
0.22815
11
1.68423
21
0.227342
0
LINE
8
BLACK
6
CONTINUOUS
10
1.68423
20
0.227342
11
1.69318
21
0.224944
0
LINE
8
BLACK
6
CONTINUOUS
10
1.69318
20
0.224944
11
1.70157
21
0.221029
0
LINE
8
BLACK
6
CONTINUOUS
10
1.70157
20
0.221029
11
1.70916
21
0.215715
0
LINE
8
BLACK
6
CONTINUOUS
10
1.70916
20
0.215715
11
1.71571
21
0.209164
0
LINE
8
BLACK
6
CONTINUOUS
10
1.71571
20
0.209164
11
1.72103
21
0.201575
0
LINE
8
BLACK
6
CONTINUOUS
10
1.72103
20
0.201575
11
1.72494
21
0.193178
0
LINE
8
BLACK
6
CONTINUOUS
10
1.72494
20
0.193178
11
1.72734
21
0.184229
0
LINE
8
BLACK
6
CONTINUOUS
10
1.72734
20
0.184229
11
1.7275
21
0.182425
0
LINE
8
BLACK
6
CONTINUOUS
10
1.7275
20
0.182425
11
1.72766
21
0.184229
0
LINE
8
BLACK
6
CONTINUOUS
10
1.72766
20
0.184229
11
1.73006
21
0.193178
0
LINE
8
BLACK
6
CONTINUOUS
10
1.73006
20
0.193178
11
1.73397
21
0.201575
0
LINE
8
BLACK
6
CONTINUOUS
10
1.73397
20
0.201575
11
1.73929
21
0.209164
0
LINE
8
BLACK
6
CONTINUOUS
10
1.73929
20
0.209164
11
1.74584
21
0.215715
0
LINE
8
BLACK
6
CONTINUOUS
10
1.74584
20
0.215715
11
1.75343
21
0.221029
0
LINE
8
BLACK
6
CONTINUOUS
10
1.75343
20
0.221029
11
1.76182
21
0.224944
0
LINE
8
BLACK
6
CONTINUOUS
10
1.76182
20
0.224944
11
1.77077
21
0.227342
0
LINE
8
BLACK
6
CONTINUOUS
10
1.77077
20
0.227342
11
1.78
21
0.22815
0
LINE
8
BLACK
6
CONTINUOUS
10
1.78
20
0.22815
11
1.78923
21
0.227342
0
LINE
8
BLACK
6
CONTINUOUS
10
1.78923
20
0.227342
11
1.79818
21
0.224944
0
LINE
8
BLACK
6
CONTINUOUS
10
1.79818
20
0.224944
11
1.80657
21
0.221029
0
LINE
8
BLACK
6
CONTINUOUS
10
1.80657
20
0.221029
11
1.81416
21
0.215715
0
LINE
8
BLACK
6
CONTINUOUS
10
1.81416
20
0.215715
11
1.82071
21
0.209164
0
LINE
8
BLACK
6
CONTINUOUS
10
1.82071
20
0.209164
11
1.82603
21
0.201575
0
LINE
8
BLACK
6
CONTINUOUS
10
1.82603
20
0.201575
11
1.82994
21
0.193178
0
LINE
8
BLACK
6
CONTINUOUS
10
1.82994
20
0.193178
11
1.83234
21
0.184229
0
LINE
8
BLACK
6
CONTINUOUS
10
1.83234
20
0.184229
11
1.8325
21
0.182425
0
LINE
8
BLACK
6
CONTINUOUS
10
1.8325
20
0.182425
11
1.83266
21
0.184229
0
LINE
8
BLACK
6
CONTINUOUS
10
1.83266
20
0.184229
11
1.83506
21
0.193178
0
LINE
8
BLACK
6
CONTINUOUS
10
1.83506
20
0.193178
11
1.83897
21
0.201575
0
LINE
8
BLACK
6
CONTINUOUS
10
1.83897
20
0.201575
11
1.84429
21
0.209164
0
LINE
8
BLACK
6
CONTINUOUS
10
1.84429
20
0.209164
11
1.85084
21
0.215715
0
LINE
8
BLACK
6
CONTINUOUS
10
1.85084
20
0.215715
11
1.85843
21
0.221029
0
LINE
8
BLACK
6
CONTINUOUS
10
1.85843
20
0.221029
11
1.86682
21
0.224944
0
LINE
8
BLACK
6
CONTINUOUS
10
1.86682
20
0.224944
11
1.87577
21
0.227342
0
LINE
8
BLACK
6
CONTINUOUS
10
1.87577
20
0.227342
11
1.885
21
0.22815
0
LINE
8
BLACK
6
CONTINUOUS
10
1.885
20
0.22815
11
1.89423
21
0.227342
0
LINE
8
BLACK
6
CONTINUOUS
10
1.89423
20
0.227342
11
1.90318
21
0.224944
0
LINE
8
BLACK
6
CONTINUOUS
10
1.90318
20
0.224944
11
1.91157
21
0.221029
0
LINE
8
BLACK
6
CONTINUOUS
10
1.91157
20
0.221029
11
1.91916
21
0.215715
0
LINE
8
BLACK
6
CONTINUOUS
10
1.91916
20
0.215715
11
1.92571
21
0.209164
0
LINE
8
BLACK
6
CONTINUOUS
10
1.92571
20
0.209164
11
1.93103
21
0.201575
0
LINE
8
BLACK
6
CONTINUOUS
10
1.93103
20
0.201575
11
1.93494
21
0.193178
0
LINE
8
BLACK
6
CONTINUOUS
10
1.93494
20
0.193178
11
1.93734
21
0.184229
0
LINE
8
BLACK
6
CONTINUOUS
10
1.93734
20
0.184229
11
1.9375
21
0.182425
0
LINE
8
BLACK
6
CONTINUOUS
10
1.9375
20
0.182425
11
1.93766
21
0.184229
0
LINE
8
BLACK
6
CONTINUOUS
10
1.93766
20
0.184229
11
1.94006
21
0.193178
0
LINE
8
BLACK
6
CONTINUOUS
10
1.94006
20
0.193178
11
1.94397
21
0.201575
0
LINE
8
BLACK
6
CONTINUOUS
10
1.94397
20
0.201575
11
1.94929
21
0.209164
0
LINE
8
BLACK
6
CONTINUOUS
10
1.94929
20
0.209164
11
1.95584
21
0.215715
0
LINE
8
BLACK
6
CONTINUOUS
10
1.95584
20
0.215715
11
1.96343
21
0.221029
0
LINE
8
BLACK
6
CONTINUOUS
10
1.96343
20
0.221029
11
1.97182
21
0.224944
0
LINE
8
BLACK
6
CONTINUOUS
10
1.97182
20
0.224944
11
1.98077
21
0.227342
0
LINE
8
BLACK
6
CONTINUOUS
10
1.98077
20
0.227342
11
1.99
21
0.22815
0
LINE
8
BLACK
6
CONTINUOUS
10
1.99
20
0.22815
11
1.99923
21
0.227342
0
LINE
8
BLACK
6
CONTINUOUS
10
1.99923
20
0.227342
11
2.00818
21
0.224944
0
LINE
8
BLACK
6
CONTINUOUS
10
2.00818
20
0.224944
11
2.01657
21
0.221029
0
LINE
8
BLACK
6
CONTINUOUS
10
2.01657
20
0.221029
11
2.02416
21
0.215715
0
LINE
8
BLACK
6
CONTINUOUS
10
2.02416
20
0.215715
11
2.03071
21
0.209164
0
LINE
8
BLACK
6
CONTINUOUS
10
2.03071
20
0.209164
11
2.03603
21
0.201575
0
LINE
8
BLACK
6
CONTINUOUS
10
2.03603
20
0.201575
11
2.03994
21
0.193178
0
LINE
8
BLACK
6
CONTINUOUS
10
2.03994
20
0.193178
11
2.04234
21
0.184229
0
LINE
8
BLACK
6
CONTINUOUS
10
2.04234
20
0.184229
11
2.0425
21
0.182425
0
LINE
8
BLACK
6
CONTINUOUS
10
2.0425
20
0.182425
11
2.04266
21
0.184229
0
LINE
8
BLACK
6
CONTINUOUS
10
2.04266
20
0.184229
11
2.04506
21
0.193178
0
LINE
8
BLACK
6
CONTINUOUS
10
2.04506
20
0.193178
11
2.04897
21
0.201575
0
LINE
8
BLACK
6
CONTINUOUS
10
2.04897
20
0.201575
11
2.05429
21
0.209164
0
LINE
8
BLACK
6
CONTINUOUS
10
2.05429
20
0.209164
11
2.06084
21
0.215715
0
LINE
8
BLACK
6
CONTINUOUS
10
2.06084
20
0.215715
11
2.06843
21
0.221029
0
LINE
8
BLACK
6
CONTINUOUS
10
2.06843
20
0.221029
11
2.07682
21
0.224944
0
LINE
8
BLACK
6
CONTINUOUS
10
2.07682
20
0.224944
11
2.08577
21
0.227342
0
LINE
8
BLACK
6
CONTINUOUS
10
2.08577
20
0.227342
11
2.095
21
0.22815
0
LINE
8
BLACK
6
CONTINUOUS
10
2.095
20
0.22815
11
2.10423
21
0.227342
0
LINE
8
BLACK
6
CONTINUOUS
10
2.10423
20
0.227342
11
2.11318
21
0.224944
0
LINE
8
BLACK
6
CONTINUOUS
10
2.11318
20
0.224944
11
2.12157
21
0.221029
0
LINE
8
BLACK
6
CONTINUOUS
10
2.12157
20
0.221029
11
2.12916
21
0.215715
0
LINE
8
BLACK
6
CONTINUOUS
10
2.12916
20
0.215715
11
2.13571
21
0.209164
0
LINE
8
BLACK
6
CONTINUOUS
10
2.13571
20
0.209164
11
2.14103
21
0.201575
0
LINE
8
BLACK
6
CONTINUOUS
10
2.14103
20
0.201575
11
2.14494
21
0.193178
0
LINE
8
BLACK
6
CONTINUOUS
10
2.14494
20
0.193178
11
2.14734
21
0.184229
0
LINE
8
BLACK
6
CONTINUOUS
10
2.14734
20
0.184229
11
2.1475
21
0.182425
0
LINE
8
BLACK
6
CONTINUOUS
10
2.1475
20
0.182425
11
2.14766
21
0.184229
0
LINE
8
BLACK
6
CONTINUOUS
10
2.14766
20
0.184229
11
2.15006
21
0.193178
0
LINE
8
BLACK
6
CONTINUOUS
10
2.15006
20
0.193178
11
2.15397
21
0.201575
0
LINE
8
BLACK
6
CONTINUOUS
10
2.15397
20
0.201575
11
2.15929
21
0.209164
0
LINE
8
BLACK
6
CONTINUOUS
10
2.15929
20
0.209164
11
2.16584
21
0.215715
0
LINE
8
BLACK
6
CONTINUOUS
10
2.16584
20
0.215715
11
2.17343
21
0.221029
0
LINE
8
BLACK
6
CONTINUOUS
10
2.17343
20
0.221029
11
2.18182
21
0.224944
0
LINE
8
BLACK
6
CONTINUOUS
10
2.18182
20
0.224944
11
2.19077
21
0.227342
0
LINE
8
BLACK
6
CONTINUOUS
10
2.19077
20
0.227342
11
2.2
21
0.22815
0
LINE
8
BLACK
6
CONTINUOUS
10
2.2
20
0.22815
11
2.20923
21
0.227342
0
LINE
8
BLACK
6
CONTINUOUS
10
2.20923
20
0.227342
11
2.21818
21
0.224944
0
LINE
8
BLACK
6
CONTINUOUS
10
2.21818
20
0.224944
11
2.22657
21
0.221029
0
LINE
8
BLACK
6
CONTINUOUS
10
2.22657
20
0.221029
11
2.23416
21
0.215715
0
LINE
8
BLACK
6
CONTINUOUS
10
2.23416
20
0.215715
11
2.24071
21
0.209164
0
LINE
8
BLACK
6
CONTINUOUS
10
2.24071
20
0.209164
11
2.24603
21
0.201575
0
LINE
8
BLACK
6
CONTINUOUS
10
2.24603
20
0.201575
11
2.24994
21
0.193178
0
LINE
8
BLACK
6
CONTINUOUS
10
2.24994
20
0.193178
11
2.25234
21
0.184229
0
LINE
8
BLACK
6
CONTINUOUS
10
2.25234
20
0.184229
11
2.2525
21
0.182425
0
LINE
8
BLACK
6
CONTINUOUS
10
2.2525
20
0.182425
11
2.25266
21
0.184229
0
LINE
8
BLACK
6
CONTINUOUS
10
2.25266
20
0.184229
11
2.25506
21
0.193178
0
LINE
8
BLACK
6
CONTINUOUS
10
2.25506
20
0.193178
11
2.25897
21
0.201575
0
LINE
8
BLACK
6
CONTINUOUS
10
2.25897
20
0.201575
11
2.26429
21
0.209164
0
LINE
8
BLACK
6
CONTINUOUS
10
2.26429
20
0.209164
11
2.27084
21
0.215715
0
LINE
8
BLACK
6
CONTINUOUS
10
2.27084
20
0.215715
11
2.27843
21
0.221029
0
LINE
8
BLACK
6
CONTINUOUS
10
2.27843
20
0.221029
11
2.28682
21
0.224944
0
LINE
8
BLACK
6
CONTINUOUS
10
2.28682
20
0.224944
11
2.29577
21
0.227342
0
LINE
8
BLACK
6
CONTINUOUS
10
2.29577
20
0.227342
11
2.305
21
0.22815
0
LINE
8
BLACK
6
CONTINUOUS
10
2.305
20
0.22815
11
2.31423
21
0.227342
0
LINE
8
BLACK
6
CONTINUOUS
10
2.31423
20
0.227342
11
2.32318
21
0.224944
0
LINE
8
BLACK
6
CONTINUOUS
10
2.32318
20
0.224944
11
2.33157
21
0.221029
0
LINE
8
BLACK
6
CONTINUOUS
10
2.33157
20
0.221029
11
2.33916
21
0.215715
0
LINE
8
BLACK
6
CONTINUOUS
10
2.33916
20
0.215715
11
2.34571
21
0.209164
0
LINE
8
BLACK
6
CONTINUOUS
10
2.34571
20
0.209164
11
2.35103
21
0.201575
0
LINE
8
BLACK
6
CONTINUOUS
10
2.35103
20
0.201575
11
2.35494
21
0.193178
0
LINE
8
BLACK
6
CONTINUOUS
10
2.35494
20
0.193178
11
2.35734
21
0.184229
0
LINE
8
BLACK
6
CONTINUOUS
10
2.35734
20
0.184229
11
2.3575
21
0.182425
0
LINE
8
BLACK
6
CONTINUOUS
10
2.3575
20
0.182425
11
2.35766
21
0.184229
0
LINE
8
BLACK
6
CONTINUOUS
10
2.35766
20
0.184229
11
2.36006
21
0.193178
0
LINE
8
BLACK
6
CONTINUOUS
10
2.36006
20
0.193178
11
2.36397
21
0.201575
0
LINE
8
BLACK
6
CONTINUOUS
10
2.36397
20
0.201575
11
2.36929
21
0.209164
0
LINE
8
BLACK
6
CONTINUOUS
10
2.36929
20
0.209164
11
2.37584
21
0.215715
0
LINE
8
BLACK
6
CONTINUOUS
10
2.37584
20
0.215715
11
2.38343
21
0.221029
0
LINE
8
BLACK
6
CONTINUOUS
10
2.38343
20
0.221029
11
2.39182
21
0.224944
0
LINE
8
BLACK
6
CONTINUOUS
10
2.39182
20
0.224944
11
2.40077
21
0.227342
0
LINE
8
BLACK
6
CONTINUOUS
10
2.40077
20
0.227342
11
2.41
21
0.22815
0
LINE
8
BLACK
6
CONTINUOUS
10
2.41
20
0.22815
11
2.41923
21
0.227342
0
LINE
8
BLACK
6
CONTINUOUS
10
1.48
20
0.22
11
1.42
21
0.22
0
LINE
8
BLACK
6
CONTINUOUS
10
1.42
20
0.22
11
1.42
21
0.28
0
LINE
8
BLACK
6
CONTINUOUS
10
1.42
20
0.28
11
1.48
21
0.28
0
LINE
8
BLACK
6
CONTINUOUS
10
1.48
20
0.28
11
1.48
21
0.22
0
LINE
8
BLACK
6
CONTINUOUS
10
1.58
20
0.22
11
1.52
21
0.22
0
LINE
8
BLACK
6
CONTINUOUS
10
1.52
20
0.22
11
1.52
21
0.28
0
LINE
8
BLACK
6
CONTINUOUS
10
1.52
20
0.28
11
1.58
21
0.28
0
LINE
8
BLACK
6
CONTINUOUS
10
1.58
20
0.28
11
1.58
21
0.22
0
LINE
8
BLACK
6
CONTINUOUS
10
1.38
20
0.22
11
1.32
21
0.22
0
LINE
8
BLACK
6
CONTINUOUS
10
1.32
20
0.22
11
1.32
21
0.28
0
LINE
8
BLACK
6
CONTINUOUS
10
1.32
20
0.28
11
1.38
21
0.28
0
LINE
8
BLACK
6
CONTINUOUS
10
1.38
20
0.28
11
1.38
21
0.22
0
LINE
8
BLACK
6
CONTINUOUS
10
1.28
20
0.22
11
1.22
21
0.22
0
LINE
8
BLACK
6
CONTINUOUS
10
1.22
20
0.22
11
1.22
21
0.28
0
LINE
8
BLACK
6
CONTINUOUS
10
1.22
20
0.28
11
1.28
21
0.28
0
LINE
8
BLACK
6
CONTINUOUS
10
1.28
20
0.28
11
1.28
21
0.22
0
LINE
8
BLACK
6
CONTINUOUS
10
0.66315
20
0.235
11
0.51315
21
0.235
0
LINE
8
BLACK
6
CONTINUOUS
10
0.51315
20
0.235
11
0.51315
21
0.385
0
LINE
8
BLACK
6
CONTINUOUS
10
0.51315
20
0.385
11
0.66315
21
0.385
0
LINE
8
BLACK
6
CONTINUOUS
10
0.66315
20
0.385
11
0.66315
21
0.235
0
LINE
8
BLACK
6
CONTINUOUS
10
0.86
20
0.235
11
0.71
21
0.235
0
LINE
8
BLACK
6
CONTINUOUS
10
0.71
20
0.235
11
0.71
21
0.385
0
LINE
8
BLACK
6
CONTINUOUS
10
0.71
20
0.385
11
0.86
21
0.385
0
LINE
8
BLACK
6
CONTINUOUS
10
0.86
20
0.385
11
0.86
21
0.235
0
LINE
8
BLACK
6
CONTINUOUS
10
2.55398
20
0.275583
11
2.48798
21
0.275583
0
LINE
8
BLACK
6
CONTINUOUS
10
2.48798
20
0.275583
11
2.48798
21
0.341583
0
LINE
8
BLACK
6
CONTINUOUS
10
2.48798
20
0.341583
11
2.55398
21
0.341583
0
LINE
8
BLACK
6
CONTINUOUS
10
2.55398
20
0.341583
11
2.55398
21
0.275583
0
LINE
8
BLACK
6
CONTINUOUS
10
2.80202
20
0.275583
11
2.73602
21
0.275583
0
LINE
8
BLACK
6
CONTINUOUS
10
2.73602
20
0.275583
11
2.73602
21
0.341583
0
LINE
8
BLACK
6
CONTINUOUS
10
2.73602
20
0.341583
11
2.80202
21
0.341583
0
LINE
8
BLACK
6
CONTINUOUS
10
2.80202
20
0.341583
11
2.80202
21
0.275583
0
LINE
8
BLACK
6
CONTINUOUS
10
0.249075
20
0.756339
11
0.0915945
21
0.756339
0
LINE
8
BLACK
6
CONTINUOUS
10
0.0915945
20
0.756339
11
0.0915945
21
0.913819
0
LINE
8
BLACK
6
CONTINUOUS
10
0.0915945
20
0.913819
11
0.249075
21
0.913819
0
LINE
8
BLACK
6
CONTINUOUS
10
0.249075
20
0.913819
11
0.249075
21
0.756339
0
LINE
8
BLACK
6
CONTINUOUS
10
3.10341
20
0.756339
11
2.94593
21
0.756339
0
LINE
8
BLACK
6
CONTINUOUS
10
2.94593
20
0.756339
11
2.94593
21
0.913819
0
LINE
8
BLACK
6
CONTINUOUS
10
2.94593
20
0.913819
11
3.10341
21
0.913819
0
LINE
8
BLACK
6
CONTINUOUS
10
3.10341
20
0.913819
11
3.10341
21
0.756339
0
LINE
8
BLACK
6
CONTINUOUS
10
2.75
20
0.8025
11
2.715
21
0.8025
0
LINE
8
BLACK
6
CONTINUOUS
10
2.715
20
0.8025
11
2.715
21
0.8575
0
LINE
8
BLACK
6
CONTINUOUS
10
2.715
20
0.8575
11
2.75
21
0.8575
0
LINE
8
BLACK
6
CONTINUOUS
10
2.75
20
0.8575
11
2.75
21
0.8025
0
LINE
8
BLACK
6
CONTINUOUS
10
2.675
20
0.8025
11
2.64
21
0.8025
0
LINE
8
BLACK
6
CONTINUOUS
10
2.64
20
0.8025
11
2.64
21
0.8575
0
LINE
8
BLACK
6
CONTINUOUS
10
2.64
20
0.8575
11
2.675
21
0.8575
0
LINE
8
BLACK
6
CONTINUOUS
10
2.675
20
0.8575
11
2.675
21
0.8025
0
LINE
8
BLACK
6
CONTINUOUS
10
0.249075
20
1.51618
11
0.0915945
21
1.51618
0
LINE
8
BLACK
6
CONTINUOUS
10
0.0915945
20
1.51618
11
0.0915945
21
1.67366
0
LINE
8
BLACK
6
CONTINUOUS
10
0.0915945
20
1.67366
11
0.249075
21
1.67366
0
LINE
8
BLACK
6
CONTINUOUS
10
0.249075
20
1.67366
11
0.249075
21
1.51618
0
LINE
8
BLACK
6
CONTINUOUS
10
3.10341
20
1.51618
11
2.94593
21
1.51618
0
LINE
8
BLACK
6
CONTINUOUS
10
2.94593
20
1.51618
11
2.94593
21
1.67366
0
LINE
8
BLACK
6
CONTINUOUS
10
2.94593
20
1.67366
11
3.10341
21
1.67366
0
LINE
8
BLACK
6
CONTINUOUS
10
3.10341
20
1.67366
11
3.10341
21
1.51618
0
LINE
8
BLACK
6
CONTINUOUS
10
0.56
20
1.5625
11
0.525
21
1.5625
0
LINE
8
BLACK
6
CONTINUOUS
10
0.525
20
1.5625
11
0.525
21
1.6175
0
LINE
8
BLACK
6
CONTINUOUS
10
0.525
20
1.6175
11
0.56
21
1.6175
0
LINE
8
BLACK
6
CONTINUOUS
10
0.56
20
1.6175
11
0.56
21
1.5625
0
LINE
8
BLACK
6
CONTINUOUS
10
0.485
20
1.5625
11
0.45
21
1.5625
0
LINE
8
BLACK
6
CONTINUOUS
10
0.45
20
1.5625
11
0.45
21
1.6175
0
LINE
8
BLACK
6
CONTINUOUS
10
0.45
20
1.6175
11
0.485
21
1.6175
0
LINE
8
BLACK
6
CONTINUOUS
10
0.485
20
1.6175
11
0.485
21
1.5625
0
LINE
8
BLACK
6
CONTINUOUS
10
1.04591
20
1.68523
11
1.04905
21
1.68259
0
LINE
8
BLACK
6
CONTINUOUS
10
1.04905
20
1.68259
11
1.0511
21
1.67904
0
LINE
8
BLACK
6
CONTINUOUS
10
1.0511
20
1.67904
11
1.05181
21
1.675
0
LINE
8
BLACK
6
CONTINUOUS
10
1.05181
20
1.675
11
1.0511
21
1.67096
0
LINE
8
BLACK
6
CONTINUOUS
10
1.0511
20
1.67096
11
1.04905
21
1.66741
0
LINE
8
BLACK
6
CONTINUOUS
10
1.04905
20
1.66741
11
1.04591
21
1.66477
0
LINE
8
BLACK
6
CONTINUOUS
10
1.04591
20
1.66477
11
1.04205
21
1.66337
0
LINE
8
BLACK
6
CONTINUOUS
10
1.04205
20
1.66337
11
1.03795
21
1.66337
0
LINE
8
BLACK
6
CONTINUOUS
10
1.03795
20
1.66337
11
1.03409
21
1.66477
0
LINE
8
BLACK
6
CONTINUOUS
10
1.03409
20
1.66477
11
1.03095
21
1.66741
0
LINE
8
BLACK
6
CONTINUOUS
10
1.03095
20
1.66741
11
1.0289
21
1.67096
0
LINE
8
BLACK
6
CONTINUOUS
10
1.0289
20
1.67096
11
1.02819
21
1.675
0
LINE
8
BLACK
6
CONTINUOUS
10
1.02819
20
1.675
11
1.0289
21
1.67904
0
LINE
8
BLACK
6
CONTINUOUS
10
1.0289
20
1.67904
11
1.03095
21
1.68259
0
LINE
8
BLACK
6
CONTINUOUS
10
1.03095
20
1.68259
11
1.03409
21
1.68523
0
LINE
8
BLACK
6
CONTINUOUS
10
1.03409
20
1.68523
11
1.03795
21
1.68663
0
LINE
8
BLACK
6
CONTINUOUS
10
1.03795
20
1.68663
11
1.04205
21
1.68663
0
LINE
8
BLACK
6
CONTINUOUS
10
1.04205
20
1.68663
11
1.04591
21
1.68523
0
LINE
8
BLACK
6
CONTINUOUS
10
1.09591
20
1.68523
11
1.09905
21
1.68259
0
LINE
8
BLACK
6
CONTINUOUS
10
1.09905
20
1.68259
11
1.1011
21
1.67904
0
LINE
8
BLACK
6
CONTINUOUS
10
1.1011
20
1.67904
11
1.10181
21
1.675
0
LINE
8
BLACK
6
CONTINUOUS
10
1.10181
20
1.675
11
1.1011
21
1.67096
0
LINE
8
BLACK
6
CONTINUOUS
10
1.1011
20
1.67096
11
1.09905
21
1.66741
0
LINE
8
BLACK
6
CONTINUOUS
10
1.09905
20
1.66741
11
1.09591
21
1.66477
0
LINE
8
BLACK
6
CONTINUOUS
10
1.09591
20
1.66477
11
1.09205
21
1.66337
0
LINE
8
BLACK
6
CONTINUOUS
10
1.09205
20
1.66337
11
1.08795
21
1.66337
0
LINE
8
BLACK
6
CONTINUOUS
10
1.08795
20
1.66337
11
1.08409
21
1.66477
0
LINE
8
BLACK
6
CONTINUOUS
10
1.08409
20
1.66477
11
1.08095
21
1.66741
0
LINE
8
BLACK
6
CONTINUOUS
10
1.08095
20
1.66741
11
1.0789
21
1.67096
0
LINE
8
BLACK
6
CONTINUOUS
10
1.0789
20
1.67096
11
1.07819
21
1.675
0
LINE
8
BLACK
6
CONTINUOUS
10
1.07819
20
1.675
11
1.0789
21
1.67904
0
LINE
8
BLACK
6
CONTINUOUS
10
1.0789
20
1.67904
11
1.08095
21
1.68259
0
LINE
8
BLACK
6
CONTINUOUS
10
1.08095
20
1.68259
11
1.08409
21
1.68523
0
LINE
8
BLACK
6
CONTINUOUS
10
1.08409
20
1.68523
11
1.08795
21
1.68663
0
LINE
8
BLACK
6
CONTINUOUS
10
1.08795
20
1.68663
11
1.09205
21
1.68663
0
LINE
8
BLACK
6
CONTINUOUS
10
1.09205
20
1.68663
11
1.09591
21
1.68523
0
LINE
8
BLACK
6
CONTINUOUS
10
1.07091
20
1.73023
11
1.07405
21
1.72759
0
LINE
8
BLACK
6
CONTINUOUS
10
1.07405
20
1.72759
11
1.0761
21
1.72404
0
LINE
8
BLACK
6
CONTINUOUS
10
1.0761
20
1.72404
11
1.07681
21
1.72
0
LINE
8
BLACK
6
CONTINUOUS
10
1.07681
20
1.72
11
1.0761
21
1.71596
0
LINE
8
BLACK
6
CONTINUOUS
10
1.0761
20
1.71596
11
1.07405
21
1.71241
0
LINE
8
BLACK
6
CONTINUOUS
10
1.07405
20
1.71241
11
1.07091
21
1.70977
0
LINE
8
BLACK
6
CONTINUOUS
10
1.07091
20
1.70977
11
1.06705
21
1.70837
0
LINE
8
BLACK
6
CONTINUOUS
10
1.06705
20
1.70837
11
1.06295
21
1.70837
0
LINE
8
BLACK
6
CONTINUOUS
10
1.06295
20
1.70837
11
1.05909
21
1.70977
0
LINE
8
BLACK
6
CONTINUOUS
10
1.05909
20
1.70977
11
1.05595
21
1.71241
0
LINE
8
BLACK
6
CONTINUOUS
10
1.05595
20
1.71241
11
1.0539
21
1.71596
0
LINE
8
BLACK
6
CONTINUOUS
10
1.0539
20
1.71596
11
1.05319
21
1.72
0
LINE
8
BLACK
6
CONTINUOUS
10
1.05319
20
1.72
11
1.0539
21
1.72404
0
LINE
8
BLACK
6
CONTINUOUS
10
1.0539
20
1.72404
11
1.05595
21
1.72759
0
LINE
8
BLACK
6
CONTINUOUS
10
1.05595
20
1.72759
11
1.05909
21
1.73023
0
LINE
8
BLACK
6
CONTINUOUS
10
1.05909
20
1.73023
11
1.06295
21
1.73163
0
LINE
8
BLACK
6
CONTINUOUS
10
1.06295
20
1.73163
11
1.06705
21
1.73163
0
LINE
8
BLACK
6
CONTINUOUS
10
1.06705
20
1.73163
11
1.07091
21
1.73023
0
LINE
8
BLACK
6
CONTINUOUS
10
1.09591
20
1.77523
11
1.09905
21
1.77259
0
LINE
8
BLACK
6
CONTINUOUS
10
1.09905
20
1.77259
11
1.1011
21
1.76904
0
LINE
8
BLACK
6
CONTINUOUS
10
1.1011
20
1.76904
11
1.10181
21
1.765
0
LINE
8
BLACK
6
CONTINUOUS
10
1.10181
20
1.765
11
1.1011
21
1.76096
0
LINE
8
BLACK
6
CONTINUOUS
10
1.1011
20
1.76096
11
1.09905
21
1.75741
0
LINE
8
BLACK
6
CONTINUOUS
10
1.09905
20
1.75741
11
1.09591
21
1.75477
0
LINE
8
BLACK
6
CONTINUOUS
10
1.09591
20
1.75477
11
1.09205
21
1.75337
0
LINE
8
BLACK
6
CONTINUOUS
10
1.09205
20
1.75337
11
1.08795
21
1.75337
0
LINE
8
BLACK
6
CONTINUOUS
10
1.08795
20
1.75337
11
1.08409
21
1.75477
0
LINE
8
BLACK
6
CONTINUOUS
10
1.08409
20
1.75477
11
1.08095
21
1.75741
0
LINE
8
BLACK
6
CONTINUOUS
10
1.08095
20
1.75741
11
1.0789
21
1.76096
0
LINE
8
BLACK
6
CONTINUOUS
10
1.0789
20
1.76096
11
1.07819
21
1.765
0
LINE
8
BLACK
6
CONTINUOUS
10
1.07819
20
1.765
11
1.0789
21
1.76904
0
LINE
8
BLACK
6
CONTINUOUS
10
1.0789
20
1.76904
11
1.08095
21
1.77259
0
LINE
8
BLACK
6
CONTINUOUS
10
1.08095
20
1.77259
11
1.08409
21
1.77523
0
LINE
8
BLACK
6
CONTINUOUS
10
1.08409
20
1.77523
11
1.08795
21
1.77663
0
LINE
8
BLACK
6
CONTINUOUS
10
1.08795
20
1.77663
11
1.09205
21
1.77663
0
LINE
8
BLACK
6
CONTINUOUS
10
1.09205
20
1.77663
11
1.09591
21
1.77523
0
LINE
8
BLACK
6
CONTINUOUS
10
1.04591
20
1.77523
11
1.04905
21
1.77259
0
LINE
8
BLACK
6
CONTINUOUS
10
1.04905
20
1.77259
11
1.0511
21
1.76904
0
LINE
8
BLACK
6
CONTINUOUS
10
1.0511
20
1.76904
11
1.05181
21
1.765
0
LINE
8
BLACK
6
CONTINUOUS
10
1.05181
20
1.765
11
1.0511
21
1.76096
0
LINE
8
BLACK
6
CONTINUOUS
10
1.0511
20
1.76096
11
1.04905
21
1.75741
0
LINE
8
BLACK
6
CONTINUOUS
10
1.04905
20
1.75741
11
1.04591
21
1.75477
0
LINE
8
BLACK
6
CONTINUOUS
10
1.04591
20
1.75477
11
1.04205
21
1.75337
0
LINE
8
BLACK
6
CONTINUOUS
10
1.04205
20
1.75337
11
1.03795
21
1.75337
0
LINE
8
BLACK
6
CONTINUOUS
10
1.03795
20
1.75337
11
1.03409
21
1.75477
0
LINE
8
BLACK
6
CONTINUOUS
10
1.03409
20
1.75477
11
1.03095
21
1.75741
0
LINE
8
BLACK
6
CONTINUOUS
10
1.03095
20
1.75741
11
1.0289
21
1.76096
0
LINE
8
BLACK
6
CONTINUOUS
10
1.0289
20
1.76096
11
1.02819
21
1.765
0
LINE
8
BLACK
6
CONTINUOUS
10
1.02819
20
1.765
11
1.0289
21
1.76904
0
LINE
8
BLACK
6
CONTINUOUS
10
1.0289
20
1.76904
11
1.03095
21
1.77259
0
LINE
8
BLACK
6
CONTINUOUS
10
1.03095
20
1.77259
11
1.03409
21
1.77523
0
LINE
8
BLACK
6
CONTINUOUS
10
1.03409
20
1.77523
11
1.03795
21
1.77663
0
LINE
8
BLACK
6
CONTINUOUS
10
1.03795
20
1.77663
11
1.04205
21
1.77663
0
LINE
8
BLACK
6
CONTINUOUS
10
1.04205
20
1.77663
11
1.04591
21
1.77523
0
LINE
8
BLACK
6
CONTINUOUS
10
2.705
20
2.035
11
2.645
21
2.035
0
LINE
8
BLACK
6
CONTINUOUS
10
2.645
20
2.035
11
2.645
21
2.095
0
LINE
8
BLACK
6
CONTINUOUS
10
2.645
20
2.095
11
2.705
21
2.095
0
LINE
8
BLACK
6
CONTINUOUS
10
2.705
20
2.095
11
2.705
21
2.035
0
LINE
8
BLACK
6
CONTINUOUS
10
2.605
20
2.035
11
2.545
21
2.035
0
LINE
8
BLACK
6
CONTINUOUS
10
2.545
20
2.035
11
2.545
21
2.095
0
LINE
8
BLACK
6
CONTINUOUS
10
2.545
20
2.095
11
2.605
21
2.095
0
LINE
8
BLACK
6
CONTINUOUS
10
2.605
20
2.095
11
2.605
21
2.035
0
LINE
8
BLACK
6
CONTINUOUS
10
2.505
20
2.035
11
2.445
21
2.035
0
LINE
8
BLACK
6
CONTINUOUS
10
2.445
20
2.035
11
2.445
21
2.095
0
LINE
8
BLACK
6
CONTINUOUS
10
2.445
20
2.095
11
2.505
21
2.095
0
LINE
8
BLACK
6
CONTINUOUS
10
2.505
20
2.095
11
2.505
21
2.035
0
LINE
8
BLACK
6
CONTINUOUS
10
2.805
20
2.035
11
2.745
21
2.035
0
LINE
8
BLACK
6
CONTINUOUS
10
2.745
20
2.035
11
2.745
21
2.095
0
LINE
8
BLACK
6
CONTINUOUS
10
2.745
20
2.095
11
2.805
21
2.095
0
LINE
8
BLACK
6
CONTINUOUS
10
2.805
20
2.095
11
2.805
21
2.035
0
LINE
8
BLACK
6
CONTINUOUS
10
0.20865
20
2.31779
11
0.222132
21
2.31602
0
LINE
8
BLACK
6
CONTINUOUS
10
0.222132
20
2.31602
11
0.23532
21
2.31271
0
LINE
8
BLACK
6
CONTINUOUS
10
0.23532
20
2.31271
11
0.24804
21
2.3079
0
LINE
8
BLACK
6
CONTINUOUS
10
0.24804
20
2.3079
11
0.260123
21
2.30166
0
LINE
8
BLACK
6
CONTINUOUS
10
0.260123
20
2.30166
11
0.271409
21
2.29408
0
LINE
8
BLACK
6
CONTINUOUS
10
0.271409
20
2.29408
11
0.281749
21
2.28525
0
LINE
8
BLACK
6
CONTINUOUS
10
0.281749
20
2.28525
11
0.291006
21
2.27529
0
LINE
8
BLACK
6
CONTINUOUS
10
0.291006
20
2.27529
11
0.299056
21
2.26433
0
LINE
8
BLACK
6
CONTINUOUS
10
0.299056
20
2.26433
11
0.305793
21
2.25252
0
LINE
8
BLACK
6
CONTINUOUS
10
0.305793
20
2.25252
11
0.311128
21
2.24001
0
LINE
8
BLACK
6
CONTINUOUS
10
0.311128
20
2.24001
11
0.31499
21
2.22697
0
LINE
8
BLACK
6
CONTINUOUS
10
0.31499
20
2.22697
11
0.317327
21
2.21358
0
LINE
8
BLACK
6
CONTINUOUS
10
0.317327
20
2.21358
11
0.31811
21
2.2
0
LINE
8
BLACK
6
CONTINUOUS
10
0.31811
20
2.2
11
0.317877
21
2.19258
0
LINE
8
BLACK
6
CONTINUOUS
10
0.317877
20
2.19258
11
0.316244
21
2.17908
0
LINE
8
BLACK
6
CONTINUOUS
10
0.316244
20
2.17908
11
0.313069
21
2.16586
0
LINE
8
BLACK
6
CONTINUOUS
10
0.313069
20
2.16586
11
0.308396
21
2.15309
0
LINE
8
BLACK
6
CONTINUOUS
10
0.308396
20
2.15309
11
0.302286
21
2.14094
0
LINE
8
BLACK
6
CONTINUOUS
10
0.302286
20
2.14094
11
0.294821
21
2.12958
0
LINE
8
BLACK
6
CONTINUOUS
10
0.294821
20
2.12958
11
0.286099
21
2.11915
0
LINE
8
BLACK
6
CONTINUOUS
10
0.286099
20
2.11915
11
0.276235
21
2.10979
0
LINE
8
BLACK
6
CONTINUOUS
10
0.276235
20
2.10979
11
0.265361
21
2.10162
0
LINE
8
BLACK
6
CONTINUOUS
10
0.265361
20
2.10162
11
0.253621
21
2.09476
0
LINE
8
BLACK
6
CONTINUOUS
10
0.253621
20
2.09476
11
0.24117
21
2.0893
0
LINE
8
BLACK
6
CONTINUOUS
10
0.24117
20
2.0893
11
0.228173
21
2.0853
0
LINE
8
BLACK
6
CONTINUOUS
10
0.228173
20
2.0853
11
0.214803
21
2.08282
0
LINE
8
BLACK
6
CONTINUOUS
10
0.214803
20
2.08282
11
0.201237
21
2.0819
0
LINE
8
BLACK
6
CONTINUOUS
10
0.201237
20
2.0819
11
0.187654
21
2.08254
0
LINE
8
BLACK
6
CONTINUOUS
10
0.187654
20
2.08254
11
0.174235
21
2.08473
0
LINE
8
BLACK
6
CONTINUOUS
10
0.174235
20
2.08473
11
0.161157
21
2.08846
0
LINE
8
BLACK
6
CONTINUOUS
10
0.161157
20
2.08846
11
0.148595
21
2.09366
0
LINE
8
BLACK
6
CONTINUOUS
10
0.148595
20
2.09366
11
0.136713
21
2.10028
0
LINE
8
BLACK
6
CONTINUOUS
10
0.136713
20
2.10028
11
0.125671
21
2.10821
0
LINE
8
BLACK
6
CONTINUOUS
10
0.125671
20
2.10821
11
0.115613
21
2.11736
0
LINE
8
BLACK
6
CONTINUOUS
10
0.115613
20
2.11736
11
0.106675
21
2.12761
0
LINE
8
BLACK
6
CONTINUOUS
10
0.106675
20
2.12761
11
0.0989727
21
2.13882
0
LINE
8
BLACK
6
CONTINUOUS
10
0.0989727
20
2.13882
11
0.0926099
21
2.15083
0
LINE
8
BLACK
6
CONTINUOUS
10
0.0926099
20
2.15083
11
0.0876705
21
2.1635
0
LINE
8
BLACK
6
CONTINUOUS
10
0.0876705
20
2.1635
11
0.0842199
21
2.17665
0
LINE
8
BLACK
6
CONTINUOUS
10
0.0842199
20
2.17665
11
0.082304
21
2.19012
0
LINE
8
BLACK
6
CONTINUOUS
10
0.082304
20
2.19012
11
0.081948
21
2.20371
0
LINE
8
BLACK
6
CONTINUOUS
10
0.081948
20
2.20371
11
0.0831568
21
2.21725
0
LINE
8
BLACK
6
CONTINUOUS
10
0.0831568
20
2.21725
11
0.0859143
21
2.23057
0
LINE
8
BLACK
6
CONTINUOUS
10
0.0859143
20
2.23057
11
0.0901839
21
2.24348
0
LINE
8
BLACK
6
CONTINUOUS
10
0.0901839
20
2.24348
11
0.0959091
21
2.25581
0
LINE
8
BLACK
6
CONTINUOUS
10
0.0959091
20
2.25581
11
0.103014
21
2.26741
0
LINE
8
BLACK
6
CONTINUOUS
10
0.103014
20
2.26741
11
0.111404
21
2.27811
0
LINE
8
BLACK
6
CONTINUOUS
10
0.111404
20
2.27811
11
0.120969
21
2.28777
0
LINE
8
BLACK
6
CONTINUOUS
10
0.120969
20
2.28777
11
0.131581
21
2.29627
0
LINE
8
BLACK
6
CONTINUOUS
10
0.131581
20
2.29627
11
0.1431
21
2.3035
0
LINE
8
BLACK
6
CONTINUOUS
10
0.1431
20
2.3035
11
0.155373
21
2.30935
0
LINE
8
BLACK
6
CONTINUOUS
10
0.155373
20
2.30935
11
0.168238
21
2.31376
0
LINE
8
BLACK
6
CONTINUOUS
10
0.168238
20
2.31376
11
0.181524
21
2.31666
0
LINE
8
BLACK
6
CONTINUOUS
10
0.181524
20
2.31666
11
0.195054
21
2.31801
0
LINE
8
BLACK
6
CONTINUOUS
10
0.195054
20
2.31801
11
0.20865
21
2.31779
0
LINE
8
BLACK
6
CONTINUOUS
10
3.00865
20
2.31779
11
3.02213
21
2.31602
0
LINE
8
BLACK
6
CONTINUOUS
10
3.02213
20
2.31602
11
3.03532
21
2.31271
0
LINE
8
BLACK
6
CONTINUOUS
10
3.03532
20
2.31271
11
3.04804
21
2.3079
0
LINE
8
BLACK
6
CONTINUOUS
10
3.04804
20
2.3079
11
3.06012
21
2.30166
0
LINE
8
BLACK
6
CONTINUOUS
10
3.06012
20
2.30166
11
3.07141
21
2.29408
0
LINE
8
BLACK
6
CONTINUOUS
10
3.07141
20
2.29408
11
3.08175
21
2.28525
0
LINE
8
BLACK
6
CONTINUOUS
10
3.08175
20
2.28525
11
3.09101
21
2.27529
0
LINE
8
BLACK
6
CONTINUOUS
10
3.09101
20
2.27529
11
3.09906
21
2.26433
0
LINE
8
BLACK
6
CONTINUOUS
10
3.09906
20
2.26433
11
3.10579
21
2.25252
0
LINE
8
BLACK
6
CONTINUOUS
10
3.10579
20
2.25252
11
3.11113
21
2.24001
0
LINE
8
BLACK
6
CONTINUOUS
10
3.11113
20
2.24001
11
3.11499
21
2.22697
0
LINE
8
BLACK
6
CONTINUOUS
10
3.11499
20
2.22697
11
3.11733
21
2.21358
0
LINE
8
BLACK
6
CONTINUOUS
10
3.11733
20
2.21358
11
3.11811
21
2.2
0
LINE
8
BLACK
6
CONTINUOUS
10
3.11811
20
2.2
11
3.11788
21
2.19258
0
LINE
8
BLACK
6
CONTINUOUS
10
3.11788
20
2.19258
11
3.11624
21
2.17908
0
LINE
8
BLACK
6
CONTINUOUS
10
3.11624
20
2.17908
11
3.11307
21
2.16586
0
LINE
8
BLACK
6
CONTINUOUS
10
3.11307
20
2.16586
11
3.1084
21
2.15309
0
LINE
8
BLACK
6
CONTINUOUS
10
3.1084
20
2.15309
11
3.10229
21
2.14094
0
LINE
8
BLACK
6
CONTINUOUS
10
3.10229
20
2.14094
11
3.09482
21
2.12958
0
LINE
8
BLACK
6
CONTINUOUS
10
3.09482
20
2.12958
11
3.0861
21
2.11915
0
LINE
8
BLACK
6
CONTINUOUS
10
3.0861
20
2.11915
11
3.07624
21
2.10979
0
LINE
8
BLACK
6
CONTINUOUS
10
3.07624
20
2.10979
11
3.06536
21
2.10162
0
LINE
8
BLACK
6
CONTINUOUS
10
3.06536
20
2.10162
11
3.05362
21
2.09476
0
LINE
8
BLACK
6
CONTINUOUS
10
3.05362
20
2.09476
11
3.04117
21
2.0893
0
LINE
8
BLACK
6
CONTINUOUS
10
3.04117
20
2.0893
11
3.02817
21
2.0853
0
LINE
8
BLACK
6
CONTINUOUS
10
3.02817
20
2.0853
11
3.0148
21
2.08282
0
LINE
8
BLACK
6
CONTINUOUS
10
3.0148
20
2.08282
11
3.00124
21
2.0819
0
LINE
8
BLACK
6
CONTINUOUS
10
3.00124
20
2.0819
11
2.98765
21
2.08254
0
LINE
8
BLACK
6
CONTINUOUS
10
2.98765
20
2.08254
11
2.97424
21
2.08473
0
LINE
8
BLACK
6
CONTINUOUS
10
2.97424
20
2.08473
11
2.96116
21
2.08846
0
LINE
8
BLACK
6
CONTINUOUS
10
2.96116
20
2.08846
11
2.94859
21
2.09366
0
LINE
8
BLACK
6
CONTINUOUS
10
2.94859
20
2.09366
11
2.93671
21
2.10028
0
LINE
8
BLACK
6
CONTINUOUS
10
2.93671
20
2.10028
11
2.92567
21
2.10821
0
LINE
8
BLACK
6
CONTINUOUS
10
2.92567
20
2.10821
11
2.91561
21
2.11736
0
LINE
8
BLACK
6
CONTINUOUS
10
2.91561
20
2.11736
11
2.90667
21
2.12761
0
LINE
8
BLACK
6
CONTINUOUS
10
2.90667
20
2.12761
11
2.89897
21
2.13882
0
LINE
8
BLACK
6
CONTINUOUS
10
2.89897
20
2.13882
11
2.89261
21
2.15083
0
LINE
8
BLACK
6
CONTINUOUS
10
2.89261
20
2.15083
11
2.88767
21
2.1635
0
LINE
8
BLACK
6
CONTINUOUS
10
2.88767
20
2.1635
11
2.88422
21
2.17665
0
LINE
8
BLACK
6
CONTINUOUS
10
2.88422
20
2.17665
11
2.8823
21
2.19012
0
LINE
8
BLACK
6
CONTINUOUS
10
2.8823
20
2.19012
11
2.88195
21
2.20371
0
LINE
8
BLACK
6
CONTINUOUS
10
2.88195
20
2.20371
11
2.88316
21
2.21725
0
LINE
8
BLACK
6
CONTINUOUS
10
2.88316
20
2.21725
11
2.88591
21
2.23057
0
LINE
8
BLACK
6
CONTINUOUS
10
2.88591
20
2.23057
11
2.89018
21
2.24348
0
LINE
8
BLACK
6
CONTINUOUS
10
2.89018
20
2.24348
11
2.89591
21
2.25581
0
LINE
8
BLACK
6
CONTINUOUS
10
2.89591
20
2.25581
11
2.90301
21
2.26741
0
LINE
8
BLACK
6
CONTINUOUS
10
2.90301
20
2.26741
11
2.9114
21
2.27811
0
LINE
8
BLACK
6
CONTINUOUS
10
2.9114
20
2.27811
11
2.92097
21
2.28777
0
LINE
8
BLACK
6
CONTINUOUS
10
2.92097
20
2.28777
11
2.93158
21
2.29627
0
LINE
8
BLACK
6
CONTINUOUS
10
2.93158
20
2.29627
11
2.9431
21
2.3035
0
LINE
8
BLACK
6
CONTINUOUS
10
2.9431
20
2.3035
11
2.95537
21
2.30935
0
LINE
8
BLACK
6
CONTINUOUS
10
2.95537
20
2.30935
11
2.96824
21
2.31376
0
LINE
8
BLACK
6
CONTINUOUS
10
2.96824
20
2.31376
11
2.98152
21
2.31666
0
LINE
8
BLACK
6
CONTINUOUS
10
2.98152
20
2.31666
11
2.99505
21
2.31801
0
LINE
8
BLACK
6
CONTINUOUS
10
2.99505
20
2.31801
11
3.00865
21
2.31779
0
LINE
8
BLACK
6
CONTINUOUS
10
2.18
20
2.11
11
2.12
21
2.11
0
LINE
8
BLACK
6
CONTINUOUS
10
2.12
20
2.11
11
2.12
21
2.17
0
LINE
8
BLACK
6
CONTINUOUS
10
2.12
20
2.17
11
2.18
21
2.17
0
LINE
8
BLACK
6
CONTINUOUS
10
2.18
20
2.17
11
2.18
21
2.11
0
LINE
8
BLACK
6
CONTINUOUS
10
1.76
20
2.11
11
1.7
21
2.11
0
LINE
8
BLACK
6
CONTINUOUS
10
1.7
20
2.11
11
1.7
21
2.17
0
LINE
8
BLACK
6
CONTINUOUS
10
1.7
20
2.17
11
1.76
21
2.17
0
LINE
8
BLACK
6
CONTINUOUS
10
1.76
20
2.17
11
1.76
21
2.11
0
LINE
8
BLACK
6
CONTINUOUS
10
2.08
20
2.11
11
2.02
21
2.11
0
LINE
8
BLACK
6
CONTINUOUS
10
2.02
20
2.11
11
2.02
21
2.17
0
LINE
8
BLACK
6
CONTINUOUS
10
2.02
20
2.17
11
2.08
21
2.17
0
LINE
8
BLACK
6
CONTINUOUS
10
2.08
20
2.17
11
2.08
21
2.11
0
LINE
8
BLACK
6
CONTINUOUS
10
1.56
20
2.11
11
1.5
21
2.11
0
LINE
8
BLACK
6
CONTINUOUS
10
1.5
20
2.11
11
1.5
21
2.17
0
LINE
8
BLACK
6
CONTINUOUS
10
1.5
20
2.17
11
1.56
21
2.17
0
LINE
8
BLACK
6
CONTINUOUS
10
1.56
20
2.17
11
1.56
21
2.11
0
LINE
8
BLACK
6
CONTINUOUS
10
2.28
20
2.11
11
2.22
21
2.11
0
LINE
8
BLACK
6
CONTINUOUS
10
2.22
20
2.11
11
2.22
21
2.17
0
LINE
8
BLACK
6
CONTINUOUS
10
2.22
20
2.17
11
2.28
21
2.17
0
LINE
8
BLACK
6
CONTINUOUS
10
2.28
20
2.17
11
2.28
21
2.11
0
LINE
8
BLACK
6
CONTINUOUS
10
1.86
20
2.11
11
1.8
21
2.11
0
LINE
8
BLACK
6
CONTINUOUS
10
1.8
20
2.11
11
1.8
21
2.17
0
LINE
8
BLACK
6
CONTINUOUS
10
1.8
20
2.17
11
1.86
21
2.17
0
LINE
8
BLACK
6
CONTINUOUS
10
1.86
20
2.17
11
1.86
21
2.11
0
LINE
8
BLACK
6
CONTINUOUS
10
2.38
20
2.11
11
2.32
21
2.11
0
LINE
8
BLACK
6
CONTINUOUS
10
2.32
20
2.11
11
2.32
21
2.17
0
LINE
8
BLACK
6
CONTINUOUS
10
2.32
20
2.17
11
2.38
21
2.17
0
LINE
8
BLACK
6
CONTINUOUS
10
2.38
20
2.17
11
2.38
21
2.11
0
LINE
8
BLACK
6
CONTINUOUS
10
1.96
20
2.11
11
1.9
21
2.11
0
LINE
8
BLACK
6
CONTINUOUS
10
1.9
20
2.11
11
1.9
21
2.17
0
LINE
8
BLACK
6
CONTINUOUS
10
1.9
20
2.17
11
1.96
21
2.17
0
LINE
8
BLACK
6
CONTINUOUS
10
1.96
20
2.17
11
1.96
21
2.11
0
LINE
8
BLACK
6
CONTINUOUS
10
1.66
20
2.11
11
1.6
21
2.11
0
LINE
8
BLACK
6
CONTINUOUS
10
1.6
20
2.11
11
1.6
21
2.17
0
LINE
8
BLACK
6
CONTINUOUS
10
1.6
20
2.17
11
1.66
21
2.17
0
LINE
8
BLACK
6
CONTINUOUS
10
1.66
20
2.17
11
1.66
21
2.11
0
LINE
8
BLACK
6
CONTINUOUS
10
0.8
20
2.12
11
0.74
21
2.12
0
LINE
8
BLACK
6
CONTINUOUS
10
0.74
20
2.12
11
0.74
21
2.18
0
LINE
8
BLACK
6
CONTINUOUS
10
0.74
20
2.18
11
0.8
21
2.18
0
LINE
8
BLACK
6
CONTINUOUS
10
0.8
20
2.18
11
0.8
21
2.12
0
LINE
8
BLACK
6
CONTINUOUS
10
0.5
20
2.12
11
0.44
21
2.12
0
LINE
8
BLACK
6
CONTINUOUS
10
0.44
20
2.12
11
0.44
21
2.18
0
LINE
8
BLACK
6
CONTINUOUS
10
0.44
20
2.18
11
0.5
21
2.18
0
LINE
8
BLACK
6
CONTINUOUS
10
0.5
20
2.18
11
0.5
21
2.12
0
LINE
8
BLACK
6
CONTINUOUS
10
0.6
20
2.12
11
0.54
21
2.12
0
LINE
8
BLACK
6
CONTINUOUS
10
0.54
20
2.12
11
0.54
21
2.18
0
LINE
8
BLACK
6
CONTINUOUS
10
0.54
20
2.18
11
0.6
21
2.18
0
LINE
8
BLACK
6
CONTINUOUS
10
0.6
20
2.18
11
0.6
21
2.12
0
LINE
8
BLACK
6
CONTINUOUS
10
0.7
20
2.12
11
0.64
21
2.12
0
LINE
8
BLACK
6
CONTINUOUS
10
0.64
20
2.12
11
0.64
21
2.18
0
LINE
8
BLACK
6
CONTINUOUS
10
0.64
20
2.18
11
0.7
21
2.18
0
LINE
8
BLACK
6
CONTINUOUS
10
0.7
20
2.18
11
0.7
21
2.12
0
LINE
8
BLACK
6
CONTINUOUS
10
2.605
20
2.135
11
2.545
21
2.135
0
LINE
8
BLACK
6
CONTINUOUS
10
2.545
20
2.135
11
2.545
21
2.195
0
LINE
8
BLACK
6
CONTINUOUS
10
2.545
20
2.195
11
2.605
21
2.195
0
LINE
8
BLACK
6
CONTINUOUS
10
2.605
20
2.195
11
2.605
21
2.135
0
LINE
8
BLACK
6
CONTINUOUS
10
2.805
20
2.135
11
2.745
21
2.135
0
LINE
8
BLACK
6
CONTINUOUS
10
2.745
20
2.135
11
2.745
21
2.195
0
LINE
8
BLACK
6
CONTINUOUS
10
2.745
20
2.195
11
2.805
21
2.195
0
LINE
8
BLACK
6
CONTINUOUS
10
2.805
20
2.195
11
2.805
21
2.135
0
LINE
8
BLACK
6
CONTINUOUS
10
2.505
20
2.135
11
2.445
21
2.135
0
LINE
8
BLACK
6
CONTINUOUS
10
2.445
20
2.135
11
2.445
21
2.195
0
LINE
8
BLACK
6
CONTINUOUS
10
2.445
20
2.195
11
2.505
21
2.195
0
LINE
8
BLACK
6
CONTINUOUS
10
2.505
20
2.195
11
2.505
21
2.135
0
LINE
8
BLACK
6
CONTINUOUS
10
2.705
20
2.135
11
2.645
21
2.135
0
LINE
8
BLACK
6
CONTINUOUS
10
2.645
20
2.135
11
2.645
21
2.195
0
LINE
8
BLACK
6
CONTINUOUS
10
2.645
20
2.195
11
2.705
21
2.195
0
LINE
8
BLACK
6
CONTINUOUS
10
2.705
20
2.195
11
2.705
21
2.135
0
LINE
8
BLACK
6
CONTINUOUS
10
1.38423
20
2.25234
11
1.39318
21
2.24994
0
LINE
8
BLACK
6
CONTINUOUS
10
1.39318
20
2.24994
11
1.40157
21
2.24603
0
LINE
8
BLACK
6
CONTINUOUS
10
1.40157
20
2.24603
11
1.40916
21
2.24071
0
LINE
8
BLACK
6
CONTINUOUS
10
1.40916
20
2.24071
11
1.41571
21
2.23416
0
LINE
8
BLACK
6
CONTINUOUS
10
1.41571
20
2.23416
11
1.42103
21
2.22657
0
LINE
8
BLACK
6
CONTINUOUS
10
1.42103
20
2.22657
11
1.42494
21
2.21818
0
LINE
8
BLACK
6
CONTINUOUS
10
1.42494
20
2.21818
11
1.42734
21
2.20923
0
LINE
8
BLACK
6
CONTINUOUS
10
1.42734
20
2.20923
11
1.42815
21
2.2
0
LINE
8
BLACK
6
CONTINUOUS
10
1.42815
20
2.2
11
1.42734
21
2.19077
0
LINE
8
BLACK
6
CONTINUOUS
10
1.42734
20
2.19077
11
1.42494
21
2.18182
0
LINE
8
BLACK
6
CONTINUOUS
10
1.42494
20
2.18182
11
1.42103
21
2.17343
0
LINE
8
BLACK
6
CONTINUOUS
10
1.42103
20
2.17343
11
1.41571
21
2.16584
0
LINE
8
BLACK
6
CONTINUOUS
10
1.41571
20
2.16584
11
1.40916
21
2.15929
0
LINE
8
BLACK
6
CONTINUOUS
10
1.40916
20
2.15929
11
1.40157
21
2.15397
0
LINE
8
BLACK
6
CONTINUOUS
10
1.40157
20
2.15397
11
1.39318
21
2.15006
0
LINE
8
BLACK
6
CONTINUOUS
10
1.39318
20
2.15006
11
1.38423
21
2.14766
0
LINE
8
BLACK
6
CONTINUOUS
10
1.38423
20
2.14766
11
1.375
21
2.14685
0
LINE
8
BLACK
6
CONTINUOUS
10
1.375
20
2.14685
11
1.36577
21
2.14766
0
LINE
8
BLACK
6
CONTINUOUS
10
1.36577
20
2.14766
11
1.35682
21
2.15006
0
LINE
8
BLACK
6
CONTINUOUS
10
1.35682
20
2.15006
11
1.34843
21
2.15397
0
LINE
8
BLACK
6
CONTINUOUS
10
1.34843
20
2.15397
11
1.34084
21
2.15929
0
LINE
8
BLACK
6
CONTINUOUS
10
1.34084
20
2.15929
11
1.33429
21
2.16584
0
LINE
8
BLACK
6
CONTINUOUS
10
1.33429
20
2.16584
11
1.32897
21
2.17343
0
LINE
8
BLACK
6
CONTINUOUS
10
1.32897
20
2.17343
11
1.32506
21
2.18182
0
LINE
8
BLACK
6
CONTINUOUS
10
1.32506
20
2.18182
11
1.32266
21
2.19077
0
LINE
8
BLACK
6
CONTINUOUS
10
1.32266
20
2.19077
11
1.32185
21
2.2
0
LINE
8
BLACK
6
CONTINUOUS
10
1.32185
20
2.2
11
1.32266
21
2.20923
0
LINE
8
BLACK
6
CONTINUOUS
10
1.32266
20
2.20923
11
1.32506
21
2.21818
0
LINE
8
BLACK
6
CONTINUOUS
10
1.32506
20
2.21818
11
1.32897
21
2.22657
0
LINE
8
BLACK
6
CONTINUOUS
10
1.32897
20
2.22657
11
1.33429
21
2.23416
0
LINE
8
BLACK
6
CONTINUOUS
10
1.33429
20
2.23416
11
1.34084
21
2.24071
0
LINE
8
BLACK
6
CONTINUOUS
10
1.34084
20
2.24071
11
1.34843
21
2.24603
0
LINE
8
BLACK
6
CONTINUOUS
10
1.34843
20
2.24603
11
1.35682
21
2.24994
0
LINE
8
BLACK
6
CONTINUOUS
10
1.35682
20
2.24994
11
1.36577
21
2.25234
0
LINE
8
BLACK
6
CONTINUOUS
10
1.36577
20
2.25234
11
1.375
21
2.25315
0
LINE
8
BLACK
6
CONTINUOUS
10
1.375
20
2.25315
11
1.38423
21
2.25234
0
LINE
8
BLACK
6
CONTINUOUS
10
0.984229
20
2.25234
11
0.993178
21
2.24994
0
LINE
8
BLACK
6
CONTINUOUS
10
0.993178
20
2.24994
11
1.00157
21
2.24603
0
LINE
8
BLACK
6
CONTINUOUS
10
1.00157
20
2.24603
11
1.00916
21
2.24071
0
LINE
8
BLACK
6
CONTINUOUS
10
1.00916
20
2.24071
11
1.01571
21
2.23416
0
LINE
8
BLACK
6
CONTINUOUS
10
1.01571
20
2.23416
11
1.02103
21
2.22657
0
LINE
8
BLACK
6
CONTINUOUS
10
1.02103
20
2.22657
11
1.02494
21
2.21818
0
LINE
8
BLACK
6
CONTINUOUS
10
1.02494
20
2.21818
11
1.02734
21
2.20923
0
LINE
8
BLACK
6
CONTINUOUS
10
1.02734
20
2.20923
11
1.02815
21
2.2
0
LINE
8
BLACK
6
CONTINUOUS
10
1.02815
20
2.2
11
1.02734
21
2.19077
0
LINE
8
BLACK
6
CONTINUOUS
10
1.02734
20
2.19077
11
1.02494
21
2.18182
0
LINE
8
BLACK
6
CONTINUOUS
10
1.02494
20
2.18182
11
1.02103
21
2.17343
0
LINE
8
BLACK
6
CONTINUOUS
10
1.02103
20
2.17343
11
1.01571
21
2.16584
0
LINE
8
BLACK
6
CONTINUOUS
10
1.01571
20
2.16584
11
1.00916
21
2.15929
0
LINE
8
BLACK
6
CONTINUOUS
10
1.00916
20
2.15929
11
1.00157
21
2.15397
0
LINE
8
BLACK
6
CONTINUOUS
10
1.00157
20
2.15397
11
0.993178
21
2.15006
0
LINE
8
BLACK
6
CONTINUOUS
10
0.993178
20
2.15006
11
0.984229
21
2.14766
0
LINE
8
BLACK
6
CONTINUOUS
10
0.984229
20
2.14766
11
0.975
21
2.14685
0
LINE
8
BLACK
6
CONTINUOUS
10
0.975
20
2.14685
11
0.965771
21
2.14766
0
LINE
8
BLACK
6
CONTINUOUS
10
0.965771
20
2.14766
11
0.956822
21
2.15006
0
LINE
8
BLACK
6
CONTINUOUS
10
0.956822
20
2.15006
11
0.948425
21
2.15397
0
LINE
8
BLACK
6
CONTINUOUS
10
0.948425
20
2.15397
11
0.940836
21
2.15929
0
LINE
8
BLACK
6
CONTINUOUS
10
0.940836
20
2.15929
11
0.934285
21
2.16584
0
LINE
8
BLACK
6
CONTINUOUS
10
0.934285
20
2.16584
11
0.928971
21
2.17343
0
LINE
8
BLACK
6
CONTINUOUS
10
0.928971
20
2.17343
11
0.925056
21
2.18182
0
LINE
8
BLACK
6
CONTINUOUS
10
0.925056
20
2.18182
11
0.922658
21
2.19077
0
LINE
8
BLACK
6
CONTINUOUS
10
0.922658
20
2.19077
11
0.92185
21
2.2
0
LINE
8
BLACK
6
CONTINUOUS
10
0.92185
20
2.2
11
0.922658
21
2.20923
0
LINE
8
BLACK
6
CONTINUOUS
10
0.922658
20
2.20923
11
0.925056
21
2.21818
0
LINE
8
BLACK
6
CONTINUOUS
10
0.925056
20
2.21818
11
0.928971
21
2.22657
0
LINE
8
BLACK
6
CONTINUOUS
10
0.928971
20
2.22657
11
0.934285
21
2.23416
0
LINE
8
BLACK
6
CONTINUOUS
10
0.934285
20
2.23416
11
0.940836
21
2.24071
0
LINE
8
BLACK
6
CONTINUOUS
10
0.940836
20
2.24071
11
0.948425
21
2.24603
0
LINE
8
BLACK
6
CONTINUOUS
10
0.948425
20
2.24603
11
0.956822
21
2.24994
0
LINE
8
BLACK
6
CONTINUOUS
10
0.956822
20
2.24994
11
0.965771
21
2.25234
0
LINE
8
BLACK
6
CONTINUOUS
10
0.965771
20
2.25234
11
0.975
21
2.25315
0
LINE
8
BLACK
6
CONTINUOUS
10
0.975
20
2.25315
11
0.984229
21
2.25234
0
LINE
8
BLACK
6
CONTINUOUS
10
1.18423
20
2.25234
11
1.19318
21
2.24994
0
LINE
8
BLACK
6
CONTINUOUS
10
1.19318
20
2.24994
11
1.20157
21
2.24603
0
LINE
8
BLACK
6
CONTINUOUS
10
1.20157
20
2.24603
11
1.20916
21
2.24071
0
LINE
8
BLACK
6
CONTINUOUS
10
1.20916
20
2.24071
11
1.21571
21
2.23416
0
LINE
8
BLACK
6
CONTINUOUS
10
1.21571
20
2.23416
11
1.22103
21
2.22657
0
LINE
8
BLACK
6
CONTINUOUS
10
1.22103
20
2.22657
11
1.22494
21
2.21818
0
LINE
8
BLACK
6
CONTINUOUS
10
1.22494
20
2.21818
11
1.22734
21
2.20923
0
LINE
8
BLACK
6
CONTINUOUS
10
1.22734
20
2.20923
11
1.22815
21
2.2
0
LINE
8
BLACK
6
CONTINUOUS
10
1.22815
20
2.2
11
1.22734
21
2.19077
0
LINE
8
BLACK
6
CONTINUOUS
10
1.22734
20
2.19077
11
1.22494
21
2.18182
0
LINE
8
BLACK
6
CONTINUOUS
10
1.22494
20
2.18182
11
1.22103
21
2.17343
0
LINE
8
BLACK
6
CONTINUOUS
10
1.22103
20
2.17343
11
1.21571
21
2.16584
0
LINE
8
BLACK
6
CONTINUOUS
10
1.21571
20
2.16584
11
1.20916
21
2.15929
0
LINE
8
BLACK
6
CONTINUOUS
10
1.20916
20
2.15929
11
1.20157
21
2.15397
0
LINE
8
BLACK
6
CONTINUOUS
10
1.20157
20
2.15397
11
1.19318
21
2.15006
0
LINE
8
BLACK
6
CONTINUOUS
10
1.19318
20
2.15006
11
1.18423
21
2.14766
0
LINE
8
BLACK
6
CONTINUOUS
10
1.18423
20
2.14766
11
1.175
21
2.14685
0
LINE
8
BLACK
6
CONTINUOUS
10
1.175
20
2.14685
11
1.16577
21
2.14766
0
LINE
8
BLACK
6
CONTINUOUS
10
1.16577
20
2.14766
11
1.15682
21
2.15006
0
LINE
8
BLACK
6
CONTINUOUS
10
1.15682
20
2.15006
11
1.14843
21
2.15397
0
LINE
8
BLACK
6
CONTINUOUS
10
1.14843
20
2.15397
11
1.14084
21
2.15929
0
LINE
8
BLACK
6
CONTINUOUS
10
1.14084
20
2.15929
11
1.13429
21
2.16584
0
LINE
8
BLACK
6
CONTINUOUS
10
1.13429
20
2.16584
11
1.12897
21
2.17343
0
LINE
8
BLACK
6
CONTINUOUS
10
1.12897
20
2.17343
11
1.12506
21
2.18182
0
LINE
8
BLACK
6
CONTINUOUS
10
1.12506
20
2.18182
11
1.12266
21
2.19077
0
LINE
8
BLACK
6
CONTINUOUS
10
1.12266
20
2.19077
11
1.12185
21
2.2
0
LINE
8
BLACK
6
CONTINUOUS
10
1.12185
20
2.2
11
1.12266
21
2.20923
0
LINE
8
BLACK
6
CONTINUOUS
10
1.12266
20
2.20923
11
1.12506
21
2.21818
0
LINE
8
BLACK
6
CONTINUOUS
10
1.12506
20
2.21818
11
1.12897
21
2.22657
0
LINE
8
BLACK
6
CONTINUOUS
10
1.12897
20
2.22657
11
1.13429
21
2.23416
0
LINE
8
BLACK
6
CONTINUOUS
10
1.13429
20
2.23416
11
1.14084
21
2.24071
0
LINE
8
BLACK
6
CONTINUOUS
10
1.14084
20
2.24071
11
1.14843
21
2.24603
0
LINE
8
BLACK
6
CONTINUOUS
10
1.14843
20
2.24603
11
1.15682
21
2.24994
0
LINE
8
BLACK
6
CONTINUOUS
10
1.15682
20
2.24994
11
1.16577
21
2.25234
0
LINE
8
BLACK
6
CONTINUOUS
10
1.16577
20
2.25234
11
1.175
21
2.25315
0
LINE
8
BLACK
6
CONTINUOUS
10
1.175
20
2.25315
11
1.18423
21
2.25234
0
LINE
8
BLACK
6
CONTINUOUS
10
1.76
20
2.21
11
1.7
21
2.21
0
LINE
8
BLACK
6
CONTINUOUS
10
1.7
20
2.21
11
1.7
21
2.27
0
LINE
8
BLACK
6
CONTINUOUS
10
1.7
20
2.27
11
1.76
21
2.27
0
LINE
8
BLACK
6
CONTINUOUS
10
1.76
20
2.27
11
1.76
21
2.21
0
LINE
8
BLACK
6
CONTINUOUS
10
1.56
20
2.21
11
1.5
21
2.21
0
LINE
8
BLACK
6
CONTINUOUS
10
1.5
20
2.21
11
1.5
21
2.27
0
LINE
8
BLACK
6
CONTINUOUS
10
1.5
20
2.27
11
1.56
21
2.27
0
LINE
8
BLACK
6
CONTINUOUS
10
1.56
20
2.27
11
1.56
21
2.21
0
LINE
8
BLACK
6
CONTINUOUS
10
1.86
20
2.21
11
1.8
21
2.21
0
LINE
8
BLACK
6
CONTINUOUS
10
1.8
20
2.21
11
1.8
21
2.27
0
LINE
8
BLACK
6
CONTINUOUS
10
1.8
20
2.27
11
1.86
21
2.27
0
LINE
8
BLACK
6
CONTINUOUS
10
1.86
20
2.27
11
1.86
21
2.21
0
LINE
8
BLACK
6
CONTINUOUS
10
1.66
20
2.21
11
1.6
21
2.21
0
LINE
8
BLACK
6
CONTINUOUS
10
1.6
20
2.21
11
1.6
21
2.27
0
LINE
8
BLACK
6
CONTINUOUS
10
1.6
20
2.27
11
1.66
21
2.27
0
LINE
8
BLACK
6
CONTINUOUS
10
1.66
20
2.27
11
1.66
21
2.21
0
LINE
8
BLACK
6
CONTINUOUS
10
1.96
20
2.21
11
1.9
21
2.21
0
LINE
8
BLACK
6
CONTINUOUS
10
1.9
20
2.21
11
1.9
21
2.27
0
LINE
8
BLACK
6
CONTINUOUS
10
1.9
20
2.27
11
1.96
21
2.27
0
LINE
8
BLACK
6
CONTINUOUS
10
1.96
20
2.27
11
1.96
21
2.21
0
LINE
8
BLACK
6
CONTINUOUS
10
2.38
20
2.21
11
2.32
21
2.21
0
LINE
8
BLACK
6
CONTINUOUS
10
2.32
20
2.21
11
2.32
21
2.27
0
LINE
8
BLACK
6
CONTINUOUS
10
2.32
20
2.27
11
2.38
21
2.27
0
LINE
8
BLACK
6
CONTINUOUS
10
2.38
20
2.27
11
2.38
21
2.21
0
LINE
8
BLACK
6
CONTINUOUS
10
2.28
20
2.21
11
2.22
21
2.21
0
LINE
8
BLACK
6
CONTINUOUS
10
2.22
20
2.21
11
2.22
21
2.27
0
LINE
8
BLACK
6
CONTINUOUS
10
2.22
20
2.27
11
2.28
21
2.27
0
LINE
8
BLACK
6
CONTINUOUS
10
2.28
20
2.27
11
2.28
21
2.21
0
LINE
8
BLACK
6
CONTINUOUS
10
2.18
20
2.21
11
2.12
21
2.21
0
LINE
8
BLACK
6
CONTINUOUS
10
2.12
20
2.21
11
2.12
21
2.27
0
LINE
8
BLACK
6
CONTINUOUS
10
2.12
20
2.27
11
2.18
21
2.27
0
LINE
8
BLACK
6
CONTINUOUS
10
2.18
20
2.27
11
2.18
21
2.21
0
LINE
8
BLACK
6
CONTINUOUS
10
2.08
20
2.21
11
2.02
21
2.21
0
LINE
8
BLACK
6
CONTINUOUS
10
2.02
20
2.21
11
2.02
21
2.27
0
LINE
8
BLACK
6
CONTINUOUS
10
2.02
20
2.27
11
2.08
21
2.27
0
LINE
8
BLACK
6
CONTINUOUS
10
2.08
20
2.27
11
2.08
21
2.21
0
LINE
8
BLACK
6
CONTINUOUS
10
0.5
20
2.22
11
0.44
21
2.22
0
LINE
8
BLACK
6
CONTINUOUS
10
0.44
20
2.22
11
0.44
21
2.28
0
LINE
8
BLACK
6
CONTINUOUS
10
0.44
20
2.28
11
0.5
21
2.28
0
LINE
8
BLACK
6
CONTINUOUS
10
0.5
20
2.28
11
0.5
21
2.22
0
LINE
8
BLACK
6
CONTINUOUS
10
0.6
20
2.22
11
0.54
21
2.22
0
LINE
8
BLACK
6
CONTINUOUS
10
0.54
20
2.22
11
0.54
21
2.28
0
LINE
8
BLACK
6
CONTINUOUS
10
0.54
20
2.28
11
0.6
21
2.28
0
LINE
8
BLACK
6
CONTINUOUS
10
0.6
20
2.28
11
0.6
21
2.22
0
LINE
8
BLACK
6
CONTINUOUS
10
0.7
20
2.22
11
0.64
21
2.22
0
LINE
8
BLACK
6
CONTINUOUS
10
0.64
20
2.22
11
0.64
21
2.28
0
LINE
8
BLACK
6
CONTINUOUS
10
0.64
20
2.28
11
0.7
21
2.28
0
LINE
8
BLACK
6
CONTINUOUS
10
0.7
20
2.28
11
0.7
21
2.22
0
LINE
8
BLACK
6
CONTINUOUS
10
0.8
20
2.22
11
0.74
21
2.22
0
LINE
8
BLACK
6
CONTINUOUS
10
0.74
20
2.22
11
0.74
21
2.28
0
LINE
8
BLACK
6
CONTINUOUS
10
0.74
20
2.28
11
0.8
21
2.28
0
LINE
8
BLACK
6
CONTINUOUS
10
0.8
20
2.28
11
0.8
21
2.22
  0
ENDSEC
  0
EOF
