  0
SECTION
  2
HEADER
  9
$ANGBASE
  50
0.0
  9
$ANGDIR
  70
1
  9
$MEASUREMENT
  70
0
  0
ENDSEC
  0
SECTION
  2
TABLES
  0
TABLE
  2
LTYPE
  70
4
  0
LTYPE
  5
40F
  2
CONTINUOUS
  70
0
  3
Solid line
  72
65
  73
0
  40
0.0
  0
LTYPE
  5
410
  2
DASHDOT
 70
0
  3
Dash Dot ____ _ ____ _
 72
65
 73
4
 40
2.0
 49
1.25
 49
-0.25
 49
0.25
 49
-0.25
  0
LTYPE
  5
411
  2
DASHED
 70
0
  3
Dashed __ __ __ __ __
 72
65
 73
2
 40
0.75
 49
0.5
 49
-0.25
  0
LTYPE
  5
43B
  2
DOTTED
 70
0
  3
Dotted .  .  .  .
 72
65
 73
2
 40
0.2
 49
0.0
 49
-0.2
  0
ENDTAB
  0
TABLE
  2
STYLE
  70
4
  0
STYLE
  2
KICAD
  70
0
  40
0
  41
1
  42
1
  50
0
  71
0
  3
isocp.shx
  0
STYLE
  2
KICADB
  70
0
  40
0
  41
1
  42
1
  50
0
  71
0
  3
isocp.shx
  0
STYLE
  2
KICADI
  70
0
  40
0
  41
1
  42
1
  50
15
  71
0
  3
isocp.shx
  0
STYLE
  2
KICADBI
  70
0
  40
0
  41
1
  42
1
  50
15
  71
0
  3
isocp.shx
  0
ENDTAB
  0
TABLE
  2
LAYER
  70
1
  0
LAYER
  2
BLACK
  70
0
  62
7
  6
CONTINUOUS
  0
ENDTAB
  0
ENDSEC
  0
SECTION
  2
ENTITIES
0
LINE
8
BLACK
6
CONTINUOUS
10
0.0320341
20
2.36526
11
0.033118
21
2.36688
0
LINE
8
BLACK
6
CONTINUOUS
10
0.033118
20
2.36688
11
0.0347401
21
2.36797
0
LINE
8
BLACK
6
CONTINUOUS
10
0.0347401
20
2.36797
11
0.0366535
21
2.36835
0
LINE
8
BLACK
6
CONTINUOUS
10
0.0366535
20
2.36835
11
3.16335
21
2.36835
0
LINE
8
BLACK
6
CONTINUOUS
10
3.16335
20
2.36835
11
3.16526
21
2.36797
0
LINE
8
BLACK
6
CONTINUOUS
10
3.16526
20
2.36797
11
3.16688
21
2.36688
0
LINE
8
BLACK
6
CONTINUOUS
10
3.16688
20
2.36688
11
3.16797
21
2.36526
0
LINE
8
BLACK
6
CONTINUOUS
10
3.16797
20
2.36526
11
3.16835
21
2.36335
0
LINE
8
BLACK
6
CONTINUOUS
10
3.16835
20
2.36335
11
3.16835
21
0.0366535
0
LINE
8
BLACK
6
CONTINUOUS
10
3.16835
20
0.0366535
11
3.16797
21
0.0347401
0
LINE
8
BLACK
6
CONTINUOUS
10
3.16797
20
0.0347401
11
3.16688
21
0.033118
0
LINE
8
BLACK
6
CONTINUOUS
10
3.16688
20
0.033118
11
3.16526
21
0.0320341
0
LINE
8
BLACK
6
CONTINUOUS
10
3.16526
20
0.0320341
11
3.16335
21
0.0316535
0
LINE
8
BLACK
6
CONTINUOUS
10
3.16335
20
0.0316535
11
0.0366535
21
0.0316535
0
LINE
8
BLACK
6
CONTINUOUS
10
0.0366535
20
0.0316535
11
0.0347401
21
0.0320341
0
LINE
8
BLACK
6
CONTINUOUS
10
0.0347401
20
0.0320341
11
0.033118
21
0.033118
0
LINE
8
BLACK
6
CONTINUOUS
10
0.033118
20
0.033118
11
0.0320341
21
0.0347401
0
LINE
8
BLACK
6
CONTINUOUS
10
0.0320341
20
0.0347401
11
0.0316535
21
0.0366535
0
LINE
8
BLACK
6
CONTINUOUS
10
0.0316535
20
0.0366535
11
0.0316535
21
2.36335
0
LINE
8
BLACK
6
CONTINUOUS
10
0.0316535
20
2.36335
11
0.0320341
21
2.36526
0
LINE
8
BLACK
6
CONTINUOUS
10
2.91068
20
2.06657
11
2.96854
21
2.04255
0
LINE
8
BLACK
6
CONTINUOUS
10
2.96854
20
2.04255
11
3.03119
21
2.04249
0
LINE
8
BLACK
6
CONTINUOUS
10
3.03119
20
2.04249
11
3.08909
21
2.06642
0
LINE
8
BLACK
6
CONTINUOUS
10
3.08909
20
2.06642
11
3.13343
21
2.11068
0
LINE
8
BLACK
6
CONTINUOUS
10
3.13343
20
2.11068
11
3.15745
21
2.16854
0
LINE
8
BLACK
6
CONTINUOUS
10
3.15745
20
2.16854
11
3.15751
21
2.23119
0
LINE
8
BLACK
6
CONTINUOUS
10
3.15751
20
2.23119
11
3.13358
21
2.28909
0
LINE
8
BLACK
6
CONTINUOUS
10
3.13358
20
2.28909
11
3.08932
21
2.33343
0
LINE
8
BLACK
6
CONTINUOUS
10
3.08932
20
2.33343
11
3.03146
21
2.35745
0
LINE
8
BLACK
6
CONTINUOUS
10
3.03146
20
2.35745
11
2.96881
21
2.35751
0
LINE
8
BLACK
6
CONTINUOUS
10
2.96881
20
2.35751
11
2.91091
21
2.33358
0
LINE
8
BLACK
6
CONTINUOUS
10
2.91091
20
2.33358
11
2.86657
21
2.28932
0
LINE
8
BLACK
6
CONTINUOUS
10
2.86657
20
2.28932
11
2.84255
21
2.23146
0
LINE
8
BLACK
6
CONTINUOUS
10
2.84255
20
2.23146
11
2.84249
21
2.16881
0
LINE
8
BLACK
6
CONTINUOUS
10
2.84249
20
2.16881
11
2.86642
21
2.11091
0
LINE
8
BLACK
6
CONTINUOUS
10
2.86642
20
2.11091
11
2.91068
21
2.06657
0
LINE
8
BLACK
6
CONTINUOUS
10
3.00865
20
2.31779
11
3.02213
21
2.31602
0
LINE
8
BLACK
6
CONTINUOUS
10
3.02213
20
2.31602
11
3.03532
21
2.31271
0
LINE
8
BLACK
6
CONTINUOUS
10
3.03532
20
2.31271
11
3.04804
21
2.3079
0
LINE
8
BLACK
6
CONTINUOUS
10
3.04804
20
2.3079
11
3.06012
21
2.30166
0
LINE
8
BLACK
6
CONTINUOUS
10
3.06012
20
2.30166
11
3.07141
21
2.29408
0
LINE
8
BLACK
6
CONTINUOUS
10
3.07141
20
2.29408
11
3.08175
21
2.28525
0
LINE
8
BLACK
6
CONTINUOUS
10
3.08175
20
2.28525
11
3.09101
21
2.27529
0
LINE
8
BLACK
6
CONTINUOUS
10
3.09101
20
2.27529
11
3.09906
21
2.26433
0
LINE
8
BLACK
6
CONTINUOUS
10
3.09906
20
2.26433
11
3.10579
21
2.25252
0
LINE
8
BLACK
6
CONTINUOUS
10
3.10579
20
2.25252
11
3.11113
21
2.24001
0
LINE
8
BLACK
6
CONTINUOUS
10
3.11113
20
2.24001
11
3.11499
21
2.22697
0
LINE
8
BLACK
6
CONTINUOUS
10
3.11499
20
2.22697
11
3.11733
21
2.21358
0
LINE
8
BLACK
6
CONTINUOUS
10
3.11733
20
2.21358
11
3.11811
21
2.2
0
LINE
8
BLACK
6
CONTINUOUS
10
3.11811
20
2.2
11
3.11788
21
2.19258
0
LINE
8
BLACK
6
CONTINUOUS
10
3.11788
20
2.19258
11
3.11624
21
2.17908
0
LINE
8
BLACK
6
CONTINUOUS
10
3.11624
20
2.17908
11
3.11307
21
2.16586
0
LINE
8
BLACK
6
CONTINUOUS
10
3.11307
20
2.16586
11
3.1084
21
2.15309
0
LINE
8
BLACK
6
CONTINUOUS
10
3.1084
20
2.15309
11
3.10229
21
2.14094
0
LINE
8
BLACK
6
CONTINUOUS
10
3.10229
20
2.14094
11
3.09482
21
2.12958
0
LINE
8
BLACK
6
CONTINUOUS
10
3.09482
20
2.12958
11
3.0861
21
2.11915
0
LINE
8
BLACK
6
CONTINUOUS
10
3.0861
20
2.11915
11
3.07624
21
2.10979
0
LINE
8
BLACK
6
CONTINUOUS
10
3.07624
20
2.10979
11
3.06536
21
2.10162
0
LINE
8
BLACK
6
CONTINUOUS
10
3.06536
20
2.10162
11
3.05362
21
2.09476
0
LINE
8
BLACK
6
CONTINUOUS
10
3.05362
20
2.09476
11
3.04117
21
2.0893
0
LINE
8
BLACK
6
CONTINUOUS
10
3.04117
20
2.0893
11
3.02817
21
2.0853
0
LINE
8
BLACK
6
CONTINUOUS
10
3.02817
20
2.0853
11
3.0148
21
2.08282
0
LINE
8
BLACK
6
CONTINUOUS
10
3.0148
20
2.08282
11
3.00124
21
2.0819
0
LINE
8
BLACK
6
CONTINUOUS
10
3.00124
20
2.0819
11
2.98765
21
2.08254
0
LINE
8
BLACK
6
CONTINUOUS
10
2.98765
20
2.08254
11
2.97424
21
2.08473
0
LINE
8
BLACK
6
CONTINUOUS
10
2.97424
20
2.08473
11
2.96116
21
2.08846
0
LINE
8
BLACK
6
CONTINUOUS
10
2.96116
20
2.08846
11
2.94859
21
2.09366
0
LINE
8
BLACK
6
CONTINUOUS
10
2.94859
20
2.09366
11
2.93671
21
2.10028
0
LINE
8
BLACK
6
CONTINUOUS
10
2.93671
20
2.10028
11
2.92567
21
2.10821
0
LINE
8
BLACK
6
CONTINUOUS
10
2.92567
20
2.10821
11
2.91561
21
2.11736
0
LINE
8
BLACK
6
CONTINUOUS
10
2.91561
20
2.11736
11
2.90667
21
2.12761
0
LINE
8
BLACK
6
CONTINUOUS
10
2.90667
20
2.12761
11
2.89897
21
2.13882
0
LINE
8
BLACK
6
CONTINUOUS
10
2.89897
20
2.13882
11
2.89261
21
2.15083
0
LINE
8
BLACK
6
CONTINUOUS
10
2.89261
20
2.15083
11
2.88767
21
2.1635
0
LINE
8
BLACK
6
CONTINUOUS
10
2.88767
20
2.1635
11
2.88422
21
2.17665
0
LINE
8
BLACK
6
CONTINUOUS
10
2.88422
20
2.17665
11
2.8823
21
2.19012
0
LINE
8
BLACK
6
CONTINUOUS
10
2.8823
20
2.19012
11
2.88195
21
2.20371
0
LINE
8
BLACK
6
CONTINUOUS
10
2.88195
20
2.20371
11
2.88316
21
2.21725
0
LINE
8
BLACK
6
CONTINUOUS
10
2.88316
20
2.21725
11
2.88591
21
2.23057
0
LINE
8
BLACK
6
CONTINUOUS
10
2.88591
20
2.23057
11
2.89018
21
2.24348
0
LINE
8
BLACK
6
CONTINUOUS
10
2.89018
20
2.24348
11
2.89591
21
2.25581
0
LINE
8
BLACK
6
CONTINUOUS
10
2.89591
20
2.25581
11
2.90301
21
2.26741
0
LINE
8
BLACK
6
CONTINUOUS
10
2.90301
20
2.26741
11
2.9114
21
2.27811
0
LINE
8
BLACK
6
CONTINUOUS
10
2.9114
20
2.27811
11
2.92097
21
2.28777
0
LINE
8
BLACK
6
CONTINUOUS
10
2.92097
20
2.28777
11
2.93158
21
2.29627
0
LINE
8
BLACK
6
CONTINUOUS
10
2.93158
20
2.29627
11
2.9431
21
2.3035
0
LINE
8
BLACK
6
CONTINUOUS
10
2.9431
20
2.3035
11
2.95537
21
2.30935
0
LINE
8
BLACK
6
CONTINUOUS
10
2.95537
20
2.30935
11
2.96824
21
2.31376
0
LINE
8
BLACK
6
CONTINUOUS
10
2.96824
20
2.31376
11
2.98152
21
2.31666
0
LINE
8
BLACK
6
CONTINUOUS
10
2.98152
20
2.31666
11
2.99505
21
2.31801
0
LINE
8
BLACK
6
CONTINUOUS
10
2.99505
20
2.31801
11
3.00865
21
2.31779
0
CIRCLE
8
BLACK
10
0.66
20
1.14
40
0.00984252
0
CIRCLE
8
BLACK
10
1.285
20
0.52
40
0.00984252
0
CIRCLE
8
BLACK
10
0.43
20
1.35
40
0.00984252
0
CIRCLE
8
BLACK
10
1.32
20
0.06
40
0.00984252
0
CIRCLE
8
BLACK
10
2.42
20
0.73
40
0.00984252
0
CIRCLE
8
BLACK
10
1.778
20
0.668
40
0.00984252
0
CIRCLE
8
BLACK
10
2.835
20
1.7475
40
0.00984252
0
CIRCLE
8
BLACK
10
2.28
20
2.33
40
0.00984252
0
CIRCLE
8
BLACK
10
2.71
20
1.47
40
0.00984252
0
CIRCLE
8
BLACK
10
0.61
20
1.8
40
0.00984252
0
CIRCLE
8
BLACK
10
1.48
20
1.935
40
0.00984252
0
CIRCLE
8
BLACK
10
0.1125
20
0.6825
40
0.00984252
0
CIRCLE
8
BLACK
10
1.225
20
0.6225
40
0.00984252
0
CIRCLE
8
BLACK
10
0.46
20
1.75
40
0.00984252
0
CIRCLE
8
BLACK
10
0.3
20
0.97
40
0.00984252
0
CIRCLE
8
BLACK
10
0.1425
20
0.6325
40
0.00984252
0
CIRCLE
8
BLACK
10
1.32
20
0.455
40
0.00984252
0
CIRCLE
8
BLACK
10
1.395
20
0.655
40
0.00984252
0
CIRCLE
8
BLACK
10
0.48
20
0.06
40
0.00984252
0
CIRCLE
8
BLACK
10
3.015
20
1.145
40
0.00984252
0
CIRCLE
8
BLACK
10
0.31
20
1.82
40
0.00984252
0
CIRCLE
8
BLACK
10
0.56
20
1.305
40
0.00984252
0
CIRCLE
8
BLACK
10
2.89
20
0.52
40
0.00984252
0
CIRCLE
8
BLACK
10
2.89
20
0.59
40
0.00984252
0
CIRCLE
8
BLACK
10
1.29
20
0.8
40
0.00984252
0
CIRCLE
8
BLACK
10
1.06
20
1.85
40
0.00984252
0
CIRCLE
8
BLACK
10
0.565
20
0.565
40
0.00984252
0
CIRCLE
8
BLACK
10
2.76
20
0.41
40
0.00984252
0
CIRCLE
8
BLACK
10
0.62
20
1.305
40
0.00984252
0
CIRCLE
8
BLACK
10
1.8825
20
1.32
40
0.00984252
0
CIRCLE
8
BLACK
10
0.36
20
1.59
40
0.00984252
0
CIRCLE
8
BLACK
10
2.685
20
0.36
40
0.00984252
0
CIRCLE
8
BLACK
10
2.66
20
0.67
40
0.00984252
0
CIRCLE
8
BLACK
10
2.53
20
0.59
40
0.00984252
0
CIRCLE
8
BLACK
10
2.085
20
1.7575
40
0.00984252
0
CIRCLE
8
BLACK
10
1.42002
20
1.82498
40
0.00984252
0
CIRCLE
8
BLACK
10
0.56
20
1.8
40
0.00984252
0
CIRCLE
8
BLACK
10
0.41
20
1.8
40
0.00984252
0
CIRCLE
8
BLACK
10
1.615
20
0.8725
40
0.00984252
0
CIRCLE
8
BLACK
10
2.94
20
0.99
40
0.00984252
0
CIRCLE
8
BLACK
10
0.2825
20
0.57
40
0.00984252
0
CIRCLE
8
BLACK
10
0.37
20
1.745
40
0.00984252
0
CIRCLE
8
BLACK
10
1.925
20
1.3025
40
0.00984252
0
CIRCLE
8
BLACK
10
0.1825
20
0.6925
40
0.00984252
0
CIRCLE
8
BLACK
10
0.49
20
1.7
40
0.00984252
0
CIRCLE
8
BLACK
10
1.707
20
0.598
40
0.00984252
0
CIRCLE
8
BLACK
10
0.5225
20
0.6925
40
0.00984252
0
CIRCLE
8
BLACK
10
2.53
20
0.47
40
0.00984252
0
CIRCLE
8
BLACK
10
2.67
20
1.92
40
0.00984252
0
CIRCLE
8
BLACK
10
3
20
1.04
40
0.00984252
0
CIRCLE
8
BLACK
10
2.69
20
1.08
40
0.00984252
0
CIRCLE
8
BLACK
10
1.55
20
0.54
40
0.00984252
0
CIRCLE
8
BLACK
10
1.82
20
1.9
40
0.00984252
0
CIRCLE
8
BLACK
10
1.7425
20
1.29
40
0.00984252
0
CIRCLE
8
BLACK
10
0.6036
20
1.547
40
0.00984252
0
CIRCLE
8
BLACK
10
0.05
20
1.4175
40
0.00984252
0
CIRCLE
8
BLACK
10
0.3525
20
0.57
40
0.00984252
0
CIRCLE
8
BLACK
10
0.51
20
1.8
40
0.00984252
0
CIRCLE
8
BLACK
10
3.06
20
0.99
40
0.00984252
0
CIRCLE
8
BLACK
10
0.4175
20
0.57
40
0.00984252
0
CIRCLE
8
BLACK
10
0.39
20
2.215
40
0.00984252
0
CIRCLE
8
BLACK
10
1.565
20
1.905
40
0.00984252
0
CIRCLE
8
BLACK
10
1.49
20
0.745
40
0.00984252
0
CIRCLE
8
BLACK
10
1.72
20
1.09351
40
0.00984252
0
CIRCLE
8
BLACK
10
2.815
20
1.98
40
0.00984252
0
CIRCLE
8
BLACK
10
2.855
20
1.98
40
0.00984252
0
CIRCLE
8
BLACK
10
1.0525
20
0.6225
40
0.00984252
0
CIRCLE
8
BLACK
10
1.495
20
1.825
40
0.00984252
0
CIRCLE
8
BLACK
10
0.435
20
1.68
40
0.00984252
0
CIRCLE
8
BLACK
10
2.53
20
0.53
40
0.00984252
0
CIRCLE
8
BLACK
10
0.18
20
1.2825
40
0.00984252
0
CIRCLE
8
BLACK
10
0.9725
20
0.62
40
0.00984252
0
CIRCLE
8
BLACK
10
0.5775
20
0.6225
40
0.00984252
0
CIRCLE
8
BLACK
10
2.88
20
1.035
40
0.00984252
0
CIRCLE
8
BLACK
10
2.3
20
0.85
40
0.00984252
0
CIRCLE
8
BLACK
10
2.845
20
1.14
40
0.00984252
0
CIRCLE
8
BLACK
10
1.9675
20
1.2825
40
0.00984252
0
CIRCLE
8
BLACK
10
2.82
20
1.035
40
0.00984252
0
CIRCLE
8
BLACK
10
2.9
20
0.975
40
0.00984252
0
CIRCLE
8
BLACK
10
2.36
20
1.11
40
0.00984252
0
CIRCLE
8
BLACK
10
2.82
20
0.75
40
0.00984252
0
CIRCLE
8
BLACK
10
1.335
20
1.9034
40
0.00984252
0
CIRCLE
8
BLACK
10
1.57
20
2.005
40
0.00984252
0
CIRCLE
8
BLACK
10
1.455
20
1.785
40
0.00984252
0
CIRCLE
8
BLACK
10
2.805
20
0.98
40
0.00984252
0
CIRCLE
8
BLACK
10
2.75
20
1.08
40
0.00984252
0
CIRCLE
8
BLACK
10
2.89
20
0.65
40
0.00984252
0
CIRCLE
8
BLACK
10
3.13
20
0.68
40
0.00984252
0
CIRCLE
8
BLACK
10
1.7925
20
1.745
40
0.00984252
0
CIRCLE
8
BLACK
10
2.005
20
0.835
40
0.00984252
0
CIRCLE
8
BLACK
10
2.07171
20
1.2825
40
0.00984252
0
CIRCLE
8
BLACK
10
0.48
20
0.17
40
0.00984252
0
CIRCLE
8
BLACK
10
2.735
20
0.585
40
0.00984252
0
CIRCLE
8
BLACK
10
2.97
20
1.09
40
0.00984252
0
CIRCLE
8
BLACK
10
0.1625
20
1.335
40
0.00984252
0
CIRCLE
8
BLACK
10
2.61
20
1.86
40
0.00984252
0
CIRCLE
8
BLACK
10
1.15
20
0.62
40
0.00984252
0
CIRCLE
8
BLACK
10
0.17
20
1.97
40
0.00984252
0
CIRCLE
8
BLACK
10
2.895
20
1.14
40
0.00984252
0
CIRCLE
8
BLACK
10
0.1
20
1.72
40
0.00984252
0
CIRCLE
8
BLACK
10
1.32
20
0.6225
40
0.00984252
0
CIRCLE
8
BLACK
10
1.45002
20
1.85498
40
0.00984252
0
CIRCLE
8
BLACK
10
0.905
20
0.115
40
0.00984252
0
CIRCLE
8
BLACK
10
2.58
20
0.38
40
0.00984252
0
CIRCLE
8
BLACK
10
1.5625
20
0.8225
40
0.00984252
0
CIRCLE
8
BLACK
10
1.44
20
0.06
40
0.00984252
0
CIRCLE
8
BLACK
10
2.1475
20
1.755
40
0.00984252
0
CIRCLE
8
BLACK
10
1.7
20
0.945
40
0.00984252
0
CIRCLE
8
BLACK
10
0.24
20
1.97
40
0.00984252
0
CIRCLE
8
BLACK
10
0.1
20
1.87
40
0.00984252
0
CIRCLE
8
BLACK
10
2.8
20
1.14
40
0.00984252
0
CIRCLE
8
BLACK
10
0.49
20
1.06
40
0.00984252
0
CIRCLE
8
BLACK
10
1.74
20
1.4275
40
0.00984252
0
CIRCLE
8
BLACK
10
2.88
20
0.45
40
0.00984252
0
CIRCLE
8
BLACK
10
0.39
20
2.17
40
0.00984252
0
CIRCLE
8
BLACK
10
1.9275
20
1.4675
40
0.00984252
0
CIRCLE
8
BLACK
10
1.6
20
1.945
40
0.00984252
0
CIRCLE
8
BLACK
10
1.26
20
0.06
40
0.00984252
0
CIRCLE
8
BLACK
10
2.77
20
1.98
40
0.00984252
0
CIRCLE
8
BLACK
10
2.95
20
1.145
40
0.00984252
0
CIRCLE
8
BLACK
10
3.03
20
1.47
40
0.00984252
0
CIRCLE
8
BLACK
10
1.75
20
1.78
40
0.00984252
0
CIRCLE
8
BLACK
10
2.74
20
1.14
40
0.00984252
0
CIRCLE
8
BLACK
10
0.39
20
2.12
40
0.00984252
0
CIRCLE
8
BLACK
10
0.325
20
0.6925
40
0.00984252
0
CIRCLE
8
BLACK
10
1.101
20
1.854
40
0.00984252
0
CIRCLE
8
BLACK
10
2.635
20
1.75
40
0.00984252
0
CIRCLE
8
BLACK
10
0.8225
20
1.9975
40
0.00984252
0
CIRCLE
8
BLACK
10
0.385
20
0.6925
40
0.00984252
0
CIRCLE
8
BLACK
10
0.7262
20
1.6502
40
0.00984252
0
CIRCLE
8
BLACK
10
1.03
20
0.805
40
0.00984252
0
CIRCLE
8
BLACK
10
1.43
20
0.84
40
0.00984252
0
CIRCLE
8
BLACK
10
3.07
20
0.68
40
0.00984252
0
CIRCLE
8
BLACK
10
0.35
20
0.97
40
0.00984252
0
CIRCLE
8
BLACK
10
2.76
20
0.47
40
0.00984252
0
CIRCLE
8
BLACK
10
1.67
20
0.52
40
0.00984252
0
CIRCLE
8
BLACK
10
1.045
20
0.115
40
0.00984252
0
CIRCLE
8
BLACK
10
1.5
20
0.06
40
0.00984252
0
CIRCLE
8
BLACK
10
3
20
0.99
40
0.00984252
0
CIRCLE
8
BLACK
10
2.56
20
1.81
40
0.00984252
0
CIRCLE
8
BLACK
10
2.3375
20
1.955
40
0.00984252
0
CIRCLE
8
BLACK
10
2.22
20
2.33
40
0.00984252
0
CIRCLE
8
BLACK
10
1.21
20
0.8
40
0.00984252
0
CIRCLE
8
BLACK
10
2.595
20
0.585
40
0.00984252
0
CIRCLE
8
BLACK
10
0.8786
20
1.5452
40
0.00984252
0
CIRCLE
8
BLACK
10
1.975
20
0.87
40
0.00984252
0
CIRCLE
8
BLACK
10
1.52
20
2.01
40
0.00984252
0
CIRCLE
8
BLACK
10
2.34
20
2.33
40
0.00984252
0
CIRCLE
8
BLACK
10
2.88
20
0.37
40
0.00984252
0
CIRCLE
8
BLACK
10
1.55
20
0.47
40
0.00984252
0
CIRCLE
8
BLACK
10
0.16
20
1.72
40
0.00984252
0
CIRCLE
8
BLACK
10
0.1
20
1.92
40
0.00984252
0
CIRCLE
8
BLACK
10
1.09
20
0.115
40
0.00984252
0
CIRCLE
8
BLACK
10
1.475
20
1.89
40
0.00984252
0
CIRCLE
8
BLACK
10
1.135
20
0.115
40
0.00984252
0
CIRCLE
8
BLACK
10
0.39
20
2.26
40
0.00984252
0
CIRCLE
8
BLACK
10
1.36
20
0.84
40
0.00984252
0
CIRCLE
8
BLACK
10
1.9525
20
1.975
40
0.00984252
0
CIRCLE
8
BLACK
10
0.58
20
0.6775
40
0.00984252
0
CIRCLE
8
BLACK
10
1.82
20
1.8375
40
0.00984252
0
CIRCLE
8
BLACK
10
0.3
20
1.89
40
0.00984252
0
CIRCLE
8
BLACK
10
2.2625
20
1.8825
40
0.00984252
0
CIRCLE
8
BLACK
10
2.16
20
2.33
40
0.00984252
0
CIRCLE
8
BLACK
10
2.0225
20
2.05
40
0.00984252
0
CIRCLE
8
BLACK
10
1.63
20
0.93
40
0.00984252
0
CIRCLE
8
BLACK
10
2.53
20
0.72
40
0.00984252
0
CIRCLE
8
BLACK
10
2.5
20
1.75
40
0.00984252
0
CIRCLE
8
BLACK
10
0.4575
20
0.6925
40
0.00984252
0
CIRCLE
8
BLACK
10
3.01
20
0.68
40
0.00984252
0
CIRCLE
8
BLACK
10
1.57
20
0.6
40
0.00984252
0
CIRCLE
8
BLACK
10
1.5
20
1.98
40
0.00984252
0
CIRCLE
8
BLACK
10
0.7976
20
1.546
40
0.00984252
0
CIRCLE
8
BLACK
10
2.37
20
1.18
40
0.00984252
0
CIRCLE
8
BLACK
10
3.12
20
0.99
40
0.00984252
0
CIRCLE
8
BLACK
10
0.22
20
1.72
40
0.00984252
0
CIRCLE
8
BLACK
10
0.79
20
2.09
40
0.00984252
0
CIRCLE
8
BLACK
10
1.76
20
1.84
40
0.00984252
0
CIRCLE
8
BLACK
10
0.39
20
2.07
40
0.00984252
0
CIRCLE
8
BLACK
10
2.64
20
0.75
40
0.00984252
0
CIRCLE
8
BLACK
10
2.68
20
1.14
40
0.00984252
0
CIRCLE
8
BLACK
10
2.62
20
0.36
40
0.00984252
0
CIRCLE
8
BLACK
10
2.41
20
1.11
40
0.00984252
0
CIRCLE
8
BLACK
10
1.53
20
1.865
40
0.00984252
0
CIRCLE
8
BLACK
10
0.955
20
0.115
40
0.00984252
0
CIRCLE
8
BLACK
10
2.35
20
0.8
40
0.00984252
0
CIRCLE
8
BLACK
10
2.74
20
0.52
40
0.00984252
0
CIRCLE
8
BLACK
10
1.69
20
1.78
40
0.00984252
0
CIRCLE
8
BLACK
10
2.61
20
1.12
40
0.00984252
0
CIRCLE
8
BLACK
10
1.095
20
0.8
40
0.00984252
0
CIRCLE
8
BLACK
10
3.02
20
1.095
40
0.00984252
0
CIRCLE
8
BLACK
10
2.125
20
1.9575
40
0.00984252
0
CIRCLE
8
BLACK
10
0.255
20
0.6925
40
0.00984252
0
CIRCLE
8
BLACK
10
0.1975
20
0.59
40
0.00984252
0
CIRCLE
8
BLACK
10
2.95
20
0.68
40
0.00984252
0
CIRCLE
8
BLACK
10
1.155
20
0.8
40
0.00984252
0
CIRCLE
8
BLACK
10
1.54
20
0.92
40
0.00984252
0
CIRCLE
8
BLACK
10
0.1
20
1.97
40
0.00984252
0
CIRCLE
8
BLACK
10
0.98
20
0.7375
40
0.00984252
0
CIRCLE
8
BLACK
10
1.525
20
1.925
40
0.00984252
0
CIRCLE
8
BLACK
10
2.2012
20
0.9544
40
0.00984252
0
CIRCLE
8
BLACK
10
3.12
20
1.04
40
0.00984252
0
CIRCLE
8
BLACK
10
3.06
20
1.04
40
0.00984252
0
CIRCLE
8
BLACK
10
0.55
20
1.68
40
0.00984252
0
CIRCLE
8
BLACK
10
0.1
20
1.82
40
0.00984252
0
CIRCLE
8
BLACK
10
2.4
20
2.33
40
0.00984252
0
CIRCLE
8
BLACK
10
1.64
20
1.985
40
0.00984252
0
CIRCLE
8
BLACK
10
2.88
20
0.72
40
0.00984252
0
CIRCLE
8
BLACK
10
1.2
20
0.06
40
0.00984252
0
CIRCLE
8
BLACK
10
1.74
20
0.985
40
0.00984252
0
CIRCLE
8
BLACK
10
2.37
20
1.345
40
0.00984252
0
CIRCLE
8
BLACK
10
2.535
20
0.38
40
0.00984252
0
CIRCLE
8
BLACK
10
2.905
20
1.98
40
0.00984252
0
CIRCLE
8
BLACK
10
0.38
20
1.305
40
0.00984252
0
CIRCLE
8
BLACK
10
0.980733
20
1.9725
40
0.00984252
0
CIRCLE
8
BLACK
10
0.415
20
1.59
40
0.00984252
0
CIRCLE
8
BLACK
10
1.84
20
1.0675
40
0.00984252
0
CIRCLE
8
BLACK
10
3.0475
20
1.755
40
0.00984252
0
CIRCLE
8
BLACK
10
2.84
20
0.69
40
0.00984252
0
CIRCLE
8
BLACK
10
1.84
20
0.7
40
0.00984252
0
CIRCLE
8
BLACK
10
0.3
20
1.94
40
0.00984252
0
CIRCLE
8
BLACK
10
1.38
20
0.06
40
0.00984252
0
CIRCLE
8
BLACK
10
0.1
20
1.77
40
0.00984252
0
CIRCLE
8
BLACK
10
2.85
20
0.975
40
0.00984252
0
CIRCLE
8
BLACK
10
2.37
20
1.47
40
0.00984252
0
CIRCLE
8
BLACK
10
1
20
0.115
40
0.00984252
0
CIRCLE
8
BLACK
10
0.355
20
1.65
40
0.00984252
0
CIRCLE
8
BLACK
10
0.685
20
1.2042
40
0.00984252
0
CIRCLE
8
BLACK
10
0.28
20
1.72
40
0.00984252
0
CIRCLE
8
BLACK
10
2.02
20
1.8475
40
0.00984252
0
CIRCLE
8
BLACK
10
0.49
20
0.5725
40
0.00984252
0
CIRCLE
8
BLACK
10
1.56
20
1.96
40
0.00984252
0
CIRCLE
8
BLACK
10
0.66
20
1.8
40
0.00984252
0
CIRCLE
8
BLACK
10
0.46
20
1.8
40
0.00984252
0
CIRCLE
8
BLACK
10
1.12
20
1.94
40
0.00984252
0
CIRCLE
8
BLACK
10
0.48
20
0.12
40
0.00984252
0
CIRCLE
8
BLACK
10
1.59
20
2.065
40
0.00984252
0
CIRCLE
8
BLACK
10
1.35969
20
1.48158
40
0.00984252
0
CIRCLE
8
BLACK
10
1.455
20
1.23295
40
0.00984252
0
CIRCLE
8
BLACK
10
2.73
20
0.78
40
0.00984252
0
CIRCLE
8
BLACK
10
2.0625
20
1.07
40
0.00984252
0
CIRCLE
8
BLACK
10
0.88
20
2.28
40
0.00984252
0
CIRCLE
8
BLACK
10
0.834
20
1.781
40
0.00984252
0
CIRCLE
8
BLACK
10
1.44
20
2.28
40
0.00984252
0
CIRCLE
8
BLACK
10
0.937
20
1.513
40
0.00984252
0
CIRCLE
8
BLACK
10
1.31396
20
1.58426
40
0.00984252
0
CIRCLE
8
BLACK
10
1.22174
20
1.80087
40
0.00984252
0
CIRCLE
8
BLACK
10
2.62
20
0.825
40
0.00984252
0
CIRCLE
8
BLACK
10
2.2525
20
0.66
40
0.00984252
0
CIRCLE
8
BLACK
10
2.2525
20
0.38
40
0.00984252
0
CIRCLE
8
BLACK
10
2.2
20
0.465
40
0.00984252
0
CIRCLE
8
BLACK
10
2.2
20
0.65
40
0.00984252
0
CIRCLE
8
BLACK
10
2.3
20
0.465
40
0.00984252
0
CIRCLE
8
BLACK
10
2.3
20
0.595
40
0.00984252
0
CIRCLE
8
BLACK
10
1.8675
20
0.56
40
0.00984252
0
CIRCLE
8
BLACK
10
2.0675
20
0.9525
40
0.00984252
0
CIRCLE
8
BLACK
10
1.631
20
0.094
40
0.00984252
0
CIRCLE
8
BLACK
10
2.0925
20
1.38
40
0.00984252
0
CIRCLE
8
BLACK
10
1.62
20
0.44
40
0.00984252
0
CIRCLE
8
BLACK
10
2.005
20
1.045
40
0.00984252
0
CIRCLE
8
BLACK
10
1.9275
20
1.115
40
0.00984252
0
CIRCLE
8
BLACK
10
2.0225
20
1.3575
40
0.00984252
0
CIRCLE
8
BLACK
10
0.584038
20
1.13492
40
0.00984252
0
CIRCLE
8
BLACK
10
0.527421
20
1.03561
40
0.00984252
0
CIRCLE
8
BLACK
10
1.233
20
1.62
40
0.00984252
0
CIRCLE
8
BLACK
10
1.22
20
2.28
40
0.00984252
0
CIRCLE
8
BLACK
10
1.3518
20
1.7262
40
0.00984252
0
CIRCLE
8
BLACK
10
1.43219
20
1.94666
40
0.00984252
  0
ENDSEC
  0
EOF
