  0
SECTION
  2
HEADER
  9
$ANGBASE
  50
0.0
  9
$ANGDIR
  70
1
  9
$MEASUREMENT
  70
0
  0
ENDSEC
  0
SECTION
  2
TABLES
  0
TABLE
  2
LTYPE
  70
4
  0
LTYPE
  5
40F
  2
CONTINUOUS
  70
0
  3
Solid line
  72
65
  73
0
  40
0.0
  0
LTYPE
  5
410
  2
DASHDOT
 70
0
  3
Dash Dot ____ _ ____ _
 72
65
 73
4
 40
2.0
 49
1.25
 49
-0.25
 49
0.25
 49
-0.25
  0
LTYPE
  5
411
  2
DASHED
 70
0
  3
Dashed __ __ __ __ __
 72
65
 73
2
 40
0.75
 49
0.5
 49
-0.25
  0
LTYPE
  5
43B
  2
DOTTED
 70
0
  3
Dotted .  .  .  .
 72
65
 73
2
 40
0.2
 49
0.0
 49
-0.2
  0
ENDTAB
  0
TABLE
  2
STYLE
  70
4
  0
STYLE
  2
KICAD
  70
0
  40
0
  41
1
  42
1
  50
0
  71
0
  3
isocp.shx
  0
STYLE
  2
KICADB
  70
0
  40
0
  41
1
  42
1
  50
0
  71
0
  3
isocp.shx
  0
STYLE
  2
KICADI
  70
0
  40
0
  41
1
  42
1
  50
15
  71
0
  3
isocp.shx
  0
STYLE
  2
KICADBI
  70
0
  40
0
  41
1
  42
1
  50
15
  71
0
  3
isocp.shx
  0
ENDTAB
  0
TABLE
  2
LAYER
  70
1
  0
LAYER
  2
BLACK
  70
0
  62
7
  6
CONTINUOUS
  0
ENDTAB
  0
ENDSEC
  0
SECTION
  2
ENTITIES
0
LINE
8
BLACK
6
CONTINUOUS
10
0.0320341
20
2.36526
11
0.033118
21
2.36688
0
LINE
8
BLACK
6
CONTINUOUS
10
0.033118
20
2.36688
11
0.0347401
21
2.36797
0
LINE
8
BLACK
6
CONTINUOUS
10
0.0347401
20
2.36797
11
0.0366535
21
2.36835
0
LINE
8
BLACK
6
CONTINUOUS
10
0.0366535
20
2.36835
11
3.16335
21
2.36835
0
LINE
8
BLACK
6
CONTINUOUS
10
3.16335
20
2.36835
11
3.16526
21
2.36797
0
LINE
8
BLACK
6
CONTINUOUS
10
3.16526
20
2.36797
11
3.16688
21
2.36688
0
LINE
8
BLACK
6
CONTINUOUS
10
3.16688
20
2.36688
11
3.16797
21
2.36526
0
LINE
8
BLACK
6
CONTINUOUS
10
3.16797
20
2.36526
11
3.16835
21
2.36335
0
LINE
8
BLACK
6
CONTINUOUS
10
3.16835
20
2.36335
11
3.16835
21
0.0366535
0
LINE
8
BLACK
6
CONTINUOUS
10
3.16835
20
0.0366535
11
3.16797
21
0.0347401
0
LINE
8
BLACK
6
CONTINUOUS
10
3.16797
20
0.0347401
11
3.16688
21
0.033118
0
LINE
8
BLACK
6
CONTINUOUS
10
3.16688
20
0.033118
11
3.16526
21
0.0320341
0
LINE
8
BLACK
6
CONTINUOUS
10
3.16526
20
0.0320341
11
3.16335
21
0.0316535
0
LINE
8
BLACK
6
CONTINUOUS
10
3.16335
20
0.0316535
11
0.0366535
21
0.0316535
0
LINE
8
BLACK
6
CONTINUOUS
10
0.0366535
20
0.0316535
11
0.0347401
21
0.0320341
0
LINE
8
BLACK
6
CONTINUOUS
10
0.0347401
20
0.0320341
11
0.033118
21
0.033118
0
LINE
8
BLACK
6
CONTINUOUS
10
0.033118
20
0.033118
11
0.0320341
21
0.0347401
0
LINE
8
BLACK
6
CONTINUOUS
10
0.0320341
20
0.0347401
11
0.0316535
21
0.0366535
0
LINE
8
BLACK
6
CONTINUOUS
10
0.0316535
20
0.0366535
11
0.0316535
21
0.59866
0
LINE
8
BLACK
6
CONTINUOUS
10
0.0316535
20
0.59866
11
0.0320341
21
0.600573
0
LINE
8
BLACK
6
CONTINUOUS
10
0.0320341
20
0.600573
11
0.033118
21
0.602196
0
LINE
8
BLACK
6
CONTINUOUS
10
0.033118
20
0.602196
11
0.0347401
21
0.603279
0
LINE
8
BLACK
6
CONTINUOUS
10
0.0347401
20
0.603279
11
0.0366535
21
0.60366
0
LINE
8
BLACK
6
CONTINUOUS
10
0.0366535
20
0.60366
11
0.038567
21
0.603279
0
LINE
8
BLACK
6
CONTINUOUS
10
0.038567
20
0.603279
11
0.0401891
21
0.602196
0
LINE
8
BLACK
6
CONTINUOUS
10
0.0401891
20
0.602196
11
0.165844
21
0.476541
0
LINE
8
BLACK
6
CONTINUOUS
10
0.165844
20
0.476541
11
0.1783
21
0.468218
0
LINE
8
BLACK
6
CONTINUOUS
10
0.1783
20
0.468218
11
0.192992
21
0.465295
0
LINE
8
BLACK
6
CONTINUOUS
10
0.192992
20
0.465295
11
1.26701
21
0.465295
0
LINE
8
BLACK
6
CONTINUOUS
10
1.26701
20
0.465295
11
1.2817
21
0.468218
0
LINE
8
BLACK
6
CONTINUOUS
10
1.2817
20
0.468218
11
1.29416
21
0.476541
0
LINE
8
BLACK
6
CONTINUOUS
10
1.29416
20
0.476541
11
1.31128
21
0.493666
0
LINE
8
BLACK
6
CONTINUOUS
10
1.31128
20
0.493666
11
1.31128
21
0.493669
0
LINE
8
BLACK
6
CONTINUOUS
10
1.31128
20
0.493669
11
1.31652
21
0.498898
0
LINE
8
BLACK
6
CONTINUOUS
10
1.31652
20
0.498898
11
1.3222
21
0.512567
0
LINE
8
BLACK
6
CONTINUOUS
10
1.3222
20
0.512567
11
1.32221
21
0.527368
0
LINE
8
BLACK
6
CONTINUOUS
10
1.32221
20
0.527368
11
1.31656
21
0.541047
0
LINE
8
BLACK
6
CONTINUOUS
10
1.31656
20
0.541047
11
1.30951
21
0.548109
0
LINE
8
BLACK
6
CONTINUOUS
10
1.30951
20
0.548109
11
1.3061
21
0.551522
0
LINE
8
BLACK
6
CONTINUOUS
10
1.3061
20
0.551522
11
1.29243
21
0.557198
0
LINE
8
BLACK
6
CONTINUOUS
10
1.29243
20
0.557198
11
1.27763
21
0.557211
0
LINE
8
BLACK
6
CONTINUOUS
10
1.27763
20
0.557211
11
1.26395
21
0.551559
0
LINE
8
BLACK
6
CONTINUOUS
10
1.26395
20
0.551559
11
1.25354
21
0.541166
0
LINE
8
BLACK
6
CONTINUOUS
10
1.25354
20
0.541166
11
1.25192
21
0.540084
0
LINE
8
BLACK
6
CONTINUOUS
10
1.25192
20
0.540084
11
1.25001
21
0.539705
0
LINE
8
BLACK
6
CONTINUOUS
10
1.25001
20
0.539705
11
0.209982
21
0.539705
0
LINE
8
BLACK
6
CONTINUOUS
10
0.209982
20
0.539705
11
0.208068
21
0.540085
0
LINE
8
BLACK
6
CONTINUOUS
10
0.208068
20
0.540085
11
0.206446
21
0.541169
0
LINE
8
BLACK
6
CONTINUOUS
10
0.206446
20
0.541169
11
0.0912692
21
0.656346
0
LINE
8
BLACK
6
CONTINUOUS
10
0.0912692
20
0.656346
11
0.0901853
21
0.657968
0
LINE
8
BLACK
6
CONTINUOUS
10
0.0901853
20
0.657968
11
0.0898047
21
0.659882
0
LINE
8
BLACK
6
CONTINUOUS
10
0.0898047
20
0.659882
11
0.0898047
21
0.705315
0
LINE
8
BLACK
6
CONTINUOUS
10
0.0898047
20
0.705315
11
0.0901853
21
0.707228
0
LINE
8
BLACK
6
CONTINUOUS
10
0.0901853
20
0.707228
11
0.0912692
21
0.708851
0
LINE
8
BLACK
6
CONTINUOUS
10
0.0912692
20
0.708851
11
0.0928913
21
0.709934
0
LINE
8
BLACK
6
CONTINUOUS
10
0.0928913
20
0.709934
11
0.0948047
21
0.710315
0
LINE
8
BLACK
6
CONTINUOUS
10
0.0948047
20
0.710315
11
0.629516
21
0.710315
0
LINE
8
BLACK
6
CONTINUOUS
10
0.629516
20
0.710315
11
0.637354
21
0.711846
0
LINE
8
BLACK
6
CONTINUOUS
10
0.637354
20
0.711846
11
0.644274
21
0.716435
0
LINE
8
BLACK
6
CONTINUOUS
10
0.644274
20
0.716435
11
0.896689
21
0.968851
0
LINE
8
BLACK
6
CONTINUOUS
10
0.896689
20
0.968851
11
0.898311
21
0.969934
0
LINE
8
BLACK
6
CONTINUOUS
10
0.898311
20
0.969934
11
0.900225
21
0.970315
0
LINE
8
BLACK
6
CONTINUOUS
10
0.900225
20
0.970315
11
1.66953
21
0.970315
0
LINE
8
BLACK
6
CONTINUOUS
10
1.66953
20
0.970315
11
1.67709
21
0.971736
0
LINE
8
BLACK
6
CONTINUOUS
10
1.67709
20
0.971736
11
1.68366
21
0.975962
0
LINE
8
BLACK
6
CONTINUOUS
10
1.68366
20
0.975962
11
1.68804
21
0.982381
0
LINE
8
BLACK
6
CONTINUOUS
10
1.68804
20
0.982381
11
1.68969
21
0.990501
0
LINE
8
BLACK
6
CONTINUOUS
10
1.68969
20
0.990501
11
1.68969
21
1.48531
0
LINE
8
BLACK
6
CONTINUOUS
10
1.68969
20
1.48531
11
1.69007
21
1.48723
0
LINE
8
BLACK
6
CONTINUOUS
10
1.69007
20
1.48723
11
1.69115
21
1.48885
0
LINE
8
BLACK
6
CONTINUOUS
10
1.69115
20
1.48885
11
1.69277
21
1.48993
0
LINE
8
BLACK
6
CONTINUOUS
10
1.69277
20
1.48993
11
1.69469
21
1.49031
0
LINE
8
BLACK
6
CONTINUOUS
10
1.69469
20
1.49031
11
3.11953
21
1.49031
0
LINE
8
BLACK
6
CONTINUOUS
10
3.11953
20
1.49031
11
3.12709
21
1.49174
0
LINE
8
BLACK
6
CONTINUOUS
10
3.12709
20
1.49174
11
3.13366
21
1.49596
0
LINE
8
BLACK
6
CONTINUOUS
10
3.13366
20
1.49596
11
3.13804
21
1.50238
0
LINE
8
BLACK
6
CONTINUOUS
10
3.13804
20
1.50238
11
3.13969
21
1.5105
0
LINE
8
BLACK
6
CONTINUOUS
10
3.13969
20
1.5105
11
3.13969
21
1.69953
0
LINE
8
BLACK
6
CONTINUOUS
10
3.13969
20
1.69953
11
3.13826
21
1.70709
0
LINE
8
BLACK
6
CONTINUOUS
10
3.13826
20
1.70709
11
3.13404
21
1.71366
0
LINE
8
BLACK
6
CONTINUOUS
10
3.13404
20
1.71366
11
3.12762
21
1.71804
0
LINE
8
BLACK
6
CONTINUOUS
10
3.12762
20
1.71804
11
3.1195
21
1.71969
0
LINE
8
BLACK
6
CONTINUOUS
10
3.1195
20
1.71969
11
1.57573
21
1.71969
0
LINE
8
BLACK
6
CONTINUOUS
10
1.57573
20
1.71969
11
1.57382
21
1.72007
0
LINE
8
BLACK
6
CONTINUOUS
10
1.57382
20
1.72007
11
1.57219
21
1.72115
0
LINE
8
BLACK
6
CONTINUOUS
10
1.57219
20
1.72115
11
1.57111
21
1.72277
0
LINE
8
BLACK
6
CONTINUOUS
10
1.57111
20
1.72277
11
1.57073
21
1.72469
0
LINE
8
BLACK
6
CONTINUOUS
10
1.57073
20
1.72469
11
1.57111
21
1.7266
0
LINE
8
BLACK
6
CONTINUOUS
10
1.57111
20
1.7266
11
1.57219
21
1.72822
0
LINE
8
BLACK
6
CONTINUOUS
10
1.57219
20
1.72822
11
1.68745
21
1.84348
0
LINE
8
BLACK
6
CONTINUOUS
10
1.68745
20
1.84348
11
1.68907
21
1.84456
0
LINE
8
BLACK
6
CONTINUOUS
10
1.68907
20
1.84456
11
1.69099
21
1.84494
0
LINE
8
BLACK
6
CONTINUOUS
10
1.69099
20
1.84494
11
1.70776
21
1.84494
0
LINE
8
BLACK
6
CONTINUOUS
10
1.70776
20
1.84494
11
1.71876
21
1.84713
0
LINE
8
BLACK
6
CONTINUOUS
10
1.71876
20
1.84713
11
1.72808
21
1.85336
0
LINE
8
BLACK
6
CONTINUOUS
10
1.72808
20
1.85336
11
1.94914
21
2.07442
0
LINE
8
BLACK
6
CONTINUOUS
10
1.94914
20
2.07442
11
1.95537
21
2.08374
0
LINE
8
BLACK
6
CONTINUOUS
10
1.95537
20
2.08374
11
1.95581
21
2.08594
0
LINE
8
BLACK
6
CONTINUOUS
10
1.95581
20
2.08594
11
1.95655
21
2.08774
0
LINE
8
BLACK
6
CONTINUOUS
10
1.95655
20
2.08774
11
1.95793
21
2.08912
0
LINE
8
BLACK
6
CONTINUOUS
10
1.95793
20
2.08912
11
1.95979
21
2.08988
0
LINE
8
BLACK
6
CONTINUOUS
10
1.95979
20
2.08988
11
1.96726
21
2.09129
0
LINE
8
BLACK
6
CONTINUOUS
10
1.96726
20
2.09129
11
1.97399
21
2.09562
0
LINE
8
BLACK
6
CONTINUOUS
10
1.97399
20
2.09562
11
1.97849
21
2.10219
0
LINE
8
BLACK
6
CONTINUOUS
10
1.97849
20
2.10219
11
1.98017
21
2.1105
0
LINE
8
BLACK
6
CONTINUOUS
10
1.98017
20
2.1105
11
1.98017
21
2.16953
0
LINE
8
BLACK
6
CONTINUOUS
10
1.98017
20
2.16953
11
1.97871
21
2.17726
0
LINE
8
BLACK
6
CONTINUOUS
10
1.97871
20
2.17726
11
1.97438
21
2.18399
0
LINE
8
BLACK
6
CONTINUOUS
10
1.97438
20
2.18399
11
1.97166
21
2.18585
0
LINE
8
BLACK
6
CONTINUOUS
10
1.97166
20
2.18585
11
1.97029
21
2.18725
0
LINE
8
BLACK
6
CONTINUOUS
10
1.97029
20
2.18725
11
1.96957
21
2.18906
0
LINE
8
BLACK
6
CONTINUOUS
10
1.96957
20
2.18906
11
1.96959
21
2.19101
0
LINE
8
BLACK
6
CONTINUOUS
10
1.96959
20
2.19101
11
1.97035
21
2.1928
0
LINE
8
BLACK
6
CONTINUOUS
10
1.97035
20
2.1928
11
1.97177
21
2.19419
0
LINE
8
BLACK
6
CONTINUOUS
10
1.97177
20
2.19419
11
1.97399
21
2.19562
0
LINE
8
BLACK
6
CONTINUOUS
10
1.97399
20
2.19562
11
1.97849
21
2.20219
0
LINE
8
BLACK
6
CONTINUOUS
10
1.97849
20
2.20219
11
1.98017
21
2.2105
0
LINE
8
BLACK
6
CONTINUOUS
10
1.98017
20
2.2105
11
1.98017
21
2.26953
0
LINE
8
BLACK
6
CONTINUOUS
10
1.98017
20
2.26953
11
1.97871
21
2.27726
0
LINE
8
BLACK
6
CONTINUOUS
10
1.97871
20
2.27726
11
1.97438
21
2.28399
0
LINE
8
BLACK
6
CONTINUOUS
10
1.97438
20
2.28399
11
1.96781
21
2.28849
0
LINE
8
BLACK
6
CONTINUOUS
10
1.96781
20
2.28849
11
1.95972
21
2.29012
0
LINE
8
BLACK
6
CONTINUOUS
10
1.95972
20
2.29012
11
1.95792
21
2.29088
0
LINE
8
BLACK
6
CONTINUOUS
10
1.95792
20
2.29088
11
1.95655
21
2.29226
0
LINE
8
BLACK
6
CONTINUOUS
10
1.95655
20
2.29226
11
1.95581
21
2.29405
0
LINE
8
BLACK
6
CONTINUOUS
10
1.95581
20
2.29405
11
1.95537
21
2.29626
0
LINE
8
BLACK
6
CONTINUOUS
10
1.95537
20
2.29626
11
1.94914
21
2.30558
0
LINE
8
BLACK
6
CONTINUOUS
10
1.94914
20
2.30558
11
1.93808
21
2.31664
0
LINE
8
BLACK
6
CONTINUOUS
10
1.93808
20
2.31664
11
1.92876
21
2.32287
0
LINE
8
BLACK
6
CONTINUOUS
10
1.92876
20
2.32287
11
1.91776
21
2.32506
0
LINE
8
BLACK
6
CONTINUOUS
10
1.91776
20
2.32506
11
1.45799
21
2.32506
0
LINE
8
BLACK
6
CONTINUOUS
10
1.45799
20
2.32506
11
1.44699
21
2.32287
0
LINE
8
BLACK
6
CONTINUOUS
10
1.44699
20
2.32287
11
1.43978
21
2.31805
0
LINE
8
BLACK
6
CONTINUOUS
10
1.43978
20
2.31805
11
1.43797
21
2.3173
0
LINE
8
BLACK
6
CONTINUOUS
10
1.43797
20
2.3173
11
1.43699
21
2.31721
0
LINE
8
BLACK
6
CONTINUOUS
10
1.43699
20
2.31721
11
1.43263
21
2.31721
0
LINE
8
BLACK
6
CONTINUOUS
10
1.43263
20
2.31721
11
1.41895
21
2.31156
0
LINE
8
BLACK
6
CONTINUOUS
10
1.41895
20
2.31156
11
1.40848
21
2.3011
0
LINE
8
BLACK
6
CONTINUOUS
10
1.40848
20
2.3011
11
1.4028
21
2.28743
0
LINE
8
BLACK
6
CONTINUOUS
10
1.4028
20
2.28743
11
1.40279
21
2.27481
0
LINE
8
BLACK
6
CONTINUOUS
10
1.40279
20
2.27481
11
1.40241
21
2.2729
0
LINE
8
BLACK
6
CONTINUOUS
10
1.40241
20
2.2729
11
1.40132
21
2.27128
0
LINE
8
BLACK
6
CONTINUOUS
10
1.40132
20
2.27128
11
1.3997
21
2.27019
0
LINE
8
BLACK
6
CONTINUOUS
10
1.3997
20
2.27019
11
1.39779
21
2.26981
0
LINE
8
BLACK
6
CONTINUOUS
10
1.39779
20
2.26981
11
1.39587
21
2.2702
0
LINE
8
BLACK
6
CONTINUOUS
10
1.39587
20
2.2702
11
1.38955
21
2.27282
0
LINE
8
BLACK
6
CONTINUOUS
10
1.38955
20
2.27282
11
1.36058
21
2.27285
0
LINE
8
BLACK
6
CONTINUOUS
10
1.36058
20
2.27285
11
1.3338
21
2.26178
0
LINE
8
BLACK
6
CONTINUOUS
10
1.3338
20
2.26178
11
1.31329
21
2.24131
0
LINE
8
BLACK
6
CONTINUOUS
10
1.31329
20
2.24131
11
1.30321
21
2.21703
0
LINE
8
BLACK
6
CONTINUOUS
10
1.30321
20
2.21703
11
1.30212
21
2.21541
0
LINE
8
BLACK
6
CONTINUOUS
10
1.30212
20
2.21541
11
1.3005
21
2.21433
0
LINE
8
BLACK
6
CONTINUOUS
10
1.3005
20
2.21433
11
1.29859
21
2.21395
0
LINE
8
BLACK
6
CONTINUOUS
10
1.29859
20
2.21395
11
1.29667
21
2.21433
0
LINE
8
BLACK
6
CONTINUOUS
10
1.29667
20
2.21433
11
1.29505
21
2.21542
0
LINE
8
BLACK
6
CONTINUOUS
10
1.29505
20
2.21542
11
1.29397
21
2.21704
0
LINE
8
BLACK
6
CONTINUOUS
10
1.29397
20
2.21704
11
1.29359
21
2.21895
0
LINE
8
BLACK
6
CONTINUOUS
10
1.29359
20
2.21895
11
1.29359
21
2.23151
0
LINE
8
BLACK
6
CONTINUOUS
10
1.29359
20
2.23151
11
1.29155
21
2.24176
0
LINE
8
BLACK
6
CONTINUOUS
10
1.29155
20
2.24176
11
1.28575
21
2.25044
0
LINE
8
BLACK
6
CONTINUOUS
10
1.28575
20
2.25044
11
1.25867
21
2.27752
0
LINE
8
BLACK
6
CONTINUOUS
10
1.25867
20
2.27752
11
1.25759
21
2.27914
0
LINE
8
BLACK
6
CONTINUOUS
10
1.25759
20
2.27914
11
1.25721
21
2.28106
0
LINE
8
BLACK
6
CONTINUOUS
10
1.25721
20
2.28106
11
1.25721
21
2.28737
0
LINE
8
BLACK
6
CONTINUOUS
10
1.25721
20
2.28737
11
1.25156
21
2.30105
0
LINE
8
BLACK
6
CONTINUOUS
10
1.25156
20
2.30105
11
1.2411
21
2.31152
0
LINE
8
BLACK
6
CONTINUOUS
10
1.2411
20
2.31152
11
1.22743
21
2.3172
0
LINE
8
BLACK
6
CONTINUOUS
10
1.22743
20
2.3172
11
1.21263
21
2.31721
0
LINE
8
BLACK
6
CONTINUOUS
10
1.21263
20
2.31721
11
1.19895
21
2.31156
0
LINE
8
BLACK
6
CONTINUOUS
10
1.19895
20
2.31156
11
1.18848
21
2.3011
0
LINE
8
BLACK
6
CONTINUOUS
10
1.18848
20
2.3011
11
1.1828
21
2.28743
0
LINE
8
BLACK
6
CONTINUOUS
10
1.1828
20
2.28743
11
1.18279
21
2.27783
0
LINE
8
BLACK
6
CONTINUOUS
10
1.18279
20
2.27783
11
1.18241
21
2.27591
0
LINE
8
BLACK
6
CONTINUOUS
10
1.18241
20
2.27591
11
1.18133
21
2.27429
0
LINE
8
BLACK
6
CONTINUOUS
10
1.18133
20
2.27429
11
1.1797
21
2.27321
0
LINE
8
BLACK
6
CONTINUOUS
10
1.1797
20
2.27321
11
1.17779
21
2.27283
0
LINE
8
BLACK
6
CONTINUOUS
10
1.17779
20
2.27283
11
1.16058
21
2.27285
0
LINE
8
BLACK
6
CONTINUOUS
10
1.16058
20
2.27285
11
1.1338
21
2.26178
0
LINE
8
BLACK
6
CONTINUOUS
10
1.1338
20
2.26178
11
1.11329
21
2.24131
0
LINE
8
BLACK
6
CONTINUOUS
10
1.11329
20
2.24131
11
1.10218
21
2.21455
0
LINE
8
BLACK
6
CONTINUOUS
10
1.10218
20
2.21455
11
1.10215
21
2.18558
0
LINE
8
BLACK
6
CONTINUOUS
10
1.10215
20
2.18558
11
1.11322
21
2.1588
0
LINE
8
BLACK
6
CONTINUOUS
10
1.11322
20
2.1588
11
1.13369
21
2.13829
0
LINE
8
BLACK
6
CONTINUOUS
10
1.13369
20
2.13829
11
1.16045
21
2.12718
0
LINE
8
BLACK
6
CONTINUOUS
10
1.16045
20
2.12718
11
1.18942
21
2.12715
0
LINE
8
BLACK
6
CONTINUOUS
10
1.18942
20
2.12715
11
1.2162
21
2.13822
0
LINE
8
BLACK
6
CONTINUOUS
10
1.2162
20
2.13822
11
1.23671
21
2.15869
0
LINE
8
BLACK
6
CONTINUOUS
10
1.23671
20
2.15869
11
1.24407
21
2.17641
0
LINE
8
BLACK
6
CONTINUOUS
10
1.24407
20
2.17641
11
1.24515
21
2.17803
0
LINE
8
BLACK
6
CONTINUOUS
10
1.24515
20
2.17803
11
1.24678
21
2.17911
0
LINE
8
BLACK
6
CONTINUOUS
10
1.24678
20
2.17911
11
1.24869
21
2.17949
0
LINE
8
BLACK
6
CONTINUOUS
10
1.24869
20
2.17949
11
1.2506
21
2.17911
0
LINE
8
BLACK
6
CONTINUOUS
10
1.2506
20
2.17911
11
1.25222
21
2.17803
0
LINE
8
BLACK
6
CONTINUOUS
10
1.25222
20
2.17803
11
1.33049
21
2.09976
0
LINE
8
BLACK
6
CONTINUOUS
10
1.33049
20
2.09976
11
1.33158
21
2.09813
0
LINE
8
BLACK
6
CONTINUOUS
10
1.33158
20
2.09813
11
1.33196
21
2.09622
0
LINE
8
BLACK
6
CONTINUOUS
10
1.33196
20
2.09622
11
1.33158
21
2.09431
0
LINE
8
BLACK
6
CONTINUOUS
10
1.33158
20
2.09431
11
1.33049
21
2.09268
0
LINE
8
BLACK
6
CONTINUOUS
10
1.33049
20
2.09268
11
1.23825
21
2.00044
0
LINE
8
BLACK
6
CONTINUOUS
10
1.23825
20
2.00044
11
1.23245
21
1.99176
0
LINE
8
BLACK
6
CONTINUOUS
10
1.23245
20
1.99176
11
1.23041
21
1.98151
0
LINE
8
BLACK
6
CONTINUOUS
10
1.23041
20
1.98151
11
1.23041
21
1.84307
0
LINE
8
BLACK
6
CONTINUOUS
10
1.23041
20
1.84307
11
1.23003
21
1.84116
0
LINE
8
BLACK
6
CONTINUOUS
10
1.23003
20
1.84116
11
1.22894
21
1.83953
0
LINE
8
BLACK
6
CONTINUOUS
10
1.22894
20
1.83953
11
1.22732
21
1.83845
0
LINE
8
BLACK
6
CONTINUOUS
10
1.22732
20
1.83845
11
1.22541
21
1.83807
0
LINE
8
BLACK
6
CONTINUOUS
10
1.22541
20
1.83807
11
1.21437
21
1.83808
0
LINE
8
BLACK
6
CONTINUOUS
10
1.21437
20
1.83808
11
1.20069
21
1.83243
0
LINE
8
BLACK
6
CONTINUOUS
10
1.20069
20
1.83243
11
1.19022
21
1.82197
0
LINE
8
BLACK
6
CONTINUOUS
10
1.19022
20
1.82197
11
1.18454
21
1.8083
0
LINE
8
BLACK
6
CONTINUOUS
10
1.18454
20
1.8083
11
1.18453
21
1.7935
0
LINE
8
BLACK
6
CONTINUOUS
10
1.18453
20
1.7935
11
1.19018
21
1.77982
0
LINE
8
BLACK
6
CONTINUOUS
10
1.19018
20
1.77982
11
1.19469
21
1.77531
0
LINE
8
BLACK
6
CONTINUOUS
10
1.19469
20
1.77531
11
1.19577
21
1.77368
0
LINE
8
BLACK
6
CONTINUOUS
10
1.19577
20
1.77368
11
1.19615
21
1.77177
0
LINE
8
BLACK
6
CONTINUOUS
10
1.19615
20
1.77177
11
1.19615
21
1.67141
0
LINE
8
BLACK
6
CONTINUOUS
10
1.19615
20
1.67141
11
1.19577
21
1.6695
0
LINE
8
BLACK
6
CONTINUOUS
10
1.19577
20
1.6695
11
1.19468
21
1.66787
0
LINE
8
BLACK
6
CONTINUOUS
10
1.19468
20
1.66787
11
1.14386
21
1.61705
0
LINE
8
BLACK
6
CONTINUOUS
10
1.14386
20
1.61705
11
1.14224
21
1.61597
0
LINE
8
BLACK
6
CONTINUOUS
10
1.14224
20
1.61597
11
1.14033
21
1.61559
0
LINE
8
BLACK
6
CONTINUOUS
10
1.14033
20
1.61559
11
0.824345
21
1.61559
0
LINE
8
BLACK
6
CONTINUOUS
10
0.824345
20
1.61559
11
0.823369
21
1.61569
0
LINE
8
BLACK
6
CONTINUOUS
10
0.823369
20
1.61569
11
0.819331
21
1.61649
0
LINE
8
BLACK
6
CONTINUOUS
10
0.819331
20
1.61649
11
0.790269
21
1.61649
0
LINE
8
BLACK
6
CONTINUOUS
10
0.790269
20
1.61649
11
0.786231
21
1.61569
0
LINE
8
BLACK
6
CONTINUOUS
10
0.786231
20
1.61569
11
0.785255
21
1.61559
0
LINE
8
BLACK
6
CONTINUOUS
10
0.785255
20
1.61559
11
0.584587
21
1.61559
0
LINE
8
BLACK
6
CONTINUOUS
10
0.584587
20
1.61559
11
0.582674
21
1.61597
0
LINE
8
BLACK
6
CONTINUOUS
10
0.582674
20
1.61597
11
0.581052
21
1.61705
0
LINE
8
BLACK
6
CONTINUOUS
10
0.581052
20
1.61705
11
0.579968
21
1.61868
0
LINE
8
BLACK
6
CONTINUOUS
10
0.579968
20
1.61868
11
0.579673
21
1.61967
0
LINE
8
BLACK
6
CONTINUOUS
10
0.579673
20
1.61967
11
0.578714
21
1.62476
0
LINE
8
BLACK
6
CONTINUOUS
10
0.578714
20
1.62476
11
0.574384
21
1.63149
0
LINE
8
BLACK
6
CONTINUOUS
10
0.574384
20
1.63149
11
0.567807
21
1.63599
0
LINE
8
BLACK
6
CONTINUOUS
10
0.567807
20
1.63599
11
0.559499
21
1.63767
0
LINE
8
BLACK
6
CONTINUOUS
10
0.559499
20
1.63767
11
0.525466
21
1.63767
0
LINE
8
BLACK
6
CONTINUOUS
10
0.525466
20
1.63767
11
0.517737
21
1.63621
0
LINE
8
BLACK
6
CONTINUOUS
10
0.517737
20
1.63621
11
0.511008
21
1.63188
0
LINE
8
BLACK
6
CONTINUOUS
10
0.511008
20
1.63188
11
0.506514
21
1.62531
0
LINE
8
BLACK
6
CONTINUOUS
10
0.506514
20
1.62531
11
0.504831
21
1.617
0
LINE
8
BLACK
6
CONTINUOUS
10
0.504831
20
1.617
11
0.504831
21
1.56297
0
LINE
8
BLACK
6
CONTINUOUS
10
0.504831
20
1.56297
11
0.506286
21
1.55524
0
LINE
8
BLACK
6
CONTINUOUS
10
0.506286
20
1.55524
11
0.510616
21
1.54851
0
LINE
8
BLACK
6
CONTINUOUS
10
0.510616
20
1.54851
11
0.517193
21
1.54401
0
LINE
8
BLACK
6
CONTINUOUS
10
0.517193
20
1.54401
11
0.525501
21
1.54233
0
LINE
8
BLACK
6
CONTINUOUS
10
0.525501
20
1.54233
11
0.559534
21
1.54233
0
LINE
8
BLACK
6
CONTINUOUS
10
0.559534
20
1.54233
11
0.567263
21
1.54379
0
LINE
8
BLACK
6
CONTINUOUS
10
0.567263
20
1.54379
11
0.573992
21
1.54812
0
LINE
8
BLACK
6
CONTINUOUS
10
0.573992
20
1.54812
11
0.578486
21
1.55469
0
LINE
8
BLACK
6
CONTINUOUS
10
0.578486
20
1.55469
11
0.579642
21
1.5604
0
LINE
8
BLACK
6
CONTINUOUS
10
0.579642
20
1.5604
11
0.580395
21
1.5622
0
LINE
8
BLACK
6
CONTINUOUS
10
0.580395
20
1.5622
11
0.581779
21
1.56358
0
LINE
8
BLACK
6
CONTINUOUS
10
0.581779
20
1.56358
11
0.583584
21
1.56432
0
LINE
8
BLACK
6
CONTINUOUS
10
0.583584
20
1.56432
11
0.584543
21
1.56441
0
LINE
8
BLACK
6
CONTINUOUS
10
0.584543
20
1.56441
11
0.788384
21
1.56441
0
LINE
8
BLACK
6
CONTINUOUS
10
0.788384
20
1.56441
11
0.792423
21
1.56521
0
LINE
8
BLACK
6
CONTINUOUS
10
0.792423
20
1.56521
11
0.793398
21
1.56531
0
LINE
8
BLACK
6
CONTINUOUS
10
0.793398
20
1.56531
11
0.816202
21
1.56531
0
LINE
8
BLACK
6
CONTINUOUS
10
0.816202
20
1.56531
11
0.817177
21
1.56521
0
LINE
8
BLACK
6
CONTINUOUS
10
0.817177
20
1.56521
11
0.821216
21
1.56441
0
LINE
8
BLACK
6
CONTINUOUS
10
0.821216
20
1.56441
11
1.15251
21
1.56441
0
LINE
8
BLACK
6
CONTINUOUS
10
1.15251
20
1.56441
11
1.16276
21
1.56645
0
LINE
8
BLACK
6
CONTINUOUS
10
1.16276
20
1.56645
11
1.17144
21
1.57225
0
LINE
8
BLACK
6
CONTINUOUS
10
1.17144
20
1.57225
11
1.19625
21
1.59706
0
LINE
8
BLACK
6
CONTINUOUS
10
1.19625
20
1.59706
11
1.19788
21
1.59815
0
LINE
8
BLACK
6
CONTINUOUS
10
1.19788
20
1.59815
11
1.19979
21
1.59853
0
LINE
8
BLACK
6
CONTINUOUS
10
1.19979
20
1.59853
11
1.2017
21
1.59815
0
LINE
8
BLACK
6
CONTINUOUS
10
1.2017
20
1.59815
11
1.20333
21
1.59706
0
LINE
8
BLACK
6
CONTINUOUS
10
1.20333
20
1.59706
11
1.2119
21
1.58848
0
LINE
8
BLACK
6
CONTINUOUS
10
1.2119
20
1.58848
11
1.22557
21
1.5828
0
LINE
8
BLACK
6
CONTINUOUS
10
1.22557
20
1.5828
11
1.24037
21
1.58279
0
LINE
8
BLACK
6
CONTINUOUS
10
1.24037
20
1.58279
11
1.25405
21
1.58844
0
LINE
8
BLACK
6
CONTINUOUS
10
1.25405
20
1.58844
11
1.26452
21
1.5989
0
LINE
8
BLACK
6
CONTINUOUS
10
1.26452
20
1.5989
11
1.2702
21
1.61257
0
LINE
8
BLACK
6
CONTINUOUS
10
1.2702
20
1.61257
11
1.2702
21
1.61895
0
LINE
8
BLACK
6
CONTINUOUS
10
1.2702
20
1.61895
11
1.27059
21
1.62086
0
LINE
8
BLACK
6
CONTINUOUS
10
1.27059
20
1.62086
11
1.27167
21
1.62248
0
LINE
8
BLACK
6
CONTINUOUS
10
1.27167
20
1.62248
11
1.27375
21
1.62456
0
LINE
8
BLACK
6
CONTINUOUS
10
1.27375
20
1.62456
11
1.27955
21
1.63324
0
LINE
8
BLACK
6
CONTINUOUS
10
1.27955
20
1.63324
11
1.28159
21
1.64349
0
LINE
8
BLACK
6
CONTINUOUS
10
1.28159
20
1.64349
11
1.28159
21
1.96933
0
LINE
8
BLACK
6
CONTINUOUS
10
1.28159
20
1.96933
11
1.28197
21
1.97124
0
LINE
8
BLACK
6
CONTINUOUS
10
1.28197
20
1.97124
11
1.28306
21
1.97286
0
LINE
8
BLACK
6
CONTINUOUS
10
1.28306
20
1.97286
11
1.37936
21
2.06917
0
LINE
8
BLACK
6
CONTINUOUS
10
1.37936
20
2.06917
11
1.38098
21
2.07025
0
LINE
8
BLACK
6
CONTINUOUS
10
1.38098
20
2.07025
11
1.38289
21
2.07063
0
LINE
8
BLACK
6
CONTINUOUS
10
1.38289
20
2.07063
11
1.5478
21
2.07063
0
LINE
8
BLACK
6
CONTINUOUS
10
1.5478
20
2.07063
11
1.54971
21
2.07025
0
LINE
8
BLACK
6
CONTINUOUS
10
1.54971
20
2.07025
11
1.55133
21
2.06917
0
LINE
8
BLACK
6
CONTINUOUS
10
1.55133
20
2.06917
11
1.55242
21
2.06754
0
LINE
8
BLACK
6
CONTINUOUS
10
1.55242
20
2.06754
11
1.5528
21
2.06563
0
LINE
8
BLACK
6
CONTINUOUS
10
1.5528
20
2.06563
11
1.55279
21
2.05763
0
LINE
8
BLACK
6
CONTINUOUS
10
1.55279
20
2.05763
11
1.55844
21
2.04395
0
LINE
8
BLACK
6
CONTINUOUS
10
1.55844
20
2.04395
11
1.5689
21
2.03348
0
LINE
8
BLACK
6
CONTINUOUS
10
1.5689
20
2.03348
11
1.58257
21
2.0278
0
LINE
8
BLACK
6
CONTINUOUS
10
1.58257
20
2.0278
11
1.59737
21
2.02779
0
LINE
8
BLACK
6
CONTINUOUS
10
1.59737
20
2.02779
11
1.61105
21
2.03344
0
LINE
8
BLACK
6
CONTINUOUS
10
1.61105
20
2.03344
11
1.61359
21
2.03598
0
LINE
8
BLACK
6
CONTINUOUS
10
1.61359
20
2.03598
11
1.61521
21
2.03706
0
LINE
8
BLACK
6
CONTINUOUS
10
1.61521
20
2.03706
11
1.61712
21
2.03744
0
LINE
8
BLACK
6
CONTINUOUS
10
1.61712
20
2.03744
11
1.70026
21
2.03744
0
LINE
8
BLACK
6
CONTINUOUS
10
1.70026
20
2.03744
11
1.71126
21
2.03963
0
LINE
8
BLACK
6
CONTINUOUS
10
1.71126
20
2.03963
11
1.72058
21
2.04586
0
LINE
8
BLACK
6
CONTINUOUS
10
1.72058
20
2.04586
11
1.74914
21
2.07442
0
LINE
8
BLACK
6
CONTINUOUS
10
1.74914
20
2.07442
11
1.75537
21
2.08374
0
LINE
8
BLACK
6
CONTINUOUS
10
1.75537
20
2.08374
11
1.75581
21
2.08594
0
LINE
8
BLACK
6
CONTINUOUS
10
1.75581
20
2.08594
11
1.75655
21
2.08774
0
LINE
8
BLACK
6
CONTINUOUS
10
1.75655
20
2.08774
11
1.75793
21
2.08912
0
LINE
8
BLACK
6
CONTINUOUS
10
1.75793
20
2.08912
11
1.75979
21
2.08988
0
LINE
8
BLACK
6
CONTINUOUS
10
1.75979
20
2.08988
11
1.76726
21
2.09129
0
LINE
8
BLACK
6
CONTINUOUS
10
1.76726
20
2.09129
11
1.77399
21
2.09562
0
LINE
8
BLACK
6
CONTINUOUS
10
1.77399
20
2.09562
11
1.77585
21
2.09834
0
LINE
8
BLACK
6
CONTINUOUS
10
1.77585
20
2.09834
11
1.77725
21
2.09971
0
LINE
8
BLACK
6
CONTINUOUS
10
1.77725
20
2.09971
11
1.77906
21
2.10043
0
LINE
8
BLACK
6
CONTINUOUS
10
1.77906
20
2.10043
11
1.78101
21
2.10041
0
LINE
8
BLACK
6
CONTINUOUS
10
1.78101
20
2.10041
11
1.7828
21
2.09965
0
LINE
8
BLACK
6
CONTINUOUS
10
1.7828
20
2.09965
11
1.78419
21
2.09823
0
LINE
8
BLACK
6
CONTINUOUS
10
1.78419
20
2.09823
11
1.78607
21
2.0953
0
LINE
8
BLACK
6
CONTINUOUS
10
1.78607
20
2.0953
11
1.78626
21
2.09511
0
LINE
8
BLACK
6
CONTINUOUS
10
1.78626
20
2.09511
11
1.78699
21
2.0933
0
LINE
8
BLACK
6
CONTINUOUS
10
1.78699
20
2.0933
11
1.78697
21
2.09135
0
LINE
8
BLACK
6
CONTINUOUS
10
1.78697
20
2.09135
11
1.7862
21
2.08955
0
LINE
8
BLACK
6
CONTINUOUS
10
1.7862
20
2.08955
11
1.78561
21
2.08884
0
LINE
8
BLACK
6
CONTINUOUS
10
1.78561
20
2.08884
11
1.31971
21
1.62293
0
LINE
8
BLACK
6
CONTINUOUS
10
1.31971
20
1.62293
11
1.31808
21
1.62185
0
LINE
8
BLACK
6
CONTINUOUS
10
1.31808
20
1.62185
11
1.31617
21
1.62147
0
LINE
8
BLACK
6
CONTINUOUS
10
1.31617
20
1.62147
11
1.30659
21
1.62148
0
LINE
8
BLACK
6
CONTINUOUS
10
1.30659
20
1.62148
11
1.29291
21
1.61582
0
LINE
8
BLACK
6
CONTINUOUS
10
1.29291
20
1.61582
11
1.28244
21
1.60537
0
LINE
8
BLACK
6
CONTINUOUS
10
1.28244
20
1.60537
11
1.27676
21
1.5917
0
LINE
8
BLACK
6
CONTINUOUS
10
1.27676
20
1.5917
11
1.27675
21
1.5769
0
LINE
8
BLACK
6
CONTINUOUS
10
1.27675
20
1.5769
11
1.2824
21
1.56322
0
LINE
8
BLACK
6
CONTINUOUS
10
1.2824
20
1.56322
11
1.29286
21
1.55274
0
LINE
8
BLACK
6
CONTINUOUS
10
1.29286
20
1.55274
11
1.29903
21
1.55018
0
LINE
8
BLACK
6
CONTINUOUS
10
1.29903
20
1.55018
11
1.30066
21
1.54909
0
LINE
8
BLACK
6
CONTINUOUS
10
1.30066
20
1.54909
11
1.30174
21
1.54747
0
LINE
8
BLACK
6
CONTINUOUS
10
1.30174
20
1.54747
11
1.30212
21
1.54555
0
LINE
8
BLACK
6
CONTINUOUS
10
1.30212
20
1.54555
11
1.30173
21
1.54364
0
LINE
8
BLACK
6
CONTINUOUS
10
1.30173
20
1.54364
11
1.30065
21
1.54202
0
LINE
8
BLACK
6
CONTINUOUS
10
1.30065
20
1.54202
11
1.29903
21
1.54094
0
LINE
8
BLACK
6
CONTINUOUS
10
1.29903
20
1.54094
11
1.29712
21
1.54056
0
LINE
8
BLACK
6
CONTINUOUS
10
1.29712
20
1.54056
11
0.964132
21
1.54056
0
LINE
8
BLACK
6
CONTINUOUS
10
0.964132
20
1.54056
11
0.962219
21
1.54094
0
LINE
8
BLACK
6
CONTINUOUS
10
0.962219
20
1.54094
11
0.960594
21
1.54203
0
LINE
8
BLACK
6
CONTINUOUS
10
0.960594
20
1.54203
11
0.958102
21
1.54452
0
LINE
8
BLACK
6
CONTINUOUS
10
0.958102
20
1.54452
11
0.944433
21
1.5502
0
LINE
8
BLACK
6
CONTINUOUS
10
0.944433
20
1.5502
11
0.929632
21
1.55021
0
LINE
8
BLACK
6
CONTINUOUS
10
0.929632
20
1.55021
11
0.915953
21
1.54456
0
LINE
8
BLACK
6
CONTINUOUS
10
0.915953
20
1.54456
11
0.905478
21
1.5341
0
LINE
8
BLACK
6
CONTINUOUS
10
0.905478
20
1.5341
11
0.899802
21
1.52043
0
LINE
8
BLACK
6
CONTINUOUS
10
0.899802
20
1.52043
11
0.899789
21
1.50563
0
LINE
8
BLACK
6
CONTINUOUS
10
0.899789
20
1.50563
11
0.905441
21
1.49195
0
LINE
8
BLACK
6
CONTINUOUS
10
0.905441
20
1.49195
11
0.915898
21
1.48148
0
LINE
8
BLACK
6
CONTINUOUS
10
0.915898
20
1.48148
11
0.929567
21
1.4758
0
LINE
8
BLACK
6
CONTINUOUS
10
0.929567
20
1.4758
11
0.944368
21
1.47579
0
LINE
8
BLACK
6
CONTINUOUS
10
0.944368
20
1.47579
11
0.958047
21
1.48144
0
LINE
8
BLACK
6
CONTINUOUS
10
0.958047
20
1.48144
11
0.96059
21
1.48398
0
LINE
8
BLACK
6
CONTINUOUS
10
0.96059
20
1.48398
11
0.962213
21
1.48506
0
LINE
8
BLACK
6
CONTINUOUS
10
0.962213
20
1.48506
11
0.964123
21
1.48544
0
LINE
8
BLACK
6
CONTINUOUS
10
0.964123
20
1.48544
11
1.31748
21
1.48544
0
LINE
8
BLACK
6
CONTINUOUS
10
1.31748
20
1.48544
11
1.31939
21
1.48506
0
LINE
8
BLACK
6
CONTINUOUS
10
1.31939
20
1.48506
11
1.32102
21
1.48398
0
LINE
8
BLACK
6
CONTINUOUS
10
1.32102
20
1.48398
11
1.3221
21
1.48235
0
LINE
8
BLACK
6
CONTINUOUS
10
1.3221
20
1.48235
11
1.32248
21
1.48044
0
LINE
8
BLACK
6
CONTINUOUS
10
1.32248
20
1.48044
11
1.32248
21
1.47421
0
LINE
8
BLACK
6
CONTINUOUS
10
1.32248
20
1.47421
11
1.32813
21
1.46053
0
LINE
8
BLACK
6
CONTINUOUS
10
1.32813
20
1.46053
11
1.33125
21
1.45741
0
LINE
8
BLACK
6
CONTINUOUS
10
1.33125
20
1.45741
11
1.33233
21
1.45578
0
LINE
8
BLACK
6
CONTINUOUS
10
1.33233
20
1.45578
11
1.33261
21
1.45485
0
LINE
8
BLACK
6
CONTINUOUS
10
1.33261
20
1.45485
11
1.33432
21
1.4463
0
LINE
8
BLACK
6
CONTINUOUS
10
1.33432
20
1.4463
11
1.34055
21
1.43697
0
LINE
8
BLACK
6
CONTINUOUS
10
1.34055
20
1.43697
11
1.42598
21
1.35154
0
LINE
8
BLACK
6
CONTINUOUS
10
1.42598
20
1.35154
11
1.42706
21
1.34992
0
LINE
8
BLACK
6
CONTINUOUS
10
1.42706
20
1.34992
11
1.42744
21
1.34801
0
LINE
8
BLACK
6
CONTINUOUS
10
1.42744
20
1.34801
11
1.42744
21
1.26008
0
LINE
8
BLACK
6
CONTINUOUS
10
1.42744
20
1.26008
11
1.42706
21
1.25817
0
LINE
8
BLACK
6
CONTINUOUS
10
1.42706
20
1.25817
11
1.42597
21
1.25655
0
LINE
8
BLACK
6
CONTINUOUS
10
1.42597
20
1.25655
11
1.42348
21
1.25406
0
LINE
8
BLACK
6
CONTINUOUS
10
1.42348
20
1.25406
11
1.4178
21
1.24039
0
LINE
8
BLACK
6
CONTINUOUS
10
1.4178
20
1.24039
11
1.41779
21
1.22558
0
LINE
8
BLACK
6
CONTINUOUS
10
1.41779
20
1.22558
11
1.42357
21
1.21159
0
LINE
8
BLACK
6
CONTINUOUS
10
1.42357
20
1.21159
11
1.42395
21
1.20968
0
LINE
8
BLACK
6
CONTINUOUS
10
1.42395
20
1.20968
11
1.42357
21
1.20777
0
LINE
8
BLACK
6
CONTINUOUS
10
1.42357
20
1.20777
11
1.42248
21
1.20615
0
LINE
8
BLACK
6
CONTINUOUS
10
1.42248
20
1.20615
11
1.42086
21
1.20506
0
LINE
8
BLACK
6
CONTINUOUS
10
1.42086
20
1.20506
11
1.41895
21
1.20469
0
LINE
8
BLACK
6
CONTINUOUS
10
1.41895
20
1.20469
11
0.860484
21
1.20469
0
LINE
8
BLACK
6
CONTINUOUS
10
0.860484
20
1.20469
11
0.852646
21
1.20315
0
LINE
8
BLACK
6
CONTINUOUS
10
0.852646
20
1.20315
11
0.845726
21
1.19857
0
LINE
8
BLACK
6
CONTINUOUS
10
0.845726
20
1.19857
11
0.583311
21
0.936149
0
LINE
8
BLACK
6
CONTINUOUS
10
0.583311
20
0.936149
11
0.581689
21
0.935066
0
LINE
8
BLACK
6
CONTINUOUS
10
0.581689
20
0.935066
11
0.579775
21
0.934685
0
LINE
8
BLACK
6
CONTINUOUS
10
0.579775
20
0.934685
11
0.0948047
21
0.934685
0
LINE
8
BLACK
6
CONTINUOUS
10
0.0948047
20
0.934685
11
0.0928913
21
0.935066
0
LINE
8
BLACK
6
CONTINUOUS
10
0.0928913
20
0.935066
11
0.0912692
21
0.936149
0
LINE
8
BLACK
6
CONTINUOUS
10
0.0912692
20
0.936149
11
0.0901853
21
0.937772
0
LINE
8
BLACK
6
CONTINUOUS
10
0.0901853
20
0.937772
11
0.0898047
21
0.939685
0
LINE
8
BLACK
6
CONTINUOUS
10
0.0898047
20
0.939685
11
0.0898047
21
1.30012
0
LINE
8
BLACK
6
CONTINUOUS
10
0.0898047
20
1.30012
11
0.0901853
21
1.30203
0
LINE
8
BLACK
6
CONTINUOUS
10
0.0901853
20
1.30203
11
0.0912692
21
1.30365
0
LINE
8
BLACK
6
CONTINUOUS
10
0.0912692
20
1.30365
11
0.132793
21
1.34518
0
LINE
8
BLACK
6
CONTINUOUS
10
0.132793
20
1.34518
11
0.198794
21
1.41118
0
LINE
8
BLACK
6
CONTINUOUS
10
0.198794
20
1.41118
11
0.207117
21
1.42363
0
LINE
8
BLACK
6
CONTINUOUS
10
0.207117
20
1.42363
11
0.210039
21
1.43833
0
LINE
8
BLACK
6
CONTINUOUS
10
0.210039
20
1.43833
11
0.210039
21
1.49101
0
LINE
8
BLACK
6
CONTINUOUS
10
0.210039
20
1.49101
11
0.21042
21
1.49293
0
LINE
8
BLACK
6
CONTINUOUS
10
0.21042
20
1.49293
11
0.211504
21
1.49455
0
LINE
8
BLACK
6
CONTINUOUS
10
0.211504
20
1.49455
11
0.213126
21
1.49563
0
LINE
8
BLACK
6
CONTINUOUS
10
0.213126
20
1.49563
11
0.215039
21
1.49601
0
LINE
8
BLACK
6
CONTINUOUS
10
0.215039
20
1.49601
11
0.248608
21
1.49601
0
LINE
8
BLACK
6
CONTINUOUS
10
0.248608
20
1.49601
11
0.256338
21
1.49747
0
LINE
8
BLACK
6
CONTINUOUS
10
0.256338
20
1.49747
11
0.263067
21
1.5018
0
LINE
8
BLACK
6
CONTINUOUS
10
0.263067
20
1.5018
11
0.267561
21
1.50837
0
LINE
8
BLACK
6
CONTINUOUS
10
0.267561
20
1.50837
11
0.269243
21
1.51668
0
LINE
8
BLACK
6
CONTINUOUS
10
0.269243
20
1.51668
11
0.269243
21
1.6732
0
LINE
8
BLACK
6
CONTINUOUS
10
0.269243
20
1.6732
11
0.267789
21
1.68092
0
LINE
8
BLACK
6
CONTINUOUS
10
0.267789
20
1.68092
11
0.263459
21
1.68765
0
LINE
8
BLACK
6
CONTINUOUS
10
0.263459
20
1.68765
11
0.256882
21
1.69215
0
LINE
8
BLACK
6
CONTINUOUS
10
0.256882
20
1.69215
11
0.248574
21
1.69383
0
LINE
8
BLACK
6
CONTINUOUS
10
0.248574
20
1.69383
11
0.0920609
21
1.69383
0
LINE
8
BLACK
6
CONTINUOUS
10
0.0920609
20
1.69383
11
0.0843311
21
1.69238
0
LINE
8
BLACK
6
CONTINUOUS
10
0.0843311
20
1.69238
11
0.0776023
21
1.68805
0
LINE
8
BLACK
6
CONTINUOUS
10
0.0776023
20
1.68805
11
0.0731083
21
1.68147
0
LINE
8
BLACK
6
CONTINUOUS
10
0.0731083
20
1.68147
11
0.0714259
21
1.67316
0
LINE
8
BLACK
6
CONTINUOUS
10
0.0714259
20
1.67316
11
0.0714259
21
1.51665
0
LINE
8
BLACK
6
CONTINUOUS
10
0.0714259
20
1.51665
11
0.0728803
21
1.50892
0
LINE
8
BLACK
6
CONTINUOUS
10
0.0728803
20
1.50892
11
0.0772102
21
1.50219
0
LINE
8
BLACK
6
CONTINUOUS
10
0.0772102
20
1.50219
11
0.0837873
21
1.49769
0
LINE
8
BLACK
6
CONTINUOUS
10
0.0837873
20
1.49769
11
0.0920956
21
1.49601
0
LINE
8
BLACK
6
CONTINUOUS
10
0.0920956
20
1.49601
11
0.13063
21
1.49601
0
LINE
8
BLACK
6
CONTINUOUS
10
0.13063
20
1.49601
11
0.132543
21
1.49563
0
LINE
8
BLACK
6
CONTINUOUS
10
0.132543
20
1.49563
11
0.134165
21
1.49455
0
LINE
8
BLACK
6
CONTINUOUS
10
0.134165
20
1.49455
11
0.135249
21
1.49293
0
LINE
8
BLACK
6
CONTINUOUS
10
0.135249
20
1.49293
11
0.13563
21
1.49101
0
LINE
8
BLACK
6
CONTINUOUS
10
0.13563
20
1.49101
11
0.13563
21
1.45532
0
LINE
8
BLACK
6
CONTINUOUS
10
0.13563
20
1.45532
11
0.135249
21
1.4534
0
LINE
8
BLACK
6
CONTINUOUS
10
0.135249
20
1.4534
11
0.134165
21
1.45178
0
LINE
8
BLACK
6
CONTINUOUS
10
0.134165
20
1.45178
11
0.0959279
21
1.41354
0
LINE
8
BLACK
6
CONTINUOUS
10
0.0959279
20
1.41354
11
0.1
21
1.41354
0
LINE
8
BLACK
6
CONTINUOUS
10
0.1
20
1.41354
11
0.101212
21
1.41333
0
LINE
8
BLACK
6
CONTINUOUS
10
0.101212
20
1.41333
11
0.103069
21
1.41177
0
LINE
8
BLACK
6
CONTINUOUS
10
0.103069
20
1.41177
11
0.103489
21
1.40938
0
LINE
8
BLACK
6
CONTINUOUS
10
0.103489
20
1.40938
11
0.102278
21
1.40729
0
LINE
8
BLACK
6
CONTINUOUS
10
0.102278
20
1.40729
11
0.1
21
1.40646
0
LINE
8
BLACK
6
CONTINUOUS
10
0.1
20
1.40646
11
0.0888413
21
1.40646
0
LINE
8
BLACK
6
CONTINUOUS
10
0.0888413
20
1.40646
11
0.0401891
21
1.3578
0
LINE
8
BLACK
6
CONTINUOUS
10
0.0401891
20
1.3578
11
0.038567
21
1.35672
0
LINE
8
BLACK
6
CONTINUOUS
10
0.038567
20
1.35672
11
0.0366535
21
1.35634
0
LINE
8
BLACK
6
CONTINUOUS
10
0.0366535
20
1.35634
11
0.0347401
21
1.35672
0
LINE
8
BLACK
6
CONTINUOUS
10
0.0347401
20
1.35672
11
0.033118
21
1.3578
0
LINE
8
BLACK
6
CONTINUOUS
10
0.033118
20
1.3578
11
0.0320341
21
1.35943
0
LINE
8
BLACK
6
CONTINUOUS
10
0.0320341
20
1.35943
11
0.0316535
21
1.36134
0
LINE
8
BLACK
6
CONTINUOUS
10
0.0316535
20
1.36134
11
0.0316535
21
2.36335
0
LINE
8
BLACK
6
CONTINUOUS
10
0.0316535
20
2.36335
11
0.0320341
21
2.36526
0
LINE
8
BLACK
6
CONTINUOUS
10
0.812898
20
1.74948
11
0.826567
21
1.7438
0
LINE
8
BLACK
6
CONTINUOUS
10
0.826567
20
1.7438
11
0.841368
21
1.74379
0
LINE
8
BLACK
6
CONTINUOUS
10
0.841368
20
1.74379
11
0.855047
21
1.74944
0
LINE
8
BLACK
6
CONTINUOUS
10
0.855047
20
1.74944
11
0.865522
21
1.7599
0
LINE
8
BLACK
6
CONTINUOUS
10
0.865522
20
1.7599
11
0.871198
21
1.77357
0
LINE
8
BLACK
6
CONTINUOUS
10
0.871198
20
1.77357
11
0.871211
21
1.78837
0
LINE
8
BLACK
6
CONTINUOUS
10
0.871211
20
1.78837
11
0.865559
21
1.80205
0
LINE
8
BLACK
6
CONTINUOUS
10
0.865559
20
1.80205
11
0.86302
21
1.80459
0
LINE
8
BLACK
6
CONTINUOUS
10
0.86302
20
1.80459
11
0.861938
21
1.80621
0
LINE
8
BLACK
6
CONTINUOUS
10
0.861938
20
1.80621
11
0.861559
21
1.80812
0
LINE
8
BLACK
6
CONTINUOUS
10
0.861559
20
1.80812
11
0.861559
21
1.93551
0
LINE
8
BLACK
6
CONTINUOUS
10
0.861559
20
1.93551
11
0.86194
21
1.93743
0
LINE
8
BLACK
6
CONTINUOUS
10
0.86194
20
1.93743
11
0.863024
21
1.93905
0
LINE
8
BLACK
6
CONTINUOUS
10
0.863024
20
1.93905
11
0.899139
21
1.97516
0
LINE
8
BLACK
6
CONTINUOUS
10
0.899139
20
1.97516
11
0.905371
21
1.98449
0
LINE
8
BLACK
6
CONTINUOUS
10
0.905371
20
1.98449
11
0.907559
21
1.99549
0
LINE
8
BLACK
6
CONTINUOUS
10
0.907559
20
1.99549
11
0.907559
21
2.15238
0
LINE
8
BLACK
6
CONTINUOUS
10
0.907559
20
2.15238
11
0.90794
21
2.15429
0
LINE
8
BLACK
6
CONTINUOUS
10
0.90794
20
2.15429
11
0.909024
21
2.15591
0
LINE
8
BLACK
6
CONTINUOUS
10
0.909024
20
2.15591
11
0.910646
21
2.157
0
LINE
8
BLACK
6
CONTINUOUS
10
0.910646
20
2.157
11
0.912559
21
2.15738
0
LINE
8
BLACK
6
CONTINUOUS
10
0.912559
20
2.15738
11
0.914472
21
2.157
0
LINE
8
BLACK
6
CONTINUOUS
10
0.914472
20
2.157
11
0.916098
21
2.15591
0
LINE
8
BLACK
6
CONTINUOUS
10
0.916098
20
2.15591
11
0.933689
21
2.13829
0
LINE
8
BLACK
6
CONTINUOUS
10
0.933689
20
2.13829
11
0.960449
21
2.12718
0
LINE
8
BLACK
6
CONTINUOUS
10
0.960449
20
2.12718
11
0.989424
21
2.12715
0
LINE
8
BLACK
6
CONTINUOUS
10
0.989424
20
2.12715
11
1.0162
21
2.13822
0
LINE
8
BLACK
6
CONTINUOUS
10
1.0162
20
2.13822
11
1.03671
21
2.15869
0
LINE
8
BLACK
6
CONTINUOUS
10
1.03671
20
2.15869
11
1.04782
21
2.18545
0
LINE
8
BLACK
6
CONTINUOUS
10
1.04782
20
2.18545
11
1.04785
21
2.21442
0
LINE
8
BLACK
6
CONTINUOUS
10
1.04785
20
2.21442
11
1.03678
21
2.2412
0
LINE
8
BLACK
6
CONTINUOUS
10
1.03678
20
2.2412
11
1.01631
21
2.26171
0
LINE
8
BLACK
6
CONTINUOUS
10
1.01631
20
2.26171
11
0.989551
21
2.27282
0
LINE
8
BLACK
6
CONTINUOUS
10
0.989551
20
2.27282
11
0.960576
21
2.27285
0
LINE
8
BLACK
6
CONTINUOUS
10
0.960576
20
2.27285
11
0.933796
21
2.26178
0
LINE
8
BLACK
6
CONTINUOUS
10
0.933796
20
2.26178
11
0.916091
21
2.24411
0
LINE
8
BLACK
6
CONTINUOUS
10
0.916091
20
2.24411
11
0.914468
21
2.24303
0
LINE
8
BLACK
6
CONTINUOUS
10
0.914468
20
2.24303
11
0.912555
21
2.24265
0
LINE
8
BLACK
6
CONTINUOUS
10
0.912555
20
2.24265
11
0.910642
21
2.24303
0
LINE
8
BLACK
6
CONTINUOUS
10
0.910642
20
2.24303
11
0.90902
21
2.24411
0
LINE
8
BLACK
6
CONTINUOUS
10
0.90902
20
2.24411
11
0.907938
21
2.24574
0
LINE
8
BLACK
6
CONTINUOUS
10
0.907938
20
2.24574
11
0.907559
21
2.24765
0
LINE
8
BLACK
6
CONTINUOUS
10
0.907559
20
2.24765
11
0.907559
21
2.25287
0
LINE
8
BLACK
6
CONTINUOUS
10
0.907559
20
2.25287
11
0.90794
21
2.25478
0
LINE
8
BLACK
6
CONTINUOUS
10
0.90794
20
2.25478
11
0.909027
21
2.25641
0
LINE
8
BLACK
6
CONTINUOUS
10
0.909027
20
2.25641
11
0.911522
21
2.2589
0
LINE
8
BLACK
6
CONTINUOUS
10
0.911522
20
2.2589
11
0.917198
21
2.27257
0
LINE
8
BLACK
6
CONTINUOUS
10
0.917198
20
2.27257
11
0.917211
21
2.28737
0
LINE
8
BLACK
6
CONTINUOUS
10
0.917211
20
2.28737
11
0.911559
21
2.30105
0
LINE
8
BLACK
6
CONTINUOUS
10
0.911559
20
2.30105
11
0.901102
21
2.31152
0
LINE
8
BLACK
6
CONTINUOUS
10
0.901102
20
2.31152
11
0.887433
21
2.3172
0
LINE
8
BLACK
6
CONTINUOUS
10
0.887433
20
2.3172
11
0.872632
21
2.31721
0
LINE
8
BLACK
6
CONTINUOUS
10
0.872632
20
2.31721
11
0.858953
21
2.31156
0
LINE
8
BLACK
6
CONTINUOUS
10
0.858953
20
2.31156
11
0.848478
21
2.3011
0
LINE
8
BLACK
6
CONTINUOUS
10
0.848478
20
2.3011
11
0.842802
21
2.28743
0
LINE
8
BLACK
6
CONTINUOUS
10
0.842802
20
2.28743
11
0.842789
21
2.27263
0
LINE
8
BLACK
6
CONTINUOUS
10
0.842789
20
2.27263
11
0.848441
21
2.25895
0
LINE
8
BLACK
6
CONTINUOUS
10
0.848441
20
2.25895
11
0.85098
21
2.25641
0
LINE
8
BLACK
6
CONTINUOUS
10
0.85098
20
2.25641
11
0.852062
21
2.25479
0
LINE
8
BLACK
6
CONTINUOUS
10
0.852062
20
2.25479
11
0.852441
21
2.25288
0
LINE
8
BLACK
6
CONTINUOUS
10
0.852441
20
2.25288
11
0.852441
21
2.00849
0
LINE
8
BLACK
6
CONTINUOUS
10
0.852441
20
2.00849
11
0.85206
21
2.00657
0
LINE
8
BLACK
6
CONTINUOUS
10
0.85206
20
2.00657
11
0.850976
21
2.00495
0
LINE
8
BLACK
6
CONTINUOUS
10
0.850976
20
2.00495
11
0.839391
21
1.99337
0
LINE
8
BLACK
6
CONTINUOUS
10
0.839391
20
1.99337
11
0.83919
21
1.99217
0
LINE
8
BLACK
6
CONTINUOUS
10
0.83919
20
1.99217
11
0.837024
21
1.9877
0
LINE
8
BLACK
6
CONTINUOUS
10
0.837024
20
1.9877
11
0.833691
21
1.98402
0
LINE
8
BLACK
6
CONTINUOUS
10
0.833691
20
1.98402
11
0.829458
21
1.98142
0
LINE
8
BLACK
6
CONTINUOUS
10
0.829458
20
1.98142
11
0.826693
21
1.98067
0
LINE
8
BLACK
6
CONTINUOUS
10
0.826693
20
1.98067
11
0.814861
21
1.96884
0
LINE
8
BLACK
6
CONTINUOUS
10
0.814861
20
1.96884
11
0.808629
21
1.95951
0
LINE
8
BLACK
6
CONTINUOUS
10
0.808629
20
1.95951
11
0.806441
21
1.94851
0
LINE
8
BLACK
6
CONTINUOUS
10
0.806441
20
1.94851
11
0.806441
21
1.80813
0
LINE
8
BLACK
6
CONTINUOUS
10
0.806441
20
1.80813
11
0.80606
21
1.80622
0
LINE
8
BLACK
6
CONTINUOUS
10
0.80606
20
1.80622
11
0.804973
21
1.80459
0
LINE
8
BLACK
6
CONTINUOUS
10
0.804973
20
1.80459
11
0.802478
21
1.8021
0
LINE
8
BLACK
6
CONTINUOUS
10
0.802478
20
1.8021
11
0.796802
21
1.78843
0
LINE
8
BLACK
6
CONTINUOUS
10
0.796802
20
1.78843
11
0.796789
21
1.77363
0
LINE
8
BLACK
6
CONTINUOUS
10
0.796789
20
1.77363
11
0.802441
21
1.75995
0
LINE
8
BLACK
6
CONTINUOUS
10
0.802441
20
1.75995
11
0.812898
21
1.74948
0
LINE
8
BLACK
6
CONTINUOUS
10
0.88259
20
2.29733
11
0.887349
21
2.2959
0
LINE
8
BLACK
6
CONTINUOUS
10
0.887349
20
2.2959
11
0.891517
21
2.2932
0
LINE
8
BLACK
6
CONTINUOUS
10
0.891517
20
2.2932
11
0.894759
21
2.28944
0
LINE
8
BLACK
6
CONTINUOUS
10
0.894759
20
2.28944
11
0.896815
21
2.28492
0
LINE
8
BLACK
6
CONTINUOUS
10
0.896815
20
2.28492
11
0.89752
21
2.28
0
LINE
8
BLACK
6
CONTINUOUS
10
0.89752
20
2.28
11
0.897514
21
2.27957
0
LINE
8
BLACK
6
CONTINUOUS
10
0.897514
20
2.27957
11
0.89669
21
2.27467
0
LINE
8
BLACK
6
CONTINUOUS
10
0.89669
20
2.27467
11
0.894524
21
2.2702
0
LINE
8
BLACK
6
CONTINUOUS
10
0.894524
20
2.2702
11
0.891191
21
2.26652
0
LINE
8
BLACK
6
CONTINUOUS
10
0.891191
20
2.26652
11
0.887874
21
2.26448
0
LINE
8
BLACK
6
CONTINUOUS
10
0.887874
20
2.26448
11
0.887874
21
1.99499
0
LINE
8
BLACK
6
CONTINUOUS
10
0.887874
20
1.99499
11
0.887579
21
1.9937
0
LINE
8
BLACK
6
CONTINUOUS
10
0.887579
20
1.9937
11
0.887431
21
1.9924
0
LINE
8
BLACK
6
CONTINUOUS
10
0.887431
20
1.9924
11
0.887191
21
1.99201
0
LINE
8
BLACK
6
CONTINUOUS
10
0.887191
20
1.99201
11
0.887089
21
1.99157
0
LINE
8
BLACK
6
CONTINUOUS
10
0.887089
20
1.99157
11
0.886268
21
1.99055
0
LINE
8
BLACK
6
CONTINUOUS
10
0.886268
20
1.99055
11
0.885568
21
1.98943
0
LINE
8
BLACK
6
CONTINUOUS
10
0.885568
20
1.98943
11
0.841874
21
1.94574
0
LINE
8
BLACK
6
CONTINUOUS
10
0.841874
20
1.94574
11
0.841874
21
1.79656
0
LINE
8
BLACK
6
CONTINUOUS
10
0.841874
20
1.79656
11
0.845517
21
1.7942
0
LINE
8
BLACK
6
CONTINUOUS
10
0.845517
20
1.7942
11
0.848759
21
1.79044
0
LINE
8
BLACK
6
CONTINUOUS
10
0.848759
20
1.79044
11
0.850815
21
1.78592
0
LINE
8
BLACK
6
CONTINUOUS
10
0.850815
20
1.78592
11
0.85152
21
1.781
0
LINE
8
BLACK
6
CONTINUOUS
10
0.85152
20
1.781
11
0.851514
21
1.78057
0
LINE
8
BLACK
6
CONTINUOUS
10
0.851514
20
1.78057
11
0.85069
21
1.77567
0
LINE
8
BLACK
6
CONTINUOUS
10
0.85069
20
1.77567
11
0.848524
21
1.7712
0
LINE
8
BLACK
6
CONTINUOUS
10
0.848524
20
1.7712
11
0.845191
21
1.76752
0
LINE
8
BLACK
6
CONTINUOUS
10
0.845191
20
1.76752
11
0.840958
21
1.76492
0
LINE
8
BLACK
6
CONTINUOUS
10
0.840958
20
1.76492
11
0.836165
21
1.76361
0
LINE
8
BLACK
6
CONTINUOUS
10
0.836165
20
1.76361
11
0.831199
21
1.76371
0
LINE
8
BLACK
6
CONTINUOUS
10
0.831199
20
1.76371
11
0.826458
21
1.76519
0
LINE
8
BLACK
6
CONTINUOUS
10
0.826458
20
1.76519
11
0.822323
21
1.76794
0
LINE
8
BLACK
6
CONTINUOUS
10
0.822323
20
1.76794
11
0.819126
21
1.77174
0
LINE
8
BLACK
6
CONTINUOUS
10
0.819126
20
1.77174
11
0.817126
21
1.77629
0
LINE
8
BLACK
6
CONTINUOUS
10
0.817126
20
1.77629
11
0.816482
21
1.78121
0
LINE
8
BLACK
6
CONTINUOUS
10
0.816482
20
1.78121
11
0.817246
21
1.78612
0
LINE
8
BLACK
6
CONTINUOUS
10
0.817246
20
1.78612
11
0.819357
21
1.79062
0
LINE
8
BLACK
6
CONTINUOUS
10
0.819357
20
1.79062
11
0.822645
21
1.79434
0
LINE
8
BLACK
6
CONTINUOUS
10
0.822645
20
1.79434
11
0.826126
21
1.79654
0
LINE
8
BLACK
6
CONTINUOUS
10
0.826126
20
1.79654
11
0.826126
21
1.94901
0
LINE
8
BLACK
6
CONTINUOUS
10
0.826126
20
1.94901
11
0.826421
21
1.9503
0
LINE
8
BLACK
6
CONTINUOUS
10
0.826421
20
1.9503
11
0.826569
21
1.9516
0
LINE
8
BLACK
6
CONTINUOUS
10
0.826569
20
1.9516
11
0.826809
21
1.95199
0
LINE
8
BLACK
6
CONTINUOUS
10
0.826809
20
1.95199
11
0.826911
21
1.95243
0
LINE
8
BLACK
6
CONTINUOUS
10
0.826911
20
1.95243
11
0.827732
21
1.95345
0
LINE
8
BLACK
6
CONTINUOUS
10
0.827732
20
1.95345
11
0.828432
21
1.95457
0
LINE
8
BLACK
6
CONTINUOUS
10
0.828432
20
1.95457
11
0.872126
21
1.99826
0
LINE
8
BLACK
6
CONTINUOUS
10
0.872126
20
1.99826
11
0.872126
21
2.26441
0
LINE
8
BLACK
6
CONTINUOUS
10
0.872126
20
2.26441
11
0.868323
21
2.26694
0
LINE
8
BLACK
6
CONTINUOUS
10
0.868323
20
2.26694
11
0.865126
21
2.27074
0
LINE
8
BLACK
6
CONTINUOUS
10
0.865126
20
2.27074
11
0.863126
21
2.27529
0
LINE
8
BLACK
6
CONTINUOUS
10
0.863126
20
2.27529
11
0.862482
21
2.28021
0
LINE
8
BLACK
6
CONTINUOUS
10
0.862482
20
2.28021
11
0.863246
21
2.28512
0
LINE
8
BLACK
6
CONTINUOUS
10
0.863246
20
2.28512
11
0.865357
21
2.28962
0
LINE
8
BLACK
6
CONTINUOUS
10
0.865357
20
2.28962
11
0.868645
21
2.29334
0
LINE
8
BLACK
6
CONTINUOUS
10
0.868645
20
2.29334
11
0.872846
21
2.29599
0
LINE
8
BLACK
6
CONTINUOUS
10
0.872846
20
2.29599
11
0.877622
21
2.29736
0
LINE
8
BLACK
6
CONTINUOUS
10
0.877622
20
2.29736
11
0.88259
21
2.29733
0
LINE
8
BLACK
6
CONTINUOUS
10
0.249075
20
1.51618
11
0.190354
21
1.51618
0
LINE
8
BLACK
6
CONTINUOUS
10
0.190354
20
1.51618
11
0.190354
21
1.43783
0
LINE
8
BLACK
6
CONTINUOUS
10
0.190354
20
1.43783
11
0.190139
21
1.43509
0
LINE
8
BLACK
6
CONTINUOUS
10
0.190139
20
1.43509
11
0.190055
21
1.43483
0
LINE
8
BLACK
6
CONTINUOUS
10
0.190055
20
1.43483
11
0.190044
21
1.43455
0
LINE
8
BLACK
6
CONTINUOUS
10
0.190044
20
1.43455
11
0.189271
21
1.43235
0
LINE
8
BLACK
6
CONTINUOUS
10
0.189271
20
1.43235
11
0.188568
21
1.43013
0
LINE
8
BLACK
6
CONTINUOUS
10
0.188568
20
1.43013
11
0.18841
21
1.4299
0
LINE
8
BLACK
6
CONTINUOUS
10
0.18841
20
1.4299
11
0.188318
21
1.42964
0
LINE
8
BLACK
6
CONTINUOUS
10
0.188318
20
1.42964
11
0.186932
21
1.42776
0
LINE
8
BLACK
6
CONTINUOUS
10
0.186932
20
1.42776
11
0.185606
21
1.42584
0
LINE
8
BLACK
6
CONTINUOUS
10
0.185606
20
1.42584
11
0.185388
21
1.42567
0
LINE
8
BLACK
6
CONTINUOUS
10
0.185388
20
1.42567
11
0.185223
21
1.42545
0
LINE
8
BLACK
6
CONTINUOUS
10
0.185223
20
1.42545
11
0.0701197
21
1.31034
0
LINE
8
BLACK
6
CONTINUOUS
10
0.0701197
20
1.31034
11
0.0701197
21
0.649657
0
LINE
8
BLACK
6
CONTINUOUS
10
0.0701197
20
0.649657
11
0.199757
21
0.52002
0
LINE
8
BLACK
6
CONTINUOUS
10
0.199757
20
0.52002
11
1.26024
21
0.52002
0
LINE
8
BLACK
6
CONTINUOUS
10
1.26024
20
0.52002
11
1.27261
21
0.532388
0
LINE
8
BLACK
6
CONTINUOUS
10
1.27261
20
0.532388
11
1.27339
21
0.533053
0
LINE
8
BLACK
6
CONTINUOUS
10
1.27339
20
0.533053
11
1.27365
21
0.533342
0
LINE
8
BLACK
6
CONTINUOUS
10
1.27365
20
0.533342
11
1.27396
21
0.533543
0
LINE
8
BLACK
6
CONTINUOUS
10
1.27396
20
0.533543
11
1.2747
21
0.534174
0
LINE
8
BLACK
6
CONTINUOUS
10
1.2747
20
0.534174
11
1.27618
21
0.534942
0
LINE
8
BLACK
6
CONTINUOUS
10
1.27618
20
0.534942
11
1.27785
21
0.535993
0
LINE
8
BLACK
6
CONTINUOUS
10
1.27785
20
0.535993
11
1.27864
21
0.53622
0
LINE
8
BLACK
6
CONTINUOUS
10
1.27864
20
0.53622
11
1.27933
21
0.536575
0
LINE
8
BLACK
6
CONTINUOUS
10
1.27933
20
0.536575
11
1.28087
21
0.536858
0
LINE
8
BLACK
6
CONTINUOUS
10
1.28087
20
0.536858
11
1.28262
21
0.537358
0
LINE
8
BLACK
6
CONTINUOUS
10
1.28262
20
0.537358
11
1.28358
21
0.537352
0
LINE
8
BLACK
6
CONTINUOUS
10
1.28358
20
0.537352
11
1.28445
21
0.537511
0
LINE
8
BLACK
6
CONTINUOUS
10
1.28445
20
0.537511
11
1.28592
21
0.537337
0
LINE
8
BLACK
6
CONTINUOUS
10
1.28592
20
0.537337
11
1.28759
21
0.537327
0
LINE
8
BLACK
6
CONTINUOUS
10
1.28759
20
0.537327
11
1.28863
21
0.537016
0
LINE
8
BLACK
6
CONTINUOUS
10
1.28863
20
0.537016
11
1.28962
21
0.536899
0
LINE
8
BLACK
6
CONTINUOUS
10
1.28962
20
0.536899
11
1.29088
21
0.536344
0
LINE
8
BLACK
6
CONTINUOUS
10
1.29088
20
0.536344
11
1.29235
21
0.535904
0
LINE
8
BLACK
6
CONTINUOUS
10
1.29235
20
0.535904
11
1.29337
21
0.535243
0
LINE
8
BLACK
6
CONTINUOUS
10
1.29337
20
0.535243
11
1.29439
21
0.534792
0
LINE
8
BLACK
6
CONTINUOUS
10
1.29439
20
0.534792
11
1.29534
21
0.533963
0
LINE
8
BLACK
6
CONTINUOUS
10
1.29534
20
0.533963
11
1.29652
21
0.533202
0
LINE
8
BLACK
6
CONTINUOUS
10
1.29652
20
0.533202
11
1.2974
21
0.532181
0
LINE
8
BLACK
6
CONTINUOUS
10
1.2974
20
0.532181
11
1.29832
21
0.531378
0
LINE
8
BLACK
6
CONTINUOUS
10
1.29832
20
0.531378
11
1.29893
21
0.530398
0
LINE
8
BLACK
6
CONTINUOUS
10
1.29893
20
0.530398
11
1.29976
21
0.529439
0
LINE
8
BLACK
6
CONTINUOUS
10
1.29976
20
0.529439
11
1.30037
21
0.528089
0
LINE
8
BLACK
6
CONTINUOUS
10
1.30037
20
0.528089
11
1.30108
21
0.526958
0
LINE
8
BLACK
6
CONTINUOUS
10
1.30108
20
0.526958
11
1.30135
21
0.525949
0
LINE
8
BLACK
6
CONTINUOUS
10
1.30135
20
0.525949
11
1.30182
21
0.524917
0
LINE
8
BLACK
6
CONTINUOUS
10
1.30182
20
0.524917
11
1.30205
21
0.523313
0
LINE
8
BLACK
6
CONTINUOUS
10
1.30205
20
0.523313
11
1.30241
21
0.521923
0
LINE
8
BLACK
6
CONTINUOUS
10
1.30241
20
0.521923
11
1.30238
21
0.520994
0
LINE
8
BLACK
6
CONTINUOUS
10
1.30238
20
0.520994
11
1.30252
21
0.52
0
LINE
8
BLACK
6
CONTINUOUS
10
1.30252
20
0.52
11
1.30251
21
0.519572
0
LINE
8
BLACK
6
CONTINUOUS
10
1.30251
20
0.519572
11
1.30226
21
0.518076
0
LINE
8
BLACK
6
CONTINUOUS
10
1.30226
20
0.518076
11
1.30221
21
0.516717
0
LINE
8
BLACK
6
CONTINUOUS
10
1.30221
20
0.516717
11
1.30187
21
0.515759
0
LINE
8
BLACK
6
CONTINUOUS
10
1.30187
20
0.515759
11
1.30169
21
0.514673
0
LINE
8
BLACK
6
CONTINUOUS
10
1.30169
20
0.514673
11
1.30097
21
0.513183
0
LINE
8
BLACK
6
CONTINUOUS
10
1.30097
20
0.513183
11
1.30048
21
0.511802
0
LINE
8
BLACK
6
CONTINUOUS
10
1.30048
20
0.511802
11
1.29995
21
0.511077
0
LINE
8
BLACK
6
CONTINUOUS
10
1.29995
20
0.511077
11
1.29952
21
0.510203
0
LINE
8
BLACK
6
CONTINUOUS
10
1.29952
20
0.510203
11
1.29832
21
0.508869
0
LINE
8
BLACK
6
CONTINUOUS
10
1.29832
20
0.508869
11
1.29739
21
0.507612
0
LINE
8
BLACK
6
CONTINUOUS
10
1.29739
20
0.507612
11
1.27989
21
0.490112
0
LINE
8
BLACK
6
CONTINUOUS
10
1.27989
20
0.490112
11
1.2778
21
0.488326
0
LINE
8
BLACK
6
CONTINUOUS
10
1.2778
20
0.488326
11
1.27755
21
0.488198
0
LINE
8
BLACK
6
CONTINUOUS
10
1.27755
20
0.488198
11
1.27735
21
0.48801
0
LINE
8
BLACK
6
CONTINUOUS
10
1.27735
20
0.48801
11
1.27524
21
0.487
0
LINE
8
BLACK
6
CONTINUOUS
10
1.27524
20
0.487
11
1.27317
21
0.485925
0
LINE
8
BLACK
6
CONTINUOUS
10
1.27317
20
0.485925
11
1.2729
21
0.485875
0
LINE
8
BLACK
6
CONTINUOUS
10
1.2729
20
0.485875
11
1.27265
21
0.485755
0
LINE
8
BLACK
6
CONTINUOUS
10
1.27265
20
0.485755
11
1.27034
21
0.485408
0
LINE
8
BLACK
6
CONTINUOUS
10
1.27034
20
0.485408
11
1.26805
21
0.484989
0
LINE
8
BLACK
6
CONTINUOUS
10
1.26805
20
0.484989
11
1.26777
21
0.485022
0
LINE
8
BLACK
6
CONTINUOUS
10
1.26777
20
0.485022
11
1.2675
21
0.48498
0
LINE
8
BLACK
6
CONTINUOUS
10
1.2675
20
0.48498
11
0.1925
21
0.48498
0
LINE
8
BLACK
6
CONTINUOUS
10
0.1925
20
0.48498
11
0.189759
21
0.485196
0
LINE
8
BLACK
6
CONTINUOUS
10
0.189759
20
0.485196
11
0.189495
21
0.48528
0
LINE
8
BLACK
6
CONTINUOUS
10
0.189495
20
0.48528
11
0.189217
21
0.485291
0
LINE
8
BLACK
6
CONTINUOUS
10
0.189217
20
0.485291
11
0.187016
21
0.486064
0
LINE
8
BLACK
6
CONTINUOUS
10
0.187016
20
0.486064
11
0.184792
21
0.486767
0
LINE
8
BLACK
6
CONTINUOUS
10
0.184792
20
0.486767
11
0.184564
21
0.486925
0
LINE
8
BLACK
6
CONTINUOUS
10
0.184564
20
0.486925
11
0.184302
21
0.487017
0
LINE
8
BLACK
6
CONTINUOUS
10
0.184302
20
0.487017
11
0.182425
21
0.488403
0
LINE
8
BLACK
6
CONTINUOUS
10
0.182425
20
0.488403
11
0.180507
21
0.489729
0
LINE
8
BLACK
6
CONTINUOUS
10
0.180507
20
0.489729
11
0.180335
21
0.489947
0
LINE
8
BLACK
6
CONTINUOUS
10
0.180335
20
0.489947
11
0.180112
21
0.490112
0
LINE
8
BLACK
6
CONTINUOUS
10
0.180112
20
0.490112
11
0.0402117
21
0.630012
0
LINE
8
BLACK
6
CONTINUOUS
10
0.0402117
20
0.630012
11
0.0384263
21
0.632102
0
LINE
8
BLACK
6
CONTINUOUS
10
0.0384263
20
0.632102
11
0.0382983
21
0.632349
0
LINE
8
BLACK
6
CONTINUOUS
10
0.0382983
20
0.632349
11
0.0381098
21
0.632552
0
LINE
8
BLACK
6
CONTINUOUS
10
0.0381098
20
0.632552
11
0.0370998
21
0.634656
0
LINE
8
BLACK
6
CONTINUOUS
10
0.0370998
20
0.634656
11
0.0360249
21
0.636725
0
LINE
8
BLACK
6
CONTINUOUS
10
0.0360249
20
0.636725
11
0.035975
21
0.636998
0
LINE
8
BLACK
6
CONTINUOUS
10
0.035975
20
0.636998
11
0.0358548
21
0.637249
0
LINE
8
BLACK
6
CONTINUOUS
10
0.0358548
20
0.637249
11
0.035508
21
0.639555
0
LINE
8
BLACK
6
CONTINUOUS
10
0.035508
20
0.639555
11
0.035089
21
0.64185
0
LINE
8
BLACK
6
CONTINUOUS
10
0.035089
20
0.64185
11
0.0351216
21
0.642125
0
LINE
8
BLACK
6
CONTINUOUS
10
0.0351216
20
0.642125
11
0.0350803
21
0.6424
0
LINE
8
BLACK
6
CONTINUOUS
10
0.0350803
20
0.6424
11
0.0350803
21
1.3176
0
LINE
8
BLACK
6
CONTINUOUS
10
0.0350803
20
1.3176
11
0.035296
21
1.32034
0
LINE
8
BLACK
6
CONTINUOUS
10
0.035296
20
1.32034
11
0.0353797
21
1.32061
0
LINE
8
BLACK
6
CONTINUOUS
10
0.0353797
20
1.32061
11
0.0353906
21
1.32088
0
LINE
8
BLACK
6
CONTINUOUS
10
0.0353906
20
1.32088
11
0.0361637
21
1.32308
0
LINE
8
BLACK
6
CONTINUOUS
10
0.0361637
20
1.32308
11
0.0368669
21
1.32531
0
LINE
8
BLACK
6
CONTINUOUS
10
0.0368669
20
1.32531
11
0.0370247
21
1.32554
0
LINE
8
BLACK
6
CONTINUOUS
10
0.0370247
20
1.32554
11
0.0371167
21
1.3258
0
LINE
8
BLACK
6
CONTINUOUS
10
0.0371167
20
1.3258
11
0.0385031
21
1.32767
0
LINE
8
BLACK
6
CONTINUOUS
10
0.0385031
20
1.32767
11
0.0398287
21
1.32959
0
LINE
8
BLACK
6
CONTINUOUS
10
0.0398287
20
1.32959
11
0.0400467
21
1.32976
0
LINE
8
BLACK
6
CONTINUOUS
10
0.0400467
20
1.32976
11
0.0402117
21
1.32999
0
LINE
8
BLACK
6
CONTINUOUS
10
0.0402117
20
1.32999
11
0.155315
21
1.44509
0
LINE
8
BLACK
6
CONTINUOUS
10
0.155315
20
1.44509
11
0.155315
21
1.51618
0
LINE
8
BLACK
6
CONTINUOUS
10
0.155315
20
1.51618
11
0.0915945
21
1.51618
0
LINE
8
BLACK
6
CONTINUOUS
10
0.0915945
20
1.51618
11
0.0915945
21
1.67366
0
LINE
8
BLACK
6
CONTINUOUS
10
0.0915945
20
1.67366
11
0.249075
21
1.67366
0
LINE
8
BLACK
6
CONTINUOUS
10
0.249075
20
1.67366
11
0.249075
21
1.51618
0
LINE
8
BLACK
6
CONTINUOUS
10
3.11691
20
1.69962
11
3.11854
21
1.69854
0
LINE
8
BLACK
6
CONTINUOUS
10
3.11854
20
1.69854
11
3.11962
21
1.69691
0
LINE
8
BLACK
6
CONTINUOUS
10
3.11962
20
1.69691
11
3.12
21
1.695
0
LINE
8
BLACK
6
CONTINUOUS
10
3.12
20
1.695
11
3.12
21
1.515
0
LINE
8
BLACK
6
CONTINUOUS
10
3.12
20
1.515
11
3.11962
21
1.51309
0
LINE
8
BLACK
6
CONTINUOUS
10
3.11962
20
1.51309
11
3.11854
21
1.51146
0
LINE
8
BLACK
6
CONTINUOUS
10
3.11854
20
1.51146
11
3.11691
21
1.51038
0
LINE
8
BLACK
6
CONTINUOUS
10
3.11691
20
1.51038
11
3.115
21
1.51
0
LINE
8
BLACK
6
CONTINUOUS
10
3.115
20
1.51
11
1.6705
21
1.51
0
LINE
8
BLACK
6
CONTINUOUS
10
1.6705
20
1.51
11
1.67007
21
1.50991
0
LINE
8
BLACK
6
CONTINUOUS
10
1.67007
20
1.50991
11
1.67
21
1.50953
0
LINE
8
BLACK
6
CONTINUOUS
10
1.67
20
1.50953
11
1.67
21
0.995
0
LINE
8
BLACK
6
CONTINUOUS
10
1.67
20
0.995
11
1.66962
21
0.993087
0
LINE
8
BLACK
6
CONTINUOUS
10
1.66962
20
0.993087
11
1.66854
21
0.991464
0
LINE
8
BLACK
6
CONTINUOUS
10
1.66854
20
0.991464
11
1.66691
21
0.990381
0
LINE
8
BLACK
6
CONTINUOUS
10
1.66691
20
0.990381
11
1.665
21
0.99
0
LINE
8
BLACK
6
CONTINUOUS
10
1.665
20
0.99
11
0.890501
21
0.99
0
LINE
8
BLACK
6
CONTINUOUS
10
0.890501
20
0.99
11
0.890022
21
0.989903
0
LINE
8
BLACK
6
CONTINUOUS
10
0.890022
20
0.989903
11
0.889658
21
0.989658
0
LINE
8
BLACK
6
CONTINUOUS
10
0.889658
20
0.989658
11
0.631464
21
0.731464
0
LINE
8
BLACK
6
CONTINUOUS
10
0.631464
20
0.731464
11
0.629842
21
0.730381
0
LINE
8
BLACK
6
CONTINUOUS
10
0.629842
20
0.730381
11
0.627929
21
0.73
0
LINE
8
BLACK
6
CONTINUOUS
10
0.627929
20
0.73
11
0.095
21
0.73
0
LINE
8
BLACK
6
CONTINUOUS
10
0.095
20
0.73
11
0.0930866
21
0.730381
0
LINE
8
BLACK
6
CONTINUOUS
10
0.0930866
20
0.730381
11
0.0914644
21
0.731464
0
LINE
8
BLACK
6
CONTINUOUS
10
0.0914644
20
0.731464
11
0.0903806
21
0.733087
0
LINE
8
BLACK
6
CONTINUOUS
10
0.0903806
20
0.733087
11
0.09
21
0.735
0
LINE
8
BLACK
6
CONTINUOUS
10
0.09
20
0.735
11
0.09
21
0.91
0
LINE
8
BLACK
6
CONTINUOUS
10
0.09
20
0.91
11
0.0903806
21
0.911913
0
LINE
8
BLACK
6
CONTINUOUS
10
0.0903806
20
0.911913
11
0.0914644
21
0.913536
0
LINE
8
BLACK
6
CONTINUOUS
10
0.0914644
20
0.913536
11
0.0915945
21
0.913622
0
LINE
8
BLACK
6
CONTINUOUS
10
0.0915945
20
0.913622
11
0.0915945
21
0.913819
0
LINE
8
BLACK
6
CONTINUOUS
10
0.0915945
20
0.913819
11
0.0918885
21
0.913819
0
LINE
8
BLACK
6
CONTINUOUS
10
0.0918885
20
0.913819
11
0.0930866
21
0.914619
0
LINE
8
BLACK
6
CONTINUOUS
10
0.0930866
20
0.914619
11
0.095
21
0.915
0
LINE
8
BLACK
6
CONTINUOUS
10
0.095
20
0.915
11
0.589499
21
0.915
0
LINE
8
BLACK
6
CONTINUOUS
10
0.589499
20
0.915
11
0.589978
21
0.915097
0
LINE
8
BLACK
6
CONTINUOUS
10
0.589978
20
0.915097
11
0.590342
21
0.915342
0
LINE
8
BLACK
6
CONTINUOUS
10
0.590342
20
0.915342
11
0.858536
21
1.18354
0
LINE
8
BLACK
6
CONTINUOUS
10
0.858536
20
1.18354
11
0.860158
21
1.18462
0
LINE
8
BLACK
6
CONTINUOUS
10
0.860158
20
1.18462
11
0.862071
21
1.185
0
LINE
8
BLACK
6
CONTINUOUS
10
0.862071
20
1.185
11
1.4795
21
1.185
0
LINE
8
BLACK
6
CONTINUOUS
10
1.4795
20
1.185
11
1.47993
21
1.18509
0
LINE
8
BLACK
6
CONTINUOUS
10
1.47993
20
1.18509
11
1.48
21
1.18547
0
LINE
8
BLACK
6
CONTINUOUS
10
1.48
20
1.18547
11
1.48
21
1.20327
0
LINE
8
BLACK
6
CONTINUOUS
10
1.48
20
1.20327
11
1.48038
21
1.20518
0
LINE
8
BLACK
6
CONTINUOUS
10
1.48038
20
1.20518
11
1.48147
21
1.2068
0
LINE
8
BLACK
6
CONTINUOUS
10
1.48147
20
1.2068
11
1.48652
21
1.21185
0
LINE
8
BLACK
6
CONTINUOUS
10
1.48652
20
1.21185
11
1.4922
21
1.22552
0
LINE
8
BLACK
6
CONTINUOUS
10
1.4922
20
1.22552
11
1.49221
21
1.24032
0
LINE
8
BLACK
6
CONTINUOUS
10
1.49221
20
1.24032
11
1.48656
21
1.254
0
LINE
8
BLACK
6
CONTINUOUS
10
1.48656
20
1.254
11
1.48402
21
1.25654
0
LINE
8
BLACK
6
CONTINUOUS
10
1.48402
20
1.25654
11
1.48294
21
1.25817
0
LINE
8
BLACK
6
CONTINUOUS
10
1.48294
20
1.25817
11
1.48256
21
1.26008
0
LINE
8
BLACK
6
CONTINUOUS
10
1.48256
20
1.26008
11
1.48256
21
1.361
0
LINE
8
BLACK
6
CONTINUOUS
10
1.48256
20
1.361
11
1.4802
21
1.37283
0
LINE
8
BLACK
6
CONTINUOUS
10
1.4802
20
1.37283
11
1.4801
21
1.3731
0
LINE
8
BLACK
6
CONTINUOUS
10
1.4801
20
1.3731
11
1.48
21
1.37407
0
LINE
8
BLACK
6
CONTINUOUS
10
1.48
20
1.37407
11
1.48
21
1.63395
0
LINE
8
BLACK
6
CONTINUOUS
10
1.48
20
1.63395
11
1.48038
21
1.63587
0
LINE
8
BLACK
6
CONTINUOUS
10
1.48038
20
1.63587
11
1.48146
21
1.63749
0
LINE
8
BLACK
6
CONTINUOUS
10
1.48146
20
1.63749
11
1.54251
21
1.69854
0
LINE
8
BLACK
6
CONTINUOUS
10
1.54251
20
1.69854
11
1.54413
21
1.69962
0
LINE
8
BLACK
6
CONTINUOUS
10
1.54413
20
1.69962
11
1.54605
21
1.7
0
LINE
8
BLACK
6
CONTINUOUS
10
1.54605
20
1.7
11
3.115
21
1.7
0
LINE
8
BLACK
6
CONTINUOUS
10
3.115
20
1.7
11
3.11691
21
1.69962
0
LINE
8
BLACK
6
CONTINUOUS
10
1.36228
20
1.49891
11
1.36704
21
1.49749
0
LINE
8
BLACK
6
CONTINUOUS
10
1.36704
20
1.49749
11
1.3712
21
1.49478
0
LINE
8
BLACK
6
CONTINUOUS
10
1.3712
20
1.49478
11
1.37445
21
1.49102
0
LINE
8
BLACK
6
CONTINUOUS
10
1.37445
20
1.49102
11
1.3765
21
1.4865
0
LINE
8
BLACK
6
CONTINUOUS
10
1.3765
20
1.4865
11
1.37721
21
1.48158
0
LINE
8
BLACK
6
CONTINUOUS
10
1.37721
20
1.48158
11
1.3772
21
1.48115
0
LINE
8
BLACK
6
CONTINUOUS
10
1.3772
20
1.48115
11
1.37638
21
1.47626
0
LINE
8
BLACK
6
CONTINUOUS
10
1.37638
20
1.47626
11
1.37421
21
1.47178
0
LINE
8
BLACK
6
CONTINUOUS
10
1.37421
20
1.47178
11
1.37088
21
1.4681
0
LINE
8
BLACK
6
CONTINUOUS
10
1.37088
20
1.4681
11
1.36756
21
1.46607
0
LINE
8
BLACK
6
CONTINUOUS
10
1.36756
20
1.46607
11
1.36756
21
1.46007
0
LINE
8
BLACK
6
CONTINUOUS
10
1.36756
20
1.46007
11
1.46058
21
1.36705
0
LINE
8
BLACK
6
CONTINUOUS
10
1.46058
20
1.36705
11
1.46128
21
1.36594
0
LINE
8
BLACK
6
CONTINUOUS
10
1.46128
20
1.36594
11
1.4621
21
1.36491
0
LINE
8
BLACK
6
CONTINUOUS
10
1.4621
20
1.36491
11
1.4622
21
1.36447
0
LINE
8
BLACK
6
CONTINUOUS
10
1.4622
20
1.36447
11
1.46244
21
1.36408
0
LINE
8
BLACK
6
CONTINUOUS
10
1.46244
20
1.36408
11
1.46258
21
1.36277
0
LINE
8
BLACK
6
CONTINUOUS
10
1.46258
20
1.36277
11
1.46287
21
1.36149
0
LINE
8
BLACK
6
CONTINUOUS
10
1.46287
20
1.36149
11
1.46287
21
1.24852
0
LINE
8
BLACK
6
CONTINUOUS
10
1.46287
20
1.24852
11
1.46652
21
1.24615
0
LINE
8
BLACK
6
CONTINUOUS
10
1.46652
20
1.24615
11
1.46976
21
1.24239
0
LINE
8
BLACK
6
CONTINUOUS
10
1.46976
20
1.24239
11
1.47182
21
1.23787
0
LINE
8
BLACK
6
CONTINUOUS
10
1.47182
20
1.23787
11
1.47252
21
1.23295
0
LINE
8
BLACK
6
CONTINUOUS
10
1.47252
20
1.23295
11
1.47251
21
1.23252
0
LINE
8
BLACK
6
CONTINUOUS
10
1.47251
20
1.23252
11
1.47169
21
1.22763
0
LINE
8
BLACK
6
CONTINUOUS
10
1.47169
20
1.22763
11
1.46952
21
1.22316
0
LINE
8
BLACK
6
CONTINUOUS
10
1.46952
20
1.22316
11
1.46619
21
1.21947
0
LINE
8
BLACK
6
CONTINUOUS
10
1.46619
20
1.21947
11
1.46196
21
1.21687
0
LINE
8
BLACK
6
CONTINUOUS
10
1.46196
20
1.21687
11
1.45717
21
1.21557
0
LINE
8
BLACK
6
CONTINUOUS
10
1.45717
20
1.21557
11
1.4522
21
1.21566
0
LINE
8
BLACK
6
CONTINUOUS
10
1.4522
20
1.21566
11
1.44746
21
1.21714
0
LINE
8
BLACK
6
CONTINUOUS
10
1.44746
20
1.21714
11
1.44332
21
1.21989
0
LINE
8
BLACK
6
CONTINUOUS
10
1.44332
20
1.21989
11
1.44013
21
1.22369
0
LINE
8
BLACK
6
CONTINUOUS
10
1.44013
20
1.22369
11
1.43813
21
1.22824
0
LINE
8
BLACK
6
CONTINUOUS
10
1.43813
20
1.22824
11
1.43748
21
1.23317
0
LINE
8
BLACK
6
CONTINUOUS
10
1.43748
20
1.23317
11
1.43825
21
1.23808
0
LINE
8
BLACK
6
CONTINUOUS
10
1.43825
20
1.23808
11
1.44036
21
1.24257
0
LINE
8
BLACK
6
CONTINUOUS
10
1.44036
20
1.24257
11
1.44365
21
1.24629
0
LINE
8
BLACK
6
CONTINUOUS
10
1.44365
20
1.24629
11
1.44713
21
1.24849
0
LINE
8
BLACK
6
CONTINUOUS
10
1.44713
20
1.24849
11
1.44713
21
1.35823
0
LINE
8
BLACK
6
CONTINUOUS
10
1.44713
20
1.35823
11
1.35411
21
1.45125
0
LINE
8
BLACK
6
CONTINUOUS
10
1.35411
20
1.45125
11
1.35341
21
1.45236
0
LINE
8
BLACK
6
CONTINUOUS
10
1.35341
20
1.45236
11
1.35259
21
1.45339
0
LINE
8
BLACK
6
CONTINUOUS
10
1.35259
20
1.45339
11
1.35249
21
1.45383
0
LINE
8
BLACK
6
CONTINUOUS
10
1.35249
20
1.45383
11
1.35225
21
1.45422
0
LINE
8
BLACK
6
CONTINUOUS
10
1.35225
20
1.45422
11
1.35211
21
1.45552
0
LINE
8
BLACK
6
CONTINUOUS
10
1.35211
20
1.45552
11
1.35181
21
1.45681
0
LINE
8
BLACK
6
CONTINUOUS
10
1.35181
20
1.45681
11
1.35181
21
1.46599
0
LINE
8
BLACK
6
CONTINUOUS
10
1.35181
20
1.46599
11
1.34801
21
1.46852
0
LINE
8
BLACK
6
CONTINUOUS
10
1.34801
20
1.46852
11
1.34481
21
1.47232
0
LINE
8
BLACK
6
CONTINUOUS
10
1.34481
20
1.47232
11
1.34281
21
1.47687
0
LINE
8
BLACK
6
CONTINUOUS
10
1.34281
20
1.47687
11
1.34217
21
1.4818
0
LINE
8
BLACK
6
CONTINUOUS
10
1.34217
20
1.4818
11
1.34293
21
1.4867
0
LINE
8
BLACK
6
CONTINUOUS
10
1.34293
20
1.4867
11
1.34504
21
1.4912
0
LINE
8
BLACK
6
CONTINUOUS
10
1.34504
20
1.4912
11
1.34833
21
1.49492
0
LINE
8
BLACK
6
CONTINUOUS
10
1.34833
20
1.49492
11
1.35253
21
1.49757
0
LINE
8
BLACK
6
CONTINUOUS
10
1.35253
20
1.49757
11
1.35731
21
1.49894
0
LINE
8
BLACK
6
CONTINUOUS
10
1.35731
20
1.49894
11
1.36228
21
1.49891
0
LINE
8
BLACK
6
CONTINUOUS
10
1.96
20
2.27
11
1.96
21
2.21
0
LINE
8
BLACK
6
CONTINUOUS
10
1.96
20
2.21
11
1.93787
21
2.21
0
LINE
8
BLACK
6
CONTINUOUS
10
1.93787
20
2.21
11
1.93787
21
2.17
0
LINE
8
BLACK
6
CONTINUOUS
10
1.93787
20
2.17
11
1.96
21
2.17
0
LINE
8
BLACK
6
CONTINUOUS
10
1.96
20
2.17
11
1.96
21
2.11
0
LINE
8
BLACK
6
CONTINUOUS
10
1.96
20
2.11
11
1.93787
21
2.11
0
LINE
8
BLACK
6
CONTINUOUS
10
1.93787
20
2.11
11
1.93787
21
2.09424
0
LINE
8
BLACK
6
CONTINUOUS
10
1.93787
20
2.09424
11
1.93758
21
2.09296
0
LINE
8
BLACK
6
CONTINUOUS
10
1.93758
20
2.09296
11
1.93743
21
2.09165
0
LINE
8
BLACK
6
CONTINUOUS
10
1.93743
20
2.09165
11
1.93719
21
2.09127
0
LINE
8
BLACK
6
CONTINUOUS
10
1.93719
20
2.09127
11
1.93709
21
2.09082
0
LINE
8
BLACK
6
CONTINUOUS
10
1.93709
20
2.09082
11
1.93627
21
2.0898
0
LINE
8
BLACK
6
CONTINUOUS
10
1.93627
20
2.0898
11
1.93557
21
2.08868
0
LINE
8
BLACK
6
CONTINUOUS
10
1.93557
20
2.08868
11
1.71381
21
1.86692
0
LINE
8
BLACK
6
CONTINUOUS
10
1.71381
20
1.86692
11
1.71269
21
1.86622
0
LINE
8
BLACK
6
CONTINUOUS
10
1.71269
20
1.86622
11
1.71166
21
1.8654
0
LINE
8
BLACK
6
CONTINUOUS
10
1.71166
20
1.8654
11
1.71122
21
1.8653
0
LINE
8
BLACK
6
CONTINUOUS
10
1.71122
20
1.8653
11
1.71084
21
1.86506
0
LINE
8
BLACK
6
CONTINUOUS
10
1.71084
20
1.86506
11
1.70953
21
1.86492
0
LINE
8
BLACK
6
CONTINUOUS
10
1.70953
20
1.86492
11
1.70825
21
1.86463
0
LINE
8
BLACK
6
CONTINUOUS
10
1.70825
20
1.86463
11
1.68076
21
1.86463
0
LINE
8
BLACK
6
CONTINUOUS
10
1.68076
20
1.86463
11
1.32356
21
1.50742
0
LINE
8
BLACK
6
CONTINUOUS
10
1.32356
20
1.50742
11
1.32244
21
1.50672
0
LINE
8
BLACK
6
CONTINUOUS
10
1.32244
20
1.50672
11
1.32141
21
1.5059
0
LINE
8
BLACK
6
CONTINUOUS
10
1.32141
20
1.5059
11
1.32097
21
1.5058
0
LINE
8
BLACK
6
CONTINUOUS
10
1.32097
20
1.5058
11
1.32059
21
1.50556
0
LINE
8
BLACK
6
CONTINUOUS
10
1.32059
20
1.50556
11
1.31928
21
1.50542
0
LINE
8
BLACK
6
CONTINUOUS
10
1.31928
20
1.50542
11
1.318
21
1.50513
0
LINE
8
BLACK
6
CONTINUOUS
10
1.318
20
1.50513
11
0.952456
21
1.50513
0
LINE
8
BLACK
6
CONTINUOUS
10
0.952456
20
1.50513
11
0.951524
21
1.5032
0
LINE
8
BLACK
6
CONTINUOUS
10
0.951524
20
1.5032
11
0.948191
21
1.49952
0
LINE
8
BLACK
6
CONTINUOUS
10
0.948191
20
1.49952
11
0.943958
21
1.49692
0
LINE
8
BLACK
6
CONTINUOUS
10
0.943958
20
1.49692
11
0.939165
21
1.49561
0
LINE
8
BLACK
6
CONTINUOUS
10
0.939165
20
1.49561
11
0.934199
21
1.49571
0
LINE
8
BLACK
6
CONTINUOUS
10
0.934199
20
1.49571
11
0.929458
21
1.49719
0
LINE
8
BLACK
6
CONTINUOUS
10
0.929458
20
1.49719
11
0.925323
21
1.49994
0
LINE
8
BLACK
6
CONTINUOUS
10
0.925323
20
1.49994
11
0.922126
21
1.50374
0
LINE
8
BLACK
6
CONTINUOUS
10
0.922126
20
1.50374
11
0.920126
21
1.50829
0
LINE
8
BLACK
6
CONTINUOUS
10
0.920126
20
1.50829
11
0.919482
21
1.51321
0
LINE
8
BLACK
6
CONTINUOUS
10
0.919482
20
1.51321
11
0.920246
21
1.51812
0
LINE
8
BLACK
6
CONTINUOUS
10
0.920246
20
1.51812
11
0.922357
21
1.52262
0
LINE
8
BLACK
6
CONTINUOUS
10
0.922357
20
1.52262
11
0.925645
21
1.52634
0
LINE
8
BLACK
6
CONTINUOUS
10
0.925645
20
1.52634
11
0.929846
21
1.52899
0
LINE
8
BLACK
6
CONTINUOUS
10
0.929846
20
1.52899
11
0.934622
21
1.53036
0
LINE
8
BLACK
6
CONTINUOUS
10
0.934622
20
1.53036
11
0.93959
21
1.53033
0
LINE
8
BLACK
6
CONTINUOUS
10
0.93959
20
1.53033
11
0.944349
21
1.5289
0
LINE
8
BLACK
6
CONTINUOUS
10
0.944349
20
1.5289
11
0.948517
21
1.5262
0
LINE
8
BLACK
6
CONTINUOUS
10
0.948517
20
1.5262
11
0.951759
21
1.52244
0
LINE
8
BLACK
6
CONTINUOUS
10
0.951759
20
1.52244
11
0.952471
21
1.52087
0
LINE
8
BLACK
6
CONTINUOUS
10
0.952471
20
1.52087
11
1.31474
21
1.52087
0
LINE
8
BLACK
6
CONTINUOUS
10
1.31474
20
1.52087
11
1.67194
21
1.87808
0
LINE
8
BLACK
6
CONTINUOUS
10
1.67194
20
1.87808
11
1.67306
21
1.87878
0
LINE
8
BLACK
6
CONTINUOUS
10
1.67306
20
1.87878
11
1.67409
21
1.8796
0
LINE
8
BLACK
6
CONTINUOUS
10
1.67409
20
1.8796
11
1.67453
21
1.8797
0
LINE
8
BLACK
6
CONTINUOUS
10
1.67453
20
1.8797
11
1.67491
21
1.87994
0
LINE
8
BLACK
6
CONTINUOUS
10
1.67491
20
1.87994
11
1.67622
21
1.88008
0
LINE
8
BLACK
6
CONTINUOUS
10
1.67622
20
1.88008
11
1.6775
21
1.88037
0
LINE
8
BLACK
6
CONTINUOUS
10
1.6775
20
1.88037
11
1.70499
21
1.88037
0
LINE
8
BLACK
6
CONTINUOUS
10
1.70499
20
1.88037
11
1.92213
21
2.09751
0
LINE
8
BLACK
6
CONTINUOUS
10
1.92213
20
2.09751
11
1.92213
21
2.11
0
LINE
8
BLACK
6
CONTINUOUS
10
1.92213
20
2.11
11
1.9
21
2.11
0
LINE
8
BLACK
6
CONTINUOUS
10
1.9
20
2.11
11
1.9
21
2.17
0
LINE
8
BLACK
6
CONTINUOUS
10
1.9
20
2.17
11
1.92213
21
2.17
0
LINE
8
BLACK
6
CONTINUOUS
10
1.92213
20
2.17
11
1.92213
21
2.21
0
LINE
8
BLACK
6
CONTINUOUS
10
1.92213
20
2.21
11
1.9
21
2.21
0
LINE
8
BLACK
6
CONTINUOUS
10
1.9
20
2.21
11
1.9
21
2.27
0
LINE
8
BLACK
6
CONTINUOUS
10
1.9
20
2.27
11
1.92213
21
2.27
0
LINE
8
BLACK
6
CONTINUOUS
10
1.92213
20
2.27
11
1.92213
21
2.28249
0
LINE
8
BLACK
6
CONTINUOUS
10
1.92213
20
2.28249
11
1.91499
21
2.28963
0
LINE
8
BLACK
6
CONTINUOUS
10
1.91499
20
2.28963
11
1.46076
21
2.28963
0
LINE
8
BLACK
6
CONTINUOUS
10
1.46076
20
2.28963
11
1.45658
21
2.28544
0
LINE
8
BLACK
6
CONTINUOUS
10
1.45658
20
2.28544
11
1.45682
21
2.28492
0
LINE
8
BLACK
6
CONTINUOUS
10
1.45682
20
2.28492
11
1.45752
21
2.28
0
LINE
8
BLACK
6
CONTINUOUS
10
1.45752
20
2.28
11
1.45751
21
2.27957
0
LINE
8
BLACK
6
CONTINUOUS
10
1.45751
20
2.27957
11
1.45669
21
2.27467
0
LINE
8
BLACK
6
CONTINUOUS
10
1.45669
20
2.27467
11
1.45452
21
2.2702
0
LINE
8
BLACK
6
CONTINUOUS
10
1.45452
20
2.2702
11
1.45119
21
2.26652
0
LINE
8
BLACK
6
CONTINUOUS
10
1.45119
20
2.26652
11
1.44696
21
2.26392
0
LINE
8
BLACK
6
CONTINUOUS
10
1.44696
20
2.26392
11
1.44217
21
2.26261
0
LINE
8
BLACK
6
CONTINUOUS
10
1.44217
20
2.26261
11
1.4372
21
2.26271
0
LINE
8
BLACK
6
CONTINUOUS
10
1.4372
20
2.26271
11
1.43246
21
2.26419
0
LINE
8
BLACK
6
CONTINUOUS
10
1.43246
20
2.26419
11
1.42832
21
2.26694
0
LINE
8
BLACK
6
CONTINUOUS
10
1.42832
20
2.26694
11
1.42513
21
2.27074
0
LINE
8
BLACK
6
CONTINUOUS
10
1.42513
20
2.27074
11
1.42313
21
2.27529
0
LINE
8
BLACK
6
CONTINUOUS
10
1.42313
20
2.27529
11
1.42248
21
2.28021
0
LINE
8
BLACK
6
CONTINUOUS
10
1.42248
20
2.28021
11
1.42325
21
2.28512
0
LINE
8
BLACK
6
CONTINUOUS
10
1.42325
20
2.28512
11
1.42536
21
2.28962
0
LINE
8
BLACK
6
CONTINUOUS
10
1.42536
20
2.28962
11
1.42865
21
2.29334
0
LINE
8
BLACK
6
CONTINUOUS
10
1.42865
20
2.29334
11
1.43285
21
2.29599
0
LINE
8
BLACK
6
CONTINUOUS
10
1.43285
20
2.29599
11
1.43762
21
2.29736
0
LINE
8
BLACK
6
CONTINUOUS
10
1.43762
20
2.29736
11
1.44259
21
2.29733
0
LINE
8
BLACK
6
CONTINUOUS
10
1.44259
20
2.29733
11
1.44536
21
2.2965
0
LINE
8
BLACK
6
CONTINUOUS
10
1.44536
20
2.2965
11
1.45194
21
2.30308
0
LINE
8
BLACK
6
CONTINUOUS
10
1.45194
20
2.30308
11
1.45306
21
2.30378
0
LINE
8
BLACK
6
CONTINUOUS
10
1.45306
20
2.30378
11
1.45409
21
2.3046
0
LINE
8
BLACK
6
CONTINUOUS
10
1.45409
20
2.3046
11
1.45453
21
2.3047
0
LINE
8
BLACK
6
CONTINUOUS
10
1.45453
20
2.3047
11
1.45491
21
2.30494
0
LINE
8
BLACK
6
CONTINUOUS
10
1.45491
20
2.30494
11
1.45622
21
2.30508
0
LINE
8
BLACK
6
CONTINUOUS
10
1.45622
20
2.30508
11
1.4575
21
2.30537
0
LINE
8
BLACK
6
CONTINUOUS
10
1.4575
20
2.30537
11
1.91826
21
2.30537
0
LINE
8
BLACK
6
CONTINUOUS
10
1.91826
20
2.30537
11
1.91954
21
2.30508
0
LINE
8
BLACK
6
CONTINUOUS
10
1.91954
20
2.30508
11
1.92085
21
2.30493
0
LINE
8
BLACK
6
CONTINUOUS
10
1.92085
20
2.30493
11
1.92123
21
2.30469
0
LINE
8
BLACK
6
CONTINUOUS
10
1.92123
20
2.30469
11
1.92168
21
2.30459
0
LINE
8
BLACK
6
CONTINUOUS
10
1.92168
20
2.30459
11
1.9227
21
2.30377
0
LINE
8
BLACK
6
CONTINUOUS
10
1.9227
20
2.30377
11
1.92382
21
2.30307
0
LINE
8
BLACK
6
CONTINUOUS
10
1.92382
20
2.30307
11
1.93558
21
2.29131
0
LINE
8
BLACK
6
CONTINUOUS
10
1.93558
20
2.29131
11
1.93628
21
2.29019
0
LINE
8
BLACK
6
CONTINUOUS
10
1.93628
20
2.29019
11
1.9371
21
2.28916
0
LINE
8
BLACK
6
CONTINUOUS
10
1.9371
20
2.28916
11
1.9372
21
2.28872
0
LINE
8
BLACK
6
CONTINUOUS
10
1.9372
20
2.28872
11
1.93744
21
2.28834
0
LINE
8
BLACK
6
CONTINUOUS
10
1.93744
20
2.28834
11
1.93758
21
2.28703
0
LINE
8
BLACK
6
CONTINUOUS
10
1.93758
20
2.28703
11
1.93787
21
2.28575
0
LINE
8
BLACK
6
CONTINUOUS
10
1.93787
20
2.28575
11
1.93787
21
2.27
0
LINE
8
BLACK
6
CONTINUOUS
10
1.93787
20
2.27
11
1.96
21
2.27
0
LINE
8
BLACK
6
CONTINUOUS
10
1.22744
20
1.65799
11
1.22744
21
1.65721
0
LINE
8
BLACK
6
CONTINUOUS
10
1.22744
20
1.65721
11
1.22705
21
1.65654
0
LINE
8
BLACK
6
CONTINUOUS
10
1.22705
20
1.65654
11
1.22685
21
1.65578
0
LINE
8
BLACK
6
CONTINUOUS
10
1.22685
20
1.65578
11
1.2263
21
1.65523
0
LINE
8
BLACK
6
CONTINUOUS
10
1.2263
20
1.65523
11
1.22591
21
1.65456
0
LINE
8
BLACK
6
CONTINUOUS
10
1.22591
20
1.65456
11
1.15718
21
1.58582
0
LINE
8
BLACK
6
CONTINUOUS
10
1.15718
20
1.58582
11
1.1565
21
1.58544
0
LINE
8
BLACK
6
CONTINUOUS
10
1.1565
20
1.58544
11
1.15595
21
1.58489
0
LINE
8
BLACK
6
CONTINUOUS
10
1.15595
20
1.58489
11
1.1552
21
1.58468
0
LINE
8
BLACK
6
CONTINUOUS
10
1.1552
20
1.58468
11
1.15453
21
1.5843
0
LINE
8
BLACK
6
CONTINUOUS
10
1.15453
20
1.5843
11
1.15375
21
1.5843
0
LINE
8
BLACK
6
CONTINUOUS
10
1.15375
20
1.5843
11
1.153
21
1.58409
0
LINE
8
BLACK
6
CONTINUOUS
10
1.153
20
1.58409
11
0.820723
21
1.58409
0
LINE
8
BLACK
6
CONTINUOUS
10
0.820723
20
1.58409
11
0.819972
21
1.5843
0
LINE
8
BLACK
6
CONTINUOUS
10
0.819972
20
1.5843
11
0.819195
21
1.5843
0
LINE
8
BLACK
6
CONTINUOUS
10
0.819195
20
1.5843
11
0.818521
21
1.58468
0
LINE
8
BLACK
6
CONTINUOUS
10
0.818521
20
1.58468
11
0.81777
21
1.58489
0
LINE
8
BLACK
6
CONTINUOUS
10
0.81777
20
1.58489
11
0.817662
21
1.58499
0
LINE
8
BLACK
6
CONTINUOUS
10
0.817662
20
1.58499
11
0.791938
21
1.58499
0
LINE
8
BLACK
6
CONTINUOUS
10
0.791938
20
1.58499
11
0.79183
21
1.58489
0
LINE
8
BLACK
6
CONTINUOUS
10
0.79183
20
1.58489
11
0.791079
21
1.58468
0
LINE
8
BLACK
6
CONTINUOUS
10
0.791079
20
1.58468
11
0.790405
21
1.5843
0
LINE
8
BLACK
6
CONTINUOUS
10
0.790405
20
1.5843
11
0.789628
21
1.5843
0
LINE
8
BLACK
6
CONTINUOUS
10
0.789628
20
1.5843
11
0.788877
21
1.58409
0
LINE
8
BLACK
6
CONTINUOUS
10
0.788877
20
1.58409
11
0.56
21
1.58409
0
LINE
8
BLACK
6
CONTINUOUS
10
0.56
20
1.58409
11
0.56
21
1.5625
0
LINE
8
BLACK
6
CONTINUOUS
10
0.56
20
1.5625
11
0.525
21
1.5625
0
LINE
8
BLACK
6
CONTINUOUS
10
0.525
20
1.5625
11
0.525
21
1.6175
0
LINE
8
BLACK
6
CONTINUOUS
10
0.525
20
1.6175
11
0.56
21
1.6175
0
LINE
8
BLACK
6
CONTINUOUS
10
0.56
20
1.6175
11
0.56
21
1.59591
0
LINE
8
BLACK
6
CONTINUOUS
10
0.56
20
1.59591
11
0.786715
21
1.59591
0
LINE
8
BLACK
6
CONTINUOUS
10
0.786715
20
1.59591
11
0.786824
21
1.59601
0
LINE
8
BLACK
6
CONTINUOUS
10
0.786824
20
1.59601
11
0.787575
21
1.59621
0
LINE
8
BLACK
6
CONTINUOUS
10
0.787575
20
1.59621
11
0.788248
21
1.5966
0
LINE
8
BLACK
6
CONTINUOUS
10
0.788248
20
1.5966
11
0.789025
21
1.5966
0
LINE
8
BLACK
6
CONTINUOUS
10
0.789025
20
1.5966
11
0.789776
21
1.5968
0
LINE
8
BLACK
6
CONTINUOUS
10
0.789776
20
1.5968
11
0.819824
21
1.5968
0
LINE
8
BLACK
6
CONTINUOUS
10
0.819824
20
1.5968
11
0.820575
21
1.5966
0
LINE
8
BLACK
6
CONTINUOUS
10
0.820575
20
1.5966
11
0.821352
21
1.5966
0
LINE
8
BLACK
6
CONTINUOUS
10
0.821352
20
1.5966
11
0.822025
21
1.59621
0
LINE
8
BLACK
6
CONTINUOUS
10
0.822025
20
1.59621
11
0.822776
21
1.59601
0
LINE
8
BLACK
6
CONTINUOUS
10
0.822776
20
1.59601
11
0.822885
21
1.59591
0
LINE
8
BLACK
6
CONTINUOUS
10
0.822885
20
1.59591
11
1.15055
21
1.59591
0
LINE
8
BLACK
6
CONTINUOUS
10
1.15055
20
1.59591
11
1.21583
21
1.66118
0
LINE
8
BLACK
6
CONTINUOUS
10
1.21583
20
1.66118
11
1.21583
21
1.78454
0
LINE
8
BLACK
6
CONTINUOUS
10
1.21583
20
1.78454
11
1.2142
21
1.78505
0
LINE
8
BLACK
6
CONTINUOUS
10
1.2142
20
1.78505
11
1.21006
21
1.78781
0
LINE
8
BLACK
6
CONTINUOUS
10
1.21006
20
1.78781
11
1.20686
21
1.79161
0
LINE
8
BLACK
6
CONTINUOUS
10
1.20686
20
1.79161
11
1.20486
21
1.79616
0
LINE
8
BLACK
6
CONTINUOUS
10
1.20486
20
1.79616
11
1.20422
21
1.80108
0
LINE
8
BLACK
6
CONTINUOUS
10
1.20422
20
1.80108
11
1.20498
21
1.80599
0
LINE
8
BLACK
6
CONTINUOUS
10
1.20498
20
1.80599
11
1.20709
21
1.81049
0
LINE
8
BLACK
6
CONTINUOUS
10
1.20709
20
1.81049
11
1.21038
21
1.81421
0
LINE
8
BLACK
6
CONTINUOUS
10
1.21038
20
1.81421
11
1.21458
21
1.81686
0
LINE
8
BLACK
6
CONTINUOUS
10
1.21458
20
1.81686
11
1.21936
21
1.81823
0
LINE
8
BLACK
6
CONTINUOUS
10
1.21936
20
1.81823
11
1.22433
21
1.81819
0
LINE
8
BLACK
6
CONTINUOUS
10
1.22433
20
1.81819
11
1.22909
21
1.81677
0
LINE
8
BLACK
6
CONTINUOUS
10
1.22909
20
1.81677
11
1.23325
21
1.81407
0
LINE
8
BLACK
6
CONTINUOUS
10
1.23325
20
1.81407
11
1.2365
21
1.81031
0
LINE
8
BLACK
6
CONTINUOUS
10
1.2365
20
1.81031
11
1.23855
21
1.80578
0
LINE
8
BLACK
6
CONTINUOUS
10
1.23855
20
1.80578
11
1.23926
21
1.80087
0
LINE
8
BLACK
6
CONTINUOUS
10
1.23926
20
1.80087
11
1.23925
21
1.80044
0
LINE
8
BLACK
6
CONTINUOUS
10
1.23925
20
1.80044
11
1.23843
21
1.79554
0
LINE
8
BLACK
6
CONTINUOUS
10
1.23843
20
1.79554
11
1.23626
21
1.79107
0
LINE
8
BLACK
6
CONTINUOUS
10
1.23626
20
1.79107
11
1.23293
21
1.78739
0
LINE
8
BLACK
6
CONTINUOUS
10
1.23293
20
1.78739
11
1.2287
21
1.78479
0
LINE
8
BLACK
6
CONTINUOUS
10
1.2287
20
1.78479
11
1.22764
21
1.7845
0
LINE
8
BLACK
6
CONTINUOUS
10
1.22764
20
1.7845
11
1.22764
21
1.65874
0
LINE
8
BLACK
6
CONTINUOUS
10
1.22764
20
1.65874
11
1.22744
21
1.65799
0
LINE
8
BLACK
6
CONTINUOUS
10
1.86
20
2.11
11
1.83787
21
2.11
0
LINE
8
BLACK
6
CONTINUOUS
10
1.83787
20
2.11
11
1.83787
21
2.09424
0
LINE
8
BLACK
6
CONTINUOUS
10
1.83787
20
2.09424
11
1.83758
21
2.09296
0
LINE
8
BLACK
6
CONTINUOUS
10
1.83758
20
2.09296
11
1.83743
21
2.09165
0
LINE
8
BLACK
6
CONTINUOUS
10
1.83743
20
2.09165
11
1.83719
21
2.09127
0
LINE
8
BLACK
6
CONTINUOUS
10
1.83719
20
2.09127
11
1.83709
21
2.09082
0
LINE
8
BLACK
6
CONTINUOUS
10
1.83709
20
2.09082
11
1.83627
21
2.0898
0
LINE
8
BLACK
6
CONTINUOUS
10
1.83627
20
2.0898
11
1.83557
21
2.08868
0
LINE
8
BLACK
6
CONTINUOUS
10
1.83557
20
2.08868
11
1.33144
21
1.58455
0
LINE
8
BLACK
6
CONTINUOUS
10
1.33144
20
1.58455
11
1.33148
21
1.58426
0
LINE
8
BLACK
6
CONTINUOUS
10
1.33148
20
1.58426
11
1.33147
21
1.58384
0
LINE
8
BLACK
6
CONTINUOUS
10
1.33147
20
1.58384
11
1.33065
21
1.57894
0
LINE
8
BLACK
6
CONTINUOUS
10
1.33065
20
1.57894
11
1.32848
21
1.57447
0
LINE
8
BLACK
6
CONTINUOUS
10
1.32848
20
1.57447
11
1.32515
21
1.57078
0
LINE
8
BLACK
6
CONTINUOUS
10
1.32515
20
1.57078
11
1.32092
21
1.56819
0
LINE
8
BLACK
6
CONTINUOUS
10
1.32092
20
1.56819
11
1.31612
21
1.56688
0
LINE
8
BLACK
6
CONTINUOUS
10
1.31612
20
1.56688
11
1.31116
21
1.56697
0
LINE
8
BLACK
6
CONTINUOUS
10
1.31116
20
1.56697
11
1.30642
21
1.56845
0
LINE
8
BLACK
6
CONTINUOUS
10
1.30642
20
1.56845
11
1.30228
21
1.5712
0
LINE
8
BLACK
6
CONTINUOUS
10
1.30228
20
1.5712
11
1.29909
21
1.57501
0
LINE
8
BLACK
6
CONTINUOUS
10
1.29909
20
1.57501
11
1.29708
21
1.57955
0
LINE
8
BLACK
6
CONTINUOUS
10
1.29708
20
1.57955
11
1.29644
21
1.58448
0
LINE
8
BLACK
6
CONTINUOUS
10
1.29644
20
1.58448
11
1.2972
21
1.58939
0
LINE
8
BLACK
6
CONTINUOUS
10
1.2972
20
1.58939
11
1.29932
21
1.59388
0
LINE
8
BLACK
6
CONTINUOUS
10
1.29932
20
1.59388
11
1.3026
21
1.59761
0
LINE
8
BLACK
6
CONTINUOUS
10
1.3026
20
1.59761
11
1.30681
21
1.60026
0
LINE
8
BLACK
6
CONTINUOUS
10
1.30681
20
1.60026
11
1.31158
21
1.60162
0
LINE
8
BLACK
6
CONTINUOUS
10
1.31158
20
1.60162
11
1.31655
21
1.60159
0
LINE
8
BLACK
6
CONTINUOUS
10
1.31655
20
1.60159
11
1.32131
21
1.60017
0
LINE
8
BLACK
6
CONTINUOUS
10
1.32131
20
1.60017
11
1.32341
21
1.5988
0
LINE
8
BLACK
6
CONTINUOUS
10
1.32341
20
1.5988
11
1.82213
21
2.09751
0
LINE
8
BLACK
6
CONTINUOUS
10
1.82213
20
2.09751
11
1.82213
21
2.11
0
LINE
8
BLACK
6
CONTINUOUS
10
1.82213
20
2.11
11
1.8
21
2.11
0
LINE
8
BLACK
6
CONTINUOUS
10
1.8
20
2.11
11
1.8
21
2.17
0
LINE
8
BLACK
6
CONTINUOUS
10
1.8
20
2.17
11
1.86
21
2.17
0
LINE
8
BLACK
6
CONTINUOUS
10
1.86
20
2.17
11
1.86
21
2.11
0
LINE
8
BLACK
6
CONTINUOUS
10
1.22259
20
2.29733
11
1.22735
21
2.2959
0
LINE
8
BLACK
6
CONTINUOUS
10
1.22735
20
2.2959
11
1.23152
21
2.2932
0
LINE
8
BLACK
6
CONTINUOUS
10
1.23152
20
2.2932
11
1.23476
21
2.28944
0
LINE
8
BLACK
6
CONTINUOUS
10
1.23476
20
2.28944
11
1.23682
21
2.28492
0
LINE
8
BLACK
6
CONTINUOUS
10
1.23682
20
2.28492
11
1.23752
21
2.28
0
LINE
8
BLACK
6
CONTINUOUS
10
1.23752
20
2.28
11
1.23751
21
2.27957
0
LINE
8
BLACK
6
CONTINUOUS
10
1.23751
20
2.27957
11
1.23669
21
2.27467
0
LINE
8
BLACK
6
CONTINUOUS
10
1.23669
20
2.27467
11
1.23571
21
2.27264
0
LINE
8
BLACK
6
CONTINUOUS
10
1.23571
20
2.27264
11
1.27218
21
2.23618
0
LINE
8
BLACK
6
CONTINUOUS
10
1.27218
20
2.23618
11
1.27256
21
2.2355
0
LINE
8
BLACK
6
CONTINUOUS
10
1.27256
20
2.2355
11
1.27311
21
2.23495
0
LINE
8
BLACK
6
CONTINUOUS
10
1.27311
20
2.23495
11
1.27332
21
2.2342
0
LINE
8
BLACK
6
CONTINUOUS
10
1.27332
20
2.2342
11
1.2737
21
2.23353
0
LINE
8
BLACK
6
CONTINUOUS
10
1.2737
20
2.23353
11
1.2737
21
2.23275
0
LINE
8
BLACK
6
CONTINUOUS
10
1.2737
20
2.23275
11
1.27391
21
2.232
0
LINE
8
BLACK
6
CONTINUOUS
10
1.27391
20
2.232
11
1.27391
21
2.20089
0
LINE
8
BLACK
6
CONTINUOUS
10
1.27391
20
2.20089
11
1.37267
21
2.10213
0
LINE
8
BLACK
6
CONTINUOUS
10
1.37267
20
2.10213
11
1.58377
21
2.10213
0
LINE
8
BLACK
6
CONTINUOUS
10
1.58377
20
2.10213
11
1.6
21
2.11835
0
LINE
8
BLACK
6
CONTINUOUS
10
1.6
20
2.11835
11
1.6
21
2.17
0
LINE
8
BLACK
6
CONTINUOUS
10
1.6
20
2.17
11
1.66
21
2.17
0
LINE
8
BLACK
6
CONTINUOUS
10
1.66
20
2.17
11
1.66
21
2.11
0
LINE
8
BLACK
6
CONTINUOUS
10
1.66
20
2.11
11
1.60835
21
2.11
0
LINE
8
BLACK
6
CONTINUOUS
10
1.60835
20
2.11
11
1.5904
21
2.09204
0
LINE
8
BLACK
6
CONTINUOUS
10
1.5904
20
2.09204
11
1.58972
21
2.09166
0
LINE
8
BLACK
6
CONTINUOUS
10
1.58972
20
2.09166
11
1.58917
21
2.09111
0
LINE
8
BLACK
6
CONTINUOUS
10
1.58917
20
2.09111
11
1.58842
21
2.0909
0
LINE
8
BLACK
6
CONTINUOUS
10
1.58842
20
2.0909
11
1.58775
21
2.09052
0
LINE
8
BLACK
6
CONTINUOUS
10
1.58775
20
2.09052
11
1.58697
21
2.09052
0
LINE
8
BLACK
6
CONTINUOUS
10
1.58697
20
2.09052
11
1.58622
21
2.09031
0
LINE
8
BLACK
6
CONTINUOUS
10
1.58622
20
2.09031
11
1.37267
21
2.09031
0
LINE
8
BLACK
6
CONTINUOUS
10
1.37267
20
2.09031
11
1.26191
21
1.97955
0
LINE
8
BLACK
6
CONTINUOUS
10
1.26191
20
1.97955
11
1.26191
21
1.643
0
LINE
8
BLACK
6
CONTINUOUS
10
1.26191
20
1.643
11
1.2617
21
1.64225
0
LINE
8
BLACK
6
CONTINUOUS
10
1.2617
20
1.64225
11
1.2617
21
1.64147
0
LINE
8
BLACK
6
CONTINUOUS
10
1.2617
20
1.64147
11
1.26132
21
1.6408
0
LINE
8
BLACK
6
CONTINUOUS
10
1.26132
20
1.6408
11
1.26111
21
1.64005
0
LINE
8
BLACK
6
CONTINUOUS
10
1.26111
20
1.64005
11
1.26056
21
1.6395
0
LINE
8
BLACK
6
CONTINUOUS
10
1.26056
20
1.6395
11
1.26018
21
1.63882
0
LINE
8
BLACK
6
CONTINUOUS
10
1.26018
20
1.63882
11
1.24871
21
1.62736
0
LINE
8
BLACK
6
CONTINUOUS
10
1.24871
20
1.62736
11
1.24982
21
1.62492
0
LINE
8
BLACK
6
CONTINUOUS
10
1.24982
20
1.62492
11
1.25052
21
1.62
0
LINE
8
BLACK
6
CONTINUOUS
10
1.25052
20
1.62
11
1.25051
21
1.61957
0
LINE
8
BLACK
6
CONTINUOUS
10
1.25051
20
1.61957
11
1.24969
21
1.61467
0
LINE
8
BLACK
6
CONTINUOUS
10
1.24969
20
1.61467
11
1.24752
21
1.6102
0
LINE
8
BLACK
6
CONTINUOUS
10
1.24752
20
1.6102
11
1.24419
21
1.60652
0
LINE
8
BLACK
6
CONTINUOUS
10
1.24419
20
1.60652
11
1.23996
21
1.60392
0
LINE
8
BLACK
6
CONTINUOUS
10
1.23996
20
1.60392
11
1.23517
21
1.60261
0
LINE
8
BLACK
6
CONTINUOUS
10
1.23517
20
1.60261
11
1.2302
21
1.60271
0
LINE
8
BLACK
6
CONTINUOUS
10
1.2302
20
1.60271
11
1.22546
21
1.60419
0
LINE
8
BLACK
6
CONTINUOUS
10
1.22546
20
1.60419
11
1.22132
21
1.60694
0
LINE
8
BLACK
6
CONTINUOUS
10
1.22132
20
1.60694
11
1.21813
21
1.61074
0
LINE
8
BLACK
6
CONTINUOUS
10
1.21813
20
1.61074
11
1.21613
21
1.61529
0
LINE
8
BLACK
6
CONTINUOUS
10
1.21613
20
1.61529
11
1.21548
21
1.62021
0
LINE
8
BLACK
6
CONTINUOUS
10
1.21548
20
1.62021
11
1.21625
21
1.62512
0
LINE
8
BLACK
6
CONTINUOUS
10
1.21625
20
1.62512
11
1.21836
21
1.62962
0
LINE
8
BLACK
6
CONTINUOUS
10
1.21836
20
1.62962
11
1.22165
21
1.63334
0
LINE
8
BLACK
6
CONTINUOUS
10
1.22165
20
1.63334
11
1.22585
21
1.63599
0
LINE
8
BLACK
6
CONTINUOUS
10
1.22585
20
1.63599
11
1.23062
21
1.63736
0
LINE
8
BLACK
6
CONTINUOUS
10
1.23062
20
1.63736
11
1.23559
21
1.63733
0
LINE
8
BLACK
6
CONTINUOUS
10
1.23559
20
1.63733
11
1.24035
21
1.6359
0
LINE
8
BLACK
6
CONTINUOUS
10
1.24035
20
1.6359
11
1.24047
21
1.63582
0
LINE
8
BLACK
6
CONTINUOUS
10
1.24047
20
1.63582
11
1.25009
21
1.64545
0
LINE
8
BLACK
6
CONTINUOUS
10
1.25009
20
1.64545
11
1.25009
21
1.982
0
LINE
8
BLACK
6
CONTINUOUS
10
1.25009
20
1.982
11
1.2503
21
1.98275
0
LINE
8
BLACK
6
CONTINUOUS
10
1.2503
20
1.98275
11
1.2503
21
1.98353
0
LINE
8
BLACK
6
CONTINUOUS
10
1.2503
20
1.98353
11
1.25068
21
1.9842
0
LINE
8
BLACK
6
CONTINUOUS
10
1.25068
20
1.9842
11
1.25089
21
1.98495
0
LINE
8
BLACK
6
CONTINUOUS
10
1.25089
20
1.98495
11
1.25144
21
1.9855
0
LINE
8
BLACK
6
CONTINUOUS
10
1.25144
20
1.9855
11
1.25182
21
1.98618
0
LINE
8
BLACK
6
CONTINUOUS
10
1.25182
20
1.98618
11
1.36187
21
2.09622
0
LINE
8
BLACK
6
CONTINUOUS
10
1.36187
20
2.09622
11
1.26382
21
2.19427
0
LINE
8
BLACK
6
CONTINUOUS
10
1.26382
20
2.19427
11
1.26344
21
2.19494
0
LINE
8
BLACK
6
CONTINUOUS
10
1.26344
20
2.19494
11
1.26289
21
2.19549
0
LINE
8
BLACK
6
CONTINUOUS
10
1.26289
20
2.19549
11
1.26268
21
2.19624
0
LINE
8
BLACK
6
CONTINUOUS
10
1.26268
20
2.19624
11
1.2623
21
2.19691
0
LINE
8
BLACK
6
CONTINUOUS
10
1.2623
20
2.19691
11
1.2623
21
2.19769
0
LINE
8
BLACK
6
CONTINUOUS
10
1.2623
20
2.19769
11
1.26209
21
2.19844
0
LINE
8
BLACK
6
CONTINUOUS
10
1.26209
20
2.19844
11
1.26209
21
2.22955
0
LINE
8
BLACK
6
CONTINUOUS
10
1.26209
20
2.22955
11
1.22743
21
2.26421
0
LINE
8
BLACK
6
CONTINUOUS
10
1.22743
20
2.26421
11
1.22696
21
2.26392
0
LINE
8
BLACK
6
CONTINUOUS
10
1.22696
20
2.26392
11
1.22217
21
2.26261
0
LINE
8
BLACK
6
CONTINUOUS
10
1.22217
20
2.26261
11
1.2172
21
2.26271
0
LINE
8
BLACK
6
CONTINUOUS
10
1.2172
20
2.26271
11
1.21246
21
2.26419
0
LINE
8
BLACK
6
CONTINUOUS
10
1.21246
20
2.26419
11
1.20832
21
2.26694
0
LINE
8
BLACK
6
CONTINUOUS
10
1.20832
20
2.26694
11
1.20513
21
2.27074
0
LINE
8
BLACK
6
CONTINUOUS
10
1.20513
20
2.27074
11
1.20313
21
2.27529
0
LINE
8
BLACK
6
CONTINUOUS
10
1.20313
20
2.27529
11
1.20248
21
2.28021
0
LINE
8
BLACK
6
CONTINUOUS
10
1.20248
20
2.28021
11
1.20325
21
2.28512
0
LINE
8
BLACK
6
CONTINUOUS
10
1.20325
20
2.28512
11
1.20536
21
2.28962
0
LINE
8
BLACK
6
CONTINUOUS
10
1.20536
20
2.28962
11
1.20865
21
2.29334
0
LINE
8
BLACK
6
CONTINUOUS
10
1.20865
20
2.29334
11
1.21285
21
2.29599
0
LINE
8
BLACK
6
CONTINUOUS
10
1.21285
20
2.29599
11
1.21762
21
2.29736
0
LINE
8
BLACK
6
CONTINUOUS
10
1.21762
20
2.29736
11
1.22259
21
2.29733
0
LINE
8
BLACK
6
CONTINUOUS
10
1.76
20
2.11
11
1.73787
21
2.11
0
LINE
8
BLACK
6
CONTINUOUS
10
1.73787
20
2.11
11
1.73787
21
2.09424
0
LINE
8
BLACK
6
CONTINUOUS
10
1.73787
20
2.09424
11
1.73758
21
2.09296
0
LINE
8
BLACK
6
CONTINUOUS
10
1.73758
20
2.09296
11
1.73743
21
2.09165
0
LINE
8
BLACK
6
CONTINUOUS
10
1.73743
20
2.09165
11
1.73719
21
2.09127
0
LINE
8
BLACK
6
CONTINUOUS
10
1.73719
20
2.09127
11
1.73709
21
2.09082
0
LINE
8
BLACK
6
CONTINUOUS
10
1.73709
20
2.09082
11
1.73627
21
2.0898
0
LINE
8
BLACK
6
CONTINUOUS
10
1.73627
20
2.0898
11
1.73557
21
2.08868
0
LINE
8
BLACK
6
CONTINUOUS
10
1.73557
20
2.08868
11
1.70631
21
2.05942
0
LINE
8
BLACK
6
CONTINUOUS
10
1.70631
20
2.05942
11
1.70519
21
2.05872
0
LINE
8
BLACK
6
CONTINUOUS
10
1.70519
20
2.05872
11
1.70416
21
2.0579
0
LINE
8
BLACK
6
CONTINUOUS
10
1.70416
20
2.0579
11
1.70372
21
2.0578
0
LINE
8
BLACK
6
CONTINUOUS
10
1.70372
20
2.0578
11
1.70334
21
2.05756
0
LINE
8
BLACK
6
CONTINUOUS
10
1.70334
20
2.05756
11
1.70203
21
2.05742
0
LINE
8
BLACK
6
CONTINUOUS
10
1.70203
20
2.05742
11
1.70075
21
2.05713
0
LINE
8
BLACK
6
CONTINUOUS
10
1.70075
20
2.05713
11
1.60546
21
2.05713
0
LINE
8
BLACK
6
CONTINUOUS
10
1.60546
20
2.05713
11
1.60452
21
2.0552
0
LINE
8
BLACK
6
CONTINUOUS
10
1.60452
20
2.0552
11
1.60119
21
2.05152
0
LINE
8
BLACK
6
CONTINUOUS
10
1.60119
20
2.05152
11
1.59696
21
2.04892
0
LINE
8
BLACK
6
CONTINUOUS
10
1.59696
20
2.04892
11
1.59217
21
2.04761
0
LINE
8
BLACK
6
CONTINUOUS
10
1.59217
20
2.04761
11
1.5872
21
2.04771
0
LINE
8
BLACK
6
CONTINUOUS
10
1.5872
20
2.04771
11
1.58246
21
2.04919
0
LINE
8
BLACK
6
CONTINUOUS
10
1.58246
20
2.04919
11
1.57832
21
2.05194
0
LINE
8
BLACK
6
CONTINUOUS
10
1.57832
20
2.05194
11
1.57513
21
2.05574
0
LINE
8
BLACK
6
CONTINUOUS
10
1.57513
20
2.05574
11
1.57313
21
2.06029
0
LINE
8
BLACK
6
CONTINUOUS
10
1.57313
20
2.06029
11
1.57248
21
2.06521
0
LINE
8
BLACK
6
CONTINUOUS
10
1.57248
20
2.06521
11
1.57325
21
2.07012
0
LINE
8
BLACK
6
CONTINUOUS
10
1.57325
20
2.07012
11
1.57536
21
2.07462
0
LINE
8
BLACK
6
CONTINUOUS
10
1.57536
20
2.07462
11
1.57865
21
2.07834
0
LINE
8
BLACK
6
CONTINUOUS
10
1.57865
20
2.07834
11
1.58285
21
2.08099
0
LINE
8
BLACK
6
CONTINUOUS
10
1.58285
20
2.08099
11
1.58762
21
2.08236
0
LINE
8
BLACK
6
CONTINUOUS
10
1.58762
20
2.08236
11
1.59259
21
2.08233
0
LINE
8
BLACK
6
CONTINUOUS
10
1.59259
20
2.08233
11
1.59735
21
2.0809
0
LINE
8
BLACK
6
CONTINUOUS
10
1.59735
20
2.0809
11
1.60152
21
2.0782
0
LINE
8
BLACK
6
CONTINUOUS
10
1.60152
20
2.0782
11
1.60476
21
2.07444
0
LINE
8
BLACK
6
CONTINUOUS
10
1.60476
20
2.07444
11
1.60547
21
2.07287
0
LINE
8
BLACK
6
CONTINUOUS
10
1.60547
20
2.07287
11
1.69749
21
2.07287
0
LINE
8
BLACK
6
CONTINUOUS
10
1.69749
20
2.07287
11
1.72213
21
2.09751
0
LINE
8
BLACK
6
CONTINUOUS
10
1.72213
20
2.09751
11
1.72213
21
2.11
0
LINE
8
BLACK
6
CONTINUOUS
10
1.72213
20
2.11
11
1.7
21
2.11
0
LINE
8
BLACK
6
CONTINUOUS
10
1.7
20
2.11
11
1.7
21
2.17
0
LINE
8
BLACK
6
CONTINUOUS
10
1.7
20
2.17
11
1.76
21
2.17
0
LINE
8
BLACK
6
CONTINUOUS
10
1.76
20
2.17
11
1.76
21
2.11
0
LINE
8
BLACK
6
CONTINUOUS
10
1.56
20
2.21
11
1.53787
21
2.21
0
LINE
8
BLACK
6
CONTINUOUS
10
1.53787
20
2.21
11
1.53787
21
2.17
0
LINE
8
BLACK
6
CONTINUOUS
10
1.53787
20
2.17
11
1.56
21
2.17
0
LINE
8
BLACK
6
CONTINUOUS
10
1.56
20
2.17
11
1.56
21
2.11
0
LINE
8
BLACK
6
CONTINUOUS
10
1.56
20
2.11
11
1.5
21
2.11
0
LINE
8
BLACK
6
CONTINUOUS
10
1.5
20
2.11
11
1.5
21
2.17
0
LINE
8
BLACK
6
CONTINUOUS
10
1.5
20
2.17
11
1.52213
21
2.17
0
LINE
8
BLACK
6
CONTINUOUS
10
1.52213
20
2.17
11
1.52213
21
2.21
0
LINE
8
BLACK
6
CONTINUOUS
10
1.52213
20
2.21
11
1.5
21
2.21
0
LINE
8
BLACK
6
CONTINUOUS
10
1.5
20
2.21
11
1.5
21
2.27
0
LINE
8
BLACK
6
CONTINUOUS
10
1.5
20
2.27
11
1.56
21
2.27
0
LINE
8
BLACK
6
CONTINUOUS
10
1.56
20
2.27
11
1.56
21
2.21
0
LINE
8
BLACK
6
CONTINUOUS
10
1.76
20
2.26994
11
1.77483
21
2.26994
0
LINE
8
BLACK
6
CONTINUOUS
10
1.77483
20
2.26994
11
1.77674
21
2.26956
0
LINE
8
BLACK
6
CONTINUOUS
10
1.77674
20
2.26956
11
1.77837
21
2.26848
0
LINE
8
BLACK
6
CONTINUOUS
10
1.77837
20
2.26848
11
1.77945
21
2.26685
0
LINE
8
BLACK
6
CONTINUOUS
10
1.77945
20
2.26685
11
1.77983
21
2.26494
0
LINE
8
BLACK
6
CONTINUOUS
10
1.77983
20
2.26494
11
1.77983
21
2.21047
0
LINE
8
BLACK
6
CONTINUOUS
10
1.77983
20
2.21047
11
1.78129
21
2.20274
0
LINE
8
BLACK
6
CONTINUOUS
10
1.78129
20
2.20274
11
1.78562
21
2.19601
0
LINE
8
BLACK
6
CONTINUOUS
10
1.78562
20
2.19601
11
1.78834
21
2.19415
0
LINE
8
BLACK
6
CONTINUOUS
10
1.78834
20
2.19415
11
1.78971
21
2.19275
0
LINE
8
BLACK
6
CONTINUOUS
10
1.78971
20
2.19275
11
1.79043
21
2.19094
0
LINE
8
BLACK
6
CONTINUOUS
10
1.79043
20
2.19094
11
1.79041
21
2.18899
0
LINE
8
BLACK
6
CONTINUOUS
10
1.79041
20
2.18899
11
1.78965
21
2.1872
0
LINE
8
BLACK
6
CONTINUOUS
10
1.78965
20
2.1872
11
1.78823
21
2.18581
0
LINE
8
BLACK
6
CONTINUOUS
10
1.78823
20
2.18581
11
1.78601
21
2.18438
0
LINE
8
BLACK
6
CONTINUOUS
10
1.78601
20
2.18438
11
1.78415
21
2.18166
0
LINE
8
BLACK
6
CONTINUOUS
10
1.78415
20
2.18166
11
1.78275
21
2.18029
0
LINE
8
BLACK
6
CONTINUOUS
10
1.78275
20
2.18029
11
1.78094
21
2.17957
0
LINE
8
BLACK
6
CONTINUOUS
10
1.78094
20
2.17957
11
1.77899
21
2.17959
0
LINE
8
BLACK
6
CONTINUOUS
10
1.77899
20
2.17959
11
1.7772
21
2.18035
0
LINE
8
BLACK
6
CONTINUOUS
10
1.7772
20
2.18035
11
1.77581
21
2.18177
0
LINE
8
BLACK
6
CONTINUOUS
10
1.77581
20
2.18177
11
1.77438
21
2.18399
0
LINE
8
BLACK
6
CONTINUOUS
10
1.77438
20
2.18399
11
1.76781
21
2.18849
0
LINE
8
BLACK
6
CONTINUOUS
10
1.76781
20
2.18849
11
1.7595
21
2.19017
0
LINE
8
BLACK
6
CONTINUOUS
10
1.7595
20
2.19017
11
1.70047
21
2.19017
0
LINE
8
BLACK
6
CONTINUOUS
10
1.70047
20
2.19017
11
1.69274
21
2.18871
0
LINE
8
BLACK
6
CONTINUOUS
10
1.69274
20
2.18871
11
1.68601
21
2.18438
0
LINE
8
BLACK
6
CONTINUOUS
10
1.68601
20
2.18438
11
1.68415
21
2.18166
0
LINE
8
BLACK
6
CONTINUOUS
10
1.68415
20
2.18166
11
1.68275
21
2.18029
0
LINE
8
BLACK
6
CONTINUOUS
10
1.68275
20
2.18029
11
1.68094
21
2.17957
0
LINE
8
BLACK
6
CONTINUOUS
10
1.68094
20
2.17957
11
1.67899
21
2.17959
0
LINE
8
BLACK
6
CONTINUOUS
10
1.67899
20
2.17959
11
1.6772
21
2.18035
0
LINE
8
BLACK
6
CONTINUOUS
10
1.6772
20
2.18035
11
1.67581
21
2.18177
0
LINE
8
BLACK
6
CONTINUOUS
10
1.67581
20
2.18177
11
1.67438
21
2.18399
0
LINE
8
BLACK
6
CONTINUOUS
10
1.67438
20
2.18399
11
1.67166
21
2.18585
0
LINE
8
BLACK
6
CONTINUOUS
10
1.67166
20
2.18585
11
1.67029
21
2.18725
0
LINE
8
BLACK
6
CONTINUOUS
10
1.67029
20
2.18725
11
1.66957
21
2.18906
0
LINE
8
BLACK
6
CONTINUOUS
10
1.66957
20
2.18906
11
1.66959
21
2.19101
0
LINE
8
BLACK
6
CONTINUOUS
10
1.66959
20
2.19101
11
1.67035
21
2.1928
0
LINE
8
BLACK
6
CONTINUOUS
10
1.67035
20
2.1928
11
1.67177
21
2.19419
0
LINE
8
BLACK
6
CONTINUOUS
10
1.67177
20
2.19419
11
1.67399
21
2.19562
0
LINE
8
BLACK
6
CONTINUOUS
10
1.67399
20
2.19562
11
1.67849
21
2.20219
0
LINE
8
BLACK
6
CONTINUOUS
10
1.67849
20
2.20219
11
1.68017
21
2.2105
0
LINE
8
BLACK
6
CONTINUOUS
10
1.68017
20
2.2105
11
1.68017
21
2.26494
0
LINE
8
BLACK
6
CONTINUOUS
10
1.68017
20
2.26494
11
1.68055
21
2.26685
0
LINE
8
BLACK
6
CONTINUOUS
10
1.68055
20
2.26685
11
1.68163
21
2.26848
0
LINE
8
BLACK
6
CONTINUOUS
10
1.68163
20
2.26848
11
1.68326
21
2.26956
0
LINE
8
BLACK
6
CONTINUOUS
10
1.68326
20
2.26956
11
1.68517
21
2.26994
0
LINE
8
BLACK
6
CONTINUOUS
10
1.68517
20
2.26994
11
1.7
21
2.26994
0
LINE
8
BLACK
6
CONTINUOUS
10
1.7
20
2.26994
11
1.7
21
2.27
0
LINE
8
BLACK
6
CONTINUOUS
10
1.7
20
2.27
11
1.76
21
2.27
0
LINE
8
BLACK
6
CONTINUOUS
10
1.76
20
2.27
11
1.76
21
2.26994
0
LINE
8
BLACK
6
CONTINUOUS
10
1.66
20
2.21
11
1.6
21
2.21
0
LINE
8
BLACK
6
CONTINUOUS
10
1.6
20
2.21
11
1.6
21
2.27
0
LINE
8
BLACK
6
CONTINUOUS
10
1.6
20
2.27
11
1.66
21
2.27
0
LINE
8
BLACK
6
CONTINUOUS
10
1.66
20
2.27
11
1.66
21
2.21
0
LINE
8
BLACK
6
CONTINUOUS
10
1.86
20
2.21
11
1.8
21
2.21
0
LINE
8
BLACK
6
CONTINUOUS
10
1.8
20
2.21
11
1.8
21
2.27
0
LINE
8
BLACK
6
CONTINUOUS
10
1.8
20
2.27
11
1.86
21
2.27
0
LINE
8
BLACK
6
CONTINUOUS
10
1.86
20
2.27
11
1.86
21
2.21
0
CIRCLE
8
BLACK
10
0.66
20
1.14
40
0.00984252
0
CIRCLE
8
BLACK
10
1.285
20
0.52
40
0.00984252
0
CIRCLE
8
BLACK
10
0.43
20
1.35
40
0.00984252
0
CIRCLE
8
BLACK
10
1.32
20
0.06
40
0.00984252
0
CIRCLE
8
BLACK
10
2.42
20
0.73
40
0.00984252
0
CIRCLE
8
BLACK
10
1.778
20
0.668
40
0.00984252
0
CIRCLE
8
BLACK
10
2.835
20
1.7475
40
0.00984252
0
CIRCLE
8
BLACK
10
2.28
20
2.33
40
0.00984252
0
CIRCLE
8
BLACK
10
2.71
20
1.47
40
0.00984252
0
CIRCLE
8
BLACK
10
0.61
20
1.8
40
0.00984252
0
CIRCLE
8
BLACK
10
1.48
20
1.935
40
0.00984252
0
CIRCLE
8
BLACK
10
0.1125
20
0.6825
40
0.00984252
0
CIRCLE
8
BLACK
10
1.225
20
0.6225
40
0.00984252
0
CIRCLE
8
BLACK
10
0.46
20
1.75
40
0.00984252
0
CIRCLE
8
BLACK
10
0.3
20
0.97
40
0.00984252
0
CIRCLE
8
BLACK
10
0.1425
20
0.6325
40
0.00984252
0
CIRCLE
8
BLACK
10
1.32
20
0.455
40
0.00984252
0
CIRCLE
8
BLACK
10
1.395
20
0.655
40
0.00984252
0
CIRCLE
8
BLACK
10
0.48
20
0.06
40
0.00984252
0
CIRCLE
8
BLACK
10
3.015
20
1.145
40
0.00984252
0
CIRCLE
8
BLACK
10
0.31
20
1.82
40
0.00984252
0
CIRCLE
8
BLACK
10
0.56
20
1.305
40
0.00984252
0
CIRCLE
8
BLACK
10
2.89
20
0.52
40
0.00984252
0
CIRCLE
8
BLACK
10
2.89
20
0.59
40
0.00984252
0
CIRCLE
8
BLACK
10
1.29
20
0.8
40
0.00984252
0
CIRCLE
8
BLACK
10
1.06
20
1.85
40
0.00984252
0
CIRCLE
8
BLACK
10
0.565
20
0.565
40
0.00984252
0
CIRCLE
8
BLACK
10
2.76
20
0.41
40
0.00984252
0
CIRCLE
8
BLACK
10
0.62
20
1.305
40
0.00984252
0
CIRCLE
8
BLACK
10
1.8825
20
1.32
40
0.00984252
0
CIRCLE
8
BLACK
10
0.36
20
1.59
40
0.00984252
0
CIRCLE
8
BLACK
10
2.685
20
0.36
40
0.00984252
0
CIRCLE
8
BLACK
10
2.66
20
0.67
40
0.00984252
0
CIRCLE
8
BLACK
10
2.53
20
0.59
40
0.00984252
0
CIRCLE
8
BLACK
10
2.085
20
1.7575
40
0.00984252
0
CIRCLE
8
BLACK
10
1.42002
20
1.82498
40
0.00984252
0
CIRCLE
8
BLACK
10
0.56
20
1.8
40
0.00984252
0
CIRCLE
8
BLACK
10
0.41
20
1.8
40
0.00984252
0
CIRCLE
8
BLACK
10
1.615
20
0.8725
40
0.00984252
0
CIRCLE
8
BLACK
10
2.94
20
0.99
40
0.00984252
0
CIRCLE
8
BLACK
10
0.2825
20
0.57
40
0.00984252
0
CIRCLE
8
BLACK
10
0.37
20
1.745
40
0.00984252
0
CIRCLE
8
BLACK
10
1.925
20
1.3025
40
0.00984252
0
CIRCLE
8
BLACK
10
0.1825
20
0.6925
40
0.00984252
0
CIRCLE
8
BLACK
10
0.49
20
1.7
40
0.00984252
0
CIRCLE
8
BLACK
10
1.707
20
0.598
40
0.00984252
0
CIRCLE
8
BLACK
10
0.5225
20
0.6925
40
0.00984252
0
CIRCLE
8
BLACK
10
2.53
20
0.47
40
0.00984252
0
CIRCLE
8
BLACK
10
2.67
20
1.92
40
0.00984252
0
CIRCLE
8
BLACK
10
3
20
1.04
40
0.00984252
0
CIRCLE
8
BLACK
10
2.69
20
1.08
40
0.00984252
0
CIRCLE
8
BLACK
10
1.55
20
0.54
40
0.00984252
0
CIRCLE
8
BLACK
10
1.82
20
1.9
40
0.00984252
0
CIRCLE
8
BLACK
10
1.7425
20
1.29
40
0.00984252
0
CIRCLE
8
BLACK
10
0.6036
20
1.547
40
0.00984252
0
CIRCLE
8
BLACK
10
0.05
20
1.4175
40
0.00984252
0
CIRCLE
8
BLACK
10
0.3525
20
0.57
40
0.00984252
0
CIRCLE
8
BLACK
10
0.51
20
1.8
40
0.00984252
0
CIRCLE
8
BLACK
10
3.06
20
0.99
40
0.00984252
0
CIRCLE
8
BLACK
10
0.4175
20
0.57
40
0.00984252
0
CIRCLE
8
BLACK
10
0.39
20
2.215
40
0.00984252
0
CIRCLE
8
BLACK
10
1.565
20
1.905
40
0.00984252
0
CIRCLE
8
BLACK
10
1.49
20
0.745
40
0.00984252
0
CIRCLE
8
BLACK
10
1.72
20
1.09351
40
0.00984252
0
CIRCLE
8
BLACK
10
2.815
20
1.98
40
0.00984252
0
CIRCLE
8
BLACK
10
2.855
20
1.98
40
0.00984252
0
CIRCLE
8
BLACK
10
1.0525
20
0.6225
40
0.00984252
0
CIRCLE
8
BLACK
10
1.495
20
1.825
40
0.00984252
0
CIRCLE
8
BLACK
10
0.435
20
1.68
40
0.00984252
0
CIRCLE
8
BLACK
10
2.53
20
0.53
40
0.00984252
0
CIRCLE
8
BLACK
10
0.18
20
1.2825
40
0.00984252
0
CIRCLE
8
BLACK
10
0.9725
20
0.62
40
0.00984252
0
CIRCLE
8
BLACK
10
0.5775
20
0.6225
40
0.00984252
0
CIRCLE
8
BLACK
10
2.88
20
1.035
40
0.00984252
0
CIRCLE
8
BLACK
10
2.3
20
0.85
40
0.00984252
0
CIRCLE
8
BLACK
10
2.845
20
1.14
40
0.00984252
0
CIRCLE
8
BLACK
10
1.9675
20
1.2825
40
0.00984252
0
CIRCLE
8
BLACK
10
2.82
20
1.035
40
0.00984252
0
CIRCLE
8
BLACK
10
2.9
20
0.975
40
0.00984252
0
CIRCLE
8
BLACK
10
2.36
20
1.11
40
0.00984252
0
CIRCLE
8
BLACK
10
2.82
20
0.75
40
0.00984252
0
CIRCLE
8
BLACK
10
1.335
20
1.9034
40
0.00984252
0
CIRCLE
8
BLACK
10
1.57
20
2.005
40
0.00984252
0
CIRCLE
8
BLACK
10
1.455
20
1.785
40
0.00984252
0
CIRCLE
8
BLACK
10
2.805
20
0.98
40
0.00984252
0
CIRCLE
8
BLACK
10
2.75
20
1.08
40
0.00984252
0
CIRCLE
8
BLACK
10
2.89
20
0.65
40
0.00984252
0
CIRCLE
8
BLACK
10
3.13
20
0.68
40
0.00984252
0
CIRCLE
8
BLACK
10
1.7925
20
1.745
40
0.00984252
0
CIRCLE
8
BLACK
10
2.005
20
0.835
40
0.00984252
0
CIRCLE
8
BLACK
10
2.07171
20
1.2825
40
0.00984252
0
CIRCLE
8
BLACK
10
0.48
20
0.17
40
0.00984252
0
CIRCLE
8
BLACK
10
2.735
20
0.585
40
0.00984252
0
CIRCLE
8
BLACK
10
2.97
20
1.09
40
0.00984252
0
CIRCLE
8
BLACK
10
0.1625
20
1.335
40
0.00984252
0
CIRCLE
8
BLACK
10
2.61
20
1.86
40
0.00984252
0
CIRCLE
8
BLACK
10
1.15
20
0.62
40
0.00984252
0
CIRCLE
8
BLACK
10
0.17
20
1.97
40
0.00984252
0
CIRCLE
8
BLACK
10
2.895
20
1.14
40
0.00984252
0
CIRCLE
8
BLACK
10
0.1
20
1.72
40
0.00984252
0
CIRCLE
8
BLACK
10
1.32
20
0.6225
40
0.00984252
0
CIRCLE
8
BLACK
10
1.45002
20
1.85498
40
0.00984252
0
CIRCLE
8
BLACK
10
0.905
20
0.115
40
0.00984252
0
CIRCLE
8
BLACK
10
2.58
20
0.38
40
0.00984252
0
CIRCLE
8
BLACK
10
1.5625
20
0.8225
40
0.00984252
0
CIRCLE
8
BLACK
10
1.44
20
0.06
40
0.00984252
0
CIRCLE
8
BLACK
10
2.1475
20
1.755
40
0.00984252
0
CIRCLE
8
BLACK
10
1.7
20
0.945
40
0.00984252
0
CIRCLE
8
BLACK
10
0.24
20
1.97
40
0.00984252
0
CIRCLE
8
BLACK
10
0.1
20
1.87
40
0.00984252
0
CIRCLE
8
BLACK
10
2.8
20
1.14
40
0.00984252
0
CIRCLE
8
BLACK
10
0.49
20
1.06
40
0.00984252
0
CIRCLE
8
BLACK
10
1.74
20
1.4275
40
0.00984252
0
CIRCLE
8
BLACK
10
2.88
20
0.45
40
0.00984252
0
CIRCLE
8
BLACK
10
0.39
20
2.17
40
0.00984252
0
CIRCLE
8
BLACK
10
1.9275
20
1.4675
40
0.00984252
0
CIRCLE
8
BLACK
10
1.6
20
1.945
40
0.00984252
0
CIRCLE
8
BLACK
10
1.26
20
0.06
40
0.00984252
0
CIRCLE
8
BLACK
10
2.77
20
1.98
40
0.00984252
0
CIRCLE
8
BLACK
10
2.95
20
1.145
40
0.00984252
0
CIRCLE
8
BLACK
10
3.03
20
1.47
40
0.00984252
0
CIRCLE
8
BLACK
10
1.75
20
1.78
40
0.00984252
0
CIRCLE
8
BLACK
10
2.74
20
1.14
40
0.00984252
0
CIRCLE
8
BLACK
10
0.39
20
2.12
40
0.00984252
0
CIRCLE
8
BLACK
10
0.325
20
0.6925
40
0.00984252
0
CIRCLE
8
BLACK
10
1.101
20
1.854
40
0.00984252
0
CIRCLE
8
BLACK
10
2.635
20
1.75
40
0.00984252
0
CIRCLE
8
BLACK
10
0.8225
20
1.9975
40
0.00984252
0
CIRCLE
8
BLACK
10
0.385
20
0.6925
40
0.00984252
0
CIRCLE
8
BLACK
10
0.7262
20
1.6502
40
0.00984252
0
CIRCLE
8
BLACK
10
1.03
20
0.805
40
0.00984252
0
CIRCLE
8
BLACK
10
1.43
20
0.84
40
0.00984252
0
CIRCLE
8
BLACK
10
3.07
20
0.68
40
0.00984252
0
CIRCLE
8
BLACK
10
0.35
20
0.97
40
0.00984252
0
CIRCLE
8
BLACK
10
2.76
20
0.47
40
0.00984252
0
CIRCLE
8
BLACK
10
1.67
20
0.52
40
0.00984252
0
CIRCLE
8
BLACK
10
1.045
20
0.115
40
0.00984252
0
CIRCLE
8
BLACK
10
1.5
20
0.06
40
0.00984252
0
CIRCLE
8
BLACK
10
3
20
0.99
40
0.00984252
0
CIRCLE
8
BLACK
10
2.56
20
1.81
40
0.00984252
0
CIRCLE
8
BLACK
10
2.3375
20
1.955
40
0.00984252
0
CIRCLE
8
BLACK
10
2.22
20
2.33
40
0.00984252
0
CIRCLE
8
BLACK
10
1.21
20
0.8
40
0.00984252
0
CIRCLE
8
BLACK
10
2.595
20
0.585
40
0.00984252
0
CIRCLE
8
BLACK
10
0.8786
20
1.5452
40
0.00984252
0
CIRCLE
8
BLACK
10
1.975
20
0.87
40
0.00984252
0
CIRCLE
8
BLACK
10
1.52
20
2.01
40
0.00984252
0
CIRCLE
8
BLACK
10
2.34
20
2.33
40
0.00984252
0
CIRCLE
8
BLACK
10
2.88
20
0.37
40
0.00984252
0
CIRCLE
8
BLACK
10
1.55
20
0.47
40
0.00984252
0
CIRCLE
8
BLACK
10
0.16
20
1.72
40
0.00984252
0
CIRCLE
8
BLACK
10
0.1
20
1.92
40
0.00984252
0
CIRCLE
8
BLACK
10
1.09
20
0.115
40
0.00984252
0
CIRCLE
8
BLACK
10
1.475
20
1.89
40
0.00984252
0
CIRCLE
8
BLACK
10
1.135
20
0.115
40
0.00984252
0
CIRCLE
8
BLACK
10
0.39
20
2.26
40
0.00984252
0
CIRCLE
8
BLACK
10
1.36
20
0.84
40
0.00984252
0
CIRCLE
8
BLACK
10
1.9525
20
1.975
40
0.00984252
0
CIRCLE
8
BLACK
10
0.58
20
0.6775
40
0.00984252
0
CIRCLE
8
BLACK
10
1.82
20
1.8375
40
0.00984252
0
CIRCLE
8
BLACK
10
0.3
20
1.89
40
0.00984252
0
CIRCLE
8
BLACK
10
2.2625
20
1.8825
40
0.00984252
0
CIRCLE
8
BLACK
10
2.16
20
2.33
40
0.00984252
0
CIRCLE
8
BLACK
10
2.0225
20
2.05
40
0.00984252
0
CIRCLE
8
BLACK
10
1.63
20
0.93
40
0.00984252
0
CIRCLE
8
BLACK
10
2.53
20
0.72
40
0.00984252
0
CIRCLE
8
BLACK
10
2.5
20
1.75
40
0.00984252
0
CIRCLE
8
BLACK
10
0.4575
20
0.6925
40
0.00984252
0
CIRCLE
8
BLACK
10
3.01
20
0.68
40
0.00984252
0
CIRCLE
8
BLACK
10
1.57
20
0.6
40
0.00984252
0
CIRCLE
8
BLACK
10
1.5
20
1.98
40
0.00984252
0
CIRCLE
8
BLACK
10
0.7976
20
1.546
40
0.00984252
0
CIRCLE
8
BLACK
10
2.37
20
1.18
40
0.00984252
0
CIRCLE
8
BLACK
10
3.12
20
0.99
40
0.00984252
0
CIRCLE
8
BLACK
10
0.22
20
1.72
40
0.00984252
0
CIRCLE
8
BLACK
10
0.79
20
2.09
40
0.00984252
0
CIRCLE
8
BLACK
10
1.76
20
1.84
40
0.00984252
0
CIRCLE
8
BLACK
10
0.39
20
2.07
40
0.00984252
0
CIRCLE
8
BLACK
10
2.64
20
0.75
40
0.00984252
0
CIRCLE
8
BLACK
10
2.68
20
1.14
40
0.00984252
0
CIRCLE
8
BLACK
10
2.62
20
0.36
40
0.00984252
0
CIRCLE
8
BLACK
10
2.41
20
1.11
40
0.00984252
0
CIRCLE
8
BLACK
10
1.53
20
1.865
40
0.00984252
0
CIRCLE
8
BLACK
10
0.955
20
0.115
40
0.00984252
0
CIRCLE
8
BLACK
10
2.35
20
0.8
40
0.00984252
0
CIRCLE
8
BLACK
10
2.74
20
0.52
40
0.00984252
0
CIRCLE
8
BLACK
10
1.69
20
1.78
40
0.00984252
0
CIRCLE
8
BLACK
10
2.61
20
1.12
40
0.00984252
0
CIRCLE
8
BLACK
10
1.095
20
0.8
40
0.00984252
0
CIRCLE
8
BLACK
10
3.02
20
1.095
40
0.00984252
0
CIRCLE
8
BLACK
10
2.125
20
1.9575
40
0.00984252
0
CIRCLE
8
BLACK
10
0.255
20
0.6925
40
0.00984252
0
CIRCLE
8
BLACK
10
0.1975
20
0.59
40
0.00984252
0
CIRCLE
8
BLACK
10
2.95
20
0.68
40
0.00984252
0
CIRCLE
8
BLACK
10
1.155
20
0.8
40
0.00984252
0
CIRCLE
8
BLACK
10
1.54
20
0.92
40
0.00984252
0
CIRCLE
8
BLACK
10
0.1
20
1.97
40
0.00984252
0
CIRCLE
8
BLACK
10
0.98
20
0.7375
40
0.00984252
0
CIRCLE
8
BLACK
10
1.525
20
1.925
40
0.00984252
0
CIRCLE
8
BLACK
10
2.2012
20
0.9544
40
0.00984252
0
CIRCLE
8
BLACK
10
3.12
20
1.04
40
0.00984252
0
CIRCLE
8
BLACK
10
3.06
20
1.04
40
0.00984252
0
CIRCLE
8
BLACK
10
0.55
20
1.68
40
0.00984252
0
CIRCLE
8
BLACK
10
0.1
20
1.82
40
0.00984252
0
CIRCLE
8
BLACK
10
2.4
20
2.33
40
0.00984252
0
CIRCLE
8
BLACK
10
1.64
20
1.985
40
0.00984252
0
CIRCLE
8
BLACK
10
2.88
20
0.72
40
0.00984252
0
CIRCLE
8
BLACK
10
1.2
20
0.06
40
0.00984252
0
CIRCLE
8
BLACK
10
1.74
20
0.985
40
0.00984252
0
CIRCLE
8
BLACK
10
2.37
20
1.345
40
0.00984252
0
CIRCLE
8
BLACK
10
2.535
20
0.38
40
0.00984252
0
CIRCLE
8
BLACK
10
2.905
20
1.98
40
0.00984252
0
CIRCLE
8
BLACK
10
0.38
20
1.305
40
0.00984252
0
CIRCLE
8
BLACK
10
0.980733
20
1.9725
40
0.00984252
0
CIRCLE
8
BLACK
10
0.415
20
1.59
40
0.00984252
0
CIRCLE
8
BLACK
10
1.84
20
1.0675
40
0.00984252
0
CIRCLE
8
BLACK
10
3.0475
20
1.755
40
0.00984252
0
CIRCLE
8
BLACK
10
2.84
20
0.69
40
0.00984252
0
CIRCLE
8
BLACK
10
1.84
20
0.7
40
0.00984252
0
CIRCLE
8
BLACK
10
0.3
20
1.94
40
0.00984252
0
CIRCLE
8
BLACK
10
1.38
20
0.06
40
0.00984252
0
CIRCLE
8
BLACK
10
0.1
20
1.77
40
0.00984252
0
CIRCLE
8
BLACK
10
2.85
20
0.975
40
0.00984252
0
CIRCLE
8
BLACK
10
2.37
20
1.47
40
0.00984252
0
CIRCLE
8
BLACK
10
1
20
0.115
40
0.00984252
0
CIRCLE
8
BLACK
10
0.355
20
1.65
40
0.00984252
0
CIRCLE
8
BLACK
10
0.685
20
1.2042
40
0.00984252
0
CIRCLE
8
BLACK
10
0.28
20
1.72
40
0.00984252
0
CIRCLE
8
BLACK
10
2.02
20
1.8475
40
0.00984252
0
CIRCLE
8
BLACK
10
0.49
20
0.5725
40
0.00984252
0
CIRCLE
8
BLACK
10
1.56
20
1.96
40
0.00984252
0
CIRCLE
8
BLACK
10
0.66
20
1.8
40
0.00984252
0
CIRCLE
8
BLACK
10
0.46
20
1.8
40
0.00984252
0
CIRCLE
8
BLACK
10
1.12
20
1.94
40
0.00984252
0
CIRCLE
8
BLACK
10
0.48
20
0.12
40
0.00984252
0
CIRCLE
8
BLACK
10
1.59
20
2.065
40
0.00984252
0
CIRCLE
8
BLACK
10
1.35969
20
1.48158
40
0.00984252
0
CIRCLE
8
BLACK
10
1.455
20
1.23295
40
0.00984252
0
CIRCLE
8
BLACK
10
2.73
20
0.78
40
0.00984252
0
CIRCLE
8
BLACK
10
2.0625
20
1.07
40
0.00984252
0
CIRCLE
8
BLACK
10
0.88
20
2.28
40
0.00984252
0
CIRCLE
8
BLACK
10
0.834
20
1.781
40
0.00984252
0
CIRCLE
8
BLACK
10
1.44
20
2.28
40
0.00984252
0
CIRCLE
8
BLACK
10
0.937
20
1.513
40
0.00984252
0
CIRCLE
8
BLACK
10
1.31396
20
1.58426
40
0.00984252
0
CIRCLE
8
BLACK
10
1.22174
20
1.80087
40
0.00984252
0
CIRCLE
8
BLACK
10
2.62
20
0.825
40
0.00984252
0
CIRCLE
8
BLACK
10
2.2525
20
0.66
40
0.00984252
0
CIRCLE
8
BLACK
10
2.2525
20
0.38
40
0.00984252
0
CIRCLE
8
BLACK
10
2.2
20
0.465
40
0.00984252
0
CIRCLE
8
BLACK
10
2.2
20
0.65
40
0.00984252
0
CIRCLE
8
BLACK
10
2.3
20
0.465
40
0.00984252
0
CIRCLE
8
BLACK
10
2.3
20
0.595
40
0.00984252
0
CIRCLE
8
BLACK
10
1.8675
20
0.56
40
0.00984252
0
CIRCLE
8
BLACK
10
2.0675
20
0.9525
40
0.00984252
0
CIRCLE
8
BLACK
10
1.631
20
0.094
40
0.00984252
0
CIRCLE
8
BLACK
10
2.0925
20
1.38
40
0.00984252
0
CIRCLE
8
BLACK
10
1.62
20
0.44
40
0.00984252
0
CIRCLE
8
BLACK
10
2.005
20
1.045
40
0.00984252
0
CIRCLE
8
BLACK
10
1.9275
20
1.115
40
0.00984252
0
CIRCLE
8
BLACK
10
2.0225
20
1.3575
40
0.00984252
0
CIRCLE
8
BLACK
10
0.584038
20
1.13492
40
0.00984252
0
CIRCLE
8
BLACK
10
0.527421
20
1.03561
40
0.00984252
0
CIRCLE
8
BLACK
10
1.233
20
1.62
40
0.00984252
0
CIRCLE
8
BLACK
10
1.22
20
2.28
40
0.00984252
0
CIRCLE
8
BLACK
10
1.3518
20
1.7262
40
0.00984252
0
CIRCLE
8
BLACK
10
1.43219
20
1.94666
40
0.00984252
  0
ENDSEC
  0
EOF
