  0
SECTION
  2
HEADER
  9
$ANGBASE
  50
0.0
  9
$ANGDIR
  70
1
  9
$MEASUREMENT
  70
0
  0
ENDSEC
  0
SECTION
  2
TABLES
  0
TABLE
  2
LTYPE
  70
4
  0
LTYPE
  5
40F
  2
CONTINUOUS
  70
0
  3
Solid line
  72
65
  73
0
  40
0.0
  0
LTYPE
  5
410
  2
DASHDOT
 70
0
  3
Dash Dot ____ _ ____ _
 72
65
 73
4
 40
2.0
 49
1.25
 49
-0.25
 49
0.25
 49
-0.25
  0
LTYPE
  5
411
  2
DASHED
 70
0
  3
Dashed __ __ __ __ __
 72
65
 73
2
 40
0.75
 49
0.5
 49
-0.25
  0
LTYPE
  5
43B
  2
DOTTED
 70
0
  3
Dotted .  .  .  .
 72
65
 73
2
 40
0.2
 49
0.0
 49
-0.2
  0
ENDTAB
  0
TABLE
  2
STYLE
  70
4
  0
STYLE
  2
KICAD
  70
0
  40
0
  41
1
  42
1
  50
0
  71
0
  3
isocp.shx
  0
STYLE
  2
KICADB
  70
0
  40
0
  41
1
  42
1
  50
0
  71
0
  3
isocp.shx
  0
STYLE
  2
KICADI
  70
0
  40
0
  41
1
  42
1
  50
15
  71
0
  3
isocp.shx
  0
STYLE
  2
KICADBI
  70
0
  40
0
  41
1
  42
1
  50
15
  71
0
  3
isocp.shx
  0
ENDTAB
  0
TABLE
  2
LAYER
  70
1
  0
LAYER
  2
BLACK
  70
0
  62
7
  6
CONTINUOUS
  0
ENDTAB
  0
ENDSEC
  0
SECTION
  2
ENTITIES
0
LINE
8
BLACK
6
CONTINUOUS
10
3.00865
20
0.317793
11
3.02213
21
0.316018
0
LINE
8
BLACK
6
CONTINUOUS
10
3.02213
20
0.316018
11
3.03532
21
0.312706
0
LINE
8
BLACK
6
CONTINUOUS
10
3.03532
20
0.312706
11
3.04804
21
0.307899
0
LINE
8
BLACK
6
CONTINUOUS
10
3.04804
20
0.307899
11
3.06012
21
0.301662
0
LINE
8
BLACK
6
CONTINUOUS
10
3.06012
20
0.301662
11
3.07141
21
0.294078
0
LINE
8
BLACK
6
CONTINUOUS
10
3.07141
20
0.294078
11
3.08175
21
0.285247
0
LINE
8
BLACK
6
CONTINUOUS
10
3.08175
20
0.285247
11
3.09101
21
0.275286
0
LINE
8
BLACK
6
CONTINUOUS
10
3.09101
20
0.275286
11
3.09906
21
0.264327
0
LINE
8
BLACK
6
CONTINUOUS
10
3.09906
20
0.264327
11
3.10579
21
0.252516
0
LINE
8
BLACK
6
CONTINUOUS
10
3.10579
20
0.252516
11
3.11113
21
0.240008
0
LINE
8
BLACK
6
CONTINUOUS
10
3.11113
20
0.240008
11
3.11499
21
0.226971
0
LINE
8
BLACK
6
CONTINUOUS
10
3.11499
20
0.226971
11
3.11733
21
0.213575
0
LINE
8
BLACK
6
CONTINUOUS
10
3.11733
20
0.213575
11
3.11811
21
0.2
0
LINE
8
BLACK
6
CONTINUOUS
10
3.11811
20
0.2
11
3.11788
21
0.192584
0
LINE
8
BLACK
6
CONTINUOUS
10
3.11788
20
0.192584
11
3.11624
21
0.179084
0
LINE
8
BLACK
6
CONTINUOUS
10
3.11624
20
0.179084
11
3.11307
21
0.165862
0
LINE
8
BLACK
6
CONTINUOUS
10
3.11307
20
0.165862
11
3.1084
21
0.153093
0
LINE
8
BLACK
6
CONTINUOUS
10
3.1084
20
0.153093
11
3.10229
21
0.140945
0
LINE
8
BLACK
6
CONTINUOUS
10
3.10229
20
0.140945
11
3.09482
21
0.12958
0
LINE
8
BLACK
6
CONTINUOUS
10
3.09482
20
0.12958
11
3.0861
21
0.119148
0
LINE
8
BLACK
6
CONTINUOUS
10
3.0861
20
0.119148
11
3.07624
21
0.109788
0
LINE
8
BLACK
6
CONTINUOUS
10
3.07624
20
0.109788
11
3.06536
21
0.101623
0
LINE
8
BLACK
6
CONTINUOUS
10
3.06536
20
0.101623
11
3.05362
21
0.094763
0
LINE
8
BLACK
6
CONTINUOUS
10
3.05362
20
0.094763
11
3.04117
21
0.0892974
0
LINE
8
BLACK
6
CONTINUOUS
10
3.04117
20
0.0892974
11
3.02817
21
0.0852991
0
LINE
8
BLACK
6
CONTINUOUS
10
3.02817
20
0.0852991
11
3.0148
21
0.0828211
0
LINE
8
BLACK
6
CONTINUOUS
10
3.0148
20
0.0828211
11
3.00124
21
0.0818962
0
LINE
8
BLACK
6
CONTINUOUS
10
3.00124
20
0.0818962
11
2.98765
21
0.0825368
0
LINE
8
BLACK
6
CONTINUOUS
10
2.98765
20
0.0825368
11
2.97424
21
0.0847343
0
LINE
8
BLACK
6
CONTINUOUS
10
2.97424
20
0.0847343
11
2.96116
21
0.0884595
0
LINE
8
BLACK
6
CONTINUOUS
10
2.96116
20
0.0884595
11
2.94859
21
0.0936631
0
LINE
8
BLACK
6
CONTINUOUS
10
2.94859
20
0.0936631
11
2.93671
21
0.100276
0
LINE
8
BLACK
6
CONTINUOUS
10
2.93671
20
0.100276
11
2.92567
21
0.108211
0
LINE
8
BLACK
6
CONTINUOUS
10
2.92567
20
0.108211
11
2.91561
21
0.117363
0
LINE
8
BLACK
6
CONTINUOUS
10
2.91561
20
0.117363
11
2.90667
21
0.127609
0
LINE
8
BLACK
6
CONTINUOUS
10
2.90667
20
0.127609
11
2.89897
21
0.138816
0
LINE
8
BLACK
6
CONTINUOUS
10
2.89897
20
0.138816
11
2.89261
21
0.150833
0
LINE
8
BLACK
6
CONTINUOUS
10
2.89261
20
0.150833
11
2.88767
21
0.163502
0
LINE
8
BLACK
6
CONTINUOUS
10
2.88767
20
0.163502
11
2.88422
21
0.176655
0
LINE
8
BLACK
6
CONTINUOUS
10
2.88422
20
0.176655
11
2.8823
21
0.190117
0
LINE
8
BLACK
6
CONTINUOUS
10
2.8823
20
0.190117
11
2.88195
21
0.20371
0
LINE
8
BLACK
6
CONTINUOUS
10
2.88195
20
0.20371
11
2.88316
21
0.217254
0
LINE
8
BLACK
6
CONTINUOUS
10
2.88316
20
0.217254
11
2.88591
21
0.230569
0
LINE
8
BLACK
6
CONTINUOUS
10
2.88591
20
0.230569
11
2.89018
21
0.243479
0
LINE
8
BLACK
6
CONTINUOUS
10
2.89018
20
0.243479
11
2.89591
21
0.255813
0
LINE
8
BLACK
6
CONTINUOUS
10
2.89591
20
0.255813
11
2.90301
21
0.267407
0
LINE
8
BLACK
6
CONTINUOUS
10
2.90301
20
0.267407
11
2.9114
21
0.278108
0
LINE
8
BLACK
6
CONTINUOUS
10
2.9114
20
0.278108
11
2.92097
21
0.287773
0
LINE
8
BLACK
6
CONTINUOUS
10
2.92097
20
0.287773
11
2.93158
21
0.296275
0
LINE
8
BLACK
6
CONTINUOUS
10
2.93158
20
0.296275
11
2.9431
21
0.303501
0
LINE
8
BLACK
6
CONTINUOUS
10
2.9431
20
0.303501
11
2.95537
21
0.309355
0
LINE
8
BLACK
6
CONTINUOUS
10
2.95537
20
0.309355
11
2.96824
21
0.313759
0
LINE
8
BLACK
6
CONTINUOUS
10
2.96824
20
0.313759
11
2.98152
21
0.316656
0
LINE
8
BLACK
6
CONTINUOUS
10
2.98152
20
0.316656
11
2.99505
21
0.318007
0
LINE
8
BLACK
6
CONTINUOUS
10
2.99505
20
0.318007
11
3.00865
21
0.317793
0
LINE
8
BLACK
6
CONTINUOUS
10
0.20865
20
0.317793
11
0.222132
21
0.316018
0
LINE
8
BLACK
6
CONTINUOUS
10
0.222132
20
0.316018
11
0.23532
21
0.312706
0
LINE
8
BLACK
6
CONTINUOUS
10
0.23532
20
0.312706
11
0.24804
21
0.307899
0
LINE
8
BLACK
6
CONTINUOUS
10
0.24804
20
0.307899
11
0.260123
21
0.301662
0
LINE
8
BLACK
6
CONTINUOUS
10
0.260123
20
0.301662
11
0.271409
21
0.294078
0
LINE
8
BLACK
6
CONTINUOUS
10
0.271409
20
0.294078
11
0.281749
21
0.285247
0
LINE
8
BLACK
6
CONTINUOUS
10
0.281749
20
0.285247
11
0.291006
21
0.275286
0
LINE
8
BLACK
6
CONTINUOUS
10
0.291006
20
0.275286
11
0.299056
21
0.264327
0
LINE
8
BLACK
6
CONTINUOUS
10
0.299056
20
0.264327
11
0.305793
21
0.252516
0
LINE
8
BLACK
6
CONTINUOUS
10
0.305793
20
0.252516
11
0.311128
21
0.240008
0
LINE
8
BLACK
6
CONTINUOUS
10
0.311128
20
0.240008
11
0.31499
21
0.226971
0
LINE
8
BLACK
6
CONTINUOUS
10
0.31499
20
0.226971
11
0.317327
21
0.213575
0
LINE
8
BLACK
6
CONTINUOUS
10
0.317327
20
0.213575
11
0.31811
21
0.2
0
LINE
8
BLACK
6
CONTINUOUS
10
0.31811
20
0.2
11
0.317877
21
0.192584
0
LINE
8
BLACK
6
CONTINUOUS
10
0.317877
20
0.192584
11
0.316244
21
0.179084
0
LINE
8
BLACK
6
CONTINUOUS
10
0.316244
20
0.179084
11
0.313069
21
0.165862
0
LINE
8
BLACK
6
CONTINUOUS
10
0.313069
20
0.165862
11
0.308396
21
0.153093
0
LINE
8
BLACK
6
CONTINUOUS
10
0.308396
20
0.153093
11
0.302286
21
0.140945
0
LINE
8
BLACK
6
CONTINUOUS
10
0.302286
20
0.140945
11
0.294821
21
0.12958
0
LINE
8
BLACK
6
CONTINUOUS
10
0.294821
20
0.12958
11
0.286099
21
0.119148
0
LINE
8
BLACK
6
CONTINUOUS
10
0.286099
20
0.119148
11
0.276235
21
0.109788
0
LINE
8
BLACK
6
CONTINUOUS
10
0.276235
20
0.109788
11
0.265361
21
0.101623
0
LINE
8
BLACK
6
CONTINUOUS
10
0.265361
20
0.101623
11
0.253621
21
0.094763
0
LINE
8
BLACK
6
CONTINUOUS
10
0.253621
20
0.094763
11
0.24117
21
0.0892974
0
LINE
8
BLACK
6
CONTINUOUS
10
0.24117
20
0.0892974
11
0.228173
21
0.0852991
0
LINE
8
BLACK
6
CONTINUOUS
10
0.228173
20
0.0852991
11
0.214803
21
0.0828211
0
LINE
8
BLACK
6
CONTINUOUS
10
0.214803
20
0.0828211
11
0.201237
21
0.0818962
0
LINE
8
BLACK
6
CONTINUOUS
10
0.201237
20
0.0818962
11
0.187654
21
0.0825368
0
LINE
8
BLACK
6
CONTINUOUS
10
0.187654
20
0.0825368
11
0.174235
21
0.0847343
0
LINE
8
BLACK
6
CONTINUOUS
10
0.174235
20
0.0847343
11
0.161157
21
0.0884595
0
LINE
8
BLACK
6
CONTINUOUS
10
0.161157
20
0.0884595
11
0.148595
21
0.0936631
0
LINE
8
BLACK
6
CONTINUOUS
10
0.148595
20
0.0936631
11
0.136713
21
0.100276
0
LINE
8
BLACK
6
CONTINUOUS
10
0.136713
20
0.100276
11
0.125671
21
0.108211
0
LINE
8
BLACK
6
CONTINUOUS
10
0.125671
20
0.108211
11
0.115613
21
0.117363
0
LINE
8
BLACK
6
CONTINUOUS
10
0.115613
20
0.117363
11
0.106675
21
0.127609
0
LINE
8
BLACK
6
CONTINUOUS
10
0.106675
20
0.127609
11
0.0989727
21
0.138816
0
LINE
8
BLACK
6
CONTINUOUS
10
0.0989727
20
0.138816
11
0.0926099
21
0.150833
0
LINE
8
BLACK
6
CONTINUOUS
10
0.0926099
20
0.150833
11
0.0876705
21
0.163502
0
LINE
8
BLACK
6
CONTINUOUS
10
0.0876705
20
0.163502
11
0.0842199
21
0.176655
0
LINE
8
BLACK
6
CONTINUOUS
10
0.0842199
20
0.176655
11
0.082304
21
0.190117
0
LINE
8
BLACK
6
CONTINUOUS
10
0.082304
20
0.190117
11
0.081948
21
0.20371
0
LINE
8
BLACK
6
CONTINUOUS
10
0.081948
20
0.20371
11
0.0831568
21
0.217254
0
LINE
8
BLACK
6
CONTINUOUS
10
0.0831568
20
0.217254
11
0.0859143
21
0.230569
0
LINE
8
BLACK
6
CONTINUOUS
10
0.0859143
20
0.230569
11
0.0901839
21
0.243479
0
LINE
8
BLACK
6
CONTINUOUS
10
0.0901839
20
0.243479
11
0.0959091
21
0.255813
0
LINE
8
BLACK
6
CONTINUOUS
10
0.0959091
20
0.255813
11
0.103014
21
0.267407
0
LINE
8
BLACK
6
CONTINUOUS
10
0.103014
20
0.267407
11
0.111404
21
0.278108
0
LINE
8
BLACK
6
CONTINUOUS
10
0.111404
20
0.278108
11
0.120969
21
0.287773
0
LINE
8
BLACK
6
CONTINUOUS
10
0.120969
20
0.287773
11
0.131581
21
0.296275
0
LINE
8
BLACK
6
CONTINUOUS
10
0.131581
20
0.296275
11
0.1431
21
0.303501
0
LINE
8
BLACK
6
CONTINUOUS
10
0.1431
20
0.303501
11
0.155373
21
0.309355
0
LINE
8
BLACK
6
CONTINUOUS
10
0.155373
20
0.309355
11
0.168238
21
0.313759
0
LINE
8
BLACK
6
CONTINUOUS
10
0.168238
20
0.313759
11
0.181524
21
0.316656
0
LINE
8
BLACK
6
CONTINUOUS
10
0.181524
20
0.316656
11
0.195054
21
0.318007
0
LINE
8
BLACK
6
CONTINUOUS
10
0.195054
20
0.318007
11
0.20865
21
0.317793
0
LINE
8
BLACK
6
CONTINUOUS
10
0.20865
20
2.31779
11
0.222132
21
2.31602
0
LINE
8
BLACK
6
CONTINUOUS
10
0.222132
20
2.31602
11
0.23532
21
2.31271
0
LINE
8
BLACK
6
CONTINUOUS
10
0.23532
20
2.31271
11
0.24804
21
2.3079
0
LINE
8
BLACK
6
CONTINUOUS
10
0.24804
20
2.3079
11
0.260123
21
2.30166
0
LINE
8
BLACK
6
CONTINUOUS
10
0.260123
20
2.30166
11
0.271409
21
2.29408
0
LINE
8
BLACK
6
CONTINUOUS
10
0.271409
20
2.29408
11
0.281749
21
2.28525
0
LINE
8
BLACK
6
CONTINUOUS
10
0.281749
20
2.28525
11
0.291006
21
2.27529
0
LINE
8
BLACK
6
CONTINUOUS
10
0.291006
20
2.27529
11
0.299056
21
2.26433
0
LINE
8
BLACK
6
CONTINUOUS
10
0.299056
20
2.26433
11
0.305793
21
2.25252
0
LINE
8
BLACK
6
CONTINUOUS
10
0.305793
20
2.25252
11
0.311128
21
2.24001
0
LINE
8
BLACK
6
CONTINUOUS
10
0.311128
20
2.24001
11
0.31499
21
2.22697
0
LINE
8
BLACK
6
CONTINUOUS
10
0.31499
20
2.22697
11
0.317327
21
2.21358
0
LINE
8
BLACK
6
CONTINUOUS
10
0.317327
20
2.21358
11
0.31811
21
2.2
0
LINE
8
BLACK
6
CONTINUOUS
10
0.31811
20
2.2
11
0.317877
21
2.19258
0
LINE
8
BLACK
6
CONTINUOUS
10
0.317877
20
2.19258
11
0.316244
21
2.17908
0
LINE
8
BLACK
6
CONTINUOUS
10
0.316244
20
2.17908
11
0.313069
21
2.16586
0
LINE
8
BLACK
6
CONTINUOUS
10
0.313069
20
2.16586
11
0.308396
21
2.15309
0
LINE
8
BLACK
6
CONTINUOUS
10
0.308396
20
2.15309
11
0.302286
21
2.14094
0
LINE
8
BLACK
6
CONTINUOUS
10
0.302286
20
2.14094
11
0.294821
21
2.12958
0
LINE
8
BLACK
6
CONTINUOUS
10
0.294821
20
2.12958
11
0.286099
21
2.11915
0
LINE
8
BLACK
6
CONTINUOUS
10
0.286099
20
2.11915
11
0.276235
21
2.10979
0
LINE
8
BLACK
6
CONTINUOUS
10
0.276235
20
2.10979
11
0.265361
21
2.10162
0
LINE
8
BLACK
6
CONTINUOUS
10
0.265361
20
2.10162
11
0.253621
21
2.09476
0
LINE
8
BLACK
6
CONTINUOUS
10
0.253621
20
2.09476
11
0.24117
21
2.0893
0
LINE
8
BLACK
6
CONTINUOUS
10
0.24117
20
2.0893
11
0.228173
21
2.0853
0
LINE
8
BLACK
6
CONTINUOUS
10
0.228173
20
2.0853
11
0.214803
21
2.08282
0
LINE
8
BLACK
6
CONTINUOUS
10
0.214803
20
2.08282
11
0.201237
21
2.0819
0
LINE
8
BLACK
6
CONTINUOUS
10
0.201237
20
2.0819
11
0.187654
21
2.08254
0
LINE
8
BLACK
6
CONTINUOUS
10
0.187654
20
2.08254
11
0.174235
21
2.08473
0
LINE
8
BLACK
6
CONTINUOUS
10
0.174235
20
2.08473
11
0.161157
21
2.08846
0
LINE
8
BLACK
6
CONTINUOUS
10
0.161157
20
2.08846
11
0.148595
21
2.09366
0
LINE
8
BLACK
6
CONTINUOUS
10
0.148595
20
2.09366
11
0.136713
21
2.10028
0
LINE
8
BLACK
6
CONTINUOUS
10
0.136713
20
2.10028
11
0.125671
21
2.10821
0
LINE
8
BLACK
6
CONTINUOUS
10
0.125671
20
2.10821
11
0.115613
21
2.11736
0
LINE
8
BLACK
6
CONTINUOUS
10
0.115613
20
2.11736
11
0.106675
21
2.12761
0
LINE
8
BLACK
6
CONTINUOUS
10
0.106675
20
2.12761
11
0.0989727
21
2.13882
0
LINE
8
BLACK
6
CONTINUOUS
10
0.0989727
20
2.13882
11
0.0926099
21
2.15083
0
LINE
8
BLACK
6
CONTINUOUS
10
0.0926099
20
2.15083
11
0.0876705
21
2.1635
0
LINE
8
BLACK
6
CONTINUOUS
10
0.0876705
20
2.1635
11
0.0842199
21
2.17665
0
LINE
8
BLACK
6
CONTINUOUS
10
0.0842199
20
2.17665
11
0.082304
21
2.19012
0
LINE
8
BLACK
6
CONTINUOUS
10
0.082304
20
2.19012
11
0.081948
21
2.20371
0
LINE
8
BLACK
6
CONTINUOUS
10
0.081948
20
2.20371
11
0.0831568
21
2.21725
0
LINE
8
BLACK
6
CONTINUOUS
10
0.0831568
20
2.21725
11
0.0859143
21
2.23057
0
LINE
8
BLACK
6
CONTINUOUS
10
0.0859143
20
2.23057
11
0.0901839
21
2.24348
0
LINE
8
BLACK
6
CONTINUOUS
10
0.0901839
20
2.24348
11
0.0959091
21
2.25581
0
LINE
8
BLACK
6
CONTINUOUS
10
0.0959091
20
2.25581
11
0.103014
21
2.26741
0
LINE
8
BLACK
6
CONTINUOUS
10
0.103014
20
2.26741
11
0.111404
21
2.27811
0
LINE
8
BLACK
6
CONTINUOUS
10
0.111404
20
2.27811
11
0.120969
21
2.28777
0
LINE
8
BLACK
6
CONTINUOUS
10
0.120969
20
2.28777
11
0.131581
21
2.29627
0
LINE
8
BLACK
6
CONTINUOUS
10
0.131581
20
2.29627
11
0.1431
21
2.3035
0
LINE
8
BLACK
6
CONTINUOUS
10
0.1431
20
2.3035
11
0.155373
21
2.30935
0
LINE
8
BLACK
6
CONTINUOUS
10
0.155373
20
2.30935
11
0.168238
21
2.31376
0
LINE
8
BLACK
6
CONTINUOUS
10
0.168238
20
2.31376
11
0.181524
21
2.31666
0
LINE
8
BLACK
6
CONTINUOUS
10
0.181524
20
2.31666
11
0.195054
21
2.31801
0
LINE
8
BLACK
6
CONTINUOUS
10
0.195054
20
2.31801
11
0.20865
21
2.31779
0
LINE
8
BLACK
6
CONTINUOUS
10
3.00865
20
2.31779
11
3.02213
21
2.31602
0
LINE
8
BLACK
6
CONTINUOUS
10
3.02213
20
2.31602
11
3.03532
21
2.31271
0
LINE
8
BLACK
6
CONTINUOUS
10
3.03532
20
2.31271
11
3.04804
21
2.3079
0
LINE
8
BLACK
6
CONTINUOUS
10
3.04804
20
2.3079
11
3.06012
21
2.30166
0
LINE
8
BLACK
6
CONTINUOUS
10
3.06012
20
2.30166
11
3.07141
21
2.29408
0
LINE
8
BLACK
6
CONTINUOUS
10
3.07141
20
2.29408
11
3.08175
21
2.28525
0
LINE
8
BLACK
6
CONTINUOUS
10
3.08175
20
2.28525
11
3.09101
21
2.27529
0
LINE
8
BLACK
6
CONTINUOUS
10
3.09101
20
2.27529
11
3.09906
21
2.26433
0
LINE
8
BLACK
6
CONTINUOUS
10
3.09906
20
2.26433
11
3.10579
21
2.25252
0
LINE
8
BLACK
6
CONTINUOUS
10
3.10579
20
2.25252
11
3.11113
21
2.24001
0
LINE
8
BLACK
6
CONTINUOUS
10
3.11113
20
2.24001
11
3.11499
21
2.22697
0
LINE
8
BLACK
6
CONTINUOUS
10
3.11499
20
2.22697
11
3.11733
21
2.21358
0
LINE
8
BLACK
6
CONTINUOUS
10
3.11733
20
2.21358
11
3.11811
21
2.2
0
LINE
8
BLACK
6
CONTINUOUS
10
3.11811
20
2.2
11
3.11788
21
2.19258
0
LINE
8
BLACK
6
CONTINUOUS
10
3.11788
20
2.19258
11
3.11624
21
2.17908
0
LINE
8
BLACK
6
CONTINUOUS
10
3.11624
20
2.17908
11
3.11307
21
2.16586
0
LINE
8
BLACK
6
CONTINUOUS
10
3.11307
20
2.16586
11
3.1084
21
2.15309
0
LINE
8
BLACK
6
CONTINUOUS
10
3.1084
20
2.15309
11
3.10229
21
2.14094
0
LINE
8
BLACK
6
CONTINUOUS
10
3.10229
20
2.14094
11
3.09482
21
2.12958
0
LINE
8
BLACK
6
CONTINUOUS
10
3.09482
20
2.12958
11
3.0861
21
2.11915
0
LINE
8
BLACK
6
CONTINUOUS
10
3.0861
20
2.11915
11
3.07624
21
2.10979
0
LINE
8
BLACK
6
CONTINUOUS
10
3.07624
20
2.10979
11
3.06536
21
2.10162
0
LINE
8
BLACK
6
CONTINUOUS
10
3.06536
20
2.10162
11
3.05362
21
2.09476
0
LINE
8
BLACK
6
CONTINUOUS
10
3.05362
20
2.09476
11
3.04117
21
2.0893
0
LINE
8
BLACK
6
CONTINUOUS
10
3.04117
20
2.0893
11
3.02817
21
2.0853
0
LINE
8
BLACK
6
CONTINUOUS
10
3.02817
20
2.0853
11
3.0148
21
2.08282
0
LINE
8
BLACK
6
CONTINUOUS
10
3.0148
20
2.08282
11
3.00124
21
2.0819
0
LINE
8
BLACK
6
CONTINUOUS
10
3.00124
20
2.0819
11
2.98765
21
2.08254
0
LINE
8
BLACK
6
CONTINUOUS
10
2.98765
20
2.08254
11
2.97424
21
2.08473
0
LINE
8
BLACK
6
CONTINUOUS
10
2.97424
20
2.08473
11
2.96116
21
2.08846
0
LINE
8
BLACK
6
CONTINUOUS
10
2.96116
20
2.08846
11
2.94859
21
2.09366
0
LINE
8
BLACK
6
CONTINUOUS
10
2.94859
20
2.09366
11
2.93671
21
2.10028
0
LINE
8
BLACK
6
CONTINUOUS
10
2.93671
20
2.10028
11
2.92567
21
2.10821
0
LINE
8
BLACK
6
CONTINUOUS
10
2.92567
20
2.10821
11
2.91561
21
2.11736
0
LINE
8
BLACK
6
CONTINUOUS
10
2.91561
20
2.11736
11
2.90667
21
2.12761
0
LINE
8
BLACK
6
CONTINUOUS
10
2.90667
20
2.12761
11
2.89897
21
2.13882
0
LINE
8
BLACK
6
CONTINUOUS
10
2.89897
20
2.13882
11
2.89261
21
2.15083
0
LINE
8
BLACK
6
CONTINUOUS
10
2.89261
20
2.15083
11
2.88767
21
2.1635
0
LINE
8
BLACK
6
CONTINUOUS
10
2.88767
20
2.1635
11
2.88422
21
2.17665
0
LINE
8
BLACK
6
CONTINUOUS
10
2.88422
20
2.17665
11
2.8823
21
2.19012
0
LINE
8
BLACK
6
CONTINUOUS
10
2.8823
20
2.19012
11
2.88195
21
2.20371
0
LINE
8
BLACK
6
CONTINUOUS
10
2.88195
20
2.20371
11
2.88316
21
2.21725
0
LINE
8
BLACK
6
CONTINUOUS
10
2.88316
20
2.21725
11
2.88591
21
2.23057
0
LINE
8
BLACK
6
CONTINUOUS
10
2.88591
20
2.23057
11
2.89018
21
2.24348
0
LINE
8
BLACK
6
CONTINUOUS
10
2.89018
20
2.24348
11
2.89591
21
2.25581
0
LINE
8
BLACK
6
CONTINUOUS
10
2.89591
20
2.25581
11
2.90301
21
2.26741
0
LINE
8
BLACK
6
CONTINUOUS
10
2.90301
20
2.26741
11
2.9114
21
2.27811
0
LINE
8
BLACK
6
CONTINUOUS
10
2.9114
20
2.27811
11
2.92097
21
2.28777
0
LINE
8
BLACK
6
CONTINUOUS
10
2.92097
20
2.28777
11
2.93158
21
2.29627
0
LINE
8
BLACK
6
CONTINUOUS
10
2.93158
20
2.29627
11
2.9431
21
2.3035
0
LINE
8
BLACK
6
CONTINUOUS
10
2.9431
20
2.3035
11
2.95537
21
2.30935
0
LINE
8
BLACK
6
CONTINUOUS
10
2.95537
20
2.30935
11
2.96824
21
2.31376
0
LINE
8
BLACK
6
CONTINUOUS
10
2.96824
20
2.31376
11
2.98152
21
2.31666
0
LINE
8
BLACK
6
CONTINUOUS
10
2.98152
20
2.31666
11
2.99505
21
2.31801
0
LINE
8
BLACK
6
CONTINUOUS
10
2.99505
20
2.31801
11
3.00865
21
2.31779
  0
ENDSEC
  0
EOF
