  0
SECTION
  2
HEADER
  9
$ANGBASE
  50
0.0
  9
$ANGDIR
  70
1
  9
$MEASUREMENT
  70
0
  0
ENDSEC
  0
SECTION
  2
TABLES
  0
TABLE
  2
LTYPE
  70
4
  0
LTYPE
  5
40F
  2
CONTINUOUS
  70
0
  3
Solid line
  72
65
  73
0
  40
0.0
  0
LTYPE
  5
410
  2
DASHDOT
 70
0
  3
Dash Dot ____ _ ____ _
 72
65
 73
4
 40
2.0
 49
1.25
 49
-0.25
 49
0.25
 49
-0.25
  0
LTYPE
  5
411
  2
DASHED
 70
0
  3
Dashed __ __ __ __ __
 72
65
 73
2
 40
0.75
 49
0.5
 49
-0.25
  0
LTYPE
  5
43B
  2
DOTTED
 70
0
  3
Dotted .  .  .  .
 72
65
 73
2
 40
0.2
 49
0.0
 49
-0.2
  0
ENDTAB
  0
TABLE
  2
STYLE
  70
4
  0
STYLE
  2
KICAD
  70
0
  40
0
  41
1
  42
1
  50
0
  71
0
  3
isocp.shx
  0
STYLE
  2
KICADB
  70
0
  40
0
  41
1
  42
1
  50
0
  71
0
  3
isocp.shx
  0
STYLE
  2
KICADI
  70
0
  40
0
  41
1
  42
1
  50
15
  71
0
  3
isocp.shx
  0
STYLE
  2
KICADBI
  70
0
  40
0
  41
1
  42
1
  50
15
  71
0
  3
isocp.shx
  0
ENDTAB
  0
TABLE
  2
LAYER
  70
1
  0
LAYER
  2
BLACK
  70
0
  62
7
  6
CONTINUOUS
  0
ENDTAB
  0
ENDSEC
  0
SECTION
  2
ENTITIES
0
LINE
8
BLACK
6
CONTINUOUS
10
0.2205096456692913
20
0.3163158661417323
11
0.2338744094488189
21
0.3131483858267716
0
LINE
8
BLACK
6
CONTINUOUS
10
0.2338744094488189
20
0.3131483858267716
11
0.246781062992126
21
0.3084507086614173
0
LINE
8
BLACK
6
CONTINUOUS
10
0.246781062992126
20
0.3084507086614173
11
0.2590551181102362
21
0.3022864566929134
0
LINE
8
BLACK
6
CONTINUOUS
10
0.2590551181102362
20
0.3022864566929134
11
0.2705305511811024
21
0.2947389763779528
0
LINE
8
BLACK
6
CONTINUOUS
10
0.2705305511811024
20
0.2947389763779528
11
0.2810521653543307
21
0.2859102755905512
0
LINE
8
BLACK
6
CONTINUOUS
10
0.2810521653543307
20
0.2859102755905512
11
0.2904776771653543
21
0.2759198031496063
0
LINE
8
BLACK
6
CONTINUOUS
10
0.2904776771653543
20
0.2759198031496063
11
0.2986796456692913
21
0.2649026377952756
0
LINE
8
BLACK
6
CONTINUOUS
10
0.2986796456692913
20
0.2649026377952756
11
0.3055471653543307
21
0.2530077952755905
0
LINE
8
BLACK
6
CONTINUOUS
10
0.3055471653543307
20
0.2530077952755905
11
0.3109873228346456
21
0.240396062992126
0
LINE
8
BLACK
6
CONTINUOUS
10
0.3109873228346456
20
0.240396062992126
11
0.3149265748031496
21
0.2272381102362205
0
LINE
8
BLACK
6
CONTINUOUS
10
0.3149265748031496
20
0.2272381102362205
11
0.3173116141732283
21
0.2137117716535433
0
LINE
8
BLACK
6
CONTINUOUS
10
0.3173116141732283
20
0.2137117716535433
11
0.3181102362204724
21
0.2
0
LINE
8
BLACK
6
CONTINUOUS
10
0.3181102362204724
20
0.2
11
0.3173116141732283
21
0.1862882283464567
0
LINE
8
BLACK
6
CONTINUOUS
10
0.3173116141732283
20
0.1862882283464567
11
0.3149265748031496
21
0.1727618897637795
0
LINE
8
BLACK
6
CONTINUOUS
10
0.3149265748031496
20
0.1727618897637795
11
0.3109873228346456
21
0.159603937007874
0
LINE
8
BLACK
6
CONTINUOUS
10
0.3109873228346456
20
0.159603937007874
11
0.3055471653543307
21
0.1469922047244094
0
LINE
8
BLACK
6
CONTINUOUS
10
0.3055471653543307
20
0.1469922047244094
11
0.2986796456692913
21
0.1350973622047244
0
LINE
8
BLACK
6
CONTINUOUS
10
0.2986796456692913
20
0.1350973622047244
11
0.2904776771653543
21
0.1240801968503937
0
LINE
8
BLACK
6
CONTINUOUS
10
0.2904776771653543
20
0.1240801968503937
11
0.2810521653543307
21
0.1140897244094488
0
LINE
8
BLACK
6
CONTINUOUS
10
0.2810521653543307
20
0.1140897244094488
11
0.2705305511811024
21
0.1052610236220472
0
LINE
8
BLACK
6
CONTINUOUS
10
0.2705305511811024
20
0.1052610236220472
11
0.2590551181102362
21
0.0977135433070866
0
LINE
8
BLACK
6
CONTINUOUS
10
0.2590551181102362
20
0.0977135433070866
11
0.246781062992126
21
0.0915492913385827
0
LINE
8
BLACK
6
CONTINUOUS
10
0.246781062992126
20
0.0915492913385827
11
0.2338744094488189
21
0.0868516141732283
0
LINE
8
BLACK
6
CONTINUOUS
10
0.2338744094488189
20
0.0868516141732283
11
0.2205096456692913
21
0.0836841338582677
0
LINE
8
BLACK
6
CONTINUOUS
10
0.2205096456692913
20
0.0836841338582677
11
0.2068674803149606
21
0.0820896062992126
0
LINE
8
BLACK
6
CONTINUOUS
10
0.2068674803149606
20
0.0820896062992126
11
0.1931325196850394
21
0.0820896062992126
0
LINE
8
BLACK
6
CONTINUOUS
10
0.1931325196850394
20
0.0820896062992126
11
0.1794903543307086
21
0.0836841338582677
0
LINE
8
BLACK
6
CONTINUOUS
10
0.1794903543307086
20
0.0836841338582677
11
0.1661255905511811
21
0.0868516141732283
0
LINE
8
BLACK
6
CONTINUOUS
10
0.1661255905511811
20
0.0868516141732283
11
0.153218937007874
21
0.0915492913385827
0
LINE
8
BLACK
6
CONTINUOUS
10
0.153218937007874
20
0.0915492913385827
11
0.1409448818897638
21
0.0977135433070866
0
LINE
8
BLACK
6
CONTINUOUS
10
0.1409448818897638
20
0.0977135433070866
11
0.1294694488188976
21
0.1052610236220472
0
LINE
8
BLACK
6
CONTINUOUS
10
0.1294694488188976
20
0.1052610236220472
11
0.1189478346456693
21
0.1140897244094488
0
LINE
8
BLACK
6
CONTINUOUS
10
0.1189478346456693
20
0.1140897244094488
11
0.1095223228346457
21
0.1240801968503937
0
LINE
8
BLACK
6
CONTINUOUS
10
0.1095223228346457
20
0.1240801968503937
11
0.1013203543307087
21
0.1350973622047244
0
LINE
8
BLACK
6
CONTINUOUS
10
0.1013203543307087
20
0.1350973622047244
11
0.0944528346456693
21
0.1469922047244094
0
LINE
8
BLACK
6
CONTINUOUS
10
0.0944528346456693
20
0.1469922047244094
11
0.0890126771653543
21
0.159603937007874
0
LINE
8
BLACK
6
CONTINUOUS
10
0.0890126771653543
20
0.159603937007874
11
0.0850734251968504
21
0.1727618897637795
0
LINE
8
BLACK
6
CONTINUOUS
10
0.0850734251968504
20
0.1727618897637795
11
0.0826883858267717
21
0.1862882283464567
0
LINE
8
BLACK
6
CONTINUOUS
10
0.0826883858267717
20
0.1862882283464567
11
0.0818897637795276
21
0.2
0
LINE
8
BLACK
6
CONTINUOUS
10
0.0818897637795276
20
0.2
11
0.0826883858267717
21
0.2137117716535433
0
LINE
8
BLACK
6
CONTINUOUS
10
0.0826883858267717
20
0.2137117716535433
11
0.0850734251968504
21
0.2272381102362205
0
LINE
8
BLACK
6
CONTINUOUS
10
0.0850734251968504
20
0.2272381102362205
11
0.0890126771653543
21
0.240396062992126
0
LINE
8
BLACK
6
CONTINUOUS
10
0.0890126771653543
20
0.240396062992126
11
0.0944528346456693
21
0.2530077952755905
0
LINE
8
BLACK
6
CONTINUOUS
10
0.0944528346456693
20
0.2530077952755905
11
0.1013203543307087
21
0.2649026377952756
0
LINE
8
BLACK
6
CONTINUOUS
10
0.1013203543307087
20
0.2649026377952756
11
0.1095223228346457
21
0.2759198031496063
0
LINE
8
BLACK
6
CONTINUOUS
10
0.1095223228346457
20
0.2759198031496063
11
0.1189478346456693
21
0.2859102755905512
0
LINE
8
BLACK
6
CONTINUOUS
10
0.1189478346456693
20
0.2859102755905512
11
0.1294694488188976
21
0.2947389763779528
0
LINE
8
BLACK
6
CONTINUOUS
10
0.1294694488188976
20
0.2947389763779528
11
0.1409448818897638
21
0.3022864566929134
0
LINE
8
BLACK
6
CONTINUOUS
10
0.1409448818897638
20
0.3022864566929134
11
0.153218937007874
21
0.3084507086614173
0
LINE
8
BLACK
6
CONTINUOUS
10
0.153218937007874
20
0.3084507086614173
11
0.1661255905511811
21
0.3131483858267716
0
LINE
8
BLACK
6
CONTINUOUS
10
0.1661255905511811
20
0.3131483858267716
11
0.1794903543307086
21
0.3163158661417323
0
LINE
8
BLACK
6
CONTINUOUS
10
0.1794903543307086
20
0.3163158661417323
11
0.1931325196850394
21
0.3179103937007874
0
LINE
8
BLACK
6
CONTINUOUS
10
0.1931325196850394
20
0.3179103937007874
11
0.2068674803149606
21
0.3179103937007874
0
LINE
8
BLACK
6
CONTINUOUS
10
0.2068674803149606
20
0.3179103937007874
11
0.2205096456692913
21
0.3163158661417323
0
LINE
8
BLACK
6
CONTINUOUS
10
3.0205096456692915
20
0.3163158661417323
11
3.0338744094488188
21
0.3131483858267716
0
LINE
8
BLACK
6
CONTINUOUS
10
3.0338744094488188
20
0.3131483858267716
11
3.0467810629921259
21
0.3084507086614173
0
LINE
8
BLACK
6
CONTINUOUS
10
3.0467810629921259
20
0.3084507086614173
11
3.0590551181102361
21
0.3022864566929134
0
LINE
8
BLACK
6
CONTINUOUS
10
3.0590551181102361
20
0.3022864566929134
11
3.0705305511811023
21
0.2947389763779528
0
LINE
8
BLACK
6
CONTINUOUS
10
3.0705305511811023
20
0.2947389763779528
11
3.0810521653543308
21
0.2859102755905512
0
LINE
8
BLACK
6
CONTINUOUS
10
3.0810521653543308
20
0.2859102755905512
11
3.0904776771653544
21
0.2759198031496063
0
LINE
8
BLACK
6
CONTINUOUS
10
3.0904776771653544
20
0.2759198031496063
11
3.0986796456692911
21
0.2649026377952756
0
LINE
8
BLACK
6
CONTINUOUS
10
3.0986796456692911
20
0.2649026377952756
11
3.1055471653543307
21
0.2530077952755905
0
LINE
8
BLACK
6
CONTINUOUS
10
3.1055471653543307
20
0.2530077952755905
11
3.1109873228346454
21
0.240396062992126
0
LINE
8
BLACK
6
CONTINUOUS
10
3.1109873228346454
20
0.240396062992126
11
3.1149265748031496
21
0.2272381102362205
0
LINE
8
BLACK
6
CONTINUOUS
10
3.1149265748031496
20
0.2272381102362205
11
3.1173116141732282
21
0.2137117716535433
0
LINE
8
BLACK
6
CONTINUOUS
10
3.1173116141732282
20
0.2137117716535433
11
3.1181102362204722
21
0.2
0
LINE
8
BLACK
6
CONTINUOUS
10
3.1181102362204722
20
0.2
11
3.1173116141732282
21
0.1862882283464567
0
LINE
8
BLACK
6
CONTINUOUS
10
3.1173116141732282
20
0.1862882283464567
11
3.1149265748031496
21
0.1727618897637795
0
LINE
8
BLACK
6
CONTINUOUS
10
3.1149265748031496
20
0.1727618897637795
11
3.1109873228346454
21
0.159603937007874
0
LINE
8
BLACK
6
CONTINUOUS
10
3.1109873228346454
20
0.159603937007874
11
3.1055471653543307
21
0.1469922047244094
0
LINE
8
BLACK
6
CONTINUOUS
10
3.1055471653543307
20
0.1469922047244094
11
3.0986796456692911
21
0.1350973622047244
0
LINE
8
BLACK
6
CONTINUOUS
10
3.0986796456692911
20
0.1350973622047244
11
3.0904776771653544
21
0.1240801968503937
0
LINE
8
BLACK
6
CONTINUOUS
10
3.0904776771653544
20
0.1240801968503937
11
3.0810521653543308
21
0.1140897244094488
0
LINE
8
BLACK
6
CONTINUOUS
10
3.0810521653543308
20
0.1140897244094488
11
3.0705305511811023
21
0.1052610236220472
0
LINE
8
BLACK
6
CONTINUOUS
10
3.0705305511811023
20
0.1052610236220472
11
3.0590551181102361
21
0.0977135433070866
0
LINE
8
BLACK
6
CONTINUOUS
10
3.0590551181102361
20
0.0977135433070866
11
3.0467810629921259
21
0.0915492913385827
0
LINE
8
BLACK
6
CONTINUOUS
10
3.0467810629921259
20
0.0915492913385827
11
3.0338744094488188
21
0.0868516141732283
0
LINE
8
BLACK
6
CONTINUOUS
10
3.0338744094488188
20
0.0868516141732283
11
3.0205096456692915
21
0.0836841338582677
0
LINE
8
BLACK
6
CONTINUOUS
10
3.0205096456692915
20
0.0836841338582677
11
3.0068674803149604
21
0.0820896062992126
0
LINE
8
BLACK
6
CONTINUOUS
10
3.0068674803149604
20
0.0820896062992126
11
2.9931325196850391
21
0.0820896062992126
0
LINE
8
BLACK
6
CONTINUOUS
10
2.9931325196850391
20
0.0820896062992126
11
2.9794903543307085
21
0.0836841338582677
0
LINE
8
BLACK
6
CONTINUOUS
10
2.9794903543307085
20
0.0836841338582677
11
2.9661255905511812
21
0.0868516141732283
0
LINE
8
BLACK
6
CONTINUOUS
10
2.9661255905511812
20
0.0868516141732283
11
2.9532189370078741
21
0.0915492913385827
0
LINE
8
BLACK
6
CONTINUOUS
10
2.9532189370078741
20
0.0915492913385827
11
2.9409448818897639
21
0.0977135433070866
0
LINE
8
BLACK
6
CONTINUOUS
10
2.9409448818897639
20
0.0977135433070866
11
2.9294694488188977
21
0.1052610236220472
0
LINE
8
BLACK
6
CONTINUOUS
10
2.9294694488188977
20
0.1052610236220472
11
2.9189478346456692
21
0.1140897244094488
0
LINE
8
BLACK
6
CONTINUOUS
10
2.9189478346456692
20
0.1140897244094488
11
2.9095223228346456
21
0.1240801968503937
0
LINE
8
BLACK
6
CONTINUOUS
10
2.9095223228346456
20
0.1240801968503937
11
2.9013203543307085
21
0.1350973622047244
0
LINE
8
BLACK
6
CONTINUOUS
10
2.9013203543307085
20
0.1350973622047244
11
2.8944528346456693
21
0.1469922047244094
0
LINE
8
BLACK
6
CONTINUOUS
10
2.8944528346456693
20
0.1469922047244094
11
2.8890126771653541
21
0.159603937007874
0
LINE
8
BLACK
6
CONTINUOUS
10
2.8890126771653541
20
0.159603937007874
11
2.8850734251968504
21
0.1727618897637795
0
LINE
8
BLACK
6
CONTINUOUS
10
2.8850734251968504
20
0.1727618897637795
11
2.8826883858267718
21
0.1862882283464567
0
LINE
8
BLACK
6
CONTINUOUS
10
2.8826883858267718
20
0.1862882283464567
11
2.8818897637795273
21
0.2
0
LINE
8
BLACK
6
CONTINUOUS
10
2.8818897637795273
20
0.2
11
2.8826883858267718
21
0.2137117716535433
0
LINE
8
BLACK
6
CONTINUOUS
10
2.8826883858267718
20
0.2137117716535433
11
2.8850734251968504
21
0.2272381102362205
0
LINE
8
BLACK
6
CONTINUOUS
10
2.8850734251968504
20
0.2272381102362205
11
2.8890126771653541
21
0.240396062992126
0
LINE
8
BLACK
6
CONTINUOUS
10
2.8890126771653541
20
0.240396062992126
11
2.8944528346456693
21
0.2530077952755905
0
LINE
8
BLACK
6
CONTINUOUS
10
2.8944528346456693
20
0.2530077952755905
11
2.9013203543307085
21
0.2649026377952756
0
LINE
8
BLACK
6
CONTINUOUS
10
2.9013203543307085
20
0.2649026377952756
11
2.9095223228346456
21
0.2759198031496063
0
LINE
8
BLACK
6
CONTINUOUS
10
2.9095223228346456
20
0.2759198031496063
11
2.9189478346456692
21
0.2859102755905512
0
LINE
8
BLACK
6
CONTINUOUS
10
2.9189478346456692
20
0.2859102755905512
11
2.9294694488188977
21
0.2947389763779528
0
LINE
8
BLACK
6
CONTINUOUS
10
2.9294694488188977
20
0.2947389763779528
11
2.9409448818897639
21
0.3022864566929134
0
LINE
8
BLACK
6
CONTINUOUS
10
2.9409448818897639
20
0.3022864566929134
11
2.9532189370078741
21
0.3084507086614173
0
LINE
8
BLACK
6
CONTINUOUS
10
2.9532189370078741
20
0.3084507086614173
11
2.9661255905511812
21
0.3131483858267716
0
LINE
8
BLACK
6
CONTINUOUS
10
2.9661255905511812
20
0.3131483858267716
11
2.9794903543307085
21
0.3163158661417323
0
LINE
8
BLACK
6
CONTINUOUS
10
2.9794903543307085
20
0.3163158661417323
11
2.9931325196850391
21
0.3179103937007874
0
LINE
8
BLACK
6
CONTINUOUS
10
2.9931325196850391
20
0.3179103937007874
11
3.0068674803149604
21
0.3179103937007874
0
LINE
8
BLACK
6
CONTINUOUS
10
3.0068674803149604
20
0.3179103937007874
11
3.0205096456692915
21
0.3163158661417323
0
LINE
8
BLACK
6
CONTINUOUS
10
0.7348358661417322
20
1.5148833070866141
11
0.7391983858267717
21
1.5126605118110237
0
LINE
8
BLACK
6
CONTINUOUS
10
0.7391983858267717
20
1.5126605118110237
11
0.7426605118110237
21
1.5091983858267717
0
LINE
8
BLACK
6
CONTINUOUS
10
0.7426605118110237
20
1.5091983858267717
11
0.7448833070866142
21
1.5048358661417323
0
LINE
8
BLACK
6
CONTINUOUS
10
0.7448833070866142
20
1.5048358661417323
11
0.745649251968504
21
1.5
0
LINE
8
BLACK
6
CONTINUOUS
10
0.745649251968504
20
1.5
11
0.7448833070866142
21
1.4951641338582677
0
LINE
8
BLACK
6
CONTINUOUS
10
0.7448833070866142
20
1.4951641338582677
11
0.7426605118110237
21
1.4908016141732283
0
LINE
8
BLACK
6
CONTINUOUS
10
0.7426605118110237
20
1.4908016141732283
11
0.7391983858267717
21
1.4873394881889763
0
LINE
8
BLACK
6
CONTINUOUS
10
0.7391983858267717
20
1.4873394881889763
11
0.7348358661417322
21
1.4851166929133859
0
LINE
8
BLACK
6
CONTINUOUS
10
0.7348358661417322
20
1.4851166929133859
11
0.73
21
1.4843507480314961
0
LINE
8
BLACK
6
CONTINUOUS
10
0.73
20
1.4843507480314961
11
0.7251641338582677
21
1.4851166929133859
0
LINE
8
BLACK
6
CONTINUOUS
10
0.7251641338582677
20
1.4851166929133859
11
0.7208016141732283
21
1.4873394881889763
0
LINE
8
BLACK
6
CONTINUOUS
10
0.7208016141732283
20
1.4873394881889763
11
0.7173394881889764
21
1.4908016141732283
0
LINE
8
BLACK
6
CONTINUOUS
10
0.7173394881889764
20
1.4908016141732283
11
0.7151166929133859
21
1.4951641338582677
0
LINE
8
BLACK
6
CONTINUOUS
10
0.7151166929133859
20
1.4951641338582677
11
0.714350748031496
21
1.5
0
LINE
8
BLACK
6
CONTINUOUS
10
0.714350748031496
20
1.5
11
0.7151166929133859
21
1.5048358661417323
0
LINE
8
BLACK
6
CONTINUOUS
10
0.7151166929133859
20
1.5048358661417323
11
0.7173394881889764
21
1.5091983858267717
0
LINE
8
BLACK
6
CONTINUOUS
10
0.7173394881889764
20
1.5091983858267717
11
0.7208016141732283
21
1.5126605118110237
0
LINE
8
BLACK
6
CONTINUOUS
10
0.7208016141732283
20
1.5126605118110237
11
0.7251641338582677
21
1.5148833070866141
0
LINE
8
BLACK
6
CONTINUOUS
10
0.7251641338582677
20
1.5148833070866141
11
0.73
21
1.5156492519685039
0
LINE
8
BLACK
6
CONTINUOUS
10
0.73
20
1.5156492519685039
11
0.7348358661417322
21
1.5148833070866141
0
LINE
8
BLACK
6
CONTINUOUS
10
0.7295030708661417
20
1.4995030708661417
11
0.73
21
1.4992972440944881
0
LINE
8
BLACK
6
CONTINUOUS
10
0.73
20
1.4992972440944881
11
0.7304969291338582
21
1.4995030708661417
0
LINE
8
BLACK
6
CONTINUOUS
10
0.7304969291338582
20
1.4995030708661417
11
0.7307027559055118
21
1.5
0
LINE
8
BLACK
6
CONTINUOUS
10
0.7307027559055118
20
1.5
11
0.7304969291338582
21
1.5004969291338581
0
LINE
8
BLACK
6
CONTINUOUS
10
0.7304969291338582
20
1.5004969291338581
11
0.73
21
1.5007027559055117
0
LINE
8
BLACK
6
CONTINUOUS
10
0.73
20
1.5007027559055117
11
0.7295030708661417
21
1.5004969291338581
0
LINE
8
BLACK
6
CONTINUOUS
10
0.7295030708661417
20
1.5004969291338581
11
0.7292972440944882
21
1.5
0
LINE
8
BLACK
6
CONTINUOUS
10
0.7292972440944882
20
1.5
11
0.7295030708661417
21
1.4995030708661417
0
LINE
8
BLACK
6
CONTINUOUS
10
0.4661358661417322
20
1.9548833070866141
11
0.4704983858267717
21
1.9526605118110236
0
LINE
8
BLACK
6
CONTINUOUS
10
0.4704983858267717
20
1.9526605118110236
11
0.4739605118110236
21
1.9491983858267716
0
LINE
8
BLACK
6
CONTINUOUS
10
0.4739605118110236
20
1.9491983858267716
11
0.4761833070866142
21
1.9448358661417322
0
LINE
8
BLACK
6
CONTINUOUS
10
0.4761833070866142
20
1.9448358661417322
11
0.4769492519685039
21
1.9399999999999999
0
LINE
8
BLACK
6
CONTINUOUS
10
0.4769492519685039
20
1.9399999999999999
11
0.4761833070866142
21
1.9351641338582677
0
LINE
8
BLACK
6
CONTINUOUS
10
0.4761833070866142
20
1.9351641338582677
11
0.4739605118110236
21
1.9308016141732283
0
LINE
8
BLACK
6
CONTINUOUS
10
0.4739605118110236
20
1.9308016141732283
11
0.4704983858267717
21
1.9273394881889763
0
LINE
8
BLACK
6
CONTINUOUS
10
0.4704983858267717
20
1.9273394881889763
11
0.4661358661417322
21
1.9251166929133858
0
LINE
8
BLACK
6
CONTINUOUS
10
0.4661358661417322
20
1.9251166929133858
11
0.4613
21
1.9243507480314961
0
LINE
8
BLACK
6
CONTINUOUS
10
0.4613
20
1.9243507480314961
11
0.4564641338582677
21
1.9251166929133858
0
LINE
8
BLACK
6
CONTINUOUS
10
0.4564641338582677
20
1.9251166929133858
11
0.4521016141732284
21
1.9273394881889763
0
LINE
8
BLACK
6
CONTINUOUS
10
0.4521016141732284
20
1.9273394881889763
11
0.4486394881889764
21
1.9308016141732283
0
LINE
8
BLACK
6
CONTINUOUS
10
0.4486394881889764
20
1.9308016141732283
11
0.4464166929133858
21
1.9351641338582677
0
LINE
8
BLACK
6
CONTINUOUS
10
0.4464166929133858
20
1.9351641338582677
11
0.4456507480314961
21
1.9399999999999999
0
LINE
8
BLACK
6
CONTINUOUS
10
0.4456507480314961
20
1.9399999999999999
11
0.4464166929133858
21
1.9448358661417322
0
LINE
8
BLACK
6
CONTINUOUS
10
0.4464166929133858
20
1.9448358661417322
11
0.4486394881889764
21
1.9491983858267716
0
LINE
8
BLACK
6
CONTINUOUS
10
0.4486394881889764
20
1.9491983858267716
11
0.4521016141732284
21
1.9526605118110236
0
LINE
8
BLACK
6
CONTINUOUS
10
0.4521016141732284
20
1.9526605118110236
11
0.4564641338582677
21
1.9548833070866141
0
LINE
8
BLACK
6
CONTINUOUS
10
0.4564641338582677
20
1.9548833070866141
11
0.4613
21
1.9556492519685038
0
LINE
8
BLACK
6
CONTINUOUS
10
0.4613
20
1.9556492519685038
11
0.4661358661417322
21
1.9548833070866141
0
LINE
8
BLACK
6
CONTINUOUS
10
0.4608030708661417
20
1.9395030708661416
11
0.4613
21
1.9392972440944882
0
LINE
8
BLACK
6
CONTINUOUS
10
0.4613
20
1.9392972440944882
11
0.4617969291338583
21
1.9395030708661416
0
LINE
8
BLACK
6
CONTINUOUS
10
0.4617969291338583
20
1.9395030708661416
11
0.4620027559055118
21
1.9399999999999999
0
LINE
8
BLACK
6
CONTINUOUS
10
0.4620027559055118
20
1.9399999999999999
11
0.4617969291338583
21
1.9404969291338583
0
LINE
8
BLACK
6
CONTINUOUS
10
0.4617969291338583
20
1.9404969291338583
11
0.4613
21
1.9407027559055117
0
LINE
8
BLACK
6
CONTINUOUS
10
0.4613
20
1.9407027559055117
11
0.4608030708661417
21
1.9404969291338583
0
LINE
8
BLACK
6
CONTINUOUS
10
0.4608030708661417
20
1.9404969291338583
11
0.4605972440944882
21
1.9399999999999999
0
LINE
8
BLACK
6
CONTINUOUS
10
0.4605972440944882
20
1.9399999999999999
11
0.4608030708661417
21
1.9395030708661416
0
LINE
8
BLACK
6
CONTINUOUS
10
0.2205096456692913
20
2.316315866141732
11
0.2338744094488189
21
2.3131483858267714
0
LINE
8
BLACK
6
CONTINUOUS
10
0.2338744094488189
20
2.3131483858267714
11
0.246781062992126
21
2.3084507086614172
0
LINE
8
BLACK
6
CONTINUOUS
10
0.246781062992126
20
2.3084507086614172
11
0.2590551181102362
21
2.3022864566929133
0
LINE
8
BLACK
6
CONTINUOUS
10
0.2590551181102362
20
2.3022864566929133
11
0.2705305511811024
21
2.2947389763779529
0
LINE
8
BLACK
6
CONTINUOUS
10
0.2705305511811024
20
2.2947389763779529
11
0.2810521653543307
21
2.2859102755905512
0
LINE
8
BLACK
6
CONTINUOUS
10
0.2810521653543307
20
2.2859102755905512
11
0.2904776771653543
21
2.2759198031496064
0
LINE
8
BLACK
6
CONTINUOUS
10
0.2904776771653543
20
2.2759198031496064
11
0.2986796456692913
21
2.2649026377952755
0
LINE
8
BLACK
6
CONTINUOUS
10
0.2986796456692913
20
2.2649026377952755
11
0.3055471653543307
21
2.2530077952755905
0
LINE
8
BLACK
6
CONTINUOUS
10
0.3055471653543307
20
2.2530077952755905
11
0.3109873228346456
21
2.2403960629921258
0
LINE
8
BLACK
6
CONTINUOUS
10
0.3109873228346456
20
2.2403960629921258
11
0.3149265748031496
21
2.2272381102362204
0
LINE
8
BLACK
6
CONTINUOUS
10
0.3149265748031496
20
2.2272381102362204
11
0.3173116141732283
21
2.2137117716535433
0
LINE
8
BLACK
6
CONTINUOUS
10
0.3173116141732283
20
2.2137117716535433
11
0.3181102362204724
21
2.1999999999999997
0
LINE
8
BLACK
6
CONTINUOUS
10
0.3181102362204724
20
2.1999999999999997
11
0.3173116141732283
21
2.1862882283464566
0
LINE
8
BLACK
6
CONTINUOUS
10
0.3173116141732283
20
2.1862882283464566
11
0.3149265748031496
21
2.1727618897637795
0
LINE
8
BLACK
6
CONTINUOUS
10
0.3149265748031496
20
2.1727618897637795
11
0.3109873228346456
21
2.1596039370078741
0
LINE
8
BLACK
6
CONTINUOUS
10
0.3109873228346456
20
2.1596039370078741
11
0.3055471653543307
21
2.1469922047244094
0
LINE
8
BLACK
6
CONTINUOUS
10
0.3055471653543307
20
2.1469922047244094
11
0.2986796456692913
21
2.1350973622047245
0
LINE
8
BLACK
6
CONTINUOUS
10
0.2986796456692913
20
2.1350973622047245
11
0.2904776771653543
21
2.1240801968503935
0
LINE
8
BLACK
6
CONTINUOUS
10
0.2904776771653543
20
2.1240801968503935
11
0.2810521653543307
21
2.1140897244094488
0
LINE
8
BLACK
6
CONTINUOUS
10
0.2810521653543307
20
2.1140897244094488
11
0.2705305511811024
21
2.105261023622047
0
LINE
8
BLACK
6
CONTINUOUS
10
0.2705305511811024
20
2.105261023622047
11
0.2590551181102362
21
2.0977135433070866
0
LINE
8
BLACK
6
CONTINUOUS
10
0.2590551181102362
20
2.0977135433070866
11
0.246781062992126
21
2.0915492913385827
0
LINE
8
BLACK
6
CONTINUOUS
10
0.246781062992126
20
2.0915492913385827
11
0.2338744094488189
21
2.0868516141732285
0
LINE
8
BLACK
6
CONTINUOUS
10
0.2338744094488189
20
2.0868516141732285
11
0.2205096456692913
21
2.0836841338582675
0
LINE
8
BLACK
6
CONTINUOUS
10
0.2205096456692913
20
2.0836841338582675
11
0.2068674803149606
21
2.0820896062992125
0
LINE
8
BLACK
6
CONTINUOUS
10
0.2068674803149606
20
2.0820896062992125
11
0.1931325196850394
21
2.0820896062992125
0
LINE
8
BLACK
6
CONTINUOUS
10
0.1931325196850394
20
2.0820896062992125
11
0.1794903543307086
21
2.0836841338582675
0
LINE
8
BLACK
6
CONTINUOUS
10
0.1794903543307086
20
2.0836841338582675
11
0.1661255905511811
21
2.0868516141732285
0
LINE
8
BLACK
6
CONTINUOUS
10
0.1661255905511811
20
2.0868516141732285
11
0.153218937007874
21
2.0915492913385827
0
LINE
8
BLACK
6
CONTINUOUS
10
0.153218937007874
20
2.0915492913385827
11
0.1409448818897638
21
2.0977135433070866
0
LINE
8
BLACK
6
CONTINUOUS
10
0.1409448818897638
20
2.0977135433070866
11
0.1294694488188976
21
2.105261023622047
0
LINE
8
BLACK
6
CONTINUOUS
10
0.1294694488188976
20
2.105261023622047
11
0.1189478346456693
21
2.1140897244094488
0
LINE
8
BLACK
6
CONTINUOUS
10
0.1189478346456693
20
2.1140897244094488
11
0.1095223228346457
21
2.1240801968503935
0
LINE
8
BLACK
6
CONTINUOUS
10
0.1095223228346457
20
2.1240801968503935
11
0.1013203543307087
21
2.1350973622047245
0
LINE
8
BLACK
6
CONTINUOUS
10
0.1013203543307087
20
2.1350973622047245
11
0.0944528346456693
21
2.1469922047244094
0
LINE
8
BLACK
6
CONTINUOUS
10
0.0944528346456693
20
2.1469922047244094
11
0.0890126771653543
21
2.1596039370078741
0
LINE
8
BLACK
6
CONTINUOUS
10
0.0890126771653543
20
2.1596039370078741
11
0.0850734251968504
21
2.1727618897637795
0
LINE
8
BLACK
6
CONTINUOUS
10
0.0850734251968504
20
2.1727618897637795
11
0.0826883858267717
21
2.1862882283464566
0
LINE
8
BLACK
6
CONTINUOUS
10
0.0826883858267717
20
2.1862882283464566
11
0.0818897637795276
21
2.1999999999999997
0
LINE
8
BLACK
6
CONTINUOUS
10
0.0818897637795276
20
2.1999999999999997
11
0.0826883858267717
21
2.2137117716535433
0
LINE
8
BLACK
6
CONTINUOUS
10
0.0826883858267717
20
2.2137117716535433
11
0.0850734251968504
21
2.2272381102362204
0
LINE
8
BLACK
6
CONTINUOUS
10
0.0850734251968504
20
2.2272381102362204
11
0.0890126771653543
21
2.2403960629921258
0
LINE
8
BLACK
6
CONTINUOUS
10
0.0890126771653543
20
2.2403960629921258
11
0.0944528346456693
21
2.2530077952755905
0
LINE
8
BLACK
6
CONTINUOUS
10
0.0944528346456693
20
2.2530077952755905
11
0.1013203543307087
21
2.2649026377952755
0
LINE
8
BLACK
6
CONTINUOUS
10
0.1013203543307087
20
2.2649026377952755
11
0.1095223228346457
21
2.2759198031496064
0
LINE
8
BLACK
6
CONTINUOUS
10
0.1095223228346457
20
2.2759198031496064
11
0.1189478346456693
21
2.2859102755905512
0
LINE
8
BLACK
6
CONTINUOUS
10
0.1189478346456693
20
2.2859102755905512
11
0.1294694488188976
21
2.2947389763779529
0
LINE
8
BLACK
6
CONTINUOUS
10
0.1294694488188976
20
2.2947389763779529
11
0.1409448818897638
21
2.3022864566929133
0
LINE
8
BLACK
6
CONTINUOUS
10
0.1409448818897638
20
2.3022864566929133
11
0.153218937007874
21
2.3084507086614172
0
LINE
8
BLACK
6
CONTINUOUS
10
0.153218937007874
20
2.3084507086614172
11
0.1661255905511811
21
2.3131483858267714
0
LINE
8
BLACK
6
CONTINUOUS
10
0.1661255905511811
20
2.3131483858267714
11
0.1794903543307086
21
2.316315866141732
0
LINE
8
BLACK
6
CONTINUOUS
10
0.1794903543307086
20
2.316315866141732
11
0.1931325196850394
21
2.3179103937007874
0
LINE
8
BLACK
6
CONTINUOUS
10
0.1931325196850394
20
2.3179103937007874
11
0.2068674803149606
21
2.3179103937007874
0
LINE
8
BLACK
6
CONTINUOUS
10
0.2068674803149606
20
2.3179103937007874
11
0.2205096456692913
21
2.316315866141732
0
LINE
8
BLACK
6
CONTINUOUS
10
3.0205096456692915
20
2.316315866141732
11
3.0338744094488188
21
2.3131483858267714
0
LINE
8
BLACK
6
CONTINUOUS
10
3.0338744094488188
20
2.3131483858267714
11
3.0467810629921259
21
2.3084507086614172
0
LINE
8
BLACK
6
CONTINUOUS
10
3.0467810629921259
20
2.3084507086614172
11
3.0590551181102361
21
2.3022864566929133
0
LINE
8
BLACK
6
CONTINUOUS
10
3.0590551181102361
20
2.3022864566929133
11
3.0705305511811023
21
2.2947389763779529
0
LINE
8
BLACK
6
CONTINUOUS
10
3.0705305511811023
20
2.2947389763779529
11
3.0810521653543308
21
2.2859102755905512
0
LINE
8
BLACK
6
CONTINUOUS
10
3.0810521653543308
20
2.2859102755905512
11
3.0904776771653544
21
2.2759198031496064
0
LINE
8
BLACK
6
CONTINUOUS
10
3.0904776771653544
20
2.2759198031496064
11
3.0986796456692911
21
2.2649026377952755
0
LINE
8
BLACK
6
CONTINUOUS
10
3.0986796456692911
20
2.2649026377952755
11
3.1055471653543307
21
2.2530077952755905
0
LINE
8
BLACK
6
CONTINUOUS
10
3.1055471653543307
20
2.2530077952755905
11
3.1109873228346454
21
2.2403960629921258
0
LINE
8
BLACK
6
CONTINUOUS
10
3.1109873228346454
20
2.2403960629921258
11
3.1149265748031496
21
2.2272381102362204
0
LINE
8
BLACK
6
CONTINUOUS
10
3.1149265748031496
20
2.2272381102362204
11
3.1173116141732282
21
2.2137117716535433
0
LINE
8
BLACK
6
CONTINUOUS
10
3.1173116141732282
20
2.2137117716535433
11
3.1181102362204722
21
2.1999999999999997
0
LINE
8
BLACK
6
CONTINUOUS
10
3.1181102362204722
20
2.1999999999999997
11
3.1173116141732282
21
2.1862882283464566
0
LINE
8
BLACK
6
CONTINUOUS
10
3.1173116141732282
20
2.1862882283464566
11
3.1149265748031496
21
2.1727618897637795
0
LINE
8
BLACK
6
CONTINUOUS
10
3.1149265748031496
20
2.1727618897637795
11
3.1109873228346454
21
2.1596039370078741
0
LINE
8
BLACK
6
CONTINUOUS
10
3.1109873228346454
20
2.1596039370078741
11
3.1055471653543307
21
2.1469922047244094
0
LINE
8
BLACK
6
CONTINUOUS
10
3.1055471653543307
20
2.1469922047244094
11
3.0986796456692911
21
2.1350973622047245
0
LINE
8
BLACK
6
CONTINUOUS
10
3.0986796456692911
20
2.1350973622047245
11
3.0904776771653544
21
2.1240801968503935
0
LINE
8
BLACK
6
CONTINUOUS
10
3.0904776771653544
20
2.1240801968503935
11
3.0810521653543308
21
2.1140897244094488
0
LINE
8
BLACK
6
CONTINUOUS
10
3.0810521653543308
20
2.1140897244094488
11
3.0705305511811023
21
2.105261023622047
0
LINE
8
BLACK
6
CONTINUOUS
10
3.0705305511811023
20
2.105261023622047
11
3.0590551181102361
21
2.0977135433070866
0
LINE
8
BLACK
6
CONTINUOUS
10
3.0590551181102361
20
2.0977135433070866
11
3.0467810629921259
21
2.0915492913385827
0
LINE
8
BLACK
6
CONTINUOUS
10
3.0467810629921259
20
2.0915492913385827
11
3.0338744094488188
21
2.0868516141732285
0
LINE
8
BLACK
6
CONTINUOUS
10
3.0338744094488188
20
2.0868516141732285
11
3.0205096456692915
21
2.0836841338582675
0
LINE
8
BLACK
6
CONTINUOUS
10
3.0205096456692915
20
2.0836841338582675
11
3.0068674803149604
21
2.0820896062992125
0
LINE
8
BLACK
6
CONTINUOUS
10
3.0068674803149604
20
2.0820896062992125
11
2.9931325196850391
21
2.0820896062992125
0
LINE
8
BLACK
6
CONTINUOUS
10
2.9931325196850391
20
2.0820896062992125
11
2.9794903543307085
21
2.0836841338582675
0
LINE
8
BLACK
6
CONTINUOUS
10
2.9794903543307085
20
2.0836841338582675
11
2.9661255905511812
21
2.0868516141732285
0
LINE
8
BLACK
6
CONTINUOUS
10
2.9661255905511812
20
2.0868516141732285
11
2.9532189370078741
21
2.0915492913385827
0
LINE
8
BLACK
6
CONTINUOUS
10
2.9532189370078741
20
2.0915492913385827
11
2.9409448818897639
21
2.0977135433070866
0
LINE
8
BLACK
6
CONTINUOUS
10
2.9409448818897639
20
2.0977135433070866
11
2.9294694488188977
21
2.105261023622047
0
LINE
8
BLACK
6
CONTINUOUS
10
2.9294694488188977
20
2.105261023622047
11
2.9189478346456692
21
2.1140897244094488
0
LINE
8
BLACK
6
CONTINUOUS
10
2.9189478346456692
20
2.1140897244094488
11
2.9095223228346456
21
2.1240801968503935
0
LINE
8
BLACK
6
CONTINUOUS
10
2.9095223228346456
20
2.1240801968503935
11
2.9013203543307085
21
2.1350973622047245
0
LINE
8
BLACK
6
CONTINUOUS
10
2.9013203543307085
20
2.1350973622047245
11
2.8944528346456693
21
2.1469922047244094
0
LINE
8
BLACK
6
CONTINUOUS
10
2.8944528346456693
20
2.1469922047244094
11
2.8890126771653541
21
2.1596039370078741
0
LINE
8
BLACK
6
CONTINUOUS
10
2.8890126771653541
20
2.1596039370078741
11
2.8850734251968504
21
2.1727618897637795
0
LINE
8
BLACK
6
CONTINUOUS
10
2.8850734251968504
20
2.1727618897637795
11
2.8826883858267718
21
2.1862882283464566
0
LINE
8
BLACK
6
CONTINUOUS
10
2.8826883858267718
20
2.1862882283464566
11
2.8818897637795273
21
2.1999999999999997
0
LINE
8
BLACK
6
CONTINUOUS
10
2.8818897637795273
20
2.1999999999999997
11
2.8826883858267718
21
2.2137117716535433
0
LINE
8
BLACK
6
CONTINUOUS
10
2.8826883858267718
20
2.2137117716535433
11
2.8850734251968504
21
2.2272381102362204
0
LINE
8
BLACK
6
CONTINUOUS
10
2.8850734251968504
20
2.2272381102362204
11
2.8890126771653541
21
2.2403960629921258
0
LINE
8
BLACK
6
CONTINUOUS
10
2.8890126771653541
20
2.2403960629921258
11
2.8944528346456693
21
2.2530077952755905
0
LINE
8
BLACK
6
CONTINUOUS
10
2.8944528346456693
20
2.2530077952755905
11
2.9013203543307085
21
2.2649026377952755
0
LINE
8
BLACK
6
CONTINUOUS
10
2.9013203543307085
20
2.2649026377952755
11
2.9095223228346456
21
2.2759198031496064
0
LINE
8
BLACK
6
CONTINUOUS
10
2.9095223228346456
20
2.2759198031496064
11
2.9189478346456692
21
2.2859102755905512
0
LINE
8
BLACK
6
CONTINUOUS
10
2.9189478346456692
20
2.2859102755905512
11
2.9294694488188977
21
2.2947389763779529
0
LINE
8
BLACK
6
CONTINUOUS
10
2.9294694488188977
20
2.2947389763779529
11
2.9409448818897639
21
2.3022864566929133
0
LINE
8
BLACK
6
CONTINUOUS
10
2.9409448818897639
20
2.3022864566929133
11
2.9532189370078741
21
2.3084507086614172
0
LINE
8
BLACK
6
CONTINUOUS
10
2.9532189370078741
20
2.3084507086614172
11
2.9661255905511812
21
2.3131483858267714
0
LINE
8
BLACK
6
CONTINUOUS
10
2.9661255905511812
20
2.3131483858267714
11
2.9794903543307085
21
2.316315866141732
0
LINE
8
BLACK
6
CONTINUOUS
10
2.9794903543307085
20
2.316315866141732
11
2.9931325196850391
21
2.3179103937007874
0
LINE
8
BLACK
6
CONTINUOUS
10
2.9931325196850391
20
2.3179103937007874
11
3.0068674803149604
21
2.3179103937007874
0
LINE
8
BLACK
6
CONTINUOUS
10
3.0068674803149604
20
2.3179103937007874
11
3.0205096456692915
21
2.316315866141732
  0
ENDSEC
  0
EOF
