  0
SECTION
  2
HEADER
  9
$ANGBASE
  50
0.0
  9
$ANGDIR
  70
1
  9
$MEASUREMENT
  70
0
  0
ENDSEC
  0
SECTION
  2
TABLES
  0
TABLE
  2
LTYPE
  70
4
  0
LTYPE
  5
40F
  2
CONTINUOUS
  70
0
  3
Solid line
  72
65
  73
0
  40
0.0
  0
LTYPE
  5
410
  2
DASHDOT
 70
0
  3
Dash Dot ____ _ ____ _
 72
65
 73
4
 40
2.0
 49
1.25
 49
-0.25
 49
0.25
 49
-0.25
  0
LTYPE
  5
411
  2
DASHED
 70
0
  3
Dashed __ __ __ __ __
 72
65
 73
2
 40
0.75
 49
0.5
 49
-0.25
  0
LTYPE
  5
43B
  2
DOTTED
 70
0
  3
Dotted .  .  .  .
 72
65
 73
2
 40
0.2
 49
0.0
 49
-0.2
  0
ENDTAB
  0
TABLE
  2
STYLE
  70
4
  0
STYLE
  2
KICAD
  70
0
  40
0
  41
1
  42
1
  50
0
  71
0
  3
isocp.shx
  0
STYLE
  2
KICADB
  70
0
  40
0
  41
1
  42
1
  50
0
  71
0
  3
isocp.shx
  0
STYLE
  2
KICADI
  70
0
  40
0
  41
1
  42
1
  50
15
  71
0
  3
isocp.shx
  0
STYLE
  2
KICADBI
  70
0
  40
0
  41
1
  42
1
  50
15
  71
0
  3
isocp.shx
  0
ENDTAB
  0
TABLE
  2
LAYER
  70
1
  0
LAYER
  2
BLACK
  70
0
  62
7
  6
CONTINUOUS
  0
ENDTAB
  0
ENDSEC
  0
SECTION
  2
ENTITIES
0
LINE
8
BLACK
6
CONTINUOUS
10
2.9321483070866141
20
1.1194526377952756
11
2.9326809842519683
21
1.1189199606299212
0
LINE
8
BLACK
6
CONTINUOUS
10
2.9326809842519683
20
1.1189199606299212
11
2.9327559055118111
21
0.8114566929133858
0
LINE
8
BLACK
6
CONTINUOUS
10
2.9327559055118111
20
0.8114566929133858
11
2.9326809842519683
21
0.8110800393700788
0
LINE
8
BLACK
6
CONTINUOUS
10
2.9326809842519683
20
0.8110800393700788
11
2.9321483070866141
21
0.8105473622047243
0
LINE
8
BLACK
6
CONTINUOUS
10
2.9321483070866141
20
0.8105473622047243
11
2.778228346456693
21
0.8104724409448819
0
LINE
8
BLACK
6
CONTINUOUS
10
2.778228346456693
20
0.8104724409448819
11
2.7778516929133859
21
0.8105473622047243
0
LINE
8
BLACK
6
CONTINUOUS
10
2.7778516929133859
20
0.8105473622047243
11
2.7773190157480316
21
0.8110800393700788
0
LINE
8
BLACK
6
CONTINUOUS
10
2.7773190157480316
20
0.8110800393700788
11
2.7772440944881889
21
1.1185433070866142
0
LINE
8
BLACK
6
CONTINUOUS
10
2.7772440944881889
20
1.1185433070866142
11
2.7773190157480316
21
1.1189199606299212
0
LINE
8
BLACK
6
CONTINUOUS
10
2.7773190157480316
20
1.1189199606299212
11
2.7778516929133859
21
1.1194526377952756
0
LINE
8
BLACK
6
CONTINUOUS
10
2.7778516929133859
20
1.1194526377952756
11
2.9317716535433069
21
1.1195275590551181
0
LINE
8
BLACK
6
CONTINUOUS
10
2.9317716535433069
20
1.1195275590551181
11
2.9321483070866141
21
1.1194526377952756
0
LINE
8
BLACK
6
CONTINUOUS
10
2.779137992125984
20
1.1175594881889763
11
2.7792123622047242
21
0.8123666535433071
0
LINE
8
BLACK
6
CONTINUOUS
10
2.7792123622047242
20
0.8123666535433071
11
2.9308619685039368
21
0.8124404724409449
0
LINE
8
BLACK
6
CONTINUOUS
10
2.9308619685039368
20
0.8124404724409449
11
2.930787598425197
21
1.1176333070866142
0
LINE
8
BLACK
6
CONTINUOUS
10
2.930787598425197
20
1.1176333070866142
11
2.779137992125984
21
1.1175594881889763
0
LINE
8
BLACK
6
CONTINUOUS
10
2.3908884645669293
20
1.0911455511811023
11
2.3914211417322835
21
1.0906128740157479
0
LINE
8
BLACK
6
CONTINUOUS
10
2.3914211417322835
20
1.0906128740157479
11
2.3914960629921258
21
0.869763779527559
0
LINE
8
BLACK
6
CONTINUOUS
10
2.3914960629921258
20
0.869763779527559
11
2.3914211417322835
21
0.8693871259842519
0
LINE
8
BLACK
6
CONTINUOUS
10
2.3914211417322835
20
0.8693871259842519
11
2.3908884645669293
21
0.8688544488188976
0
LINE
8
BLACK
6
CONTINUOUS
10
2.3908884645669293
20
0.8688544488188976
11
2.0794881889763781
21
0.8687795275590551
0
LINE
8
BLACK
6
CONTINUOUS
10
2.0794881889763781
20
0.8687795275590551
11
2.0791115354330709
21
0.8688544488188976
0
LINE
8
BLACK
6
CONTINUOUS
10
2.0791115354330709
20
0.8688544488188976
11
2.0785788582677163
21
0.8693871259842519
0
LINE
8
BLACK
6
CONTINUOUS
10
2.0785788582677163
20
0.8693871259842519
11
2.0785039370078739
21
1.090236220472441
0
LINE
8
BLACK
6
CONTINUOUS
10
2.0785039370078739
20
1.090236220472441
11
2.0785788582677163
21
1.0906128740157479
0
LINE
8
BLACK
6
CONTINUOUS
10
2.0785788582677163
20
1.0906128740157479
11
2.0791115354330709
21
1.0911455511811023
0
LINE
8
BLACK
6
CONTINUOUS
10
2.0791115354330709
20
1.0911455511811023
11
2.3905118110236221
21
1.0912204724409449
0
LINE
8
BLACK
6
CONTINUOUS
10
2.3905118110236221
20
1.0912204724409449
11
2.3908884645669293
21
1.0911455511811023
0
LINE
8
BLACK
6
CONTINUOUS
10
2.0803979527559053
20
1.0892521653543308
11
2.0804721259842518
21
0.8706734251968504
0
LINE
8
BLACK
6
CONTINUOUS
10
2.0804721259842518
20
0.8706734251968504
11
2.3896020078740157
21
0.8707477952755905
0
LINE
8
BLACK
6
CONTINUOUS
10
2.3896020078740157
20
0.8707477952755905
11
2.3895278346456692
21
1.0893265354330708
0
LINE
8
BLACK
6
CONTINUOUS
10
2.3895278346456692
20
1.0893265354330708
11
2.0803979527559053
21
1.0892521653543308
0
LINE
8
BLACK
6
CONTINUOUS
10
1.5321483070866142
20
1.5094526377952755
11
1.5326809842519684
21
1.5089199606299213
0
LINE
8
BLACK
6
CONTINUOUS
10
1.5326809842519684
20
1.5089199606299213
11
1.532755905511811
21
1.2014566929133859
0
LINE
8
BLACK
6
CONTINUOUS
10
1.532755905511811
20
1.2014566929133859
11
1.5326809842519684
21
1.2010800393700787
0
LINE
8
BLACK
6
CONTINUOUS
10
1.5326809842519684
20
1.2010800393700787
11
1.5321483070866142
21
1.2005473622047245
0
LINE
8
BLACK
6
CONTINUOUS
10
1.5321483070866142
20
1.2005473622047245
11
1.3782283464566929
21
1.2004724409448819
0
LINE
8
BLACK
6
CONTINUOUS
10
1.3782283464566929
20
1.2004724409448819
11
1.3778516929133857
21
1.2005473622047245
0
LINE
8
BLACK
6
CONTINUOUS
10
1.3778516929133857
20
1.2005473622047245
11
1.3773190157480315
21
1.2010800393700787
0
LINE
8
BLACK
6
CONTINUOUS
10
1.3773190157480315
20
1.2010800393700787
11
1.377244094488189
21
1.5085433070866141
0
LINE
8
BLACK
6
CONTINUOUS
10
1.377244094488189
20
1.5085433070866141
11
1.3773190157480315
21
1.5089199606299213
0
LINE
8
BLACK
6
CONTINUOUS
10
1.3773190157480315
20
1.5089199606299213
11
1.3778516929133857
21
1.5094526377952755
0
LINE
8
BLACK
6
CONTINUOUS
10
1.3778516929133857
20
1.5094526377952755
11
1.531771653543307
21
1.509527559055118
0
LINE
8
BLACK
6
CONTINUOUS
10
1.531771653543307
20
1.509527559055118
11
1.5321483070866142
21
1.5094526377952755
0
LINE
8
BLACK
6
CONTINUOUS
10
1.3791379921259843
20
1.5075594881889764
11
1.3792123622047243
21
1.2023666535433071
0
LINE
8
BLACK
6
CONTINUOUS
10
1.3792123622047243
20
1.2023666535433071
11
1.5308619685039371
21
1.2024404724409448
0
LINE
8
BLACK
6
CONTINUOUS
10
1.5308619685039371
20
1.2024404724409448
11
1.5307875984251968
21
1.5076333070866141
0
LINE
8
BLACK
6
CONTINUOUS
10
1.5307875984251968
20
1.5076333070866141
11
1.3791379921259843
21
1.5075594881889764
  0
ENDSEC
  0
EOF
