  0
SECTION
  2
HEADER
  9
$ANGBASE
  50
0.0
  9
$ANGDIR
  70
1
  9
$MEASUREMENT
  70
0
  0
ENDSEC
  0
SECTION
  2
TABLES
  0
TABLE
  2
LTYPE
  70
4
  0
LTYPE
  5
40F
  2
CONTINUOUS
  70
0
  3
Solid line
  72
65
  73
0
  40
0.0
  0
LTYPE
  5
410
  2
DASHDOT
 70
0
  3
Dash Dot ____ _ ____ _
 72
65
 73
4
 40
2.0
 49
1.25
 49
-0.25
 49
0.25
 49
-0.25
  0
LTYPE
  5
411
  2
DASHED
 70
0
  3
Dashed __ __ __ __ __
 72
65
 73
2
 40
0.75
 49
0.5
 49
-0.25
  0
LTYPE
  5
43B
  2
DOTTED
 70
0
  3
Dotted .  .  .  .
 72
65
 73
2
 40
0.2
 49
0.0
 49
-0.2
  0
ENDTAB
  0
TABLE
  2
STYLE
  70
4
  0
STYLE
  2
KICAD
  70
0
  40
0
  41
1
  42
1
  50
0
  71
0
  3
isocp.shx
  0
STYLE
  2
KICADB
  70
0
  40
0
  41
1
  42
1
  50
0
  71
0
  3
isocp.shx
  0
STYLE
  2
KICADI
  70
0
  40
0
  41
1
  42
1
  50
15
  71
0
  3
isocp.shx
  0
STYLE
  2
KICADBI
  70
0
  40
0
  41
1
  42
1
  50
15
  71
0
  3
isocp.shx
  0
ENDTAB
  0
TABLE
  2
LAYER
  70
1
  0
LAYER
  2
BLACK
  70
0
  62
7
  6
CONTINUOUS
  0
ENDTAB
  0
ENDSEC
  0
SECTION
  2
ENTITIES
0
LINE
8
BLACK
6
CONTINUOUS
10
0.86
20
0.04
11
0.71
21
0.04
0
LINE
8
BLACK
6
CONTINUOUS
10
0.71
20
0.04
11
0.71
21
0.19
0
LINE
8
BLACK
6
CONTINUOUS
10
0.71
20
0.19
11
0.86
21
0.19
0
LINE
8
BLACK
6
CONTINUOUS
10
0.86
20
0.19
11
0.86
21
0.04
0
LINE
8
BLACK
6
CONTINUOUS
10
0.66315
20
0.04
11
0.51315
21
0.04
0
LINE
8
BLACK
6
CONTINUOUS
10
0.51315
20
0.04
11
0.51315
21
0.19
0
LINE
8
BLACK
6
CONTINUOUS
10
0.51315
20
0.19
11
0.66315
21
0.19
0
LINE
8
BLACK
6
CONTINUOUS
10
0.66315
20
0.19
11
0.66315
21
0.04
0
LINE
8
BLACK
6
CONTINUOUS
10
2.01953
20
0.0755906
11
1.96047
21
0.0755906
0
LINE
8
BLACK
6
CONTINUOUS
10
1.96047
20
0.0755906
11
1.96047
21
0.116929
0
LINE
8
BLACK
6
CONTINUOUS
10
1.96047
20
0.116929
11
2.01953
21
0.116929
0
LINE
8
BLACK
6
CONTINUOUS
10
2.01953
20
0.116929
11
2.01953
21
0.0755906
0
LINE
8
BLACK
6
CONTINUOUS
10
2.12453
20
0.0755906
11
2.06547
21
0.0755906
0
LINE
8
BLACK
6
CONTINUOUS
10
2.06547
20
0.0755906
11
2.06547
21
0.116929
0
LINE
8
BLACK
6
CONTINUOUS
10
2.06547
20
0.116929
11
2.12453
21
0.116929
0
LINE
8
BLACK
6
CONTINUOUS
10
2.12453
20
0.116929
11
2.12453
21
0.0755906
0
LINE
8
BLACK
6
CONTINUOUS
10
2.33453
20
0.0755906
11
2.27547
21
0.0755906
0
LINE
8
BLACK
6
CONTINUOUS
10
2.27547
20
0.0755906
11
2.27547
21
0.116929
0
LINE
8
BLACK
6
CONTINUOUS
10
2.27547
20
0.116929
11
2.33453
21
0.116929
0
LINE
8
BLACK
6
CONTINUOUS
10
2.33453
20
0.116929
11
2.33453
21
0.0755906
0
LINE
8
BLACK
6
CONTINUOUS
10
1.91453
20
0.0755906
11
1.85547
21
0.0755906
0
LINE
8
BLACK
6
CONTINUOUS
10
1.85547
20
0.0755906
11
1.85547
21
0.116929
0
LINE
8
BLACK
6
CONTINUOUS
10
1.85547
20
0.116929
11
1.91453
21
0.116929
0
LINE
8
BLACK
6
CONTINUOUS
10
1.91453
20
0.116929
11
1.91453
21
0.0755906
0
LINE
8
BLACK
6
CONTINUOUS
10
2.22953
20
0.0755906
11
2.17047
21
0.0755906
0
LINE
8
BLACK
6
CONTINUOUS
10
2.17047
20
0.0755906
11
2.17047
21
0.116929
0
LINE
8
BLACK
6
CONTINUOUS
10
2.17047
20
0.116929
11
2.22953
21
0.116929
0
LINE
8
BLACK
6
CONTINUOUS
10
2.22953
20
0.116929
11
2.22953
21
0.0755906
0
LINE
8
BLACK
6
CONTINUOUS
10
1.80953
20
0.0755906
11
1.75047
21
0.0755906
0
LINE
8
BLACK
6
CONTINUOUS
10
1.75047
20
0.0755906
11
1.75047
21
0.116929
0
LINE
8
BLACK
6
CONTINUOUS
10
1.75047
20
0.116929
11
1.80953
21
0.116929
0
LINE
8
BLACK
6
CONTINUOUS
10
1.80953
20
0.116929
11
1.80953
21
0.0755906
0
LINE
8
BLACK
6
CONTINUOUS
10
1.70453
20
0.0755906
11
1.64547
21
0.0755906
0
LINE
8
BLACK
6
CONTINUOUS
10
1.64547
20
0.0755906
11
1.64547
21
0.116929
0
LINE
8
BLACK
6
CONTINUOUS
10
1.64547
20
0.116929
11
1.70453
21
0.116929
0
LINE
8
BLACK
6
CONTINUOUS
10
1.70453
20
0.116929
11
1.70453
21
0.0755906
0
LINE
8
BLACK
6
CONTINUOUS
10
2.43953
20
0.0755906
11
2.38047
21
0.0755906
0
LINE
8
BLACK
6
CONTINUOUS
10
2.38047
20
0.0755906
11
2.38047
21
0.116929
0
LINE
8
BLACK
6
CONTINUOUS
10
2.38047
20
0.116929
11
2.43953
21
0.116929
0
LINE
8
BLACK
6
CONTINUOUS
10
2.43953
20
0.116929
11
2.43953
21
0.0755906
0
LINE
8
BLACK
6
CONTINUOUS
10
0.20865
20
0.317793
11
0.222132
21
0.316018
0
LINE
8
BLACK
6
CONTINUOUS
10
0.222132
20
0.316018
11
0.23532
21
0.312706
0
LINE
8
BLACK
6
CONTINUOUS
10
0.23532
20
0.312706
11
0.24804
21
0.307899
0
LINE
8
BLACK
6
CONTINUOUS
10
0.24804
20
0.307899
11
0.260123
21
0.301662
0
LINE
8
BLACK
6
CONTINUOUS
10
0.260123
20
0.301662
11
0.271409
21
0.294078
0
LINE
8
BLACK
6
CONTINUOUS
10
0.271409
20
0.294078
11
0.281749
21
0.285247
0
LINE
8
BLACK
6
CONTINUOUS
10
0.281749
20
0.285247
11
0.291006
21
0.275286
0
LINE
8
BLACK
6
CONTINUOUS
10
0.291006
20
0.275286
11
0.299056
21
0.264327
0
LINE
8
BLACK
6
CONTINUOUS
10
0.299056
20
0.264327
11
0.305793
21
0.252516
0
LINE
8
BLACK
6
CONTINUOUS
10
0.305793
20
0.252516
11
0.311128
21
0.240008
0
LINE
8
BLACK
6
CONTINUOUS
10
0.311128
20
0.240008
11
0.31499
21
0.226971
0
LINE
8
BLACK
6
CONTINUOUS
10
0.31499
20
0.226971
11
0.317327
21
0.213575
0
LINE
8
BLACK
6
CONTINUOUS
10
0.317327
20
0.213575
11
0.31811
21
0.2
0
LINE
8
BLACK
6
CONTINUOUS
10
0.31811
20
0.2
11
0.317877
21
0.192584
0
LINE
8
BLACK
6
CONTINUOUS
10
0.317877
20
0.192584
11
0.316244
21
0.179084
0
LINE
8
BLACK
6
CONTINUOUS
10
0.316244
20
0.179084
11
0.313069
21
0.165862
0
LINE
8
BLACK
6
CONTINUOUS
10
0.313069
20
0.165862
11
0.308396
21
0.153093
0
LINE
8
BLACK
6
CONTINUOUS
10
0.308396
20
0.153093
11
0.302286
21
0.140945
0
LINE
8
BLACK
6
CONTINUOUS
10
0.302286
20
0.140945
11
0.294821
21
0.12958
0
LINE
8
BLACK
6
CONTINUOUS
10
0.294821
20
0.12958
11
0.286099
21
0.119148
0
LINE
8
BLACK
6
CONTINUOUS
10
0.286099
20
0.119148
11
0.276235
21
0.109788
0
LINE
8
BLACK
6
CONTINUOUS
10
0.276235
20
0.109788
11
0.265361
21
0.101623
0
LINE
8
BLACK
6
CONTINUOUS
10
0.265361
20
0.101623
11
0.253621
21
0.094763
0
LINE
8
BLACK
6
CONTINUOUS
10
0.253621
20
0.094763
11
0.24117
21
0.0892974
0
LINE
8
BLACK
6
CONTINUOUS
10
0.24117
20
0.0892974
11
0.228173
21
0.0852991
0
LINE
8
BLACK
6
CONTINUOUS
10
0.228173
20
0.0852991
11
0.214803
21
0.0828211
0
LINE
8
BLACK
6
CONTINUOUS
10
0.214803
20
0.0828211
11
0.201237
21
0.0818962
0
LINE
8
BLACK
6
CONTINUOUS
10
0.201237
20
0.0818962
11
0.187654
21
0.0825368
0
LINE
8
BLACK
6
CONTINUOUS
10
0.187654
20
0.0825368
11
0.174235
21
0.0847343
0
LINE
8
BLACK
6
CONTINUOUS
10
0.174235
20
0.0847343
11
0.161157
21
0.0884595
0
LINE
8
BLACK
6
CONTINUOUS
10
0.161157
20
0.0884595
11
0.148595
21
0.0936631
0
LINE
8
BLACK
6
CONTINUOUS
10
0.148595
20
0.0936631
11
0.136713
21
0.100276
0
LINE
8
BLACK
6
CONTINUOUS
10
0.136713
20
0.100276
11
0.125671
21
0.108211
0
LINE
8
BLACK
6
CONTINUOUS
10
0.125671
20
0.108211
11
0.115613
21
0.117363
0
LINE
8
BLACK
6
CONTINUOUS
10
0.115613
20
0.117363
11
0.106675
21
0.127609
0
LINE
8
BLACK
6
CONTINUOUS
10
0.106675
20
0.127609
11
0.0989727
21
0.138816
0
LINE
8
BLACK
6
CONTINUOUS
10
0.0989727
20
0.138816
11
0.0926099
21
0.150833
0
LINE
8
BLACK
6
CONTINUOUS
10
0.0926099
20
0.150833
11
0.0876705
21
0.163502
0
LINE
8
BLACK
6
CONTINUOUS
10
0.0876705
20
0.163502
11
0.0842199
21
0.176655
0
LINE
8
BLACK
6
CONTINUOUS
10
0.0842199
20
0.176655
11
0.082304
21
0.190117
0
LINE
8
BLACK
6
CONTINUOUS
10
0.082304
20
0.190117
11
0.081948
21
0.20371
0
LINE
8
BLACK
6
CONTINUOUS
10
0.081948
20
0.20371
11
0.0831568
21
0.217254
0
LINE
8
BLACK
6
CONTINUOUS
10
0.0831568
20
0.217254
11
0.0859143
21
0.230569
0
LINE
8
BLACK
6
CONTINUOUS
10
0.0859143
20
0.230569
11
0.0901839
21
0.243479
0
LINE
8
BLACK
6
CONTINUOUS
10
0.0901839
20
0.243479
11
0.0959091
21
0.255813
0
LINE
8
BLACK
6
CONTINUOUS
10
0.0959091
20
0.255813
11
0.103014
21
0.267407
0
LINE
8
BLACK
6
CONTINUOUS
10
0.103014
20
0.267407
11
0.111404
21
0.278108
0
LINE
8
BLACK
6
CONTINUOUS
10
0.111404
20
0.278108
11
0.120969
21
0.287773
0
LINE
8
BLACK
6
CONTINUOUS
10
0.120969
20
0.287773
11
0.131581
21
0.296275
0
LINE
8
BLACK
6
CONTINUOUS
10
0.131581
20
0.296275
11
0.1431
21
0.303501
0
LINE
8
BLACK
6
CONTINUOUS
10
0.1431
20
0.303501
11
0.155373
21
0.309355
0
LINE
8
BLACK
6
CONTINUOUS
10
0.155373
20
0.309355
11
0.168238
21
0.313759
0
LINE
8
BLACK
6
CONTINUOUS
10
0.168238
20
0.313759
11
0.181524
21
0.316656
0
LINE
8
BLACK
6
CONTINUOUS
10
0.181524
20
0.316656
11
0.195054
21
0.318007
0
LINE
8
BLACK
6
CONTINUOUS
10
0.195054
20
0.318007
11
0.20865
21
0.317793
0
LINE
8
BLACK
6
CONTINUOUS
10
3.00865
20
0.317793
11
3.02213
21
0.316018
0
LINE
8
BLACK
6
CONTINUOUS
10
3.02213
20
0.316018
11
3.03532
21
0.312706
0
LINE
8
BLACK
6
CONTINUOUS
10
3.03532
20
0.312706
11
3.04804
21
0.307899
0
LINE
8
BLACK
6
CONTINUOUS
10
3.04804
20
0.307899
11
3.06012
21
0.301662
0
LINE
8
BLACK
6
CONTINUOUS
10
3.06012
20
0.301662
11
3.07141
21
0.294078
0
LINE
8
BLACK
6
CONTINUOUS
10
3.07141
20
0.294078
11
3.08175
21
0.285247
0
LINE
8
BLACK
6
CONTINUOUS
10
3.08175
20
0.285247
11
3.09101
21
0.275286
0
LINE
8
BLACK
6
CONTINUOUS
10
3.09101
20
0.275286
11
3.09906
21
0.264327
0
LINE
8
BLACK
6
CONTINUOUS
10
3.09906
20
0.264327
11
3.10579
21
0.252516
0
LINE
8
BLACK
6
CONTINUOUS
10
3.10579
20
0.252516
11
3.11113
21
0.240008
0
LINE
8
BLACK
6
CONTINUOUS
10
3.11113
20
0.240008
11
3.11499
21
0.226971
0
LINE
8
BLACK
6
CONTINUOUS
10
3.11499
20
0.226971
11
3.11733
21
0.213575
0
LINE
8
BLACK
6
CONTINUOUS
10
3.11733
20
0.213575
11
3.11811
21
0.2
0
LINE
8
BLACK
6
CONTINUOUS
10
3.11811
20
0.2
11
3.11788
21
0.192584
0
LINE
8
BLACK
6
CONTINUOUS
10
3.11788
20
0.192584
11
3.11624
21
0.179084
0
LINE
8
BLACK
6
CONTINUOUS
10
3.11624
20
0.179084
11
3.11307
21
0.165862
0
LINE
8
BLACK
6
CONTINUOUS
10
3.11307
20
0.165862
11
3.1084
21
0.153093
0
LINE
8
BLACK
6
CONTINUOUS
10
3.1084
20
0.153093
11
3.10229
21
0.140945
0
LINE
8
BLACK
6
CONTINUOUS
10
3.10229
20
0.140945
11
3.09482
21
0.12958
0
LINE
8
BLACK
6
CONTINUOUS
10
3.09482
20
0.12958
11
3.0861
21
0.119148
0
LINE
8
BLACK
6
CONTINUOUS
10
3.0861
20
0.119148
11
3.07624
21
0.109788
0
LINE
8
BLACK
6
CONTINUOUS
10
3.07624
20
0.109788
11
3.06536
21
0.101623
0
LINE
8
BLACK
6
CONTINUOUS
10
3.06536
20
0.101623
11
3.05362
21
0.094763
0
LINE
8
BLACK
6
CONTINUOUS
10
3.05362
20
0.094763
11
3.04117
21
0.0892974
0
LINE
8
BLACK
6
CONTINUOUS
10
3.04117
20
0.0892974
11
3.02817
21
0.0852991
0
LINE
8
BLACK
6
CONTINUOUS
10
3.02817
20
0.0852991
11
3.0148
21
0.0828211
0
LINE
8
BLACK
6
CONTINUOUS
10
3.0148
20
0.0828211
11
3.00124
21
0.0818962
0
LINE
8
BLACK
6
CONTINUOUS
10
3.00124
20
0.0818962
11
2.98765
21
0.0825368
0
LINE
8
BLACK
6
CONTINUOUS
10
2.98765
20
0.0825368
11
2.97424
21
0.0847343
0
LINE
8
BLACK
6
CONTINUOUS
10
2.97424
20
0.0847343
11
2.96116
21
0.0884595
0
LINE
8
BLACK
6
CONTINUOUS
10
2.96116
20
0.0884595
11
2.94859
21
0.0936631
0
LINE
8
BLACK
6
CONTINUOUS
10
2.94859
20
0.0936631
11
2.93671
21
0.100276
0
LINE
8
BLACK
6
CONTINUOUS
10
2.93671
20
0.100276
11
2.92567
21
0.108211
0
LINE
8
BLACK
6
CONTINUOUS
10
2.92567
20
0.108211
11
2.91561
21
0.117363
0
LINE
8
BLACK
6
CONTINUOUS
10
2.91561
20
0.117363
11
2.90667
21
0.127609
0
LINE
8
BLACK
6
CONTINUOUS
10
2.90667
20
0.127609
11
2.89897
21
0.138816
0
LINE
8
BLACK
6
CONTINUOUS
10
2.89897
20
0.138816
11
2.89261
21
0.150833
0
LINE
8
BLACK
6
CONTINUOUS
10
2.89261
20
0.150833
11
2.88767
21
0.163502
0
LINE
8
BLACK
6
CONTINUOUS
10
2.88767
20
0.163502
11
2.88422
21
0.176655
0
LINE
8
BLACK
6
CONTINUOUS
10
2.88422
20
0.176655
11
2.8823
21
0.190117
0
LINE
8
BLACK
6
CONTINUOUS
10
2.8823
20
0.190117
11
2.88195
21
0.20371
0
LINE
8
BLACK
6
CONTINUOUS
10
2.88195
20
0.20371
11
2.88316
21
0.217254
0
LINE
8
BLACK
6
CONTINUOUS
10
2.88316
20
0.217254
11
2.88591
21
0.230569
0
LINE
8
BLACK
6
CONTINUOUS
10
2.88591
20
0.230569
11
2.89018
21
0.243479
0
LINE
8
BLACK
6
CONTINUOUS
10
2.89018
20
0.243479
11
2.89591
21
0.255813
0
LINE
8
BLACK
6
CONTINUOUS
10
2.89591
20
0.255813
11
2.90301
21
0.267407
0
LINE
8
BLACK
6
CONTINUOUS
10
2.90301
20
0.267407
11
2.9114
21
0.278108
0
LINE
8
BLACK
6
CONTINUOUS
10
2.9114
20
0.278108
11
2.92097
21
0.287773
0
LINE
8
BLACK
6
CONTINUOUS
10
2.92097
20
0.287773
11
2.93158
21
0.296275
0
LINE
8
BLACK
6
CONTINUOUS
10
2.93158
20
0.296275
11
2.9431
21
0.303501
0
LINE
8
BLACK
6
CONTINUOUS
10
2.9431
20
0.303501
11
2.95537
21
0.309355
0
LINE
8
BLACK
6
CONTINUOUS
10
2.95537
20
0.309355
11
2.96824
21
0.313759
0
LINE
8
BLACK
6
CONTINUOUS
10
2.96824
20
0.313759
11
2.98152
21
0.316656
0
LINE
8
BLACK
6
CONTINUOUS
10
2.98152
20
0.316656
11
2.99505
21
0.318007
0
LINE
8
BLACK
6
CONTINUOUS
10
2.99505
20
0.318007
11
3.00865
21
0.317793
0
LINE
8
BLACK
6
CONTINUOUS
10
2.80202
20
0.0984173
11
2.73602
21
0.0984173
0
LINE
8
BLACK
6
CONTINUOUS
10
2.73602
20
0.0984173
11
2.73602
21
0.164417
0
LINE
8
BLACK
6
CONTINUOUS
10
2.73602
20
0.164417
11
2.80202
21
0.164417
0
LINE
8
BLACK
6
CONTINUOUS
10
2.80202
20
0.164417
11
2.80202
21
0.0984173
0
LINE
8
BLACK
6
CONTINUOUS
10
2.55398
20
0.0984173
11
2.48798
21
0.0984173
0
LINE
8
BLACK
6
CONTINUOUS
10
2.48798
20
0.0984173
11
2.48798
21
0.164417
0
LINE
8
BLACK
6
CONTINUOUS
10
2.48798
20
0.164417
11
2.55398
21
0.164417
0
LINE
8
BLACK
6
CONTINUOUS
10
2.55398
20
0.164417
11
2.55398
21
0.0984173
0
LINE
8
BLACK
6
CONTINUOUS
10
1.58
20
0.12
11
1.52
21
0.12
0
LINE
8
BLACK
6
CONTINUOUS
10
1.52
20
0.12
11
1.52
21
0.18
0
LINE
8
BLACK
6
CONTINUOUS
10
1.52
20
0.18
11
1.58
21
0.18
0
LINE
8
BLACK
6
CONTINUOUS
10
1.58
20
0.18
11
1.58
21
0.12
0
LINE
8
BLACK
6
CONTINUOUS
10
1.48
20
0.12
11
1.42
21
0.12
0
LINE
8
BLACK
6
CONTINUOUS
10
1.42
20
0.12
11
1.42
21
0.18
0
LINE
8
BLACK
6
CONTINUOUS
10
1.42
20
0.18
11
1.48
21
0.18
0
LINE
8
BLACK
6
CONTINUOUS
10
1.48
20
0.18
11
1.48
21
0.12
0
LINE
8
BLACK
6
CONTINUOUS
10
1.28
20
0.12
11
1.22
21
0.12
0
LINE
8
BLACK
6
CONTINUOUS
10
1.22
20
0.12
11
1.22
21
0.18
0
LINE
8
BLACK
6
CONTINUOUS
10
1.22
20
0.18
11
1.28
21
0.18
0
LINE
8
BLACK
6
CONTINUOUS
10
1.28
20
0.18
11
1.28
21
0.12
0
LINE
8
BLACK
6
CONTINUOUS
10
1.38
20
0.12
11
1.32
21
0.12
0
LINE
8
BLACK
6
CONTINUOUS
10
1.32
20
0.12
11
1.32
21
0.18
0
LINE
8
BLACK
6
CONTINUOUS
10
1.32
20
0.18
11
1.38
21
0.18
0
LINE
8
BLACK
6
CONTINUOUS
10
1.38
20
0.18
11
1.38
21
0.12
0
LINE
8
BLACK
6
CONTINUOUS
10
2.41923
20
0.227342
11
2.42818
21
0.224944
0
LINE
8
BLACK
6
CONTINUOUS
10
2.42818
20
0.224944
11
2.43657
21
0.221029
0
LINE
8
BLACK
6
CONTINUOUS
10
2.43657
20
0.221029
11
2.44416
21
0.215715
0
LINE
8
BLACK
6
CONTINUOUS
10
2.44416
20
0.215715
11
2.45071
21
0.209164
0
LINE
8
BLACK
6
CONTINUOUS
10
2.45071
20
0.209164
11
2.45603
21
0.201575
0
LINE
8
BLACK
6
CONTINUOUS
10
2.45603
20
0.201575
11
2.45994
21
0.193178
0
LINE
8
BLACK
6
CONTINUOUS
10
2.45994
20
0.193178
11
2.46234
21
0.184229
0
LINE
8
BLACK
6
CONTINUOUS
10
2.46234
20
0.184229
11
2.46315
21
0.175
0
LINE
8
BLACK
6
CONTINUOUS
10
2.46315
20
0.175
11
2.46234
21
0.165771
0
LINE
8
BLACK
6
CONTINUOUS
10
2.46234
20
0.165771
11
2.45994
21
0.156822
0
LINE
8
BLACK
6
CONTINUOUS
10
2.45994
20
0.156822
11
2.45603
21
0.148425
0
LINE
8
BLACK
6
CONTINUOUS
10
2.45603
20
0.148425
11
2.45071
21
0.140836
0
LINE
8
BLACK
6
CONTINUOUS
10
2.45071
20
0.140836
11
2.44416
21
0.134285
0
LINE
8
BLACK
6
CONTINUOUS
10
2.44416
20
0.134285
11
2.43657
21
0.128971
0
LINE
8
BLACK
6
CONTINUOUS
10
2.43657
20
0.128971
11
2.42818
21
0.125056
0
LINE
8
BLACK
6
CONTINUOUS
10
2.42818
20
0.125056
11
2.41923
21
0.122658
0
LINE
8
BLACK
6
CONTINUOUS
10
2.41923
20
0.122658
11
2.41
21
0.12185
0
LINE
8
BLACK
6
CONTINUOUS
10
2.41
20
0.12185
11
2.40077
21
0.122658
0
LINE
8
BLACK
6
CONTINUOUS
10
2.40077
20
0.122658
11
2.39182
21
0.125056
0
LINE
8
BLACK
6
CONTINUOUS
10
2.39182
20
0.125056
11
2.38343
21
0.128971
0
LINE
8
BLACK
6
CONTINUOUS
10
2.38343
20
0.128971
11
2.37584
21
0.134285
0
LINE
8
BLACK
6
CONTINUOUS
10
2.37584
20
0.134285
11
2.36929
21
0.140836
0
LINE
8
BLACK
6
CONTINUOUS
10
2.36929
20
0.140836
11
2.36397
21
0.148425
0
LINE
8
BLACK
6
CONTINUOUS
10
2.36397
20
0.148425
11
2.36006
21
0.156822
0
LINE
8
BLACK
6
CONTINUOUS
10
2.36006
20
0.156822
11
2.35766
21
0.165771
0
LINE
8
BLACK
6
CONTINUOUS
10
2.35766
20
0.165771
11
2.3575
21
0.167575
0
LINE
8
BLACK
6
CONTINUOUS
10
2.3575
20
0.167575
11
2.35734
21
0.165771
0
LINE
8
BLACK
6
CONTINUOUS
10
2.35734
20
0.165771
11
2.35494
21
0.156822
0
LINE
8
BLACK
6
CONTINUOUS
10
2.35494
20
0.156822
11
2.35103
21
0.148425
0
LINE
8
BLACK
6
CONTINUOUS
10
2.35103
20
0.148425
11
2.34571
21
0.140836
0
LINE
8
BLACK
6
CONTINUOUS
10
2.34571
20
0.140836
11
2.33916
21
0.134285
0
LINE
8
BLACK
6
CONTINUOUS
10
2.33916
20
0.134285
11
2.33157
21
0.128971
0
LINE
8
BLACK
6
CONTINUOUS
10
2.33157
20
0.128971
11
2.32318
21
0.125056
0
LINE
8
BLACK
6
CONTINUOUS
10
2.32318
20
0.125056
11
2.31423
21
0.122658
0
LINE
8
BLACK
6
CONTINUOUS
10
2.31423
20
0.122658
11
2.305
21
0.12185
0
LINE
8
BLACK
6
CONTINUOUS
10
2.305
20
0.12185
11
2.29577
21
0.122658
0
LINE
8
BLACK
6
CONTINUOUS
10
2.29577
20
0.122658
11
2.28682
21
0.125056
0
LINE
8
BLACK
6
CONTINUOUS
10
2.28682
20
0.125056
11
2.27843
21
0.128971
0
LINE
8
BLACK
6
CONTINUOUS
10
2.27843
20
0.128971
11
2.27084
21
0.134285
0
LINE
8
BLACK
6
CONTINUOUS
10
2.27084
20
0.134285
11
2.26429
21
0.140836
0
LINE
8
BLACK
6
CONTINUOUS
10
2.26429
20
0.140836
11
2.25897
21
0.148425
0
LINE
8
BLACK
6
CONTINUOUS
10
2.25897
20
0.148425
11
2.25506
21
0.156822
0
LINE
8
BLACK
6
CONTINUOUS
10
2.25506
20
0.156822
11
2.25266
21
0.165771
0
LINE
8
BLACK
6
CONTINUOUS
10
2.25266
20
0.165771
11
2.2525
21
0.167575
0
LINE
8
BLACK
6
CONTINUOUS
10
2.2525
20
0.167575
11
2.25234
21
0.165771
0
LINE
8
BLACK
6
CONTINUOUS
10
2.25234
20
0.165771
11
2.24994
21
0.156822
0
LINE
8
BLACK
6
CONTINUOUS
10
2.24994
20
0.156822
11
2.24603
21
0.148425
0
LINE
8
BLACK
6
CONTINUOUS
10
2.24603
20
0.148425
11
2.24071
21
0.140836
0
LINE
8
BLACK
6
CONTINUOUS
10
2.24071
20
0.140836
11
2.23416
21
0.134285
0
LINE
8
BLACK
6
CONTINUOUS
10
2.23416
20
0.134285
11
2.22657
21
0.128971
0
LINE
8
BLACK
6
CONTINUOUS
10
2.22657
20
0.128971
11
2.21818
21
0.125056
0
LINE
8
BLACK
6
CONTINUOUS
10
2.21818
20
0.125056
11
2.20923
21
0.122658
0
LINE
8
BLACK
6
CONTINUOUS
10
2.20923
20
0.122658
11
2.2
21
0.12185
0
LINE
8
BLACK
6
CONTINUOUS
10
2.2
20
0.12185
11
2.19077
21
0.122658
0
LINE
8
BLACK
6
CONTINUOUS
10
2.19077
20
0.122658
11
2.18182
21
0.125056
0
LINE
8
BLACK
6
CONTINUOUS
10
2.18182
20
0.125056
11
2.17343
21
0.128971
0
LINE
8
BLACK
6
CONTINUOUS
10
2.17343
20
0.128971
11
2.16584
21
0.134285
0
LINE
8
BLACK
6
CONTINUOUS
10
2.16584
20
0.134285
11
2.15929
21
0.140836
0
LINE
8
BLACK
6
CONTINUOUS
10
2.15929
20
0.140836
11
2.15397
21
0.148425
0
LINE
8
BLACK
6
CONTINUOUS
10
2.15397
20
0.148425
11
2.15006
21
0.156822
0
LINE
8
BLACK
6
CONTINUOUS
10
2.15006
20
0.156822
11
2.14766
21
0.165771
0
LINE
8
BLACK
6
CONTINUOUS
10
2.14766
20
0.165771
11
2.1475
21
0.167575
0
LINE
8
BLACK
6
CONTINUOUS
10
2.1475
20
0.167575
11
2.14734
21
0.165771
0
LINE
8
BLACK
6
CONTINUOUS
10
2.14734
20
0.165771
11
2.14494
21
0.156822
0
LINE
8
BLACK
6
CONTINUOUS
10
2.14494
20
0.156822
11
2.14103
21
0.148425
0
LINE
8
BLACK
6
CONTINUOUS
10
2.14103
20
0.148425
11
2.13571
21
0.140836
0
LINE
8
BLACK
6
CONTINUOUS
10
2.13571
20
0.140836
11
2.12916
21
0.134285
0
LINE
8
BLACK
6
CONTINUOUS
10
2.12916
20
0.134285
11
2.12157
21
0.128971
0
LINE
8
BLACK
6
CONTINUOUS
10
2.12157
20
0.128971
11
2.11318
21
0.125056
0
LINE
8
BLACK
6
CONTINUOUS
10
2.11318
20
0.125056
11
2.10423
21
0.122658
0
LINE
8
BLACK
6
CONTINUOUS
10
2.10423
20
0.122658
11
2.095
21
0.12185
0
LINE
8
BLACK
6
CONTINUOUS
10
2.095
20
0.12185
11
2.08577
21
0.122658
0
LINE
8
BLACK
6
CONTINUOUS
10
2.08577
20
0.122658
11
2.07682
21
0.125056
0
LINE
8
BLACK
6
CONTINUOUS
10
2.07682
20
0.125056
11
2.06843
21
0.128971
0
LINE
8
BLACK
6
CONTINUOUS
10
2.06843
20
0.128971
11
2.06084
21
0.134285
0
LINE
8
BLACK
6
CONTINUOUS
10
2.06084
20
0.134285
11
2.05429
21
0.140836
0
LINE
8
BLACK
6
CONTINUOUS
10
2.05429
20
0.140836
11
2.04897
21
0.148425
0
LINE
8
BLACK
6
CONTINUOUS
10
2.04897
20
0.148425
11
2.04506
21
0.156822
0
LINE
8
BLACK
6
CONTINUOUS
10
2.04506
20
0.156822
11
2.04266
21
0.165771
0
LINE
8
BLACK
6
CONTINUOUS
10
2.04266
20
0.165771
11
2.0425
21
0.167575
0
LINE
8
BLACK
6
CONTINUOUS
10
2.0425
20
0.167575
11
2.04234
21
0.165771
0
LINE
8
BLACK
6
CONTINUOUS
10
2.04234
20
0.165771
11
2.03994
21
0.156822
0
LINE
8
BLACK
6
CONTINUOUS
10
2.03994
20
0.156822
11
2.03603
21
0.148425
0
LINE
8
BLACK
6
CONTINUOUS
10
2.03603
20
0.148425
11
2.03071
21
0.140836
0
LINE
8
BLACK
6
CONTINUOUS
10
2.03071
20
0.140836
11
2.02416
21
0.134285
0
LINE
8
BLACK
6
CONTINUOUS
10
2.02416
20
0.134285
11
2.01657
21
0.128971
0
LINE
8
BLACK
6
CONTINUOUS
10
2.01657
20
0.128971
11
2.00818
21
0.125056
0
LINE
8
BLACK
6
CONTINUOUS
10
2.00818
20
0.125056
11
1.99923
21
0.122658
0
LINE
8
BLACK
6
CONTINUOUS
10
1.99923
20
0.122658
11
1.99
21
0.12185
0
LINE
8
BLACK
6
CONTINUOUS
10
1.99
20
0.12185
11
1.98077
21
0.122658
0
LINE
8
BLACK
6
CONTINUOUS
10
1.98077
20
0.122658
11
1.97182
21
0.125056
0
LINE
8
BLACK
6
CONTINUOUS
10
1.97182
20
0.125056
11
1.96343
21
0.128971
0
LINE
8
BLACK
6
CONTINUOUS
10
1.96343
20
0.128971
11
1.95584
21
0.134285
0
LINE
8
BLACK
6
CONTINUOUS
10
1.95584
20
0.134285
11
1.94929
21
0.140836
0
LINE
8
BLACK
6
CONTINUOUS
10
1.94929
20
0.140836
11
1.94397
21
0.148425
0
LINE
8
BLACK
6
CONTINUOUS
10
1.94397
20
0.148425
11
1.94006
21
0.156822
0
LINE
8
BLACK
6
CONTINUOUS
10
1.94006
20
0.156822
11
1.93766
21
0.165771
0
LINE
8
BLACK
6
CONTINUOUS
10
1.93766
20
0.165771
11
1.9375
21
0.167575
0
LINE
8
BLACK
6
CONTINUOUS
10
1.9375
20
0.167575
11
1.93734
21
0.165771
0
LINE
8
BLACK
6
CONTINUOUS
10
1.93734
20
0.165771
11
1.93494
21
0.156822
0
LINE
8
BLACK
6
CONTINUOUS
10
1.93494
20
0.156822
11
1.93103
21
0.148425
0
LINE
8
BLACK
6
CONTINUOUS
10
1.93103
20
0.148425
11
1.92571
21
0.140836
0
LINE
8
BLACK
6
CONTINUOUS
10
1.92571
20
0.140836
11
1.91916
21
0.134285
0
LINE
8
BLACK
6
CONTINUOUS
10
1.91916
20
0.134285
11
1.91157
21
0.128971
0
LINE
8
BLACK
6
CONTINUOUS
10
1.91157
20
0.128971
11
1.90318
21
0.125056
0
LINE
8
BLACK
6
CONTINUOUS
10
1.90318
20
0.125056
11
1.89423
21
0.122658
0
LINE
8
BLACK
6
CONTINUOUS
10
1.89423
20
0.122658
11
1.885
21
0.12185
0
LINE
8
BLACK
6
CONTINUOUS
10
1.885
20
0.12185
11
1.87577
21
0.122658
0
LINE
8
BLACK
6
CONTINUOUS
10
1.87577
20
0.122658
11
1.86682
21
0.125056
0
LINE
8
BLACK
6
CONTINUOUS
10
1.86682
20
0.125056
11
1.85843
21
0.128971
0
LINE
8
BLACK
6
CONTINUOUS
10
1.85843
20
0.128971
11
1.85084
21
0.134285
0
LINE
8
BLACK
6
CONTINUOUS
10
1.85084
20
0.134285
11
1.84429
21
0.140836
0
LINE
8
BLACK
6
CONTINUOUS
10
1.84429
20
0.140836
11
1.83897
21
0.148425
0
LINE
8
BLACK
6
CONTINUOUS
10
1.83897
20
0.148425
11
1.83506
21
0.156822
0
LINE
8
BLACK
6
CONTINUOUS
10
1.83506
20
0.156822
11
1.83266
21
0.165771
0
LINE
8
BLACK
6
CONTINUOUS
10
1.83266
20
0.165771
11
1.8325
21
0.167575
0
LINE
8
BLACK
6
CONTINUOUS
10
1.8325
20
0.167575
11
1.83234
21
0.165771
0
LINE
8
BLACK
6
CONTINUOUS
10
1.83234
20
0.165771
11
1.82994
21
0.156822
0
LINE
8
BLACK
6
CONTINUOUS
10
1.82994
20
0.156822
11
1.82603
21
0.148425
0
LINE
8
BLACK
6
CONTINUOUS
10
1.82603
20
0.148425
11
1.82071
21
0.140836
0
LINE
8
BLACK
6
CONTINUOUS
10
1.82071
20
0.140836
11
1.81416
21
0.134285
0
LINE
8
BLACK
6
CONTINUOUS
10
1.81416
20
0.134285
11
1.80657
21
0.128971
0
LINE
8
BLACK
6
CONTINUOUS
10
1.80657
20
0.128971
11
1.79818
21
0.125056
0
LINE
8
BLACK
6
CONTINUOUS
10
1.79818
20
0.125056
11
1.78923
21
0.122658
0
LINE
8
BLACK
6
CONTINUOUS
10
1.78923
20
0.122658
11
1.78
21
0.12185
0
LINE
8
BLACK
6
CONTINUOUS
10
1.78
20
0.12185
11
1.77077
21
0.122658
0
LINE
8
BLACK
6
CONTINUOUS
10
1.77077
20
0.122658
11
1.76182
21
0.125056
0
LINE
8
BLACK
6
CONTINUOUS
10
1.76182
20
0.125056
11
1.75343
21
0.128971
0
LINE
8
BLACK
6
CONTINUOUS
10
1.75343
20
0.128971
11
1.74584
21
0.134285
0
LINE
8
BLACK
6
CONTINUOUS
10
1.74584
20
0.134285
11
1.73929
21
0.140836
0
LINE
8
BLACK
6
CONTINUOUS
10
1.73929
20
0.140836
11
1.73397
21
0.148425
0
LINE
8
BLACK
6
CONTINUOUS
10
1.73397
20
0.148425
11
1.73006
21
0.156822
0
LINE
8
BLACK
6
CONTINUOUS
10
1.73006
20
0.156822
11
1.72766
21
0.165771
0
LINE
8
BLACK
6
CONTINUOUS
10
1.72766
20
0.165771
11
1.7275
21
0.167575
0
LINE
8
BLACK
6
CONTINUOUS
10
1.7275
20
0.167575
11
1.72734
21
0.165771
0
LINE
8
BLACK
6
CONTINUOUS
10
1.72734
20
0.165771
11
1.72494
21
0.156822
0
LINE
8
BLACK
6
CONTINUOUS
10
1.72494
20
0.156822
11
1.72103
21
0.148425
0
LINE
8
BLACK
6
CONTINUOUS
10
1.72103
20
0.148425
11
1.71571
21
0.140836
0
LINE
8
BLACK
6
CONTINUOUS
10
1.71571
20
0.140836
11
1.70916
21
0.134285
0
LINE
8
BLACK
6
CONTINUOUS
10
1.70916
20
0.134285
11
1.70157
21
0.128971
0
LINE
8
BLACK
6
CONTINUOUS
10
1.70157
20
0.128971
11
1.69318
21
0.125056
0
LINE
8
BLACK
6
CONTINUOUS
10
1.69318
20
0.125056
11
1.68423
21
0.122658
0
LINE
8
BLACK
6
CONTINUOUS
10
1.68423
20
0.122658
11
1.675
21
0.12185
0
LINE
8
BLACK
6
CONTINUOUS
10
1.675
20
0.12185
11
1.66577
21
0.122658
0
LINE
8
BLACK
6
CONTINUOUS
10
1.66577
20
0.122658
11
1.65682
21
0.125056
0
LINE
8
BLACK
6
CONTINUOUS
10
1.65682
20
0.125056
11
1.64843
21
0.128971
0
LINE
8
BLACK
6
CONTINUOUS
10
1.64843
20
0.128971
11
1.64084
21
0.134285
0
LINE
8
BLACK
6
CONTINUOUS
10
1.64084
20
0.134285
11
1.63429
21
0.140836
0
LINE
8
BLACK
6
CONTINUOUS
10
1.63429
20
0.140836
11
1.62897
21
0.148425
0
LINE
8
BLACK
6
CONTINUOUS
10
1.62897
20
0.148425
11
1.62506
21
0.156822
0
LINE
8
BLACK
6
CONTINUOUS
10
1.62506
20
0.156822
11
1.62266
21
0.165771
0
LINE
8
BLACK
6
CONTINUOUS
10
1.62266
20
0.165771
11
1.62185
21
0.175
0
LINE
8
BLACK
6
CONTINUOUS
10
1.62185
20
0.175
11
1.62266
21
0.184229
0
LINE
8
BLACK
6
CONTINUOUS
10
1.62266
20
0.184229
11
1.62506
21
0.193178
0
LINE
8
BLACK
6
CONTINUOUS
10
1.62506
20
0.193178
11
1.62897
21
0.201575
0
LINE
8
BLACK
6
CONTINUOUS
10
1.62897
20
0.201575
11
1.63429
21
0.209164
0
LINE
8
BLACK
6
CONTINUOUS
10
1.63429
20
0.209164
11
1.64084
21
0.215715
0
LINE
8
BLACK
6
CONTINUOUS
10
1.64084
20
0.215715
11
1.64843
21
0.221029
0
LINE
8
BLACK
6
CONTINUOUS
10
1.64843
20
0.221029
11
1.65682
21
0.224944
0
LINE
8
BLACK
6
CONTINUOUS
10
1.65682
20
0.224944
11
1.66577
21
0.227342
0
LINE
8
BLACK
6
CONTINUOUS
10
1.66577
20
0.227342
11
1.675
21
0.22815
0
LINE
8
BLACK
6
CONTINUOUS
10
1.675
20
0.22815
11
1.68423
21
0.227342
0
LINE
8
BLACK
6
CONTINUOUS
10
1.68423
20
0.227342
11
1.69318
21
0.224944
0
LINE
8
BLACK
6
CONTINUOUS
10
1.69318
20
0.224944
11
1.70157
21
0.221029
0
LINE
8
BLACK
6
CONTINUOUS
10
1.70157
20
0.221029
11
1.70916
21
0.215715
0
LINE
8
BLACK
6
CONTINUOUS
10
1.70916
20
0.215715
11
1.71571
21
0.209164
0
LINE
8
BLACK
6
CONTINUOUS
10
1.71571
20
0.209164
11
1.72103
21
0.201575
0
LINE
8
BLACK
6
CONTINUOUS
10
1.72103
20
0.201575
11
1.72494
21
0.193178
0
LINE
8
BLACK
6
CONTINUOUS
10
1.72494
20
0.193178
11
1.72734
21
0.184229
0
LINE
8
BLACK
6
CONTINUOUS
10
1.72734
20
0.184229
11
1.7275
21
0.182425
0
LINE
8
BLACK
6
CONTINUOUS
10
1.7275
20
0.182425
11
1.72766
21
0.184229
0
LINE
8
BLACK
6
CONTINUOUS
10
1.72766
20
0.184229
11
1.73006
21
0.193178
0
LINE
8
BLACK
6
CONTINUOUS
10
1.73006
20
0.193178
11
1.73397
21
0.201575
0
LINE
8
BLACK
6
CONTINUOUS
10
1.73397
20
0.201575
11
1.73929
21
0.209164
0
LINE
8
BLACK
6
CONTINUOUS
10
1.73929
20
0.209164
11
1.74584
21
0.215715
0
LINE
8
BLACK
6
CONTINUOUS
10
1.74584
20
0.215715
11
1.75343
21
0.221029
0
LINE
8
BLACK
6
CONTINUOUS
10
1.75343
20
0.221029
11
1.76182
21
0.224944
0
LINE
8
BLACK
6
CONTINUOUS
10
1.76182
20
0.224944
11
1.77077
21
0.227342
0
LINE
8
BLACK
6
CONTINUOUS
10
1.77077
20
0.227342
11
1.78
21
0.22815
0
LINE
8
BLACK
6
CONTINUOUS
10
1.78
20
0.22815
11
1.78923
21
0.227342
0
LINE
8
BLACK
6
CONTINUOUS
10
1.78923
20
0.227342
11
1.79818
21
0.224944
0
LINE
8
BLACK
6
CONTINUOUS
10
1.79818
20
0.224944
11
1.80657
21
0.221029
0
LINE
8
BLACK
6
CONTINUOUS
10
1.80657
20
0.221029
11
1.81416
21
0.215715
0
LINE
8
BLACK
6
CONTINUOUS
10
1.81416
20
0.215715
11
1.82071
21
0.209164
0
LINE
8
BLACK
6
CONTINUOUS
10
1.82071
20
0.209164
11
1.82603
21
0.201575
0
LINE
8
BLACK
6
CONTINUOUS
10
1.82603
20
0.201575
11
1.82994
21
0.193178
0
LINE
8
BLACK
6
CONTINUOUS
10
1.82994
20
0.193178
11
1.83234
21
0.184229
0
LINE
8
BLACK
6
CONTINUOUS
10
1.83234
20
0.184229
11
1.8325
21
0.182425
0
LINE
8
BLACK
6
CONTINUOUS
10
1.8325
20
0.182425
11
1.83266
21
0.184229
0
LINE
8
BLACK
6
CONTINUOUS
10
1.83266
20
0.184229
11
1.83506
21
0.193178
0
LINE
8
BLACK
6
CONTINUOUS
10
1.83506
20
0.193178
11
1.83897
21
0.201575
0
LINE
8
BLACK
6
CONTINUOUS
10
1.83897
20
0.201575
11
1.84429
21
0.209164
0
LINE
8
BLACK
6
CONTINUOUS
10
1.84429
20
0.209164
11
1.85084
21
0.215715
0
LINE
8
BLACK
6
CONTINUOUS
10
1.85084
20
0.215715
11
1.85843
21
0.221029
0
LINE
8
BLACK
6
CONTINUOUS
10
1.85843
20
0.221029
11
1.86682
21
0.224944
0
LINE
8
BLACK
6
CONTINUOUS
10
1.86682
20
0.224944
11
1.87577
21
0.227342
0
LINE
8
BLACK
6
CONTINUOUS
10
1.87577
20
0.227342
11
1.885
21
0.22815
0
LINE
8
BLACK
6
CONTINUOUS
10
1.885
20
0.22815
11
1.89423
21
0.227342
0
LINE
8
BLACK
6
CONTINUOUS
10
1.89423
20
0.227342
11
1.90318
21
0.224944
0
LINE
8
BLACK
6
CONTINUOUS
10
1.90318
20
0.224944
11
1.91157
21
0.221029
0
LINE
8
BLACK
6
CONTINUOUS
10
1.91157
20
0.221029
11
1.91916
21
0.215715
0
LINE
8
BLACK
6
CONTINUOUS
10
1.91916
20
0.215715
11
1.92571
21
0.209164
0
LINE
8
BLACK
6
CONTINUOUS
10
1.92571
20
0.209164
11
1.93103
21
0.201575
0
LINE
8
BLACK
6
CONTINUOUS
10
1.93103
20
0.201575
11
1.93494
21
0.193178
0
LINE
8
BLACK
6
CONTINUOUS
10
1.93494
20
0.193178
11
1.93734
21
0.184229
0
LINE
8
BLACK
6
CONTINUOUS
10
1.93734
20
0.184229
11
1.9375
21
0.182425
0
LINE
8
BLACK
6
CONTINUOUS
10
1.9375
20
0.182425
11
1.93766
21
0.184229
0
LINE
8
BLACK
6
CONTINUOUS
10
1.93766
20
0.184229
11
1.94006
21
0.193178
0
LINE
8
BLACK
6
CONTINUOUS
10
1.94006
20
0.193178
11
1.94397
21
0.201575
0
LINE
8
BLACK
6
CONTINUOUS
10
1.94397
20
0.201575
11
1.94929
21
0.209164
0
LINE
8
BLACK
6
CONTINUOUS
10
1.94929
20
0.209164
11
1.95584
21
0.215715
0
LINE
8
BLACK
6
CONTINUOUS
10
1.95584
20
0.215715
11
1.96343
21
0.221029
0
LINE
8
BLACK
6
CONTINUOUS
10
1.96343
20
0.221029
11
1.97182
21
0.224944
0
LINE
8
BLACK
6
CONTINUOUS
10
1.97182
20
0.224944
11
1.98077
21
0.227342
0
LINE
8
BLACK
6
CONTINUOUS
10
1.98077
20
0.227342
11
1.99
21
0.22815
0
LINE
8
BLACK
6
CONTINUOUS
10
1.99
20
0.22815
11
1.99923
21
0.227342
0
LINE
8
BLACK
6
CONTINUOUS
10
1.99923
20
0.227342
11
2.00818
21
0.224944
0
LINE
8
BLACK
6
CONTINUOUS
10
2.00818
20
0.224944
11
2.01657
21
0.221029
0
LINE
8
BLACK
6
CONTINUOUS
10
2.01657
20
0.221029
11
2.02416
21
0.215715
0
LINE
8
BLACK
6
CONTINUOUS
10
2.02416
20
0.215715
11
2.03071
21
0.209164
0
LINE
8
BLACK
6
CONTINUOUS
10
2.03071
20
0.209164
11
2.03603
21
0.201575
0
LINE
8
BLACK
6
CONTINUOUS
10
2.03603
20
0.201575
11
2.03994
21
0.193178
0
LINE
8
BLACK
6
CONTINUOUS
10
2.03994
20
0.193178
11
2.04234
21
0.184229
0
LINE
8
BLACK
6
CONTINUOUS
10
2.04234
20
0.184229
11
2.0425
21
0.182425
0
LINE
8
BLACK
6
CONTINUOUS
10
2.0425
20
0.182425
11
2.04266
21
0.184229
0
LINE
8
BLACK
6
CONTINUOUS
10
2.04266
20
0.184229
11
2.04506
21
0.193178
0
LINE
8
BLACK
6
CONTINUOUS
10
2.04506
20
0.193178
11
2.04897
21
0.201575
0
LINE
8
BLACK
6
CONTINUOUS
10
2.04897
20
0.201575
11
2.05429
21
0.209164
0
LINE
8
BLACK
6
CONTINUOUS
10
2.05429
20
0.209164
11
2.06084
21
0.215715
0
LINE
8
BLACK
6
CONTINUOUS
10
2.06084
20
0.215715
11
2.06843
21
0.221029
0
LINE
8
BLACK
6
CONTINUOUS
10
2.06843
20
0.221029
11
2.07682
21
0.224944
0
LINE
8
BLACK
6
CONTINUOUS
10
2.07682
20
0.224944
11
2.08577
21
0.227342
0
LINE
8
BLACK
6
CONTINUOUS
10
2.08577
20
0.227342
11
2.095
21
0.22815
0
LINE
8
BLACK
6
CONTINUOUS
10
2.095
20
0.22815
11
2.10423
21
0.227342
0
LINE
8
BLACK
6
CONTINUOUS
10
2.10423
20
0.227342
11
2.11318
21
0.224944
0
LINE
8
BLACK
6
CONTINUOUS
10
2.11318
20
0.224944
11
2.12157
21
0.221029
0
LINE
8
BLACK
6
CONTINUOUS
10
2.12157
20
0.221029
11
2.12916
21
0.215715
0
LINE
8
BLACK
6
CONTINUOUS
10
2.12916
20
0.215715
11
2.13571
21
0.209164
0
LINE
8
BLACK
6
CONTINUOUS
10
2.13571
20
0.209164
11
2.14103
21
0.201575
0
LINE
8
BLACK
6
CONTINUOUS
10
2.14103
20
0.201575
11
2.14494
21
0.193178
0
LINE
8
BLACK
6
CONTINUOUS
10
2.14494
20
0.193178
11
2.14734
21
0.184229
0
LINE
8
BLACK
6
CONTINUOUS
10
2.14734
20
0.184229
11
2.1475
21
0.182425
0
LINE
8
BLACK
6
CONTINUOUS
10
2.1475
20
0.182425
11
2.14766
21
0.184229
0
LINE
8
BLACK
6
CONTINUOUS
10
2.14766
20
0.184229
11
2.15006
21
0.193178
0
LINE
8
BLACK
6
CONTINUOUS
10
2.15006
20
0.193178
11
2.15397
21
0.201575
0
LINE
8
BLACK
6
CONTINUOUS
10
2.15397
20
0.201575
11
2.15929
21
0.209164
0
LINE
8
BLACK
6
CONTINUOUS
10
2.15929
20
0.209164
11
2.16584
21
0.215715
0
LINE
8
BLACK
6
CONTINUOUS
10
2.16584
20
0.215715
11
2.17343
21
0.221029
0
LINE
8
BLACK
6
CONTINUOUS
10
2.17343
20
0.221029
11
2.18182
21
0.224944
0
LINE
8
BLACK
6
CONTINUOUS
10
2.18182
20
0.224944
11
2.19077
21
0.227342
0
LINE
8
BLACK
6
CONTINUOUS
10
2.19077
20
0.227342
11
2.2
21
0.22815
0
LINE
8
BLACK
6
CONTINUOUS
10
2.2
20
0.22815
11
2.20923
21
0.227342
0
LINE
8
BLACK
6
CONTINUOUS
10
2.20923
20
0.227342
11
2.21818
21
0.224944
0
LINE
8
BLACK
6
CONTINUOUS
10
2.21818
20
0.224944
11
2.22657
21
0.221029
0
LINE
8
BLACK
6
CONTINUOUS
10
2.22657
20
0.221029
11
2.23416
21
0.215715
0
LINE
8
BLACK
6
CONTINUOUS
10
2.23416
20
0.215715
11
2.24071
21
0.209164
0
LINE
8
BLACK
6
CONTINUOUS
10
2.24071
20
0.209164
11
2.24603
21
0.201575
0
LINE
8
BLACK
6
CONTINUOUS
10
2.24603
20
0.201575
11
2.24994
21
0.193178
0
LINE
8
BLACK
6
CONTINUOUS
10
2.24994
20
0.193178
11
2.25234
21
0.184229
0
LINE
8
BLACK
6
CONTINUOUS
10
2.25234
20
0.184229
11
2.2525
21
0.182425
0
LINE
8
BLACK
6
CONTINUOUS
10
2.2525
20
0.182425
11
2.25266
21
0.184229
0
LINE
8
BLACK
6
CONTINUOUS
10
2.25266
20
0.184229
11
2.25506
21
0.193178
0
LINE
8
BLACK
6
CONTINUOUS
10
2.25506
20
0.193178
11
2.25897
21
0.201575
0
LINE
8
BLACK
6
CONTINUOUS
10
2.25897
20
0.201575
11
2.26429
21
0.209164
0
LINE
8
BLACK
6
CONTINUOUS
10
2.26429
20
0.209164
11
2.27084
21
0.215715
0
LINE
8
BLACK
6
CONTINUOUS
10
2.27084
20
0.215715
11
2.27843
21
0.221029
0
LINE
8
BLACK
6
CONTINUOUS
10
2.27843
20
0.221029
11
2.28682
21
0.224944
0
LINE
8
BLACK
6
CONTINUOUS
10
2.28682
20
0.224944
11
2.29577
21
0.227342
0
LINE
8
BLACK
6
CONTINUOUS
10
2.29577
20
0.227342
11
2.305
21
0.22815
0
LINE
8
BLACK
6
CONTINUOUS
10
2.305
20
0.22815
11
2.31423
21
0.227342
0
LINE
8
BLACK
6
CONTINUOUS
10
2.31423
20
0.227342
11
2.32318
21
0.224944
0
LINE
8
BLACK
6
CONTINUOUS
10
2.32318
20
0.224944
11
2.33157
21
0.221029
0
LINE
8
BLACK
6
CONTINUOUS
10
2.33157
20
0.221029
11
2.33916
21
0.215715
0
LINE
8
BLACK
6
CONTINUOUS
10
2.33916
20
0.215715
11
2.34571
21
0.209164
0
LINE
8
BLACK
6
CONTINUOUS
10
2.34571
20
0.209164
11
2.35103
21
0.201575
0
LINE
8
BLACK
6
CONTINUOUS
10
2.35103
20
0.201575
11
2.35494
21
0.193178
0
LINE
8
BLACK
6
CONTINUOUS
10
2.35494
20
0.193178
11
2.35734
21
0.184229
0
LINE
8
BLACK
6
CONTINUOUS
10
2.35734
20
0.184229
11
2.3575
21
0.182425
0
LINE
8
BLACK
6
CONTINUOUS
10
2.3575
20
0.182425
11
2.35766
21
0.184229
0
LINE
8
BLACK
6
CONTINUOUS
10
2.35766
20
0.184229
11
2.36006
21
0.193178
0
LINE
8
BLACK
6
CONTINUOUS
10
2.36006
20
0.193178
11
2.36397
21
0.201575
0
LINE
8
BLACK
6
CONTINUOUS
10
2.36397
20
0.201575
11
2.36929
21
0.209164
0
LINE
8
BLACK
6
CONTINUOUS
10
2.36929
20
0.209164
11
2.37584
21
0.215715
0
LINE
8
BLACK
6
CONTINUOUS
10
2.37584
20
0.215715
11
2.38343
21
0.221029
0
LINE
8
BLACK
6
CONTINUOUS
10
2.38343
20
0.221029
11
2.39182
21
0.224944
0
LINE
8
BLACK
6
CONTINUOUS
10
2.39182
20
0.224944
11
2.40077
21
0.227342
0
LINE
8
BLACK
6
CONTINUOUS
10
2.40077
20
0.227342
11
2.41
21
0.22815
0
LINE
8
BLACK
6
CONTINUOUS
10
2.41
20
0.22815
11
2.41923
21
0.227342
0
LINE
8
BLACK
6
CONTINUOUS
10
1.28
20
0.22
11
1.22
21
0.22
0
LINE
8
BLACK
6
CONTINUOUS
10
1.22
20
0.22
11
1.22
21
0.28
0
LINE
8
BLACK
6
CONTINUOUS
10
1.22
20
0.28
11
1.28
21
0.28
0
LINE
8
BLACK
6
CONTINUOUS
10
1.28
20
0.28
11
1.28
21
0.22
0
LINE
8
BLACK
6
CONTINUOUS
10
1.38
20
0.22
11
1.32
21
0.22
0
LINE
8
BLACK
6
CONTINUOUS
10
1.32
20
0.22
11
1.32
21
0.28
0
LINE
8
BLACK
6
CONTINUOUS
10
1.32
20
0.28
11
1.38
21
0.28
0
LINE
8
BLACK
6
CONTINUOUS
10
1.38
20
0.28
11
1.38
21
0.22
0
LINE
8
BLACK
6
CONTINUOUS
10
1.48
20
0.22
11
1.42
21
0.22
0
LINE
8
BLACK
6
CONTINUOUS
10
1.42
20
0.22
11
1.42
21
0.28
0
LINE
8
BLACK
6
CONTINUOUS
10
1.42
20
0.28
11
1.48
21
0.28
0
LINE
8
BLACK
6
CONTINUOUS
10
1.48
20
0.28
11
1.48
21
0.22
0
LINE
8
BLACK
6
CONTINUOUS
10
1.58
20
0.22
11
1.52
21
0.22
0
LINE
8
BLACK
6
CONTINUOUS
10
1.52
20
0.22
11
1.52
21
0.28
0
LINE
8
BLACK
6
CONTINUOUS
10
1.52
20
0.28
11
1.58
21
0.28
0
LINE
8
BLACK
6
CONTINUOUS
10
1.58
20
0.28
11
1.58
21
0.22
0
LINE
8
BLACK
6
CONTINUOUS
10
1.70453
20
0.233071
11
1.64547
21
0.233071
0
LINE
8
BLACK
6
CONTINUOUS
10
1.64547
20
0.233071
11
1.64547
21
0.274409
0
LINE
8
BLACK
6
CONTINUOUS
10
1.64547
20
0.274409
11
1.70453
21
0.274409
0
LINE
8
BLACK
6
CONTINUOUS
10
1.70453
20
0.274409
11
1.70453
21
0.233071
0
LINE
8
BLACK
6
CONTINUOUS
10
2.33453
20
0.233071
11
2.27547
21
0.233071
0
LINE
8
BLACK
6
CONTINUOUS
10
2.27547
20
0.233071
11
2.27547
21
0.274409
0
LINE
8
BLACK
6
CONTINUOUS
10
2.27547
20
0.274409
11
2.33453
21
0.274409
0
LINE
8
BLACK
6
CONTINUOUS
10
2.33453
20
0.274409
11
2.33453
21
0.233071
0
LINE
8
BLACK
6
CONTINUOUS
10
1.91453
20
0.233071
11
1.85547
21
0.233071
0
LINE
8
BLACK
6
CONTINUOUS
10
1.85547
20
0.233071
11
1.85547
21
0.274409
0
LINE
8
BLACK
6
CONTINUOUS
10
1.85547
20
0.274409
11
1.91453
21
0.274409
0
LINE
8
BLACK
6
CONTINUOUS
10
1.91453
20
0.274409
11
1.91453
21
0.233071
0
LINE
8
BLACK
6
CONTINUOUS
10
2.22953
20
0.233071
11
2.17047
21
0.233071
0
LINE
8
BLACK
6
CONTINUOUS
10
2.17047
20
0.233071
11
2.17047
21
0.274409
0
LINE
8
BLACK
6
CONTINUOUS
10
2.17047
20
0.274409
11
2.22953
21
0.274409
0
LINE
8
BLACK
6
CONTINUOUS
10
2.22953
20
0.274409
11
2.22953
21
0.233071
0
LINE
8
BLACK
6
CONTINUOUS
10
2.43953
20
0.233071
11
2.38047
21
0.233071
0
LINE
8
BLACK
6
CONTINUOUS
10
2.38047
20
0.233071
11
2.38047
21
0.274409
0
LINE
8
BLACK
6
CONTINUOUS
10
2.38047
20
0.274409
11
2.43953
21
0.274409
0
LINE
8
BLACK
6
CONTINUOUS
10
2.43953
20
0.274409
11
2.43953
21
0.233071
0
LINE
8
BLACK
6
CONTINUOUS
10
2.01953
20
0.233071
11
1.96047
21
0.233071
0
LINE
8
BLACK
6
CONTINUOUS
10
1.96047
20
0.233071
11
1.96047
21
0.274409
0
LINE
8
BLACK
6
CONTINUOUS
10
1.96047
20
0.274409
11
2.01953
21
0.274409
0
LINE
8
BLACK
6
CONTINUOUS
10
2.01953
20
0.274409
11
2.01953
21
0.233071
0
LINE
8
BLACK
6
CONTINUOUS
10
2.12453
20
0.233071
11
2.06547
21
0.233071
0
LINE
8
BLACK
6
CONTINUOUS
10
2.06547
20
0.233071
11
2.06547
21
0.274409
0
LINE
8
BLACK
6
CONTINUOUS
10
2.06547
20
0.274409
11
2.12453
21
0.274409
0
LINE
8
BLACK
6
CONTINUOUS
10
2.12453
20
0.274409
11
2.12453
21
0.233071
0
LINE
8
BLACK
6
CONTINUOUS
10
1.80953
20
0.233071
11
1.75047
21
0.233071
0
LINE
8
BLACK
6
CONTINUOUS
10
1.75047
20
0.233071
11
1.75047
21
0.274409
0
LINE
8
BLACK
6
CONTINUOUS
10
1.75047
20
0.274409
11
1.80953
21
0.274409
0
LINE
8
BLACK
6
CONTINUOUS
10
1.80953
20
0.274409
11
1.80953
21
0.233071
0
LINE
8
BLACK
6
CONTINUOUS
10
0.66315
20
0.235
11
0.51315
21
0.235
0
LINE
8
BLACK
6
CONTINUOUS
10
0.51315
20
0.235
11
0.51315
21
0.385
0
LINE
8
BLACK
6
CONTINUOUS
10
0.51315
20
0.385
11
0.66315
21
0.385
0
LINE
8
BLACK
6
CONTINUOUS
10
0.66315
20
0.385
11
0.66315
21
0.235
0
LINE
8
BLACK
6
CONTINUOUS
10
0.86
20
0.235
11
0.71
21
0.235
0
LINE
8
BLACK
6
CONTINUOUS
10
0.71
20
0.235
11
0.71
21
0.385
0
LINE
8
BLACK
6
CONTINUOUS
10
0.71
20
0.385
11
0.86
21
0.385
0
LINE
8
BLACK
6
CONTINUOUS
10
0.86
20
0.385
11
0.86
21
0.235
0
LINE
8
BLACK
6
CONTINUOUS
10
2.80202
20
0.275583
11
2.73602
21
0.275583
0
LINE
8
BLACK
6
CONTINUOUS
10
2.73602
20
0.275583
11
2.73602
21
0.341583
0
LINE
8
BLACK
6
CONTINUOUS
10
2.73602
20
0.341583
11
2.80202
21
0.341583
0
LINE
8
BLACK
6
CONTINUOUS
10
2.80202
20
0.341583
11
2.80202
21
0.275583
0
LINE
8
BLACK
6
CONTINUOUS
10
2.55398
20
0.275583
11
2.48798
21
0.275583
0
LINE
8
BLACK
6
CONTINUOUS
10
2.48798
20
0.275583
11
2.48798
21
0.341583
0
LINE
8
BLACK
6
CONTINUOUS
10
2.48798
20
0.341583
11
2.55398
21
0.341583
0
LINE
8
BLACK
6
CONTINUOUS
10
2.55398
20
0.341583
11
2.55398
21
0.275583
0
LINE
8
BLACK
6
CONTINUOUS
10
1.7025
20
0.325
11
1.6475
21
0.325
0
LINE
8
BLACK
6
CONTINUOUS
10
1.6475
20
0.325
11
1.6475
21
0.36
0
LINE
8
BLACK
6
CONTINUOUS
10
1.6475
20
0.36
11
1.7025
21
0.36
0
LINE
8
BLACK
6
CONTINUOUS
10
1.7025
20
0.36
11
1.7025
21
0.325
0
LINE
8
BLACK
6
CONTINUOUS
10
2.3325
20
0.325
11
2.2775
21
0.325
0
LINE
8
BLACK
6
CONTINUOUS
10
2.2775
20
0.325
11
2.2775
21
0.36
0
LINE
8
BLACK
6
CONTINUOUS
10
2.2775
20
0.36
11
2.3325
21
0.36
0
LINE
8
BLACK
6
CONTINUOUS
10
2.3325
20
0.36
11
2.3325
21
0.325
0
LINE
8
BLACK
6
CONTINUOUS
10
2.2275
20
0.325
11
2.1725
21
0.325
0
LINE
8
BLACK
6
CONTINUOUS
10
2.1725
20
0.325
11
2.1725
21
0.36
0
LINE
8
BLACK
6
CONTINUOUS
10
2.1725
20
0.36
11
2.2275
21
0.36
0
LINE
8
BLACK
6
CONTINUOUS
10
2.2275
20
0.36
11
2.2275
21
0.325
0
LINE
8
BLACK
6
CONTINUOUS
10
2.0175
20
0.325
11
1.9625
21
0.325
0
LINE
8
BLACK
6
CONTINUOUS
10
1.9625
20
0.325
11
1.9625
21
0.36
0
LINE
8
BLACK
6
CONTINUOUS
10
1.9625
20
0.36
11
2.0175
21
0.36
0
LINE
8
BLACK
6
CONTINUOUS
10
2.0175
20
0.36
11
2.0175
21
0.325
0
LINE
8
BLACK
6
CONTINUOUS
10
2.4375
20
0.325
11
2.3825
21
0.325
0
LINE
8
BLACK
6
CONTINUOUS
10
2.3825
20
0.325
11
2.3825
21
0.36
0
LINE
8
BLACK
6
CONTINUOUS
10
2.3825
20
0.36
11
2.4375
21
0.36
0
LINE
8
BLACK
6
CONTINUOUS
10
2.4375
20
0.36
11
2.4375
21
0.325
0
LINE
8
BLACK
6
CONTINUOUS
10
2.1225
20
0.325
11
2.0675
21
0.325
0
LINE
8
BLACK
6
CONTINUOUS
10
2.0675
20
0.325
11
2.0675
21
0.36
0
LINE
8
BLACK
6
CONTINUOUS
10
2.0675
20
0.36
11
2.1225
21
0.36
0
LINE
8
BLACK
6
CONTINUOUS
10
2.1225
20
0.36
11
2.1225
21
0.325
0
LINE
8
BLACK
6
CONTINUOUS
10
1.8075
20
0.325
11
1.7525
21
0.325
0
LINE
8
BLACK
6
CONTINUOUS
10
1.7525
20
0.325
11
1.7525
21
0.36
0
LINE
8
BLACK
6
CONTINUOUS
10
1.7525
20
0.36
11
1.8075
21
0.36
0
LINE
8
BLACK
6
CONTINUOUS
10
1.8075
20
0.36
11
1.8075
21
0.325
0
LINE
8
BLACK
6
CONTINUOUS
10
1.9125
20
0.325
11
1.8575
21
0.325
0
LINE
8
BLACK
6
CONTINUOUS
10
1.8575
20
0.325
11
1.8575
21
0.36
0
LINE
8
BLACK
6
CONTINUOUS
10
1.8575
20
0.36
11
1.9125
21
0.36
0
LINE
8
BLACK
6
CONTINUOUS
10
1.9125
20
0.36
11
1.9125
21
0.325
0
LINE
8
BLACK
6
CONTINUOUS
10
1.8075
20
0.4
11
1.7525
21
0.4
0
LINE
8
BLACK
6
CONTINUOUS
10
1.7525
20
0.4
11
1.7525
21
0.435
0
LINE
8
BLACK
6
CONTINUOUS
10
1.7525
20
0.435
11
1.8075
21
0.435
0
LINE
8
BLACK
6
CONTINUOUS
10
1.8075
20
0.435
11
1.8075
21
0.4
0
LINE
8
BLACK
6
CONTINUOUS
10
2.0175
20
0.4
11
1.9625
21
0.4
0
LINE
8
BLACK
6
CONTINUOUS
10
1.9625
20
0.4
11
1.9625
21
0.435
0
LINE
8
BLACK
6
CONTINUOUS
10
1.9625
20
0.435
11
2.0175
21
0.435
0
LINE
8
BLACK
6
CONTINUOUS
10
2.0175
20
0.435
11
2.0175
21
0.4
0
LINE
8
BLACK
6
CONTINUOUS
10
1.9125
20
0.4
11
1.8575
21
0.4
0
LINE
8
BLACK
6
CONTINUOUS
10
1.8575
20
0.4
11
1.8575
21
0.435
0
LINE
8
BLACK
6
CONTINUOUS
10
1.8575
20
0.435
11
1.9125
21
0.435
0
LINE
8
BLACK
6
CONTINUOUS
10
1.9125
20
0.435
11
1.9125
21
0.4
0
LINE
8
BLACK
6
CONTINUOUS
10
2.1225
20
0.4
11
2.0675
21
0.4
0
LINE
8
BLACK
6
CONTINUOUS
10
2.0675
20
0.4
11
2.0675
21
0.435
0
LINE
8
BLACK
6
CONTINUOUS
10
2.0675
20
0.435
11
2.1225
21
0.435
0
LINE
8
BLACK
6
CONTINUOUS
10
2.1225
20
0.435
11
2.1225
21
0.4
0
LINE
8
BLACK
6
CONTINUOUS
10
2.2275
20
0.4
11
2.1725
21
0.4
0
LINE
8
BLACK
6
CONTINUOUS
10
2.1725
20
0.4
11
2.1725
21
0.435
0
LINE
8
BLACK
6
CONTINUOUS
10
2.1725
20
0.435
11
2.2275
21
0.435
0
LINE
8
BLACK
6
CONTINUOUS
10
2.2275
20
0.435
11
2.2275
21
0.4
0
LINE
8
BLACK
6
CONTINUOUS
10
1.7025
20
0.4
11
1.6475
21
0.4
0
LINE
8
BLACK
6
CONTINUOUS
10
1.6475
20
0.4
11
1.6475
21
0.435
0
LINE
8
BLACK
6
CONTINUOUS
10
1.6475
20
0.435
11
1.7025
21
0.435
0
LINE
8
BLACK
6
CONTINUOUS
10
1.7025
20
0.435
11
1.7025
21
0.4
0
LINE
8
BLACK
6
CONTINUOUS
10
2.3325
20
0.4
11
2.2775
21
0.4
0
LINE
8
BLACK
6
CONTINUOUS
10
2.2775
20
0.4
11
2.2775
21
0.435
0
LINE
8
BLACK
6
CONTINUOUS
10
2.2775
20
0.435
11
2.3325
21
0.435
0
LINE
8
BLACK
6
CONTINUOUS
10
2.3325
20
0.435
11
2.3325
21
0.4
0
LINE
8
BLACK
6
CONTINUOUS
10
2.4375
20
0.4
11
2.3825
21
0.4
0
LINE
8
BLACK
6
CONTINUOUS
10
2.3825
20
0.4
11
2.3825
21
0.435
0
LINE
8
BLACK
6
CONTINUOUS
10
2.3825
20
0.435
11
2.4375
21
0.435
0
LINE
8
BLACK
6
CONTINUOUS
10
2.4375
20
0.435
11
2.4375
21
0.4
0
LINE
8
BLACK
6
CONTINUOUS
10
1.94433
20
0.521771
11
1.94841
21
0.520143
0
LINE
8
BLACK
6
CONTINUOUS
10
1.94841
20
0.520143
11
1.95163
21
0.517155
0
LINE
8
BLACK
6
CONTINUOUS
10
1.95163
20
0.517155
11
1.95356
21
0.513207
0
LINE
8
BLACK
6
CONTINUOUS
10
1.95356
20
0.513207
11
1.95394
21
0.508829
0
LINE
8
BLACK
6
CONTINUOUS
10
1.95394
20
0.508829
11
1.95272
21
0.504608
0
LINE
8
BLACK
6
CONTINUOUS
10
1.95272
20
0.504608
11
1.95006
21
0.50111
0
LINE
8
BLACK
6
CONTINUOUS
10
1.95006
20
0.50111
11
1.94632
21
0.498805
0
LINE
8
BLACK
6
CONTINUOUS
10
1.94632
20
0.498805
11
1.942
21
0.498
0
LINE
8
BLACK
6
CONTINUOUS
10
1.942
20
0.498
11
1.908
21
0.498
0
LINE
8
BLACK
6
CONTINUOUS
10
1.908
20
0.498
11
1.90567
21
0.498229
0
LINE
8
BLACK
6
CONTINUOUS
10
1.90567
20
0.498229
11
1.90159
21
0.499857
0
LINE
8
BLACK
6
CONTINUOUS
10
1.90159
20
0.499857
11
1.89837
21
0.502845
0
LINE
8
BLACK
6
CONTINUOUS
10
1.89837
20
0.502845
11
1.89644
21
0.506793
0
LINE
8
BLACK
6
CONTINUOUS
10
1.89644
20
0.506793
11
1.89606
21
0.511171
0
LINE
8
BLACK
6
CONTINUOUS
10
1.89606
20
0.511171
11
1.89728
21
0.515392
0
LINE
8
BLACK
6
CONTINUOUS
10
1.89728
20
0.515392
11
1.89994
21
0.51889
0
LINE
8
BLACK
6
CONTINUOUS
10
1.89994
20
0.51889
11
1.90368
21
0.521195
0
LINE
8
BLACK
6
CONTINUOUS
10
1.90368
20
0.521195
11
1.908
21
0.522
0
LINE
8
BLACK
6
CONTINUOUS
10
1.908
20
0.522
11
1.942
21
0.522
0
LINE
8
BLACK
6
CONTINUOUS
10
1.942
20
0.522
11
1.94433
21
0.521771
0
LINE
8
BLACK
6
CONTINUOUS
10
2.16433
20
0.521771
11
2.16841
21
0.520143
0
LINE
8
BLACK
6
CONTINUOUS
10
2.16841
20
0.520143
11
2.17163
21
0.517155
0
LINE
8
BLACK
6
CONTINUOUS
10
2.17163
20
0.517155
11
2.17356
21
0.513207
0
LINE
8
BLACK
6
CONTINUOUS
10
2.17356
20
0.513207
11
2.17394
21
0.508829
0
LINE
8
BLACK
6
CONTINUOUS
10
2.17394
20
0.508829
11
2.17272
21
0.504608
0
LINE
8
BLACK
6
CONTINUOUS
10
2.17272
20
0.504608
11
2.17006
21
0.50111
0
LINE
8
BLACK
6
CONTINUOUS
10
2.17006
20
0.50111
11
2.16632
21
0.498805
0
LINE
8
BLACK
6
CONTINUOUS
10
2.16632
20
0.498805
11
2.162
21
0.498
0
LINE
8
BLACK
6
CONTINUOUS
10
2.162
20
0.498
11
2.128
21
0.498
0
LINE
8
BLACK
6
CONTINUOUS
10
2.128
20
0.498
11
2.12567
21
0.498229
0
LINE
8
BLACK
6
CONTINUOUS
10
2.12567
20
0.498229
11
2.12159
21
0.499857
0
LINE
8
BLACK
6
CONTINUOUS
10
2.12159
20
0.499857
11
2.11837
21
0.502845
0
LINE
8
BLACK
6
CONTINUOUS
10
2.11837
20
0.502845
11
2.11644
21
0.506793
0
LINE
8
BLACK
6
CONTINUOUS
10
2.11644
20
0.506793
11
2.11606
21
0.511171
0
LINE
8
BLACK
6
CONTINUOUS
10
2.11606
20
0.511171
11
2.11728
21
0.515392
0
LINE
8
BLACK
6
CONTINUOUS
10
2.11728
20
0.515392
11
2.11994
21
0.51889
0
LINE
8
BLACK
6
CONTINUOUS
10
2.11994
20
0.51889
11
2.12368
21
0.521195
0
LINE
8
BLACK
6
CONTINUOUS
10
2.12368
20
0.521195
11
2.128
21
0.522
0
LINE
8
BLACK
6
CONTINUOUS
10
2.128
20
0.522
11
2.162
21
0.522
0
LINE
8
BLACK
6
CONTINUOUS
10
2.162
20
0.522
11
2.16433
21
0.521771
0
LINE
8
BLACK
6
CONTINUOUS
10
2.8425
20
0.51
11
2.7875
21
0.51
0
LINE
8
BLACK
6
CONTINUOUS
10
2.7875
20
0.51
11
2.7875
21
0.545
0
LINE
8
BLACK
6
CONTINUOUS
10
2.7875
20
0.545
11
2.8425
21
0.545
0
LINE
8
BLACK
6
CONTINUOUS
10
2.8425
20
0.545
11
2.8425
21
0.51
0
LINE
8
BLACK
6
CONTINUOUS
10
1.94433
20
0.571771
11
1.94841
21
0.570143
0
LINE
8
BLACK
6
CONTINUOUS
10
1.94841
20
0.570143
11
1.95163
21
0.567155
0
LINE
8
BLACK
6
CONTINUOUS
10
1.95163
20
0.567155
11
1.95356
21
0.563207
0
LINE
8
BLACK
6
CONTINUOUS
10
1.95356
20
0.563207
11
1.95394
21
0.558829
0
LINE
8
BLACK
6
CONTINUOUS
10
1.95394
20
0.558829
11
1.95272
21
0.554608
0
LINE
8
BLACK
6
CONTINUOUS
10
1.95272
20
0.554608
11
1.95006
21
0.55111
0
LINE
8
BLACK
6
CONTINUOUS
10
1.95006
20
0.55111
11
1.94632
21
0.548805
0
LINE
8
BLACK
6
CONTINUOUS
10
1.94632
20
0.548805
11
1.942
21
0.548
0
LINE
8
BLACK
6
CONTINUOUS
10
1.942
20
0.548
11
1.908
21
0.548
0
LINE
8
BLACK
6
CONTINUOUS
10
1.908
20
0.548
11
1.90567
21
0.548229
0
LINE
8
BLACK
6
CONTINUOUS
10
1.90567
20
0.548229
11
1.90159
21
0.549857
0
LINE
8
BLACK
6
CONTINUOUS
10
1.90159
20
0.549857
11
1.89837
21
0.552845
0
LINE
8
BLACK
6
CONTINUOUS
10
1.89837
20
0.552845
11
1.89644
21
0.556793
0
LINE
8
BLACK
6
CONTINUOUS
10
1.89644
20
0.556793
11
1.89606
21
0.561171
0
LINE
8
BLACK
6
CONTINUOUS
10
1.89606
20
0.561171
11
1.89728
21
0.565392
0
LINE
8
BLACK
6
CONTINUOUS
10
1.89728
20
0.565392
11
1.89994
21
0.56889
0
LINE
8
BLACK
6
CONTINUOUS
10
1.89994
20
0.56889
11
1.90368
21
0.571195
0
LINE
8
BLACK
6
CONTINUOUS
10
1.90368
20
0.571195
11
1.908
21
0.572
0
LINE
8
BLACK
6
CONTINUOUS
10
1.908
20
0.572
11
1.942
21
0.572
0
LINE
8
BLACK
6
CONTINUOUS
10
1.942
20
0.572
11
1.94433
21
0.571771
0
LINE
8
BLACK
6
CONTINUOUS
10
2.16433
20
0.571771
11
2.16841
21
0.570143
0
LINE
8
BLACK
6
CONTINUOUS
10
2.16841
20
0.570143
11
2.17163
21
0.567155
0
LINE
8
BLACK
6
CONTINUOUS
10
2.17163
20
0.567155
11
2.17356
21
0.563207
0
LINE
8
BLACK
6
CONTINUOUS
10
2.17356
20
0.563207
11
2.17394
21
0.558829
0
LINE
8
BLACK
6
CONTINUOUS
10
2.17394
20
0.558829
11
2.17272
21
0.554608
0
LINE
8
BLACK
6
CONTINUOUS
10
2.17272
20
0.554608
11
2.17006
21
0.55111
0
LINE
8
BLACK
6
CONTINUOUS
10
2.17006
20
0.55111
11
2.16632
21
0.548805
0
LINE
8
BLACK
6
CONTINUOUS
10
2.16632
20
0.548805
11
2.162
21
0.548
0
LINE
8
BLACK
6
CONTINUOUS
10
2.162
20
0.548
11
2.128
21
0.548
0
LINE
8
BLACK
6
CONTINUOUS
10
2.128
20
0.548
11
2.12567
21
0.548229
0
LINE
8
BLACK
6
CONTINUOUS
10
2.12567
20
0.548229
11
2.12159
21
0.549857
0
LINE
8
BLACK
6
CONTINUOUS
10
2.12159
20
0.549857
11
2.11837
21
0.552845
0
LINE
8
BLACK
6
CONTINUOUS
10
2.11837
20
0.552845
11
2.11644
21
0.556793
0
LINE
8
BLACK
6
CONTINUOUS
10
2.11644
20
0.556793
11
2.11606
21
0.561171
0
LINE
8
BLACK
6
CONTINUOUS
10
2.11606
20
0.561171
11
2.11728
21
0.565392
0
LINE
8
BLACK
6
CONTINUOUS
10
2.11728
20
0.565392
11
2.11994
21
0.56889
0
LINE
8
BLACK
6
CONTINUOUS
10
2.11994
20
0.56889
11
2.12368
21
0.571195
0
LINE
8
BLACK
6
CONTINUOUS
10
2.12368
20
0.571195
11
2.128
21
0.572
0
LINE
8
BLACK
6
CONTINUOUS
10
2.128
20
0.572
11
2.162
21
0.572
0
LINE
8
BLACK
6
CONTINUOUS
10
2.162
20
0.572
11
2.16433
21
0.571771
0
LINE
8
BLACK
6
CONTINUOUS
10
2.8425
20
0.585
11
2.7875
21
0.585
0
LINE
8
BLACK
6
CONTINUOUS
10
2.7875
20
0.585
11
2.7875
21
0.62
0
LINE
8
BLACK
6
CONTINUOUS
10
2.7875
20
0.62
11
2.8425
21
0.62
0
LINE
8
BLACK
6
CONTINUOUS
10
2.8425
20
0.62
11
2.8425
21
0.585
0
LINE
8
BLACK
6
CONTINUOUS
10
1.94433
20
0.621771
11
1.94841
21
0.620143
0
LINE
8
BLACK
6
CONTINUOUS
10
1.94841
20
0.620143
11
1.95163
21
0.617155
0
LINE
8
BLACK
6
CONTINUOUS
10
1.95163
20
0.617155
11
1.95356
21
0.613207
0
LINE
8
BLACK
6
CONTINUOUS
10
1.95356
20
0.613207
11
1.95394
21
0.608829
0
LINE
8
BLACK
6
CONTINUOUS
10
1.95394
20
0.608829
11
1.95272
21
0.604608
0
LINE
8
BLACK
6
CONTINUOUS
10
1.95272
20
0.604608
11
1.95006
21
0.60111
0
LINE
8
BLACK
6
CONTINUOUS
10
1.95006
20
0.60111
11
1.94632
21
0.598805
0
LINE
8
BLACK
6
CONTINUOUS
10
1.94632
20
0.598805
11
1.942
21
0.598
0
LINE
8
BLACK
6
CONTINUOUS
10
1.942
20
0.598
11
1.908
21
0.598
0
LINE
8
BLACK
6
CONTINUOUS
10
1.908
20
0.598
11
1.90567
21
0.598229
0
LINE
8
BLACK
6
CONTINUOUS
10
1.90567
20
0.598229
11
1.90159
21
0.599857
0
LINE
8
BLACK
6
CONTINUOUS
10
1.90159
20
0.599857
11
1.89837
21
0.602845
0
LINE
8
BLACK
6
CONTINUOUS
10
1.89837
20
0.602845
11
1.89644
21
0.606793
0
LINE
8
BLACK
6
CONTINUOUS
10
1.89644
20
0.606793
11
1.89606
21
0.611171
0
LINE
8
BLACK
6
CONTINUOUS
10
1.89606
20
0.611171
11
1.89728
21
0.615392
0
LINE
8
BLACK
6
CONTINUOUS
10
1.89728
20
0.615392
11
1.89994
21
0.61889
0
LINE
8
BLACK
6
CONTINUOUS
10
1.89994
20
0.61889
11
1.90368
21
0.621195
0
LINE
8
BLACK
6
CONTINUOUS
10
1.90368
20
0.621195
11
1.908
21
0.622
0
LINE
8
BLACK
6
CONTINUOUS
10
1.908
20
0.622
11
1.942
21
0.622
0
LINE
8
BLACK
6
CONTINUOUS
10
1.942
20
0.622
11
1.94433
21
0.621771
0
LINE
8
BLACK
6
CONTINUOUS
10
2.16433
20
0.621771
11
2.16841
21
0.620143
0
LINE
8
BLACK
6
CONTINUOUS
10
2.16841
20
0.620143
11
2.17163
21
0.617155
0
LINE
8
BLACK
6
CONTINUOUS
10
2.17163
20
0.617155
11
2.17356
21
0.613207
0
LINE
8
BLACK
6
CONTINUOUS
10
2.17356
20
0.613207
11
2.17394
21
0.608829
0
LINE
8
BLACK
6
CONTINUOUS
10
2.17394
20
0.608829
11
2.17272
21
0.604608
0
LINE
8
BLACK
6
CONTINUOUS
10
2.17272
20
0.604608
11
2.17006
21
0.60111
0
LINE
8
BLACK
6
CONTINUOUS
10
2.17006
20
0.60111
11
2.16632
21
0.598805
0
LINE
8
BLACK
6
CONTINUOUS
10
2.16632
20
0.598805
11
2.162
21
0.598
0
LINE
8
BLACK
6
CONTINUOUS
10
2.162
20
0.598
11
2.128
21
0.598
0
LINE
8
BLACK
6
CONTINUOUS
10
2.128
20
0.598
11
2.12567
21
0.598229
0
LINE
8
BLACK
6
CONTINUOUS
10
2.12567
20
0.598229
11
2.12159
21
0.599857
0
LINE
8
BLACK
6
CONTINUOUS
10
2.12159
20
0.599857
11
2.11837
21
0.602845
0
LINE
8
BLACK
6
CONTINUOUS
10
2.11837
20
0.602845
11
2.11644
21
0.606793
0
LINE
8
BLACK
6
CONTINUOUS
10
2.11644
20
0.606793
11
2.11606
21
0.611171
0
LINE
8
BLACK
6
CONTINUOUS
10
2.11606
20
0.611171
11
2.11728
21
0.615392
0
LINE
8
BLACK
6
CONTINUOUS
10
2.11728
20
0.615392
11
2.11994
21
0.61889
0
LINE
8
BLACK
6
CONTINUOUS
10
2.11994
20
0.61889
11
2.12368
21
0.621195
0
LINE
8
BLACK
6
CONTINUOUS
10
2.12368
20
0.621195
11
2.128
21
0.622
0
LINE
8
BLACK
6
CONTINUOUS
10
2.128
20
0.622
11
2.162
21
0.622
0
LINE
8
BLACK
6
CONTINUOUS
10
2.162
20
0.622
11
2.16433
21
0.621771
0
LINE
8
BLACK
6
CONTINUOUS
10
2.7625
20
0.625
11
2.7075
21
0.625
0
LINE
8
BLACK
6
CONTINUOUS
10
2.7075
20
0.625
11
2.7075
21
0.66
0
LINE
8
BLACK
6
CONTINUOUS
10
2.7075
20
0.66
11
2.7625
21
0.66
0
LINE
8
BLACK
6
CONTINUOUS
10
2.7625
20
0.66
11
2.7625
21
0.625
0
LINE
8
BLACK
6
CONTINUOUS
10
1.94433
20
0.671771
11
1.94841
21
0.670143
0
LINE
8
BLACK
6
CONTINUOUS
10
1.94841
20
0.670143
11
1.95163
21
0.667155
0
LINE
8
BLACK
6
CONTINUOUS
10
1.95163
20
0.667155
11
1.95356
21
0.663207
0
LINE
8
BLACK
6
CONTINUOUS
10
1.95356
20
0.663207
11
1.95394
21
0.658829
0
LINE
8
BLACK
6
CONTINUOUS
10
1.95394
20
0.658829
11
1.95272
21
0.654608
0
LINE
8
BLACK
6
CONTINUOUS
10
1.95272
20
0.654608
11
1.95006
21
0.65111
0
LINE
8
BLACK
6
CONTINUOUS
10
1.95006
20
0.65111
11
1.94632
21
0.648805
0
LINE
8
BLACK
6
CONTINUOUS
10
1.94632
20
0.648805
11
1.942
21
0.648
0
LINE
8
BLACK
6
CONTINUOUS
10
1.942
20
0.648
11
1.908
21
0.648
0
LINE
8
BLACK
6
CONTINUOUS
10
1.908
20
0.648
11
1.90567
21
0.648229
0
LINE
8
BLACK
6
CONTINUOUS
10
1.90567
20
0.648229
11
1.90159
21
0.649857
0
LINE
8
BLACK
6
CONTINUOUS
10
1.90159
20
0.649857
11
1.89837
21
0.652845
0
LINE
8
BLACK
6
CONTINUOUS
10
1.89837
20
0.652845
11
1.89644
21
0.656793
0
LINE
8
BLACK
6
CONTINUOUS
10
1.89644
20
0.656793
11
1.89606
21
0.661171
0
LINE
8
BLACK
6
CONTINUOUS
10
1.89606
20
0.661171
11
1.89728
21
0.665392
0
LINE
8
BLACK
6
CONTINUOUS
10
1.89728
20
0.665392
11
1.89994
21
0.66889
0
LINE
8
BLACK
6
CONTINUOUS
10
1.89994
20
0.66889
11
1.90368
21
0.671195
0
LINE
8
BLACK
6
CONTINUOUS
10
1.90368
20
0.671195
11
1.908
21
0.672
0
LINE
8
BLACK
6
CONTINUOUS
10
1.908
20
0.672
11
1.942
21
0.672
0
LINE
8
BLACK
6
CONTINUOUS
10
1.942
20
0.672
11
1.94433
21
0.671771
0
LINE
8
BLACK
6
CONTINUOUS
10
2.16433
20
0.671771
11
2.16841
21
0.670143
0
LINE
8
BLACK
6
CONTINUOUS
10
2.16841
20
0.670143
11
2.17163
21
0.667155
0
LINE
8
BLACK
6
CONTINUOUS
10
2.17163
20
0.667155
11
2.17356
21
0.663207
0
LINE
8
BLACK
6
CONTINUOUS
10
2.17356
20
0.663207
11
2.17394
21
0.658829
0
LINE
8
BLACK
6
CONTINUOUS
10
2.17394
20
0.658829
11
2.17272
21
0.654608
0
LINE
8
BLACK
6
CONTINUOUS
10
2.17272
20
0.654608
11
2.17006
21
0.65111
0
LINE
8
BLACK
6
CONTINUOUS
10
2.17006
20
0.65111
11
2.16632
21
0.648805
0
LINE
8
BLACK
6
CONTINUOUS
10
2.16632
20
0.648805
11
2.162
21
0.648
0
LINE
8
BLACK
6
CONTINUOUS
10
2.162
20
0.648
11
2.128
21
0.648
0
LINE
8
BLACK
6
CONTINUOUS
10
2.128
20
0.648
11
2.12567
21
0.648229
0
LINE
8
BLACK
6
CONTINUOUS
10
2.12567
20
0.648229
11
2.12159
21
0.649857
0
LINE
8
BLACK
6
CONTINUOUS
10
2.12159
20
0.649857
11
2.11837
21
0.652845
0
LINE
8
BLACK
6
CONTINUOUS
10
2.11837
20
0.652845
11
2.11644
21
0.656793
0
LINE
8
BLACK
6
CONTINUOUS
10
2.11644
20
0.656793
11
2.11606
21
0.661171
0
LINE
8
BLACK
6
CONTINUOUS
10
2.11606
20
0.661171
11
2.11728
21
0.665392
0
LINE
8
BLACK
6
CONTINUOUS
10
2.11728
20
0.665392
11
2.11994
21
0.66889
0
LINE
8
BLACK
6
CONTINUOUS
10
2.11994
20
0.66889
11
2.12368
21
0.671195
0
LINE
8
BLACK
6
CONTINUOUS
10
2.12368
20
0.671195
11
2.128
21
0.672
0
LINE
8
BLACK
6
CONTINUOUS
10
2.128
20
0.672
11
2.162
21
0.672
0
LINE
8
BLACK
6
CONTINUOUS
10
2.162
20
0.672
11
2.16433
21
0.671771
0
LINE
8
BLACK
6
CONTINUOUS
10
2.16433
20
0.721771
11
2.16841
21
0.720143
0
LINE
8
BLACK
6
CONTINUOUS
10
2.16841
20
0.720143
11
2.17163
21
0.717155
0
LINE
8
BLACK
6
CONTINUOUS
10
2.17163
20
0.717155
11
2.17356
21
0.713207
0
LINE
8
BLACK
6
CONTINUOUS
10
2.17356
20
0.713207
11
2.17394
21
0.708829
0
LINE
8
BLACK
6
CONTINUOUS
10
2.17394
20
0.708829
11
2.17272
21
0.704608
0
LINE
8
BLACK
6
CONTINUOUS
10
2.17272
20
0.704608
11
2.17006
21
0.70111
0
LINE
8
BLACK
6
CONTINUOUS
10
2.17006
20
0.70111
11
2.16632
21
0.698805
0
LINE
8
BLACK
6
CONTINUOUS
10
2.16632
20
0.698805
11
2.162
21
0.698
0
LINE
8
BLACK
6
CONTINUOUS
10
2.162
20
0.698
11
2.128
21
0.698
0
LINE
8
BLACK
6
CONTINUOUS
10
2.128
20
0.698
11
2.12567
21
0.698229
0
LINE
8
BLACK
6
CONTINUOUS
10
2.12567
20
0.698229
11
2.12159
21
0.699857
0
LINE
8
BLACK
6
CONTINUOUS
10
2.12159
20
0.699857
11
2.11837
21
0.702845
0
LINE
8
BLACK
6
CONTINUOUS
10
2.11837
20
0.702845
11
2.11644
21
0.706793
0
LINE
8
BLACK
6
CONTINUOUS
10
2.11644
20
0.706793
11
2.11606
21
0.711171
0
LINE
8
BLACK
6
CONTINUOUS
10
2.11606
20
0.711171
11
2.11728
21
0.715392
0
LINE
8
BLACK
6
CONTINUOUS
10
2.11728
20
0.715392
11
2.11994
21
0.71889
0
LINE
8
BLACK
6
CONTINUOUS
10
2.11994
20
0.71889
11
2.12368
21
0.721195
0
LINE
8
BLACK
6
CONTINUOUS
10
2.12368
20
0.721195
11
2.128
21
0.722
0
LINE
8
BLACK
6
CONTINUOUS
10
2.128
20
0.722
11
2.162
21
0.722
0
LINE
8
BLACK
6
CONTINUOUS
10
2.162
20
0.722
11
2.16433
21
0.721771
0
LINE
8
BLACK
6
CONTINUOUS
10
1.94433
20
0.721771
11
1.94841
21
0.720143
0
LINE
8
BLACK
6
CONTINUOUS
10
1.94841
20
0.720143
11
1.95163
21
0.717155
0
LINE
8
BLACK
6
CONTINUOUS
10
1.95163
20
0.717155
11
1.95356
21
0.713207
0
LINE
8
BLACK
6
CONTINUOUS
10
1.95356
20
0.713207
11
1.95394
21
0.708829
0
LINE
8
BLACK
6
CONTINUOUS
10
1.95394
20
0.708829
11
1.95272
21
0.704608
0
LINE
8
BLACK
6
CONTINUOUS
10
1.95272
20
0.704608
11
1.95006
21
0.70111
0
LINE
8
BLACK
6
CONTINUOUS
10
1.95006
20
0.70111
11
1.94632
21
0.698805
0
LINE
8
BLACK
6
CONTINUOUS
10
1.94632
20
0.698805
11
1.942
21
0.698
0
LINE
8
BLACK
6
CONTINUOUS
10
1.942
20
0.698
11
1.908
21
0.698
0
LINE
8
BLACK
6
CONTINUOUS
10
1.908
20
0.698
11
1.90567
21
0.698229
0
LINE
8
BLACK
6
CONTINUOUS
10
1.90567
20
0.698229
11
1.90159
21
0.699857
0
LINE
8
BLACK
6
CONTINUOUS
10
1.90159
20
0.699857
11
1.89837
21
0.702845
0
LINE
8
BLACK
6
CONTINUOUS
10
1.89837
20
0.702845
11
1.89644
21
0.706793
0
LINE
8
BLACK
6
CONTINUOUS
10
1.89644
20
0.706793
11
1.89606
21
0.711171
0
LINE
8
BLACK
6
CONTINUOUS
10
1.89606
20
0.711171
11
1.89728
21
0.715392
0
LINE
8
BLACK
6
CONTINUOUS
10
1.89728
20
0.715392
11
1.89994
21
0.71889
0
LINE
8
BLACK
6
CONTINUOUS
10
1.89994
20
0.71889
11
1.90368
21
0.721195
0
LINE
8
BLACK
6
CONTINUOUS
10
1.90368
20
0.721195
11
1.908
21
0.722
0
LINE
8
BLACK
6
CONTINUOUS
10
1.908
20
0.722
11
1.942
21
0.722
0
LINE
8
BLACK
6
CONTINUOUS
10
1.942
20
0.722
11
1.94433
21
0.721771
0
LINE
8
BLACK
6
CONTINUOUS
10
2.7625
20
0.7
11
2.7075
21
0.7
0
LINE
8
BLACK
6
CONTINUOUS
10
2.7075
20
0.7
11
2.7075
21
0.735
0
LINE
8
BLACK
6
CONTINUOUS
10
2.7075
20
0.735
11
2.7625
21
0.735
0
LINE
8
BLACK
6
CONTINUOUS
10
2.7625
20
0.735
11
2.7625
21
0.7
0
LINE
8
BLACK
6
CONTINUOUS
10
1.8725
20
0.74
11
1.8175
21
0.74
0
LINE
8
BLACK
6
CONTINUOUS
10
1.8175
20
0.74
11
1.8175
21
0.775
0
LINE
8
BLACK
6
CONTINUOUS
10
1.8175
20
0.775
11
1.8725
21
0.775
0
LINE
8
BLACK
6
CONTINUOUS
10
1.8725
20
0.775
11
1.8725
21
0.74
0
LINE
8
BLACK
6
CONTINUOUS
10
2.16433
20
0.771771
11
2.16841
21
0.770143
0
LINE
8
BLACK
6
CONTINUOUS
10
2.16841
20
0.770143
11
2.17163
21
0.767155
0
LINE
8
BLACK
6
CONTINUOUS
10
2.17163
20
0.767155
11
2.17356
21
0.763207
0
LINE
8
BLACK
6
CONTINUOUS
10
2.17356
20
0.763207
11
2.17394
21
0.758829
0
LINE
8
BLACK
6
CONTINUOUS
10
2.17394
20
0.758829
11
2.17272
21
0.754608
0
LINE
8
BLACK
6
CONTINUOUS
10
2.17272
20
0.754608
11
2.17006
21
0.75111
0
LINE
8
BLACK
6
CONTINUOUS
10
2.17006
20
0.75111
11
2.16632
21
0.748805
0
LINE
8
BLACK
6
CONTINUOUS
10
2.16632
20
0.748805
11
2.162
21
0.748
0
LINE
8
BLACK
6
CONTINUOUS
10
2.162
20
0.748
11
2.128
21
0.748
0
LINE
8
BLACK
6
CONTINUOUS
10
2.128
20
0.748
11
2.12567
21
0.748229
0
LINE
8
BLACK
6
CONTINUOUS
10
2.12567
20
0.748229
11
2.12159
21
0.749857
0
LINE
8
BLACK
6
CONTINUOUS
10
2.12159
20
0.749857
11
2.11837
21
0.752845
0
LINE
8
BLACK
6
CONTINUOUS
10
2.11837
20
0.752845
11
2.11644
21
0.756793
0
LINE
8
BLACK
6
CONTINUOUS
10
2.11644
20
0.756793
11
2.11606
21
0.761171
0
LINE
8
BLACK
6
CONTINUOUS
10
2.11606
20
0.761171
11
2.11728
21
0.765392
0
LINE
8
BLACK
6
CONTINUOUS
10
2.11728
20
0.765392
11
2.11994
21
0.76889
0
LINE
8
BLACK
6
CONTINUOUS
10
2.11994
20
0.76889
11
2.12368
21
0.771195
0
LINE
8
BLACK
6
CONTINUOUS
10
2.12368
20
0.771195
11
2.128
21
0.772
0
LINE
8
BLACK
6
CONTINUOUS
10
2.128
20
0.772
11
2.162
21
0.772
0
LINE
8
BLACK
6
CONTINUOUS
10
2.162
20
0.772
11
2.16433
21
0.771771
0
LINE
8
BLACK
6
CONTINUOUS
10
1.94433
20
0.771771
11
1.94841
21
0.770143
0
LINE
8
BLACK
6
CONTINUOUS
10
1.94841
20
0.770143
11
1.95163
21
0.767155
0
LINE
8
BLACK
6
CONTINUOUS
10
1.95163
20
0.767155
11
1.95356
21
0.763207
0
LINE
8
BLACK
6
CONTINUOUS
10
1.95356
20
0.763207
11
1.95394
21
0.758829
0
LINE
8
BLACK
6
CONTINUOUS
10
1.95394
20
0.758829
11
1.95272
21
0.754608
0
LINE
8
BLACK
6
CONTINUOUS
10
1.95272
20
0.754608
11
1.95006
21
0.75111
0
LINE
8
BLACK
6
CONTINUOUS
10
1.95006
20
0.75111
11
1.94632
21
0.748805
0
LINE
8
BLACK
6
CONTINUOUS
10
1.94632
20
0.748805
11
1.942
21
0.748
0
LINE
8
BLACK
6
CONTINUOUS
10
1.942
20
0.748
11
1.908
21
0.748
0
LINE
8
BLACK
6
CONTINUOUS
10
1.908
20
0.748
11
1.90567
21
0.748229
0
LINE
8
BLACK
6
CONTINUOUS
10
1.90567
20
0.748229
11
1.90159
21
0.749857
0
LINE
8
BLACK
6
CONTINUOUS
10
1.90159
20
0.749857
11
1.89837
21
0.752845
0
LINE
8
BLACK
6
CONTINUOUS
10
1.89837
20
0.752845
11
1.89644
21
0.756793
0
LINE
8
BLACK
6
CONTINUOUS
10
1.89644
20
0.756793
11
1.89606
21
0.761171
0
LINE
8
BLACK
6
CONTINUOUS
10
1.89606
20
0.761171
11
1.89728
21
0.765392
0
LINE
8
BLACK
6
CONTINUOUS
10
1.89728
20
0.765392
11
1.89994
21
0.76889
0
LINE
8
BLACK
6
CONTINUOUS
10
1.89994
20
0.76889
11
1.90368
21
0.771195
0
LINE
8
BLACK
6
CONTINUOUS
10
1.90368
20
0.771195
11
1.908
21
0.772
0
LINE
8
BLACK
6
CONTINUOUS
10
1.908
20
0.772
11
1.942
21
0.772
0
LINE
8
BLACK
6
CONTINUOUS
10
1.942
20
0.772
11
1.94433
21
0.771771
0
LINE
8
BLACK
6
CONTINUOUS
10
3.10341
20
0.756339
11
2.94593
21
0.756339
0
LINE
8
BLACK
6
CONTINUOUS
10
2.94593
20
0.756339
11
2.94593
21
0.913819
0
LINE
8
BLACK
6
CONTINUOUS
10
2.94593
20
0.913819
11
3.10341
21
0.913819
0
LINE
8
BLACK
6
CONTINUOUS
10
3.10341
20
0.913819
11
3.10341
21
0.756339
0
LINE
8
BLACK
6
CONTINUOUS
10
0.249075
20
0.756339
11
0.0915945
21
0.756339
0
LINE
8
BLACK
6
CONTINUOUS
10
0.0915945
20
0.756339
11
0.0915945
21
0.913819
0
LINE
8
BLACK
6
CONTINUOUS
10
0.0915945
20
0.913819
11
0.249075
21
0.913819
0
LINE
8
BLACK
6
CONTINUOUS
10
0.249075
20
0.913819
11
0.249075
21
0.756339
0
LINE
8
BLACK
6
CONTINUOUS
10
0.63325
20
0.7595
11
0.60175
21
0.7595
0
LINE
8
BLACK
6
CONTINUOUS
10
0.60175
20
0.7595
11
0.60175
21
0.7989
0
LINE
8
BLACK
6
CONTINUOUS
10
0.60175
20
0.7989
11
0.63325
21
0.7989
0
LINE
8
BLACK
6
CONTINUOUS
10
0.63325
20
0.7989
11
0.63325
21
0.7595
0
LINE
8
BLACK
6
CONTINUOUS
10
2.16433
20
0.821771
11
2.16841
21
0.820143
0
LINE
8
BLACK
6
CONTINUOUS
10
2.16841
20
0.820143
11
2.17163
21
0.817155
0
LINE
8
BLACK
6
CONTINUOUS
10
2.17163
20
0.817155
11
2.17356
21
0.813207
0
LINE
8
BLACK
6
CONTINUOUS
10
2.17356
20
0.813207
11
2.17394
21
0.808829
0
LINE
8
BLACK
6
CONTINUOUS
10
2.17394
20
0.808829
11
2.17272
21
0.804608
0
LINE
8
BLACK
6
CONTINUOUS
10
2.17272
20
0.804608
11
2.17006
21
0.80111
0
LINE
8
BLACK
6
CONTINUOUS
10
2.17006
20
0.80111
11
2.16632
21
0.798805
0
LINE
8
BLACK
6
CONTINUOUS
10
2.16632
20
0.798805
11
2.162
21
0.798
0
LINE
8
BLACK
6
CONTINUOUS
10
2.162
20
0.798
11
2.128
21
0.798
0
LINE
8
BLACK
6
CONTINUOUS
10
2.128
20
0.798
11
2.12567
21
0.798229
0
LINE
8
BLACK
6
CONTINUOUS
10
2.12567
20
0.798229
11
2.12159
21
0.799857
0
LINE
8
BLACK
6
CONTINUOUS
10
2.12159
20
0.799857
11
2.11837
21
0.802845
0
LINE
8
BLACK
6
CONTINUOUS
10
2.11837
20
0.802845
11
2.11644
21
0.806793
0
LINE
8
BLACK
6
CONTINUOUS
10
2.11644
20
0.806793
11
2.11606
21
0.811171
0
LINE
8
BLACK
6
CONTINUOUS
10
2.11606
20
0.811171
11
2.11728
21
0.815392
0
LINE
8
BLACK
6
CONTINUOUS
10
2.11728
20
0.815392
11
2.11994
21
0.81889
0
LINE
8
BLACK
6
CONTINUOUS
10
2.11994
20
0.81889
11
2.12368
21
0.821195
0
LINE
8
BLACK
6
CONTINUOUS
10
2.12368
20
0.821195
11
2.128
21
0.822
0
LINE
8
BLACK
6
CONTINUOUS
10
2.128
20
0.822
11
2.162
21
0.822
0
LINE
8
BLACK
6
CONTINUOUS
10
2.162
20
0.822
11
2.16433
21
0.821771
0
LINE
8
BLACK
6
CONTINUOUS
10
1.94433
20
0.821771
11
1.94841
21
0.820143
0
LINE
8
BLACK
6
CONTINUOUS
10
1.94841
20
0.820143
11
1.95163
21
0.817155
0
LINE
8
BLACK
6
CONTINUOUS
10
1.95163
20
0.817155
11
1.95356
21
0.813207
0
LINE
8
BLACK
6
CONTINUOUS
10
1.95356
20
0.813207
11
1.95394
21
0.808829
0
LINE
8
BLACK
6
CONTINUOUS
10
1.95394
20
0.808829
11
1.95272
21
0.804608
0
LINE
8
BLACK
6
CONTINUOUS
10
1.95272
20
0.804608
11
1.95006
21
0.80111
0
LINE
8
BLACK
6
CONTINUOUS
10
1.95006
20
0.80111
11
1.94632
21
0.798805
0
LINE
8
BLACK
6
CONTINUOUS
10
1.94632
20
0.798805
11
1.942
21
0.798
0
LINE
8
BLACK
6
CONTINUOUS
10
1.942
20
0.798
11
1.908
21
0.798
0
LINE
8
BLACK
6
CONTINUOUS
10
1.908
20
0.798
11
1.90567
21
0.798229
0
LINE
8
BLACK
6
CONTINUOUS
10
1.90567
20
0.798229
11
1.90159
21
0.799857
0
LINE
8
BLACK
6
CONTINUOUS
10
1.90159
20
0.799857
11
1.89837
21
0.802845
0
LINE
8
BLACK
6
CONTINUOUS
10
1.89837
20
0.802845
11
1.89644
21
0.806793
0
LINE
8
BLACK
6
CONTINUOUS
10
1.89644
20
0.806793
11
1.89606
21
0.811171
0
LINE
8
BLACK
6
CONTINUOUS
10
1.89606
20
0.811171
11
1.89728
21
0.815392
0
LINE
8
BLACK
6
CONTINUOUS
10
1.89728
20
0.815392
11
1.89994
21
0.81889
0
LINE
8
BLACK
6
CONTINUOUS
10
1.89994
20
0.81889
11
1.90368
21
0.821195
0
LINE
8
BLACK
6
CONTINUOUS
10
1.90368
20
0.821195
11
1.908
21
0.822
0
LINE
8
BLACK
6
CONTINUOUS
10
1.908
20
0.822
11
1.942
21
0.822
0
LINE
8
BLACK
6
CONTINUOUS
10
1.942
20
0.822
11
1.94433
21
0.821771
0
LINE
8
BLACK
6
CONTINUOUS
10
1.8725
20
0.815
11
1.8175
21
0.815
0
LINE
8
BLACK
6
CONTINUOUS
10
1.8175
20
0.815
11
1.8175
21
0.85
0
LINE
8
BLACK
6
CONTINUOUS
10
1.8175
20
0.85
11
1.8725
21
0.85
0
LINE
8
BLACK
6
CONTINUOUS
10
1.8725
20
0.85
11
1.8725
21
0.815
0
LINE
8
BLACK
6
CONTINUOUS
10
2.91799
20
0.823268
11
2.79201
21
0.823268
0
LINE
8
BLACK
6
CONTINUOUS
10
2.79201
20
0.823268
11
2.79201
21
0.862638
0
LINE
8
BLACK
6
CONTINUOUS
10
2.79201
20
0.862638
11
2.91799
21
0.862638
0
LINE
8
BLACK
6
CONTINUOUS
10
2.91799
20
0.862638
11
2.91799
21
0.823268
0
LINE
8
BLACK
6
CONTINUOUS
10
1.0025
20
0.83
11
0.9475
21
0.83
0
LINE
8
BLACK
6
CONTINUOUS
10
0.9475
20
0.83
11
0.9475
21
0.865
0
LINE
8
BLACK
6
CONTINUOUS
10
0.9475
20
0.865
11
1.0025
21
0.865
0
LINE
8
BLACK
6
CONTINUOUS
10
1.0025
20
0.865
11
1.0025
21
0.83
0
LINE
8
BLACK
6
CONTINUOUS
10
0.67075
20
0.8461
11
0.63925
21
0.8461
0
LINE
8
BLACK
6
CONTINUOUS
10
0.63925
20
0.8461
11
0.63925
21
0.8855
0
LINE
8
BLACK
6
CONTINUOUS
10
0.63925
20
0.8855
11
0.67075
21
0.8855
0
LINE
8
BLACK
6
CONTINUOUS
10
0.67075
20
0.8855
11
0.67075
21
0.8461
0
LINE
8
BLACK
6
CONTINUOUS
10
0.59575
20
0.8461
11
0.56425
21
0.8461
0
LINE
8
BLACK
6
CONTINUOUS
10
0.56425
20
0.8461
11
0.56425
21
0.8855
0
LINE
8
BLACK
6
CONTINUOUS
10
0.56425
20
0.8855
11
0.59575
21
0.8855
0
LINE
8
BLACK
6
CONTINUOUS
10
0.59575
20
0.8855
11
0.59575
21
0.8461
0
LINE
8
BLACK
6
CONTINUOUS
10
2.5
20
0.8525
11
2.465
21
0.8525
0
LINE
8
BLACK
6
CONTINUOUS
10
2.465
20
0.8525
11
2.465
21
0.9075
0
LINE
8
BLACK
6
CONTINUOUS
10
2.465
20
0.9075
11
2.5
21
0.9075
0
LINE
8
BLACK
6
CONTINUOUS
10
2.5
20
0.9075
11
2.5
21
0.8525
0
LINE
8
BLACK
6
CONTINUOUS
10
2.575
20
0.8525
11
2.54
21
0.8525
0
LINE
8
BLACK
6
CONTINUOUS
10
2.54
20
0.8525
11
2.54
21
0.9075
0
LINE
8
BLACK
6
CONTINUOUS
10
2.54
20
0.9075
11
2.575
21
0.9075
0
LINE
8
BLACK
6
CONTINUOUS
10
2.575
20
0.9075
11
2.575
21
0.8525
0
LINE
8
BLACK
6
CONTINUOUS
10
2.37969
20
0.89437
11
2.3226
21
0.89437
0
LINE
8
BLACK
6
CONTINUOUS
10
2.3226
20
0.89437
11
2.3226
21
0.912087
0
LINE
8
BLACK
6
CONTINUOUS
10
2.3226
20
0.912087
11
2.37969
21
0.912087
0
LINE
8
BLACK
6
CONTINUOUS
10
2.37969
20
0.912087
11
2.37969
21
0.89437
0
LINE
8
BLACK
6
CONTINUOUS
10
2.1474
20
0.89437
11
2.09031
21
0.89437
0
LINE
8
BLACK
6
CONTINUOUS
10
2.09031
20
0.89437
11
2.09031
21
0.912087
0
LINE
8
BLACK
6
CONTINUOUS
10
2.09031
20
0.912087
11
2.1474
21
0.912087
0
LINE
8
BLACK
6
CONTINUOUS
10
2.1474
20
0.912087
11
2.1474
21
0.89437
0
LINE
8
BLACK
6
CONTINUOUS
10
1.0025
20
0.905
11
0.9475
21
0.905
0
LINE
8
BLACK
6
CONTINUOUS
10
0.9475
20
0.905
11
0.9475
21
0.94
0
LINE
8
BLACK
6
CONTINUOUS
10
0.9475
20
0.94
11
1.0025
21
0.94
0
LINE
8
BLACK
6
CONTINUOUS
10
1.0025
20
0.94
11
1.0025
21
0.905
0
LINE
8
BLACK
6
CONTINUOUS
10
1.4452
20
0.90685
11
1.3448
21
0.90685
0
LINE
8
BLACK
6
CONTINUOUS
10
1.3448
20
0.90685
11
1.3448
21
1.01315
0
LINE
8
BLACK
6
CONTINUOUS
10
1.3448
20
1.01315
11
1.4452
21
1.01315
0
LINE
8
BLACK
6
CONTINUOUS
10
1.4452
20
1.01315
11
1.4452
21
0.90685
0
LINE
8
BLACK
6
CONTINUOUS
10
1.1952
20
0.90685
11
1.0948
21
0.90685
0
LINE
8
BLACK
6
CONTINUOUS
10
1.0948
20
0.90685
11
1.0948
21
1.01315
0
LINE
8
BLACK
6
CONTINUOUS
10
1.0948
20
1.01315
11
1.1952
21
1.01315
0
LINE
8
BLACK
6
CONTINUOUS
10
1.1952
20
1.01315
11
1.1952
21
0.90685
0
LINE
8
BLACK
6
CONTINUOUS
10
2.0125
20
0.91
11
1.9575
21
0.91
0
LINE
8
BLACK
6
CONTINUOUS
10
1.9575
20
0.91
11
1.9575
21
0.945
0
LINE
8
BLACK
6
CONTINUOUS
10
1.9575
20
0.945
11
2.0125
21
0.945
0
LINE
8
BLACK
6
CONTINUOUS
10
2.0125
20
0.945
11
2.0125
21
0.91
0
LINE
8
BLACK
6
CONTINUOUS
10
2.37969
20
0.919961
11
2.3226
21
0.919961
0
LINE
8
BLACK
6
CONTINUOUS
10
2.3226
20
0.919961
11
2.3226
21
0.937677
0
LINE
8
BLACK
6
CONTINUOUS
10
2.3226
20
0.937677
11
2.37969
21
0.937677
0
LINE
8
BLACK
6
CONTINUOUS
10
2.37969
20
0.937677
11
2.37969
21
0.919961
0
LINE
8
BLACK
6
CONTINUOUS
10
2.1474
20
0.919961
11
2.09031
21
0.919961
0
LINE
8
BLACK
6
CONTINUOUS
10
2.09031
20
0.919961
11
2.09031
21
0.937677
0
LINE
8
BLACK
6
CONTINUOUS
10
2.09031
20
0.937677
11
2.1474
21
0.937677
0
LINE
8
BLACK
6
CONTINUOUS
10
2.1474
20
0.937677
11
2.1474
21
0.919961
0
LINE
8
BLACK
6
CONTINUOUS
10
0.7
20
0.9325
11
0.645
21
0.9325
0
LINE
8
BLACK
6
CONTINUOUS
10
0.645
20
0.9325
11
0.645
21
0.9675
0
LINE
8
BLACK
6
CONTINUOUS
10
0.645
20
0.9675
11
0.7
21
0.9675
0
LINE
8
BLACK
6
CONTINUOUS
10
0.7
20
0.9675
11
0.7
21
0.9325
0
LINE
8
BLACK
6
CONTINUOUS
10
0.6275
20
0.9325
11
0.5725
21
0.9325
0
LINE
8
BLACK
6
CONTINUOUS
10
0.5725
20
0.9325
11
0.5725
21
0.9675
0
LINE
8
BLACK
6
CONTINUOUS
10
0.5725
20
0.9675
11
0.6275
21
0.9675
0
LINE
8
BLACK
6
CONTINUOUS
10
0.6275
20
0.9675
11
0.6275
21
0.9325
0
LINE
8
BLACK
6
CONTINUOUS
10
2.6075
20
0.935
11
2.5525
21
0.935
0
LINE
8
BLACK
6
CONTINUOUS
10
2.5525
20
0.935
11
2.5525
21
0.97
0
LINE
8
BLACK
6
CONTINUOUS
10
2.5525
20
0.97
11
2.6075
21
0.97
0
LINE
8
BLACK
6
CONTINUOUS
10
2.6075
20
0.97
11
2.6075
21
0.935
0
LINE
8
BLACK
6
CONTINUOUS
10
2.5075
20
0.935
11
2.4525
21
0.935
0
LINE
8
BLACK
6
CONTINUOUS
10
2.4525
20
0.935
11
2.4525
21
0.97
0
LINE
8
BLACK
6
CONTINUOUS
10
2.4525
20
0.97
11
2.5075
21
0.97
0
LINE
8
BLACK
6
CONTINUOUS
10
2.5075
20
0.97
11
2.5075
21
0.935
0
LINE
8
BLACK
6
CONTINUOUS
10
0.443622
20
0.94063
11
0.396378
21
0.94063
0
LINE
8
BLACK
6
CONTINUOUS
10
0.396378
20
0.94063
11
0.396378
21
1.01937
0
LINE
8
BLACK
6
CONTINUOUS
10
0.396378
20
1.01937
11
0.443622
21
1.01937
0
LINE
8
BLACK
6
CONTINUOUS
10
0.443622
20
1.01937
11
0.443622
21
0.94063
0
LINE
8
BLACK
6
CONTINUOUS
10
0.543622
20
0.94063
11
0.496378
21
0.94063
0
LINE
8
BLACK
6
CONTINUOUS
10
0.496378
20
0.94063
11
0.496378
21
1.01937
0
LINE
8
BLACK
6
CONTINUOUS
10
0.496378
20
1.01937
11
0.543622
21
1.01937
0
LINE
8
BLACK
6
CONTINUOUS
10
0.543622
20
1.01937
11
0.543622
21
0.94063
0
LINE
8
BLACK
6
CONTINUOUS
10
2.1474
20
0.945551
11
2.09031
21
0.945551
0
LINE
8
BLACK
6
CONTINUOUS
10
2.09031
20
0.945551
11
2.09031
21
0.963268
0
LINE
8
BLACK
6
CONTINUOUS
10
2.09031
20
0.963268
11
2.1474
21
0.963268
0
LINE
8
BLACK
6
CONTINUOUS
10
2.1474
20
0.963268
11
2.1474
21
0.945551
0
LINE
8
BLACK
6
CONTINUOUS
10
2.37969
20
0.945551
11
2.3226
21
0.945551
0
LINE
8
BLACK
6
CONTINUOUS
10
2.3226
20
0.945551
11
2.3226
21
0.963268
0
LINE
8
BLACK
6
CONTINUOUS
10
2.3226
20
0.963268
11
2.37969
21
0.963268
0
LINE
8
BLACK
6
CONTINUOUS
10
2.37969
20
0.963268
11
2.37969
21
0.945551
0
LINE
8
BLACK
6
CONTINUOUS
10
2.1474
20
0.971142
11
2.09031
21
0.971142
0
LINE
8
BLACK
6
CONTINUOUS
10
2.09031
20
0.971142
11
2.09031
21
0.988858
0
LINE
8
BLACK
6
CONTINUOUS
10
2.09031
20
0.988858
11
2.1474
21
0.988858
0
LINE
8
BLACK
6
CONTINUOUS
10
2.1474
20
0.988858
11
2.1474
21
0.971142
0
LINE
8
BLACK
6
CONTINUOUS
10
2.37969
20
0.971142
11
2.3226
21
0.971142
0
LINE
8
BLACK
6
CONTINUOUS
10
2.3226
20
0.971142
11
2.3226
21
0.988858
0
LINE
8
BLACK
6
CONTINUOUS
10
2.3226
20
0.988858
11
2.37969
21
0.988858
0
LINE
8
BLACK
6
CONTINUOUS
10
2.37969
20
0.988858
11
2.37969
21
0.971142
0
LINE
8
BLACK
6
CONTINUOUS
10
2.0125
20
0.985
11
1.9575
21
0.985
0
LINE
8
BLACK
6
CONTINUOUS
10
1.9575
20
0.985
11
1.9575
21
1.02
0
LINE
8
BLACK
6
CONTINUOUS
10
1.9575
20
1.02
11
2.0125
21
1.02
0
LINE
8
BLACK
6
CONTINUOUS
10
2.0125
20
1.02
11
2.0125
21
0.985
0
LINE
8
BLACK
6
CONTINUOUS
10
2.765
20
0.9925
11
2.73
21
0.9925
0
LINE
8
BLACK
6
CONTINUOUS
10
2.73
20
0.9925
11
2.73
21
1.0475
0
LINE
8
BLACK
6
CONTINUOUS
10
2.73
20
1.0475
11
2.765
21
1.0475
0
LINE
8
BLACK
6
CONTINUOUS
10
2.765
20
1.0475
11
2.765
21
0.9925
0
LINE
8
BLACK
6
CONTINUOUS
10
2.69
20
0.9925
11
2.655
21
0.9925
0
LINE
8
BLACK
6
CONTINUOUS
10
2.655
20
0.9925
11
2.655
21
1.0475
0
LINE
8
BLACK
6
CONTINUOUS
10
2.655
20
1.0475
11
2.69
21
1.0475
0
LINE
8
BLACK
6
CONTINUOUS
10
2.69
20
1.0475
11
2.69
21
0.9925
0
LINE
8
BLACK
6
CONTINUOUS
10
2.37969
20
0.996732
11
2.3226
21
0.996732
0
LINE
8
BLACK
6
CONTINUOUS
10
2.3226
20
0.996732
11
2.3226
21
1.01445
0
LINE
8
BLACK
6
CONTINUOUS
10
2.3226
20
1.01445
11
2.37969
21
1.01445
0
LINE
8
BLACK
6
CONTINUOUS
10
2.37969
20
1.01445
11
2.37969
21
0.996732
0
LINE
8
BLACK
6
CONTINUOUS
10
2.1474
20
0.996732
11
2.09031
21
0.996732
0
LINE
8
BLACK
6
CONTINUOUS
10
2.09031
20
0.996732
11
2.09031
21
1.01445
0
LINE
8
BLACK
6
CONTINUOUS
10
2.09031
20
1.01445
11
2.1474
21
1.01445
0
LINE
8
BLACK
6
CONTINUOUS
10
2.1474
20
1.01445
11
2.1474
21
0.996732
0
LINE
8
BLACK
6
CONTINUOUS
10
0.3775
20
1.005
11
0.3225
21
1.005
0
LINE
8
BLACK
6
CONTINUOUS
10
0.3225
20
1.005
11
0.3225
21
1.04
0
LINE
8
BLACK
6
CONTINUOUS
10
0.3225
20
1.04
11
0.3775
21
1.04
0
LINE
8
BLACK
6
CONTINUOUS
10
0.3775
20
1.04
11
0.3775
21
1.005
0
LINE
8
BLACK
6
CONTINUOUS
10
0.6275
20
1.0075
11
0.5725
21
1.0075
0
LINE
8
BLACK
6
CONTINUOUS
10
0.5725
20
1.0075
11
0.5725
21
1.0425
0
LINE
8
BLACK
6
CONTINUOUS
10
0.5725
20
1.0425
11
0.6275
21
1.0425
0
LINE
8
BLACK
6
CONTINUOUS
10
0.6275
20
1.0425
11
0.6275
21
1.0075
0
LINE
8
BLACK
6
CONTINUOUS
10
0.7
20
1.0075
11
0.645
21
1.0075
0
LINE
8
BLACK
6
CONTINUOUS
10
0.645
20
1.0075
11
0.645
21
1.0425
0
LINE
8
BLACK
6
CONTINUOUS
10
0.645
20
1.0425
11
0.7
21
1.0425
0
LINE
8
BLACK
6
CONTINUOUS
10
0.7
20
1.0425
11
0.7
21
1.0075
0
LINE
8
BLACK
6
CONTINUOUS
10
2.6075
20
1.01
11
2.5525
21
1.01
0
LINE
8
BLACK
6
CONTINUOUS
10
2.5525
20
1.01
11
2.5525
21
1.045
0
LINE
8
BLACK
6
CONTINUOUS
10
2.5525
20
1.045
11
2.6075
21
1.045
0
LINE
8
BLACK
6
CONTINUOUS
10
2.6075
20
1.045
11
2.6075
21
1.01
0
LINE
8
BLACK
6
CONTINUOUS
10
2.5075
20
1.01
11
2.4525
21
1.01
0
LINE
8
BLACK
6
CONTINUOUS
10
2.4525
20
1.01
11
2.4525
21
1.045
0
LINE
8
BLACK
6
CONTINUOUS
10
2.4525
20
1.045
11
2.5075
21
1.045
0
LINE
8
BLACK
6
CONTINUOUS
10
2.5075
20
1.045
11
2.5075
21
1.01
0
LINE
8
BLACK
6
CONTINUOUS
10
2.37969
20
1.02232
11
2.3226
21
1.02232
0
LINE
8
BLACK
6
CONTINUOUS
10
2.3226
20
1.02232
11
2.3226
21
1.04004
0
LINE
8
BLACK
6
CONTINUOUS
10
2.3226
20
1.04004
11
2.37969
21
1.04004
0
LINE
8
BLACK
6
CONTINUOUS
10
2.37969
20
1.04004
11
2.37969
21
1.02232
0
LINE
8
BLACK
6
CONTINUOUS
10
2.1474
20
1.02232
11
2.09031
21
1.02232
0
LINE
8
BLACK
6
CONTINUOUS
10
2.09031
20
1.02232
11
2.09031
21
1.04004
0
LINE
8
BLACK
6
CONTINUOUS
10
2.09031
20
1.04004
11
2.1474
21
1.04004
0
LINE
8
BLACK
6
CONTINUOUS
10
2.1474
20
1.04004
11
2.1474
21
1.02232
0
LINE
8
BLACK
6
CONTINUOUS
10
2.1474
20
1.04791
11
2.09031
21
1.04791
0
LINE
8
BLACK
6
CONTINUOUS
10
2.09031
20
1.04791
11
2.09031
21
1.06563
0
LINE
8
BLACK
6
CONTINUOUS
10
2.09031
20
1.06563
11
2.1474
21
1.06563
0
LINE
8
BLACK
6
CONTINUOUS
10
2.1474
20
1.06563
11
2.1474
21
1.04791
0
LINE
8
BLACK
6
CONTINUOUS
10
2.37969
20
1.04791
11
2.3226
21
1.04791
0
LINE
8
BLACK
6
CONTINUOUS
10
2.3226
20
1.04791
11
2.3226
21
1.06563
0
LINE
8
BLACK
6
CONTINUOUS
10
2.3226
20
1.06563
11
2.37969
21
1.06563
0
LINE
8
BLACK
6
CONTINUOUS
10
2.37969
20
1.06563
11
2.37969
21
1.04791
0
LINE
8
BLACK
6
CONTINUOUS
10
0.715
20
1.0625
11
0.68
21
1.0625
0
LINE
8
BLACK
6
CONTINUOUS
10
0.68
20
1.0625
11
0.68
21
1.1175
0
LINE
8
BLACK
6
CONTINUOUS
10
0.68
20
1.1175
11
0.715
21
1.1175
0
LINE
8
BLACK
6
CONTINUOUS
10
0.715
20
1.1175
11
0.715
21
1.0625
0
LINE
8
BLACK
6
CONTINUOUS
10
0.64
20
1.0625
11
0.605
21
1.0625
0
LINE
8
BLACK
6
CONTINUOUS
10
0.605
20
1.0625
11
0.605
21
1.1175
0
LINE
8
BLACK
6
CONTINUOUS
10
0.605
20
1.1175
11
0.64
21
1.1175
0
LINE
8
BLACK
6
CONTINUOUS
10
0.64
20
1.1175
11
0.64
21
1.0625
0
LINE
8
BLACK
6
CONTINUOUS
10
2.91799
20
1.06736
11
2.79201
21
1.06736
0
LINE
8
BLACK
6
CONTINUOUS
10
2.79201
20
1.06736
11
2.79201
21
1.10673
0
LINE
8
BLACK
6
CONTINUOUS
10
2.79201
20
1.10673
11
2.91799
21
1.10673
0
LINE
8
BLACK
6
CONTINUOUS
10
2.91799
20
1.10673
11
2.91799
21
1.06736
0
LINE
8
BLACK
6
CONTINUOUS
10
0.564803
20
1.07472
11
0.531339
21
1.07472
0
LINE
8
BLACK
6
CONTINUOUS
10
0.531339
20
1.07472
11
0.531339
21
1.0885
0
LINE
8
BLACK
6
CONTINUOUS
10
0.531339
20
1.0885
11
0.564803
21
1.0885
0
LINE
8
BLACK
6
CONTINUOUS
10
0.564803
20
1.0885
11
0.564803
21
1.07472
0
LINE
8
BLACK
6
CONTINUOUS
10
0.448661
20
1.07472
11
0.415197
21
1.07472
0
LINE
8
BLACK
6
CONTINUOUS
10
0.415197
20
1.07472
11
0.415197
21
1.0885
0
LINE
8
BLACK
6
CONTINUOUS
10
0.415197
20
1.0885
11
0.448661
21
1.0885
0
LINE
8
BLACK
6
CONTINUOUS
10
0.448661
20
1.0885
11
0.448661
21
1.07472
0
LINE
8
BLACK
6
CONTINUOUS
10
0.285
20
1.0775
11
0.25
21
1.0775
0
LINE
8
BLACK
6
CONTINUOUS
10
0.25
20
1.0775
11
0.25
21
1.1325
0
LINE
8
BLACK
6
CONTINUOUS
10
0.25
20
1.1325
11
0.285
21
1.1325
0
LINE
8
BLACK
6
CONTINUOUS
10
0.285
20
1.1325
11
0.285
21
1.0775
0
LINE
8
BLACK
6
CONTINUOUS
10
0.21
20
1.0775
11
0.175
21
1.0775
0
LINE
8
BLACK
6
CONTINUOUS
10
0.175
20
1.0775
11
0.175
21
1.1325
0
LINE
8
BLACK
6
CONTINUOUS
10
0.175
20
1.1325
11
0.21
21
1.1325
0
LINE
8
BLACK
6
CONTINUOUS
10
0.21
20
1.1325
11
0.21
21
1.0775
0
LINE
8
BLACK
6
CONTINUOUS
10
1.19327
20
1.07909
11
0.976732
21
1.07909
0
LINE
8
BLACK
6
CONTINUOUS
10
0.976732
20
1.07909
11
0.976732
21
1.1972
0
LINE
8
BLACK
6
CONTINUOUS
10
0.976732
20
1.1972
11
1.19327
21
1.1972
0
LINE
8
BLACK
6
CONTINUOUS
10
1.19327
20
1.1972
11
1.19327
21
1.07909
0
LINE
8
BLACK
6
CONTINUOUS
10
0.3775
20
1.08
11
0.3225
21
1.08
0
LINE
8
BLACK
6
CONTINUOUS
10
0.3225
20
1.08
11
0.3225
21
1.115
0
LINE
8
BLACK
6
CONTINUOUS
10
0.3225
20
1.115
11
0.3775
21
1.115
0
LINE
8
BLACK
6
CONTINUOUS
10
0.3775
20
1.115
11
0.3775
21
1.08
0
LINE
8
BLACK
6
CONTINUOUS
10
0.517559
20
1.08063
11
0.462441
21
1.08063
0
LINE
8
BLACK
6
CONTINUOUS
10
0.462441
20
1.08063
11
0.462441
21
1.15937
0
LINE
8
BLACK
6
CONTINUOUS
10
0.462441
20
1.15937
11
0.517559
21
1.15937
0
LINE
8
BLACK
6
CONTINUOUS
10
0.517559
20
1.15937
11
0.517559
21
1.08063
0
LINE
8
BLACK
6
CONTINUOUS
10
2.575
20
1.0925
11
2.54
21
1.0925
0
LINE
8
BLACK
6
CONTINUOUS
10
2.54
20
1.0925
11
2.54
21
1.1475
0
LINE
8
BLACK
6
CONTINUOUS
10
2.54
20
1.1475
11
2.575
21
1.1475
0
LINE
8
BLACK
6
CONTINUOUS
10
2.575
20
1.1475
11
2.575
21
1.0925
0
LINE
8
BLACK
6
CONTINUOUS
10
2.5
20
1.0925
11
2.465
21
1.0925
0
LINE
8
BLACK
6
CONTINUOUS
10
2.465
20
1.0925
11
2.465
21
1.1475
0
LINE
8
BLACK
6
CONTINUOUS
10
2.465
20
1.1475
11
2.5
21
1.1475
0
LINE
8
BLACK
6
CONTINUOUS
10
2.5
20
1.1475
11
2.5
21
1.0925
0
LINE
8
BLACK
6
CONTINUOUS
10
0.564803
20
1.10031
11
0.531339
21
1.10031
0
LINE
8
BLACK
6
CONTINUOUS
10
0.531339
20
1.10031
11
0.531339
21
1.11409
0
LINE
8
BLACK
6
CONTINUOUS
10
0.531339
20
1.11409
11
0.564803
21
1.11409
0
LINE
8
BLACK
6
CONTINUOUS
10
0.564803
20
1.11409
11
0.564803
21
1.10031
0
LINE
8
BLACK
6
CONTINUOUS
10
0.448661
20
1.10031
11
0.415197
21
1.10031
0
LINE
8
BLACK
6
CONTINUOUS
10
0.415197
20
1.10031
11
0.415197
21
1.11409
0
LINE
8
BLACK
6
CONTINUOUS
10
0.415197
20
1.11409
11
0.448661
21
1.11409
0
LINE
8
BLACK
6
CONTINUOUS
10
0.448661
20
1.11409
11
0.448661
21
1.10031
0
LINE
8
BLACK
6
CONTINUOUS
10
2.0525
20
1.125
11
2.0175
21
1.125
0
LINE
8
BLACK
6
CONTINUOUS
10
2.0175
20
1.125
11
2.0175
21
1.18
0
LINE
8
BLACK
6
CONTINUOUS
10
2.0175
20
1.18
11
2.0525
21
1.18
0
LINE
8
BLACK
6
CONTINUOUS
10
2.0525
20
1.18
11
2.0525
21
1.125
0
LINE
8
BLACK
6
CONTINUOUS
10
2.1275
20
1.125
11
2.0925
21
1.125
0
LINE
8
BLACK
6
CONTINUOUS
10
2.0925
20
1.125
11
2.0925
21
1.18
0
LINE
8
BLACK
6
CONTINUOUS
10
2.0925
20
1.18
11
2.1275
21
1.18
0
LINE
8
BLACK
6
CONTINUOUS
10
2.1275
20
1.18
11
2.1275
21
1.125
0
LINE
8
BLACK
6
CONTINUOUS
10
0.564803
20
1.12591
11
0.531339
21
1.12591
0
LINE
8
BLACK
6
CONTINUOUS
10
0.531339
20
1.12591
11
0.531339
21
1.13969
0
LINE
8
BLACK
6
CONTINUOUS
10
0.531339
20
1.13969
11
0.564803
21
1.13969
0
LINE
8
BLACK
6
CONTINUOUS
10
0.564803
20
1.13969
11
0.564803
21
1.12591
0
LINE
8
BLACK
6
CONTINUOUS
10
0.448661
20
1.12591
11
0.415197
21
1.12591
0
LINE
8
BLACK
6
CONTINUOUS
10
0.415197
20
1.12591
11
0.415197
21
1.13969
0
LINE
8
BLACK
6
CONTINUOUS
10
0.415197
20
1.13969
11
0.448661
21
1.13969
0
LINE
8
BLACK
6
CONTINUOUS
10
0.448661
20
1.13969
11
0.448661
21
1.12591
0
LINE
8
BLACK
6
CONTINUOUS
10
1.79289
20
1.20022
11
1.79639
21
1.19756
0
LINE
8
BLACK
6
CONTINUOUS
10
1.79639
20
1.19756
11
1.7987
21
1.19382
0
LINE
8
BLACK
6
CONTINUOUS
10
1.7987
20
1.19382
11
1.7995
21
1.1895
0
LINE
8
BLACK
6
CONTINUOUS
10
1.7995
20
1.1895
11
1.7995
21
1.1555
0
LINE
8
BLACK
6
CONTINUOUS
10
1.7995
20
1.1555
11
1.79927
21
1.15317
0
LINE
8
BLACK
6
CONTINUOUS
10
1.79927
20
1.15317
11
1.79764
21
1.14909
0
LINE
8
BLACK
6
CONTINUOUS
10
1.79764
20
1.14909
11
1.79465
21
1.14587
0
LINE
8
BLACK
6
CONTINUOUS
10
1.79465
20
1.14587
11
1.79071
21
1.14394
0
LINE
8
BLACK
6
CONTINUOUS
10
1.79071
20
1.14394
11
1.78633
21
1.14356
0
LINE
8
BLACK
6
CONTINUOUS
10
1.78633
20
1.14356
11
1.78211
21
1.14478
0
LINE
8
BLACK
6
CONTINUOUS
10
1.78211
20
1.14478
11
1.77861
21
1.14744
0
LINE
8
BLACK
6
CONTINUOUS
10
1.77861
20
1.14744
11
1.7763
21
1.15118
0
LINE
8
BLACK
6
CONTINUOUS
10
1.7763
20
1.15118
11
1.7755
21
1.1555
0
LINE
8
BLACK
6
CONTINUOUS
10
1.7755
20
1.1555
11
1.7755
21
1.1895
0
LINE
8
BLACK
6
CONTINUOUS
10
1.7755
20
1.1895
11
1.77573
21
1.19183
0
LINE
8
BLACK
6
CONTINUOUS
10
1.77573
20
1.19183
11
1.77736
21
1.19591
0
LINE
8
BLACK
6
CONTINUOUS
10
1.77736
20
1.19591
11
1.78035
21
1.19913
0
LINE
8
BLACK
6
CONTINUOUS
10
1.78035
20
1.19913
11
1.78429
21
1.20106
0
LINE
8
BLACK
6
CONTINUOUS
10
1.78429
20
1.20106
11
1.78867
21
1.20144
0
LINE
8
BLACK
6
CONTINUOUS
10
1.78867
20
1.20144
11
1.79289
21
1.20022
0
LINE
8
BLACK
6
CONTINUOUS
10
1.84289
20
1.20022
11
1.84639
21
1.19756
0
LINE
8
BLACK
6
CONTINUOUS
10
1.84639
20
1.19756
11
1.8487
21
1.19382
0
LINE
8
BLACK
6
CONTINUOUS
10
1.8487
20
1.19382
11
1.8495
21
1.1895
0
LINE
8
BLACK
6
CONTINUOUS
10
1.8495
20
1.1895
11
1.8495
21
1.1555
0
LINE
8
BLACK
6
CONTINUOUS
10
1.8495
20
1.1555
11
1.84927
21
1.15317
0
LINE
8
BLACK
6
CONTINUOUS
10
1.84927
20
1.15317
11
1.84764
21
1.14909
0
LINE
8
BLACK
6
CONTINUOUS
10
1.84764
20
1.14909
11
1.84465
21
1.14587
0
LINE
8
BLACK
6
CONTINUOUS
10
1.84465
20
1.14587
11
1.84071
21
1.14394
0
LINE
8
BLACK
6
CONTINUOUS
10
1.84071
20
1.14394
11
1.83633
21
1.14356
0
LINE
8
BLACK
6
CONTINUOUS
10
1.83633
20
1.14356
11
1.83211
21
1.14478
0
LINE
8
BLACK
6
CONTINUOUS
10
1.83211
20
1.14478
11
1.82861
21
1.14744
0
LINE
8
BLACK
6
CONTINUOUS
10
1.82861
20
1.14744
11
1.8263
21
1.15118
0
LINE
8
BLACK
6
CONTINUOUS
10
1.8263
20
1.15118
11
1.8255
21
1.1555
0
LINE
8
BLACK
6
CONTINUOUS
10
1.8255
20
1.1555
11
1.8255
21
1.1895
0
LINE
8
BLACK
6
CONTINUOUS
10
1.8255
20
1.1895
11
1.82573
21
1.19183
0
LINE
8
BLACK
6
CONTINUOUS
10
1.82573
20
1.19183
11
1.82736
21
1.19591
0
LINE
8
BLACK
6
CONTINUOUS
10
1.82736
20
1.19591
11
1.83035
21
1.19913
0
LINE
8
BLACK
6
CONTINUOUS
10
1.83035
20
1.19913
11
1.83429
21
1.20106
0
LINE
8
BLACK
6
CONTINUOUS
10
1.83429
20
1.20106
11
1.83867
21
1.20144
0
LINE
8
BLACK
6
CONTINUOUS
10
1.83867
20
1.20144
11
1.84289
21
1.20022
0
LINE
8
BLACK
6
CONTINUOUS
10
1.89289
20
1.20022
11
1.89639
21
1.19756
0
LINE
8
BLACK
6
CONTINUOUS
10
1.89639
20
1.19756
11
1.8987
21
1.19382
0
LINE
8
BLACK
6
CONTINUOUS
10
1.8987
20
1.19382
11
1.8995
21
1.1895
0
LINE
8
BLACK
6
CONTINUOUS
10
1.8995
20
1.1895
11
1.8995
21
1.1555
0
LINE
8
BLACK
6
CONTINUOUS
10
1.8995
20
1.1555
11
1.89927
21
1.15317
0
LINE
8
BLACK
6
CONTINUOUS
10
1.89927
20
1.15317
11
1.89764
21
1.14909
0
LINE
8
BLACK
6
CONTINUOUS
10
1.89764
20
1.14909
11
1.89465
21
1.14587
0
LINE
8
BLACK
6
CONTINUOUS
10
1.89465
20
1.14587
11
1.89071
21
1.14394
0
LINE
8
BLACK
6
CONTINUOUS
10
1.89071
20
1.14394
11
1.88633
21
1.14356
0
LINE
8
BLACK
6
CONTINUOUS
10
1.88633
20
1.14356
11
1.88211
21
1.14478
0
LINE
8
BLACK
6
CONTINUOUS
10
1.88211
20
1.14478
11
1.87861
21
1.14744
0
LINE
8
BLACK
6
CONTINUOUS
10
1.87861
20
1.14744
11
1.8763
21
1.15118
0
LINE
8
BLACK
6
CONTINUOUS
10
1.8763
20
1.15118
11
1.8755
21
1.1555
0
LINE
8
BLACK
6
CONTINUOUS
10
1.8755
20
1.1555
11
1.8755
21
1.1895
0
LINE
8
BLACK
6
CONTINUOUS
10
1.8755
20
1.1895
11
1.87573
21
1.19183
0
LINE
8
BLACK
6
CONTINUOUS
10
1.87573
20
1.19183
11
1.87736
21
1.19591
0
LINE
8
BLACK
6
CONTINUOUS
10
1.87736
20
1.19591
11
1.88035
21
1.19913
0
LINE
8
BLACK
6
CONTINUOUS
10
1.88035
20
1.19913
11
1.88429
21
1.20106
0
LINE
8
BLACK
6
CONTINUOUS
10
1.88429
20
1.20106
11
1.88867
21
1.20144
0
LINE
8
BLACK
6
CONTINUOUS
10
1.88867
20
1.20144
11
1.89289
21
1.20022
0
LINE
8
BLACK
6
CONTINUOUS
10
1.94289
20
1.20022
11
1.94639
21
1.19756
0
LINE
8
BLACK
6
CONTINUOUS
10
1.94639
20
1.19756
11
1.9487
21
1.19382
0
LINE
8
BLACK
6
CONTINUOUS
10
1.9487
20
1.19382
11
1.9495
21
1.1895
0
LINE
8
BLACK
6
CONTINUOUS
10
1.9495
20
1.1895
11
1.9495
21
1.1555
0
LINE
8
BLACK
6
CONTINUOUS
10
1.9495
20
1.1555
11
1.94927
21
1.15317
0
LINE
8
BLACK
6
CONTINUOUS
10
1.94927
20
1.15317
11
1.94764
21
1.14909
0
LINE
8
BLACK
6
CONTINUOUS
10
1.94764
20
1.14909
11
1.94465
21
1.14587
0
LINE
8
BLACK
6
CONTINUOUS
10
1.94465
20
1.14587
11
1.94071
21
1.14394
0
LINE
8
BLACK
6
CONTINUOUS
10
1.94071
20
1.14394
11
1.93633
21
1.14356
0
LINE
8
BLACK
6
CONTINUOUS
10
1.93633
20
1.14356
11
1.93211
21
1.14478
0
LINE
8
BLACK
6
CONTINUOUS
10
1.93211
20
1.14478
11
1.92861
21
1.14744
0
LINE
8
BLACK
6
CONTINUOUS
10
1.92861
20
1.14744
11
1.9263
21
1.15118
0
LINE
8
BLACK
6
CONTINUOUS
10
1.9263
20
1.15118
11
1.9255
21
1.1555
0
LINE
8
BLACK
6
CONTINUOUS
10
1.9255
20
1.1555
11
1.9255
21
1.1895
0
LINE
8
BLACK
6
CONTINUOUS
10
1.9255
20
1.1895
11
1.92573
21
1.19183
0
LINE
8
BLACK
6
CONTINUOUS
10
1.92573
20
1.19183
11
1.92736
21
1.19591
0
LINE
8
BLACK
6
CONTINUOUS
10
1.92736
20
1.19591
11
1.93035
21
1.19913
0
LINE
8
BLACK
6
CONTINUOUS
10
1.93035
20
1.19913
11
1.93429
21
1.20106
0
LINE
8
BLACK
6
CONTINUOUS
10
1.93429
20
1.20106
11
1.93867
21
1.20144
0
LINE
8
BLACK
6
CONTINUOUS
10
1.93867
20
1.20144
11
1.94289
21
1.20022
0
LINE
8
BLACK
6
CONTINUOUS
10
0.3775
20
1.15
11
0.3225
21
1.15
0
LINE
8
BLACK
6
CONTINUOUS
10
0.3225
20
1.15
11
0.3225
21
1.185
0
LINE
8
BLACK
6
CONTINUOUS
10
0.3225
20
1.185
11
0.3775
21
1.185
0
LINE
8
BLACK
6
CONTINUOUS
10
0.3775
20
1.185
11
0.3775
21
1.15
0
LINE
8
BLACK
6
CONTINUOUS
10
0.448661
20
1.1515
11
0.415197
21
1.1515
0
LINE
8
BLACK
6
CONTINUOUS
10
0.415197
20
1.1515
11
0.415197
21
1.16528
0
LINE
8
BLACK
6
CONTINUOUS
10
0.415197
20
1.16528
11
0.448661
21
1.16528
0
LINE
8
BLACK
6
CONTINUOUS
10
0.448661
20
1.16528
11
0.448661
21
1.1515
0
LINE
8
BLACK
6
CONTINUOUS
10
0.564803
20
1.1515
11
0.531339
21
1.1515
0
LINE
8
BLACK
6
CONTINUOUS
10
0.531339
20
1.1515
11
0.531339
21
1.16528
0
LINE
8
BLACK
6
CONTINUOUS
10
0.531339
20
1.16528
11
0.564803
21
1.16528
0
LINE
8
BLACK
6
CONTINUOUS
10
0.564803
20
1.16528
11
0.564803
21
1.1515
0
LINE
8
BLACK
6
CONTINUOUS
10
0.79825
20
1.162
11
0.76675
21
1.162
0
LINE
8
BLACK
6
CONTINUOUS
10
0.76675
20
1.162
11
0.76675
21
1.2014
0
LINE
8
BLACK
6
CONTINUOUS
10
0.76675
20
1.2014
11
0.79825
21
1.2014
0
LINE
8
BLACK
6
CONTINUOUS
10
0.79825
20
1.2014
11
0.79825
21
1.162
0
LINE
8
BLACK
6
CONTINUOUS
10
0.72325
20
1.162
11
0.69175
21
1.162
0
LINE
8
BLACK
6
CONTINUOUS
10
0.69175
20
1.162
11
0.69175
21
1.2014
0
LINE
8
BLACK
6
CONTINUOUS
10
0.69175
20
1.2014
11
0.72325
21
1.2014
0
LINE
8
BLACK
6
CONTINUOUS
10
0.72325
20
1.2014
11
0.72325
21
1.162
0
LINE
8
BLACK
6
CONTINUOUS
10
0.6475
20
1.165
11
0.5925
21
1.165
0
LINE
8
BLACK
6
CONTINUOUS
10
0.5925
20
1.165
11
0.5925
21
1.2
0
LINE
8
BLACK
6
CONTINUOUS
10
0.5925
20
1.2
11
0.6475
21
1.2
0
LINE
8
BLACK
6
CONTINUOUS
10
0.6475
20
1.2
11
0.6475
21
1.165
0
LINE
8
BLACK
6
CONTINUOUS
10
0.21
20
1.1675
11
0.175
21
1.1675
0
LINE
8
BLACK
6
CONTINUOUS
10
0.175
20
1.1675
11
0.175
21
1.2225
0
LINE
8
BLACK
6
CONTINUOUS
10
0.175
20
1.2225
11
0.21
21
1.2225
0
LINE
8
BLACK
6
CONTINUOUS
10
0.21
20
1.2225
11
0.21
21
1.1675
0
LINE
8
BLACK
6
CONTINUOUS
10
0.285
20
1.1675
11
0.25
21
1.1675
0
LINE
8
BLACK
6
CONTINUOUS
10
0.25
20
1.1675
11
0.25
21
1.2225
0
LINE
8
BLACK
6
CONTINUOUS
10
0.25
20
1.2225
11
0.285
21
1.2225
0
LINE
8
BLACK
6
CONTINUOUS
10
0.285
20
1.2225
11
0.285
21
1.1675
0
LINE
8
BLACK
6
CONTINUOUS
10
0.545
20
1.2125
11
0.51
21
1.2125
0
LINE
8
BLACK
6
CONTINUOUS
10
0.51
20
1.2125
11
0.51
21
1.2675
0
LINE
8
BLACK
6
CONTINUOUS
10
0.51
20
1.2675
11
0.545
21
1.2675
0
LINE
8
BLACK
6
CONTINUOUS
10
0.545
20
1.2675
11
0.545
21
1.2125
0
LINE
8
BLACK
6
CONTINUOUS
10
0.47
20
1.2125
11
0.435
21
1.2125
0
LINE
8
BLACK
6
CONTINUOUS
10
0.435
20
1.2125
11
0.435
21
1.2675
0
LINE
8
BLACK
6
CONTINUOUS
10
0.435
20
1.2675
11
0.47
21
1.2675
0
LINE
8
BLACK
6
CONTINUOUS
10
0.47
20
1.2675
11
0.47
21
1.2125
0
LINE
8
BLACK
6
CONTINUOUS
10
1.51799
20
1.21327
11
1.39201
21
1.21327
0
LINE
8
BLACK
6
CONTINUOUS
10
1.39201
20
1.21327
11
1.39201
21
1.25264
0
LINE
8
BLACK
6
CONTINUOUS
10
1.39201
20
1.25264
11
1.51799
21
1.25264
0
LINE
8
BLACK
6
CONTINUOUS
10
1.51799
20
1.25264
11
1.51799
21
1.21327
0
LINE
8
BLACK
6
CONTINUOUS
10
2.15
20
1.215
11
2.095
21
1.215
0
LINE
8
BLACK
6
CONTINUOUS
10
2.095
20
1.215
11
2.095
21
1.25
0
LINE
8
BLACK
6
CONTINUOUS
10
2.095
20
1.25
11
2.15
21
1.25
0
LINE
8
BLACK
6
CONTINUOUS
10
2.15
20
1.25
11
2.15
21
1.215
0
LINE
8
BLACK
6
CONTINUOUS
10
2.23
20
1.215
11
2.175
21
1.215
0
LINE
8
BLACK
6
CONTINUOUS
10
2.175
20
1.215
11
2.175
21
1.25
0
LINE
8
BLACK
6
CONTINUOUS
10
2.175
20
1.25
11
2.23
21
1.25
0
LINE
8
BLACK
6
CONTINUOUS
10
2.23
20
1.25
11
2.23
21
1.215
0
LINE
8
BLACK
6
CONTINUOUS
10
0.3775
20
1.225
11
0.3225
21
1.225
0
LINE
8
BLACK
6
CONTINUOUS
10
0.3225
20
1.225
11
0.3225
21
1.26
0
LINE
8
BLACK
6
CONTINUOUS
10
0.3225
20
1.26
11
0.3775
21
1.26
0
LINE
8
BLACK
6
CONTINUOUS
10
0.3775
20
1.26
11
0.3775
21
1.225
0
LINE
8
BLACK
6
CONTINUOUS
10
2.0475
20
1.2375
11
1.9925
21
1.2375
0
LINE
8
BLACK
6
CONTINUOUS
10
1.9925
20
1.2375
11
1.9925
21
1.2725
0
LINE
8
BLACK
6
CONTINUOUS
10
1.9925
20
1.2725
11
2.0475
21
1.2725
0
LINE
8
BLACK
6
CONTINUOUS
10
2.0475
20
1.2725
11
2.0475
21
1.2375
0
LINE
8
BLACK
6
CONTINUOUS
10
0.6475
20
1.24
11
0.5925
21
1.24
0
LINE
8
BLACK
6
CONTINUOUS
10
0.5925
20
1.24
11
0.5925
21
1.275
0
LINE
8
BLACK
6
CONTINUOUS
10
0.5925
20
1.275
11
0.6475
21
1.275
0
LINE
8
BLACK
6
CONTINUOUS
10
0.6475
20
1.275
11
0.6475
21
1.24
0
LINE
8
BLACK
6
CONTINUOUS
10
0.76075
20
1.2486
11
0.72925
21
1.2486
0
LINE
8
BLACK
6
CONTINUOUS
10
0.72925
20
1.2486
11
0.72925
21
1.288
0
LINE
8
BLACK
6
CONTINUOUS
10
0.72925
20
1.288
11
0.76075
21
1.288
0
LINE
8
BLACK
6
CONTINUOUS
10
0.76075
20
1.288
11
0.76075
21
1.2486
0
LINE
8
BLACK
6
CONTINUOUS
10
0.2825
20
1.28
11
0.2275
21
1.28
0
LINE
8
BLACK
6
CONTINUOUS
10
0.2275
20
1.28
11
0.2275
21
1.315
0
LINE
8
BLACK
6
CONTINUOUS
10
0.2275
20
1.315
11
0.2825
21
1.315
0
LINE
8
BLACK
6
CONTINUOUS
10
0.2825
20
1.315
11
0.2825
21
1.28
0
LINE
8
BLACK
6
CONTINUOUS
10
2.23
20
1.29
11
2.175
21
1.29
0
LINE
8
BLACK
6
CONTINUOUS
10
2.175
20
1.29
11
2.175
21
1.325
0
LINE
8
BLACK
6
CONTINUOUS
10
2.175
20
1.325
11
2.23
21
1.325
0
LINE
8
BLACK
6
CONTINUOUS
10
2.23
20
1.325
11
2.23
21
1.29
0
LINE
8
BLACK
6
CONTINUOUS
10
2.15
20
1.29
11
2.095
21
1.29
0
LINE
8
BLACK
6
CONTINUOUS
10
2.095
20
1.29
11
2.095
21
1.325
0
LINE
8
BLACK
6
CONTINUOUS
10
2.095
20
1.325
11
2.15
21
1.325
0
LINE
8
BLACK
6
CONTINUOUS
10
2.15
20
1.325
11
2.15
21
1.29
0
LINE
8
BLACK
6
CONTINUOUS
10
2.0475
20
1.3125
11
1.9925
21
1.3125
0
LINE
8
BLACK
6
CONTINUOUS
10
1.9925
20
1.3125
11
1.9925
21
1.3475
0
LINE
8
BLACK
6
CONTINUOUS
10
1.9925
20
1.3475
11
2.0475
21
1.3475
0
LINE
8
BLACK
6
CONTINUOUS
10
2.0475
20
1.3475
11
2.0475
21
1.3125
0
LINE
8
BLACK
6
CONTINUOUS
10
2.1525
20
1.35
11
2.1175
21
1.35
0
LINE
8
BLACK
6
CONTINUOUS
10
2.1175
20
1.35
11
2.1175
21
1.405
0
LINE
8
BLACK
6
CONTINUOUS
10
2.1175
20
1.405
11
2.1525
21
1.405
0
LINE
8
BLACK
6
CONTINUOUS
10
2.1525
20
1.405
11
2.1525
21
1.35
0
LINE
8
BLACK
6
CONTINUOUS
10
2.2275
20
1.35
11
2.1925
21
1.35
0
LINE
8
BLACK
6
CONTINUOUS
10
2.1925
20
1.35
11
2.1925
21
1.405
0
LINE
8
BLACK
6
CONTINUOUS
10
2.1925
20
1.405
11
2.2275
21
1.405
0
LINE
8
BLACK
6
CONTINUOUS
10
2.2275
20
1.405
11
2.2275
21
1.35
0
LINE
8
BLACK
6
CONTINUOUS
10
0.430984
20
1.355
11
0.299882
21
1.355
0
LINE
8
BLACK
6
CONTINUOUS
10
0.299882
20
1.355
11
0.299882
21
1.505
0
LINE
8
BLACK
6
CONTINUOUS
10
0.299882
20
1.505
11
0.430984
21
1.505
0
LINE
8
BLACK
6
CONTINUOUS
10
0.430984
20
1.505
11
0.430984
21
1.355
0
LINE
8
BLACK
6
CONTINUOUS
10
0.660118
20
1.355
11
0.529016
21
1.355
0
LINE
8
BLACK
6
CONTINUOUS
10
0.529016
20
1.355
11
0.529016
21
1.505
0
LINE
8
BLACK
6
CONTINUOUS
10
0.529016
20
1.505
11
0.660118
21
1.505
0
LINE
8
BLACK
6
CONTINUOUS
10
0.660118
20
1.505
11
0.660118
21
1.355
0
LINE
8
BLACK
6
CONTINUOUS
10
0.2825
20
1.355
11
0.2275
21
1.355
0
LINE
8
BLACK
6
CONTINUOUS
10
0.2275
20
1.355
11
0.2275
21
1.39
0
LINE
8
BLACK
6
CONTINUOUS
10
0.2275
20
1.39
11
0.2825
21
1.39
0
LINE
8
BLACK
6
CONTINUOUS
10
0.2825
20
1.39
11
0.2825
21
1.355
0
LINE
8
BLACK
6
CONTINUOUS
10
1.94289
20
1.42022
11
1.94639
21
1.41756
0
LINE
8
BLACK
6
CONTINUOUS
10
1.94639
20
1.41756
11
1.9487
21
1.41382
0
LINE
8
BLACK
6
CONTINUOUS
10
1.9487
20
1.41382
11
1.9495
21
1.4095
0
LINE
8
BLACK
6
CONTINUOUS
10
1.9495
20
1.4095
11
1.9495
21
1.3755
0
LINE
8
BLACK
6
CONTINUOUS
10
1.9495
20
1.3755
11
1.94927
21
1.37317
0
LINE
8
BLACK
6
CONTINUOUS
10
1.94927
20
1.37317
11
1.94764
21
1.36909
0
LINE
8
BLACK
6
CONTINUOUS
10
1.94764
20
1.36909
11
1.94465
21
1.36587
0
LINE
8
BLACK
6
CONTINUOUS
10
1.94465
20
1.36587
11
1.94071
21
1.36394
0
LINE
8
BLACK
6
CONTINUOUS
10
1.94071
20
1.36394
11
1.93633
21
1.36356
0
LINE
8
BLACK
6
CONTINUOUS
10
1.93633
20
1.36356
11
1.93211
21
1.36478
0
LINE
8
BLACK
6
CONTINUOUS
10
1.93211
20
1.36478
11
1.92861
21
1.36744
0
LINE
8
BLACK
6
CONTINUOUS
10
1.92861
20
1.36744
11
1.9263
21
1.37118
0
LINE
8
BLACK
6
CONTINUOUS
10
1.9263
20
1.37118
11
1.9255
21
1.3755
0
LINE
8
BLACK
6
CONTINUOUS
10
1.9255
20
1.3755
11
1.9255
21
1.4095
0
LINE
8
BLACK
6
CONTINUOUS
10
1.9255
20
1.4095
11
1.92573
21
1.41183
0
LINE
8
BLACK
6
CONTINUOUS
10
1.92573
20
1.41183
11
1.92736
21
1.41591
0
LINE
8
BLACK
6
CONTINUOUS
10
1.92736
20
1.41591
11
1.93035
21
1.41913
0
LINE
8
BLACK
6
CONTINUOUS
10
1.93035
20
1.41913
11
1.93429
21
1.42106
0
LINE
8
BLACK
6
CONTINUOUS
10
1.93429
20
1.42106
11
1.93867
21
1.42144
0
LINE
8
BLACK
6
CONTINUOUS
10
1.93867
20
1.42144
11
1.94289
21
1.42022
0
LINE
8
BLACK
6
CONTINUOUS
10
1.79289
20
1.42022
11
1.79639
21
1.41756
0
LINE
8
BLACK
6
CONTINUOUS
10
1.79639
20
1.41756
11
1.7987
21
1.41382
0
LINE
8
BLACK
6
CONTINUOUS
10
1.7987
20
1.41382
11
1.7995
21
1.4095
0
LINE
8
BLACK
6
CONTINUOUS
10
1.7995
20
1.4095
11
1.7995
21
1.3755
0
LINE
8
BLACK
6
CONTINUOUS
10
1.7995
20
1.3755
11
1.79927
21
1.37317
0
LINE
8
BLACK
6
CONTINUOUS
10
1.79927
20
1.37317
11
1.79764
21
1.36909
0
LINE
8
BLACK
6
CONTINUOUS
10
1.79764
20
1.36909
11
1.79465
21
1.36587
0
LINE
8
BLACK
6
CONTINUOUS
10
1.79465
20
1.36587
11
1.79071
21
1.36394
0
LINE
8
BLACK
6
CONTINUOUS
10
1.79071
20
1.36394
11
1.78633
21
1.36356
0
LINE
8
BLACK
6
CONTINUOUS
10
1.78633
20
1.36356
11
1.78211
21
1.36478
0
LINE
8
BLACK
6
CONTINUOUS
10
1.78211
20
1.36478
11
1.77861
21
1.36744
0
LINE
8
BLACK
6
CONTINUOUS
10
1.77861
20
1.36744
11
1.7763
21
1.37118
0
LINE
8
BLACK
6
CONTINUOUS
10
1.7763
20
1.37118
11
1.7755
21
1.3755
0
LINE
8
BLACK
6
CONTINUOUS
10
1.7755
20
1.3755
11
1.7755
21
1.4095
0
LINE
8
BLACK
6
CONTINUOUS
10
1.7755
20
1.4095
11
1.77573
21
1.41183
0
LINE
8
BLACK
6
CONTINUOUS
10
1.77573
20
1.41183
11
1.77736
21
1.41591
0
LINE
8
BLACK
6
CONTINUOUS
10
1.77736
20
1.41591
11
1.78035
21
1.41913
0
LINE
8
BLACK
6
CONTINUOUS
10
1.78035
20
1.41913
11
1.78429
21
1.42106
0
LINE
8
BLACK
6
CONTINUOUS
10
1.78429
20
1.42106
11
1.78867
21
1.42144
0
LINE
8
BLACK
6
CONTINUOUS
10
1.78867
20
1.42144
11
1.79289
21
1.42022
0
LINE
8
BLACK
6
CONTINUOUS
10
1.89289
20
1.42022
11
1.89639
21
1.41756
0
LINE
8
BLACK
6
CONTINUOUS
10
1.89639
20
1.41756
11
1.8987
21
1.41382
0
LINE
8
BLACK
6
CONTINUOUS
10
1.8987
20
1.41382
11
1.8995
21
1.4095
0
LINE
8
BLACK
6
CONTINUOUS
10
1.8995
20
1.4095
11
1.8995
21
1.3755
0
LINE
8
BLACK
6
CONTINUOUS
10
1.8995
20
1.3755
11
1.89927
21
1.37317
0
LINE
8
BLACK
6
CONTINUOUS
10
1.89927
20
1.37317
11
1.89764
21
1.36909
0
LINE
8
BLACK
6
CONTINUOUS
10
1.89764
20
1.36909
11
1.89465
21
1.36587
0
LINE
8
BLACK
6
CONTINUOUS
10
1.89465
20
1.36587
11
1.89071
21
1.36394
0
LINE
8
BLACK
6
CONTINUOUS
10
1.89071
20
1.36394
11
1.88633
21
1.36356
0
LINE
8
BLACK
6
CONTINUOUS
10
1.88633
20
1.36356
11
1.88211
21
1.36478
0
LINE
8
BLACK
6
CONTINUOUS
10
1.88211
20
1.36478
11
1.87861
21
1.36744
0
LINE
8
BLACK
6
CONTINUOUS
10
1.87861
20
1.36744
11
1.8763
21
1.37118
0
LINE
8
BLACK
6
CONTINUOUS
10
1.8763
20
1.37118
11
1.8755
21
1.3755
0
LINE
8
BLACK
6
CONTINUOUS
10
1.8755
20
1.3755
11
1.8755
21
1.4095
0
LINE
8
BLACK
6
CONTINUOUS
10
1.8755
20
1.4095
11
1.87573
21
1.41183
0
LINE
8
BLACK
6
CONTINUOUS
10
1.87573
20
1.41183
11
1.87736
21
1.41591
0
LINE
8
BLACK
6
CONTINUOUS
10
1.87736
20
1.41591
11
1.88035
21
1.41913
0
LINE
8
BLACK
6
CONTINUOUS
10
1.88035
20
1.41913
11
1.88429
21
1.42106
0
LINE
8
BLACK
6
CONTINUOUS
10
1.88429
20
1.42106
11
1.88867
21
1.42144
0
LINE
8
BLACK
6
CONTINUOUS
10
1.88867
20
1.42144
11
1.89289
21
1.42022
0
LINE
8
BLACK
6
CONTINUOUS
10
1.84289
20
1.42022
11
1.84639
21
1.41756
0
LINE
8
BLACK
6
CONTINUOUS
10
1.84639
20
1.41756
11
1.8487
21
1.41382
0
LINE
8
BLACK
6
CONTINUOUS
10
1.8487
20
1.41382
11
1.8495
21
1.4095
0
LINE
8
BLACK
6
CONTINUOUS
10
1.8495
20
1.4095
11
1.8495
21
1.3755
0
LINE
8
BLACK
6
CONTINUOUS
10
1.8495
20
1.3755
11
1.84927
21
1.37317
0
LINE
8
BLACK
6
CONTINUOUS
10
1.84927
20
1.37317
11
1.84764
21
1.36909
0
LINE
8
BLACK
6
CONTINUOUS
10
1.84764
20
1.36909
11
1.84465
21
1.36587
0
LINE
8
BLACK
6
CONTINUOUS
10
1.84465
20
1.36587
11
1.84071
21
1.36394
0
LINE
8
BLACK
6
CONTINUOUS
10
1.84071
20
1.36394
11
1.83633
21
1.36356
0
LINE
8
BLACK
6
CONTINUOUS
10
1.83633
20
1.36356
11
1.83211
21
1.36478
0
LINE
8
BLACK
6
CONTINUOUS
10
1.83211
20
1.36478
11
1.82861
21
1.36744
0
LINE
8
BLACK
6
CONTINUOUS
10
1.82861
20
1.36744
11
1.8263
21
1.37118
0
LINE
8
BLACK
6
CONTINUOUS
10
1.8263
20
1.37118
11
1.8255
21
1.3755
0
LINE
8
BLACK
6
CONTINUOUS
10
1.8255
20
1.3755
11
1.8255
21
1.4095
0
LINE
8
BLACK
6
CONTINUOUS
10
1.8255
20
1.4095
11
1.82573
21
1.41183
0
LINE
8
BLACK
6
CONTINUOUS
10
1.82573
20
1.41183
11
1.82736
21
1.41591
0
LINE
8
BLACK
6
CONTINUOUS
10
1.82736
20
1.41591
11
1.83035
21
1.41913
0
LINE
8
BLACK
6
CONTINUOUS
10
1.83035
20
1.41913
11
1.83429
21
1.42106
0
LINE
8
BLACK
6
CONTINUOUS
10
1.83429
20
1.42106
11
1.83867
21
1.42144
0
LINE
8
BLACK
6
CONTINUOUS
10
1.83867
20
1.42144
11
1.84289
21
1.42022
0
LINE
8
BLACK
6
CONTINUOUS
10
2.0475
20
1.3675
11
1.9925
21
1.3675
0
LINE
8
BLACK
6
CONTINUOUS
10
1.9925
20
1.3675
11
1.9925
21
1.4025
0
LINE
8
BLACK
6
CONTINUOUS
10
1.9925
20
1.4025
11
2.0475
21
1.4025
0
LINE
8
BLACK
6
CONTINUOUS
10
2.0475
20
1.4025
11
2.0475
21
1.3675
0
LINE
8
BLACK
6
CONTINUOUS
10
0.76545
20
1.3721
11
0.69455
21
1.3721
0
LINE
8
BLACK
6
CONTINUOUS
10
0.69455
20
1.3721
11
0.69455
21
1.4705
0
LINE
8
BLACK
6
CONTINUOUS
10
0.69455
20
1.4705
11
0.76545
21
1.4705
0
LINE
8
BLACK
6
CONTINUOUS
10
0.76545
20
1.4705
11
0.76545
21
1.3721
0
LINE
8
BLACK
6
CONTINUOUS
10
2.28
20
1.425
11
2.245
21
1.425
0
LINE
8
BLACK
6
CONTINUOUS
10
2.245
20
1.425
11
2.245
21
1.48
0
LINE
8
BLACK
6
CONTINUOUS
10
2.245
20
1.48
11
2.28
21
1.48
0
LINE
8
BLACK
6
CONTINUOUS
10
2.28
20
1.48
11
2.28
21
1.425
0
LINE
8
BLACK
6
CONTINUOUS
10
2.205
20
1.425
11
2.17
21
1.425
0
LINE
8
BLACK
6
CONTINUOUS
10
2.17
20
1.425
11
2.17
21
1.48
0
LINE
8
BLACK
6
CONTINUOUS
10
2.17
20
1.48
11
2.205
21
1.48
0
LINE
8
BLACK
6
CONTINUOUS
10
2.205
20
1.48
11
2.205
21
1.425
0
LINE
8
BLACK
6
CONTINUOUS
10
2.0475
20
1.4425
11
1.9925
21
1.4425
0
LINE
8
BLACK
6
CONTINUOUS
10
1.9925
20
1.4425
11
1.9925
21
1.4775
0
LINE
8
BLACK
6
CONTINUOUS
10
1.9925
20
1.4775
11
2.0475
21
1.4775
0
LINE
8
BLACK
6
CONTINUOUS
10
2.0475
20
1.4775
11
2.0475
21
1.4425
0
LINE
8
BLACK
6
CONTINUOUS
10
1.8775
20
1.445
11
1.8225
21
1.445
0
LINE
8
BLACK
6
CONTINUOUS
10
1.8225
20
1.445
11
1.8225
21
1.48
0
LINE
8
BLACK
6
CONTINUOUS
10
1.8225
20
1.48
11
1.8775
21
1.48
0
LINE
8
BLACK
6
CONTINUOUS
10
1.8775
20
1.48
11
1.8775
21
1.445
0
LINE
8
BLACK
6
CONTINUOUS
10
1.51799
20
1.45736
11
1.39201
21
1.45736
0
LINE
8
BLACK
6
CONTINUOUS
10
1.39201
20
1.45736
11
1.39201
21
1.49673
0
LINE
8
BLACK
6
CONTINUOUS
10
1.39201
20
1.49673
11
1.51799
21
1.49673
0
LINE
8
BLACK
6
CONTINUOUS
10
1.51799
20
1.49673
11
1.51799
21
1.45736
0
LINE
8
BLACK
6
CONTINUOUS
10
1.19327
20
1.4728
11
0.976732
21
1.4728
0
LINE
8
BLACK
6
CONTINUOUS
10
0.976732
20
1.4728
11
0.976732
21
1.59091
0
LINE
8
BLACK
6
CONTINUOUS
10
0.976732
20
1.59091
11
1.19327
21
1.59091
0
LINE
8
BLACK
6
CONTINUOUS
10
1.19327
20
1.59091
11
1.19327
21
1.4728
0
LINE
8
BLACK
6
CONTINUOUS
10
2.0417
20
1.5129
11
1.9433
21
1.5129
0
LINE
8
BLACK
6
CONTINUOUS
10
1.9433
20
1.5129
11
1.9433
21
1.6133
0
LINE
8
BLACK
6
CONTINUOUS
10
1.9433
20
1.6133
11
2.0417
21
1.6133
0
LINE
8
BLACK
6
CONTINUOUS
10
2.0417
20
1.6133
11
2.0417
21
1.5129
0
LINE
8
BLACK
6
CONTINUOUS
10
0.249075
20
1.51618
11
0.0915945
21
1.51618
0
LINE
8
BLACK
6
CONTINUOUS
10
0.0915945
20
1.51618
11
0.0915945
21
1.67366
0
LINE
8
BLACK
6
CONTINUOUS
10
0.0915945
20
1.67366
11
0.249075
21
1.67366
0
LINE
8
BLACK
6
CONTINUOUS
10
0.249075
20
1.67366
11
0.249075
21
1.51618
0
LINE
8
BLACK
6
CONTINUOUS
10
3.10341
20
1.51618
11
2.94593
21
1.51618
0
LINE
8
BLACK
6
CONTINUOUS
10
2.94593
20
1.51618
11
2.94593
21
1.67366
0
LINE
8
BLACK
6
CONTINUOUS
10
2.94593
20
1.67366
11
3.10341
21
1.67366
0
LINE
8
BLACK
6
CONTINUOUS
10
3.10341
20
1.67366
11
3.10341
21
1.51618
0
LINE
8
BLACK
6
CONTINUOUS
10
1.8775
20
1.52
11
1.8225
21
1.52
0
LINE
8
BLACK
6
CONTINUOUS
10
1.8225
20
1.52
11
1.8225
21
1.555
0
LINE
8
BLACK
6
CONTINUOUS
10
1.8225
20
1.555
11
1.8775
21
1.555
0
LINE
8
BLACK
6
CONTINUOUS
10
1.8775
20
1.555
11
1.8775
21
1.52
0
LINE
8
BLACK
6
CONTINUOUS
10
0.76545
20
1.5295
11
0.69455
21
1.5295
0
LINE
8
BLACK
6
CONTINUOUS
10
0.69455
20
1.5295
11
0.69455
21
1.6279
0
LINE
8
BLACK
6
CONTINUOUS
10
0.69455
20
1.6279
11
0.76545
21
1.6279
0
LINE
8
BLACK
6
CONTINUOUS
10
0.76545
20
1.6279
11
0.76545
21
1.5295
0
LINE
8
BLACK
6
CONTINUOUS
10
1.75012
20
1.585
11
1.61902
21
1.585
0
LINE
8
BLACK
6
CONTINUOUS
10
1.61902
20
1.585
11
1.61902
21
1.735
0
LINE
8
BLACK
6
CONTINUOUS
10
1.61902
20
1.735
11
1.75012
21
1.735
0
LINE
8
BLACK
6
CONTINUOUS
10
1.75012
20
1.735
11
1.75012
21
1.585
0
LINE
8
BLACK
6
CONTINUOUS
10
1.52098
20
1.585
11
1.38988
21
1.585
0
LINE
8
BLACK
6
CONTINUOUS
10
1.38988
20
1.585
11
1.38988
21
1.735
0
LINE
8
BLACK
6
CONTINUOUS
10
1.38988
20
1.735
11
1.52098
21
1.735
0
LINE
8
BLACK
6
CONTINUOUS
10
1.52098
20
1.735
11
1.52098
21
1.585
0
LINE
8
BLACK
6
CONTINUOUS
10
1.04098
20
1.61567
11
1.02996
21
1.61567
0
LINE
8
BLACK
6
CONTINUOUS
10
1.02996
20
1.61567
11
1.02996
21
1.64913
0
LINE
8
BLACK
6
CONTINUOUS
10
1.02996
20
1.64913
11
1.04098
21
1.64913
0
LINE
8
BLACK
6
CONTINUOUS
10
1.04098
20
1.64913
11
1.04098
21
1.61567
0
LINE
8
BLACK
6
CONTINUOUS
10
1.10004
20
1.61567
11
1.08902
21
1.61567
0
LINE
8
BLACK
6
CONTINUOUS
10
1.08902
20
1.61567
11
1.08902
21
1.64913
0
LINE
8
BLACK
6
CONTINUOUS
10
1.08902
20
1.64913
11
1.10004
21
1.64913
0
LINE
8
BLACK
6
CONTINUOUS
10
1.10004
20
1.64913
11
1.10004
21
1.61567
0
LINE
8
BLACK
6
CONTINUOUS
10
1.0587
20
1.79776
11
1.0713
21
1.79776
0
LINE
8
BLACK
6
CONTINUOUS
10
1.0713
20
1.79776
11
1.0713
21
1.82384
0
LINE
8
BLACK
6
CONTINUOUS
10
1.0713
20
1.82384
11
1.08232
21
1.82384
0
LINE
8
BLACK
6
CONTINUOUS
10
1.08232
20
1.82384
11
1.08232
21
1.78004
0
LINE
8
BLACK
6
CONTINUOUS
10
1.08232
20
1.78004
11
1.10535
21
1.78004
0
LINE
8
BLACK
6
CONTINUOUS
10
1.10535
20
1.78004
11
1.10535
21
1.65996
0
LINE
8
BLACK
6
CONTINUOUS
10
1.10535
20
1.65996
11
1.08232
21
1.65996
0
LINE
8
BLACK
6
CONTINUOUS
10
1.08232
20
1.65996
11
1.08232
21
1.61616
0
LINE
8
BLACK
6
CONTINUOUS
10
1.08232
20
1.61616
11
1.0713
21
1.61616
0
LINE
8
BLACK
6
CONTINUOUS
10
1.0713
20
1.61616
11
1.0713
21
1.64224
0
LINE
8
BLACK
6
CONTINUOUS
10
1.0713
20
1.64224
11
1.0587
21
1.64224
0
LINE
8
BLACK
6
CONTINUOUS
10
1.0587
20
1.64224
11
1.0587
21
1.61616
0
LINE
8
BLACK
6
CONTINUOUS
10
1.0587
20
1.61616
11
1.04768
21
1.61616
0
LINE
8
BLACK
6
CONTINUOUS
10
1.04768
20
1.61616
11
1.04768
21
1.65996
0
LINE
8
BLACK
6
CONTINUOUS
10
1.04768
20
1.65996
11
1.02465
21
1.65996
0
LINE
8
BLACK
6
CONTINUOUS
10
1.02465
20
1.65996
11
1.02465
21
1.78004
0
LINE
8
BLACK
6
CONTINUOUS
10
1.02465
20
1.78004
11
1.04768
21
1.78004
0
LINE
8
BLACK
6
CONTINUOUS
10
1.04768
20
1.78004
11
1.04768
21
1.82384
0
LINE
8
BLACK
6
CONTINUOUS
10
1.04768
20
1.82384
11
1.0587
21
1.82384
0
LINE
8
BLACK
6
CONTINUOUS
10
1.0587
20
1.82384
11
1.0587
21
1.79776
0
LINE
8
BLACK
6
CONTINUOUS
10
0.8225
20
1.645
11
0.7675
21
1.645
0
LINE
8
BLACK
6
CONTINUOUS
10
0.7675
20
1.645
11
0.7675
21
1.68
0
LINE
8
BLACK
6
CONTINUOUS
10
0.7675
20
1.68
11
0.8225
21
1.68
0
LINE
8
BLACK
6
CONTINUOUS
10
0.8225
20
1.68
11
0.8225
21
1.645
0
LINE
8
BLACK
6
CONTINUOUS
10
0.8885
20
1.645
11
0.8335
21
1.645
0
LINE
8
BLACK
6
CONTINUOUS
10
0.8335
20
1.645
11
0.8335
21
1.68
0
LINE
8
BLACK
6
CONTINUOUS
10
0.8335
20
1.68
11
0.8885
21
1.68
0
LINE
8
BLACK
6
CONTINUOUS
10
0.8885
20
1.68
11
0.8885
21
1.645
0
LINE
8
BLACK
6
CONTINUOUS
10
1.01382
20
1.64559
11
0.980354
21
1.64559
0
LINE
8
BLACK
6
CONTINUOUS
10
0.980354
20
1.64559
11
0.980354
21
1.65661
0
LINE
8
BLACK
6
CONTINUOUS
10
0.980354
20
1.65661
11
1.01382
21
1.65661
0
LINE
8
BLACK
6
CONTINUOUS
10
1.01382
20
1.65661
11
1.01382
21
1.64559
0
LINE
8
BLACK
6
CONTINUOUS
10
1.14965
20
1.64559
11
1.11618
21
1.64559
0
LINE
8
BLACK
6
CONTINUOUS
10
1.11618
20
1.64559
11
1.11618
21
1.65661
0
LINE
8
BLACK
6
CONTINUOUS
10
1.11618
20
1.65661
11
1.14965
21
1.65661
0
LINE
8
BLACK
6
CONTINUOUS
10
1.14965
20
1.65661
11
1.14965
21
1.64559
0
LINE
8
BLACK
6
CONTINUOUS
10
1.01382
20
1.66528
11
0.980354
21
1.66528
0
LINE
8
BLACK
6
CONTINUOUS
10
0.980354
20
1.66528
11
0.980354
21
1.6763
0
LINE
8
BLACK
6
CONTINUOUS
10
0.980354
20
1.6763
11
1.01382
21
1.6763
0
LINE
8
BLACK
6
CONTINUOUS
10
1.01382
20
1.6763
11
1.01382
21
1.66528
0
LINE
8
BLACK
6
CONTINUOUS
10
1.14965
20
1.66528
11
1.11618
21
1.66528
0
LINE
8
BLACK
6
CONTINUOUS
10
1.11618
20
1.66528
11
1.11618
21
1.6763
0
LINE
8
BLACK
6
CONTINUOUS
10
1.11618
20
1.6763
11
1.14965
21
1.6763
0
LINE
8
BLACK
6
CONTINUOUS
10
1.14965
20
1.6763
11
1.14965
21
1.66528
0
LINE
8
BLACK
6
CONTINUOUS
10
0.7292
20
1.671
11
0.6308
21
1.671
0
LINE
8
BLACK
6
CONTINUOUS
10
0.6308
20
1.671
11
0.6308
21
1.7714
0
LINE
8
BLACK
6
CONTINUOUS
10
0.6308
20
1.7714
11
0.7292
21
1.7714
0
LINE
8
BLACK
6
CONTINUOUS
10
0.7292
20
1.7714
11
0.7292
21
1.671
0
LINE
8
BLACK
6
CONTINUOUS
10
1.01382
20
1.68496
11
0.980354
21
1.68496
0
LINE
8
BLACK
6
CONTINUOUS
10
0.980354
20
1.68496
11
0.980354
21
1.69598
0
LINE
8
BLACK
6
CONTINUOUS
10
0.980354
20
1.69598
11
1.01382
21
1.69598
0
LINE
8
BLACK
6
CONTINUOUS
10
1.01382
20
1.69598
11
1.01382
21
1.68496
0
LINE
8
BLACK
6
CONTINUOUS
10
1.14965
20
1.68496
11
1.11618
21
1.68496
0
LINE
8
BLACK
6
CONTINUOUS
10
1.11618
20
1.68496
11
1.11618
21
1.69598
0
LINE
8
BLACK
6
CONTINUOUS
10
1.11618
20
1.69598
11
1.14965
21
1.69598
0
LINE
8
BLACK
6
CONTINUOUS
10
1.14965
20
1.69598
11
1.14965
21
1.68496
0
LINE
8
BLACK
6
CONTINUOUS
10
1.14965
20
1.70465
11
1.11618
21
1.70465
0
LINE
8
BLACK
6
CONTINUOUS
10
1.11618
20
1.70465
11
1.11618
21
1.71567
0
LINE
8
BLACK
6
CONTINUOUS
10
1.11618
20
1.71567
11
1.14965
21
1.71567
0
LINE
8
BLACK
6
CONTINUOUS
10
1.14965
20
1.71567
11
1.14965
21
1.70465
0
LINE
8
BLACK
6
CONTINUOUS
10
1.01382
20
1.70465
11
0.980354
21
1.70465
0
LINE
8
BLACK
6
CONTINUOUS
10
0.980354
20
1.70465
11
0.980354
21
1.71567
0
LINE
8
BLACK
6
CONTINUOUS
10
0.980354
20
1.71567
11
1.01382
21
1.71567
0
LINE
8
BLACK
6
CONTINUOUS
10
1.01382
20
1.71567
11
1.01382
21
1.70465
0
LINE
8
BLACK
6
CONTINUOUS
10
2.0417
20
1.7117
11
1.9433
21
1.7117
0
LINE
8
BLACK
6
CONTINUOUS
10
1.9433
20
1.7117
11
1.9433
21
1.8121
0
LINE
8
BLACK
6
CONTINUOUS
10
1.9433
20
1.8121
11
2.0417
21
1.8121
0
LINE
8
BLACK
6
CONTINUOUS
10
2.0417
20
1.8121
11
2.0417
21
1.7117
0
LINE
8
BLACK
6
CONTINUOUS
10
0.8225
20
1.72
11
0.7675
21
1.72
0
LINE
8
BLACK
6
CONTINUOUS
10
0.7675
20
1.72
11
0.7675
21
1.755
0
LINE
8
BLACK
6
CONTINUOUS
10
0.7675
20
1.755
11
0.8225
21
1.755
0
LINE
8
BLACK
6
CONTINUOUS
10
0.8225
20
1.755
11
0.8225
21
1.72
0
LINE
8
BLACK
6
CONTINUOUS
10
0.8885
20
1.72
11
0.8335
21
1.72
0
LINE
8
BLACK
6
CONTINUOUS
10
0.8335
20
1.72
11
0.8335
21
1.755
0
LINE
8
BLACK
6
CONTINUOUS
10
0.8335
20
1.755
11
0.8885
21
1.755
0
LINE
8
BLACK
6
CONTINUOUS
10
0.8885
20
1.755
11
0.8885
21
1.72
0
LINE
8
BLACK
6
CONTINUOUS
10
1.14965
20
1.72433
11
1.11618
21
1.72433
0
LINE
8
BLACK
6
CONTINUOUS
10
1.11618
20
1.72433
11
1.11618
21
1.73535
0
LINE
8
BLACK
6
CONTINUOUS
10
1.11618
20
1.73535
11
1.14965
21
1.73535
0
LINE
8
BLACK
6
CONTINUOUS
10
1.14965
20
1.73535
11
1.14965
21
1.72433
0
LINE
8
BLACK
6
CONTINUOUS
10
1.01382
20
1.72433
11
0.980354
21
1.72433
0
LINE
8
BLACK
6
CONTINUOUS
10
0.980354
20
1.72433
11
0.980354
21
1.73535
0
LINE
8
BLACK
6
CONTINUOUS
10
0.980354
20
1.73535
11
1.01382
21
1.73535
0
LINE
8
BLACK
6
CONTINUOUS
10
1.01382
20
1.73535
11
1.01382
21
1.72433
0
LINE
8
BLACK
6
CONTINUOUS
10
1.14965
20
1.74402
11
1.11618
21
1.74402
0
LINE
8
BLACK
6
CONTINUOUS
10
1.11618
20
1.74402
11
1.11618
21
1.75504
0
LINE
8
BLACK
6
CONTINUOUS
10
1.11618
20
1.75504
11
1.14965
21
1.75504
0
LINE
8
BLACK
6
CONTINUOUS
10
1.14965
20
1.75504
11
1.14965
21
1.74402
0
LINE
8
BLACK
6
CONTINUOUS
10
1.01382
20
1.74402
11
0.980354
21
1.74402
0
LINE
8
BLACK
6
CONTINUOUS
10
0.980354
20
1.74402
11
0.980354
21
1.75504
0
LINE
8
BLACK
6
CONTINUOUS
10
0.980354
20
1.75504
11
1.01382
21
1.75504
0
LINE
8
BLACK
6
CONTINUOUS
10
1.01382
20
1.75504
11
1.01382
21
1.74402
0
LINE
8
BLACK
6
CONTINUOUS
10
1.01382
20
1.7637
11
0.980354
21
1.7637
0
LINE
8
BLACK
6
CONTINUOUS
10
0.980354
20
1.7637
11
0.980354
21
1.77472
0
LINE
8
BLACK
6
CONTINUOUS
10
0.980354
20
1.77472
11
1.01382
21
1.77472
0
LINE
8
BLACK
6
CONTINUOUS
10
1.01382
20
1.77472
11
1.01382
21
1.7637
0
LINE
8
BLACK
6
CONTINUOUS
10
1.14965
20
1.7637
11
1.11618
21
1.7637
0
LINE
8
BLACK
6
CONTINUOUS
10
1.11618
20
1.7637
11
1.11618
21
1.77472
0
LINE
8
BLACK
6
CONTINUOUS
10
1.11618
20
1.77472
11
1.14965
21
1.77472
0
LINE
8
BLACK
6
CONTINUOUS
10
1.14965
20
1.77472
11
1.14965
21
1.7637
0
LINE
8
BLACK
6
CONTINUOUS
10
1.385
20
1.7675
11
1.35
21
1.7675
0
LINE
8
BLACK
6
CONTINUOUS
10
1.35
20
1.7675
11
1.35
21
1.8225
0
LINE
8
BLACK
6
CONTINUOUS
10
1.35
20
1.8225
11
1.385
21
1.8225
0
LINE
8
BLACK
6
CONTINUOUS
10
1.385
20
1.8225
11
1.385
21
1.7675
0
LINE
8
BLACK
6
CONTINUOUS
10
1.31
20
1.7675
11
1.275
21
1.7675
0
LINE
8
BLACK
6
CONTINUOUS
10
1.275
20
1.7675
11
1.275
21
1.8225
0
LINE
8
BLACK
6
CONTINUOUS
10
1.275
20
1.8225
11
1.31
21
1.8225
0
LINE
8
BLACK
6
CONTINUOUS
10
1.31
20
1.8225
11
1.31
21
1.7675
0
LINE
8
BLACK
6
CONTINUOUS
10
1.01382
20
1.78339
11
0.980354
21
1.78339
0
LINE
8
BLACK
6
CONTINUOUS
10
0.980354
20
1.78339
11
0.980354
21
1.79441
0
LINE
8
BLACK
6
CONTINUOUS
10
0.980354
20
1.79441
11
1.01382
21
1.79441
0
LINE
8
BLACK
6
CONTINUOUS
10
1.01382
20
1.79441
11
1.01382
21
1.78339
0
LINE
8
BLACK
6
CONTINUOUS
10
1.14965
20
1.78339
11
1.11618
21
1.78339
0
LINE
8
BLACK
6
CONTINUOUS
10
1.11618
20
1.78339
11
1.11618
21
1.79441
0
LINE
8
BLACK
6
CONTINUOUS
10
1.11618
20
1.79441
11
1.14965
21
1.79441
0
LINE
8
BLACK
6
CONTINUOUS
10
1.14965
20
1.79441
11
1.14965
21
1.78339
0
LINE
8
BLACK
6
CONTINUOUS
10
1.04098
20
1.79087
11
1.02996
21
1.79087
0
LINE
8
BLACK
6
CONTINUOUS
10
1.02996
20
1.79087
11
1.02996
21
1.82433
0
LINE
8
BLACK
6
CONTINUOUS
10
1.02996
20
1.82433
11
1.04098
21
1.82433
0
LINE
8
BLACK
6
CONTINUOUS
10
1.04098
20
1.82433
11
1.04098
21
1.79087
0
LINE
8
BLACK
6
CONTINUOUS
10
1.10004
20
1.79087
11
1.08902
21
1.79087
0
LINE
8
BLACK
6
CONTINUOUS
10
1.08902
20
1.79087
11
1.08902
21
1.82433
0
LINE
8
BLACK
6
CONTINUOUS
10
1.08902
20
1.82433
11
1.10004
21
1.82433
0
LINE
8
BLACK
6
CONTINUOUS
10
1.10004
20
1.82433
11
1.10004
21
1.79087
0
LINE
8
BLACK
6
CONTINUOUS
10
1.2125
20
1.85
11
1.1575
21
1.85
0
LINE
8
BLACK
6
CONTINUOUS
10
1.1575
20
1.85
11
1.1575
21
1.885
0
LINE
8
BLACK
6
CONTINUOUS
10
1.1575
20
1.885
11
1.2125
21
1.885
0
LINE
8
BLACK
6
CONTINUOUS
10
1.2125
20
1.885
11
1.2125
21
1.85
0
LINE
8
BLACK
6
CONTINUOUS
10
1.3175
20
1.85
11
1.2625
21
1.85
0
LINE
8
BLACK
6
CONTINUOUS
10
1.2625
20
1.85
11
1.2625
21
1.885
0
LINE
8
BLACK
6
CONTINUOUS
10
1.2625
20
1.885
11
1.3175
21
1.885
0
LINE
8
BLACK
6
CONTINUOUS
10
1.3175
20
1.885
11
1.3175
21
1.85
0
LINE
8
BLACK
6
CONTINUOUS
10
0.7292
20
1.8698
11
0.6308
21
1.8698
0
LINE
8
BLACK
6
CONTINUOUS
10
0.6308
20
1.8698
11
0.6308
21
1.9702
0
LINE
8
BLACK
6
CONTINUOUS
10
0.6308
20
1.9702
11
0.7292
21
1.9702
0
LINE
8
BLACK
6
CONTINUOUS
10
0.7292
20
1.9702
11
0.7292
21
1.8698
0
LINE
8
BLACK
6
CONTINUOUS
10
1.0475
20
1.88
11
0.9925
21
1.88
0
LINE
8
BLACK
6
CONTINUOUS
10
0.9925
20
1.88
11
0.9925
21
1.915
0
LINE
8
BLACK
6
CONTINUOUS
10
0.9925
20
1.915
11
1.0475
21
1.915
0
LINE
8
BLACK
6
CONTINUOUS
10
1.0475
20
1.915
11
1.0475
21
1.88
0
LINE
8
BLACK
6
CONTINUOUS
10
0.9675
20
1.88
11
0.9125
21
1.88
0
LINE
8
BLACK
6
CONTINUOUS
10
0.9125
20
1.88
11
0.9125
21
1.915
0
LINE
8
BLACK
6
CONTINUOUS
10
0.9125
20
1.915
11
0.9675
21
1.915
0
LINE
8
BLACK
6
CONTINUOUS
10
0.9675
20
1.915
11
0.9675
21
1.88
0
LINE
8
BLACK
6
CONTINUOUS
10
0.8825
20
1.88
11
0.8275
21
1.88
0
LINE
8
BLACK
6
CONTINUOUS
10
0.8275
20
1.88
11
0.8275
21
1.915
0
LINE
8
BLACK
6
CONTINUOUS
10
0.8275
20
1.915
11
0.8825
21
1.915
0
LINE
8
BLACK
6
CONTINUOUS
10
0.8825
20
1.915
11
0.8825
21
1.88
0
LINE
8
BLACK
6
CONTINUOUS
10
0.4318
20
1.90455
11
0.3334
21
1.90455
0
LINE
8
BLACK
6
CONTINUOUS
10
0.3334
20
1.90455
11
0.3334
21
1.97545
0
LINE
8
BLACK
6
CONTINUOUS
10
0.3334
20
1.97545
11
0.4318
21
1.97545
0
LINE
8
BLACK
6
CONTINUOUS
10
0.4318
20
1.97545
11
0.4318
21
1.90455
0
LINE
8
BLACK
6
CONTINUOUS
10
0.5892
20
1.90455
11
0.4908
21
1.90455
0
LINE
8
BLACK
6
CONTINUOUS
10
0.4908
20
1.90455
11
0.4908
21
1.97545
0
LINE
8
BLACK
6
CONTINUOUS
10
0.4908
20
1.97545
11
0.5892
21
1.97545
0
LINE
8
BLACK
6
CONTINUOUS
10
0.5892
20
1.97545
11
0.5892
21
1.90455
0
LINE
8
BLACK
6
CONTINUOUS
10
1.2125
20
1.925
11
1.1575
21
1.925
0
LINE
8
BLACK
6
CONTINUOUS
10
1.1575
20
1.925
11
1.1575
21
1.96
0
LINE
8
BLACK
6
CONTINUOUS
10
1.1575
20
1.96
11
1.2125
21
1.96
0
LINE
8
BLACK
6
CONTINUOUS
10
1.2125
20
1.96
11
1.2125
21
1.925
0
LINE
8
BLACK
6
CONTINUOUS
10
1.3175
20
1.925
11
1.2625
21
1.925
0
LINE
8
BLACK
6
CONTINUOUS
10
1.2625
20
1.925
11
1.2625
21
1.96
0
LINE
8
BLACK
6
CONTINUOUS
10
1.2625
20
1.96
11
1.3175
21
1.96
0
LINE
8
BLACK
6
CONTINUOUS
10
1.3175
20
1.96
11
1.3175
21
1.925
0
LINE
8
BLACK
6
CONTINUOUS
10
1.4075
20
1.9275
11
1.3525
21
1.9275
0
LINE
8
BLACK
6
CONTINUOUS
10
1.3525
20
1.9275
11
1.3525
21
1.9625
0
LINE
8
BLACK
6
CONTINUOUS
10
1.3525
20
1.9625
11
1.4075
21
1.9625
0
LINE
8
BLACK
6
CONTINUOUS
10
1.4075
20
1.9625
11
1.4075
21
1.9275
0
LINE
8
BLACK
6
CONTINUOUS
10
1.8575
20
1.935
11
1.8025
21
1.935
0
LINE
8
BLACK
6
CONTINUOUS
10
1.8025
20
1.935
11
1.8025
21
1.97
0
LINE
8
BLACK
6
CONTINUOUS
10
1.8025
20
1.97
11
1.8575
21
1.97
0
LINE
8
BLACK
6
CONTINUOUS
10
1.8575
20
1.97
11
1.8575
21
1.935
0
LINE
8
BLACK
6
CONTINUOUS
10
0.9675
20
1.955
11
0.9125
21
1.955
0
LINE
8
BLACK
6
CONTINUOUS
10
0.9125
20
1.955
11
0.9125
21
1.99
0
LINE
8
BLACK
6
CONTINUOUS
10
0.9125
20
1.99
11
0.9675
21
1.99
0
LINE
8
BLACK
6
CONTINUOUS
10
0.9675
20
1.99
11
0.9675
21
1.955
0
LINE
8
BLACK
6
CONTINUOUS
10
1.0475
20
1.955
11
0.9925
21
1.955
0
LINE
8
BLACK
6
CONTINUOUS
10
0.9925
20
1.955
11
0.9925
21
1.99
0
LINE
8
BLACK
6
CONTINUOUS
10
0.9925
20
1.99
11
1.0475
21
1.99
0
LINE
8
BLACK
6
CONTINUOUS
10
1.0475
20
1.99
11
1.0475
21
1.955
0
LINE
8
BLACK
6
CONTINUOUS
10
0.8825
20
1.955
11
0.8275
21
1.955
0
LINE
8
BLACK
6
CONTINUOUS
10
0.8275
20
1.955
11
0.8275
21
1.99
0
LINE
8
BLACK
6
CONTINUOUS
10
0.8275
20
1.99
11
0.8825
21
1.99
0
LINE
8
BLACK
6
CONTINUOUS
10
0.8825
20
1.99
11
0.8825
21
1.955
0
LINE
8
BLACK
6
CONTINUOUS
10
1.4075
20
2.0025
11
1.3525
21
2.0025
0
LINE
8
BLACK
6
CONTINUOUS
10
1.3525
20
2.0025
11
1.3525
21
2.0375
0
LINE
8
BLACK
6
CONTINUOUS
10
1.3525
20
2.0375
11
1.4075
21
2.0375
0
LINE
8
BLACK
6
CONTINUOUS
10
1.4075
20
2.0375
11
1.4075
21
2.0025
0
LINE
8
BLACK
6
CONTINUOUS
10
1.1075
20
2.01
11
1.0525
21
2.01
0
LINE
8
BLACK
6
CONTINUOUS
10
1.0525
20
2.01
11
1.0525
21
2.045
0
LINE
8
BLACK
6
CONTINUOUS
10
1.0525
20
2.045
11
1.1075
21
2.045
0
LINE
8
BLACK
6
CONTINUOUS
10
1.1075
20
2.045
11
1.1075
21
2.01
0
LINE
8
BLACK
6
CONTINUOUS
10
1.8575
20
2.01
11
1.8025
21
2.01
0
LINE
8
BLACK
6
CONTINUOUS
10
1.8025
20
2.01
11
1.8025
21
2.045
0
LINE
8
BLACK
6
CONTINUOUS
10
1.8025
20
2.045
11
1.8575
21
2.045
0
LINE
8
BLACK
6
CONTINUOUS
10
1.8575
20
2.045
11
1.8575
21
2.01
0
LINE
8
BLACK
6
CONTINUOUS
10
1.3025
20
2.01
11
1.2475
21
2.01
0
LINE
8
BLACK
6
CONTINUOUS
10
1.2475
20
2.01
11
1.2475
21
2.045
0
LINE
8
BLACK
6
CONTINUOUS
10
1.2475
20
2.045
11
1.3025
21
2.045
0
LINE
8
BLACK
6
CONTINUOUS
10
1.3025
20
2.045
11
1.3025
21
2.01
0
LINE
8
BLACK
6
CONTINUOUS
10
0.9125
20
2.015
11
0.8575
21
2.015
0
LINE
8
BLACK
6
CONTINUOUS
10
0.8575
20
2.015
11
0.8575
21
2.05
0
LINE
8
BLACK
6
CONTINUOUS
10
0.8575
20
2.05
11
0.9125
21
2.05
0
LINE
8
BLACK
6
CONTINUOUS
10
0.9125
20
2.05
11
0.9125
21
2.015
0
LINE
8
BLACK
6
CONTINUOUS
10
2.605
20
2.035
11
2.545
21
2.035
0
LINE
8
BLACK
6
CONTINUOUS
10
2.545
20
2.035
11
2.545
21
2.095
0
LINE
8
BLACK
6
CONTINUOUS
10
2.545
20
2.095
11
2.605
21
2.095
0
LINE
8
BLACK
6
CONTINUOUS
10
2.605
20
2.095
11
2.605
21
2.035
0
LINE
8
BLACK
6
CONTINUOUS
10
2.705
20
2.035
11
2.645
21
2.035
0
LINE
8
BLACK
6
CONTINUOUS
10
2.645
20
2.035
11
2.645
21
2.095
0
LINE
8
BLACK
6
CONTINUOUS
10
2.645
20
2.095
11
2.705
21
2.095
0
LINE
8
BLACK
6
CONTINUOUS
10
2.705
20
2.095
11
2.705
21
2.035
0
LINE
8
BLACK
6
CONTINUOUS
10
2.505
20
2.035
11
2.445
21
2.035
0
LINE
8
BLACK
6
CONTINUOUS
10
2.445
20
2.035
11
2.445
21
2.095
0
LINE
8
BLACK
6
CONTINUOUS
10
2.445
20
2.095
11
2.505
21
2.095
0
LINE
8
BLACK
6
CONTINUOUS
10
2.505
20
2.095
11
2.505
21
2.035
0
LINE
8
BLACK
6
CONTINUOUS
10
2.805
20
2.035
11
2.745
21
2.035
0
LINE
8
BLACK
6
CONTINUOUS
10
2.745
20
2.035
11
2.745
21
2.095
0
LINE
8
BLACK
6
CONTINUOUS
10
2.745
20
2.095
11
2.805
21
2.095
0
LINE
8
BLACK
6
CONTINUOUS
10
2.805
20
2.095
11
2.805
21
2.035
0
LINE
8
BLACK
6
CONTINUOUS
10
0.20865
20
2.31779
11
0.222132
21
2.31602
0
LINE
8
BLACK
6
CONTINUOUS
10
0.222132
20
2.31602
11
0.23532
21
2.31271
0
LINE
8
BLACK
6
CONTINUOUS
10
0.23532
20
2.31271
11
0.24804
21
2.3079
0
LINE
8
BLACK
6
CONTINUOUS
10
0.24804
20
2.3079
11
0.260123
21
2.30166
0
LINE
8
BLACK
6
CONTINUOUS
10
0.260123
20
2.30166
11
0.271409
21
2.29408
0
LINE
8
BLACK
6
CONTINUOUS
10
0.271409
20
2.29408
11
0.281749
21
2.28525
0
LINE
8
BLACK
6
CONTINUOUS
10
0.281749
20
2.28525
11
0.291006
21
2.27529
0
LINE
8
BLACK
6
CONTINUOUS
10
0.291006
20
2.27529
11
0.299056
21
2.26433
0
LINE
8
BLACK
6
CONTINUOUS
10
0.299056
20
2.26433
11
0.305793
21
2.25252
0
LINE
8
BLACK
6
CONTINUOUS
10
0.305793
20
2.25252
11
0.311128
21
2.24001
0
LINE
8
BLACK
6
CONTINUOUS
10
0.311128
20
2.24001
11
0.31499
21
2.22697
0
LINE
8
BLACK
6
CONTINUOUS
10
0.31499
20
2.22697
11
0.317327
21
2.21358
0
LINE
8
BLACK
6
CONTINUOUS
10
0.317327
20
2.21358
11
0.31811
21
2.2
0
LINE
8
BLACK
6
CONTINUOUS
10
0.31811
20
2.2
11
0.317877
21
2.19258
0
LINE
8
BLACK
6
CONTINUOUS
10
0.317877
20
2.19258
11
0.316244
21
2.17908
0
LINE
8
BLACK
6
CONTINUOUS
10
0.316244
20
2.17908
11
0.313069
21
2.16586
0
LINE
8
BLACK
6
CONTINUOUS
10
0.313069
20
2.16586
11
0.308396
21
2.15309
0
LINE
8
BLACK
6
CONTINUOUS
10
0.308396
20
2.15309
11
0.302286
21
2.14094
0
LINE
8
BLACK
6
CONTINUOUS
10
0.302286
20
2.14094
11
0.294821
21
2.12958
0
LINE
8
BLACK
6
CONTINUOUS
10
0.294821
20
2.12958
11
0.286099
21
2.11915
0
LINE
8
BLACK
6
CONTINUOUS
10
0.286099
20
2.11915
11
0.276235
21
2.10979
0
LINE
8
BLACK
6
CONTINUOUS
10
0.276235
20
2.10979
11
0.265361
21
2.10162
0
LINE
8
BLACK
6
CONTINUOUS
10
0.265361
20
2.10162
11
0.253621
21
2.09476
0
LINE
8
BLACK
6
CONTINUOUS
10
0.253621
20
2.09476
11
0.24117
21
2.0893
0
LINE
8
BLACK
6
CONTINUOUS
10
0.24117
20
2.0893
11
0.228173
21
2.0853
0
LINE
8
BLACK
6
CONTINUOUS
10
0.228173
20
2.0853
11
0.214803
21
2.08282
0
LINE
8
BLACK
6
CONTINUOUS
10
0.214803
20
2.08282
11
0.201237
21
2.0819
0
LINE
8
BLACK
6
CONTINUOUS
10
0.201237
20
2.0819
11
0.187654
21
2.08254
0
LINE
8
BLACK
6
CONTINUOUS
10
0.187654
20
2.08254
11
0.174235
21
2.08473
0
LINE
8
BLACK
6
CONTINUOUS
10
0.174235
20
2.08473
11
0.161157
21
2.08846
0
LINE
8
BLACK
6
CONTINUOUS
10
0.161157
20
2.08846
11
0.148595
21
2.09366
0
LINE
8
BLACK
6
CONTINUOUS
10
0.148595
20
2.09366
11
0.136713
21
2.10028
0
LINE
8
BLACK
6
CONTINUOUS
10
0.136713
20
2.10028
11
0.125671
21
2.10821
0
LINE
8
BLACK
6
CONTINUOUS
10
0.125671
20
2.10821
11
0.115613
21
2.11736
0
LINE
8
BLACK
6
CONTINUOUS
10
0.115613
20
2.11736
11
0.106675
21
2.12761
0
LINE
8
BLACK
6
CONTINUOUS
10
0.106675
20
2.12761
11
0.0989727
21
2.13882
0
LINE
8
BLACK
6
CONTINUOUS
10
0.0989727
20
2.13882
11
0.0926099
21
2.15083
0
LINE
8
BLACK
6
CONTINUOUS
10
0.0926099
20
2.15083
11
0.0876705
21
2.1635
0
LINE
8
BLACK
6
CONTINUOUS
10
0.0876705
20
2.1635
11
0.0842199
21
2.17665
0
LINE
8
BLACK
6
CONTINUOUS
10
0.0842199
20
2.17665
11
0.082304
21
2.19012
0
LINE
8
BLACK
6
CONTINUOUS
10
0.082304
20
2.19012
11
0.081948
21
2.20371
0
LINE
8
BLACK
6
CONTINUOUS
10
0.081948
20
2.20371
11
0.0831568
21
2.21725
0
LINE
8
BLACK
6
CONTINUOUS
10
0.0831568
20
2.21725
11
0.0859143
21
2.23057
0
LINE
8
BLACK
6
CONTINUOUS
10
0.0859143
20
2.23057
11
0.0901839
21
2.24348
0
LINE
8
BLACK
6
CONTINUOUS
10
0.0901839
20
2.24348
11
0.0959091
21
2.25581
0
LINE
8
BLACK
6
CONTINUOUS
10
0.0959091
20
2.25581
11
0.103014
21
2.26741
0
LINE
8
BLACK
6
CONTINUOUS
10
0.103014
20
2.26741
11
0.111404
21
2.27811
0
LINE
8
BLACK
6
CONTINUOUS
10
0.111404
20
2.27811
11
0.120969
21
2.28777
0
LINE
8
BLACK
6
CONTINUOUS
10
0.120969
20
2.28777
11
0.131581
21
2.29627
0
LINE
8
BLACK
6
CONTINUOUS
10
0.131581
20
2.29627
11
0.1431
21
2.3035
0
LINE
8
BLACK
6
CONTINUOUS
10
0.1431
20
2.3035
11
0.155373
21
2.30935
0
LINE
8
BLACK
6
CONTINUOUS
10
0.155373
20
2.30935
11
0.168238
21
2.31376
0
LINE
8
BLACK
6
CONTINUOUS
10
0.168238
20
2.31376
11
0.181524
21
2.31666
0
LINE
8
BLACK
6
CONTINUOUS
10
0.181524
20
2.31666
11
0.195054
21
2.31801
0
LINE
8
BLACK
6
CONTINUOUS
10
0.195054
20
2.31801
11
0.20865
21
2.31779
0
LINE
8
BLACK
6
CONTINUOUS
10
3.00865
20
2.31779
11
3.02213
21
2.31602
0
LINE
8
BLACK
6
CONTINUOUS
10
3.02213
20
2.31602
11
3.03532
21
2.31271
0
LINE
8
BLACK
6
CONTINUOUS
10
3.03532
20
2.31271
11
3.04804
21
2.3079
0
LINE
8
BLACK
6
CONTINUOUS
10
3.04804
20
2.3079
11
3.06012
21
2.30166
0
LINE
8
BLACK
6
CONTINUOUS
10
3.06012
20
2.30166
11
3.07141
21
2.29408
0
LINE
8
BLACK
6
CONTINUOUS
10
3.07141
20
2.29408
11
3.08175
21
2.28525
0
LINE
8
BLACK
6
CONTINUOUS
10
3.08175
20
2.28525
11
3.09101
21
2.27529
0
LINE
8
BLACK
6
CONTINUOUS
10
3.09101
20
2.27529
11
3.09906
21
2.26433
0
LINE
8
BLACK
6
CONTINUOUS
10
3.09906
20
2.26433
11
3.10579
21
2.25252
0
LINE
8
BLACK
6
CONTINUOUS
10
3.10579
20
2.25252
11
3.11113
21
2.24001
0
LINE
8
BLACK
6
CONTINUOUS
10
3.11113
20
2.24001
11
3.11499
21
2.22697
0
LINE
8
BLACK
6
CONTINUOUS
10
3.11499
20
2.22697
11
3.11733
21
2.21358
0
LINE
8
BLACK
6
CONTINUOUS
10
3.11733
20
2.21358
11
3.11811
21
2.2
0
LINE
8
BLACK
6
CONTINUOUS
10
3.11811
20
2.2
11
3.11788
21
2.19258
0
LINE
8
BLACK
6
CONTINUOUS
10
3.11788
20
2.19258
11
3.11624
21
2.17908
0
LINE
8
BLACK
6
CONTINUOUS
10
3.11624
20
2.17908
11
3.11307
21
2.16586
0
LINE
8
BLACK
6
CONTINUOUS
10
3.11307
20
2.16586
11
3.1084
21
2.15309
0
LINE
8
BLACK
6
CONTINUOUS
10
3.1084
20
2.15309
11
3.10229
21
2.14094
0
LINE
8
BLACK
6
CONTINUOUS
10
3.10229
20
2.14094
11
3.09482
21
2.12958
0
LINE
8
BLACK
6
CONTINUOUS
10
3.09482
20
2.12958
11
3.0861
21
2.11915
0
LINE
8
BLACK
6
CONTINUOUS
10
3.0861
20
2.11915
11
3.07624
21
2.10979
0
LINE
8
BLACK
6
CONTINUOUS
10
3.07624
20
2.10979
11
3.06536
21
2.10162
0
LINE
8
BLACK
6
CONTINUOUS
10
3.06536
20
2.10162
11
3.05362
21
2.09476
0
LINE
8
BLACK
6
CONTINUOUS
10
3.05362
20
2.09476
11
3.04117
21
2.0893
0
LINE
8
BLACK
6
CONTINUOUS
10
3.04117
20
2.0893
11
3.02817
21
2.0853
0
LINE
8
BLACK
6
CONTINUOUS
10
3.02817
20
2.0853
11
3.0148
21
2.08282
0
LINE
8
BLACK
6
CONTINUOUS
10
3.0148
20
2.08282
11
3.00124
21
2.0819
0
LINE
8
BLACK
6
CONTINUOUS
10
3.00124
20
2.0819
11
2.98765
21
2.08254
0
LINE
8
BLACK
6
CONTINUOUS
10
2.98765
20
2.08254
11
2.97424
21
2.08473
0
LINE
8
BLACK
6
CONTINUOUS
10
2.97424
20
2.08473
11
2.96116
21
2.08846
0
LINE
8
BLACK
6
CONTINUOUS
10
2.96116
20
2.08846
11
2.94859
21
2.09366
0
LINE
8
BLACK
6
CONTINUOUS
10
2.94859
20
2.09366
11
2.93671
21
2.10028
0
LINE
8
BLACK
6
CONTINUOUS
10
2.93671
20
2.10028
11
2.92567
21
2.10821
0
LINE
8
BLACK
6
CONTINUOUS
10
2.92567
20
2.10821
11
2.91561
21
2.11736
0
LINE
8
BLACK
6
CONTINUOUS
10
2.91561
20
2.11736
11
2.90667
21
2.12761
0
LINE
8
BLACK
6
CONTINUOUS
10
2.90667
20
2.12761
11
2.89897
21
2.13882
0
LINE
8
BLACK
6
CONTINUOUS
10
2.89897
20
2.13882
11
2.89261
21
2.15083
0
LINE
8
BLACK
6
CONTINUOUS
10
2.89261
20
2.15083
11
2.88767
21
2.1635
0
LINE
8
BLACK
6
CONTINUOUS
10
2.88767
20
2.1635
11
2.88422
21
2.17665
0
LINE
8
BLACK
6
CONTINUOUS
10
2.88422
20
2.17665
11
2.8823
21
2.19012
0
LINE
8
BLACK
6
CONTINUOUS
10
2.8823
20
2.19012
11
2.88195
21
2.20371
0
LINE
8
BLACK
6
CONTINUOUS
10
2.88195
20
2.20371
11
2.88316
21
2.21725
0
LINE
8
BLACK
6
CONTINUOUS
10
2.88316
20
2.21725
11
2.88591
21
2.23057
0
LINE
8
BLACK
6
CONTINUOUS
10
2.88591
20
2.23057
11
2.89018
21
2.24348
0
LINE
8
BLACK
6
CONTINUOUS
10
2.89018
20
2.24348
11
2.89591
21
2.25581
0
LINE
8
BLACK
6
CONTINUOUS
10
2.89591
20
2.25581
11
2.90301
21
2.26741
0
LINE
8
BLACK
6
CONTINUOUS
10
2.90301
20
2.26741
11
2.9114
21
2.27811
0
LINE
8
BLACK
6
CONTINUOUS
10
2.9114
20
2.27811
11
2.92097
21
2.28777
0
LINE
8
BLACK
6
CONTINUOUS
10
2.92097
20
2.28777
11
2.93158
21
2.29627
0
LINE
8
BLACK
6
CONTINUOUS
10
2.93158
20
2.29627
11
2.9431
21
2.3035
0
LINE
8
BLACK
6
CONTINUOUS
10
2.9431
20
2.3035
11
2.95537
21
2.30935
0
LINE
8
BLACK
6
CONTINUOUS
10
2.95537
20
2.30935
11
2.96824
21
2.31376
0
LINE
8
BLACK
6
CONTINUOUS
10
2.96824
20
2.31376
11
2.98152
21
2.31666
0
LINE
8
BLACK
6
CONTINUOUS
10
2.98152
20
2.31666
11
2.99505
21
2.31801
0
LINE
8
BLACK
6
CONTINUOUS
10
2.99505
20
2.31801
11
3.00865
21
2.31779
0
LINE
8
BLACK
6
CONTINUOUS
10
1.3025
20
2.085
11
1.2475
21
2.085
0
LINE
8
BLACK
6
CONTINUOUS
10
1.2475
20
2.085
11
1.2475
21
2.12
0
LINE
8
BLACK
6
CONTINUOUS
10
1.2475
20
2.12
11
1.3025
21
2.12
0
LINE
8
BLACK
6
CONTINUOUS
10
1.3025
20
2.12
11
1.3025
21
2.085
0
LINE
8
BLACK
6
CONTINUOUS
10
1.1075
20
2.085
11
1.0525
21
2.085
0
LINE
8
BLACK
6
CONTINUOUS
10
1.0525
20
2.085
11
1.0525
21
2.12
0
LINE
8
BLACK
6
CONTINUOUS
10
1.0525
20
2.12
11
1.1075
21
2.12
0
LINE
8
BLACK
6
CONTINUOUS
10
1.1075
20
2.12
11
1.1075
21
2.085
0
LINE
8
BLACK
6
CONTINUOUS
10
0.9125
20
2.09
11
0.8575
21
2.09
0
LINE
8
BLACK
6
CONTINUOUS
10
0.8575
20
2.09
11
0.8575
21
2.125
0
LINE
8
BLACK
6
CONTINUOUS
10
0.8575
20
2.125
11
0.9125
21
2.125
0
LINE
8
BLACK
6
CONTINUOUS
10
0.9125
20
2.125
11
0.9125
21
2.09
0
LINE
8
BLACK
6
CONTINUOUS
10
1.40453
20
2.10059
11
1.34547
21
2.10059
0
LINE
8
BLACK
6
CONTINUOUS
10
1.34547
20
2.10059
11
1.34547
21
2.14193
0
LINE
8
BLACK
6
CONTINUOUS
10
1.34547
20
2.14193
11
1.40453
21
2.14193
0
LINE
8
BLACK
6
CONTINUOUS
10
1.40453
20
2.14193
11
1.40453
21
2.10059
0
LINE
8
BLACK
6
CONTINUOUS
10
1.20453
20
2.10059
11
1.14547
21
2.10059
0
LINE
8
BLACK
6
CONTINUOUS
10
1.14547
20
2.10059
11
1.14547
21
2.14193
0
LINE
8
BLACK
6
CONTINUOUS
10
1.14547
20
2.14193
11
1.20453
21
2.14193
0
LINE
8
BLACK
6
CONTINUOUS
10
1.20453
20
2.14193
11
1.20453
21
2.10059
0
LINE
8
BLACK
6
CONTINUOUS
10
1.00453
20
2.10059
11
0.945472
21
2.10059
0
LINE
8
BLACK
6
CONTINUOUS
10
0.945472
20
2.10059
11
0.945472
21
2.14193
0
LINE
8
BLACK
6
CONTINUOUS
10
0.945472
20
2.14193
11
1.00453
21
2.14193
0
LINE
8
BLACK
6
CONTINUOUS
10
1.00453
20
2.14193
11
1.00453
21
2.10059
0
LINE
8
BLACK
6
CONTINUOUS
10
1.96
20
2.11
11
1.9
21
2.11
0
LINE
8
BLACK
6
CONTINUOUS
10
1.9
20
2.11
11
1.9
21
2.17
0
LINE
8
BLACK
6
CONTINUOUS
10
1.9
20
2.17
11
1.96
21
2.17
0
LINE
8
BLACK
6
CONTINUOUS
10
1.96
20
2.17
11
1.96
21
2.11
0
LINE
8
BLACK
6
CONTINUOUS
10
1.56
20
2.11
11
1.5
21
2.11
0
LINE
8
BLACK
6
CONTINUOUS
10
1.5
20
2.11
11
1.5
21
2.17
0
LINE
8
BLACK
6
CONTINUOUS
10
1.5
20
2.17
11
1.56
21
2.17
0
LINE
8
BLACK
6
CONTINUOUS
10
1.56
20
2.17
11
1.56
21
2.11
0
LINE
8
BLACK
6
CONTINUOUS
10
2.18
20
2.11
11
2.12
21
2.11
0
LINE
8
BLACK
6
CONTINUOUS
10
2.12
20
2.11
11
2.12
21
2.17
0
LINE
8
BLACK
6
CONTINUOUS
10
2.12
20
2.17
11
2.18
21
2.17
0
LINE
8
BLACK
6
CONTINUOUS
10
2.18
20
2.17
11
2.18
21
2.11
0
LINE
8
BLACK
6
CONTINUOUS
10
1.76
20
2.11
11
1.7
21
2.11
0
LINE
8
BLACK
6
CONTINUOUS
10
1.7
20
2.11
11
1.7
21
2.17
0
LINE
8
BLACK
6
CONTINUOUS
10
1.7
20
2.17
11
1.76
21
2.17
0
LINE
8
BLACK
6
CONTINUOUS
10
1.76
20
2.17
11
1.76
21
2.11
0
LINE
8
BLACK
6
CONTINUOUS
10
1.86
20
2.11
11
1.8
21
2.11
0
LINE
8
BLACK
6
CONTINUOUS
10
1.8
20
2.11
11
1.8
21
2.17
0
LINE
8
BLACK
6
CONTINUOUS
10
1.8
20
2.17
11
1.86
21
2.17
0
LINE
8
BLACK
6
CONTINUOUS
10
1.86
20
2.17
11
1.86
21
2.11
0
LINE
8
BLACK
6
CONTINUOUS
10
1.66
20
2.11
11
1.6
21
2.11
0
LINE
8
BLACK
6
CONTINUOUS
10
1.6
20
2.11
11
1.6
21
2.17
0
LINE
8
BLACK
6
CONTINUOUS
10
1.6
20
2.17
11
1.66
21
2.17
0
LINE
8
BLACK
6
CONTINUOUS
10
1.66
20
2.17
11
1.66
21
2.11
0
LINE
8
BLACK
6
CONTINUOUS
10
2.38
20
2.11
11
2.32
21
2.11
0
LINE
8
BLACK
6
CONTINUOUS
10
2.32
20
2.11
11
2.32
21
2.17
0
LINE
8
BLACK
6
CONTINUOUS
10
2.32
20
2.17
11
2.38
21
2.17
0
LINE
8
BLACK
6
CONTINUOUS
10
2.38
20
2.17
11
2.38
21
2.11
0
LINE
8
BLACK
6
CONTINUOUS
10
2.28
20
2.11
11
2.22
21
2.11
0
LINE
8
BLACK
6
CONTINUOUS
10
2.22
20
2.11
11
2.22
21
2.17
0
LINE
8
BLACK
6
CONTINUOUS
10
2.22
20
2.17
11
2.28
21
2.17
0
LINE
8
BLACK
6
CONTINUOUS
10
2.28
20
2.17
11
2.28
21
2.11
0
LINE
8
BLACK
6
CONTINUOUS
10
2.08
20
2.11
11
2.02
21
2.11
0
LINE
8
BLACK
6
CONTINUOUS
10
2.02
20
2.11
11
2.02
21
2.17
0
LINE
8
BLACK
6
CONTINUOUS
10
2.02
20
2.17
11
2.08
21
2.17
0
LINE
8
BLACK
6
CONTINUOUS
10
2.08
20
2.17
11
2.08
21
2.11
0
LINE
8
BLACK
6
CONTINUOUS
10
0.5
20
2.12
11
0.44
21
2.12
0
LINE
8
BLACK
6
CONTINUOUS
10
0.44
20
2.12
11
0.44
21
2.18
0
LINE
8
BLACK
6
CONTINUOUS
10
0.44
20
2.18
11
0.5
21
2.18
0
LINE
8
BLACK
6
CONTINUOUS
10
0.5
20
2.18
11
0.5
21
2.12
0
LINE
8
BLACK
6
CONTINUOUS
10
0.7
20
2.12
11
0.64
21
2.12
0
LINE
8
BLACK
6
CONTINUOUS
10
0.64
20
2.12
11
0.64
21
2.18
0
LINE
8
BLACK
6
CONTINUOUS
10
0.64
20
2.18
11
0.7
21
2.18
0
LINE
8
BLACK
6
CONTINUOUS
10
0.7
20
2.18
11
0.7
21
2.12
0
LINE
8
BLACK
6
CONTINUOUS
10
0.8
20
2.12
11
0.74
21
2.12
0
LINE
8
BLACK
6
CONTINUOUS
10
0.74
20
2.12
11
0.74
21
2.18
0
LINE
8
BLACK
6
CONTINUOUS
10
0.74
20
2.18
11
0.8
21
2.18
0
LINE
8
BLACK
6
CONTINUOUS
10
0.8
20
2.18
11
0.8
21
2.12
0
LINE
8
BLACK
6
CONTINUOUS
10
0.6
20
2.12
11
0.54
21
2.12
0
LINE
8
BLACK
6
CONTINUOUS
10
0.54
20
2.12
11
0.54
21
2.18
0
LINE
8
BLACK
6
CONTINUOUS
10
0.54
20
2.18
11
0.6
21
2.18
0
LINE
8
BLACK
6
CONTINUOUS
10
0.6
20
2.18
11
0.6
21
2.12
0
LINE
8
BLACK
6
CONTINUOUS
10
2.505
20
2.135
11
2.445
21
2.135
0
LINE
8
BLACK
6
CONTINUOUS
10
2.445
20
2.135
11
2.445
21
2.195
0
LINE
8
BLACK
6
CONTINUOUS
10
2.445
20
2.195
11
2.505
21
2.195
0
LINE
8
BLACK
6
CONTINUOUS
10
2.505
20
2.195
11
2.505
21
2.135
0
LINE
8
BLACK
6
CONTINUOUS
10
2.805
20
2.135
11
2.745
21
2.135
0
LINE
8
BLACK
6
CONTINUOUS
10
2.745
20
2.135
11
2.745
21
2.195
0
LINE
8
BLACK
6
CONTINUOUS
10
2.745
20
2.195
11
2.805
21
2.195
0
LINE
8
BLACK
6
CONTINUOUS
10
2.805
20
2.195
11
2.805
21
2.135
0
LINE
8
BLACK
6
CONTINUOUS
10
2.605
20
2.135
11
2.545
21
2.135
0
LINE
8
BLACK
6
CONTINUOUS
10
2.545
20
2.135
11
2.545
21
2.195
0
LINE
8
BLACK
6
CONTINUOUS
10
2.545
20
2.195
11
2.605
21
2.195
0
LINE
8
BLACK
6
CONTINUOUS
10
2.605
20
2.195
11
2.605
21
2.135
0
LINE
8
BLACK
6
CONTINUOUS
10
2.705
20
2.135
11
2.645
21
2.135
0
LINE
8
BLACK
6
CONTINUOUS
10
2.645
20
2.135
11
2.645
21
2.195
0
LINE
8
BLACK
6
CONTINUOUS
10
2.645
20
2.195
11
2.705
21
2.195
0
LINE
8
BLACK
6
CONTINUOUS
10
2.705
20
2.195
11
2.705
21
2.135
0
LINE
8
BLACK
6
CONTINUOUS
10
1.18423
20
2.25234
11
1.19318
21
2.24994
0
LINE
8
BLACK
6
CONTINUOUS
10
1.19318
20
2.24994
11
1.20157
21
2.24603
0
LINE
8
BLACK
6
CONTINUOUS
10
1.20157
20
2.24603
11
1.20916
21
2.24071
0
LINE
8
BLACK
6
CONTINUOUS
10
1.20916
20
2.24071
11
1.21571
21
2.23416
0
LINE
8
BLACK
6
CONTINUOUS
10
1.21571
20
2.23416
11
1.22103
21
2.22657
0
LINE
8
BLACK
6
CONTINUOUS
10
1.22103
20
2.22657
11
1.22494
21
2.21818
0
LINE
8
BLACK
6
CONTINUOUS
10
1.22494
20
2.21818
11
1.22734
21
2.20923
0
LINE
8
BLACK
6
CONTINUOUS
10
1.22734
20
2.20923
11
1.22815
21
2.2
0
LINE
8
BLACK
6
CONTINUOUS
10
1.22815
20
2.2
11
1.22734
21
2.19077
0
LINE
8
BLACK
6
CONTINUOUS
10
1.22734
20
2.19077
11
1.22494
21
2.18182
0
LINE
8
BLACK
6
CONTINUOUS
10
1.22494
20
2.18182
11
1.22103
21
2.17343
0
LINE
8
BLACK
6
CONTINUOUS
10
1.22103
20
2.17343
11
1.21571
21
2.16584
0
LINE
8
BLACK
6
CONTINUOUS
10
1.21571
20
2.16584
11
1.20916
21
2.15929
0
LINE
8
BLACK
6
CONTINUOUS
10
1.20916
20
2.15929
11
1.20157
21
2.15397
0
LINE
8
BLACK
6
CONTINUOUS
10
1.20157
20
2.15397
11
1.19318
21
2.15006
0
LINE
8
BLACK
6
CONTINUOUS
10
1.19318
20
2.15006
11
1.18423
21
2.14766
0
LINE
8
BLACK
6
CONTINUOUS
10
1.18423
20
2.14766
11
1.175
21
2.14685
0
LINE
8
BLACK
6
CONTINUOUS
10
1.175
20
2.14685
11
1.16577
21
2.14766
0
LINE
8
BLACK
6
CONTINUOUS
10
1.16577
20
2.14766
11
1.15682
21
2.15006
0
LINE
8
BLACK
6
CONTINUOUS
10
1.15682
20
2.15006
11
1.14843
21
2.15397
0
LINE
8
BLACK
6
CONTINUOUS
10
1.14843
20
2.15397
11
1.14084
21
2.15929
0
LINE
8
BLACK
6
CONTINUOUS
10
1.14084
20
2.15929
11
1.13429
21
2.16584
0
LINE
8
BLACK
6
CONTINUOUS
10
1.13429
20
2.16584
11
1.12897
21
2.17343
0
LINE
8
BLACK
6
CONTINUOUS
10
1.12897
20
2.17343
11
1.12506
21
2.18182
0
LINE
8
BLACK
6
CONTINUOUS
10
1.12506
20
2.18182
11
1.12266
21
2.19077
0
LINE
8
BLACK
6
CONTINUOUS
10
1.12266
20
2.19077
11
1.12185
21
2.2
0
LINE
8
BLACK
6
CONTINUOUS
10
1.12185
20
2.2
11
1.12266
21
2.20923
0
LINE
8
BLACK
6
CONTINUOUS
10
1.12266
20
2.20923
11
1.12506
21
2.21818
0
LINE
8
BLACK
6
CONTINUOUS
10
1.12506
20
2.21818
11
1.12897
21
2.22657
0
LINE
8
BLACK
6
CONTINUOUS
10
1.12897
20
2.22657
11
1.13429
21
2.23416
0
LINE
8
BLACK
6
CONTINUOUS
10
1.13429
20
2.23416
11
1.14084
21
2.24071
0
LINE
8
BLACK
6
CONTINUOUS
10
1.14084
20
2.24071
11
1.14843
21
2.24603
0
LINE
8
BLACK
6
CONTINUOUS
10
1.14843
20
2.24603
11
1.15682
21
2.24994
0
LINE
8
BLACK
6
CONTINUOUS
10
1.15682
20
2.24994
11
1.16577
21
2.25234
0
LINE
8
BLACK
6
CONTINUOUS
10
1.16577
20
2.25234
11
1.175
21
2.25315
0
LINE
8
BLACK
6
CONTINUOUS
10
1.175
20
2.25315
11
1.18423
21
2.25234
0
LINE
8
BLACK
6
CONTINUOUS
10
0.984229
20
2.25234
11
0.993178
21
2.24994
0
LINE
8
BLACK
6
CONTINUOUS
10
0.993178
20
2.24994
11
1.00157
21
2.24603
0
LINE
8
BLACK
6
CONTINUOUS
10
1.00157
20
2.24603
11
1.00916
21
2.24071
0
LINE
8
BLACK
6
CONTINUOUS
10
1.00916
20
2.24071
11
1.01571
21
2.23416
0
LINE
8
BLACK
6
CONTINUOUS
10
1.01571
20
2.23416
11
1.02103
21
2.22657
0
LINE
8
BLACK
6
CONTINUOUS
10
1.02103
20
2.22657
11
1.02494
21
2.21818
0
LINE
8
BLACK
6
CONTINUOUS
10
1.02494
20
2.21818
11
1.02734
21
2.20923
0
LINE
8
BLACK
6
CONTINUOUS
10
1.02734
20
2.20923
11
1.02815
21
2.2
0
LINE
8
BLACK
6
CONTINUOUS
10
1.02815
20
2.2
11
1.02734
21
2.19077
0
LINE
8
BLACK
6
CONTINUOUS
10
1.02734
20
2.19077
11
1.02494
21
2.18182
0
LINE
8
BLACK
6
CONTINUOUS
10
1.02494
20
2.18182
11
1.02103
21
2.17343
0
LINE
8
BLACK
6
CONTINUOUS
10
1.02103
20
2.17343
11
1.01571
21
2.16584
0
LINE
8
BLACK
6
CONTINUOUS
10
1.01571
20
2.16584
11
1.00916
21
2.15929
0
LINE
8
BLACK
6
CONTINUOUS
10
1.00916
20
2.15929
11
1.00157
21
2.15397
0
LINE
8
BLACK
6
CONTINUOUS
10
1.00157
20
2.15397
11
0.993178
21
2.15006
0
LINE
8
BLACK
6
CONTINUOUS
10
0.993178
20
2.15006
11
0.984229
21
2.14766
0
LINE
8
BLACK
6
CONTINUOUS
10
0.984229
20
2.14766
11
0.975
21
2.14685
0
LINE
8
BLACK
6
CONTINUOUS
10
0.975
20
2.14685
11
0.965771
21
2.14766
0
LINE
8
BLACK
6
CONTINUOUS
10
0.965771
20
2.14766
11
0.956822
21
2.15006
0
LINE
8
BLACK
6
CONTINUOUS
10
0.956822
20
2.15006
11
0.948425
21
2.15397
0
LINE
8
BLACK
6
CONTINUOUS
10
0.948425
20
2.15397
11
0.940836
21
2.15929
0
LINE
8
BLACK
6
CONTINUOUS
10
0.940836
20
2.15929
11
0.934285
21
2.16584
0
LINE
8
BLACK
6
CONTINUOUS
10
0.934285
20
2.16584
11
0.928971
21
2.17343
0
LINE
8
BLACK
6
CONTINUOUS
10
0.928971
20
2.17343
11
0.925056
21
2.18182
0
LINE
8
BLACK
6
CONTINUOUS
10
0.925056
20
2.18182
11
0.922658
21
2.19077
0
LINE
8
BLACK
6
CONTINUOUS
10
0.922658
20
2.19077
11
0.92185
21
2.2
0
LINE
8
BLACK
6
CONTINUOUS
10
0.92185
20
2.2
11
0.922658
21
2.20923
0
LINE
8
BLACK
6
CONTINUOUS
10
0.922658
20
2.20923
11
0.925056
21
2.21818
0
LINE
8
BLACK
6
CONTINUOUS
10
0.925056
20
2.21818
11
0.928971
21
2.22657
0
LINE
8
BLACK
6
CONTINUOUS
10
0.928971
20
2.22657
11
0.934285
21
2.23416
0
LINE
8
BLACK
6
CONTINUOUS
10
0.934285
20
2.23416
11
0.940836
21
2.24071
0
LINE
8
BLACK
6
CONTINUOUS
10
0.940836
20
2.24071
11
0.948425
21
2.24603
0
LINE
8
BLACK
6
CONTINUOUS
10
0.948425
20
2.24603
11
0.956822
21
2.24994
0
LINE
8
BLACK
6
CONTINUOUS
10
0.956822
20
2.24994
11
0.965771
21
2.25234
0
LINE
8
BLACK
6
CONTINUOUS
10
0.965771
20
2.25234
11
0.975
21
2.25315
0
LINE
8
BLACK
6
CONTINUOUS
10
0.975
20
2.25315
11
0.984229
21
2.25234
0
LINE
8
BLACK
6
CONTINUOUS
10
1.38423
20
2.25234
11
1.39318
21
2.24994
0
LINE
8
BLACK
6
CONTINUOUS
10
1.39318
20
2.24994
11
1.40157
21
2.24603
0
LINE
8
BLACK
6
CONTINUOUS
10
1.40157
20
2.24603
11
1.40916
21
2.24071
0
LINE
8
BLACK
6
CONTINUOUS
10
1.40916
20
2.24071
11
1.41571
21
2.23416
0
LINE
8
BLACK
6
CONTINUOUS
10
1.41571
20
2.23416
11
1.42103
21
2.22657
0
LINE
8
BLACK
6
CONTINUOUS
10
1.42103
20
2.22657
11
1.42494
21
2.21818
0
LINE
8
BLACK
6
CONTINUOUS
10
1.42494
20
2.21818
11
1.42734
21
2.20923
0
LINE
8
BLACK
6
CONTINUOUS
10
1.42734
20
2.20923
11
1.42815
21
2.2
0
LINE
8
BLACK
6
CONTINUOUS
10
1.42815
20
2.2
11
1.42734
21
2.19077
0
LINE
8
BLACK
6
CONTINUOUS
10
1.42734
20
2.19077
11
1.42494
21
2.18182
0
LINE
8
BLACK
6
CONTINUOUS
10
1.42494
20
2.18182
11
1.42103
21
2.17343
0
LINE
8
BLACK
6
CONTINUOUS
10
1.42103
20
2.17343
11
1.41571
21
2.16584
0
LINE
8
BLACK
6
CONTINUOUS
10
1.41571
20
2.16584
11
1.40916
21
2.15929
0
LINE
8
BLACK
6
CONTINUOUS
10
1.40916
20
2.15929
11
1.40157
21
2.15397
0
LINE
8
BLACK
6
CONTINUOUS
10
1.40157
20
2.15397
11
1.39318
21
2.15006
0
LINE
8
BLACK
6
CONTINUOUS
10
1.39318
20
2.15006
11
1.38423
21
2.14766
0
LINE
8
BLACK
6
CONTINUOUS
10
1.38423
20
2.14766
11
1.375
21
2.14685
0
LINE
8
BLACK
6
CONTINUOUS
10
1.375
20
2.14685
11
1.36577
21
2.14766
0
LINE
8
BLACK
6
CONTINUOUS
10
1.36577
20
2.14766
11
1.35682
21
2.15006
0
LINE
8
BLACK
6
CONTINUOUS
10
1.35682
20
2.15006
11
1.34843
21
2.15397
0
LINE
8
BLACK
6
CONTINUOUS
10
1.34843
20
2.15397
11
1.34084
21
2.15929
0
LINE
8
BLACK
6
CONTINUOUS
10
1.34084
20
2.15929
11
1.33429
21
2.16584
0
LINE
8
BLACK
6
CONTINUOUS
10
1.33429
20
2.16584
11
1.32897
21
2.17343
0
LINE
8
BLACK
6
CONTINUOUS
10
1.32897
20
2.17343
11
1.32506
21
2.18182
0
LINE
8
BLACK
6
CONTINUOUS
10
1.32506
20
2.18182
11
1.32266
21
2.19077
0
LINE
8
BLACK
6
CONTINUOUS
10
1.32266
20
2.19077
11
1.32185
21
2.2
0
LINE
8
BLACK
6
CONTINUOUS
10
1.32185
20
2.2
11
1.32266
21
2.20923
0
LINE
8
BLACK
6
CONTINUOUS
10
1.32266
20
2.20923
11
1.32506
21
2.21818
0
LINE
8
BLACK
6
CONTINUOUS
10
1.32506
20
2.21818
11
1.32897
21
2.22657
0
LINE
8
BLACK
6
CONTINUOUS
10
1.32897
20
2.22657
11
1.33429
21
2.23416
0
LINE
8
BLACK
6
CONTINUOUS
10
1.33429
20
2.23416
11
1.34084
21
2.24071
0
LINE
8
BLACK
6
CONTINUOUS
10
1.34084
20
2.24071
11
1.34843
21
2.24603
0
LINE
8
BLACK
6
CONTINUOUS
10
1.34843
20
2.24603
11
1.35682
21
2.24994
0
LINE
8
BLACK
6
CONTINUOUS
10
1.35682
20
2.24994
11
1.36577
21
2.25234
0
LINE
8
BLACK
6
CONTINUOUS
10
1.36577
20
2.25234
11
1.375
21
2.25315
0
LINE
8
BLACK
6
CONTINUOUS
10
1.375
20
2.25315
11
1.38423
21
2.25234
0
LINE
8
BLACK
6
CONTINUOUS
10
1.96
20
2.21
11
1.9
21
2.21
0
LINE
8
BLACK
6
CONTINUOUS
10
1.9
20
2.21
11
1.9
21
2.27
0
LINE
8
BLACK
6
CONTINUOUS
10
1.9
20
2.27
11
1.96
21
2.27
0
LINE
8
BLACK
6
CONTINUOUS
10
1.96
20
2.27
11
1.96
21
2.21
0
LINE
8
BLACK
6
CONTINUOUS
10
2.08
20
2.21
11
2.02
21
2.21
0
LINE
8
BLACK
6
CONTINUOUS
10
2.02
20
2.21
11
2.02
21
2.27
0
LINE
8
BLACK
6
CONTINUOUS
10
2.02
20
2.27
11
2.08
21
2.27
0
LINE
8
BLACK
6
CONTINUOUS
10
2.08
20
2.27
11
2.08
21
2.21
0
LINE
8
BLACK
6
CONTINUOUS
10
2.18
20
2.21
11
2.12
21
2.21
0
LINE
8
BLACK
6
CONTINUOUS
10
2.12
20
2.21
11
2.12
21
2.27
0
LINE
8
BLACK
6
CONTINUOUS
10
2.12
20
2.27
11
2.18
21
2.27
0
LINE
8
BLACK
6
CONTINUOUS
10
2.18
20
2.27
11
2.18
21
2.21
0
LINE
8
BLACK
6
CONTINUOUS
10
2.28
20
2.21
11
2.22
21
2.21
0
LINE
8
BLACK
6
CONTINUOUS
10
2.22
20
2.21
11
2.22
21
2.27
0
LINE
8
BLACK
6
CONTINUOUS
10
2.22
20
2.27
11
2.28
21
2.27
0
LINE
8
BLACK
6
CONTINUOUS
10
2.28
20
2.27
11
2.28
21
2.21
0
LINE
8
BLACK
6
CONTINUOUS
10
2.38
20
2.21
11
2.32
21
2.21
0
LINE
8
BLACK
6
CONTINUOUS
10
2.32
20
2.21
11
2.32
21
2.27
0
LINE
8
BLACK
6
CONTINUOUS
10
2.32
20
2.27
11
2.38
21
2.27
0
LINE
8
BLACK
6
CONTINUOUS
10
2.38
20
2.27
11
2.38
21
2.21
0
LINE
8
BLACK
6
CONTINUOUS
10
1.66
20
2.21
11
1.6
21
2.21
0
LINE
8
BLACK
6
CONTINUOUS
10
1.6
20
2.21
11
1.6
21
2.27
0
LINE
8
BLACK
6
CONTINUOUS
10
1.6
20
2.27
11
1.66
21
2.27
0
LINE
8
BLACK
6
CONTINUOUS
10
1.66
20
2.27
11
1.66
21
2.21
0
LINE
8
BLACK
6
CONTINUOUS
10
1.86
20
2.21
11
1.8
21
2.21
0
LINE
8
BLACK
6
CONTINUOUS
10
1.8
20
2.21
11
1.8
21
2.27
0
LINE
8
BLACK
6
CONTINUOUS
10
1.8
20
2.27
11
1.86
21
2.27
0
LINE
8
BLACK
6
CONTINUOUS
10
1.86
20
2.27
11
1.86
21
2.21
0
LINE
8
BLACK
6
CONTINUOUS
10
1.76
20
2.21
11
1.7
21
2.21
0
LINE
8
BLACK
6
CONTINUOUS
10
1.7
20
2.21
11
1.7
21
2.27
0
LINE
8
BLACK
6
CONTINUOUS
10
1.7
20
2.27
11
1.76
21
2.27
0
LINE
8
BLACK
6
CONTINUOUS
10
1.76
20
2.27
11
1.76
21
2.21
0
LINE
8
BLACK
6
CONTINUOUS
10
1.56
20
2.21
11
1.5
21
2.21
0
LINE
8
BLACK
6
CONTINUOUS
10
1.5
20
2.21
11
1.5
21
2.27
0
LINE
8
BLACK
6
CONTINUOUS
10
1.5
20
2.27
11
1.56
21
2.27
0
LINE
8
BLACK
6
CONTINUOUS
10
1.56
20
2.27
11
1.56
21
2.21
0
LINE
8
BLACK
6
CONTINUOUS
10
0.6
20
2.22
11
0.54
21
2.22
0
LINE
8
BLACK
6
CONTINUOUS
10
0.54
20
2.22
11
0.54
21
2.28
0
LINE
8
BLACK
6
CONTINUOUS
10
0.54
20
2.28
11
0.6
21
2.28
0
LINE
8
BLACK
6
CONTINUOUS
10
0.6
20
2.28
11
0.6
21
2.22
0
LINE
8
BLACK
6
CONTINUOUS
10
0.5
20
2.22
11
0.44
21
2.22
0
LINE
8
BLACK
6
CONTINUOUS
10
0.44
20
2.22
11
0.44
21
2.28
0
LINE
8
BLACK
6
CONTINUOUS
10
0.44
20
2.28
11
0.5
21
2.28
0
LINE
8
BLACK
6
CONTINUOUS
10
0.5
20
2.28
11
0.5
21
2.22
0
LINE
8
BLACK
6
CONTINUOUS
10
0.7
20
2.22
11
0.64
21
2.22
0
LINE
8
BLACK
6
CONTINUOUS
10
0.64
20
2.22
11
0.64
21
2.28
0
LINE
8
BLACK
6
CONTINUOUS
10
0.64
20
2.28
11
0.7
21
2.28
0
LINE
8
BLACK
6
CONTINUOUS
10
0.7
20
2.28
11
0.7
21
2.22
0
LINE
8
BLACK
6
CONTINUOUS
10
0.8
20
2.22
11
0.74
21
2.22
0
LINE
8
BLACK
6
CONTINUOUS
10
0.74
20
2.22
11
0.74
21
2.28
0
LINE
8
BLACK
6
CONTINUOUS
10
0.74
20
2.28
11
0.8
21
2.28
0
LINE
8
BLACK
6
CONTINUOUS
10
0.8
20
2.28
11
0.8
21
2.22
0
LINE
8
BLACK
6
CONTINUOUS
10
1.40453
20
2.25807
11
1.34547
21
2.25807
0
LINE
8
BLACK
6
CONTINUOUS
10
1.34547
20
2.25807
11
1.34547
21
2.29941
0
LINE
8
BLACK
6
CONTINUOUS
10
1.34547
20
2.29941
11
1.40453
21
2.29941
0
LINE
8
BLACK
6
CONTINUOUS
10
1.40453
20
2.29941
11
1.40453
21
2.25807
0
LINE
8
BLACK
6
CONTINUOUS
10
1.00453
20
2.25807
11
0.945472
21
2.25807
0
LINE
8
BLACK
6
CONTINUOUS
10
0.945472
20
2.25807
11
0.945472
21
2.29941
0
LINE
8
BLACK
6
CONTINUOUS
10
0.945472
20
2.29941
11
1.00453
21
2.29941
0
LINE
8
BLACK
6
CONTINUOUS
10
1.00453
20
2.29941
11
1.00453
21
2.25807
0
LINE
8
BLACK
6
CONTINUOUS
10
1.20453
20
2.25807
11
1.14547
21
2.25807
0
LINE
8
BLACK
6
CONTINUOUS
10
1.14547
20
2.25807
11
1.14547
21
2.29941
0
LINE
8
BLACK
6
CONTINUOUS
10
1.14547
20
2.29941
11
1.20453
21
2.29941
0
LINE
8
BLACK
6
CONTINUOUS
10
1.20453
20
2.29941
11
1.20453
21
2.25807
  0
ENDSEC
  0
EOF
