  0
SECTION
  2
HEADER
  9
$ANGBASE
  50
0.0
  9
$ANGDIR
  70
1
  9
$MEASUREMENT
  70
0
  0
ENDSEC
  0
SECTION
  2
TABLES
  0
TABLE
  2
LTYPE
  70
4
  0
LTYPE
  5
40F
  2
CONTINUOUS
  70
0
  3
Solid line
  72
65
  73
0
  40
0.0
  0
LTYPE
  5
410
  2
DASHDOT
 70
0
  3
Dash Dot ____ _ ____ _
 72
65
 73
4
 40
2.0
 49
1.25
 49
-0.25
 49
0.25
 49
-0.25
  0
LTYPE
  5
411
  2
DASHED
 70
0
  3
Dashed __ __ __ __ __
 72
65
 73
2
 40
0.75
 49
0.5
 49
-0.25
  0
LTYPE
  5
43B
  2
DOTTED
 70
0
  3
Dotted .  .  .  .
 72
65
 73
2
 40
0.2
 49
0.0
 49
-0.2
  0
ENDTAB
  0
TABLE
  2
STYLE
  70
4
  0
STYLE
  2
KICAD
  70
0
  40
0
  41
1
  42
1
  50
0
  71
0
  3
isocp.shx
  0
STYLE
  2
KICADB
  70
0
  40
0
  41
1
  42
1
  50
0
  71
0
  3
isocp.shx
  0
STYLE
  2
KICADI
  70
0
  40
0
  41
1
  42
1
  50
15
  71
0
  3
isocp.shx
  0
STYLE
  2
KICADBI
  70
0
  40
0
  41
1
  42
1
  50
15
  71
0
  3
isocp.shx
  0
ENDTAB
  0
TABLE
  2
LAYER
  70
1
  0
LAYER
  2
BLACK
  70
0
  62
7
  6
CONTINUOUS
  0
ENDTAB
  0
ENDSEC
  0
SECTION
  2
ENTITIES
0
LINE
8
BLACK
6
CONTINUOUS
10
1.47645
20
1.34019
11
1.47756
21
1.3385
0
LINE
8
BLACK
6
CONTINUOUS
10
1.47756
20
1.3385
11
1.47733
21
1.3365
0
LINE
8
BLACK
6
CONTINUOUS
10
1.47733
20
1.3365
11
1.47546
21
1.33275
0
LINE
8
BLACK
6
CONTINUOUS
10
1.47546
20
1.33275
11
1.47493
21
1.33204
0
LINE
8
BLACK
6
CONTINUOUS
10
1.47493
20
1.33204
11
1.4749
21
1.33198
0
LINE
8
BLACK
6
CONTINUOUS
10
1.4749
20
1.33198
11
1.47244
21
1.32952
0
LINE
8
BLACK
6
CONTINUOUS
10
1.47244
20
1.32952
11
1.49986
21
1.32952
0
LINE
8
BLACK
6
CONTINUOUS
10
1.49986
20
1.32952
11
1.49986
21
1.33782
0
LINE
8
BLACK
6
CONTINUOUS
10
1.49986
20
1.33782
11
1.50004
21
1.33883
0
LINE
8
BLACK
6
CONTINUOUS
10
1.50004
20
1.33883
11
1.50133
21
1.34037
0
LINE
8
BLACK
6
CONTINUOUS
10
1.50133
20
1.34037
11
1.50332
21
1.34072
0
LINE
8
BLACK
6
CONTINUOUS
10
1.50332
20
1.34072
11
1.50507
21
1.33971
0
LINE
8
BLACK
6
CONTINUOUS
10
1.50507
20
1.33971
11
1.50576
21
1.33782
0
LINE
8
BLACK
6
CONTINUOUS
10
1.50576
20
1.33782
11
1.50576
21
1.31532
0
LINE
8
BLACK
6
CONTINUOUS
10
1.50576
20
1.31532
11
1.50558
21
1.31431
0
LINE
8
BLACK
6
CONTINUOUS
10
1.50558
20
1.31431
11
1.50429
21
1.31276
0
LINE
8
BLACK
6
CONTINUOUS
10
1.50429
20
1.31276
11
1.5023
21
1.31241
0
LINE
8
BLACK
6
CONTINUOUS
10
1.5023
20
1.31241
11
1.50055
21
1.31342
0
LINE
8
BLACK
6
CONTINUOUS
10
1.50055
20
1.31342
11
1.49986
21
1.31532
0
LINE
8
BLACK
6
CONTINUOUS
10
1.49986
20
1.31532
11
1.49986
21
1.32361
0
LINE
8
BLACK
6
CONTINUOUS
10
1.49986
20
1.32361
11
1.46344
21
1.32361
0
LINE
8
BLACK
6
CONTINUOUS
10
1.46344
20
1.32361
11
1.46243
21
1.32379
0
LINE
8
BLACK
6
CONTINUOUS
10
1.46243
20
1.32379
11
1.4623
21
1.3239
0
LINE
8
BLACK
6
CONTINUOUS
10
1.4623
20
1.3239
11
1.46213
21
1.32392
0
LINE
8
BLACK
6
CONTINUOUS
10
1.46213
20
1.32392
11
1.46154
21
1.32454
0
LINE
8
BLACK
6
CONTINUOUS
10
1.46154
20
1.32454
11
1.46088
21
1.32509
0
LINE
8
BLACK
6
CONTINUOUS
10
1.46088
20
1.32509
11
1.46085
21
1.32526
0
LINE
8
BLACK
6
CONTINUOUS
10
1.46085
20
1.32526
11
1.46074
21
1.32538
0
LINE
8
BLACK
6
CONTINUOUS
10
1.46074
20
1.32538
11
1.46068
21
1.32624
0
LINE
8
BLACK
6
CONTINUOUS
10
1.46068
20
1.32624
11
1.46053
21
1.32708
0
LINE
8
BLACK
6
CONTINUOUS
10
1.46053
20
1.32708
11
1.46062
21
1.32723
0
LINE
8
BLACK
6
CONTINUOUS
10
1.46062
20
1.32723
11
1.46061
21
1.3274
0
LINE
8
BLACK
6
CONTINUOUS
10
1.46061
20
1.3274
11
1.46111
21
1.32809
0
LINE
8
BLACK
6
CONTINUOUS
10
1.46111
20
1.32809
11
1.46154
21
1.32883
0
LINE
8
BLACK
6
CONTINUOUS
10
1.46154
20
1.32883
11
1.4617
21
1.32889
0
LINE
8
BLACK
6
CONTINUOUS
10
1.4617
20
1.32889
11
1.4618
21
1.32902
0
LINE
8
BLACK
6
CONTINUOUS
10
1.4618
20
1.32902
11
1.46718
21
1.33261
0
LINE
8
BLACK
6
CONTINUOUS
10
1.46718
20
1.33261
11
1.47039
21
1.33582
0
LINE
8
BLACK
6
CONTINUOUS
10
1.47039
20
1.33582
11
1.47205
21
1.33914
0
LINE
8
BLACK
6
CONTINUOUS
10
1.47205
20
1.33914
11
1.47266
21
1.33996
0
LINE
8
BLACK
6
CONTINUOUS
10
1.47266
20
1.33996
11
1.47451
21
1.34076
0
LINE
8
BLACK
6
CONTINUOUS
10
1.47451
20
1.34076
11
1.47645
21
1.34019
0
LINE
8
BLACK
6
CONTINUOUS
10
1.50382
20
1.37809
11
1.50537
21
1.37679
0
LINE
8
BLACK
6
CONTINUOUS
10
1.50537
20
1.37679
11
1.50572
21
1.3748
0
LINE
8
BLACK
6
CONTINUOUS
10
1.50572
20
1.3748
11
1.50471
21
1.37305
0
LINE
8
BLACK
6
CONTINUOUS
10
1.50471
20
1.37305
11
1.50281
21
1.37236
0
LINE
8
BLACK
6
CONTINUOUS
10
1.50281
20
1.37236
11
1.48702
21
1.37236
0
LINE
8
BLACK
6
CONTINUOUS
10
1.48702
20
1.37236
11
1.48702
21
1.36747
0
LINE
8
BLACK
6
CONTINUOUS
10
1.48702
20
1.36747
11
1.5045
21
1.35523
0
LINE
8
BLACK
6
CONTINUOUS
10
1.5045
20
1.35523
11
1.50523
21
1.35451
0
LINE
8
BLACK
6
CONTINUOUS
10
1.50523
20
1.35451
11
1.50575
21
1.35256
0
LINE
8
BLACK
6
CONTINUOUS
10
1.50575
20
1.35256
11
1.5049
21
1.35073
0
LINE
8
BLACK
6
CONTINUOUS
10
1.5049
20
1.35073
11
1.50307
21
1.34987
0
LINE
8
BLACK
6
CONTINUOUS
10
1.50307
20
1.34987
11
1.50112
21
1.3504
0
LINE
8
BLACK
6
CONTINUOUS
10
1.50112
20
1.3504
11
1.48701
21
1.36027
0
LINE
8
BLACK
6
CONTINUOUS
10
1.48701
20
1.36027
11
1.48684
21
1.3593
0
LINE
8
BLACK
6
CONTINUOUS
10
1.48684
20
1.3593
11
1.48672
21
1.35917
0
LINE
8
BLACK
6
CONTINUOUS
10
1.48672
20
1.35917
11
1.4867
21
1.35899
0
LINE
8
BLACK
6
CONTINUOUS
10
1.4867
20
1.35899
11
1.48483
21
1.35524
0
LINE
8
BLACK
6
CONTINUOUS
10
1.48483
20
1.35524
11
1.4843
21
1.35453
0
LINE
8
BLACK
6
CONTINUOUS
10
1.4843
20
1.35453
11
1.48428
21
1.35448
0
LINE
8
BLACK
6
CONTINUOUS
10
1.48428
20
1.35448
11
1.4824
21
1.3526
0
LINE
8
BLACK
6
CONTINUOUS
10
1.4824
20
1.3526
11
1.48168
21
1.35209
0
LINE
8
BLACK
6
CONTINUOUS
10
1.48168
20
1.35209
11
1.48163
21
1.35205
0
LINE
8
BLACK
6
CONTINUOUS
10
1.48163
20
1.35205
11
1.47788
21
1.35017
0
LINE
8
BLACK
6
CONTINUOUS
10
1.47788
20
1.35017
11
1.4769
21
1.34988
0
LINE
8
BLACK
6
CONTINUOUS
10
1.4769
20
1.34988
11
1.47673
21
1.34992
0
LINE
8
BLACK
6
CONTINUOUS
10
1.47673
20
1.34992
11
1.47656
21
1.34986
0
LINE
8
BLACK
6
CONTINUOUS
10
1.47656
20
1.34986
11
1.47094
21
1.34986
0
LINE
8
BLACK
6
CONTINUOUS
10
1.47094
20
1.34986
11
1.46993
21
1.35004
0
LINE
8
BLACK
6
CONTINUOUS
10
1.46993
20
1.35004
11
1.46979
21
1.35015
0
LINE
8
BLACK
6
CONTINUOUS
10
1.46979
20
1.35015
11
1.46962
21
1.35017
0
LINE
8
BLACK
6
CONTINUOUS
10
1.46962
20
1.35017
11
1.46587
21
1.35205
0
LINE
8
BLACK
6
CONTINUOUS
10
1.46587
20
1.35205
11
1.46516
21
1.35257
0
LINE
8
BLACK
6
CONTINUOUS
10
1.46516
20
1.35257
11
1.4651
21
1.3526
0
LINE
8
BLACK
6
CONTINUOUS
10
1.4651
20
1.3526
11
1.46323
21
1.35448
0
LINE
8
BLACK
6
CONTINUOUS
10
1.46323
20
1.35448
11
1.46272
21
1.3552
0
LINE
8
BLACK
6
CONTINUOUS
10
1.46272
20
1.3552
11
1.46267
21
1.35524
0
LINE
8
BLACK
6
CONTINUOUS
10
1.46267
20
1.35524
11
1.4608
21
1.35899
0
LINE
8
BLACK
6
CONTINUOUS
10
1.4608
20
1.35899
11
1.46051
21
1.35998
0
LINE
8
BLACK
6
CONTINUOUS
10
1.46051
20
1.35998
11
1.46055
21
1.36015
0
LINE
8
BLACK
6
CONTINUOUS
10
1.46055
20
1.36015
11
1.46049
21
1.36031
0
LINE
8
BLACK
6
CONTINUOUS
10
1.46049
20
1.36031
11
1.46049
21
1.37531
0
LINE
8
BLACK
6
CONTINUOUS
10
1.46049
20
1.37531
11
1.46056
21
1.37569
0
LINE
8
BLACK
6
CONTINUOUS
10
1.46056
20
1.37569
11
1.46053
21
1.37582
0
LINE
8
BLACK
6
CONTINUOUS
10
1.46053
20
1.37582
11
1.4606
21
1.37594
0
LINE
8
BLACK
6
CONTINUOUS
10
1.4606
20
1.37594
11
1.46067
21
1.37632
0
LINE
8
BLACK
6
CONTINUOUS
10
1.46067
20
1.37632
11
1.46116
21
1.37691
0
LINE
8
BLACK
6
CONTINUOUS
10
1.46116
20
1.37691
11
1.46154
21
1.37757
0
LINE
8
BLACK
6
CONTINUOUS
10
1.46154
20
1.37757
11
1.46179
21
1.37766
0
LINE
8
BLACK
6
CONTINUOUS
10
1.46179
20
1.37766
11
1.46196
21
1.37787
0
LINE
8
BLACK
6
CONTINUOUS
10
1.46196
20
1.37787
11
1.46272
21
1.378
0
LINE
8
BLACK
6
CONTINUOUS
10
1.46272
20
1.378
11
1.46344
21
1.37826
0
LINE
8
BLACK
6
CONTINUOUS
10
1.46344
20
1.37826
11
1.50281
21
1.37826
0
LINE
8
BLACK
6
CONTINUOUS
10
1.50281
20
1.37826
11
1.50382
21
1.37809
0
LINE
8
BLACK
6
CONTINUOUS
10
1.46639
20
1.37236
11
1.46639
21
1.36101
0
LINE
8
BLACK
6
CONTINUOUS
10
1.46639
20
1.36101
11
1.46774
21
1.35831
0
LINE
8
BLACK
6
CONTINUOUS
10
1.46774
20
1.35831
11
1.46894
21
1.35712
0
LINE
8
BLACK
6
CONTINUOUS
10
1.46894
20
1.35712
11
1.47164
21
1.35577
0
LINE
8
BLACK
6
CONTINUOUS
10
1.47164
20
1.35577
11
1.47587
21
1.35577
0
LINE
8
BLACK
6
CONTINUOUS
10
1.47587
20
1.35577
11
1.47856
21
1.35712
0
LINE
8
BLACK
6
CONTINUOUS
10
1.47856
20
1.35712
11
1.47976
21
1.35831
0
LINE
8
BLACK
6
CONTINUOUS
10
1.47976
20
1.35831
11
1.48111
21
1.36101
0
LINE
8
BLACK
6
CONTINUOUS
10
1.48111
20
1.36101
11
1.48111
21
1.37236
0
LINE
8
BLACK
6
CONTINUOUS
10
1.48111
20
1.37236
11
1.46639
21
1.37236
0
LINE
8
BLACK
6
CONTINUOUS
10
1.48839
20
1.41753
11
1.48853
21
1.41755
0
LINE
8
BLACK
6
CONTINUOUS
10
1.48853
20
1.41755
11
1.49603
21
1.41567
0
LINE
8
BLACK
6
CONTINUOUS
10
1.49603
20
1.41567
11
1.49649
21
1.41546
0
LINE
8
BLACK
6
CONTINUOUS
10
1.49649
20
1.41546
11
1.49663
21
1.41545
0
LINE
8
BLACK
6
CONTINUOUS
10
1.49663
20
1.41545
11
1.50038
21
1.41357
0
LINE
8
BLACK
6
CONTINUOUS
10
1.50038
20
1.41357
11
1.50109
21
1.41305
0
LINE
8
BLACK
6
CONTINUOUS
10
1.50109
20
1.41305
11
1.50115
21
1.41302
0
LINE
8
BLACK
6
CONTINUOUS
10
1.50115
20
1.41302
11
1.50302
21
1.41114
0
LINE
8
BLACK
6
CONTINUOUS
10
1.50302
20
1.41114
11
1.50353
21
1.41042
0
LINE
8
BLACK
6
CONTINUOUS
10
1.50353
20
1.41042
11
1.50358
21
1.41038
0
LINE
8
BLACK
6
CONTINUOUS
10
1.50358
20
1.41038
11
1.50545
21
1.40663
0
LINE
8
BLACK
6
CONTINUOUS
10
1.50545
20
1.40663
11
1.50574
21
1.40565
0
LINE
8
BLACK
6
CONTINUOUS
10
1.50574
20
1.40565
11
1.5057
21
1.40547
0
LINE
8
BLACK
6
CONTINUOUS
10
1.5057
20
1.40547
11
1.50576
21
1.40531
0
LINE
8
BLACK
6
CONTINUOUS
10
1.50576
20
1.40531
11
1.50576
21
1.40156
0
LINE
8
BLACK
6
CONTINUOUS
10
1.50576
20
1.40156
11
1.50558
21
1.40055
0
LINE
8
BLACK
6
CONTINUOUS
10
1.50558
20
1.40055
11
1.50547
21
1.40041
0
LINE
8
BLACK
6
CONTINUOUS
10
1.50547
20
1.40041
11
1.50545
21
1.40024
0
LINE
8
BLACK
6
CONTINUOUS
10
1.50545
20
1.40024
11
1.50358
21
1.39649
0
LINE
8
BLACK
6
CONTINUOUS
10
1.50358
20
1.39649
11
1.50305
21
1.39578
0
LINE
8
BLACK
6
CONTINUOUS
10
1.50305
20
1.39578
11
1.50302
21
1.39572
0
LINE
8
BLACK
6
CONTINUOUS
10
1.50302
20
1.39572
11
1.50115
21
1.39385
0
LINE
8
BLACK
6
CONTINUOUS
10
1.50115
20
1.39385
11
1.50043
21
1.39334
0
LINE
8
BLACK
6
CONTINUOUS
10
1.50043
20
1.39334
11
1.50038
21
1.39329
0
LINE
8
BLACK
6
CONTINUOUS
10
1.50038
20
1.39329
11
1.49663
21
1.39142
0
LINE
8
BLACK
6
CONTINUOUS
10
1.49663
20
1.39142
11
1.49614
21
1.39127
0
LINE
8
BLACK
6
CONTINUOUS
10
1.49614
20
1.39127
11
1.49603
21
1.39119
0
LINE
8
BLACK
6
CONTINUOUS
10
1.49603
20
1.39119
11
1.48853
21
1.38932
0
LINE
8
BLACK
6
CONTINUOUS
10
1.48853
20
1.38932
11
1.48794
21
1.38928
0
LINE
8
BLACK
6
CONTINUOUS
10
1.48794
20
1.38928
11
1.48781
21
1.38923
0
LINE
8
BLACK
6
CONTINUOUS
10
1.48781
20
1.38923
11
1.47844
21
1.38923
0
LINE
8
BLACK
6
CONTINUOUS
10
1.47844
20
1.38923
11
1.47786
21
1.38933
0
LINE
8
BLACK
6
CONTINUOUS
10
1.47786
20
1.38933
11
1.47772
21
1.38932
0
LINE
8
BLACK
6
CONTINUOUS
10
1.47772
20
1.38932
11
1.47022
21
1.39119
0
LINE
8
BLACK
6
CONTINUOUS
10
1.47022
20
1.39119
11
1.46976
21
1.3914
0
LINE
8
BLACK
6
CONTINUOUS
10
1.46976
20
1.3914
11
1.46962
21
1.39142
0
LINE
8
BLACK
6
CONTINUOUS
10
1.46962
20
1.39142
11
1.46587
21
1.39329
0
LINE
8
BLACK
6
CONTINUOUS
10
1.46587
20
1.39329
11
1.46516
21
1.39382
0
LINE
8
BLACK
6
CONTINUOUS
10
1.46516
20
1.39382
11
1.4651
21
1.39385
0
LINE
8
BLACK
6
CONTINUOUS
10
1.4651
20
1.39385
11
1.46323
21
1.39572
0
LINE
8
BLACK
6
CONTINUOUS
10
1.46323
20
1.39572
11
1.46272
21
1.39644
0
LINE
8
BLACK
6
CONTINUOUS
10
1.46272
20
1.39644
11
1.46267
21
1.39649
0
LINE
8
BLACK
6
CONTINUOUS
10
1.46267
20
1.39649
11
1.4608
21
1.40024
0
LINE
8
BLACK
6
CONTINUOUS
10
1.4608
20
1.40024
11
1.46051
21
1.40122
0
LINE
8
BLACK
6
CONTINUOUS
10
1.46051
20
1.40122
11
1.46055
21
1.40139
0
LINE
8
BLACK
6
CONTINUOUS
10
1.46055
20
1.40139
11
1.46049
21
1.40156
0
LINE
8
BLACK
6
CONTINUOUS
10
1.46049
20
1.40156
11
1.46049
21
1.40531
0
LINE
8
BLACK
6
CONTINUOUS
10
1.46049
20
1.40531
11
1.46067
21
1.40632
0
LINE
8
BLACK
6
CONTINUOUS
10
1.46067
20
1.40632
11
1.46078
21
1.40645
0
LINE
8
BLACK
6
CONTINUOUS
10
1.46078
20
1.40645
11
1.4608
21
1.40663
0
LINE
8
BLACK
6
CONTINUOUS
10
1.4608
20
1.40663
11
1.46267
21
1.41038
0
LINE
8
BLACK
6
CONTINUOUS
10
1.46267
20
1.41038
11
1.4632
21
1.41109
0
LINE
8
BLACK
6
CONTINUOUS
10
1.4632
20
1.41109
11
1.46323
21
1.41114
0
LINE
8
BLACK
6
CONTINUOUS
10
1.46323
20
1.41114
11
1.4651
21
1.41302
0
LINE
8
BLACK
6
CONTINUOUS
10
1.4651
20
1.41302
11
1.46582
21
1.41353
0
LINE
8
BLACK
6
CONTINUOUS
10
1.46582
20
1.41353
11
1.46587
21
1.41357
0
LINE
8
BLACK
6
CONTINUOUS
10
1.46587
20
1.41357
11
1.46962
21
1.41545
0
LINE
8
BLACK
6
CONTINUOUS
10
1.46962
20
1.41545
11
1.47011
21
1.41559
0
LINE
8
BLACK
6
CONTINUOUS
10
1.47011
20
1.41559
11
1.47022
21
1.41567
0
LINE
8
BLACK
6
CONTINUOUS
10
1.47022
20
1.41567
11
1.47772
21
1.41755
0
LINE
8
BLACK
6
CONTINUOUS
10
1.47772
20
1.41755
11
1.47831
21
1.41759
0
LINE
8
BLACK
6
CONTINUOUS
10
1.47831
20
1.41759
11
1.47844
21
1.41763
0
LINE
8
BLACK
6
CONTINUOUS
10
1.47844
20
1.41763
11
1.48781
21
1.41763
0
LINE
8
BLACK
6
CONTINUOUS
10
1.48781
20
1.41763
11
1.48839
21
1.41753
0
LINE
8
BLACK
6
CONTINUOUS
10
1.4788
20
1.41173
11
1.47197
21
1.41002
0
LINE
8
BLACK
6
CONTINUOUS
10
1.47197
20
1.41002
11
1.46894
21
1.4085
0
LINE
8
BLACK
6
CONTINUOUS
10
1.46894
20
1.4085
11
1.46774
21
1.40731
0
LINE
8
BLACK
6
CONTINUOUS
10
1.46774
20
1.40731
11
1.46639
21
1.40461
0
LINE
8
BLACK
6
CONTINUOUS
10
1.46639
20
1.40461
11
1.46639
21
1.40226
0
LINE
8
BLACK
6
CONTINUOUS
10
1.46639
20
1.40226
11
1.46774
21
1.39956
0
LINE
8
BLACK
6
CONTINUOUS
10
1.46774
20
1.39956
11
1.46894
21
1.39836
0
LINE
8
BLACK
6
CONTINUOUS
10
1.46894
20
1.39836
11
1.47197
21
1.39684
0
LINE
8
BLACK
6
CONTINUOUS
10
1.47197
20
1.39684
11
1.4788
21
1.39514
0
LINE
8
BLACK
6
CONTINUOUS
10
1.4788
20
1.39514
11
1.48745
21
1.39514
0
LINE
8
BLACK
6
CONTINUOUS
10
1.48745
20
1.39514
11
1.49428
21
1.39684
0
LINE
8
BLACK
6
CONTINUOUS
10
1.49428
20
1.39684
11
1.49731
21
1.39836
0
LINE
8
BLACK
6
CONTINUOUS
10
1.49731
20
1.39836
11
1.49851
21
1.39956
0
LINE
8
BLACK
6
CONTINUOUS
10
1.49851
20
1.39956
11
1.49986
21
1.40225
0
LINE
8
BLACK
6
CONTINUOUS
10
1.49986
20
1.40225
11
1.49986
21
1.40461
0
LINE
8
BLACK
6
CONTINUOUS
10
1.49986
20
1.40461
11
1.49851
21
1.40731
0
LINE
8
BLACK
6
CONTINUOUS
10
1.49851
20
1.40731
11
1.49731
21
1.4085
0
LINE
8
BLACK
6
CONTINUOUS
10
1.49731
20
1.4085
11
1.49428
21
1.41002
0
LINE
8
BLACK
6
CONTINUOUS
10
1.49428
20
1.41002
11
1.48745
21
1.41173
0
LINE
8
BLACK
6
CONTINUOUS
10
1.48745
20
1.41173
11
1.4788
21
1.41173
  0
ENDSEC
  0
EOF
