  0
SECTION
  2
HEADER
  9
$ANGBASE
  50
0.0
  9
$ANGDIR
  70
1
  9
$MEASUREMENT
  70
0
  0
ENDSEC
  0
SECTION
  2
TABLES
  0
TABLE
  2
LTYPE
  70
4
  0
LTYPE
  5
40F
  2
CONTINUOUS
  70
0
  3
Solid line
  72
65
  73
0
  40
0.0
  0
LTYPE
  5
410
  2
DASHDOT
 70
0
  3
Dash Dot ____ _ ____ _
 72
65
 73
4
 40
2.0
 49
1.25
 49
-0.25
 49
0.25
 49
-0.25
  0
LTYPE
  5
411
  2
DASHED
 70
0
  3
Dashed __ __ __ __ __
 72
65
 73
2
 40
0.75
 49
0.5
 49
-0.25
  0
LTYPE
  5
43B
  2
DOTTED
 70
0
  3
Dotted .  .  .  .
 72
65
 73
2
 40
0.2
 49
0.0
 49
-0.2
  0
ENDTAB
  0
TABLE
  2
STYLE
  70
4
  0
STYLE
  2
KICAD
  70
0
  40
0
  41
1
  42
1
  50
0
  71
0
  3
isocp.shx
  0
STYLE
  2
KICADB
  70
0
  40
0
  41
1
  42
1
  50
0
  71
0
  3
isocp.shx
  0
STYLE
  2
KICADI
  70
0
  40
0
  41
1
  42
1
  50
15
  71
0
  3
isocp.shx
  0
STYLE
  2
KICADBI
  70
0
  40
0
  41
1
  42
1
  50
15
  71
0
  3
isocp.shx
  0
ENDTAB
  0
TABLE
  2
LAYER
  70
1
  0
LAYER
  2
BLACK
  70
0
  62
7
  6
CONTINUOUS
  0
ENDTAB
  0
ENDSEC
  0
SECTION
  2
ENTITIES
0
LINE
8
BLACK
6
CONTINUOUS
10
3.1907533070866143
20
2.3918186614173229
11
3.1918186614173227
21
2.390753307086614
0
LINE
8
BLACK
6
CONTINUOUS
10
3.1918186614173227
20
2.390753307086614
11
3.1919685039370078
21
0.01
0
LINE
8
BLACK
6
CONTINUOUS
10
3.1919685039370078
20
0.01
11
3.1918186614173227
21
0.0092466929133858
0
LINE
8
BLACK
6
CONTINUOUS
10
3.1918186614173227
20
0.0092466929133858
11
3.1907533070866143
21
0.0081813385826772
0
LINE
8
BLACK
6
CONTINUOUS
10
3.1907533070866143
20
0.0081813385826772
11
0.01
21
0.0080314960629921
0
LINE
8
BLACK
6
CONTINUOUS
10
0.01
20
0.0080314960629921
11
0.0092466929133858
21
0.0081813385826772
0
LINE
8
BLACK
6
CONTINUOUS
10
0.0092466929133858
20
0.0081813385826772
11
0.0081813385826772
21
0.0092466929133858
0
LINE
8
BLACK
6
CONTINUOUS
10
0.0081813385826772
20
0.0092466929133858
11
0.0080314960629921
21
2.3900000000000001
0
LINE
8
BLACK
6
CONTINUOUS
10
0.0080314960629921
20
2.3900000000000001
11
0.0081813385826772
21
2.390753307086614
0
LINE
8
BLACK
6
CONTINUOUS
10
0.0081813385826772
20
2.390753307086614
11
0.0092466929133858
21
2.3918186614173229
0
LINE
8
BLACK
6
CONTINUOUS
10
0.0092466929133858
20
2.3918186614173229
11
3.1899999999999999
21
2.391968503937008
0
LINE
8
BLACK
6
CONTINUOUS
10
3.1899999999999999
20
2.391968503937008
11
3.1907533070866143
21
2.3918186614173229
0
LINE
8
BLACK
6
CONTINUOUS
10
0.0118188188976378
20
2.3880315748031498
11
0.0119683858267717
21
0.0118187795275591
0
LINE
8
BLACK
6
CONTINUOUS
10
0.0119683858267717
20
0.0118187795275591
11
3.1881811417322834
21
0.0119683858267717
0
LINE
8
BLACK
6
CONTINUOUS
10
3.1881811417322834
20
0.0119683858267717
11
3.1880315748031496
21
2.3881811811023623
0
LINE
8
BLACK
6
CONTINUOUS
10
3.1880315748031496
20
2.3881811811023623
11
0.0118188188976378
21
2.3880315748031498
  0
ENDSEC
  0
EOF
