  0
SECTION
  2
HEADER
  9
$ANGBASE
  50
0.0
  9
$ANGDIR
  70
1
  9
$MEASUREMENT
  70
0
  0
ENDSEC
  0
SECTION
  2
TABLES
  0
TABLE
  2
LTYPE
  70
4
  0
LTYPE
  5
40F
  2
CONTINUOUS
  70
0
  3
Solid line
  72
65
  73
0
  40
0.0
  0
LTYPE
  5
410
  2
DASHDOT
 70
0
  3
Dash Dot ____ _ ____ _
 72
65
 73
4
 40
2.0
 49
1.25
 49
-0.25
 49
0.25
 49
-0.25
  0
LTYPE
  5
411
  2
DASHED
 70
0
  3
Dashed __ __ __ __ __
 72
65
 73
2
 40
0.75
 49
0.5
 49
-0.25
  0
LTYPE
  5
43B
  2
DOTTED
 70
0
  3
Dotted .  .  .  .
 72
65
 73
2
 40
0.2
 49
0.0
 49
-0.2
  0
ENDTAB
  0
TABLE
  2
STYLE
  70
4
  0
STYLE
  2
KICAD
  70
0
  40
0
  41
1
  42
1
  50
0
  71
0
  3
isocp.shx
  0
STYLE
  2
KICADB
  70
0
  40
0
  41
1
  42
1
  50
0
  71
0
  3
isocp.shx
  0
STYLE
  2
KICADI
  70
0
  40
0
  41
1
  42
1
  50
15
  71
0
  3
isocp.shx
  0
STYLE
  2
KICADBI
  70
0
  40
0
  41
1
  42
1
  50
15
  71
0
  3
isocp.shx
  0
ENDTAB
  0
TABLE
  2
LAYER
  70
1
  0
LAYER
  2
BLACK
  70
0
  62
7
  6
CONTINUOUS
  0
ENDTAB
  0
ENDSEC
  0
SECTION
  2
ENTITIES
0
LINE
8
BLACK
6
CONTINUOUS
10
0.6631496062992126
20
0.04
11
0.5131496062992126
21
0.04
0
LINE
8
BLACK
6
CONTINUOUS
10
0.5131496062992126
20
0.04
11
0.5131496062992126
21
0.19
0
LINE
8
BLACK
6
CONTINUOUS
10
0.5131496062992126
20
0.19
11
0.6631496062992126
21
0.19
0
LINE
8
BLACK
6
CONTINUOUS
10
0.6631496062992126
20
0.19
11
0.6631496062992126
21
0.04
0
LINE
8
BLACK
6
CONTINUOUS
10
0.86
20
0.04
11
0.71
21
0.04
0
LINE
8
BLACK
6
CONTINUOUS
10
0.71
20
0.04
11
0.71
21
0.19
0
LINE
8
BLACK
6
CONTINUOUS
10
0.71
20
0.19
11
0.86
21
0.19
0
LINE
8
BLACK
6
CONTINUOUS
10
0.86
20
0.19
11
0.86
21
0.04
0
LINE
8
BLACK
6
CONTINUOUS
10
0.2205096456692913
20
0.3163158661417323
11
0.2338744094488189
21
0.3131483858267716
0
LINE
8
BLACK
6
CONTINUOUS
10
0.2338744094488189
20
0.3131483858267716
11
0.246781062992126
21
0.3084507086614173
0
LINE
8
BLACK
6
CONTINUOUS
10
0.246781062992126
20
0.3084507086614173
11
0.2590551181102362
21
0.3022864566929134
0
LINE
8
BLACK
6
CONTINUOUS
10
0.2590551181102362
20
0.3022864566929134
11
0.2705305511811024
21
0.2947389763779528
0
LINE
8
BLACK
6
CONTINUOUS
10
0.2705305511811024
20
0.2947389763779528
11
0.2810521653543307
21
0.2859102755905512
0
LINE
8
BLACK
6
CONTINUOUS
10
0.2810521653543307
20
0.2859102755905512
11
0.2904776771653543
21
0.2759198031496063
0
LINE
8
BLACK
6
CONTINUOUS
10
0.2904776771653543
20
0.2759198031496063
11
0.2986796456692913
21
0.2649026377952756
0
LINE
8
BLACK
6
CONTINUOUS
10
0.2986796456692913
20
0.2649026377952756
11
0.3055471653543307
21
0.2530077952755905
0
LINE
8
BLACK
6
CONTINUOUS
10
0.3055471653543307
20
0.2530077952755905
11
0.3109873228346456
21
0.240396062992126
0
LINE
8
BLACK
6
CONTINUOUS
10
0.3109873228346456
20
0.240396062992126
11
0.3149265748031496
21
0.2272381102362205
0
LINE
8
BLACK
6
CONTINUOUS
10
0.3149265748031496
20
0.2272381102362205
11
0.3173116141732283
21
0.2137117716535433
0
LINE
8
BLACK
6
CONTINUOUS
10
0.3173116141732283
20
0.2137117716535433
11
0.3181102362204724
21
0.2
0
LINE
8
BLACK
6
CONTINUOUS
10
0.3181102362204724
20
0.2
11
0.3173116141732283
21
0.1862882283464567
0
LINE
8
BLACK
6
CONTINUOUS
10
0.3173116141732283
20
0.1862882283464567
11
0.3149265748031496
21
0.1727618897637795
0
LINE
8
BLACK
6
CONTINUOUS
10
0.3149265748031496
20
0.1727618897637795
11
0.3109873228346456
21
0.159603937007874
0
LINE
8
BLACK
6
CONTINUOUS
10
0.3109873228346456
20
0.159603937007874
11
0.3055471653543307
21
0.1469922047244094
0
LINE
8
BLACK
6
CONTINUOUS
10
0.3055471653543307
20
0.1469922047244094
11
0.2986796456692913
21
0.1350973622047244
0
LINE
8
BLACK
6
CONTINUOUS
10
0.2986796456692913
20
0.1350973622047244
11
0.2904776771653543
21
0.1240801968503937
0
LINE
8
BLACK
6
CONTINUOUS
10
0.2904776771653543
20
0.1240801968503937
11
0.2810521653543307
21
0.1140897244094488
0
LINE
8
BLACK
6
CONTINUOUS
10
0.2810521653543307
20
0.1140897244094488
11
0.2705305511811024
21
0.1052610236220472
0
LINE
8
BLACK
6
CONTINUOUS
10
0.2705305511811024
20
0.1052610236220472
11
0.2590551181102362
21
0.0977135433070866
0
LINE
8
BLACK
6
CONTINUOUS
10
0.2590551181102362
20
0.0977135433070866
11
0.246781062992126
21
0.0915492913385827
0
LINE
8
BLACK
6
CONTINUOUS
10
0.246781062992126
20
0.0915492913385827
11
0.2338744094488189
21
0.0868516141732283
0
LINE
8
BLACK
6
CONTINUOUS
10
0.2338744094488189
20
0.0868516141732283
11
0.2205096456692913
21
0.0836841338582677
0
LINE
8
BLACK
6
CONTINUOUS
10
0.2205096456692913
20
0.0836841338582677
11
0.2068674803149606
21
0.0820896062992126
0
LINE
8
BLACK
6
CONTINUOUS
10
0.2068674803149606
20
0.0820896062992126
11
0.1931325196850394
21
0.0820896062992126
0
LINE
8
BLACK
6
CONTINUOUS
10
0.1931325196850394
20
0.0820896062992126
11
0.1794903543307086
21
0.0836841338582677
0
LINE
8
BLACK
6
CONTINUOUS
10
0.1794903543307086
20
0.0836841338582677
11
0.1661255905511811
21
0.0868516141732283
0
LINE
8
BLACK
6
CONTINUOUS
10
0.1661255905511811
20
0.0868516141732283
11
0.153218937007874
21
0.0915492913385827
0
LINE
8
BLACK
6
CONTINUOUS
10
0.153218937007874
20
0.0915492913385827
11
0.1409448818897638
21
0.0977135433070866
0
LINE
8
BLACK
6
CONTINUOUS
10
0.1409448818897638
20
0.0977135433070866
11
0.1294694488188976
21
0.1052610236220472
0
LINE
8
BLACK
6
CONTINUOUS
10
0.1294694488188976
20
0.1052610236220472
11
0.1189478346456693
21
0.1140897244094488
0
LINE
8
BLACK
6
CONTINUOUS
10
0.1189478346456693
20
0.1140897244094488
11
0.1095223228346457
21
0.1240801968503937
0
LINE
8
BLACK
6
CONTINUOUS
10
0.1095223228346457
20
0.1240801968503937
11
0.1013203543307087
21
0.1350973622047244
0
LINE
8
BLACK
6
CONTINUOUS
10
0.1013203543307087
20
0.1350973622047244
11
0.0944528346456693
21
0.1469922047244094
0
LINE
8
BLACK
6
CONTINUOUS
10
0.0944528346456693
20
0.1469922047244094
11
0.0890126771653543
21
0.159603937007874
0
LINE
8
BLACK
6
CONTINUOUS
10
0.0890126771653543
20
0.159603937007874
11
0.0850734251968504
21
0.1727618897637795
0
LINE
8
BLACK
6
CONTINUOUS
10
0.0850734251968504
20
0.1727618897637795
11
0.0826883858267717
21
0.1862882283464567
0
LINE
8
BLACK
6
CONTINUOUS
10
0.0826883858267717
20
0.1862882283464567
11
0.0818897637795276
21
0.2
0
LINE
8
BLACK
6
CONTINUOUS
10
0.0818897637795276
20
0.2
11
0.0826883858267717
21
0.2137117716535433
0
LINE
8
BLACK
6
CONTINUOUS
10
0.0826883858267717
20
0.2137117716535433
11
0.0850734251968504
21
0.2272381102362205
0
LINE
8
BLACK
6
CONTINUOUS
10
0.0850734251968504
20
0.2272381102362205
11
0.0890126771653543
21
0.240396062992126
0
LINE
8
BLACK
6
CONTINUOUS
10
0.0890126771653543
20
0.240396062992126
11
0.0944528346456693
21
0.2530077952755905
0
LINE
8
BLACK
6
CONTINUOUS
10
0.0944528346456693
20
0.2530077952755905
11
0.1013203543307087
21
0.2649026377952756
0
LINE
8
BLACK
6
CONTINUOUS
10
0.1013203543307087
20
0.2649026377952756
11
0.1095223228346457
21
0.2759198031496063
0
LINE
8
BLACK
6
CONTINUOUS
10
0.1095223228346457
20
0.2759198031496063
11
0.1189478346456693
21
0.2859102755905512
0
LINE
8
BLACK
6
CONTINUOUS
10
0.1189478346456693
20
0.2859102755905512
11
0.1294694488188976
21
0.2947389763779528
0
LINE
8
BLACK
6
CONTINUOUS
10
0.1294694488188976
20
0.2947389763779528
11
0.1409448818897638
21
0.3022864566929134
0
LINE
8
BLACK
6
CONTINUOUS
10
0.1409448818897638
20
0.3022864566929134
11
0.153218937007874
21
0.3084507086614173
0
LINE
8
BLACK
6
CONTINUOUS
10
0.153218937007874
20
0.3084507086614173
11
0.1661255905511811
21
0.3131483858267716
0
LINE
8
BLACK
6
CONTINUOUS
10
0.1661255905511811
20
0.3131483858267716
11
0.1794903543307086
21
0.3163158661417323
0
LINE
8
BLACK
6
CONTINUOUS
10
0.1794903543307086
20
0.3163158661417323
11
0.1931325196850394
21
0.3179103937007874
0
LINE
8
BLACK
6
CONTINUOUS
10
0.1931325196850394
20
0.3179103937007874
11
0.2068674803149606
21
0.3179103937007874
0
LINE
8
BLACK
6
CONTINUOUS
10
0.2068674803149606
20
0.3179103937007874
11
0.2205096456692913
21
0.3163158661417323
0
LINE
8
BLACK
6
CONTINUOUS
10
3.0205096456692915
20
0.3163158661417323
11
3.0338744094488188
21
0.3131483858267716
0
LINE
8
BLACK
6
CONTINUOUS
10
3.0338744094488188
20
0.3131483858267716
11
3.0467810629921259
21
0.3084507086614173
0
LINE
8
BLACK
6
CONTINUOUS
10
3.0467810629921259
20
0.3084507086614173
11
3.0590551181102361
21
0.3022864566929134
0
LINE
8
BLACK
6
CONTINUOUS
10
3.0590551181102361
20
0.3022864566929134
11
3.0705305511811023
21
0.2947389763779528
0
LINE
8
BLACK
6
CONTINUOUS
10
3.0705305511811023
20
0.2947389763779528
11
3.0810521653543308
21
0.2859102755905512
0
LINE
8
BLACK
6
CONTINUOUS
10
3.0810521653543308
20
0.2859102755905512
11
3.0904776771653544
21
0.2759198031496063
0
LINE
8
BLACK
6
CONTINUOUS
10
3.0904776771653544
20
0.2759198031496063
11
3.0986796456692911
21
0.2649026377952756
0
LINE
8
BLACK
6
CONTINUOUS
10
3.0986796456692911
20
0.2649026377952756
11
3.1055471653543307
21
0.2530077952755905
0
LINE
8
BLACK
6
CONTINUOUS
10
3.1055471653543307
20
0.2530077952755905
11
3.1109873228346454
21
0.240396062992126
0
LINE
8
BLACK
6
CONTINUOUS
10
3.1109873228346454
20
0.240396062992126
11
3.1149265748031496
21
0.2272381102362205
0
LINE
8
BLACK
6
CONTINUOUS
10
3.1149265748031496
20
0.2272381102362205
11
3.1173116141732282
21
0.2137117716535433
0
LINE
8
BLACK
6
CONTINUOUS
10
3.1173116141732282
20
0.2137117716535433
11
3.1181102362204722
21
0.2
0
LINE
8
BLACK
6
CONTINUOUS
10
3.1181102362204722
20
0.2
11
3.1173116141732282
21
0.1862882283464567
0
LINE
8
BLACK
6
CONTINUOUS
10
3.1173116141732282
20
0.1862882283464567
11
3.1149265748031496
21
0.1727618897637795
0
LINE
8
BLACK
6
CONTINUOUS
10
3.1149265748031496
20
0.1727618897637795
11
3.1109873228346454
21
0.159603937007874
0
LINE
8
BLACK
6
CONTINUOUS
10
3.1109873228346454
20
0.159603937007874
11
3.1055471653543307
21
0.1469922047244094
0
LINE
8
BLACK
6
CONTINUOUS
10
3.1055471653543307
20
0.1469922047244094
11
3.0986796456692911
21
0.1350973622047244
0
LINE
8
BLACK
6
CONTINUOUS
10
3.0986796456692911
20
0.1350973622047244
11
3.0904776771653544
21
0.1240801968503937
0
LINE
8
BLACK
6
CONTINUOUS
10
3.0904776771653544
20
0.1240801968503937
11
3.0810521653543308
21
0.1140897244094488
0
LINE
8
BLACK
6
CONTINUOUS
10
3.0810521653543308
20
0.1140897244094488
11
3.0705305511811023
21
0.1052610236220472
0
LINE
8
BLACK
6
CONTINUOUS
10
3.0705305511811023
20
0.1052610236220472
11
3.0590551181102361
21
0.0977135433070866
0
LINE
8
BLACK
6
CONTINUOUS
10
3.0590551181102361
20
0.0977135433070866
11
3.0467810629921259
21
0.0915492913385827
0
LINE
8
BLACK
6
CONTINUOUS
10
3.0467810629921259
20
0.0915492913385827
11
3.0338744094488188
21
0.0868516141732283
0
LINE
8
BLACK
6
CONTINUOUS
10
3.0338744094488188
20
0.0868516141732283
11
3.0205096456692915
21
0.0836841338582677
0
LINE
8
BLACK
6
CONTINUOUS
10
3.0205096456692915
20
0.0836841338582677
11
3.0068674803149604
21
0.0820896062992126
0
LINE
8
BLACK
6
CONTINUOUS
10
3.0068674803149604
20
0.0820896062992126
11
2.9931325196850391
21
0.0820896062992126
0
LINE
8
BLACK
6
CONTINUOUS
10
2.9931325196850391
20
0.0820896062992126
11
2.9794903543307085
21
0.0836841338582677
0
LINE
8
BLACK
6
CONTINUOUS
10
2.9794903543307085
20
0.0836841338582677
11
2.9661255905511812
21
0.0868516141732283
0
LINE
8
BLACK
6
CONTINUOUS
10
2.9661255905511812
20
0.0868516141732283
11
2.9532189370078741
21
0.0915492913385827
0
LINE
8
BLACK
6
CONTINUOUS
10
2.9532189370078741
20
0.0915492913385827
11
2.9409448818897639
21
0.0977135433070866
0
LINE
8
BLACK
6
CONTINUOUS
10
2.9409448818897639
20
0.0977135433070866
11
2.9294694488188977
21
0.1052610236220472
0
LINE
8
BLACK
6
CONTINUOUS
10
2.9294694488188977
20
0.1052610236220472
11
2.9189478346456692
21
0.1140897244094488
0
LINE
8
BLACK
6
CONTINUOUS
10
2.9189478346456692
20
0.1140897244094488
11
2.9095223228346456
21
0.1240801968503937
0
LINE
8
BLACK
6
CONTINUOUS
10
2.9095223228346456
20
0.1240801968503937
11
2.9013203543307085
21
0.1350973622047244
0
LINE
8
BLACK
6
CONTINUOUS
10
2.9013203543307085
20
0.1350973622047244
11
2.8944528346456693
21
0.1469922047244094
0
LINE
8
BLACK
6
CONTINUOUS
10
2.8944528346456693
20
0.1469922047244094
11
2.8890126771653541
21
0.159603937007874
0
LINE
8
BLACK
6
CONTINUOUS
10
2.8890126771653541
20
0.159603937007874
11
2.8850734251968504
21
0.1727618897637795
0
LINE
8
BLACK
6
CONTINUOUS
10
2.8850734251968504
20
0.1727618897637795
11
2.8826883858267718
21
0.1862882283464567
0
LINE
8
BLACK
6
CONTINUOUS
10
2.8826883858267718
20
0.1862882283464567
11
2.8818897637795273
21
0.2
0
LINE
8
BLACK
6
CONTINUOUS
10
2.8818897637795273
20
0.2
11
2.8826883858267718
21
0.2137117716535433
0
LINE
8
BLACK
6
CONTINUOUS
10
2.8826883858267718
20
0.2137117716535433
11
2.8850734251968504
21
0.2272381102362205
0
LINE
8
BLACK
6
CONTINUOUS
10
2.8850734251968504
20
0.2272381102362205
11
2.8890126771653541
21
0.240396062992126
0
LINE
8
BLACK
6
CONTINUOUS
10
2.8890126771653541
20
0.240396062992126
11
2.8944528346456693
21
0.2530077952755905
0
LINE
8
BLACK
6
CONTINUOUS
10
2.8944528346456693
20
0.2530077952755905
11
2.9013203543307085
21
0.2649026377952756
0
LINE
8
BLACK
6
CONTINUOUS
10
2.9013203543307085
20
0.2649026377952756
11
2.9095223228346456
21
0.2759198031496063
0
LINE
8
BLACK
6
CONTINUOUS
10
2.9095223228346456
20
0.2759198031496063
11
2.9189478346456692
21
0.2859102755905512
0
LINE
8
BLACK
6
CONTINUOUS
10
2.9189478346456692
20
0.2859102755905512
11
2.9294694488188977
21
0.2947389763779528
0
LINE
8
BLACK
6
CONTINUOUS
10
2.9294694488188977
20
0.2947389763779528
11
2.9409448818897639
21
0.3022864566929134
0
LINE
8
BLACK
6
CONTINUOUS
10
2.9409448818897639
20
0.3022864566929134
11
2.9532189370078741
21
0.3084507086614173
0
LINE
8
BLACK
6
CONTINUOUS
10
2.9532189370078741
20
0.3084507086614173
11
2.9661255905511812
21
0.3131483858267716
0
LINE
8
BLACK
6
CONTINUOUS
10
2.9661255905511812
20
0.3131483858267716
11
2.9794903543307085
21
0.3163158661417323
0
LINE
8
BLACK
6
CONTINUOUS
10
2.9794903543307085
20
0.3163158661417323
11
2.9931325196850391
21
0.3179103937007874
0
LINE
8
BLACK
6
CONTINUOUS
10
2.9931325196850391
20
0.3179103937007874
11
3.0068674803149604
21
0.3179103937007874
0
LINE
8
BLACK
6
CONTINUOUS
10
3.0068674803149604
20
0.3179103937007874
11
3.0205096456692915
21
0.3163158661417323
0
LINE
8
BLACK
6
CONTINUOUS
10
2.5539842519685041
20
0.0984173228346457
11
2.4879842519685038
21
0.0984173228346457
0
LINE
8
BLACK
6
CONTINUOUS
10
2.4879842519685038
20
0.0984173228346457
11
2.4879842519685038
21
0.1644173228346457
0
LINE
8
BLACK
6
CONTINUOUS
10
2.4879842519685038
20
0.1644173228346457
11
2.5539842519685041
21
0.1644173228346457
0
LINE
8
BLACK
6
CONTINUOUS
10
2.5539842519685041
20
0.1644173228346457
11
2.5539842519685041
21
0.0984173228346457
0
LINE
8
BLACK
6
CONTINUOUS
10
2.8020157480314958
20
0.0984173228346457
11
2.7360157480314959
21
0.0984173228346457
0
LINE
8
BLACK
6
CONTINUOUS
10
2.7360157480314959
20
0.0984173228346457
11
2.7360157480314959
21
0.1644173228346457
0
LINE
8
BLACK
6
CONTINUOUS
10
2.7360157480314959
20
0.1644173228346457
11
2.8020157480314958
21
0.1644173228346457
0
LINE
8
BLACK
6
CONTINUOUS
10
2.8020157480314958
20
0.1644173228346457
11
2.8020157480314958
21
0.0984173228346457
0
LINE
8
BLACK
6
CONTINUOUS
10
1.28
20
0.12
11
1.22
21
0.12
0
LINE
8
BLACK
6
CONTINUOUS
10
1.22
20
0.12
11
1.22
21
0.18
0
LINE
8
BLACK
6
CONTINUOUS
10
1.22
20
0.18
11
1.28
21
0.18
0
LINE
8
BLACK
6
CONTINUOUS
10
1.28
20
0.18
11
1.28
21
0.12
0
LINE
8
BLACK
6
CONTINUOUS
10
1.3799999999999999
20
0.12
11
1.3200000000000001
21
0.12
0
LINE
8
BLACK
6
CONTINUOUS
10
1.3200000000000001
20
0.12
11
1.3200000000000001
21
0.18
0
LINE
8
BLACK
6
CONTINUOUS
10
1.3200000000000001
20
0.18
11
1.3799999999999999
21
0.18
0
LINE
8
BLACK
6
CONTINUOUS
10
1.3799999999999999
20
0.18
11
1.3799999999999999
21
0.12
0
LINE
8
BLACK
6
CONTINUOUS
10
1.48
20
0.12
11
1.4199999999999999
21
0.12
0
LINE
8
BLACK
6
CONTINUOUS
10
1.4199999999999999
20
0.12
11
1.4199999999999999
21
0.18
0
LINE
8
BLACK
6
CONTINUOUS
10
1.4199999999999999
20
0.18
11
1.48
21
0.18
0
LINE
8
BLACK
6
CONTINUOUS
10
1.48
20
0.18
11
1.48
21
0.12
0
LINE
8
BLACK
6
CONTINUOUS
10
1.5800000000000001
20
0.12
11
1.52
21
0.12
0
LINE
8
BLACK
6
CONTINUOUS
10
1.52
20
0.12
11
1.52
21
0.18
0
LINE
8
BLACK
6
CONTINUOUS
10
1.52
20
0.18
11
1.5800000000000001
21
0.18
0
LINE
8
BLACK
6
CONTINUOUS
10
1.5800000000000001
20
0.18
11
1.5800000000000001
21
0.12
0
LINE
8
BLACK
6
CONTINUOUS
10
2.4192293307086614
20
0.227342125984252
11
2.4281782283464568
21
0.2249442913385827
0
LINE
8
BLACK
6
CONTINUOUS
10
2.4281782283464568
20
0.2249442913385827
11
2.4365748031496062
21
0.2210288976377953
0
LINE
8
BLACK
6
CONTINUOUS
10
2.4365748031496062
20
0.2210288976377953
11
2.4441638976377953
21
0.2157149606299213
0
LINE
8
BLACK
6
CONTINUOUS
10
2.4441638976377953
20
0.2157149606299213
11
2.450714960629921
21
0.2091638976377953
0
LINE
8
BLACK
6
CONTINUOUS
10
2.450714960629921
20
0.2091638976377953
11
2.4560288976377951
21
0.2015748031496063
0
LINE
8
BLACK
6
CONTINUOUS
10
2.4560288976377951
20
0.2015748031496063
11
2.4599442913385827
21
0.1931782283464567
0
LINE
8
BLACK
6
CONTINUOUS
10
2.4599442913385827
20
0.1931782283464567
11
2.462342125984252
21
0.1842293307086614
0
LINE
8
BLACK
6
CONTINUOUS
10
2.462342125984252
20
0.1842293307086614
11
2.4631496062992126
21
0.175
0
LINE
8
BLACK
6
CONTINUOUS
10
2.4631496062992126
20
0.175
11
2.462342125984252
21
0.1657706692913386
0
LINE
8
BLACK
6
CONTINUOUS
10
2.462342125984252
20
0.1657706692913386
11
2.4599442913385827
21
0.1568217716535433
0
LINE
8
BLACK
6
CONTINUOUS
10
2.4599442913385827
20
0.1568217716535433
11
2.4560288976377951
21
0.1484251968503937
0
LINE
8
BLACK
6
CONTINUOUS
10
2.4560288976377951
20
0.1484251968503937
11
2.450714960629921
21
0.1408361023622047
0
LINE
8
BLACK
6
CONTINUOUS
10
2.450714960629921
20
0.1408361023622047
11
2.4441638976377953
21
0.1342850393700787
0
LINE
8
BLACK
6
CONTINUOUS
10
2.4441638976377953
20
0.1342850393700787
11
2.4365748031496062
21
0.1289711023622047
0
LINE
8
BLACK
6
CONTINUOUS
10
2.4365748031496062
20
0.1289711023622047
11
2.4281782283464568
21
0.1250557086614173
0
LINE
8
BLACK
6
CONTINUOUS
10
2.4281782283464568
20
0.1250557086614173
11
2.4192293307086614
21
0.122657874015748
0
LINE
8
BLACK
6
CONTINUOUS
10
2.4192293307086614
20
0.122657874015748
11
2.4100000000000001
21
0.1218503937007874
0
LINE
8
BLACK
6
CONTINUOUS
10
2.4100000000000001
20
0.1218503937007874
11
2.4007706692913384
21
0.122657874015748
0
LINE
8
BLACK
6
CONTINUOUS
10
2.4007706692913384
20
0.122657874015748
11
2.391821771653543
21
0.1250557086614173
0
LINE
8
BLACK
6
CONTINUOUS
10
2.391821771653543
20
0.1250557086614173
11
2.3834251968503937
21
0.1289711023622047
0
LINE
8
BLACK
6
CONTINUOUS
10
2.3834251968503937
20
0.1289711023622047
11
2.3758361023622045
21
0.1342850393700787
0
LINE
8
BLACK
6
CONTINUOUS
10
2.3758361023622045
20
0.1342850393700787
11
2.3692850393700788
21
0.1408361023622047
0
LINE
8
BLACK
6
CONTINUOUS
10
2.3692850393700788
20
0.1408361023622047
11
2.3639711023622048
21
0.1484251968503937
0
LINE
8
BLACK
6
CONTINUOUS
10
2.3639711023622048
20
0.1484251968503937
11
2.3600557086614171
21
0.1568217716535433
0
LINE
8
BLACK
6
CONTINUOUS
10
2.3600557086614171
20
0.1568217716535433
11
2.3576578740157479
21
0.1657706692913386
0
LINE
8
BLACK
6
CONTINUOUS
10
2.3576578740157479
20
0.1657706692913386
11
2.3574999999999999
21
0.1675751181102362
0
LINE
8
BLACK
6
CONTINUOUS
10
2.3574999999999999
20
0.1675751181102362
11
2.357342125984252
21
0.1657706692913386
0
LINE
8
BLACK
6
CONTINUOUS
10
2.357342125984252
20
0.1657706692913386
11
2.3549442913385827
21
0.1568217716535433
0
LINE
8
BLACK
6
CONTINUOUS
10
2.3549442913385827
20
0.1568217716535433
11
2.3510288976377951
21
0.1484251968503937
0
LINE
8
BLACK
6
CONTINUOUS
10
2.3510288976377951
20
0.1484251968503937
11
2.345714960629921
21
0.1408361023622047
0
LINE
8
BLACK
6
CONTINUOUS
10
2.345714960629921
20
0.1408361023622047
11
2.3391638976377953
21
0.1342850393700787
0
LINE
8
BLACK
6
CONTINUOUS
10
2.3391638976377953
20
0.1342850393700787
11
2.3315748031496062
21
0.1289711023622047
0
LINE
8
BLACK
6
CONTINUOUS
10
2.3315748031496062
20
0.1289711023622047
11
2.3231782283464568
21
0.1250557086614173
0
LINE
8
BLACK
6
CONTINUOUS
10
2.3231782283464568
20
0.1250557086614173
11
2.3142293307086614
21
0.122657874015748
0
LINE
8
BLACK
6
CONTINUOUS
10
2.3142293307086614
20
0.122657874015748
11
2.3050000000000002
21
0.1218503937007874
0
LINE
8
BLACK
6
CONTINUOUS
10
2.3050000000000002
20
0.1218503937007874
11
2.2957706692913384
21
0.122657874015748
0
LINE
8
BLACK
6
CONTINUOUS
10
2.2957706692913384
20
0.122657874015748
11
2.2868217716535431
21
0.1250557086614173
0
LINE
8
BLACK
6
CONTINUOUS
10
2.2868217716535431
20
0.1250557086614173
11
2.2784251968503937
21
0.1289711023622047
0
LINE
8
BLACK
6
CONTINUOUS
10
2.2784251968503937
20
0.1289711023622047
11
2.2708361023622046
21
0.1342850393700787
0
LINE
8
BLACK
6
CONTINUOUS
10
2.2708361023622046
20
0.1342850393700787
11
2.2642850393700789
21
0.1408361023622047
0
LINE
8
BLACK
6
CONTINUOUS
10
2.2642850393700789
20
0.1408361023622047
11
2.2589711023622048
21
0.1484251968503937
0
LINE
8
BLACK
6
CONTINUOUS
10
2.2589711023622048
20
0.1484251968503937
11
2.2550557086614171
21
0.1568217716535433
0
LINE
8
BLACK
6
CONTINUOUS
10
2.2550557086614171
20
0.1568217716535433
11
2.2526578740157479
21
0.1657706692913386
0
LINE
8
BLACK
6
CONTINUOUS
10
2.2526578740157479
20
0.1657706692913386
11
2.2524999999999999
21
0.1675751181102362
0
LINE
8
BLACK
6
CONTINUOUS
10
2.2524999999999999
20
0.1675751181102362
11
2.252342125984252
21
0.1657706692913386
0
LINE
8
BLACK
6
CONTINUOUS
10
2.252342125984252
20
0.1657706692913386
11
2.2499442913385828
21
0.1568217716535433
0
LINE
8
BLACK
6
CONTINUOUS
10
2.2499442913385828
20
0.1568217716535433
11
2.2460288976377951
21
0.1484251968503937
0
LINE
8
BLACK
6
CONTINUOUS
10
2.2460288976377951
20
0.1484251968503937
11
2.240714960629921
21
0.1408361023622047
0
LINE
8
BLACK
6
CONTINUOUS
10
2.240714960629921
20
0.1408361023622047
11
2.2341638976377953
21
0.1342850393700787
0
LINE
8
BLACK
6
CONTINUOUS
10
2.2341638976377953
20
0.1342850393700787
11
2.2265748031496062
21
0.1289711023622047
0
LINE
8
BLACK
6
CONTINUOUS
10
2.2265748031496062
20
0.1289711023622047
11
2.2181782283464568
21
0.1250557086614173
0
LINE
8
BLACK
6
CONTINUOUS
10
2.2181782283464568
20
0.1250557086614173
11
2.2092293307086615
21
0.122657874015748
0
LINE
8
BLACK
6
CONTINUOUS
10
2.2092293307086615
20
0.122657874015748
11
2.1999999999999997
21
0.1218503937007874
0
LINE
8
BLACK
6
CONTINUOUS
10
2.1999999999999997
20
0.1218503937007874
11
2.1907706692913385
21
0.122657874015748
0
LINE
8
BLACK
6
CONTINUOUS
10
2.1907706692913385
20
0.122657874015748
11
2.1818217716535431
21
0.1250557086614173
0
LINE
8
BLACK
6
CONTINUOUS
10
2.1818217716535431
20
0.1250557086614173
11
2.1734251968503937
21
0.1289711023622047
0
LINE
8
BLACK
6
CONTINUOUS
10
2.1734251968503937
20
0.1289711023622047
11
2.1658361023622046
21
0.1342850393700787
0
LINE
8
BLACK
6
CONTINUOUS
10
2.1658361023622046
20
0.1342850393700787
11
2.1592850393700789
21
0.1408361023622047
0
LINE
8
BLACK
6
CONTINUOUS
10
2.1592850393700789
20
0.1408361023622047
11
2.1539711023622048
21
0.1484251968503937
0
LINE
8
BLACK
6
CONTINUOUS
10
2.1539711023622048
20
0.1484251968503937
11
2.1500557086614172
21
0.1568217716535433
0
LINE
8
BLACK
6
CONTINUOUS
10
2.1500557086614172
20
0.1568217716535433
11
2.1476578740157479
21
0.1657706692913386
0
LINE
8
BLACK
6
CONTINUOUS
10
2.1476578740157479
20
0.1657706692913386
11
2.1475
21
0.1675751181102362
0
LINE
8
BLACK
6
CONTINUOUS
10
2.1475
20
0.1675751181102362
11
2.147342125984252
21
0.1657706692913386
0
LINE
8
BLACK
6
CONTINUOUS
10
2.147342125984252
20
0.1657706692913386
11
2.1449442913385828
21
0.1568217716535433
0
LINE
8
BLACK
6
CONTINUOUS
10
2.1449442913385828
20
0.1568217716535433
11
2.1410288976377951
21
0.1484251968503937
0
LINE
8
BLACK
6
CONTINUOUS
10
2.1410288976377951
20
0.1484251968503937
11
2.1357149606299211
21
0.1408361023622047
0
LINE
8
BLACK
6
CONTINUOUS
10
2.1357149606299211
20
0.1408361023622047
11
2.1291638976377953
21
0.1342850393700787
0
LINE
8
BLACK
6
CONTINUOUS
10
2.1291638976377953
20
0.1342850393700787
11
2.1215748031496062
21
0.1289711023622047
0
LINE
8
BLACK
6
CONTINUOUS
10
2.1215748031496062
20
0.1289711023622047
11
2.1131782283464569
21
0.1250557086614173
0
LINE
8
BLACK
6
CONTINUOUS
10
2.1131782283464569
20
0.1250557086614173
11
2.1042293307086615
21
0.122657874015748
0
LINE
8
BLACK
6
CONTINUOUS
10
2.1042293307086615
20
0.122657874015748
11
2.0949999999999998
21
0.1218503937007874
0
LINE
8
BLACK
6
CONTINUOUS
10
2.0949999999999998
20
0.1218503937007874
11
2.0857706692913385
21
0.122657874015748
0
LINE
8
BLACK
6
CONTINUOUS
10
2.0857706692913385
20
0.122657874015748
11
2.0768217716535431
21
0.1250557086614173
0
LINE
8
BLACK
6
CONTINUOUS
10
2.0768217716535431
20
0.1250557086614173
11
2.0684251968503937
21
0.1289711023622047
0
LINE
8
BLACK
6
CONTINUOUS
10
2.0684251968503937
20
0.1289711023622047
11
2.0608361023622046
21
0.1342850393700787
0
LINE
8
BLACK
6
CONTINUOUS
10
2.0608361023622046
20
0.1342850393700787
11
2.0542850393700789
21
0.1408361023622047
0
LINE
8
BLACK
6
CONTINUOUS
10
2.0542850393700789
20
0.1408361023622047
11
2.0489711023622048
21
0.1484251968503937
0
LINE
8
BLACK
6
CONTINUOUS
10
2.0489711023622048
20
0.1484251968503937
11
2.0450557086614172
21
0.1568217716535433
0
LINE
8
BLACK
6
CONTINUOUS
10
2.0450557086614172
20
0.1568217716535433
11
2.0426578740157479
21
0.1657706692913386
0
LINE
8
BLACK
6
CONTINUOUS
10
2.0426578740157479
20
0.1657706692913386
11
2.0425
21
0.1675751181102362
0
LINE
8
BLACK
6
CONTINUOUS
10
2.0425
20
0.1675751181102362
11
2.042342125984252
21
0.1657706692913386
0
LINE
8
BLACK
6
CONTINUOUS
10
2.042342125984252
20
0.1657706692913386
11
2.0399442913385828
21
0.1568217716535433
0
LINE
8
BLACK
6
CONTINUOUS
10
2.0399442913385828
20
0.1568217716535433
11
2.0360288976377952
21
0.1484251968503937
0
LINE
8
BLACK
6
CONTINUOUS
10
2.0360288976377952
20
0.1484251968503937
11
2.0307149606299211
21
0.1408361023622047
0
LINE
8
BLACK
6
CONTINUOUS
10
2.0307149606299211
20
0.1408361023622047
11
2.0241638976377954
21
0.1342850393700787
0
LINE
8
BLACK
6
CONTINUOUS
10
2.0241638976377954
20
0.1342850393700787
11
2.0165748031496062
21
0.1289711023622047
0
LINE
8
BLACK
6
CONTINUOUS
10
2.0165748031496062
20
0.1289711023622047
11
2.0081782283464564
21
0.1250557086614173
0
LINE
8
BLACK
6
CONTINUOUS
10
2.0081782283464564
20
0.1250557086614173
11
1.9992293307086613
21
0.122657874015748
0
LINE
8
BLACK
6
CONTINUOUS
10
1.9992293307086613
20
0.122657874015748
11
1.99
21
0.1218503937007874
0
LINE
8
BLACK
6
CONTINUOUS
10
1.99
20
0.1218503937007874
11
1.9807706692913385
21
0.122657874015748
0
LINE
8
BLACK
6
CONTINUOUS
10
1.9807706692913385
20
0.122657874015748
11
1.9718217716535433
21
0.1250557086614173
0
LINE
8
BLACK
6
CONTINUOUS
10
1.9718217716535433
20
0.1250557086614173
11
1.9634251968503937
21
0.1289711023622047
0
LINE
8
BLACK
6
CONTINUOUS
10
1.9634251968503937
20
0.1289711023622047
11
1.9558361023622046
21
0.1342850393700787
0
LINE
8
BLACK
6
CONTINUOUS
10
1.9558361023622046
20
0.1342850393700787
11
1.9492850393700787
21
0.1408361023622047
0
LINE
8
BLACK
6
CONTINUOUS
10
1.9492850393700787
20
0.1408361023622047
11
1.9439711023622046
21
0.1484251968503937
0
LINE
8
BLACK
6
CONTINUOUS
10
1.9439711023622046
20
0.1484251968503937
11
1.9400557086614172
21
0.1568217716535433
0
LINE
8
BLACK
6
CONTINUOUS
10
1.9400557086614172
20
0.1568217716535433
11
1.937657874015748
21
0.1657706692913386
0
LINE
8
BLACK
6
CONTINUOUS
10
1.937657874015748
20
0.1657706692913386
11
1.9375
21
0.1675751181102362
0
LINE
8
BLACK
6
CONTINUOUS
10
1.9375
20
0.1675751181102362
11
1.9373421259842518
21
0.1657706692913386
0
LINE
8
BLACK
6
CONTINUOUS
10
1.9373421259842518
20
0.1657706692913386
11
1.9349442913385826
21
0.1568217716535433
0
LINE
8
BLACK
6
CONTINUOUS
10
1.9349442913385826
20
0.1568217716535433
11
1.9310288976377952
21
0.1484251968503937
0
LINE
8
BLACK
6
CONTINUOUS
10
1.9310288976377952
20
0.1484251968503937
11
1.9257149606299213
21
0.1408361023622047
0
LINE
8
BLACK
6
CONTINUOUS
10
1.9257149606299213
20
0.1408361023622047
11
1.9191638976377952
21
0.1342850393700787
0
LINE
8
BLACK
6
CONTINUOUS
10
1.9191638976377952
20
0.1342850393700787
11
1.9115748031496063
21
0.1289711023622047
0
LINE
8
BLACK
6
CONTINUOUS
10
1.9115748031496063
20
0.1289711023622047
11
1.9031782283464567
21
0.1250557086614173
0
LINE
8
BLACK
6
CONTINUOUS
10
1.9031782283464567
20
0.1250557086614173
11
1.8942293307086613
21
0.122657874015748
0
LINE
8
BLACK
6
CONTINUOUS
10
1.8942293307086613
20
0.122657874015748
11
1.885
21
0.1218503937007874
0
LINE
8
BLACK
6
CONTINUOUS
10
1.885
20
0.1218503937007874
11
1.8757706692913385
21
0.122657874015748
0
LINE
8
BLACK
6
CONTINUOUS
10
1.8757706692913385
20
0.122657874015748
11
1.8668217716535433
21
0.1250557086614173
0
LINE
8
BLACK
6
CONTINUOUS
10
1.8668217716535433
20
0.1250557086614173
11
1.8584251968503938
21
0.1289711023622047
0
LINE
8
BLACK
6
CONTINUOUS
10
1.8584251968503938
20
0.1289711023622047
11
1.8508361023622046
21
0.1342850393700787
0
LINE
8
BLACK
6
CONTINUOUS
10
1.8508361023622046
20
0.1342850393700787
11
1.8442850393700787
21
0.1408361023622047
0
LINE
8
BLACK
6
CONTINUOUS
10
1.8442850393700787
20
0.1408361023622047
11
1.8389711023622046
21
0.1484251968503937
0
LINE
8
BLACK
6
CONTINUOUS
10
1.8389711023622046
20
0.1484251968503937
11
1.8350557086614172
21
0.1568217716535433
0
LINE
8
BLACK
6
CONTINUOUS
10
1.8350557086614172
20
0.1568217716535433
11
1.832657874015748
21
0.1657706692913386
0
LINE
8
BLACK
6
CONTINUOUS
10
1.832657874015748
20
0.1657706692913386
11
1.8325
21
0.1675751181102362
0
LINE
8
BLACK
6
CONTINUOUS
10
1.8325
20
0.1675751181102362
11
1.8323421259842518
21
0.1657706692913386
0
LINE
8
BLACK
6
CONTINUOUS
10
1.8323421259842518
20
0.1657706692913386
11
1.8299442913385826
21
0.1568217716535433
0
LINE
8
BLACK
6
CONTINUOUS
10
1.8299442913385826
20
0.1568217716535433
11
1.8260288976377952
21
0.1484251968503937
0
LINE
8
BLACK
6
CONTINUOUS
10
1.8260288976377952
20
0.1484251968503937
11
1.8207149606299211
21
0.1408361023622047
0
LINE
8
BLACK
6
CONTINUOUS
10
1.8207149606299211
20
0.1408361023622047
11
1.8141638976377952
21
0.1342850393700787
0
LINE
8
BLACK
6
CONTINUOUS
10
1.8141638976377952
20
0.1342850393700787
11
1.8065748031496063
21
0.1289711023622047
0
LINE
8
BLACK
6
CONTINUOUS
10
1.8065748031496063
20
0.1289711023622047
11
1.7981782283464567
21
0.1250557086614173
0
LINE
8
BLACK
6
CONTINUOUS
10
1.7981782283464567
20
0.1250557086614173
11
1.7892293307086613
21
0.122657874015748
0
LINE
8
BLACK
6
CONTINUOUS
10
1.7892293307086613
20
0.122657874015748
11
1.78
21
0.1218503937007874
0
LINE
8
BLACK
6
CONTINUOUS
10
1.78
20
0.1218503937007874
11
1.7707706692913385
21
0.122657874015748
0
LINE
8
BLACK
6
CONTINUOUS
10
1.7707706692913385
20
0.122657874015748
11
1.7618217716535434
21
0.1250557086614173
0
LINE
8
BLACK
6
CONTINUOUS
10
1.7618217716535434
20
0.1250557086614173
11
1.7534251968503936
21
0.1289711023622047
0
LINE
8
BLACK
6
CONTINUOUS
10
1.7534251968503936
20
0.1289711023622047
11
1.7458361023622047
21
0.1342850393700787
0
LINE
8
BLACK
6
CONTINUOUS
10
1.7458361023622047
20
0.1342850393700787
11
1.7392850393700787
21
0.1408361023622047
0
LINE
8
BLACK
6
CONTINUOUS
10
1.7392850393700787
20
0.1408361023622047
11
1.7339711023622046
21
0.1484251968503937
0
LINE
8
BLACK
6
CONTINUOUS
10
1.7339711023622046
20
0.1484251968503937
11
1.7300557086614172
21
0.1568217716535433
0
LINE
8
BLACK
6
CONTINUOUS
10
1.7300557086614172
20
0.1568217716535433
11
1.727657874015748
21
0.1657706692913386
0
LINE
8
BLACK
6
CONTINUOUS
10
1.727657874015748
20
0.1657706692913386
11
1.7275
21
0.1675751181102362
0
LINE
8
BLACK
6
CONTINUOUS
10
1.7275
20
0.1675751181102362
11
1.7273421259842519
21
0.1657706692913386
0
LINE
8
BLACK
6
CONTINUOUS
10
1.7273421259842519
20
0.1657706692913386
11
1.7249442913385826
21
0.1568217716535433
0
LINE
8
BLACK
6
CONTINUOUS
10
1.7249442913385826
20
0.1568217716535433
11
1.7210288976377952
21
0.1484251968503937
0
LINE
8
BLACK
6
CONTINUOUS
10
1.7210288976377952
20
0.1484251968503937
11
1.7157149606299211
21
0.1408361023622047
0
LINE
8
BLACK
6
CONTINUOUS
10
1.7157149606299211
20
0.1408361023622047
11
1.7091638976377952
21
0.1342850393700787
0
LINE
8
BLACK
6
CONTINUOUS
10
1.7091638976377952
20
0.1342850393700787
11
1.7015748031496063
21
0.1289711023622047
0
LINE
8
BLACK
6
CONTINUOUS
10
1.7015748031496063
20
0.1289711023622047
11
1.6931782283464567
21
0.1250557086614173
0
LINE
8
BLACK
6
CONTINUOUS
10
1.6931782283464567
20
0.1250557086614173
11
1.6842293307086613
21
0.122657874015748
0
LINE
8
BLACK
6
CONTINUOUS
10
1.6842293307086613
20
0.122657874015748
11
1.675
21
0.1218503937007874
0
LINE
8
BLACK
6
CONTINUOUS
10
1.675
20
0.1218503937007874
11
1.6657706692913385
21
0.122657874015748
0
LINE
8
BLACK
6
CONTINUOUS
10
1.6657706692913385
20
0.122657874015748
11
1.6568217716535432
21
0.1250557086614173
0
LINE
8
BLACK
6
CONTINUOUS
10
1.6568217716535432
20
0.1250557086614173
11
1.6484251968503936
21
0.1289711023622047
0
LINE
8
BLACK
6
CONTINUOUS
10
1.6484251968503936
20
0.1289711023622047
11
1.6408361023622047
21
0.1342850393700787
0
LINE
8
BLACK
6
CONTINUOUS
10
1.6408361023622047
20
0.1342850393700787
11
1.6342850393700787
21
0.1408361023622047
0
LINE
8
BLACK
6
CONTINUOUS
10
1.6342850393700787
20
0.1408361023622047
11
1.6289711023622047
21
0.1484251968503937
0
LINE
8
BLACK
6
CONTINUOUS
10
1.6289711023622047
20
0.1484251968503937
11
1.6250557086614172
21
0.1568217716535433
0
LINE
8
BLACK
6
CONTINUOUS
10
1.6250557086614172
20
0.1568217716535433
11
1.622657874015748
21
0.1657706692913386
0
LINE
8
BLACK
6
CONTINUOUS
10
1.622657874015748
20
0.1657706692913386
11
1.6218503937007873
21
0.175
0
LINE
8
BLACK
6
CONTINUOUS
10
1.6218503937007873
20
0.175
11
1.622657874015748
21
0.1842293307086614
0
LINE
8
BLACK
6
CONTINUOUS
10
1.622657874015748
20
0.1842293307086614
11
1.6250557086614172
21
0.1931782283464567
0
LINE
8
BLACK
6
CONTINUOUS
10
1.6250557086614172
20
0.1931782283464567
11
1.6289711023622047
21
0.2015748031496063
0
LINE
8
BLACK
6
CONTINUOUS
10
1.6289711023622047
20
0.2015748031496063
11
1.6342850393700787
21
0.2091638976377953
0
LINE
8
BLACK
6
CONTINUOUS
10
1.6342850393700787
20
0.2091638976377953
11
1.6408361023622047
21
0.2157149606299213
0
LINE
8
BLACK
6
CONTINUOUS
10
1.6408361023622047
20
0.2157149606299213
11
1.6484251968503936
21
0.2210288976377953
0
LINE
8
BLACK
6
CONTINUOUS
10
1.6484251968503936
20
0.2210288976377953
11
1.6568217716535432
21
0.2249442913385827
0
LINE
8
BLACK
6
CONTINUOUS
10
1.6568217716535432
20
0.2249442913385827
11
1.6657706692913385
21
0.227342125984252
0
LINE
8
BLACK
6
CONTINUOUS
10
1.6657706692913385
20
0.227342125984252
11
1.675
21
0.2281496062992126
0
LINE
8
BLACK
6
CONTINUOUS
10
1.675
20
0.2281496062992126
11
1.6842293307086613
21
0.227342125984252
0
LINE
8
BLACK
6
CONTINUOUS
10
1.6842293307086613
20
0.227342125984252
11
1.6931782283464567
21
0.2249442913385827
0
LINE
8
BLACK
6
CONTINUOUS
10
1.6931782283464567
20
0.2249442913385827
11
1.7015748031496063
21
0.2210288976377953
0
LINE
8
BLACK
6
CONTINUOUS
10
1.7015748031496063
20
0.2210288976377953
11
1.7091638976377952
21
0.2157149606299213
0
LINE
8
BLACK
6
CONTINUOUS
10
1.7091638976377952
20
0.2157149606299213
11
1.7157149606299211
21
0.2091638976377953
0
LINE
8
BLACK
6
CONTINUOUS
10
1.7157149606299211
20
0.2091638976377953
11
1.7210288976377952
21
0.2015748031496063
0
LINE
8
BLACK
6
CONTINUOUS
10
1.7210288976377952
20
0.2015748031496063
11
1.7249442913385826
21
0.1931782283464567
0
LINE
8
BLACK
6
CONTINUOUS
10
1.7249442913385826
20
0.1931782283464567
11
1.7273421259842519
21
0.1842293307086614
0
LINE
8
BLACK
6
CONTINUOUS
10
1.7273421259842519
20
0.1842293307086614
11
1.7275
21
0.182424842519685
0
LINE
8
BLACK
6
CONTINUOUS
10
1.7275
20
0.182424842519685
11
1.727657874015748
21
0.1842293307086614
0
LINE
8
BLACK
6
CONTINUOUS
10
1.727657874015748
20
0.1842293307086614
11
1.7300557086614172
21
0.1931782283464567
0
LINE
8
BLACK
6
CONTINUOUS
10
1.7300557086614172
20
0.1931782283464567
11
1.7339711023622046
21
0.2015748031496063
0
LINE
8
BLACK
6
CONTINUOUS
10
1.7339711023622046
20
0.2015748031496063
11
1.7392850393700787
21
0.2091638976377953
0
LINE
8
BLACK
6
CONTINUOUS
10
1.7392850393700787
20
0.2091638976377953
11
1.7458361023622047
21
0.2157149606299213
0
LINE
8
BLACK
6
CONTINUOUS
10
1.7458361023622047
20
0.2157149606299213
11
1.7534251968503936
21
0.2210288976377953
0
LINE
8
BLACK
6
CONTINUOUS
10
1.7534251968503936
20
0.2210288976377953
11
1.7618217716535434
21
0.2249442913385827
0
LINE
8
BLACK
6
CONTINUOUS
10
1.7618217716535434
20
0.2249442913385827
11
1.7707706692913385
21
0.227342125984252
0
LINE
8
BLACK
6
CONTINUOUS
10
1.7707706692913385
20
0.227342125984252
11
1.78
21
0.2281496062992126
0
LINE
8
BLACK
6
CONTINUOUS
10
1.78
20
0.2281496062992126
11
1.7892293307086613
21
0.227342125984252
0
LINE
8
BLACK
6
CONTINUOUS
10
1.7892293307086613
20
0.227342125984252
11
1.7981782283464567
21
0.2249442913385827
0
LINE
8
BLACK
6
CONTINUOUS
10
1.7981782283464567
20
0.2249442913385827
11
1.8065748031496063
21
0.2210288976377953
0
LINE
8
BLACK
6
CONTINUOUS
10
1.8065748031496063
20
0.2210288976377953
11
1.8141638976377952
21
0.2157149606299213
0
LINE
8
BLACK
6
CONTINUOUS
10
1.8141638976377952
20
0.2157149606299213
11
1.8207149606299211
21
0.2091638976377953
0
LINE
8
BLACK
6
CONTINUOUS
10
1.8207149606299211
20
0.2091638976377953
11
1.8260288976377952
21
0.2015748031496063
0
LINE
8
BLACK
6
CONTINUOUS
10
1.8260288976377952
20
0.2015748031496063
11
1.8299442913385826
21
0.1931782283464567
0
LINE
8
BLACK
6
CONTINUOUS
10
1.8299442913385826
20
0.1931782283464567
11
1.8323421259842518
21
0.1842293307086614
0
LINE
8
BLACK
6
CONTINUOUS
10
1.8323421259842518
20
0.1842293307086614
11
1.8325
21
0.182424842519685
0
LINE
8
BLACK
6
CONTINUOUS
10
1.8325
20
0.182424842519685
11
1.832657874015748
21
0.1842293307086614
0
LINE
8
BLACK
6
CONTINUOUS
10
1.832657874015748
20
0.1842293307086614
11
1.8350557086614172
21
0.1931782283464567
0
LINE
8
BLACK
6
CONTINUOUS
10
1.8350557086614172
20
0.1931782283464567
11
1.8389711023622046
21
0.2015748031496063
0
LINE
8
BLACK
6
CONTINUOUS
10
1.8389711023622046
20
0.2015748031496063
11
1.8442850393700787
21
0.2091638976377953
0
LINE
8
BLACK
6
CONTINUOUS
10
1.8442850393700787
20
0.2091638976377953
11
1.8508361023622046
21
0.2157149606299213
0
LINE
8
BLACK
6
CONTINUOUS
10
1.8508361023622046
20
0.2157149606299213
11
1.8584251968503938
21
0.2210288976377953
0
LINE
8
BLACK
6
CONTINUOUS
10
1.8584251968503938
20
0.2210288976377953
11
1.8668217716535433
21
0.2249442913385827
0
LINE
8
BLACK
6
CONTINUOUS
10
1.8668217716535433
20
0.2249442913385827
11
1.8757706692913385
21
0.227342125984252
0
LINE
8
BLACK
6
CONTINUOUS
10
1.8757706692913385
20
0.227342125984252
11
1.885
21
0.2281496062992126
0
LINE
8
BLACK
6
CONTINUOUS
10
1.885
20
0.2281496062992126
11
1.8942293307086613
21
0.227342125984252
0
LINE
8
BLACK
6
CONTINUOUS
10
1.8942293307086613
20
0.227342125984252
11
1.9031782283464567
21
0.2249442913385827
0
LINE
8
BLACK
6
CONTINUOUS
10
1.9031782283464567
20
0.2249442913385827
11
1.9115748031496063
21
0.2210288976377953
0
LINE
8
BLACK
6
CONTINUOUS
10
1.9115748031496063
20
0.2210288976377953
11
1.9191638976377952
21
0.2157149606299213
0
LINE
8
BLACK
6
CONTINUOUS
10
1.9191638976377952
20
0.2157149606299213
11
1.9257149606299213
21
0.2091638976377953
0
LINE
8
BLACK
6
CONTINUOUS
10
1.9257149606299213
20
0.2091638976377953
11
1.9310288976377952
21
0.2015748031496063
0
LINE
8
BLACK
6
CONTINUOUS
10
1.9310288976377952
20
0.2015748031496063
11
1.9349442913385826
21
0.1931782283464567
0
LINE
8
BLACK
6
CONTINUOUS
10
1.9349442913385826
20
0.1931782283464567
11
1.9373421259842518
21
0.1842293307086614
0
LINE
8
BLACK
6
CONTINUOUS
10
1.9373421259842518
20
0.1842293307086614
11
1.9375
21
0.182424842519685
0
LINE
8
BLACK
6
CONTINUOUS
10
1.9375
20
0.182424842519685
11
1.937657874015748
21
0.1842293307086614
0
LINE
8
BLACK
6
CONTINUOUS
10
1.937657874015748
20
0.1842293307086614
11
1.9400557086614172
21
0.1931782283464567
0
LINE
8
BLACK
6
CONTINUOUS
10
1.9400557086614172
20
0.1931782283464567
11
1.9439711023622046
21
0.2015748031496063
0
LINE
8
BLACK
6
CONTINUOUS
10
1.9439711023622046
20
0.2015748031496063
11
1.9492850393700787
21
0.2091638976377953
0
LINE
8
BLACK
6
CONTINUOUS
10
1.9492850393700787
20
0.2091638976377953
11
1.9558361023622046
21
0.2157149606299213
0
LINE
8
BLACK
6
CONTINUOUS
10
1.9558361023622046
20
0.2157149606299213
11
1.9634251968503937
21
0.2210288976377953
0
LINE
8
BLACK
6
CONTINUOUS
10
1.9634251968503937
20
0.2210288976377953
11
1.9718217716535433
21
0.2249442913385827
0
LINE
8
BLACK
6
CONTINUOUS
10
1.9718217716535433
20
0.2249442913385827
11
1.9807706692913385
21
0.227342125984252
0
LINE
8
BLACK
6
CONTINUOUS
10
1.9807706692913385
20
0.227342125984252
11
1.99
21
0.2281496062992126
0
LINE
8
BLACK
6
CONTINUOUS
10
1.99
20
0.2281496062992126
11
1.9992293307086613
21
0.227342125984252
0
LINE
8
BLACK
6
CONTINUOUS
10
1.9992293307086613
20
0.227342125984252
11
2.0081782283464564
21
0.2249442913385827
0
LINE
8
BLACK
6
CONTINUOUS
10
2.0081782283464564
20
0.2249442913385827
11
2.0165748031496062
21
0.2210288976377953
0
LINE
8
BLACK
6
CONTINUOUS
10
2.0165748031496062
20
0.2210288976377953
11
2.0241638976377954
21
0.2157149606299213
0
LINE
8
BLACK
6
CONTINUOUS
10
2.0241638976377954
20
0.2157149606299213
11
2.0307149606299211
21
0.2091638976377953
0
LINE
8
BLACK
6
CONTINUOUS
10
2.0307149606299211
20
0.2091638976377953
11
2.0360288976377952
21
0.2015748031496063
0
LINE
8
BLACK
6
CONTINUOUS
10
2.0360288976377952
20
0.2015748031496063
11
2.0399442913385828
21
0.1931782283464567
0
LINE
8
BLACK
6
CONTINUOUS
10
2.0399442913385828
20
0.1931782283464567
11
2.042342125984252
21
0.1842293307086614
0
LINE
8
BLACK
6
CONTINUOUS
10
2.042342125984252
20
0.1842293307086614
11
2.0425
21
0.182424842519685
0
LINE
8
BLACK
6
CONTINUOUS
10
2.0425
20
0.182424842519685
11
2.0426578740157479
21
0.1842293307086614
0
LINE
8
BLACK
6
CONTINUOUS
10
2.0426578740157479
20
0.1842293307086614
11
2.0450557086614172
21
0.1931782283464567
0
LINE
8
BLACK
6
CONTINUOUS
10
2.0450557086614172
20
0.1931782283464567
11
2.0489711023622048
21
0.2015748031496063
0
LINE
8
BLACK
6
CONTINUOUS
10
2.0489711023622048
20
0.2015748031496063
11
2.0542850393700789
21
0.2091638976377953
0
LINE
8
BLACK
6
CONTINUOUS
10
2.0542850393700789
20
0.2091638976377953
11
2.0608361023622046
21
0.2157149606299213
0
LINE
8
BLACK
6
CONTINUOUS
10
2.0608361023622046
20
0.2157149606299213
11
2.0684251968503937
21
0.2210288976377953
0
LINE
8
BLACK
6
CONTINUOUS
10
2.0684251968503937
20
0.2210288976377953
11
2.0768217716535431
21
0.2249442913385827
0
LINE
8
BLACK
6
CONTINUOUS
10
2.0768217716535431
20
0.2249442913385827
11
2.0857706692913385
21
0.227342125984252
0
LINE
8
BLACK
6
CONTINUOUS
10
2.0857706692913385
20
0.227342125984252
11
2.0949999999999998
21
0.2281496062992126
0
LINE
8
BLACK
6
CONTINUOUS
10
2.0949999999999998
20
0.2281496062992126
11
2.1042293307086615
21
0.227342125984252
0
LINE
8
BLACK
6
CONTINUOUS
10
2.1042293307086615
20
0.227342125984252
11
2.1131782283464569
21
0.2249442913385827
0
LINE
8
BLACK
6
CONTINUOUS
10
2.1131782283464569
20
0.2249442913385827
11
2.1215748031496062
21
0.2210288976377953
0
LINE
8
BLACK
6
CONTINUOUS
10
2.1215748031496062
20
0.2210288976377953
11
2.1291638976377953
21
0.2157149606299213
0
LINE
8
BLACK
6
CONTINUOUS
10
2.1291638976377953
20
0.2157149606299213
11
2.1357149606299211
21
0.2091638976377953
0
LINE
8
BLACK
6
CONTINUOUS
10
2.1357149606299211
20
0.2091638976377953
11
2.1410288976377951
21
0.2015748031496063
0
LINE
8
BLACK
6
CONTINUOUS
10
2.1410288976377951
20
0.2015748031496063
11
2.1449442913385828
21
0.1931782283464567
0
LINE
8
BLACK
6
CONTINUOUS
10
2.1449442913385828
20
0.1931782283464567
11
2.147342125984252
21
0.1842293307086614
0
LINE
8
BLACK
6
CONTINUOUS
10
2.147342125984252
20
0.1842293307086614
11
2.1475
21
0.182424842519685
0
LINE
8
BLACK
6
CONTINUOUS
10
2.1475
20
0.182424842519685
11
2.1476578740157479
21
0.1842293307086614
0
LINE
8
BLACK
6
CONTINUOUS
10
2.1476578740157479
20
0.1842293307086614
11
2.1500557086614172
21
0.1931782283464567
0
LINE
8
BLACK
6
CONTINUOUS
10
2.1500557086614172
20
0.1931782283464567
11
2.1539711023622048
21
0.2015748031496063
0
LINE
8
BLACK
6
CONTINUOUS
10
2.1539711023622048
20
0.2015748031496063
11
2.1592850393700789
21
0.2091638976377953
0
LINE
8
BLACK
6
CONTINUOUS
10
2.1592850393700789
20
0.2091638976377953
11
2.1658361023622046
21
0.2157149606299213
0
LINE
8
BLACK
6
CONTINUOUS
10
2.1658361023622046
20
0.2157149606299213
11
2.1734251968503937
21
0.2210288976377953
0
LINE
8
BLACK
6
CONTINUOUS
10
2.1734251968503937
20
0.2210288976377953
11
2.1818217716535431
21
0.2249442913385827
0
LINE
8
BLACK
6
CONTINUOUS
10
2.1818217716535431
20
0.2249442913385827
11
2.1907706692913385
21
0.227342125984252
0
LINE
8
BLACK
6
CONTINUOUS
10
2.1907706692913385
20
0.227342125984252
11
2.1999999999999997
21
0.2281496062992126
0
LINE
8
BLACK
6
CONTINUOUS
10
2.1999999999999997
20
0.2281496062992126
11
2.2092293307086615
21
0.227342125984252
0
LINE
8
BLACK
6
CONTINUOUS
10
2.2092293307086615
20
0.227342125984252
11
2.2181782283464568
21
0.2249442913385827
0
LINE
8
BLACK
6
CONTINUOUS
10
2.2181782283464568
20
0.2249442913385827
11
2.2265748031496062
21
0.2210288976377953
0
LINE
8
BLACK
6
CONTINUOUS
10
2.2265748031496062
20
0.2210288976377953
11
2.2341638976377953
21
0.2157149606299213
0
LINE
8
BLACK
6
CONTINUOUS
10
2.2341638976377953
20
0.2157149606299213
11
2.240714960629921
21
0.2091638976377953
0
LINE
8
BLACK
6
CONTINUOUS
10
2.240714960629921
20
0.2091638976377953
11
2.2460288976377951
21
0.2015748031496063
0
LINE
8
BLACK
6
CONTINUOUS
10
2.2460288976377951
20
0.2015748031496063
11
2.2499442913385828
21
0.1931782283464567
0
LINE
8
BLACK
6
CONTINUOUS
10
2.2499442913385828
20
0.1931782283464567
11
2.252342125984252
21
0.1842293307086614
0
LINE
8
BLACK
6
CONTINUOUS
10
2.252342125984252
20
0.1842293307086614
11
2.2524999999999999
21
0.182424842519685
0
LINE
8
BLACK
6
CONTINUOUS
10
2.2524999999999999
20
0.182424842519685
11
2.2526578740157479
21
0.1842293307086614
0
LINE
8
BLACK
6
CONTINUOUS
10
2.2526578740157479
20
0.1842293307086614
11
2.2550557086614171
21
0.1931782283464567
0
LINE
8
BLACK
6
CONTINUOUS
10
2.2550557086614171
20
0.1931782283464567
11
2.2589711023622048
21
0.2015748031496063
0
LINE
8
BLACK
6
CONTINUOUS
10
2.2589711023622048
20
0.2015748031496063
11
2.2642850393700789
21
0.2091638976377953
0
LINE
8
BLACK
6
CONTINUOUS
10
2.2642850393700789
20
0.2091638976377953
11
2.2708361023622046
21
0.2157149606299213
0
LINE
8
BLACK
6
CONTINUOUS
10
2.2708361023622046
20
0.2157149606299213
11
2.2784251968503937
21
0.2210288976377953
0
LINE
8
BLACK
6
CONTINUOUS
10
2.2784251968503937
20
0.2210288976377953
11
2.2868217716535431
21
0.2249442913385827
0
LINE
8
BLACK
6
CONTINUOUS
10
2.2868217716535431
20
0.2249442913385827
11
2.2957706692913384
21
0.227342125984252
0
LINE
8
BLACK
6
CONTINUOUS
10
2.2957706692913384
20
0.227342125984252
11
2.3050000000000002
21
0.2281496062992126
0
LINE
8
BLACK
6
CONTINUOUS
10
2.3050000000000002
20
0.2281496062992126
11
2.3142293307086614
21
0.227342125984252
0
LINE
8
BLACK
6
CONTINUOUS
10
2.3142293307086614
20
0.227342125984252
11
2.3231782283464568
21
0.2249442913385827
0
LINE
8
BLACK
6
CONTINUOUS
10
2.3231782283464568
20
0.2249442913385827
11
2.3315748031496062
21
0.2210288976377953
0
LINE
8
BLACK
6
CONTINUOUS
10
2.3315748031496062
20
0.2210288976377953
11
2.3391638976377953
21
0.2157149606299213
0
LINE
8
BLACK
6
CONTINUOUS
10
2.3391638976377953
20
0.2157149606299213
11
2.345714960629921
21
0.2091638976377953
0
LINE
8
BLACK
6
CONTINUOUS
10
2.345714960629921
20
0.2091638976377953
11
2.3510288976377951
21
0.2015748031496063
0
LINE
8
BLACK
6
CONTINUOUS
10
2.3510288976377951
20
0.2015748031496063
11
2.3549442913385827
21
0.1931782283464567
0
LINE
8
BLACK
6
CONTINUOUS
10
2.3549442913385827
20
0.1931782283464567
11
2.357342125984252
21
0.1842293307086614
0
LINE
8
BLACK
6
CONTINUOUS
10
2.357342125984252
20
0.1842293307086614
11
2.3574999999999999
21
0.182424842519685
0
LINE
8
BLACK
6
CONTINUOUS
10
2.3574999999999999
20
0.182424842519685
11
2.3576578740157479
21
0.1842293307086614
0
LINE
8
BLACK
6
CONTINUOUS
10
2.3576578740157479
20
0.1842293307086614
11
2.3600557086614171
21
0.1931782283464567
0
LINE
8
BLACK
6
CONTINUOUS
10
2.3600557086614171
20
0.1931782283464567
11
2.3639711023622048
21
0.2015748031496063
0
LINE
8
BLACK
6
CONTINUOUS
10
2.3639711023622048
20
0.2015748031496063
11
2.3692850393700788
21
0.2091638976377953
0
LINE
8
BLACK
6
CONTINUOUS
10
2.3692850393700788
20
0.2091638976377953
11
2.3758361023622045
21
0.2157149606299213
0
LINE
8
BLACK
6
CONTINUOUS
10
2.3758361023622045
20
0.2157149606299213
11
2.3834251968503937
21
0.2210288976377953
0
LINE
8
BLACK
6
CONTINUOUS
10
2.3834251968503937
20
0.2210288976377953
11
2.391821771653543
21
0.2249442913385827
0
LINE
8
BLACK
6
CONTINUOUS
10
2.391821771653543
20
0.2249442913385827
11
2.4007706692913384
21
0.227342125984252
0
LINE
8
BLACK
6
CONTINUOUS
10
2.4007706692913384
20
0.227342125984252
11
2.4100000000000001
21
0.2281496062992126
0
LINE
8
BLACK
6
CONTINUOUS
10
2.4100000000000001
20
0.2281496062992126
11
2.4192293307086614
21
0.227342125984252
0
LINE
8
BLACK
6
CONTINUOUS
10
1.28
20
0.22
11
1.22
21
0.22
0
LINE
8
BLACK
6
CONTINUOUS
10
1.22
20
0.22
11
1.22
21
0.28
0
LINE
8
BLACK
6
CONTINUOUS
10
1.22
20
0.28
11
1.28
21
0.28
0
LINE
8
BLACK
6
CONTINUOUS
10
1.28
20
0.28
11
1.28
21
0.22
0
LINE
8
BLACK
6
CONTINUOUS
10
1.3799999999999999
20
0.22
11
1.3200000000000001
21
0.22
0
LINE
8
BLACK
6
CONTINUOUS
10
1.3200000000000001
20
0.22
11
1.3200000000000001
21
0.28
0
LINE
8
BLACK
6
CONTINUOUS
10
1.3200000000000001
20
0.28
11
1.3799999999999999
21
0.28
0
LINE
8
BLACK
6
CONTINUOUS
10
1.3799999999999999
20
0.28
11
1.3799999999999999
21
0.22
0
LINE
8
BLACK
6
CONTINUOUS
10
1.48
20
0.22
11
1.4199999999999999
21
0.22
0
LINE
8
BLACK
6
CONTINUOUS
10
1.4199999999999999
20
0.22
11
1.4199999999999999
21
0.28
0
LINE
8
BLACK
6
CONTINUOUS
10
1.4199999999999999
20
0.28
11
1.48
21
0.28
0
LINE
8
BLACK
6
CONTINUOUS
10
1.48
20
0.28
11
1.48
21
0.22
0
LINE
8
BLACK
6
CONTINUOUS
10
1.5800000000000001
20
0.22
11
1.52
21
0.22
0
LINE
8
BLACK
6
CONTINUOUS
10
1.52
20
0.22
11
1.52
21
0.28
0
LINE
8
BLACK
6
CONTINUOUS
10
1.52
20
0.28
11
1.5800000000000001
21
0.28
0
LINE
8
BLACK
6
CONTINUOUS
10
1.5800000000000001
20
0.28
11
1.5800000000000001
21
0.22
0
LINE
8
BLACK
6
CONTINUOUS
10
0.6631496062992126
20
0.235
11
0.5131496062992126
21
0.235
0
LINE
8
BLACK
6
CONTINUOUS
10
0.5131496062992126
20
0.235
11
0.5131496062992126
21
0.385
0
LINE
8
BLACK
6
CONTINUOUS
10
0.5131496062992126
20
0.385
11
0.6631496062992126
21
0.385
0
LINE
8
BLACK
6
CONTINUOUS
10
0.6631496062992126
20
0.385
11
0.6631496062992126
21
0.235
0
LINE
8
BLACK
6
CONTINUOUS
10
0.86
20
0.235
11
0.71
21
0.235
0
LINE
8
BLACK
6
CONTINUOUS
10
0.71
20
0.235
11
0.71
21
0.385
0
LINE
8
BLACK
6
CONTINUOUS
10
0.71
20
0.385
11
0.86
21
0.385
0
LINE
8
BLACK
6
CONTINUOUS
10
0.86
20
0.385
11
0.86
21
0.235
0
LINE
8
BLACK
6
CONTINUOUS
10
2.5539842519685041
20
0.2755826771653543
11
2.4879842519685038
21
0.2755826771653543
0
LINE
8
BLACK
6
CONTINUOUS
10
2.4879842519685038
20
0.2755826771653543
11
2.4879842519685038
21
0.3415826771653543
0
LINE
8
BLACK
6
CONTINUOUS
10
2.4879842519685038
20
0.3415826771653543
11
2.5539842519685041
21
0.3415826771653543
0
LINE
8
BLACK
6
CONTINUOUS
10
2.5539842519685041
20
0.3415826771653543
11
2.5539842519685041
21
0.2755826771653543
0
LINE
8
BLACK
6
CONTINUOUS
10
2.8020157480314958
20
0.2755826771653543
11
2.7360157480314959
21
0.2755826771653543
0
LINE
8
BLACK
6
CONTINUOUS
10
2.7360157480314959
20
0.2755826771653543
11
2.7360157480314959
21
0.3415826771653543
0
LINE
8
BLACK
6
CONTINUOUS
10
2.7360157480314959
20
0.3415826771653543
11
2.8020157480314958
21
0.3415826771653543
0
LINE
8
BLACK
6
CONTINUOUS
10
2.8020157480314958
20
0.3415826771653543
11
2.8020157480314958
21
0.2755826771653543
0
LINE
8
BLACK
6
CONTINUOUS
10
0.2490748031496063
20
0.7563385826771654
11
0.0915944881889764
21
0.7563385826771654
0
LINE
8
BLACK
6
CONTINUOUS
10
0.0915944881889764
20
0.7563385826771654
11
0.0915944881889764
21
0.9138188976377952
0
LINE
8
BLACK
6
CONTINUOUS
10
0.0915944881889764
20
0.9138188976377952
11
0.2490748031496063
21
0.9138188976377952
0
LINE
8
BLACK
6
CONTINUOUS
10
0.2490748031496063
20
0.9138188976377952
11
0.2490748031496063
21
0.7563385826771654
0
LINE
8
BLACK
6
CONTINUOUS
10
3.1034055118110238
20
0.7563385826771654
11
2.9459251968503937
21
0.7563385826771654
0
LINE
8
BLACK
6
CONTINUOUS
10
2.9459251968503937
20
0.7563385826771654
11
2.9459251968503937
21
0.9138188976377952
0
LINE
8
BLACK
6
CONTINUOUS
10
2.9459251968503937
20
0.9138188976377952
11
3.1034055118110238
21
0.9138188976377952
0
LINE
8
BLACK
6
CONTINUOUS
10
3.1034055118110238
20
0.9138188976377952
11
3.1034055118110238
21
0.7563385826771654
0
LINE
8
BLACK
6
CONTINUOUS
10
2.6749999999999998
20
0.8025
11
2.6400000000000001
21
0.8025
0
LINE
8
BLACK
6
CONTINUOUS
10
2.6400000000000001
20
0.8025
11
2.6400000000000001
21
0.8574999999999999
0
LINE
8
BLACK
6
CONTINUOUS
10
2.6400000000000001
20
0.8574999999999999
11
2.6749999999999998
21
0.8574999999999999
0
LINE
8
BLACK
6
CONTINUOUS
10
2.6749999999999998
20
0.8574999999999999
11
2.6749999999999998
21
0.8025
0
LINE
8
BLACK
6
CONTINUOUS
10
2.75
20
0.8025
11
2.7149999999999999
21
0.8025
0
LINE
8
BLACK
6
CONTINUOUS
10
2.7149999999999999
20
0.8025
11
2.7149999999999999
21
0.8574999999999999
0
LINE
8
BLACK
6
CONTINUOUS
10
2.7149999999999999
20
0.8574999999999999
11
2.75
21
0.8574999999999999
0
LINE
8
BLACK
6
CONTINUOUS
10
2.75
20
0.8574999999999999
11
2.75
21
0.8025
0
LINE
8
BLACK
6
CONTINUOUS
10
0.2490748031496063
20
1.5161811023622047
11
0.0915944881889764
21
1.5161811023622047
0
LINE
8
BLACK
6
CONTINUOUS
10
0.0915944881889764
20
1.5161811023622047
11
0.0915944881889764
21
1.6736614173228346
0
LINE
8
BLACK
6
CONTINUOUS
10
0.0915944881889764
20
1.6736614173228346
11
0.2490748031496063
21
1.6736614173228346
0
LINE
8
BLACK
6
CONTINUOUS
10
0.2490748031496063
20
1.6736614173228346
11
0.2490748031496063
21
1.5161811023622047
0
LINE
8
BLACK
6
CONTINUOUS
10
3.1034055118110238
20
1.5161811023622047
11
2.9459251968503937
21
1.5161811023622047
0
LINE
8
BLACK
6
CONTINUOUS
10
2.9459251968503937
20
1.5161811023622047
11
2.9459251968503937
21
1.6736614173228346
0
LINE
8
BLACK
6
CONTINUOUS
10
2.9459251968503937
20
1.6736614173228346
11
3.1034055118110238
21
1.6736614173228346
0
LINE
8
BLACK
6
CONTINUOUS
10
3.1034055118110238
20
1.6736614173228346
11
3.1034055118110238
21
1.5161811023622047
0
LINE
8
BLACK
6
CONTINUOUS
10
0.485
20
1.5625
11
0.45
21
1.5625
0
LINE
8
BLACK
6
CONTINUOUS
10
0.45
20
1.5625
11
0.45
21
1.6174999999999999
0
LINE
8
BLACK
6
CONTINUOUS
10
0.45
20
1.6174999999999999
11
0.485
21
1.6174999999999999
0
LINE
8
BLACK
6
CONTINUOUS
10
0.485
20
1.6174999999999999
11
0.485
21
1.5625
0
LINE
8
BLACK
6
CONTINUOUS
10
0.5599999999999999
20
1.5625
11
0.525
21
1.5625
0
LINE
8
BLACK
6
CONTINUOUS
10
0.525
20
1.5625
11
0.525
21
1.6174999999999999
0
LINE
8
BLACK
6
CONTINUOUS
10
0.525
20
1.6174999999999999
11
0.5599999999999999
21
1.6174999999999999
0
LINE
8
BLACK
6
CONTINUOUS
10
0.5599999999999999
20
1.6174999999999999
11
0.5599999999999999
21
1.5625
0
LINE
8
BLACK
6
CONTINUOUS
10
1.0459055118110236
20
1.6852286614173229
11
1.0490477559055118
21
1.682591968503937
0
LINE
8
BLACK
6
CONTINUOUS
10
1.0490477559055118
20
1.682591968503937
11
1.0510987401574803
21
1.6790396062992126
0
LINE
8
BLACK
6
CONTINUOUS
10
1.0510987401574803
20
1.6790396062992126
11
1.0518110236220473
21
1.675
0
LINE
8
BLACK
6
CONTINUOUS
10
1.0518110236220473
20
1.675
11
1.0510987401574803
21
1.6709603937007873
0
LINE
8
BLACK
6
CONTINUOUS
10
1.0510987401574803
20
1.6709603937007873
11
1.0490477559055118
21
1.6674080314960629
0
LINE
8
BLACK
6
CONTINUOUS
10
1.0490477559055118
20
1.6674080314960629
11
1.0459055118110236
21
1.6647713385826772
0
LINE
8
BLACK
6
CONTINUOUS
10
1.0459055118110236
20
1.6647713385826772
11
1.0420509448818898
21
1.6633684251968504
0
LINE
8
BLACK
6
CONTINUOUS
10
1.0420509448818898
20
1.6633684251968504
11
1.0379490551181103
21
1.6633684251968504
0
LINE
8
BLACK
6
CONTINUOUS
10
1.0379490551181103
20
1.6633684251968504
11
1.0340944881889764
21
1.6647713385826772
0
LINE
8
BLACK
6
CONTINUOUS
10
1.0340944881889764
20
1.6647713385826772
11
1.0309522440944883
21
1.6674080314960629
0
LINE
8
BLACK
6
CONTINUOUS
10
1.0309522440944883
20
1.6674080314960629
11
1.0289012598425196
21
1.6709603937007873
0
LINE
8
BLACK
6
CONTINUOUS
10
1.0289012598425196
20
1.6709603937007873
11
1.0281889763779528
21
1.675
0
LINE
8
BLACK
6
CONTINUOUS
10
1.0281889763779528
20
1.675
11
1.0289012598425196
21
1.6790396062992126
0
LINE
8
BLACK
6
CONTINUOUS
10
1.0289012598425196
20
1.6790396062992126
11
1.0309522440944883
21
1.682591968503937
0
LINE
8
BLACK
6
CONTINUOUS
10
1.0309522440944883
20
1.682591968503937
11
1.0340944881889764
21
1.6852286614173229
0
LINE
8
BLACK
6
CONTINUOUS
10
1.0340944881889764
20
1.6852286614173229
11
1.0379490551181103
21
1.6866315748031495
0
LINE
8
BLACK
6
CONTINUOUS
10
1.0379490551181103
20
1.6866315748031495
11
1.0420509448818898
21
1.6866315748031495
0
LINE
8
BLACK
6
CONTINUOUS
10
1.0420509448818898
20
1.6866315748031495
11
1.0459055118110236
21
1.6852286614173229
0
LINE
8
BLACK
6
CONTINUOUS
10
1.0959055118110237
20
1.6852286614173229
11
1.0990477559055118
21
1.682591968503937
0
LINE
8
BLACK
6
CONTINUOUS
10
1.0990477559055118
20
1.682591968503937
11
1.1010987401574803
21
1.6790396062992126
0
LINE
8
BLACK
6
CONTINUOUS
10
1.1010987401574803
20
1.6790396062992126
11
1.1018110236220473
21
1.675
0
LINE
8
BLACK
6
CONTINUOUS
10
1.1018110236220473
20
1.675
11
1.1010987401574803
21
1.6709603937007873
0
LINE
8
BLACK
6
CONTINUOUS
10
1.1010987401574803
20
1.6709603937007873
11
1.0990477559055118
21
1.6674080314960629
0
LINE
8
BLACK
6
CONTINUOUS
10
1.0990477559055118
20
1.6674080314960629
11
1.0959055118110237
21
1.6647713385826772
0
LINE
8
BLACK
6
CONTINUOUS
10
1.0959055118110237
20
1.6647713385826772
11
1.0920509448818898
21
1.6633684251968504
0
LINE
8
BLACK
6
CONTINUOUS
10
1.0920509448818898
20
1.6633684251968504
11
1.0879490551181101
21
1.6633684251968504
0
LINE
8
BLACK
6
CONTINUOUS
10
1.0879490551181101
20
1.6633684251968504
11
1.0840944881889762
21
1.6647713385826772
0
LINE
8
BLACK
6
CONTINUOUS
10
1.0840944881889762
20
1.6647713385826772
11
1.0809522440944881
21
1.6674080314960629
0
LINE
8
BLACK
6
CONTINUOUS
10
1.0809522440944881
20
1.6674080314960629
11
1.0789012598425196
21
1.6709603937007873
0
LINE
8
BLACK
6
CONTINUOUS
10
1.0789012598425196
20
1.6709603937007873
11
1.0781889763779526
21
1.675
0
LINE
8
BLACK
6
CONTINUOUS
10
1.0781889763779526
20
1.675
11
1.0789012598425196
21
1.6790396062992126
0
LINE
8
BLACK
6
CONTINUOUS
10
1.0789012598425196
20
1.6790396062992126
11
1.0809522440944881
21
1.682591968503937
0
LINE
8
BLACK
6
CONTINUOUS
10
1.0809522440944881
20
1.682591968503937
11
1.0840944881889762
21
1.6852286614173229
0
LINE
8
BLACK
6
CONTINUOUS
10
1.0840944881889762
20
1.6852286614173229
11
1.0879490551181101
21
1.6866315748031495
0
LINE
8
BLACK
6
CONTINUOUS
10
1.0879490551181101
20
1.6866315748031495
11
1.0920509448818898
21
1.6866315748031495
0
LINE
8
BLACK
6
CONTINUOUS
10
1.0920509448818898
20
1.6866315748031495
11
1.0959055118110237
21
1.6852286614173229
0
LINE
8
BLACK
6
CONTINUOUS
10
1.0709055118110236
20
1.7302286614173228
11
1.0740477559055117
21
1.7275919685039369
0
LINE
8
BLACK
6
CONTINUOUS
10
1.0740477559055117
20
1.7275919685039369
11
1.0760987401574802
21
1.7240396062992125
0
LINE
8
BLACK
6
CONTINUOUS
10
1.0760987401574802
20
1.7240396062992125
11
1.0768110236220472
21
1.72
0
LINE
8
BLACK
6
CONTINUOUS
10
1.0768110236220472
20
1.72
11
1.0760987401574802
21
1.7159603937007875
0
LINE
8
BLACK
6
CONTINUOUS
10
1.0760987401574802
20
1.7159603937007875
11
1.0740477559055117
21
1.712408031496063
0
LINE
8
BLACK
6
CONTINUOUS
10
1.0740477559055117
20
1.712408031496063
11
1.0709055118110236
21
1.7097713385826772
0
LINE
8
BLACK
6
CONTINUOUS
10
1.0709055118110236
20
1.7097713385826772
11
1.0670509448818897
21
1.7083684251968503
0
LINE
8
BLACK
6
CONTINUOUS
10
1.0670509448818897
20
1.7083684251968503
11
1.0629490551181102
21
1.7083684251968503
0
LINE
8
BLACK
6
CONTINUOUS
10
1.0629490551181102
20
1.7083684251968503
11
1.0590944881889763
21
1.7097713385826772
0
LINE
8
BLACK
6
CONTINUOUS
10
1.0590944881889763
20
1.7097713385826772
11
1.0559522440944882
21
1.712408031496063
0
LINE
8
BLACK
6
CONTINUOUS
10
1.0559522440944882
20
1.712408031496063
11
1.0539012598425197
21
1.7159603937007875
0
LINE
8
BLACK
6
CONTINUOUS
10
1.0539012598425197
20
1.7159603937007875
11
1.0531889763779527
21
1.72
0
LINE
8
BLACK
6
CONTINUOUS
10
1.0531889763779527
20
1.72
11
1.0539012598425197
21
1.7240396062992125
0
LINE
8
BLACK
6
CONTINUOUS
10
1.0539012598425197
20
1.7240396062992125
11
1.0559522440944882
21
1.7275919685039369
0
LINE
8
BLACK
6
CONTINUOUS
10
1.0559522440944882
20
1.7275919685039369
11
1.0590944881889763
21
1.7302286614173228
0
LINE
8
BLACK
6
CONTINUOUS
10
1.0590944881889763
20
1.7302286614173228
11
1.0629490551181102
21
1.7316315748031497
0
LINE
8
BLACK
6
CONTINUOUS
10
1.0629490551181102
20
1.7316315748031497
11
1.0670509448818897
21
1.7316315748031497
0
LINE
8
BLACK
6
CONTINUOUS
10
1.0670509448818897
20
1.7316315748031497
11
1.0709055118110236
21
1.7302286614173228
0
LINE
8
BLACK
6
CONTINUOUS
10
1.0459055118110236
20
1.7752286614173227
11
1.0490477559055118
21
1.7725919685039371
0
LINE
8
BLACK
6
CONTINUOUS
10
1.0490477559055118
20
1.7725919685039371
11
1.0510987401574803
21
1.7690396062992126
0
LINE
8
BLACK
6
CONTINUOUS
10
1.0510987401574803
20
1.7690396062992126
11
1.0518110236220473
21
1.7649999999999999
0
LINE
8
BLACK
6
CONTINUOUS
10
1.0518110236220473
20
1.7649999999999999
11
1.0510987401574803
21
1.7609603937007874
0
LINE
8
BLACK
6
CONTINUOUS
10
1.0510987401574803
20
1.7609603937007874
11
1.0490477559055118
21
1.757408031496063
0
LINE
8
BLACK
6
CONTINUOUS
10
1.0490477559055118
20
1.757408031496063
11
1.0459055118110236
21
1.7547713385826771
0
LINE
8
BLACK
6
CONTINUOUS
10
1.0459055118110236
20
1.7547713385826771
11
1.0420509448818898
21
1.7533684251968504
0
LINE
8
BLACK
6
CONTINUOUS
10
1.0420509448818898
20
1.7533684251968504
11
1.0379490551181103
21
1.7533684251968504
0
LINE
8
BLACK
6
CONTINUOUS
10
1.0379490551181103
20
1.7533684251968504
11
1.0340944881889764
21
1.7547713385826771
0
LINE
8
BLACK
6
CONTINUOUS
10
1.0340944881889764
20
1.7547713385826771
11
1.0309522440944883
21
1.757408031496063
0
LINE
8
BLACK
6
CONTINUOUS
10
1.0309522440944883
20
1.757408031496063
11
1.0289012598425196
21
1.7609603937007874
0
LINE
8
BLACK
6
CONTINUOUS
10
1.0289012598425196
20
1.7609603937007874
11
1.0281889763779528
21
1.7649999999999999
0
LINE
8
BLACK
6
CONTINUOUS
10
1.0281889763779528
20
1.7649999999999999
11
1.0289012598425196
21
1.7690396062992126
0
LINE
8
BLACK
6
CONTINUOUS
10
1.0289012598425196
20
1.7690396062992126
11
1.0309522440944883
21
1.7725919685039371
0
LINE
8
BLACK
6
CONTINUOUS
10
1.0309522440944883
20
1.7725919685039371
11
1.0340944881889764
21
1.7752286614173227
0
LINE
8
BLACK
6
CONTINUOUS
10
1.0340944881889764
20
1.7752286614173227
11
1.0379490551181103
21
1.7766315748031496
0
LINE
8
BLACK
6
CONTINUOUS
10
1.0379490551181103
20
1.7766315748031496
11
1.0420509448818898
21
1.7766315748031496
0
LINE
8
BLACK
6
CONTINUOUS
10
1.0420509448818898
20
1.7766315748031496
11
1.0459055118110236
21
1.7752286614173227
0
LINE
8
BLACK
6
CONTINUOUS
10
1.0959055118110237
20
1.7752286614173227
11
1.0990477559055118
21
1.7725919685039371
0
LINE
8
BLACK
6
CONTINUOUS
10
1.0990477559055118
20
1.7725919685039371
11
1.1010987401574803
21
1.7690396062992126
0
LINE
8
BLACK
6
CONTINUOUS
10
1.1010987401574803
20
1.7690396062992126
11
1.1018110236220473
21
1.7649999999999999
0
LINE
8
BLACK
6
CONTINUOUS
10
1.1018110236220473
20
1.7649999999999999
11
1.1010987401574803
21
1.7609603937007874
0
LINE
8
BLACK
6
CONTINUOUS
10
1.1010987401574803
20
1.7609603937007874
11
1.0990477559055118
21
1.757408031496063
0
LINE
8
BLACK
6
CONTINUOUS
10
1.0990477559055118
20
1.757408031496063
11
1.0959055118110237
21
1.7547713385826771
0
LINE
8
BLACK
6
CONTINUOUS
10
1.0959055118110237
20
1.7547713385826771
11
1.0920509448818898
21
1.7533684251968504
0
LINE
8
BLACK
6
CONTINUOUS
10
1.0920509448818898
20
1.7533684251968504
11
1.0879490551181101
21
1.7533684251968504
0
LINE
8
BLACK
6
CONTINUOUS
10
1.0879490551181101
20
1.7533684251968504
11
1.0840944881889762
21
1.7547713385826771
0
LINE
8
BLACK
6
CONTINUOUS
10
1.0840944881889762
20
1.7547713385826771
11
1.0809522440944881
21
1.757408031496063
0
LINE
8
BLACK
6
CONTINUOUS
10
1.0809522440944881
20
1.757408031496063
11
1.0789012598425196
21
1.7609603937007874
0
LINE
8
BLACK
6
CONTINUOUS
10
1.0789012598425196
20
1.7609603937007874
11
1.0781889763779526
21
1.7649999999999999
0
LINE
8
BLACK
6
CONTINUOUS
10
1.0781889763779526
20
1.7649999999999999
11
1.0789012598425196
21
1.7690396062992126
0
LINE
8
BLACK
6
CONTINUOUS
10
1.0789012598425196
20
1.7690396062992126
11
1.0809522440944881
21
1.7725919685039371
0
LINE
8
BLACK
6
CONTINUOUS
10
1.0809522440944881
20
1.7725919685039371
11
1.0840944881889762
21
1.7752286614173227
0
LINE
8
BLACK
6
CONTINUOUS
10
1.0840944881889762
20
1.7752286614173227
11
1.0879490551181101
21
1.7766315748031496
0
LINE
8
BLACK
6
CONTINUOUS
10
1.0879490551181101
20
1.7766315748031496
11
1.0920509448818898
21
1.7766315748031496
0
LINE
8
BLACK
6
CONTINUOUS
10
1.0920509448818898
20
1.7766315748031496
11
1.0959055118110237
21
1.7752286614173227
0
LINE
8
BLACK
6
CONTINUOUS
10
2.5049999999999999
20
2.0350000000000001
11
2.4449999999999998
21
2.0350000000000001
0
LINE
8
BLACK
6
CONTINUOUS
10
2.4449999999999998
20
2.0350000000000001
11
2.4449999999999998
21
2.0949999999999998
0
LINE
8
BLACK
6
CONTINUOUS
10
2.4449999999999998
20
2.0949999999999998
11
2.5049999999999999
21
2.0949999999999998
0
LINE
8
BLACK
6
CONTINUOUS
10
2.5049999999999999
20
2.0949999999999998
11
2.5049999999999999
21
2.0350000000000001
0
LINE
8
BLACK
6
CONTINUOUS
10
2.605
20
2.0350000000000001
11
2.5449999999999999
21
2.0350000000000001
0
LINE
8
BLACK
6
CONTINUOUS
10
2.5449999999999999
20
2.0350000000000001
11
2.5449999999999999
21
2.0949999999999998
0
LINE
8
BLACK
6
CONTINUOUS
10
2.5449999999999999
20
2.0949999999999998
11
2.605
21
2.0949999999999998
0
LINE
8
BLACK
6
CONTINUOUS
10
2.605
20
2.0949999999999998
11
2.605
21
2.0350000000000001
0
LINE
8
BLACK
6
CONTINUOUS
10
2.7050000000000001
20
2.0350000000000001
11
2.645
21
2.0350000000000001
0
LINE
8
BLACK
6
CONTINUOUS
10
2.645
20
2.0350000000000001
11
2.645
21
2.0949999999999998
0
LINE
8
BLACK
6
CONTINUOUS
10
2.645
20
2.0949999999999998
11
2.7050000000000001
21
2.0949999999999998
0
LINE
8
BLACK
6
CONTINUOUS
10
2.7050000000000001
20
2.0949999999999998
11
2.7050000000000001
21
2.0350000000000001
0
LINE
8
BLACK
6
CONTINUOUS
10
2.8049999999999997
20
2.0350000000000001
11
2.7450000000000001
21
2.0350000000000001
0
LINE
8
BLACK
6
CONTINUOUS
10
2.7450000000000001
20
2.0350000000000001
11
2.7450000000000001
21
2.0949999999999998
0
LINE
8
BLACK
6
CONTINUOUS
10
2.7450000000000001
20
2.0949999999999998
11
2.8049999999999997
21
2.0949999999999998
0
LINE
8
BLACK
6
CONTINUOUS
10
2.8049999999999997
20
2.0949999999999998
11
2.8049999999999997
21
2.0350000000000001
0
LINE
8
BLACK
6
CONTINUOUS
10
0.2205096456692913
20
2.316315866141732
11
0.2338744094488189
21
2.3131483858267714
0
LINE
8
BLACK
6
CONTINUOUS
10
0.2338744094488189
20
2.3131483858267714
11
0.246781062992126
21
2.3084507086614172
0
LINE
8
BLACK
6
CONTINUOUS
10
0.246781062992126
20
2.3084507086614172
11
0.2590551181102362
21
2.3022864566929133
0
LINE
8
BLACK
6
CONTINUOUS
10
0.2590551181102362
20
2.3022864566929133
11
0.2705305511811024
21
2.2947389763779529
0
LINE
8
BLACK
6
CONTINUOUS
10
0.2705305511811024
20
2.2947389763779529
11
0.2810521653543307
21
2.2859102755905512
0
LINE
8
BLACK
6
CONTINUOUS
10
0.2810521653543307
20
2.2859102755905512
11
0.2904776771653543
21
2.2759198031496064
0
LINE
8
BLACK
6
CONTINUOUS
10
0.2904776771653543
20
2.2759198031496064
11
0.2986796456692913
21
2.2649026377952755
0
LINE
8
BLACK
6
CONTINUOUS
10
0.2986796456692913
20
2.2649026377952755
11
0.3055471653543307
21
2.2530077952755905
0
LINE
8
BLACK
6
CONTINUOUS
10
0.3055471653543307
20
2.2530077952755905
11
0.3109873228346456
21
2.2403960629921258
0
LINE
8
BLACK
6
CONTINUOUS
10
0.3109873228346456
20
2.2403960629921258
11
0.3149265748031496
21
2.2272381102362204
0
LINE
8
BLACK
6
CONTINUOUS
10
0.3149265748031496
20
2.2272381102362204
11
0.3173116141732283
21
2.2137117716535433
0
LINE
8
BLACK
6
CONTINUOUS
10
0.3173116141732283
20
2.2137117716535433
11
0.3181102362204724
21
2.1999999999999997
0
LINE
8
BLACK
6
CONTINUOUS
10
0.3181102362204724
20
2.1999999999999997
11
0.3173116141732283
21
2.1862882283464566
0
LINE
8
BLACK
6
CONTINUOUS
10
0.3173116141732283
20
2.1862882283464566
11
0.3149265748031496
21
2.1727618897637795
0
LINE
8
BLACK
6
CONTINUOUS
10
0.3149265748031496
20
2.1727618897637795
11
0.3109873228346456
21
2.1596039370078741
0
LINE
8
BLACK
6
CONTINUOUS
10
0.3109873228346456
20
2.1596039370078741
11
0.3055471653543307
21
2.1469922047244094
0
LINE
8
BLACK
6
CONTINUOUS
10
0.3055471653543307
20
2.1469922047244094
11
0.2986796456692913
21
2.1350973622047245
0
LINE
8
BLACK
6
CONTINUOUS
10
0.2986796456692913
20
2.1350973622047245
11
0.2904776771653543
21
2.1240801968503935
0
LINE
8
BLACK
6
CONTINUOUS
10
0.2904776771653543
20
2.1240801968503935
11
0.2810521653543307
21
2.1140897244094488
0
LINE
8
BLACK
6
CONTINUOUS
10
0.2810521653543307
20
2.1140897244094488
11
0.2705305511811024
21
2.105261023622047
0
LINE
8
BLACK
6
CONTINUOUS
10
0.2705305511811024
20
2.105261023622047
11
0.2590551181102362
21
2.0977135433070866
0
LINE
8
BLACK
6
CONTINUOUS
10
0.2590551181102362
20
2.0977135433070866
11
0.246781062992126
21
2.0915492913385827
0
LINE
8
BLACK
6
CONTINUOUS
10
0.246781062992126
20
2.0915492913385827
11
0.2338744094488189
21
2.0868516141732285
0
LINE
8
BLACK
6
CONTINUOUS
10
0.2338744094488189
20
2.0868516141732285
11
0.2205096456692913
21
2.0836841338582675
0
LINE
8
BLACK
6
CONTINUOUS
10
0.2205096456692913
20
2.0836841338582675
11
0.2068674803149606
21
2.0820896062992125
0
LINE
8
BLACK
6
CONTINUOUS
10
0.2068674803149606
20
2.0820896062992125
11
0.1931325196850394
21
2.0820896062992125
0
LINE
8
BLACK
6
CONTINUOUS
10
0.1931325196850394
20
2.0820896062992125
11
0.1794903543307086
21
2.0836841338582675
0
LINE
8
BLACK
6
CONTINUOUS
10
0.1794903543307086
20
2.0836841338582675
11
0.1661255905511811
21
2.0868516141732285
0
LINE
8
BLACK
6
CONTINUOUS
10
0.1661255905511811
20
2.0868516141732285
11
0.153218937007874
21
2.0915492913385827
0
LINE
8
BLACK
6
CONTINUOUS
10
0.153218937007874
20
2.0915492913385827
11
0.1409448818897638
21
2.0977135433070866
0
LINE
8
BLACK
6
CONTINUOUS
10
0.1409448818897638
20
2.0977135433070866
11
0.1294694488188976
21
2.105261023622047
0
LINE
8
BLACK
6
CONTINUOUS
10
0.1294694488188976
20
2.105261023622047
11
0.1189478346456693
21
2.1140897244094488
0
LINE
8
BLACK
6
CONTINUOUS
10
0.1189478346456693
20
2.1140897244094488
11
0.1095223228346457
21
2.1240801968503935
0
LINE
8
BLACK
6
CONTINUOUS
10
0.1095223228346457
20
2.1240801968503935
11
0.1013203543307087
21
2.1350973622047245
0
LINE
8
BLACK
6
CONTINUOUS
10
0.1013203543307087
20
2.1350973622047245
11
0.0944528346456693
21
2.1469922047244094
0
LINE
8
BLACK
6
CONTINUOUS
10
0.0944528346456693
20
2.1469922047244094
11
0.0890126771653543
21
2.1596039370078741
0
LINE
8
BLACK
6
CONTINUOUS
10
0.0890126771653543
20
2.1596039370078741
11
0.0850734251968504
21
2.1727618897637795
0
LINE
8
BLACK
6
CONTINUOUS
10
0.0850734251968504
20
2.1727618897637795
11
0.0826883858267717
21
2.1862882283464566
0
LINE
8
BLACK
6
CONTINUOUS
10
0.0826883858267717
20
2.1862882283464566
11
0.0818897637795276
21
2.1999999999999997
0
LINE
8
BLACK
6
CONTINUOUS
10
0.0818897637795276
20
2.1999999999999997
11
0.0826883858267717
21
2.2137117716535433
0
LINE
8
BLACK
6
CONTINUOUS
10
0.0826883858267717
20
2.2137117716535433
11
0.0850734251968504
21
2.2272381102362204
0
LINE
8
BLACK
6
CONTINUOUS
10
0.0850734251968504
20
2.2272381102362204
11
0.0890126771653543
21
2.2403960629921258
0
LINE
8
BLACK
6
CONTINUOUS
10
0.0890126771653543
20
2.2403960629921258
11
0.0944528346456693
21
2.2530077952755905
0
LINE
8
BLACK
6
CONTINUOUS
10
0.0944528346456693
20
2.2530077952755905
11
0.1013203543307087
21
2.2649026377952755
0
LINE
8
BLACK
6
CONTINUOUS
10
0.1013203543307087
20
2.2649026377952755
11
0.1095223228346457
21
2.2759198031496064
0
LINE
8
BLACK
6
CONTINUOUS
10
0.1095223228346457
20
2.2759198031496064
11
0.1189478346456693
21
2.2859102755905512
0
LINE
8
BLACK
6
CONTINUOUS
10
0.1189478346456693
20
2.2859102755905512
11
0.1294694488188976
21
2.2947389763779529
0
LINE
8
BLACK
6
CONTINUOUS
10
0.1294694488188976
20
2.2947389763779529
11
0.1409448818897638
21
2.3022864566929133
0
LINE
8
BLACK
6
CONTINUOUS
10
0.1409448818897638
20
2.3022864566929133
11
0.153218937007874
21
2.3084507086614172
0
LINE
8
BLACK
6
CONTINUOUS
10
0.153218937007874
20
2.3084507086614172
11
0.1661255905511811
21
2.3131483858267714
0
LINE
8
BLACK
6
CONTINUOUS
10
0.1661255905511811
20
2.3131483858267714
11
0.1794903543307086
21
2.316315866141732
0
LINE
8
BLACK
6
CONTINUOUS
10
0.1794903543307086
20
2.316315866141732
11
0.1931325196850394
21
2.3179103937007874
0
LINE
8
BLACK
6
CONTINUOUS
10
0.1931325196850394
20
2.3179103937007874
11
0.2068674803149606
21
2.3179103937007874
0
LINE
8
BLACK
6
CONTINUOUS
10
0.2068674803149606
20
2.3179103937007874
11
0.2205096456692913
21
2.316315866141732
0
LINE
8
BLACK
6
CONTINUOUS
10
3.0205096456692915
20
2.316315866141732
11
3.0338744094488188
21
2.3131483858267714
0
LINE
8
BLACK
6
CONTINUOUS
10
3.0338744094488188
20
2.3131483858267714
11
3.0467810629921259
21
2.3084507086614172
0
LINE
8
BLACK
6
CONTINUOUS
10
3.0467810629921259
20
2.3084507086614172
11
3.0590551181102361
21
2.3022864566929133
0
LINE
8
BLACK
6
CONTINUOUS
10
3.0590551181102361
20
2.3022864566929133
11
3.0705305511811023
21
2.2947389763779529
0
LINE
8
BLACK
6
CONTINUOUS
10
3.0705305511811023
20
2.2947389763779529
11
3.0810521653543308
21
2.2859102755905512
0
LINE
8
BLACK
6
CONTINUOUS
10
3.0810521653543308
20
2.2859102755905512
11
3.0904776771653544
21
2.2759198031496064
0
LINE
8
BLACK
6
CONTINUOUS
10
3.0904776771653544
20
2.2759198031496064
11
3.0986796456692911
21
2.2649026377952755
0
LINE
8
BLACK
6
CONTINUOUS
10
3.0986796456692911
20
2.2649026377952755
11
3.1055471653543307
21
2.2530077952755905
0
LINE
8
BLACK
6
CONTINUOUS
10
3.1055471653543307
20
2.2530077952755905
11
3.1109873228346454
21
2.2403960629921258
0
LINE
8
BLACK
6
CONTINUOUS
10
3.1109873228346454
20
2.2403960629921258
11
3.1149265748031496
21
2.2272381102362204
0
LINE
8
BLACK
6
CONTINUOUS
10
3.1149265748031496
20
2.2272381102362204
11
3.1173116141732282
21
2.2137117716535433
0
LINE
8
BLACK
6
CONTINUOUS
10
3.1173116141732282
20
2.2137117716535433
11
3.1181102362204722
21
2.1999999999999997
0
LINE
8
BLACK
6
CONTINUOUS
10
3.1181102362204722
20
2.1999999999999997
11
3.1173116141732282
21
2.1862882283464566
0
LINE
8
BLACK
6
CONTINUOUS
10
3.1173116141732282
20
2.1862882283464566
11
3.1149265748031496
21
2.1727618897637795
0
LINE
8
BLACK
6
CONTINUOUS
10
3.1149265748031496
20
2.1727618897637795
11
3.1109873228346454
21
2.1596039370078741
0
LINE
8
BLACK
6
CONTINUOUS
10
3.1109873228346454
20
2.1596039370078741
11
3.1055471653543307
21
2.1469922047244094
0
LINE
8
BLACK
6
CONTINUOUS
10
3.1055471653543307
20
2.1469922047244094
11
3.0986796456692911
21
2.1350973622047245
0
LINE
8
BLACK
6
CONTINUOUS
10
3.0986796456692911
20
2.1350973622047245
11
3.0904776771653544
21
2.1240801968503935
0
LINE
8
BLACK
6
CONTINUOUS
10
3.0904776771653544
20
2.1240801968503935
11
3.0810521653543308
21
2.1140897244094488
0
LINE
8
BLACK
6
CONTINUOUS
10
3.0810521653543308
20
2.1140897244094488
11
3.0705305511811023
21
2.105261023622047
0
LINE
8
BLACK
6
CONTINUOUS
10
3.0705305511811023
20
2.105261023622047
11
3.0590551181102361
21
2.0977135433070866
0
LINE
8
BLACK
6
CONTINUOUS
10
3.0590551181102361
20
2.0977135433070866
11
3.0467810629921259
21
2.0915492913385827
0
LINE
8
BLACK
6
CONTINUOUS
10
3.0467810629921259
20
2.0915492913385827
11
3.0338744094488188
21
2.0868516141732285
0
LINE
8
BLACK
6
CONTINUOUS
10
3.0338744094488188
20
2.0868516141732285
11
3.0205096456692915
21
2.0836841338582675
0
LINE
8
BLACK
6
CONTINUOUS
10
3.0205096456692915
20
2.0836841338582675
11
3.0068674803149604
21
2.0820896062992125
0
LINE
8
BLACK
6
CONTINUOUS
10
3.0068674803149604
20
2.0820896062992125
11
2.9931325196850391
21
2.0820896062992125
0
LINE
8
BLACK
6
CONTINUOUS
10
2.9931325196850391
20
2.0820896062992125
11
2.9794903543307085
21
2.0836841338582675
0
LINE
8
BLACK
6
CONTINUOUS
10
2.9794903543307085
20
2.0836841338582675
11
2.9661255905511812
21
2.0868516141732285
0
LINE
8
BLACK
6
CONTINUOUS
10
2.9661255905511812
20
2.0868516141732285
11
2.9532189370078741
21
2.0915492913385827
0
LINE
8
BLACK
6
CONTINUOUS
10
2.9532189370078741
20
2.0915492913385827
11
2.9409448818897639
21
2.0977135433070866
0
LINE
8
BLACK
6
CONTINUOUS
10
2.9409448818897639
20
2.0977135433070866
11
2.9294694488188977
21
2.105261023622047
0
LINE
8
BLACK
6
CONTINUOUS
10
2.9294694488188977
20
2.105261023622047
11
2.9189478346456692
21
2.1140897244094488
0
LINE
8
BLACK
6
CONTINUOUS
10
2.9189478346456692
20
2.1140897244094488
11
2.9095223228346456
21
2.1240801968503935
0
LINE
8
BLACK
6
CONTINUOUS
10
2.9095223228346456
20
2.1240801968503935
11
2.9013203543307085
21
2.1350973622047245
0
LINE
8
BLACK
6
CONTINUOUS
10
2.9013203543307085
20
2.1350973622047245
11
2.8944528346456693
21
2.1469922047244094
0
LINE
8
BLACK
6
CONTINUOUS
10
2.8944528346456693
20
2.1469922047244094
11
2.8890126771653541
21
2.1596039370078741
0
LINE
8
BLACK
6
CONTINUOUS
10
2.8890126771653541
20
2.1596039370078741
11
2.8850734251968504
21
2.1727618897637795
0
LINE
8
BLACK
6
CONTINUOUS
10
2.8850734251968504
20
2.1727618897637795
11
2.8826883858267718
21
2.1862882283464566
0
LINE
8
BLACK
6
CONTINUOUS
10
2.8826883858267718
20
2.1862882283464566
11
2.8818897637795273
21
2.1999999999999997
0
LINE
8
BLACK
6
CONTINUOUS
10
2.8818897637795273
20
2.1999999999999997
11
2.8826883858267718
21
2.2137117716535433
0
LINE
8
BLACK
6
CONTINUOUS
10
2.8826883858267718
20
2.2137117716535433
11
2.8850734251968504
21
2.2272381102362204
0
LINE
8
BLACK
6
CONTINUOUS
10
2.8850734251968504
20
2.2272381102362204
11
2.8890126771653541
21
2.2403960629921258
0
LINE
8
BLACK
6
CONTINUOUS
10
2.8890126771653541
20
2.2403960629921258
11
2.8944528346456693
21
2.2530077952755905
0
LINE
8
BLACK
6
CONTINUOUS
10
2.8944528346456693
20
2.2530077952755905
11
2.9013203543307085
21
2.2649026377952755
0
LINE
8
BLACK
6
CONTINUOUS
10
2.9013203543307085
20
2.2649026377952755
11
2.9095223228346456
21
2.2759198031496064
0
LINE
8
BLACK
6
CONTINUOUS
10
2.9095223228346456
20
2.2759198031496064
11
2.9189478346456692
21
2.2859102755905512
0
LINE
8
BLACK
6
CONTINUOUS
10
2.9189478346456692
20
2.2859102755905512
11
2.9294694488188977
21
2.2947389763779529
0
LINE
8
BLACK
6
CONTINUOUS
10
2.9294694488188977
20
2.2947389763779529
11
2.9409448818897639
21
2.3022864566929133
0
LINE
8
BLACK
6
CONTINUOUS
10
2.9409448818897639
20
2.3022864566929133
11
2.9532189370078741
21
2.3084507086614172
0
LINE
8
BLACK
6
CONTINUOUS
10
2.9532189370078741
20
2.3084507086614172
11
2.9661255905511812
21
2.3131483858267714
0
LINE
8
BLACK
6
CONTINUOUS
10
2.9661255905511812
20
2.3131483858267714
11
2.9794903543307085
21
2.316315866141732
0
LINE
8
BLACK
6
CONTINUOUS
10
2.9794903543307085
20
2.316315866141732
11
2.9931325196850391
21
2.3179103937007874
0
LINE
8
BLACK
6
CONTINUOUS
10
2.9931325196850391
20
2.3179103937007874
11
3.0068674803149604
21
2.3179103937007874
0
LINE
8
BLACK
6
CONTINUOUS
10
3.0068674803149604
20
2.3179103937007874
11
3.0205096456692915
21
2.316315866141732
0
LINE
8
BLACK
6
CONTINUOUS
10
1.5600000000000001
20
2.1099999999999999
11
1.5
21
2.1099999999999999
0
LINE
8
BLACK
6
CONTINUOUS
10
1.5
20
2.1099999999999999
11
1.5
21
2.1699999999999999
0
LINE
8
BLACK
6
CONTINUOUS
10
1.5
20
2.1699999999999999
11
1.5600000000000001
21
2.1699999999999999
0
LINE
8
BLACK
6
CONTINUOUS
10
1.5600000000000001
20
2.1699999999999999
11
1.5600000000000001
21
2.1099999999999999
0
LINE
8
BLACK
6
CONTINUOUS
10
1.6599999999999999
20
2.1099999999999999
11
1.5999999999999999
21
2.1099999999999999
0
LINE
8
BLACK
6
CONTINUOUS
10
1.5999999999999999
20
2.1099999999999999
11
1.5999999999999999
21
2.1699999999999999
0
LINE
8
BLACK
6
CONTINUOUS
10
1.5999999999999999
20
2.1699999999999999
11
1.6599999999999999
21
2.1699999999999999
0
LINE
8
BLACK
6
CONTINUOUS
10
1.6599999999999999
20
2.1699999999999999
11
1.6599999999999999
21
2.1099999999999999
0
LINE
8
BLACK
6
CONTINUOUS
10
1.76
20
2.1099999999999999
11
1.7
21
2.1099999999999999
0
LINE
8
BLACK
6
CONTINUOUS
10
1.7
20
2.1099999999999999
11
1.7
21
2.1699999999999999
0
LINE
8
BLACK
6
CONTINUOUS
10
1.7
20
2.1699999999999999
11
1.76
21
2.1699999999999999
0
LINE
8
BLACK
6
CONTINUOUS
10
1.76
20
2.1699999999999999
11
1.76
21
2.1099999999999999
0
LINE
8
BLACK
6
CONTINUOUS
10
1.8599999999999999
20
2.1099999999999999
11
1.8
21
2.1099999999999999
0
LINE
8
BLACK
6
CONTINUOUS
10
1.8
20
2.1099999999999999
11
1.8
21
2.1699999999999999
0
LINE
8
BLACK
6
CONTINUOUS
10
1.8
20
2.1699999999999999
11
1.8599999999999999
21
2.1699999999999999
0
LINE
8
BLACK
6
CONTINUOUS
10
1.8599999999999999
20
2.1699999999999999
11
1.8599999999999999
21
2.1099999999999999
0
LINE
8
BLACK
6
CONTINUOUS
10
1.96
20
2.1099999999999999
11
1.8999999999999999
21
2.1099999999999999
0
LINE
8
BLACK
6
CONTINUOUS
10
1.8999999999999999
20
2.1099999999999999
11
1.8999999999999999
21
2.1699999999999999
0
LINE
8
BLACK
6
CONTINUOUS
10
1.8999999999999999
20
2.1699999999999999
11
1.96
21
2.1699999999999999
0
LINE
8
BLACK
6
CONTINUOUS
10
1.96
20
2.1699999999999999
11
1.96
21
2.1099999999999999
0
LINE
8
BLACK
6
CONTINUOUS
10
2.0800000000000001
20
2.1099999999999999
11
2.02
21
2.1099999999999999
0
LINE
8
BLACK
6
CONTINUOUS
10
2.02
20
2.1099999999999999
11
2.02
21
2.1699999999999999
0
LINE
8
BLACK
6
CONTINUOUS
10
2.02
20
2.1699999999999999
11
2.0800000000000001
21
2.1699999999999999
0
LINE
8
BLACK
6
CONTINUOUS
10
2.0800000000000001
20
2.1699999999999999
11
2.0800000000000001
21
2.1099999999999999
0
LINE
8
BLACK
6
CONTINUOUS
10
2.1800000000000002
20
2.1099999999999999
11
2.1200000000000001
21
2.1099999999999999
0
LINE
8
BLACK
6
CONTINUOUS
10
2.1200000000000001
20
2.1099999999999999
11
2.1200000000000001
21
2.1699999999999999
0
LINE
8
BLACK
6
CONTINUOUS
10
2.1200000000000001
20
2.1699999999999999
11
2.1800000000000002
21
2.1699999999999999
0
LINE
8
BLACK
6
CONTINUOUS
10
2.1800000000000002
20
2.1699999999999999
11
2.1800000000000002
21
2.1099999999999999
0
LINE
8
BLACK
6
CONTINUOUS
10
2.2799999999999998
20
2.1099999999999999
11
2.2199999999999998
21
2.1099999999999999
0
LINE
8
BLACK
6
CONTINUOUS
10
2.2199999999999998
20
2.1099999999999999
11
2.2199999999999998
21
2.1699999999999999
0
LINE
8
BLACK
6
CONTINUOUS
10
2.2199999999999998
20
2.1699999999999999
11
2.2799999999999998
21
2.1699999999999999
0
LINE
8
BLACK
6
CONTINUOUS
10
2.2799999999999998
20
2.1699999999999999
11
2.2799999999999998
21
2.1099999999999999
0
LINE
8
BLACK
6
CONTINUOUS
10
2.3799999999999999
20
2.1099999999999999
11
2.3199999999999998
21
2.1099999999999999
0
LINE
8
BLACK
6
CONTINUOUS
10
2.3199999999999998
20
2.1099999999999999
11
2.3199999999999998
21
2.1699999999999999
0
LINE
8
BLACK
6
CONTINUOUS
10
2.3199999999999998
20
2.1699999999999999
11
2.3799999999999999
21
2.1699999999999999
0
LINE
8
BLACK
6
CONTINUOUS
10
2.3799999999999999
20
2.1699999999999999
11
2.3799999999999999
21
2.1099999999999999
0
LINE
8
BLACK
6
CONTINUOUS
10
0.5
20
2.1200000000000001
11
0.44
21
2.1200000000000001
0
LINE
8
BLACK
6
CONTINUOUS
10
0.44
20
2.1200000000000001
11
0.44
21
2.1800000000000002
0
LINE
8
BLACK
6
CONTINUOUS
10
0.44
20
2.1800000000000002
11
0.5
21
2.1800000000000002
0
LINE
8
BLACK
6
CONTINUOUS
10
0.5
20
2.1800000000000002
11
0.5
21
2.1200000000000001
0
LINE
8
BLACK
6
CONTINUOUS
10
0.6
20
2.1200000000000001
11
0.54
21
2.1200000000000001
0
LINE
8
BLACK
6
CONTINUOUS
10
0.54
20
2.1200000000000001
11
0.54
21
2.1800000000000002
0
LINE
8
BLACK
6
CONTINUOUS
10
0.54
20
2.1800000000000002
11
0.6
21
2.1800000000000002
0
LINE
8
BLACK
6
CONTINUOUS
10
0.6
20
2.1800000000000002
11
0.6
21
2.1200000000000001
0
LINE
8
BLACK
6
CONTINUOUS
10
0.7
20
2.1200000000000001
11
0.64
21
2.1200000000000001
0
LINE
8
BLACK
6
CONTINUOUS
10
0.64
20
2.1200000000000001
11
0.64
21
2.1800000000000002
0
LINE
8
BLACK
6
CONTINUOUS
10
0.64
20
2.1800000000000002
11
0.7
21
2.1800000000000002
0
LINE
8
BLACK
6
CONTINUOUS
10
0.7
20
2.1800000000000002
11
0.7
21
2.1200000000000001
0
LINE
8
BLACK
6
CONTINUOUS
10
0.7999999999999999
20
2.1200000000000001
11
0.74
21
2.1200000000000001
0
LINE
8
BLACK
6
CONTINUOUS
10
0.74
20
2.1200000000000001
11
0.74
21
2.1800000000000002
0
LINE
8
BLACK
6
CONTINUOUS
10
0.74
20
2.1800000000000002
11
0.7999999999999999
21
2.1800000000000002
0
LINE
8
BLACK
6
CONTINUOUS
10
0.7999999999999999
20
2.1800000000000002
11
0.7999999999999999
21
2.1200000000000001
0
LINE
8
BLACK
6
CONTINUOUS
10
2.5049999999999999
20
2.1349999999999998
11
2.4449999999999998
21
2.1349999999999998
0
LINE
8
BLACK
6
CONTINUOUS
10
2.4449999999999998
20
2.1349999999999998
11
2.4449999999999998
21
2.1949999999999998
0
LINE
8
BLACK
6
CONTINUOUS
10
2.4449999999999998
20
2.1949999999999998
11
2.5049999999999999
21
2.1949999999999998
0
LINE
8
BLACK
6
CONTINUOUS
10
2.5049999999999999
20
2.1949999999999998
11
2.5049999999999999
21
2.1349999999999998
0
LINE
8
BLACK
6
CONTINUOUS
10
2.605
20
2.1349999999999998
11
2.5449999999999999
21
2.1349999999999998
0
LINE
8
BLACK
6
CONTINUOUS
10
2.5449999999999999
20
2.1349999999999998
11
2.5449999999999999
21
2.1949999999999998
0
LINE
8
BLACK
6
CONTINUOUS
10
2.5449999999999999
20
2.1949999999999998
11
2.605
21
2.1949999999999998
0
LINE
8
BLACK
6
CONTINUOUS
10
2.605
20
2.1949999999999998
11
2.605
21
2.1349999999999998
0
LINE
8
BLACK
6
CONTINUOUS
10
2.7050000000000001
20
2.1349999999999998
11
2.645
21
2.1349999999999998
0
LINE
8
BLACK
6
CONTINUOUS
10
2.645
20
2.1349999999999998
11
2.645
21
2.1949999999999998
0
LINE
8
BLACK
6
CONTINUOUS
10
2.645
20
2.1949999999999998
11
2.7050000000000001
21
2.1949999999999998
0
LINE
8
BLACK
6
CONTINUOUS
10
2.7050000000000001
20
2.1949999999999998
11
2.7050000000000001
21
2.1349999999999998
0
LINE
8
BLACK
6
CONTINUOUS
10
2.8049999999999997
20
2.1349999999999998
11
2.7450000000000001
21
2.1349999999999998
0
LINE
8
BLACK
6
CONTINUOUS
10
2.7450000000000001
20
2.1349999999999998
11
2.7450000000000001
21
2.1949999999999998
0
LINE
8
BLACK
6
CONTINUOUS
10
2.7450000000000001
20
2.1949999999999998
11
2.8049999999999997
21
2.1949999999999998
0
LINE
8
BLACK
6
CONTINUOUS
10
2.8049999999999997
20
2.1949999999999998
11
2.8049999999999997
21
2.1349999999999998
0
LINE
8
BLACK
6
CONTINUOUS
10
0.9842293307086614
20
2.252342125984252
11
0.9931782283464566
21
2.2499442913385828
0
LINE
8
BLACK
6
CONTINUOUS
10
0.9931782283464566
20
2.2499442913385828
11
1.0015748031496063
21
2.2460288976377951
0
LINE
8
BLACK
6
CONTINUOUS
10
1.0015748031496063
20
2.2460288976377951
11
1.0091638976377952
21
2.240714960629921
0
LINE
8
BLACK
6
CONTINUOUS
10
1.0091638976377952
20
2.240714960629921
11
1.0157149606299212
21
2.2341638976377953
0
LINE
8
BLACK
6
CONTINUOUS
10
1.0157149606299212
20
2.2341638976377953
11
1.0210288976377953
21
2.2265748031496062
0
LINE
8
BLACK
6
CONTINUOUS
10
1.0210288976377953
20
2.2265748031496062
11
1.0249442913385827
21
2.2181782283464568
0
LINE
8
BLACK
6
CONTINUOUS
10
1.0249442913385827
20
2.2181782283464568
11
1.0273421259842519
21
2.2092293307086615
0
LINE
8
BLACK
6
CONTINUOUS
10
1.0273421259842519
20
2.2092293307086615
11
1.0281496062992126
21
2.1999999999999997
0
LINE
8
BLACK
6
CONTINUOUS
10
1.0281496062992126
20
2.1999999999999997
11
1.0273421259842519
21
2.1907706692913385
0
LINE
8
BLACK
6
CONTINUOUS
10
1.0273421259842519
20
2.1907706692913385
11
1.0249442913385827
21
2.1818217716535431
0
LINE
8
BLACK
6
CONTINUOUS
10
1.0249442913385827
20
2.1818217716535431
11
1.0210288976377953
21
2.1734251968503937
0
LINE
8
BLACK
6
CONTINUOUS
10
1.0210288976377953
20
2.1734251968503937
11
1.0157149606299212
21
2.1658361023622046
0
LINE
8
BLACK
6
CONTINUOUS
10
1.0157149606299212
20
2.1658361023622046
11
1.0091638976377952
21
2.1592850393700789
0
LINE
8
BLACK
6
CONTINUOUS
10
1.0091638976377952
20
2.1592850393700789
11
1.0015748031496063
21
2.1539711023622048
0
LINE
8
BLACK
6
CONTINUOUS
10
1.0015748031496063
20
2.1539711023622048
11
0.9931782283464566
21
2.1500557086614172
0
LINE
8
BLACK
6
CONTINUOUS
10
0.9931782283464566
20
2.1500557086614172
11
0.9842293307086614
21
2.1476578740157479
0
LINE
8
BLACK
6
CONTINUOUS
10
0.9842293307086614
20
2.1476578740157479
11
0.975
21
2.1468503937007872
0
LINE
8
BLACK
6
CONTINUOUS
10
0.975
20
2.1468503937007872
11
0.9657706692913386
21
2.1476578740157479
0
LINE
8
BLACK
6
CONTINUOUS
10
0.9657706692913386
20
2.1476578740157479
11
0.9568217716535433
21
2.1500557086614172
0
LINE
8
BLACK
6
CONTINUOUS
10
0.9568217716535433
20
2.1500557086614172
11
0.9484251968503937
21
2.1539711023622048
0
LINE
8
BLACK
6
CONTINUOUS
10
0.9484251968503937
20
2.1539711023622048
11
0.9408361023622047
21
2.1592850393700789
0
LINE
8
BLACK
6
CONTINUOUS
10
0.9408361023622047
20
2.1592850393700789
11
0.9342850393700787
21
2.1658361023622046
0
LINE
8
BLACK
6
CONTINUOUS
10
0.9342850393700787
20
2.1658361023622046
11
0.9289711023622047
21
2.1734251968503937
0
LINE
8
BLACK
6
CONTINUOUS
10
0.9289711023622047
20
2.1734251968503937
11
0.9250557086614173
21
2.1818217716535431
0
LINE
8
BLACK
6
CONTINUOUS
10
0.9250557086614173
20
2.1818217716535431
11
0.9226578740157481
21
2.1907706692913385
0
LINE
8
BLACK
6
CONTINUOUS
10
0.9226578740157481
20
2.1907706692913385
11
0.9218503937007874
21
2.1999999999999997
0
LINE
8
BLACK
6
CONTINUOUS
10
0.9218503937007874
20
2.1999999999999997
11
0.9226578740157481
21
2.2092293307086615
0
LINE
8
BLACK
6
CONTINUOUS
10
0.9226578740157481
20
2.2092293307086615
11
0.9250557086614173
21
2.2181782283464568
0
LINE
8
BLACK
6
CONTINUOUS
10
0.9250557086614173
20
2.2181782283464568
11
0.9289711023622047
21
2.2265748031496062
0
LINE
8
BLACK
6
CONTINUOUS
10
0.9289711023622047
20
2.2265748031496062
11
0.9342850393700787
21
2.2341638976377953
0
LINE
8
BLACK
6
CONTINUOUS
10
0.9342850393700787
20
2.2341638976377953
11
0.9408361023622047
21
2.240714960629921
0
LINE
8
BLACK
6
CONTINUOUS
10
0.9408361023622047
20
2.240714960629921
11
0.9484251968503937
21
2.2460288976377951
0
LINE
8
BLACK
6
CONTINUOUS
10
0.9484251968503937
20
2.2460288976377951
11
0.9568217716535433
21
2.2499442913385828
0
LINE
8
BLACK
6
CONTINUOUS
10
0.9568217716535433
20
2.2499442913385828
11
0.9657706692913386
21
2.252342125984252
0
LINE
8
BLACK
6
CONTINUOUS
10
0.9657706692913386
20
2.252342125984252
11
0.975
21
2.2531496062992127
0
LINE
8
BLACK
6
CONTINUOUS
10
0.975
20
2.2531496062992127
11
0.9842293307086614
21
2.252342125984252
0
LINE
8
BLACK
6
CONTINUOUS
10
1.1842293307086613
20
2.252342125984252
11
1.1931782283464567
21
2.2499442913385828
0
LINE
8
BLACK
6
CONTINUOUS
10
1.1931782283464567
20
2.2499442913385828
11
1.2015748031496063
21
2.2460288976377951
0
LINE
8
BLACK
6
CONTINUOUS
10
1.2015748031496063
20
2.2460288976377951
11
1.2091638976377952
21
2.240714960629921
0
LINE
8
BLACK
6
CONTINUOUS
10
1.2091638976377952
20
2.240714960629921
11
1.2157149606299211
21
2.2341638976377953
0
LINE
8
BLACK
6
CONTINUOUS
10
1.2157149606299211
20
2.2341638976377953
11
1.2210288976377952
21
2.2265748031496062
0
LINE
8
BLACK
6
CONTINUOUS
10
1.2210288976377952
20
2.2265748031496062
11
1.2249442913385826
21
2.2181782283464568
0
LINE
8
BLACK
6
CONTINUOUS
10
1.2249442913385826
20
2.2181782283464568
11
1.2273421259842519
21
2.2092293307086615
0
LINE
8
BLACK
6
CONTINUOUS
10
1.2273421259842519
20
2.2092293307086615
11
1.2281496062992125
21
2.1999999999999997
0
LINE
8
BLACK
6
CONTINUOUS
10
1.2281496062992125
20
2.1999999999999997
11
1.2273421259842519
21
2.1907706692913385
0
LINE
8
BLACK
6
CONTINUOUS
10
1.2273421259842519
20
2.1907706692913385
11
1.2249442913385826
21
2.1818217716535431
0
LINE
8
BLACK
6
CONTINUOUS
10
1.2249442913385826
20
2.1818217716535431
11
1.2210288976377952
21
2.1734251968503937
0
LINE
8
BLACK
6
CONTINUOUS
10
1.2210288976377952
20
2.1734251968503937
11
1.2157149606299211
21
2.1658361023622046
0
LINE
8
BLACK
6
CONTINUOUS
10
1.2157149606299211
20
2.1658361023622046
11
1.2091638976377952
21
2.1592850393700789
0
LINE
8
BLACK
6
CONTINUOUS
10
1.2091638976377952
20
2.1592850393700789
11
1.2015748031496063
21
2.1539711023622048
0
LINE
8
BLACK
6
CONTINUOUS
10
1.2015748031496063
20
2.1539711023622048
11
1.1931782283464567
21
2.1500557086614172
0
LINE
8
BLACK
6
CONTINUOUS
10
1.1931782283464567
20
2.1500557086614172
11
1.1842293307086613
21
2.1476578740157479
0
LINE
8
BLACK
6
CONTINUOUS
10
1.1842293307086613
20
2.1476578740157479
11
1.175
21
2.1468503937007872
0
LINE
8
BLACK
6
CONTINUOUS
10
1.175
20
2.1468503937007872
11
1.1657706692913385
21
2.1476578740157479
0
LINE
8
BLACK
6
CONTINUOUS
10
1.1657706692913385
20
2.1476578740157479
11
1.1568217716535434
21
2.1500557086614172
0
LINE
8
BLACK
6
CONTINUOUS
10
1.1568217716535434
20
2.1500557086614172
11
1.1484251968503936
21
2.1539711023622048
0
LINE
8
BLACK
6
CONTINUOUS
10
1.1484251968503936
20
2.1539711023622048
11
1.1408361023622047
21
2.1592850393700789
0
LINE
8
BLACK
6
CONTINUOUS
10
1.1408361023622047
20
2.1592850393700789
11
1.1342850393700787
21
2.1658361023622046
0
LINE
8
BLACK
6
CONTINUOUS
10
1.1342850393700787
20
2.1658361023622046
11
1.1289711023622047
21
2.1734251968503937
0
LINE
8
BLACK
6
CONTINUOUS
10
1.1289711023622047
20
2.1734251968503937
11
1.1250557086614172
21
2.1818217716535431
0
LINE
8
BLACK
6
CONTINUOUS
10
1.1250557086614172
20
2.1818217716535431
11
1.122657874015748
21
2.1907706692913385
0
LINE
8
BLACK
6
CONTINUOUS
10
1.122657874015748
20
2.1907706692913385
11
1.1218503937007873
21
2.1999999999999997
0
LINE
8
BLACK
6
CONTINUOUS
10
1.1218503937007873
20
2.1999999999999997
11
1.122657874015748
21
2.2092293307086615
0
LINE
8
BLACK
6
CONTINUOUS
10
1.122657874015748
20
2.2092293307086615
11
1.1250557086614172
21
2.2181782283464568
0
LINE
8
BLACK
6
CONTINUOUS
10
1.1250557086614172
20
2.2181782283464568
11
1.1289711023622047
21
2.2265748031496062
0
LINE
8
BLACK
6
CONTINUOUS
10
1.1289711023622047
20
2.2265748031496062
11
1.1342850393700787
21
2.2341638976377953
0
LINE
8
BLACK
6
CONTINUOUS
10
1.1342850393700787
20
2.2341638976377953
11
1.1408361023622047
21
2.240714960629921
0
LINE
8
BLACK
6
CONTINUOUS
10
1.1408361023622047
20
2.240714960629921
11
1.1484251968503936
21
2.2460288976377951
0
LINE
8
BLACK
6
CONTINUOUS
10
1.1484251968503936
20
2.2460288976377951
11
1.1568217716535434
21
2.2499442913385828
0
LINE
8
BLACK
6
CONTINUOUS
10
1.1568217716535434
20
2.2499442913385828
11
1.1657706692913385
21
2.252342125984252
0
LINE
8
BLACK
6
CONTINUOUS
10
1.1657706692913385
20
2.252342125984252
11
1.175
21
2.2531496062992127
0
LINE
8
BLACK
6
CONTINUOUS
10
1.175
20
2.2531496062992127
11
1.1842293307086613
21
2.252342125984252
0
LINE
8
BLACK
6
CONTINUOUS
10
1.3842293307086613
20
2.252342125984252
11
1.3931782283464567
21
2.2499442913385828
0
LINE
8
BLACK
6
CONTINUOUS
10
1.3931782283464567
20
2.2499442913385828
11
1.4015748031496063
21
2.2460288976377951
0
LINE
8
BLACK
6
CONTINUOUS
10
1.4015748031496063
20
2.2460288976377951
11
1.4091638976377951
21
2.240714960629921
0
LINE
8
BLACK
6
CONTINUOUS
10
1.4091638976377951
20
2.240714960629921
11
1.4157149606299213
21
2.2341638976377953
0
LINE
8
BLACK
6
CONTINUOUS
10
1.4157149606299213
20
2.2341638976377953
11
1.4210288976377952
21
2.2265748031496062
0
LINE
8
BLACK
6
CONTINUOUS
10
1.4210288976377952
20
2.2265748031496062
11
1.4249442913385826
21
2.2181782283464568
0
LINE
8
BLACK
6
CONTINUOUS
10
1.4249442913385826
20
2.2181782283464568
11
1.427342125984252
21
2.2092293307086615
0
LINE
8
BLACK
6
CONTINUOUS
10
1.427342125984252
20
2.2092293307086615
11
1.4281496062992125
21
2.1999999999999997
0
LINE
8
BLACK
6
CONTINUOUS
10
1.4281496062992125
20
2.1999999999999997
11
1.427342125984252
21
2.1907706692913385
0
LINE
8
BLACK
6
CONTINUOUS
10
1.427342125984252
20
2.1907706692913385
11
1.4249442913385826
21
2.1818217716535431
0
LINE
8
BLACK
6
CONTINUOUS
10
1.4249442913385826
20
2.1818217716535431
11
1.4210288976377952
21
2.1734251968503937
0
LINE
8
BLACK
6
CONTINUOUS
10
1.4210288976377952
20
2.1734251968503937
11
1.4157149606299213
21
2.1658361023622046
0
LINE
8
BLACK
6
CONTINUOUS
10
1.4157149606299213
20
2.1658361023622046
11
1.4091638976377951
21
2.1592850393700789
0
LINE
8
BLACK
6
CONTINUOUS
10
1.4091638976377951
20
2.1592850393700789
11
1.4015748031496063
21
2.1539711023622048
0
LINE
8
BLACK
6
CONTINUOUS
10
1.4015748031496063
20
2.1539711023622048
11
1.3931782283464567
21
2.1500557086614172
0
LINE
8
BLACK
6
CONTINUOUS
10
1.3931782283464567
20
2.1500557086614172
11
1.3842293307086613
21
2.1476578740157479
0
LINE
8
BLACK
6
CONTINUOUS
10
1.3842293307086613
20
2.1476578740157479
11
1.375
21
2.1468503937007872
0
LINE
8
BLACK
6
CONTINUOUS
10
1.375
20
2.1468503937007872
11
1.3657706692913385
21
2.1476578740157479
0
LINE
8
BLACK
6
CONTINUOUS
10
1.3657706692913385
20
2.1476578740157479
11
1.3568217716535433
21
2.1500557086614172
0
LINE
8
BLACK
6
CONTINUOUS
10
1.3568217716535433
20
2.1500557086614172
11
1.3484251968503937
21
2.1539711023622048
0
LINE
8
BLACK
6
CONTINUOUS
10
1.3484251968503937
20
2.1539711023622048
11
1.3408361023622046
21
2.1592850393700789
0
LINE
8
BLACK
6
CONTINUOUS
10
1.3408361023622046
20
2.1592850393700789
11
1.3342850393700787
21
2.1658361023622046
0
LINE
8
BLACK
6
CONTINUOUS
10
1.3342850393700787
20
2.1658361023622046
11
1.3289711023622046
21
2.1734251968503937
0
LINE
8
BLACK
6
CONTINUOUS
10
1.3289711023622046
20
2.1734251968503937
11
1.3250557086614172
21
2.1818217716535431
0
LINE
8
BLACK
6
CONTINUOUS
10
1.3250557086614172
20
2.1818217716535431
11
1.322657874015748
21
2.1907706692913385
0
LINE
8
BLACK
6
CONTINUOUS
10
1.322657874015748
20
2.1907706692913385
11
1.3218503937007873
21
2.1999999999999997
0
LINE
8
BLACK
6
CONTINUOUS
10
1.3218503937007873
20
2.1999999999999997
11
1.322657874015748
21
2.2092293307086615
0
LINE
8
BLACK
6
CONTINUOUS
10
1.322657874015748
20
2.2092293307086615
11
1.3250557086614172
21
2.2181782283464568
0
LINE
8
BLACK
6
CONTINUOUS
10
1.3250557086614172
20
2.2181782283464568
11
1.3289711023622046
21
2.2265748031496062
0
LINE
8
BLACK
6
CONTINUOUS
10
1.3289711023622046
20
2.2265748031496062
11
1.3342850393700787
21
2.2341638976377953
0
LINE
8
BLACK
6
CONTINUOUS
10
1.3342850393700787
20
2.2341638976377953
11
1.3408361023622046
21
2.240714960629921
0
LINE
8
BLACK
6
CONTINUOUS
10
1.3408361023622046
20
2.240714960629921
11
1.3484251968503937
21
2.2460288976377951
0
LINE
8
BLACK
6
CONTINUOUS
10
1.3484251968503937
20
2.2460288976377951
11
1.3568217716535433
21
2.2499442913385828
0
LINE
8
BLACK
6
CONTINUOUS
10
1.3568217716535433
20
2.2499442913385828
11
1.3657706692913385
21
2.252342125984252
0
LINE
8
BLACK
6
CONTINUOUS
10
1.3657706692913385
20
2.252342125984252
11
1.375
21
2.2531496062992127
0
LINE
8
BLACK
6
CONTINUOUS
10
1.375
20
2.2531496062992127
11
1.3842293307086613
21
2.252342125984252
0
LINE
8
BLACK
6
CONTINUOUS
10
1.5600000000000001
20
2.21
11
1.5
21
2.21
0
LINE
8
BLACK
6
CONTINUOUS
10
1.5
20
2.21
11
1.5
21
2.27
0
LINE
8
BLACK
6
CONTINUOUS
10
1.5
20
2.27
11
1.5600000000000001
21
2.27
0
LINE
8
BLACK
6
CONTINUOUS
10
1.5600000000000001
20
2.27
11
1.5600000000000001
21
2.21
0
LINE
8
BLACK
6
CONTINUOUS
10
1.6599999999999999
20
2.21
11
1.5999999999999999
21
2.21
0
LINE
8
BLACK
6
CONTINUOUS
10
1.5999999999999999
20
2.21
11
1.5999999999999999
21
2.27
0
LINE
8
BLACK
6
CONTINUOUS
10
1.5999999999999999
20
2.27
11
1.6599999999999999
21
2.27
0
LINE
8
BLACK
6
CONTINUOUS
10
1.6599999999999999
20
2.27
11
1.6599999999999999
21
2.21
0
LINE
8
BLACK
6
CONTINUOUS
10
1.76
20
2.21
11
1.7
21
2.21
0
LINE
8
BLACK
6
CONTINUOUS
10
1.7
20
2.21
11
1.7
21
2.27
0
LINE
8
BLACK
6
CONTINUOUS
10
1.7
20
2.27
11
1.76
21
2.27
0
LINE
8
BLACK
6
CONTINUOUS
10
1.76
20
2.27
11
1.76
21
2.21
0
LINE
8
BLACK
6
CONTINUOUS
10
1.8599999999999999
20
2.21
11
1.8
21
2.21
0
LINE
8
BLACK
6
CONTINUOUS
10
1.8
20
2.21
11
1.8
21
2.27
0
LINE
8
BLACK
6
CONTINUOUS
10
1.8
20
2.27
11
1.8599999999999999
21
2.27
0
LINE
8
BLACK
6
CONTINUOUS
10
1.8599999999999999
20
2.27
11
1.8599999999999999
21
2.21
0
LINE
8
BLACK
6
CONTINUOUS
10
1.96
20
2.21
11
1.8999999999999999
21
2.21
0
LINE
8
BLACK
6
CONTINUOUS
10
1.8999999999999999
20
2.21
11
1.8999999999999999
21
2.27
0
LINE
8
BLACK
6
CONTINUOUS
10
1.8999999999999999
20
2.27
11
1.96
21
2.27
0
LINE
8
BLACK
6
CONTINUOUS
10
1.96
20
2.27
11
1.96
21
2.21
0
LINE
8
BLACK
6
CONTINUOUS
10
2.0800000000000001
20
2.21
11
2.02
21
2.21
0
LINE
8
BLACK
6
CONTINUOUS
10
2.02
20
2.21
11
2.02
21
2.27
0
LINE
8
BLACK
6
CONTINUOUS
10
2.02
20
2.27
11
2.0800000000000001
21
2.27
0
LINE
8
BLACK
6
CONTINUOUS
10
2.0800000000000001
20
2.27
11
2.0800000000000001
21
2.21
0
LINE
8
BLACK
6
CONTINUOUS
10
2.1800000000000002
20
2.21
11
2.1200000000000001
21
2.21
0
LINE
8
BLACK
6
CONTINUOUS
10
2.1200000000000001
20
2.21
11
2.1200000000000001
21
2.27
0
LINE
8
BLACK
6
CONTINUOUS
10
2.1200000000000001
20
2.27
11
2.1800000000000002
21
2.27
0
LINE
8
BLACK
6
CONTINUOUS
10
2.1800000000000002
20
2.27
11
2.1800000000000002
21
2.21
0
LINE
8
BLACK
6
CONTINUOUS
10
2.2799999999999998
20
2.21
11
2.2199999999999998
21
2.21
0
LINE
8
BLACK
6
CONTINUOUS
10
2.2199999999999998
20
2.21
11
2.2199999999999998
21
2.27
0
LINE
8
BLACK
6
CONTINUOUS
10
2.2199999999999998
20
2.27
11
2.2799999999999998
21
2.27
0
LINE
8
BLACK
6
CONTINUOUS
10
2.2799999999999998
20
2.27
11
2.2799999999999998
21
2.21
0
LINE
8
BLACK
6
CONTINUOUS
10
2.3799999999999999
20
2.21
11
2.3199999999999998
21
2.21
0
LINE
8
BLACK
6
CONTINUOUS
10
2.3199999999999998
20
2.21
11
2.3199999999999998
21
2.27
0
LINE
8
BLACK
6
CONTINUOUS
10
2.3199999999999998
20
2.27
11
2.3799999999999999
21
2.27
0
LINE
8
BLACK
6
CONTINUOUS
10
2.3799999999999999
20
2.27
11
2.3799999999999999
21
2.21
0
LINE
8
BLACK
6
CONTINUOUS
10
0.5
20
2.2199999999999998
11
0.44
21
2.2199999999999998
0
LINE
8
BLACK
6
CONTINUOUS
10
0.44
20
2.2199999999999998
11
0.44
21
2.2799999999999998
0
LINE
8
BLACK
6
CONTINUOUS
10
0.44
20
2.2799999999999998
11
0.5
21
2.2799999999999998
0
LINE
8
BLACK
6
CONTINUOUS
10
0.5
20
2.2799999999999998
11
0.5
21
2.2199999999999998
0
LINE
8
BLACK
6
CONTINUOUS
10
0.6
20
2.2199999999999998
11
0.54
21
2.2199999999999998
0
LINE
8
BLACK
6
CONTINUOUS
10
0.54
20
2.2199999999999998
11
0.54
21
2.2799999999999998
0
LINE
8
BLACK
6
CONTINUOUS
10
0.54
20
2.2799999999999998
11
0.6
21
2.2799999999999998
0
LINE
8
BLACK
6
CONTINUOUS
10
0.6
20
2.2799999999999998
11
0.6
21
2.2199999999999998
0
LINE
8
BLACK
6
CONTINUOUS
10
0.7
20
2.2199999999999998
11
0.64
21
2.2199999999999998
0
LINE
8
BLACK
6
CONTINUOUS
10
0.64
20
2.2199999999999998
11
0.64
21
2.2799999999999998
0
LINE
8
BLACK
6
CONTINUOUS
10
0.64
20
2.2799999999999998
11
0.7
21
2.2799999999999998
0
LINE
8
BLACK
6
CONTINUOUS
10
0.7
20
2.2799999999999998
11
0.7
21
2.2199999999999998
0
LINE
8
BLACK
6
CONTINUOUS
10
0.7999999999999999
20
2.2199999999999998
11
0.74
21
2.2199999999999998
0
LINE
8
BLACK
6
CONTINUOUS
10
0.74
20
2.2199999999999998
11
0.74
21
2.2799999999999998
0
LINE
8
BLACK
6
CONTINUOUS
10
0.74
20
2.2799999999999998
11
0.7999999999999999
21
2.2799999999999998
0
LINE
8
BLACK
6
CONTINUOUS
10
0.7999999999999999
20
2.2799999999999998
11
0.7999999999999999
21
2.2199999999999998
  0
ENDSEC
  0
EOF
