%TF.GenerationSoftware,KiCad,Pcbnew,8.0.3+1*%
%TF.CreationDate,2024-07-19T15:31:51+00:00*%
%TF.ProjectId,LION2CELL01,4c494f4e-3243-4454-9c4c-30312e6b6963,rev?*%
%TF.SameCoordinates,Original*%
%TF.FileFunction,Legend,Top*%
%TF.FilePolarity,Positive*%
%FSLAX46Y46*%
G04 Gerber Fmt 4.6, Leading zero omitted, Abs format (unit mm)*
G04 Created by KiCad (PCBNEW 8.0.3+1) date 2024-07-19 15:31:51*
%MOMM*%
%LPD*%
G01*
G04 APERTURE LIST*
%ADD10C,0.300000*%
%ADD11C,0.375000*%
%ADD12C,0.050000*%
%ADD13C,0.109220*%
%ADD14C,0.203200*%
%ADD15C,0.150000*%
%ADD16C,0.200000*%
%ADD17C,0.127000*%
%ADD18R,1.524000X1.524000*%
%ADD19R,3.810000X3.810000*%
%ADD20R,1.676400X1.676400*%
%ADD21R,4.000000X4.000000*%
G04 APERTURE END LIST*
D10*
X65970400Y56852034D02*
X66037066Y57052034D01*
X66037066Y57052034D02*
X66037066Y57385368D01*
X66037066Y57385368D02*
X65970400Y57518701D01*
X65970400Y57518701D02*
X65903733Y57585368D01*
X65903733Y57585368D02*
X65770400Y57652034D01*
X65770400Y57652034D02*
X65637066Y57652034D01*
X65637066Y57652034D02*
X65503733Y57585368D01*
X65503733Y57585368D02*
X65437066Y57518701D01*
X65437066Y57518701D02*
X65370400Y57385368D01*
X65370400Y57385368D02*
X65303733Y57118701D01*
X65303733Y57118701D02*
X65237066Y56985368D01*
X65237066Y56985368D02*
X65170400Y56918701D01*
X65170400Y56918701D02*
X65037066Y56852034D01*
X65037066Y56852034D02*
X64903733Y56852034D01*
X64903733Y56852034D02*
X64770400Y56918701D01*
X64770400Y56918701D02*
X64703733Y56985368D01*
X64703733Y56985368D02*
X64637066Y57118701D01*
X64637066Y57118701D02*
X64637066Y57452034D01*
X64637066Y57452034D02*
X64703733Y57652034D01*
X65903733Y59052034D02*
X65970400Y58985367D01*
X65970400Y58985367D02*
X66037066Y58785367D01*
X66037066Y58785367D02*
X66037066Y58652034D01*
X66037066Y58652034D02*
X65970400Y58452034D01*
X65970400Y58452034D02*
X65837066Y58318701D01*
X65837066Y58318701D02*
X65703733Y58252034D01*
X65703733Y58252034D02*
X65437066Y58185367D01*
X65437066Y58185367D02*
X65237066Y58185367D01*
X65237066Y58185367D02*
X64970400Y58252034D01*
X64970400Y58252034D02*
X64837066Y58318701D01*
X64837066Y58318701D02*
X64703733Y58452034D01*
X64703733Y58452034D02*
X64637066Y58652034D01*
X64637066Y58652034D02*
X64637066Y58785367D01*
X64637066Y58785367D02*
X64703733Y58985367D01*
X64703733Y58985367D02*
X64770400Y59052034D01*
X66037066Y60318701D02*
X66037066Y59652034D01*
X66037066Y59652034D02*
X64637066Y59652034D01*
D11*
X67706785Y40147929D02*
X67635357Y40219357D01*
X67635357Y40219357D02*
X67563928Y40362215D01*
X67563928Y40362215D02*
X67563928Y40719357D01*
X67563928Y40719357D02*
X67635357Y40862215D01*
X67635357Y40862215D02*
X67706785Y40933643D01*
X67706785Y40933643D02*
X67849642Y41005072D01*
X67849642Y41005072D02*
X67992500Y41005072D01*
X67992500Y41005072D02*
X68206785Y40933643D01*
X68206785Y40933643D02*
X69063928Y40076500D01*
X69063928Y40076500D02*
X69063928Y41005072D01*
D10*
X44208667Y52837933D02*
X43942000Y52837933D01*
X43942000Y52837933D02*
X43808667Y52771266D01*
X43808667Y52771266D02*
X43742000Y52704600D01*
X43742000Y52704600D02*
X43608667Y52504600D01*
X43608667Y52504600D02*
X43542000Y52237933D01*
X43542000Y52237933D02*
X43542000Y51704600D01*
X43542000Y51704600D02*
X43608667Y51571266D01*
X43608667Y51571266D02*
X43675334Y51504600D01*
X43675334Y51504600D02*
X43808667Y51437933D01*
X43808667Y51437933D02*
X44075334Y51437933D01*
X44075334Y51437933D02*
X44208667Y51504600D01*
X44208667Y51504600D02*
X44275334Y51571266D01*
X44275334Y51571266D02*
X44342000Y51704600D01*
X44342000Y51704600D02*
X44342000Y52037933D01*
X44342000Y52037933D02*
X44275334Y52171266D01*
X44275334Y52171266D02*
X44208667Y52237933D01*
X44208667Y52237933D02*
X44075334Y52304600D01*
X44075334Y52304600D02*
X43808667Y52304600D01*
X43808667Y52304600D02*
X43675334Y52237933D01*
X43675334Y52237933D02*
X43608667Y52171266D01*
X43608667Y52171266D02*
X43542000Y52037933D01*
X63430400Y56852034D02*
X63497066Y57052034D01*
X63497066Y57052034D02*
X63497066Y57385368D01*
X63497066Y57385368D02*
X63430400Y57518701D01*
X63430400Y57518701D02*
X63363733Y57585368D01*
X63363733Y57585368D02*
X63230400Y57652034D01*
X63230400Y57652034D02*
X63097066Y57652034D01*
X63097066Y57652034D02*
X62963733Y57585368D01*
X62963733Y57585368D02*
X62897066Y57518701D01*
X62897066Y57518701D02*
X62830400Y57385368D01*
X62830400Y57385368D02*
X62763733Y57118701D01*
X62763733Y57118701D02*
X62697066Y56985368D01*
X62697066Y56985368D02*
X62630400Y56918701D01*
X62630400Y56918701D02*
X62497066Y56852034D01*
X62497066Y56852034D02*
X62363733Y56852034D01*
X62363733Y56852034D02*
X62230400Y56918701D01*
X62230400Y56918701D02*
X62163733Y56985368D01*
X62163733Y56985368D02*
X62097066Y57118701D01*
X62097066Y57118701D02*
X62097066Y57452034D01*
X62097066Y57452034D02*
X62163733Y57652034D01*
X63497066Y58252034D02*
X62097066Y58252034D01*
X62097066Y58252034D02*
X62097066Y58585367D01*
X62097066Y58585367D02*
X62163733Y58785367D01*
X62163733Y58785367D02*
X62297066Y58918701D01*
X62297066Y58918701D02*
X62430400Y58985367D01*
X62430400Y58985367D02*
X62697066Y59052034D01*
X62697066Y59052034D02*
X62897066Y59052034D01*
X62897066Y59052034D02*
X63163733Y58985367D01*
X63163733Y58985367D02*
X63297066Y58918701D01*
X63297066Y58918701D02*
X63430400Y58785367D01*
X63430400Y58785367D02*
X63497066Y58585367D01*
X63497066Y58585367D02*
X63497066Y58252034D01*
X63097066Y59585367D02*
X63097066Y60252034D01*
X63497066Y59452034D02*
X62097066Y59918701D01*
X62097066Y59918701D02*
X63497066Y60385367D01*
D11*
X13374428Y21637572D02*
X13374428Y20780429D01*
X13374428Y21209000D02*
X11874428Y21209000D01*
X11874428Y21209000D02*
X12088714Y21066143D01*
X12088714Y21066143D02*
X12231571Y20923286D01*
X12231571Y20923286D02*
X12303000Y20780429D01*
D10*
X43475334Y60076933D02*
X44342000Y60076933D01*
X44342000Y60076933D02*
X43875334Y59543600D01*
X43875334Y59543600D02*
X44075334Y59543600D01*
X44075334Y59543600D02*
X44208667Y59476933D01*
X44208667Y59476933D02*
X44275334Y59410266D01*
X44275334Y59410266D02*
X44342000Y59276933D01*
X44342000Y59276933D02*
X44342000Y58943600D01*
X44342000Y58943600D02*
X44275334Y58810266D01*
X44275334Y58810266D02*
X44208667Y58743600D01*
X44208667Y58743600D02*
X44075334Y58676933D01*
X44075334Y58676933D02*
X43675334Y58676933D01*
X43675334Y58676933D02*
X43542000Y58743600D01*
X43542000Y58743600D02*
X43475334Y58810266D01*
X29381427Y8211671D02*
X29381427Y9711671D01*
X29381427Y9711671D02*
X29952856Y9711671D01*
X29952856Y9711671D02*
X30095713Y9640242D01*
X30095713Y9640242D02*
X30167142Y9568814D01*
X30167142Y9568814D02*
X30238570Y9425957D01*
X30238570Y9425957D02*
X30238570Y9211671D01*
X30238570Y9211671D02*
X30167142Y9068814D01*
X30167142Y9068814D02*
X30095713Y8997385D01*
X30095713Y8997385D02*
X29952856Y8925957D01*
X29952856Y8925957D02*
X29381427Y8925957D01*
X31167142Y9711671D02*
X31452856Y9711671D01*
X31452856Y9711671D02*
X31595713Y9640242D01*
X31595713Y9640242D02*
X31738570Y9497385D01*
X31738570Y9497385D02*
X31809999Y9211671D01*
X31809999Y9211671D02*
X31809999Y8711671D01*
X31809999Y8711671D02*
X31738570Y8425957D01*
X31738570Y8425957D02*
X31595713Y8283100D01*
X31595713Y8283100D02*
X31452856Y8211671D01*
X31452856Y8211671D02*
X31167142Y8211671D01*
X31167142Y8211671D02*
X31024285Y8283100D01*
X31024285Y8283100D02*
X30881427Y8425957D01*
X30881427Y8425957D02*
X30809999Y8711671D01*
X30809999Y8711671D02*
X30809999Y9211671D01*
X30809999Y9211671D02*
X30881427Y9497385D01*
X30881427Y9497385D02*
X31024285Y9640242D01*
X31024285Y9640242D02*
X31167142Y9711671D01*
X32309999Y9711671D02*
X32667142Y8211671D01*
X32667142Y8211671D02*
X32952856Y9283100D01*
X32952856Y9283100D02*
X33238571Y8211671D01*
X33238571Y8211671D02*
X33595714Y9711671D01*
X34167142Y8997385D02*
X34667142Y8997385D01*
X34881428Y8211671D02*
X34167142Y8211671D01*
X34167142Y8211671D02*
X34167142Y9711671D01*
X34167142Y9711671D02*
X34881428Y9711671D01*
X36381428Y8211671D02*
X35881428Y8925957D01*
X35524285Y8211671D02*
X35524285Y9711671D01*
X35524285Y9711671D02*
X36095714Y9711671D01*
X36095714Y9711671D02*
X36238571Y9640242D01*
X36238571Y9640242D02*
X36310000Y9568814D01*
X36310000Y9568814D02*
X36381428Y9425957D01*
X36381428Y9425957D02*
X36381428Y9211671D01*
X36381428Y9211671D02*
X36310000Y9068814D01*
X36310000Y9068814D02*
X36238571Y8997385D01*
X36238571Y8997385D02*
X36095714Y8925957D01*
X36095714Y8925957D02*
X35524285Y8925957D01*
X38452857Y9711671D02*
X38738571Y9711671D01*
X38738571Y9711671D02*
X38881428Y9640242D01*
X38881428Y9640242D02*
X39024285Y9497385D01*
X39024285Y9497385D02*
X39095714Y9211671D01*
X39095714Y9211671D02*
X39095714Y8711671D01*
X39095714Y8711671D02*
X39024285Y8425957D01*
X39024285Y8425957D02*
X38881428Y8283100D01*
X38881428Y8283100D02*
X38738571Y8211671D01*
X38738571Y8211671D02*
X38452857Y8211671D01*
X38452857Y8211671D02*
X38310000Y8283100D01*
X38310000Y8283100D02*
X38167142Y8425957D01*
X38167142Y8425957D02*
X38095714Y8711671D01*
X38095714Y8711671D02*
X38095714Y9211671D01*
X38095714Y9211671D02*
X38167142Y9497385D01*
X38167142Y9497385D02*
X38310000Y9640242D01*
X38310000Y9640242D02*
X38452857Y9711671D01*
X39738571Y9711671D02*
X39738571Y8497385D01*
X39738571Y8497385D02*
X39810000Y8354528D01*
X39810000Y8354528D02*
X39881429Y8283100D01*
X39881429Y8283100D02*
X40024286Y8211671D01*
X40024286Y8211671D02*
X40310000Y8211671D01*
X40310000Y8211671D02*
X40452857Y8283100D01*
X40452857Y8283100D02*
X40524286Y8354528D01*
X40524286Y8354528D02*
X40595714Y8497385D01*
X40595714Y8497385D02*
X40595714Y9711671D01*
X41095715Y9711671D02*
X41952858Y9711671D01*
X41524286Y8211671D02*
X41524286Y9711671D01*
X39262000Y58676933D02*
X38462000Y58676933D01*
X38862000Y58676933D02*
X38862000Y60076933D01*
X38862000Y60076933D02*
X38728667Y59876933D01*
X38728667Y59876933D02*
X38595334Y59743600D01*
X38595334Y59743600D02*
X38462000Y59676933D01*
X25082571Y7894100D02*
X26225429Y7894100D01*
X25654000Y7322671D02*
X25654000Y8465528D01*
X49355334Y60076933D02*
X48688667Y60076933D01*
X48688667Y60076933D02*
X48622000Y59410266D01*
X48622000Y59410266D02*
X48688667Y59476933D01*
X48688667Y59476933D02*
X48822000Y59543600D01*
X48822000Y59543600D02*
X49155334Y59543600D01*
X49155334Y59543600D02*
X49288667Y59476933D01*
X49288667Y59476933D02*
X49355334Y59410266D01*
X49355334Y59410266D02*
X49422000Y59276933D01*
X49422000Y59276933D02*
X49422000Y58943600D01*
X49422000Y58943600D02*
X49355334Y58810266D01*
X49355334Y58810266D02*
X49288667Y58743600D01*
X49288667Y58743600D02*
X49155334Y58676933D01*
X49155334Y58676933D02*
X48822000Y58676933D01*
X48822000Y58676933D02*
X48688667Y58743600D01*
X48688667Y58743600D02*
X48622000Y58810266D01*
X3981000Y16188671D02*
X3981000Y15117242D01*
X3981000Y15117242D02*
X3909571Y14902957D01*
X3909571Y14902957D02*
X3766714Y14760100D01*
X3766714Y14760100D02*
X3552428Y14688671D01*
X3552428Y14688671D02*
X3409571Y14688671D01*
X4623857Y15117242D02*
X5338143Y15117242D01*
X4481000Y14688671D02*
X4981000Y16188671D01*
X4981000Y16188671D02*
X5481000Y14688671D01*
X6838142Y14831528D02*
X6766714Y14760100D01*
X6766714Y14760100D02*
X6552428Y14688671D01*
X6552428Y14688671D02*
X6409571Y14688671D01*
X6409571Y14688671D02*
X6195285Y14760100D01*
X6195285Y14760100D02*
X6052428Y14902957D01*
X6052428Y14902957D02*
X5980999Y15045814D01*
X5980999Y15045814D02*
X5909571Y15331528D01*
X5909571Y15331528D02*
X5909571Y15545814D01*
X5909571Y15545814D02*
X5980999Y15831528D01*
X5980999Y15831528D02*
X6052428Y15974385D01*
X6052428Y15974385D02*
X6195285Y16117242D01*
X6195285Y16117242D02*
X6409571Y16188671D01*
X6409571Y16188671D02*
X6552428Y16188671D01*
X6552428Y16188671D02*
X6766714Y16117242D01*
X6766714Y16117242D02*
X6838142Y16045814D01*
X7480999Y14688671D02*
X7480999Y16188671D01*
X7480999Y15474385D02*
X8338142Y15474385D01*
X8338142Y14688671D02*
X8338142Y16188671D01*
X9338143Y16188671D02*
X9623857Y16188671D01*
X9623857Y16188671D02*
X9766714Y16117242D01*
X9766714Y16117242D02*
X9909571Y15974385D01*
X9909571Y15974385D02*
X9981000Y15688671D01*
X9981000Y15688671D02*
X9981000Y15188671D01*
X9981000Y15188671D02*
X9909571Y14902957D01*
X9909571Y14902957D02*
X9766714Y14760100D01*
X9766714Y14760100D02*
X9623857Y14688671D01*
X9623857Y14688671D02*
X9338143Y14688671D01*
X9338143Y14688671D02*
X9195286Y14760100D01*
X9195286Y14760100D02*
X9052428Y14902957D01*
X9052428Y14902957D02*
X8981000Y15188671D01*
X8981000Y15188671D02*
X8981000Y15688671D01*
X8981000Y15688671D02*
X9052428Y15974385D01*
X9052428Y15974385D02*
X9195286Y16117242D01*
X9195286Y16117242D02*
X9338143Y16188671D01*
X28110328Y53364142D02*
X26610328Y53364142D01*
X26610328Y53364142D02*
X26610328Y53721285D01*
X26610328Y53721285D02*
X26681757Y53935571D01*
X26681757Y53935571D02*
X26824614Y54078428D01*
X26824614Y54078428D02*
X26967471Y54149857D01*
X26967471Y54149857D02*
X27253185Y54221285D01*
X27253185Y54221285D02*
X27467471Y54221285D01*
X27467471Y54221285D02*
X27753185Y54149857D01*
X27753185Y54149857D02*
X27896042Y54078428D01*
X27896042Y54078428D02*
X28038900Y53935571D01*
X28038900Y53935571D02*
X28110328Y53721285D01*
X28110328Y53721285D02*
X28110328Y53364142D01*
X26610328Y55149857D02*
X26610328Y55435571D01*
X26610328Y55435571D02*
X26681757Y55578428D01*
X26681757Y55578428D02*
X26824614Y55721285D01*
X26824614Y55721285D02*
X27110328Y55792714D01*
X27110328Y55792714D02*
X27610328Y55792714D01*
X27610328Y55792714D02*
X27896042Y55721285D01*
X27896042Y55721285D02*
X28038900Y55578428D01*
X28038900Y55578428D02*
X28110328Y55435571D01*
X28110328Y55435571D02*
X28110328Y55149857D01*
X28110328Y55149857D02*
X28038900Y55007000D01*
X28038900Y55007000D02*
X27896042Y54864142D01*
X27896042Y54864142D02*
X27610328Y54792714D01*
X27610328Y54792714D02*
X27110328Y54792714D01*
X27110328Y54792714D02*
X26824614Y54864142D01*
X26824614Y54864142D02*
X26681757Y55007000D01*
X26681757Y55007000D02*
X26610328Y55149857D01*
X28110328Y56435571D02*
X26610328Y56435571D01*
X26610328Y56435571D02*
X28110328Y57292714D01*
X28110328Y57292714D02*
X26610328Y57292714D01*
X27324614Y58007000D02*
X27324614Y58507000D01*
X28110328Y58721286D02*
X28110328Y58007000D01*
X28110328Y58007000D02*
X26610328Y58007000D01*
X26610328Y58007000D02*
X26610328Y58721286D01*
X50579999Y51377600D02*
X50779999Y51310933D01*
X50779999Y51310933D02*
X51113333Y51310933D01*
X51113333Y51310933D02*
X51246666Y51377600D01*
X51246666Y51377600D02*
X51313333Y51444266D01*
X51313333Y51444266D02*
X51379999Y51577600D01*
X51379999Y51577600D02*
X51379999Y51710933D01*
X51379999Y51710933D02*
X51313333Y51844266D01*
X51313333Y51844266D02*
X51246666Y51910933D01*
X51246666Y51910933D02*
X51113333Y51977600D01*
X51113333Y51977600D02*
X50846666Y52044266D01*
X50846666Y52044266D02*
X50713333Y52110933D01*
X50713333Y52110933D02*
X50646666Y52177600D01*
X50646666Y52177600D02*
X50579999Y52310933D01*
X50579999Y52310933D02*
X50579999Y52444266D01*
X50579999Y52444266D02*
X50646666Y52577600D01*
X50646666Y52577600D02*
X50713333Y52644266D01*
X50713333Y52644266D02*
X50846666Y52710933D01*
X50846666Y52710933D02*
X51179999Y52710933D01*
X51179999Y52710933D02*
X51379999Y52644266D01*
X51846666Y52710933D02*
X52179999Y51310933D01*
X52179999Y51310933D02*
X52446666Y52310933D01*
X52446666Y52310933D02*
X52713332Y51310933D01*
X52713332Y51310933D02*
X53046666Y52710933D01*
X54646666Y51310933D02*
X54646666Y52710933D01*
X54646666Y52710933D02*
X55179999Y52710933D01*
X55179999Y52710933D02*
X55313333Y52644266D01*
X55313333Y52644266D02*
X55379999Y52577600D01*
X55379999Y52577600D02*
X55446666Y52444266D01*
X55446666Y52444266D02*
X55446666Y52244266D01*
X55446666Y52244266D02*
X55379999Y52110933D01*
X55379999Y52110933D02*
X55313333Y52044266D01*
X55313333Y52044266D02*
X55179999Y51977600D01*
X55179999Y51977600D02*
X54646666Y51977600D01*
X56313333Y52710933D02*
X56579999Y52710933D01*
X56579999Y52710933D02*
X56713333Y52644266D01*
X56713333Y52644266D02*
X56846666Y52510933D01*
X56846666Y52510933D02*
X56913333Y52244266D01*
X56913333Y52244266D02*
X56913333Y51777600D01*
X56913333Y51777600D02*
X56846666Y51510933D01*
X56846666Y51510933D02*
X56713333Y51377600D01*
X56713333Y51377600D02*
X56579999Y51310933D01*
X56579999Y51310933D02*
X56313333Y51310933D01*
X56313333Y51310933D02*
X56179999Y51377600D01*
X56179999Y51377600D02*
X56046666Y51510933D01*
X56046666Y51510933D02*
X55979999Y51777600D01*
X55979999Y51777600D02*
X55979999Y52244266D01*
X55979999Y52244266D02*
X56046666Y52510933D01*
X56046666Y52510933D02*
X56179999Y52644266D01*
X56179999Y52644266D02*
X56313333Y52710933D01*
X57380000Y52710933D02*
X57713333Y51310933D01*
X57713333Y51310933D02*
X57980000Y52310933D01*
X57980000Y52310933D02*
X58246666Y51310933D01*
X58246666Y51310933D02*
X58580000Y52710933D01*
X59113333Y52044266D02*
X59580000Y52044266D01*
X59780000Y51310933D02*
X59113333Y51310933D01*
X59113333Y51310933D02*
X59113333Y52710933D01*
X59113333Y52710933D02*
X59780000Y52710933D01*
X61180000Y51310933D02*
X60713333Y51977600D01*
X60380000Y51310933D02*
X60380000Y52710933D01*
X60380000Y52710933D02*
X60913333Y52710933D01*
X60913333Y52710933D02*
X61046667Y52644266D01*
X61046667Y52644266D02*
X61113333Y52577600D01*
X61113333Y52577600D02*
X61180000Y52444266D01*
X61180000Y52444266D02*
X61180000Y52244266D01*
X61180000Y52244266D02*
X61113333Y52110933D01*
X61113333Y52110933D02*
X61046667Y52044266D01*
X61046667Y52044266D02*
X60913333Y51977600D01*
X60913333Y51977600D02*
X60380000Y51977600D01*
X41002000Y59943600D02*
X41068667Y60010266D01*
X41068667Y60010266D02*
X41202000Y60076933D01*
X41202000Y60076933D02*
X41535334Y60076933D01*
X41535334Y60076933D02*
X41668667Y60010266D01*
X41668667Y60010266D02*
X41735334Y59943600D01*
X41735334Y59943600D02*
X41802000Y59810266D01*
X41802000Y59810266D02*
X41802000Y59676933D01*
X41802000Y59676933D02*
X41735334Y59476933D01*
X41735334Y59476933D02*
X40935334Y58676933D01*
X40935334Y58676933D02*
X41802000Y58676933D01*
X21784328Y54951428D02*
X21784328Y55237142D01*
X21784328Y55237142D02*
X21855757Y55379999D01*
X21855757Y55379999D02*
X21998614Y55522856D01*
X21998614Y55522856D02*
X22284328Y55594285D01*
X22284328Y55594285D02*
X22784328Y55594285D01*
X22784328Y55594285D02*
X23070042Y55522856D01*
X23070042Y55522856D02*
X23212900Y55379999D01*
X23212900Y55379999D02*
X23284328Y55237142D01*
X23284328Y55237142D02*
X23284328Y54951428D01*
X23284328Y54951428D02*
X23212900Y54808571D01*
X23212900Y54808571D02*
X23070042Y54665713D01*
X23070042Y54665713D02*
X22784328Y54594285D01*
X22784328Y54594285D02*
X22284328Y54594285D01*
X22284328Y54594285D02*
X21998614Y54665713D01*
X21998614Y54665713D02*
X21855757Y54808571D01*
X21855757Y54808571D02*
X21784328Y54951428D01*
X23284328Y56237142D02*
X21784328Y56237142D01*
X21784328Y56237142D02*
X23284328Y57094285D01*
X23284328Y57094285D02*
X21784328Y57094285D01*
X69783733Y57525034D02*
X69717066Y57391701D01*
X69717066Y57391701D02*
X69717066Y57191701D01*
X69717066Y57191701D02*
X69783733Y56991701D01*
X69783733Y56991701D02*
X69917066Y56858368D01*
X69917066Y56858368D02*
X70050400Y56791701D01*
X70050400Y56791701D02*
X70317066Y56725034D01*
X70317066Y56725034D02*
X70517066Y56725034D01*
X70517066Y56725034D02*
X70783733Y56791701D01*
X70783733Y56791701D02*
X70917066Y56858368D01*
X70917066Y56858368D02*
X71050400Y56991701D01*
X71050400Y56991701D02*
X71117066Y57191701D01*
X71117066Y57191701D02*
X71117066Y57325034D01*
X71117066Y57325034D02*
X71050400Y57525034D01*
X71050400Y57525034D02*
X70983733Y57591701D01*
X70983733Y57591701D02*
X70517066Y57591701D01*
X70517066Y57591701D02*
X70517066Y57325034D01*
X71117066Y58191701D02*
X69717066Y58191701D01*
X69717066Y58191701D02*
X71117066Y58991701D01*
X71117066Y58991701D02*
X69717066Y58991701D01*
X71117066Y59658368D02*
X69717066Y59658368D01*
X69717066Y59658368D02*
X69717066Y59991701D01*
X69717066Y59991701D02*
X69783733Y60191701D01*
X69783733Y60191701D02*
X69917066Y60325035D01*
X69917066Y60325035D02*
X70050400Y60391701D01*
X70050400Y60391701D02*
X70317066Y60458368D01*
X70317066Y60458368D02*
X70517066Y60458368D01*
X70517066Y60458368D02*
X70783733Y60391701D01*
X70783733Y60391701D02*
X70917066Y60325035D01*
X70917066Y60325035D02*
X71050400Y60191701D01*
X71050400Y60191701D02*
X71117066Y59991701D01*
X71117066Y59991701D02*
X71117066Y59658368D01*
X4159572Y13759814D02*
X4231000Y13831242D01*
X4231000Y13831242D02*
X4373858Y13902671D01*
X4373858Y13902671D02*
X4731000Y13902671D01*
X4731000Y13902671D02*
X4873858Y13831242D01*
X4873858Y13831242D02*
X4945286Y13759814D01*
X4945286Y13759814D02*
X5016715Y13616957D01*
X5016715Y13616957D02*
X5016715Y13474100D01*
X5016715Y13474100D02*
X4945286Y13259814D01*
X4945286Y13259814D02*
X4088143Y12402671D01*
X4088143Y12402671D02*
X5016715Y12402671D01*
X5945286Y13902671D02*
X6088143Y13902671D01*
X6088143Y13902671D02*
X6231000Y13831242D01*
X6231000Y13831242D02*
X6302429Y13759814D01*
X6302429Y13759814D02*
X6373857Y13616957D01*
X6373857Y13616957D02*
X6445286Y13331242D01*
X6445286Y13331242D02*
X6445286Y12974100D01*
X6445286Y12974100D02*
X6373857Y12688385D01*
X6373857Y12688385D02*
X6302429Y12545528D01*
X6302429Y12545528D02*
X6231000Y12474100D01*
X6231000Y12474100D02*
X6088143Y12402671D01*
X6088143Y12402671D02*
X5945286Y12402671D01*
X5945286Y12402671D02*
X5802429Y12474100D01*
X5802429Y12474100D02*
X5731000Y12545528D01*
X5731000Y12545528D02*
X5659571Y12688385D01*
X5659571Y12688385D02*
X5588143Y12974100D01*
X5588143Y12974100D02*
X5588143Y13331242D01*
X5588143Y13331242D02*
X5659571Y13616957D01*
X5659571Y13616957D02*
X5731000Y13759814D01*
X5731000Y13759814D02*
X5802429Y13831242D01*
X5802429Y13831242D02*
X5945286Y13902671D01*
X7873857Y12402671D02*
X7016714Y12402671D01*
X7445285Y12402671D02*
X7445285Y13902671D01*
X7445285Y13902671D02*
X7302428Y13688385D01*
X7302428Y13688385D02*
X7159571Y13545528D01*
X7159571Y13545528D02*
X7016714Y13474100D01*
X9159571Y13902671D02*
X8873856Y13902671D01*
X8873856Y13902671D02*
X8730999Y13831242D01*
X8730999Y13831242D02*
X8659571Y13759814D01*
X8659571Y13759814D02*
X8516713Y13545528D01*
X8516713Y13545528D02*
X8445285Y13259814D01*
X8445285Y13259814D02*
X8445285Y12688385D01*
X8445285Y12688385D02*
X8516713Y12545528D01*
X8516713Y12545528D02*
X8588142Y12474100D01*
X8588142Y12474100D02*
X8730999Y12402671D01*
X8730999Y12402671D02*
X9016713Y12402671D01*
X9016713Y12402671D02*
X9159571Y12474100D01*
X9159571Y12474100D02*
X9230999Y12545528D01*
X9230999Y12545528D02*
X9302428Y12688385D01*
X9302428Y12688385D02*
X9302428Y13045528D01*
X9302428Y13045528D02*
X9230999Y13188385D01*
X9230999Y13188385D02*
X9159571Y13259814D01*
X9159571Y13259814D02*
X9016713Y13331242D01*
X9016713Y13331242D02*
X8730999Y13331242D01*
X8730999Y13331242D02*
X8588142Y13259814D01*
X8588142Y13259814D02*
X8516713Y13188385D01*
X8516713Y13188385D02*
X8445285Y13045528D01*
X10569427Y58757671D02*
X10569427Y60257671D01*
X10569427Y60257671D02*
X11140856Y60257671D01*
X11140856Y60257671D02*
X11283713Y60186242D01*
X11283713Y60186242D02*
X11355142Y60114814D01*
X11355142Y60114814D02*
X11426570Y59971957D01*
X11426570Y59971957D02*
X11426570Y59757671D01*
X11426570Y59757671D02*
X11355142Y59614814D01*
X11355142Y59614814D02*
X11283713Y59543385D01*
X11283713Y59543385D02*
X11140856Y59471957D01*
X11140856Y59471957D02*
X10569427Y59471957D01*
X12355142Y60257671D02*
X12640856Y60257671D01*
X12640856Y60257671D02*
X12783713Y60186242D01*
X12783713Y60186242D02*
X12926570Y60043385D01*
X12926570Y60043385D02*
X12997999Y59757671D01*
X12997999Y59757671D02*
X12997999Y59257671D01*
X12997999Y59257671D02*
X12926570Y58971957D01*
X12926570Y58971957D02*
X12783713Y58829100D01*
X12783713Y58829100D02*
X12640856Y58757671D01*
X12640856Y58757671D02*
X12355142Y58757671D01*
X12355142Y58757671D02*
X12212285Y58829100D01*
X12212285Y58829100D02*
X12069427Y58971957D01*
X12069427Y58971957D02*
X11997999Y59257671D01*
X11997999Y59257671D02*
X11997999Y59757671D01*
X11997999Y59757671D02*
X12069427Y60043385D01*
X12069427Y60043385D02*
X12212285Y60186242D01*
X12212285Y60186242D02*
X12355142Y60257671D01*
X13497999Y60257671D02*
X13855142Y58757671D01*
X13855142Y58757671D02*
X14140856Y59829100D01*
X14140856Y59829100D02*
X14426571Y58757671D01*
X14426571Y58757671D02*
X14783714Y60257671D01*
X15355142Y59543385D02*
X15855142Y59543385D01*
X16069428Y58757671D02*
X15355142Y58757671D01*
X15355142Y58757671D02*
X15355142Y60257671D01*
X15355142Y60257671D02*
X16069428Y60257671D01*
X17569428Y58757671D02*
X17069428Y59471957D01*
X16712285Y58757671D02*
X16712285Y60257671D01*
X16712285Y60257671D02*
X17283714Y60257671D01*
X17283714Y60257671D02*
X17426571Y60186242D01*
X17426571Y60186242D02*
X17498000Y60114814D01*
X17498000Y60114814D02*
X17569428Y59971957D01*
X17569428Y59971957D02*
X17569428Y59757671D01*
X17569428Y59757671D02*
X17498000Y59614814D01*
X17498000Y59614814D02*
X17426571Y59543385D01*
X17426571Y59543385D02*
X17283714Y59471957D01*
X17283714Y59471957D02*
X16712285Y59471957D01*
X19355142Y58757671D02*
X19355142Y60257671D01*
X20069428Y58757671D02*
X20069428Y60257671D01*
X20069428Y60257671D02*
X20926571Y58757671D01*
X20926571Y58757671D02*
X20926571Y60257671D01*
X34878095Y31983361D02*
X34878095Y33983361D01*
X34878095Y33983361D02*
X35544762Y32554790D01*
X35544762Y32554790D02*
X36211428Y33983361D01*
X36211428Y33983361D02*
X36211428Y31983361D01*
X38116190Y31983361D02*
X37163809Y31983361D01*
X37163809Y31983361D02*
X37163809Y33983361D01*
X38687619Y32554790D02*
X39640000Y32554790D01*
X38497143Y31983361D02*
X39163809Y33983361D01*
X39163809Y33983361D02*
X39830476Y31983361D01*
X41163810Y33030980D02*
X41449524Y32935742D01*
X41449524Y32935742D02*
X41544762Y32840504D01*
X41544762Y32840504D02*
X41640000Y32650028D01*
X41640000Y32650028D02*
X41640000Y32364314D01*
X41640000Y32364314D02*
X41544762Y32173838D01*
X41544762Y32173838D02*
X41449524Y32078600D01*
X41449524Y32078600D02*
X41259048Y31983361D01*
X41259048Y31983361D02*
X40497143Y31983361D01*
X40497143Y31983361D02*
X40497143Y33983361D01*
X40497143Y33983361D02*
X41163810Y33983361D01*
X41163810Y33983361D02*
X41354286Y33888123D01*
X41354286Y33888123D02*
X41449524Y33792885D01*
X41449524Y33792885D02*
X41544762Y33602409D01*
X41544762Y33602409D02*
X41544762Y33411933D01*
X41544762Y33411933D02*
X41449524Y33221457D01*
X41449524Y33221457D02*
X41354286Y33126219D01*
X41354286Y33126219D02*
X41163810Y33030980D01*
X41163810Y33030980D02*
X40497143Y33030980D01*
X42497143Y32173838D02*
X42592381Y32078600D01*
X42592381Y32078600D02*
X42497143Y31983361D01*
X42497143Y31983361D02*
X42401905Y32078600D01*
X42401905Y32078600D02*
X42497143Y32173838D01*
X42497143Y32173838D02*
X42497143Y31983361D01*
X44592381Y32173838D02*
X44497143Y32078600D01*
X44497143Y32078600D02*
X44211429Y31983361D01*
X44211429Y31983361D02*
X44020953Y31983361D01*
X44020953Y31983361D02*
X43735238Y32078600D01*
X43735238Y32078600D02*
X43544762Y32269076D01*
X43544762Y32269076D02*
X43449524Y32459552D01*
X43449524Y32459552D02*
X43354286Y32840504D01*
X43354286Y32840504D02*
X43354286Y33126219D01*
X43354286Y33126219D02*
X43449524Y33507171D01*
X43449524Y33507171D02*
X43544762Y33697647D01*
X43544762Y33697647D02*
X43735238Y33888123D01*
X43735238Y33888123D02*
X44020953Y33983361D01*
X44020953Y33983361D02*
X44211429Y33983361D01*
X44211429Y33983361D02*
X44497143Y33888123D01*
X44497143Y33888123D02*
X44592381Y33792885D01*
X45259048Y33983361D02*
X46592381Y33983361D01*
X46592381Y33983361D02*
X45259048Y31983361D01*
X45259048Y31983361D02*
X46592381Y31983361D01*
X31306666Y27792361D02*
X30354285Y27792361D01*
X30354285Y27792361D02*
X30354285Y29792361D01*
X31973333Y27792361D02*
X31973333Y29792361D01*
X33306666Y29792361D02*
X33687619Y29792361D01*
X33687619Y29792361D02*
X33878095Y29697123D01*
X33878095Y29697123D02*
X34068571Y29506647D01*
X34068571Y29506647D02*
X34163809Y29125695D01*
X34163809Y29125695D02*
X34163809Y28459028D01*
X34163809Y28459028D02*
X34068571Y28078076D01*
X34068571Y28078076D02*
X33878095Y27887600D01*
X33878095Y27887600D02*
X33687619Y27792361D01*
X33687619Y27792361D02*
X33306666Y27792361D01*
X33306666Y27792361D02*
X33116190Y27887600D01*
X33116190Y27887600D02*
X32925714Y28078076D01*
X32925714Y28078076D02*
X32830476Y28459028D01*
X32830476Y28459028D02*
X32830476Y29125695D01*
X32830476Y29125695D02*
X32925714Y29506647D01*
X32925714Y29506647D02*
X33116190Y29697123D01*
X33116190Y29697123D02*
X33306666Y29792361D01*
X35020952Y27792361D02*
X35020952Y29792361D01*
X35020952Y29792361D02*
X36163809Y27792361D01*
X36163809Y27792361D02*
X36163809Y29792361D01*
X37020952Y29601885D02*
X37116190Y29697123D01*
X37116190Y29697123D02*
X37306666Y29792361D01*
X37306666Y29792361D02*
X37782857Y29792361D01*
X37782857Y29792361D02*
X37973333Y29697123D01*
X37973333Y29697123D02*
X38068571Y29601885D01*
X38068571Y29601885D02*
X38163809Y29411409D01*
X38163809Y29411409D02*
X38163809Y29220933D01*
X38163809Y29220933D02*
X38068571Y28935219D01*
X38068571Y28935219D02*
X36925714Y27792361D01*
X36925714Y27792361D02*
X38163809Y27792361D01*
X40163809Y27982838D02*
X40068571Y27887600D01*
X40068571Y27887600D02*
X39782857Y27792361D01*
X39782857Y27792361D02*
X39592381Y27792361D01*
X39592381Y27792361D02*
X39306666Y27887600D01*
X39306666Y27887600D02*
X39116190Y28078076D01*
X39116190Y28078076D02*
X39020952Y28268552D01*
X39020952Y28268552D02*
X38925714Y28649504D01*
X38925714Y28649504D02*
X38925714Y28935219D01*
X38925714Y28935219D02*
X39020952Y29316171D01*
X39020952Y29316171D02*
X39116190Y29506647D01*
X39116190Y29506647D02*
X39306666Y29697123D01*
X39306666Y29697123D02*
X39592381Y29792361D01*
X39592381Y29792361D02*
X39782857Y29792361D01*
X39782857Y29792361D02*
X40068571Y29697123D01*
X40068571Y29697123D02*
X40163809Y29601885D01*
X41020952Y28839980D02*
X41687619Y28839980D01*
X41973333Y27792361D02*
X41020952Y27792361D01*
X41020952Y27792361D02*
X41020952Y29792361D01*
X41020952Y29792361D02*
X41973333Y29792361D01*
X43782857Y27792361D02*
X42830476Y27792361D01*
X42830476Y27792361D02*
X42830476Y29792361D01*
X45401905Y27792361D02*
X44449524Y27792361D01*
X44449524Y27792361D02*
X44449524Y29792361D01*
X46449524Y29792361D02*
X46640001Y29792361D01*
X46640001Y29792361D02*
X46830477Y29697123D01*
X46830477Y29697123D02*
X46925715Y29601885D01*
X46925715Y29601885D02*
X47020953Y29411409D01*
X47020953Y29411409D02*
X47116191Y29030457D01*
X47116191Y29030457D02*
X47116191Y28554266D01*
X47116191Y28554266D02*
X47020953Y28173314D01*
X47020953Y28173314D02*
X46925715Y27982838D01*
X46925715Y27982838D02*
X46830477Y27887600D01*
X46830477Y27887600D02*
X46640001Y27792361D01*
X46640001Y27792361D02*
X46449524Y27792361D01*
X46449524Y27792361D02*
X46259048Y27887600D01*
X46259048Y27887600D02*
X46163810Y27982838D01*
X46163810Y27982838D02*
X46068572Y28173314D01*
X46068572Y28173314D02*
X45973334Y28554266D01*
X45973334Y28554266D02*
X45973334Y29030457D01*
X45973334Y29030457D02*
X46068572Y29411409D01*
X46068572Y29411409D02*
X46163810Y29601885D01*
X46163810Y29601885D02*
X46259048Y29697123D01*
X46259048Y29697123D02*
X46449524Y29792361D01*
X49020953Y27792361D02*
X47878096Y27792361D01*
X48449524Y27792361D02*
X48449524Y29792361D01*
X48449524Y29792361D02*
X48259048Y29506647D01*
X48259048Y29506647D02*
X48068572Y29316171D01*
X48068572Y29316171D02*
X47878096Y29220933D01*
X49878096Y27792361D02*
X49878096Y29792361D01*
X49878096Y29792361D02*
X50354286Y29792361D01*
X50354286Y29792361D02*
X50640001Y29697123D01*
X50640001Y29697123D02*
X50830477Y29506647D01*
X50830477Y29506647D02*
X50925715Y29316171D01*
X50925715Y29316171D02*
X51020953Y28935219D01*
X51020953Y28935219D02*
X51020953Y28649504D01*
X51020953Y28649504D02*
X50925715Y28268552D01*
X50925715Y28268552D02*
X50830477Y28078076D01*
X50830477Y28078076D02*
X50640001Y27887600D01*
X50640001Y27887600D02*
X50354286Y27792361D01*
X50354286Y27792361D02*
X49878096Y27792361D01*
X46748667Y59610266D02*
X46748667Y58676933D01*
X46415334Y60143600D02*
X46082000Y59143600D01*
X46082000Y59143600D02*
X46948667Y59143600D01*
X68577066Y56791701D02*
X67177066Y56791701D01*
X67843733Y56791701D02*
X67843733Y57591701D01*
X68577066Y57591701D02*
X67177066Y57591701D01*
X68577066Y58258368D02*
X67177066Y58258368D01*
X67177066Y58258368D02*
X67177066Y58591701D01*
X67177066Y58591701D02*
X67243733Y58791701D01*
X67243733Y58791701D02*
X67377066Y58925035D01*
X67377066Y58925035D02*
X67510400Y58991701D01*
X67510400Y58991701D02*
X67777066Y59058368D01*
X67777066Y59058368D02*
X67977066Y59058368D01*
X67977066Y59058368D02*
X68243733Y58991701D01*
X68243733Y58991701D02*
X68377066Y58925035D01*
X68377066Y58925035D02*
X68510400Y58791701D01*
X68510400Y58791701D02*
X68577066Y58591701D01*
X68577066Y58591701D02*
X68577066Y58258368D01*
X68710400Y60591701D02*
X68643733Y60458368D01*
X68643733Y60458368D02*
X68510400Y60325035D01*
X68510400Y60325035D02*
X68310400Y60125035D01*
X68310400Y60125035D02*
X68243733Y59991701D01*
X68243733Y59991701D02*
X68243733Y59858368D01*
X68577066Y59925035D02*
X68510400Y59791701D01*
X68510400Y59791701D02*
X68377066Y59658368D01*
X68377066Y59658368D02*
X68110400Y59591701D01*
X68110400Y59591701D02*
X67643733Y59591701D01*
X67643733Y59591701D02*
X67377066Y59658368D01*
X67377066Y59658368D02*
X67243733Y59791701D01*
X67243733Y59791701D02*
X67177066Y59925035D01*
X67177066Y59925035D02*
X67177066Y60191701D01*
X67177066Y60191701D02*
X67243733Y60325035D01*
X67243733Y60325035D02*
X67377066Y60458368D01*
X67377066Y60458368D02*
X67643733Y60525035D01*
X67643733Y60525035D02*
X68110400Y60525035D01*
X68110400Y60525035D02*
X68377066Y60458368D01*
X68377066Y60458368D02*
X68510400Y60325035D01*
X68510400Y60325035D02*
X68577066Y60191701D01*
X68577066Y60191701D02*
X68577066Y59925035D01*
X32920471Y52737142D02*
X32991900Y52665714D01*
X32991900Y52665714D02*
X33063328Y52451428D01*
X33063328Y52451428D02*
X33063328Y52308571D01*
X33063328Y52308571D02*
X32991900Y52094285D01*
X32991900Y52094285D02*
X32849042Y51951428D01*
X32849042Y51951428D02*
X32706185Y51879999D01*
X32706185Y51879999D02*
X32420471Y51808571D01*
X32420471Y51808571D02*
X32206185Y51808571D01*
X32206185Y51808571D02*
X31920471Y51879999D01*
X31920471Y51879999D02*
X31777614Y51951428D01*
X31777614Y51951428D02*
X31634757Y52094285D01*
X31634757Y52094285D02*
X31563328Y52308571D01*
X31563328Y52308571D02*
X31563328Y52451428D01*
X31563328Y52451428D02*
X31634757Y52665714D01*
X31634757Y52665714D02*
X31706185Y52737142D01*
X33063328Y53379999D02*
X31563328Y53379999D01*
X32277614Y53379999D02*
X32277614Y54237142D01*
X33063328Y54237142D02*
X31563328Y54237142D01*
X32634757Y54880000D02*
X32634757Y55594286D01*
X33063328Y54737143D02*
X31563328Y55237143D01*
X31563328Y55237143D02*
X33063328Y55737143D01*
X33063328Y57094285D02*
X32349042Y56594285D01*
X33063328Y56237142D02*
X31563328Y56237142D01*
X31563328Y56237142D02*
X31563328Y56808571D01*
X31563328Y56808571D02*
X31634757Y56951428D01*
X31634757Y56951428D02*
X31706185Y57022857D01*
X31706185Y57022857D02*
X31849042Y57094285D01*
X31849042Y57094285D02*
X32063328Y57094285D01*
X32063328Y57094285D02*
X32206185Y57022857D01*
X32206185Y57022857D02*
X32277614Y56951428D01*
X32277614Y56951428D02*
X32349042Y56808571D01*
X32349042Y56808571D02*
X32349042Y56237142D01*
X31634757Y58522857D02*
X31563328Y58380000D01*
X31563328Y58380000D02*
X31563328Y58165714D01*
X31563328Y58165714D02*
X31634757Y57951428D01*
X31634757Y57951428D02*
X31777614Y57808571D01*
X31777614Y57808571D02*
X31920471Y57737142D01*
X31920471Y57737142D02*
X32206185Y57665714D01*
X32206185Y57665714D02*
X32420471Y57665714D01*
X32420471Y57665714D02*
X32706185Y57737142D01*
X32706185Y57737142D02*
X32849042Y57808571D01*
X32849042Y57808571D02*
X32991900Y57951428D01*
X32991900Y57951428D02*
X33063328Y58165714D01*
X33063328Y58165714D02*
X33063328Y58308571D01*
X33063328Y58308571D02*
X32991900Y58522857D01*
X32991900Y58522857D02*
X32920471Y58594285D01*
X32920471Y58594285D02*
X32420471Y58594285D01*
X32420471Y58594285D02*
X32420471Y58308571D01*
X32277614Y59237142D02*
X32277614Y59737142D01*
X33063328Y59951428D02*
X33063328Y59237142D01*
X33063328Y59237142D02*
X31563328Y59237142D01*
X31563328Y59237142D02*
X31563328Y59951428D01*
X43601715Y8949671D02*
X43744572Y8949671D01*
X43744572Y8949671D02*
X43887429Y8878242D01*
X43887429Y8878242D02*
X43958858Y8806814D01*
X43958858Y8806814D02*
X44030286Y8663957D01*
X44030286Y8663957D02*
X44101715Y8378242D01*
X44101715Y8378242D02*
X44101715Y8021100D01*
X44101715Y8021100D02*
X44030286Y7735385D01*
X44030286Y7735385D02*
X43958858Y7592528D01*
X43958858Y7592528D02*
X43887429Y7521100D01*
X43887429Y7521100D02*
X43744572Y7449671D01*
X43744572Y7449671D02*
X43601715Y7449671D01*
X43601715Y7449671D02*
X43458858Y7521100D01*
X43458858Y7521100D02*
X43387429Y7592528D01*
X43387429Y7592528D02*
X43316000Y7735385D01*
X43316000Y7735385D02*
X43244572Y8021100D01*
X43244572Y8021100D02*
X43244572Y8378242D01*
X43244572Y8378242D02*
X43316000Y8663957D01*
X43316000Y8663957D02*
X43387429Y8806814D01*
X43387429Y8806814D02*
X43458858Y8878242D01*
X43458858Y8878242D02*
X43601715Y8949671D01*
X44673143Y7449671D02*
X45816000Y8949671D01*
X44887429Y8949671D02*
X45030286Y8878242D01*
X45030286Y8878242D02*
X45101714Y8735385D01*
X45101714Y8735385D02*
X45030286Y8592528D01*
X45030286Y8592528D02*
X44887429Y8521100D01*
X44887429Y8521100D02*
X44744571Y8592528D01*
X44744571Y8592528D02*
X44673143Y8735385D01*
X44673143Y8735385D02*
X44744571Y8878242D01*
X44744571Y8878242D02*
X44887429Y8949671D01*
X45744571Y7521100D02*
X45816000Y7663957D01*
X45816000Y7663957D02*
X45744571Y7806814D01*
X45744571Y7806814D02*
X45601714Y7878242D01*
X45601714Y7878242D02*
X45458857Y7806814D01*
X45458857Y7806814D02*
X45387429Y7663957D01*
X45387429Y7663957D02*
X45458857Y7521100D01*
X45458857Y7521100D02*
X45601714Y7449671D01*
X45601714Y7449671D02*
X45744571Y7521100D01*
X47601714Y8021100D02*
X48744572Y8021100D01*
X49458857Y8021100D02*
X50601715Y8021100D01*
X51316000Y8021100D02*
X52458858Y8021100D01*
X53173143Y8021100D02*
X54316001Y8021100D01*
X55816001Y7449671D02*
X54958858Y7449671D01*
X55387429Y7449671D02*
X55387429Y8949671D01*
X55387429Y8949671D02*
X55244572Y8735385D01*
X55244572Y8735385D02*
X55101715Y8592528D01*
X55101715Y8592528D02*
X54958858Y8521100D01*
X56744572Y8949671D02*
X56887429Y8949671D01*
X56887429Y8949671D02*
X57030286Y8878242D01*
X57030286Y8878242D02*
X57101715Y8806814D01*
X57101715Y8806814D02*
X57173143Y8663957D01*
X57173143Y8663957D02*
X57244572Y8378242D01*
X57244572Y8378242D02*
X57244572Y8021100D01*
X57244572Y8021100D02*
X57173143Y7735385D01*
X57173143Y7735385D02*
X57101715Y7592528D01*
X57101715Y7592528D02*
X57030286Y7521100D01*
X57030286Y7521100D02*
X56887429Y7449671D01*
X56887429Y7449671D02*
X56744572Y7449671D01*
X56744572Y7449671D02*
X56601715Y7521100D01*
X56601715Y7521100D02*
X56530286Y7592528D01*
X56530286Y7592528D02*
X56458857Y7735385D01*
X56458857Y7735385D02*
X56387429Y8021100D01*
X56387429Y8021100D02*
X56387429Y8378242D01*
X56387429Y8378242D02*
X56458857Y8663957D01*
X56458857Y8663957D02*
X56530286Y8806814D01*
X56530286Y8806814D02*
X56601715Y8878242D01*
X56601715Y8878242D02*
X56744572Y8949671D01*
X58173143Y8949671D02*
X58316000Y8949671D01*
X58316000Y8949671D02*
X58458857Y8878242D01*
X58458857Y8878242D02*
X58530286Y8806814D01*
X58530286Y8806814D02*
X58601714Y8663957D01*
X58601714Y8663957D02*
X58673143Y8378242D01*
X58673143Y8378242D02*
X58673143Y8021100D01*
X58673143Y8021100D02*
X58601714Y7735385D01*
X58601714Y7735385D02*
X58530286Y7592528D01*
X58530286Y7592528D02*
X58458857Y7521100D01*
X58458857Y7521100D02*
X58316000Y7449671D01*
X58316000Y7449671D02*
X58173143Y7449671D01*
X58173143Y7449671D02*
X58030286Y7521100D01*
X58030286Y7521100D02*
X57958857Y7592528D01*
X57958857Y7592528D02*
X57887428Y7735385D01*
X57887428Y7735385D02*
X57816000Y8021100D01*
X57816000Y8021100D02*
X57816000Y8378242D01*
X57816000Y8378242D02*
X57887428Y8663957D01*
X57887428Y8663957D02*
X57958857Y8806814D01*
X57958857Y8806814D02*
X58030286Y8878242D01*
X58030286Y8878242D02*
X58173143Y8949671D01*
X59244571Y7449671D02*
X60387428Y8949671D01*
X59458857Y8949671D02*
X59601714Y8878242D01*
X59601714Y8878242D02*
X59673142Y8735385D01*
X59673142Y8735385D02*
X59601714Y8592528D01*
X59601714Y8592528D02*
X59458857Y8521100D01*
X59458857Y8521100D02*
X59315999Y8592528D01*
X59315999Y8592528D02*
X59244571Y8735385D01*
X59244571Y8735385D02*
X59315999Y8878242D01*
X59315999Y8878242D02*
X59458857Y8949671D01*
X60315999Y7521100D02*
X60387428Y7663957D01*
X60387428Y7663957D02*
X60315999Y7806814D01*
X60315999Y7806814D02*
X60173142Y7878242D01*
X60173142Y7878242D02*
X60030285Y7806814D01*
X60030285Y7806814D02*
X59958857Y7663957D01*
X59958857Y7663957D02*
X60030285Y7521100D01*
X60030285Y7521100D02*
X60173142Y7449671D01*
X60173142Y7449671D02*
X60315999Y7521100D01*
D12*
X19786709Y58943857D02*
X19786709Y58658143D01*
X19786709Y58801000D02*
X19286709Y58801000D01*
X19286709Y58801000D02*
X19358138Y58753381D01*
X19358138Y58753381D02*
X19405757Y58705762D01*
X19405757Y58705762D02*
X19429566Y58658143D01*
X31978709Y2301857D02*
X31978709Y2016143D01*
X31978709Y2159000D02*
X31478709Y2159000D01*
X31478709Y2159000D02*
X31550138Y2111381D01*
X31550138Y2111381D02*
X31597757Y2063762D01*
X31597757Y2063762D02*
X31621566Y2016143D01*
X59918709Y58689857D02*
X59918709Y58404143D01*
X59918709Y58547000D02*
X59418709Y58547000D01*
X59418709Y58547000D02*
X59490138Y58499381D01*
X59490138Y58499381D02*
X59537757Y58451762D01*
X59537757Y58451762D02*
X59561566Y58404143D01*
D13*
X12505327Y42446194D02*
X12338534Y42684470D01*
X12219396Y42446194D02*
X12219396Y42946574D01*
X12219396Y42946574D02*
X12410017Y42946574D01*
X12410017Y42946574D02*
X12457672Y42922746D01*
X12457672Y42922746D02*
X12481499Y42898919D01*
X12481499Y42898919D02*
X12505327Y42851263D01*
X12505327Y42851263D02*
X12505327Y42779781D01*
X12505327Y42779781D02*
X12481499Y42732125D01*
X12481499Y42732125D02*
X12457672Y42708298D01*
X12457672Y42708298D02*
X12410017Y42684470D01*
X12410017Y42684470D02*
X12219396Y42684470D01*
X12981879Y42446194D02*
X12695948Y42446194D01*
X12838914Y42446194D02*
X12838914Y42946574D01*
X12838914Y42946574D02*
X12791258Y42875091D01*
X12791258Y42875091D02*
X12743603Y42827436D01*
X12743603Y42827436D02*
X12695948Y42803608D01*
X13434604Y42946574D02*
X13196328Y42946574D01*
X13196328Y42946574D02*
X13172500Y42708298D01*
X13172500Y42708298D02*
X13196328Y42732125D01*
X13196328Y42732125D02*
X13243983Y42755953D01*
X13243983Y42755953D02*
X13363121Y42755953D01*
X13363121Y42755953D02*
X13410776Y42732125D01*
X13410776Y42732125D02*
X13434604Y42708298D01*
X13434604Y42708298D02*
X13458431Y42660642D01*
X13458431Y42660642D02*
X13458431Y42541504D01*
X13458431Y42541504D02*
X13434604Y42493849D01*
X13434604Y42493849D02*
X13410776Y42470022D01*
X13410776Y42470022D02*
X13363121Y42446194D01*
X13363121Y42446194D02*
X13243983Y42446194D01*
X13243983Y42446194D02*
X13196328Y42470022D01*
X13196328Y42470022D02*
X13172500Y42493849D01*
X68131327Y23142194D02*
X67964534Y23380470D01*
X67845396Y23142194D02*
X67845396Y23642574D01*
X67845396Y23642574D02*
X68036017Y23642574D01*
X68036017Y23642574D02*
X68083672Y23618746D01*
X68083672Y23618746D02*
X68107499Y23594919D01*
X68107499Y23594919D02*
X68131327Y23547263D01*
X68131327Y23547263D02*
X68131327Y23475781D01*
X68131327Y23475781D02*
X68107499Y23428125D01*
X68107499Y23428125D02*
X68083672Y23404298D01*
X68083672Y23404298D02*
X68036017Y23380470D01*
X68036017Y23380470D02*
X67845396Y23380470D01*
X68607879Y23142194D02*
X68321948Y23142194D01*
X68464914Y23142194D02*
X68464914Y23642574D01*
X68464914Y23642574D02*
X68417258Y23571091D01*
X68417258Y23571091D02*
X68369603Y23523436D01*
X68369603Y23523436D02*
X68321948Y23499608D01*
X68774672Y23642574D02*
X69108259Y23642574D01*
X69108259Y23642574D02*
X68893810Y23142194D01*
D14*
X65828333Y5049927D02*
X65973476Y5001546D01*
X65973476Y5001546D02*
X66215381Y5001546D01*
X66215381Y5001546D02*
X66312143Y5049927D01*
X66312143Y5049927D02*
X66360524Y5098307D01*
X66360524Y5098307D02*
X66408905Y5195069D01*
X66408905Y5195069D02*
X66408905Y5291831D01*
X66408905Y5291831D02*
X66360524Y5388593D01*
X66360524Y5388593D02*
X66312143Y5436974D01*
X66312143Y5436974D02*
X66215381Y5485355D01*
X66215381Y5485355D02*
X66021857Y5533736D01*
X66021857Y5533736D02*
X65925095Y5582117D01*
X65925095Y5582117D02*
X65876714Y5630498D01*
X65876714Y5630498D02*
X65828333Y5727260D01*
X65828333Y5727260D02*
X65828333Y5824022D01*
X65828333Y5824022D02*
X65876714Y5920784D01*
X65876714Y5920784D02*
X65925095Y5969165D01*
X65925095Y5969165D02*
X66021857Y6017546D01*
X66021857Y6017546D02*
X66263762Y6017546D01*
X66263762Y6017546D02*
X66408905Y5969165D01*
X66747571Y6017546D02*
X66989476Y5001546D01*
X66989476Y5001546D02*
X67183000Y5727260D01*
X67183000Y5727260D02*
X67376524Y5001546D01*
X67376524Y5001546D02*
X67618429Y6017546D01*
X68537667Y5001546D02*
X67957095Y5001546D01*
X68247381Y5001546D02*
X68247381Y6017546D01*
X68247381Y6017546D02*
X68150619Y5872403D01*
X68150619Y5872403D02*
X68053857Y5775641D01*
X68053857Y5775641D02*
X67957095Y5727260D01*
D15*
X26761428Y33818085D02*
X26975714Y33746657D01*
X26975714Y33746657D02*
X27047143Y33675228D01*
X27047143Y33675228D02*
X27118571Y33532371D01*
X27118571Y33532371D02*
X27118571Y33318085D01*
X27118571Y33318085D02*
X27047143Y33175228D01*
X27047143Y33175228D02*
X26975714Y33103800D01*
X26975714Y33103800D02*
X26832857Y33032371D01*
X26832857Y33032371D02*
X26261428Y33032371D01*
X26261428Y33032371D02*
X26261428Y34532371D01*
X26261428Y34532371D02*
X26761428Y34532371D01*
X26761428Y34532371D02*
X26904286Y34460942D01*
X26904286Y34460942D02*
X26975714Y34389514D01*
X26975714Y34389514D02*
X27047143Y34246657D01*
X27047143Y34246657D02*
X27047143Y34103800D01*
X27047143Y34103800D02*
X26975714Y33960942D01*
X26975714Y33960942D02*
X26904286Y33889514D01*
X26904286Y33889514D02*
X26761428Y33818085D01*
X26761428Y33818085D02*
X26261428Y33818085D01*
X27547143Y34532371D02*
X28404286Y34532371D01*
X27975714Y33032371D02*
X27975714Y34532371D01*
X29690000Y33032371D02*
X28832857Y33032371D01*
X29261428Y33032371D02*
X29261428Y34532371D01*
X29261428Y34532371D02*
X29118571Y34318085D01*
X29118571Y34318085D02*
X28975714Y34175228D01*
X28975714Y34175228D02*
X28832857Y34103800D01*
D16*
X62674595Y21818066D02*
X64198405Y21818066D01*
X16954595Y40868066D02*
X18478405Y40868066D01*
X17716500Y40106161D02*
X17716500Y41629971D01*
X16954595Y21818066D02*
X18478405Y21818066D01*
X17716500Y21056161D02*
X17716500Y22579971D01*
X62674595Y40868066D02*
X64198405Y40868066D01*
D15*
%TO.C,J1*%
X10668000Y58420000D02*
X20828000Y58420000D01*
X10668000Y53340000D02*
X10668000Y58420000D01*
X20828000Y58420000D02*
X20828000Y53340000D01*
X20828000Y53340000D02*
X10668000Y53340000D01*
%TO.C,J2*%
X47752000Y58166000D02*
X50292000Y58166000D01*
X47752000Y53086000D02*
X47752000Y58166000D01*
X50292000Y58166000D02*
X50292000Y53086000D01*
X50292000Y53086000D02*
X47752000Y53086000D01*
%TO.C,J3*%
X37592000Y58166000D02*
X40132000Y58166000D01*
X37592000Y53086000D02*
X37592000Y58166000D01*
X40132000Y58166000D02*
X40132000Y53086000D01*
X40132000Y53086000D02*
X37592000Y53086000D01*
%TO.C,J4*%
X42672000Y58166000D02*
X45212000Y58166000D01*
X42672000Y53086000D02*
X42672000Y58166000D01*
X45212000Y58166000D02*
X45212000Y53086000D01*
X45212000Y53086000D02*
X42672000Y53086000D01*
%TO.C,J5*%
X45212000Y58166000D02*
X47752000Y58166000D01*
X45212000Y53086000D02*
X45212000Y58166000D01*
X47752000Y58166000D02*
X47752000Y53086000D01*
X47752000Y53086000D02*
X45212000Y53086000D01*
%TO.C,J6*%
X40132000Y58166000D02*
X42672000Y58166000D01*
X40132000Y53086000D02*
X40132000Y58166000D01*
X42672000Y58166000D02*
X42672000Y53086000D01*
X42672000Y53086000D02*
X40132000Y53086000D01*
%TO.C,J7*%
X30480000Y7620000D02*
X40640000Y7620000D01*
X30480000Y2540000D02*
X30480000Y7620000D01*
X40640000Y7620000D02*
X40640000Y2540000D01*
X40640000Y2540000D02*
X30480000Y2540000D01*
%TO.C,J9*%
X9939000Y5421000D02*
X18939000Y5421000D01*
X9939000Y420900D02*
X9939000Y5421100D01*
X10438900Y4921000D02*
X18438900Y4921000D01*
X10438900Y921000D02*
X10438900Y4921000D01*
X10438900Y921000D02*
X18438900Y921000D01*
X18438900Y4921000D02*
X18438900Y921000D01*
X18438900Y3921000D02*
X18939000Y3921000D01*
X18438900Y1921000D02*
X18939000Y1921000D01*
X18939000Y5421000D02*
X24939000Y5421000D01*
X18939000Y421000D02*
X9939000Y421000D01*
X18939000Y421000D02*
X24939000Y421000D01*
X18939000Y420900D02*
X18939000Y5421100D01*
X20939000Y4421000D02*
X23939000Y4421000D01*
X20939000Y1421000D02*
X23939000Y1421000D01*
X20939000Y1420900D02*
X20939000Y4421100D01*
X23939000Y4921000D02*
X23939000Y921000D01*
X23939000Y4921000D02*
X27440000Y4921000D01*
X23939000Y921000D02*
X27439100Y921000D01*
X24439100Y4421000D02*
X26939000Y4421000D01*
X24439100Y1421000D02*
X26939000Y1421000D01*
X24439100Y1420000D02*
X24439100Y4422000D01*
X24939000Y4921000D02*
X24939000Y5421000D01*
X24939000Y421000D02*
X24939000Y921000D01*
X26939000Y1420000D02*
X26939000Y4422000D01*
X27439100Y4921000D02*
X27439100Y921000D01*
%TO.C,J10*%
X61595000Y56261000D02*
X64135000Y56261000D01*
X61595000Y51181000D02*
X61595000Y56261000D01*
X64135000Y56261000D02*
X64135000Y51181000D01*
X64135000Y51181000D02*
X61595000Y51181000D01*
%TO.C,J11*%
X64135000Y56261000D02*
X66675000Y56261000D01*
X64135000Y51181000D02*
X64135000Y56261000D01*
X66675000Y56261000D02*
X66675000Y51181000D01*
X66675000Y51181000D02*
X64135000Y51181000D01*
%TO.C,J12*%
X66675000Y56261000D02*
X69215000Y56261000D01*
X66675000Y51181000D02*
X66675000Y56261000D01*
X69215000Y56261000D02*
X69215000Y51181000D01*
X69215000Y51181000D02*
X66675000Y51181000D01*
%TO.C,J13*%
X50800000Y58166000D02*
X60960000Y58166000D01*
X50800000Y53086000D02*
X50800000Y58166000D01*
X60960000Y58166000D02*
X60960000Y53086000D01*
X60960000Y53086000D02*
X50800000Y53086000D01*
%TO.C,R15*%
X11303000Y41148000D02*
X12319000Y41148000D01*
X11303000Y39624000D02*
X11303000Y41148000D01*
X12319000Y39624000D02*
X11303000Y39624000D01*
X13335000Y41148000D02*
X14351000Y41148000D01*
X14351000Y41148000D02*
X14351000Y39624000D01*
X14351000Y39624000D02*
X13335000Y39624000D01*
X11303000Y39624000D02*
G75*
G02*
X11049000Y39624000I-127000J0D01*
G01*
X11049000Y39624000D02*
G75*
G02*
X11303000Y39624000I127000J0D01*
G01*
%TO.C,R17*%
X66929000Y21844000D02*
X67945000Y21844000D01*
X66929000Y20320000D02*
X66929000Y21844000D01*
X67945000Y20320000D02*
X66929000Y20320000D01*
X68961000Y21844000D02*
X69977000Y21844000D01*
X69977000Y21844000D02*
X69977000Y20320000D01*
X69977000Y20320000D02*
X68961000Y20320000D01*
X70231000Y21844000D02*
G75*
G02*
X69977000Y21844000I-127000J0D01*
G01*
X69977000Y21844000D02*
G75*
G02*
X70231000Y21844000I127000J0D01*
G01*
%TO.C,J8*%
X9939000Y10374000D02*
X18939000Y10374000D01*
X9939000Y5373900D02*
X9939000Y10374100D01*
X10438900Y9874000D02*
X18438900Y9874000D01*
X10438900Y5874000D02*
X10438900Y9874000D01*
X10438900Y5874000D02*
X18438900Y5874000D01*
X18438900Y9874000D02*
X18438900Y5874000D01*
X18438900Y8874000D02*
X18939000Y8874000D01*
X18438900Y6874000D02*
X18939000Y6874000D01*
X18939000Y10374000D02*
X24939000Y10374000D01*
X18939000Y5374000D02*
X9939000Y5374000D01*
X18939000Y5374000D02*
X24939000Y5374000D01*
X18939000Y5373900D02*
X18939000Y10374100D01*
X20939000Y9374000D02*
X23939000Y9374000D01*
X20939000Y6374000D02*
X23939000Y6374000D01*
X20939000Y6373900D02*
X20939000Y9374100D01*
X23939000Y9874000D02*
X23939000Y5874000D01*
X23939000Y9874000D02*
X27440000Y9874000D01*
X23939000Y5874000D02*
X27439100Y5874000D01*
X24439100Y9374000D02*
X26939000Y9374000D01*
X24439100Y6374000D02*
X26939000Y6374000D01*
X24439100Y6373000D02*
X24439100Y9375000D01*
X24939000Y9874000D02*
X24939000Y10374000D01*
X24939000Y5374000D02*
X24939000Y5874000D01*
X26939000Y6373000D02*
X26939000Y9375000D01*
X27439100Y9874000D02*
X27439100Y5874000D01*
D17*
%TO.C,SW1*%
X63373000Y9398000D02*
X63373000Y1778000D01*
X63373000Y9398000D02*
X70993000Y9398000D01*
X70993000Y9398000D02*
X70993000Y1778000D01*
X70993000Y1778000D02*
X63373000Y1778000D01*
X69723000Y5588000D02*
G75*
G02*
X64643000Y5588000I-2540000J0D01*
G01*
X64643000Y5588000D02*
G75*
G02*
X69723000Y5588000I2540000J0D01*
G01*
D15*
%TO.C,J14*%
X69215000Y56261000D02*
X71755000Y56261000D01*
X69215000Y51181000D02*
X69215000Y56261000D01*
X71755000Y56261000D02*
X71755000Y51181000D01*
X71755000Y51181000D02*
X69215000Y51181000D01*
D16*
%TO.C,BT1*%
X1726500Y50966000D02*
X1726500Y10756000D01*
X1726500Y10756000D02*
X79426500Y10756000D01*
X79426500Y50966000D02*
X1726500Y50966000D01*
X79426500Y10756000D02*
X79426500Y50966000D01*
D15*
X14366500Y40511000D02*
G75*
G02*
X11166500Y40511000I-1600000J0D01*
G01*
X11166500Y40511000D02*
G75*
G02*
X14366500Y40511000I1600000J0D01*
G01*
X14366500Y21211000D02*
G75*
G02*
X11166500Y21211000I-1600000J0D01*
G01*
X11166500Y21211000D02*
G75*
G02*
X14366500Y21211000I1600000J0D01*
G01*
X69986500Y40511000D02*
G75*
G02*
X66786500Y40511000I-1600000J0D01*
G01*
X66786500Y40511000D02*
G75*
G02*
X69986500Y40511000I1600000J0D01*
G01*
X69986500Y21211000D02*
G75*
G02*
X66786500Y21211000I-1600000J0D01*
G01*
X66786500Y21211000D02*
G75*
G02*
X69986500Y21211000I1600000J0D01*
G01*
%TD*%
D18*
%TO.C,J1*%
X19558000Y57150000D03*
X19558000Y54610000D03*
X17018000Y57150000D03*
X17018000Y54610000D03*
X14478000Y57150000D03*
X14478000Y54610000D03*
X11938000Y57150000D03*
X11938000Y54610000D03*
%TD*%
%TO.C,J2*%
X49022000Y56896000D03*
X49022000Y54356000D03*
%TD*%
%TO.C,J3*%
X38862000Y54356000D03*
X38862000Y56896000D03*
%TD*%
%TO.C,J4*%
X43942000Y54356000D03*
X43942000Y56896000D03*
%TD*%
%TO.C,J5*%
X46482000Y56896000D03*
X46482000Y54356000D03*
%TD*%
%TO.C,J6*%
X41402000Y56896000D03*
X41402000Y54356000D03*
%TD*%
%TO.C,J7*%
X31750000Y3810000D03*
X31750000Y6350000D03*
X34290000Y3810000D03*
X34290000Y6350000D03*
X36830000Y3810000D03*
X36830000Y6350000D03*
X39370000Y3810000D03*
X39370000Y6350000D03*
%TD*%
D19*
%TO.C,J9*%
X14939000Y2921000D03*
X19939000Y2921000D03*
%TD*%
D18*
%TO.C,J10*%
X62865000Y54991000D03*
X62865000Y52451000D03*
%TD*%
%TO.C,J11*%
X65405000Y54991000D03*
X65405000Y52451000D03*
%TD*%
%TO.C,J12*%
X67945000Y54991000D03*
X67945000Y52451000D03*
%TD*%
%TO.C,J13*%
X59690000Y56896000D03*
X59690000Y54356000D03*
X57150000Y56896000D03*
X57150000Y54356000D03*
X54610000Y56896000D03*
X54610000Y54356000D03*
X52070000Y56896000D03*
X52070000Y54356000D03*
%TD*%
D19*
%TO.C,J8*%
X14939000Y7874000D03*
X19939000Y7874000D03*
%TD*%
D20*
%TO.C,SW1*%
X64033000Y7838000D03*
X70333000Y7838000D03*
X64033000Y3338000D03*
X70333000Y3338000D03*
%TD*%
D18*
%TO.C,J14*%
X70485000Y54991000D03*
X70485000Y52451000D03*
%TD*%
D21*
%TO.C,BT1*%
X4326500Y40511000D03*
X76826500Y40511000D03*
X4326500Y21211000D03*
X76826500Y21211000D03*
%TD*%
M02*
