%TF.GenerationSoftware,KiCad,Pcbnew,8.0.3+1*%
%TF.CreationDate,2024-07-19T15:31:51+00:00*%
%TF.ProjectId,LION2CELL01,4c494f4e-3243-4454-9c4c-30312e6b6963,rev?*%
%TF.SameCoordinates,Original*%
%TF.FileFunction,Copper,L1,Top*%
%TF.FilePolarity,Positive*%
%FSLAX46Y46*%
G04 Gerber Fmt 4.6, Leading zero omitted, Abs format (unit mm)*
G04 Created by KiCad (PCBNEW 8.0.3+1) date 2024-07-19 15:31:51*
%MOMM*%
%LPD*%
G01*
G04 APERTURE LIST*
%TA.AperFunction,ComponentPad*%
%ADD10R,1.524000X1.524000*%
%TD*%
%TA.AperFunction,ComponentPad*%
%ADD11R,3.810000X3.810000*%
%TD*%
%TA.AperFunction,ComponentPad*%
%ADD12C,6.000000*%
%TD*%
%TA.AperFunction,SMDPad,CuDef*%
%ADD13R,0.889000X1.397000*%
%TD*%
%TA.AperFunction,ComponentPad*%
%ADD14R,1.676400X1.676400*%
%TD*%
%TA.AperFunction,ComponentPad*%
%ADD15R,4.000000X4.000000*%
%TD*%
%TA.AperFunction,ComponentPad*%
%ADD16C,0.600000*%
%TD*%
%TA.AperFunction,ViaPad*%
%ADD17C,0.890000*%
%TD*%
%TA.AperFunction,Conductor*%
%ADD18C,0.890000*%
%TD*%
%TA.AperFunction,Conductor*%
%ADD19C,0.400000*%
%TD*%
%TA.AperFunction,Conductor*%
%ADD20C,0.180000*%
%TD*%
%TA.AperFunction,Conductor*%
%ADD21C,0.500000*%
%TD*%
%TA.AperFunction,Conductor*%
%ADD22C,0.600000*%
%TD*%
%TA.AperFunction,Conductor*%
%ADD23C,0.300000*%
%TD*%
G04 APERTURE END LIST*
D10*
%TO.P,J1,1*%
%TO.N,GND*%
X19558000Y57150000D03*
%TO.P,J1,2*%
X19558000Y54610000D03*
%TO.P,J1,3*%
%TO.N,Net-(C2-Pad1)*%
X17018000Y57150000D03*
%TO.P,J1,4*%
X17018000Y54610000D03*
%TO.P,J1,5*%
X14478000Y57150000D03*
%TO.P,J1,6*%
X14478000Y54610000D03*
%TO.P,J1,7*%
%TO.N,GND*%
X11938000Y57150000D03*
%TO.P,J1,8*%
X11938000Y54610000D03*
%TD*%
%TO.P,J2,1*%
%TO.N,/STAT1*%
X49022000Y56896000D03*
%TO.P,J2,2*%
X49022000Y54356000D03*
%TD*%
%TO.P,J3,1*%
%TO.N,/PG*%
X38862000Y54356000D03*
%TO.P,J3,2*%
X38862000Y56896000D03*
%TD*%
%TO.P,J4,1*%
%TO.N,/CMODE*%
X43942000Y54356000D03*
%TO.P,J4,2*%
%TO.N,GND*%
X43942000Y56896000D03*
%TD*%
%TO.P,J5,1*%
%TO.N,/CE*%
X46482000Y56896000D03*
%TO.P,J5,2*%
X46482000Y54356000D03*
%TD*%
%TO.P,J6,1*%
%TO.N,/STAT2*%
X41402000Y56896000D03*
%TO.P,J6,2*%
X41402000Y54356000D03*
%TD*%
%TO.P,J7,1*%
%TO.N,GND*%
X31750000Y3810000D03*
%TO.P,J7,2*%
X31750000Y6350000D03*
%TO.P,J7,3*%
%TO.N,/BATTERY+*%
X34290000Y3810000D03*
%TO.P,J7,4*%
X34290000Y6350000D03*
%TO.P,J7,5*%
X36830000Y3810000D03*
%TO.P,J7,6*%
X36830000Y6350000D03*
%TO.P,J7,7*%
%TO.N,GND*%
X39370000Y3810000D03*
%TO.P,J7,8*%
X39370000Y6350000D03*
%TD*%
D11*
%TO.P,J9,1*%
%TO.N,GND*%
X14939000Y2921000D03*
X19939000Y2921000D03*
%TD*%
D10*
%TO.P,J10,1*%
%TO.N,/SDA*%
X62865000Y54991000D03*
%TO.P,J10,2*%
X62865000Y52451000D03*
%TD*%
%TO.P,J11,1*%
%TO.N,/SCL*%
X65405000Y54991000D03*
%TO.P,J11,2*%
X65405000Y52451000D03*
%TD*%
%TO.P,J12,1*%
%TO.N,/HDQ*%
X67945000Y54991000D03*
%TO.P,J12,2*%
X67945000Y52451000D03*
%TD*%
%TO.P,J13,1*%
%TO.N,GND*%
X59690000Y56896000D03*
%TO.P,J13,2*%
X59690000Y54356000D03*
%TO.P,J13,3*%
%TO.N,Net-(C10-Pad1)*%
X57150000Y56896000D03*
%TO.P,J13,4*%
X57150000Y54356000D03*
%TO.P,J13,5*%
X54610000Y56896000D03*
%TO.P,J13,6*%
X54610000Y54356000D03*
%TO.P,J13,7*%
%TO.N,GND*%
X52070000Y56896000D03*
%TO.P,J13,8*%
X52070000Y54356000D03*
%TD*%
D12*
%TO.P,P1,1*%
%TO.N,N/C*%
X76200000Y5080000D03*
%TD*%
%TO.P,P2,1*%
%TO.N,N/C*%
X5080000Y55880000D03*
%TD*%
%TO.P,P3,1*%
%TO.N,N/C*%
X5080000Y5080000D03*
%TD*%
%TO.P,P4,1*%
%TO.N,N/C*%
X76200000Y55880000D03*
%TD*%
D13*
%TO.P,R15,1*%
%TO.N,GND*%
X11874500Y40386000D03*
%TO.P,R15,2*%
%TO.N,Net-(R13-Pad1)*%
X13779500Y40386000D03*
%TD*%
%TO.P,R17,1*%
%TO.N,Net-(C14-Pad1)*%
X69405500Y21082000D03*
%TO.P,R17,2*%
%TO.N,Net-(R17-Pad2)*%
X67500500Y21082000D03*
%TD*%
D11*
%TO.P,J8,1*%
%TO.N,/BATTERY+*%
X14939000Y7874000D03*
X19939000Y7874000D03*
%TD*%
D14*
%TO.P,SW1,1*%
%TO.N,Net-(R20-Pad1)*%
X64033000Y7838000D03*
X70333000Y7838000D03*
%TO.P,SW1,2*%
%TO.N,Net-(SW1-Pad2)*%
X64033000Y3338000D03*
X70333000Y3338000D03*
%TD*%
D10*
%TO.P,J14,1*%
%TO.N,GND*%
X70485000Y54991000D03*
%TO.P,J14,2*%
X70485000Y52451000D03*
%TD*%
D15*
%TO.P,BT1,1*%
%TO.N,/BAT+*%
X4326500Y40511000D03*
%TO.P,BT1,2*%
%TO.N,/BAT-MIDPOINT*%
X76826500Y40511000D03*
%TO.P,BT1,3*%
X4326500Y21211000D03*
%TO.P,BT1,4*%
%TO.N,/BATTERY-*%
X76826500Y21211000D03*
%TD*%
D16*
%TO.P,U2,21*%
%TO.N,GND*%
X26416000Y42545000D03*
X27686000Y42545000D03*
X27051000Y43688000D03*
X26416000Y44831000D03*
X27686000Y44831000D03*
%TD*%
D17*
%TO.N,/BAT+*%
X16764000Y28956000D03*
X32639000Y13208000D03*
X10922000Y34290000D03*
%TO.N,GND*%
X33528000Y1524000D03*
X61468000Y18542000D03*
X45161200Y16967200D03*
X72009000Y44386500D03*
X57912000Y59182000D03*
X68834000Y37338000D03*
X15494000Y45720000D03*
X37592000Y49149000D03*
X2857500Y17335500D03*
X31115000Y15811500D03*
X11684000Y44450000D03*
X7620000Y24638000D03*
X3619500Y16065500D03*
X33528000Y11557000D03*
X35433000Y16637000D03*
X12192000Y1524000D03*
X76581000Y29083000D03*
X7874000Y46228000D03*
X14224000Y33147000D03*
X73406000Y13208000D03*
X73406000Y14986000D03*
X32766000Y20320000D03*
X26924000Y46990000D03*
X14351000Y14351000D03*
X70104000Y10414000D03*
X15748000Y33147000D03*
X47815500Y33528000D03*
X9144000Y40386000D03*
X68199000Y9144000D03*
X67564000Y17018000D03*
X64262000Y14986000D03*
X52959000Y44640500D03*
X36068612Y46354388D03*
X14224000Y45720000D03*
X10414000Y45720000D03*
X41021000Y22161500D03*
X74676000Y25146000D03*
X7175500Y14478000D03*
X9398000Y44323000D03*
X48895000Y33083500D03*
X4635500Y17589500D03*
X12446000Y43180000D03*
X43357800Y15189200D03*
X13271500Y17589500D03*
X64262000Y11938000D03*
X67818000Y48768000D03*
X76200000Y26416000D03*
X68326000Y27432000D03*
X39370000Y13716000D03*
X46228000Y48260000D03*
X44259500Y32766000D03*
X15331440Y39293800D03*
X1270000Y36004500D03*
X8953500Y14478000D03*
X12954000Y45720000D03*
X77724000Y25146000D03*
X10604500Y14478000D03*
X9906000Y56261000D03*
X39751000Y48387000D03*
X37846000Y18923000D03*
X43688000Y27775180D03*
X71501000Y50292000D03*
X72517000Y50292000D03*
X26733500Y15811500D03*
X37973000Y46355000D03*
X11049000Y42672000D03*
X64262000Y13462000D03*
X4572000Y32575500D03*
X24701500Y15748000D03*
X14668500Y15811500D03*
X73152000Y26289000D03*
X58420000Y21590000D03*
X72263000Y28956000D03*
X49974500Y32575500D03*
X71628000Y26289000D03*
X73660000Y24765000D03*
X59944000Y28194000D03*
X71628000Y19050000D03*
X33908924Y48346468D03*
X39878000Y50927000D03*
X36957000Y45339000D03*
X71247000Y24892000D03*
X69850000Y27432000D03*
X73406000Y16510000D03*
X79502000Y17272000D03*
X45529500Y44323000D03*
X50927000Y21209000D03*
X52621491Y32575500D03*
X12192000Y4318000D03*
X69469000Y14859000D03*
X75438000Y27686000D03*
X4127500Y33909000D03*
X66294000Y47244000D03*
X29210000Y15748000D03*
X4318000Y50038000D03*
X73533000Y28956000D03*
X2540000Y43688000D03*
X33528000Y15811500D03*
X36830612Y47116388D03*
X22987000Y2921000D03*
X65532000Y9652000D03*
X39687500Y20891500D03*
X36576000Y1524000D03*
X54546500Y44577000D03*
X43180000Y24003000D03*
X6096000Y50038000D03*
X2540000Y47498000D03*
X71120000Y28956000D03*
X12446000Y26924000D03*
X44196000Y36258500D03*
X73152000Y11430000D03*
X9906000Y55118000D03*
X48958500Y37274500D03*
X40640000Y49403000D03*
X32004000Y1524000D03*
X70358000Y50292000D03*
X74930000Y29083000D03*
X76962000Y37338000D03*
X44450000Y45212000D03*
X69596000Y28956000D03*
X9906000Y53848000D03*
X8255000Y17589500D03*
X27965400Y47091598D03*
X66929000Y44450000D03*
X20891500Y50736500D03*
X9779000Y17589500D03*
X18445480Y41915080D03*
X26162000Y20447000D03*
X36322000Y21336000D03*
X77978000Y17272000D03*
X8890000Y24637999D03*
X70104000Y11938000D03*
X42418000Y13208000D03*
X26543000Y2921000D03*
X38100000Y1524000D03*
X76200000Y25146000D03*
X65024000Y45974000D03*
X59372500Y49657000D03*
X56388000Y59182000D03*
X30734000Y20320000D03*
X65913000Y14859000D03*
X22316440Y39248080D03*
X50165000Y22098000D03*
X38608000Y51054000D03*
X59436000Y59182000D03*
X73152000Y9398000D03*
X39370000Y11938000D03*
X4064000Y43688000D03*
X2540000Y48768000D03*
X27686000Y2921000D03*
X37465000Y48006000D03*
X28829000Y2921000D03*
X9906000Y57404000D03*
X34544000Y21336000D03*
X49593500Y50165000D03*
X14732000Y17208500D03*
X46228000Y46672500D03*
X7620000Y48006000D03*
X57467500Y47815500D03*
X54864000Y59182000D03*
X51371500Y52070000D03*
X41402000Y23622000D03*
X64262000Y18288000D03*
X63500000Y44450000D03*
X11620500Y17589500D03*
X76454000Y17272000D03*
X39878000Y15240000D03*
X38100000Y50292000D03*
X20259040Y39268400D03*
X60198000Y29972000D03*
X79248000Y25146000D03*
X5588000Y43688000D03*
X20066000Y53086000D03*
X44704000Y46736000D03*
X9906000Y52578000D03*
X67056000Y19050000D03*
X68072000Y28956000D03*
X66548000Y9144000D03*
X61214000Y28194000D03*
X38862000Y47371000D03*
X24257000Y2921000D03*
X59690000Y20320000D03*
X69596000Y13208000D03*
X42926000Y45212000D03*
X66294000Y28448000D03*
X27813002Y20320002D03*
X76708000Y27813000D03*
X53975000Y49720500D03*
X6477000Y17589500D03*
X5016500Y14986000D03*
X74930000Y17272000D03*
X29337000Y20319994D03*
X39116000Y23368000D03*
X2540000Y50038000D03*
X24892000Y18732500D03*
X38735000Y48895000D03*
X55910480Y24241760D03*
X79248000Y26416000D03*
X77724000Y26416000D03*
X13970000Y42672000D03*
X2540000Y46228000D03*
X60960000Y59182000D03*
X41656000Y50419000D03*
X73152000Y18288000D03*
X30480000Y1524000D03*
X44196000Y25019000D03*
X60198000Y34163000D03*
X64389000Y9652000D03*
X73787000Y50292000D03*
X9652000Y33147000D03*
X24910607Y50101500D03*
X10541000Y40386000D03*
X46736000Y27114500D03*
X77406500Y44577000D03*
X72136000Y17526000D03*
X46736000Y17780000D03*
X7620000Y49276000D03*
X35052000Y1524000D03*
X2540000Y44958000D03*
X72390000Y24765000D03*
X60198000Y37338000D03*
X25400000Y2921000D03*
X9017000Y41910000D03*
X17399000Y30586680D03*
X7112000Y43688000D03*
X51308000Y46926500D03*
X12446000Y14541500D03*
X39624000Y49784000D03*
X16764000Y45720000D03*
X11684000Y45720000D03*
X28448000Y49276000D03*
X12192000Y3048000D03*
%TO.N,/CMODE*%
X40386000Y52451000D03*
%TO.N,Net-(C10-Pad1)*%
X34536057Y37632179D03*
X36957000Y31317000D03*
%TO.N,Net-(C14-Pad1)*%
X69342000Y19812000D03*
X52387500Y27178000D03*
%TO.N,/PG*%
X22352000Y57912000D03*
X21183600Y45237400D03*
%TO.N,/STAT1*%
X36576000Y57912000D03*
X23799800Y38430200D03*
%TO.N,/CE*%
X33374555Y40240311D03*
%TO.N,Net-(R13-Pad1)*%
X31032131Y45742040D03*
%TO.N,Net-(R17-Pad2)*%
X66548000Y20955000D03*
%TO.N,Net-(R31-Pad2)*%
X57213500Y16764000D03*
X57213500Y9652000D03*
%TO.N,Net-(R32-Pad2)*%
X55880000Y11811000D03*
X55880000Y16510000D03*
%TO.N,Net-(R33-Pad2)*%
X58420000Y11811000D03*
X58420000Y15113000D03*
%TO.N,/P1*%
X47434500Y14224000D03*
X52514500Y24193500D03*
%TO.N,+3V3*%
X41427400Y2387600D03*
X53149500Y35052000D03*
X41148000Y11176000D03*
X50927000Y26543000D03*
%TO.N,Net-(R25-Pad1)*%
X48958500Y28321000D03*
X51371500Y34480500D03*
%TO.N,/CB_EN*%
X14834564Y28826891D03*
X13396489Y26304571D03*
%TO.N,/STAT2*%
X31318200Y41148000D03*
X30988000Y57912000D03*
%TO.N,Net-(R5-Pad2)*%
X34335720Y43845480D03*
X36377519Y49445082D03*
%TD*%
D18*
%TO.N,/BAT+*%
X32194500Y12763500D02*
X32639000Y13208000D01*
X4390000Y36521000D02*
X1336040Y33467040D01*
X1336040Y16316960D02*
X4889500Y12763500D01*
X1336040Y33467040D02*
X1336040Y16316960D01*
D19*
X16256000Y28956000D02*
X16764000Y28956000D01*
X10922000Y34290000D02*
X16256000Y28956000D01*
D18*
X4390000Y40384000D02*
X4390000Y36521000D01*
X4889500Y12763500D02*
X32194500Y12763500D01*
D20*
%TO.N,GND*%
X2540000Y43688000D02*
X4064000Y43688000D01*
X52070000Y56896000D02*
X52070000Y57838000D01*
D21*
X39751000Y48387000D02*
X39751000Y48260000D01*
D20*
X59944000Y28194000D02*
X61214000Y28194000D01*
D22*
X54038500Y49657000D02*
X53975000Y49720500D01*
D20*
X66548000Y9144000D02*
X68199000Y9144000D01*
X46228000Y48260000D02*
X44704000Y46736000D01*
X67056000Y19050000D02*
X66294000Y18288000D01*
X45606199Y17412199D02*
X45161200Y16967200D01*
X14668001Y42735999D02*
X14604002Y42672000D01*
D21*
X38100000Y50292000D02*
X38100000Y50546000D01*
D19*
X79502000Y17272000D02*
X77978000Y17272000D01*
X72136000Y17526000D02*
X72390000Y17526000D01*
D20*
X9906000Y55372000D02*
X9906000Y55118000D01*
X12192000Y3048000D02*
X12192000Y1524000D01*
X41148000Y23368000D02*
X41402000Y23622000D01*
D21*
X37465000Y49022000D02*
X37592000Y49149000D01*
D19*
X8889999Y24638000D02*
X8890000Y24637999D01*
D20*
X12065000Y3175000D02*
X12065000Y1977388D01*
X70104000Y11938000D02*
X70104000Y12700000D01*
D19*
X72390000Y17526000D02*
X73406000Y16510000D01*
D20*
X5588000Y43688000D02*
X7112000Y43688000D01*
D19*
X27686000Y2921000D02*
X28829000Y2921000D01*
D22*
X51371500Y52070000D02*
X51371500Y51943000D01*
X59372500Y49657000D02*
X54038500Y49657000D01*
D20*
X55910480Y24099520D02*
X55910480Y24241760D01*
X74930000Y29083000D02*
X76581000Y29083000D01*
X66294000Y18288000D02*
X64262000Y18288000D01*
X60198000Y29972000D02*
X60198000Y34163000D01*
D21*
X39878000Y50038000D02*
X39624000Y49784000D01*
D22*
X1270000Y36322000D02*
X1270000Y36004500D01*
D20*
X1270000Y36322000D02*
X1270000Y35814000D01*
X29337000Y21336000D02*
X29337000Y20949319D01*
X28829000Y2921000D02*
X30226000Y1524000D01*
X34544000Y21336000D02*
X36322000Y21336000D01*
X29083000Y21590000D02*
X29337000Y21336000D01*
D22*
X4572000Y33464500D02*
X4127500Y33909000D01*
D20*
X1738999Y44918999D02*
X1270000Y44450000D01*
X3302000Y49276000D02*
X2540000Y50038000D01*
X73152000Y11430000D02*
X73152000Y9398000D01*
X1270000Y35814000D02*
X2540000Y35814000D01*
X42912801Y14744201D02*
X43357800Y15189200D01*
X10287000Y41910000D02*
X10604001Y42227001D01*
D19*
X77724000Y26416000D02*
X76200000Y26416000D01*
D20*
X70485000Y52451000D02*
X70485000Y50419000D01*
X70104000Y12700000D02*
X69596000Y13208000D01*
X52070000Y57838000D02*
X53414000Y59182000D01*
D19*
X73660000Y24511000D02*
X74676000Y25146000D01*
D20*
X42418000Y14249400D02*
X42912801Y14744201D01*
X27686004Y20447000D02*
X27813002Y20320002D01*
D22*
X37846000Y19050000D02*
X39687500Y20891500D01*
D20*
X45974000Y17780000D02*
X45606199Y17412199D01*
D21*
X14351000Y14351000D02*
X12636500Y14351000D01*
D20*
X67564000Y16764000D02*
X67564000Y17018000D01*
D22*
X54483000Y44640500D02*
X54546500Y44577000D01*
D21*
X37973000Y46355000D02*
X36957000Y45339000D01*
D22*
X29210000Y15748000D02*
X31051500Y15748000D01*
D20*
X11176000Y46228000D02*
X14668001Y42735999D01*
X61468000Y18542000D02*
X55910480Y24099520D01*
X71501000Y50292000D02*
X72517000Y50292000D01*
X26162000Y20447000D02*
X27686004Y20447000D01*
X27965400Y48793400D02*
X27965400Y47720923D01*
D22*
X31051500Y15748000D02*
X31115000Y15811500D01*
X34607500Y15811500D02*
X35433000Y16637000D01*
D20*
X29337000Y20949319D02*
X29337000Y20319994D01*
X69850000Y27432000D02*
X69850000Y28702000D01*
X11684000Y44450000D02*
X11684000Y45720000D01*
X15331440Y39293800D02*
X20233640Y39293800D01*
D22*
X37846000Y18923000D02*
X37846000Y19050000D01*
D20*
X30226000Y1524000D02*
X30480000Y1524000D01*
D22*
X33909000Y11938000D02*
X33528000Y11557000D01*
X60198000Y37338000D02*
X60198000Y34163000D01*
D21*
X37465000Y48006000D02*
X37465000Y49022000D01*
D20*
X64262000Y11938000D02*
X68580000Y11938000D01*
X69469000Y14859000D02*
X67564000Y16764000D01*
D19*
X68326000Y27432000D02*
X69850000Y27432000D01*
D21*
X12636500Y14351000D02*
X12446000Y14541500D01*
D22*
X33528000Y15811500D02*
X34607500Y15811500D01*
D20*
X30734000Y20320000D02*
X32766000Y20320000D01*
X4318000Y50038000D02*
X6096000Y50038000D01*
X68580000Y11938000D02*
X70104000Y10414000D01*
X1270000Y44450000D02*
X1270000Y36322000D01*
X12065000Y4445000D02*
X12065000Y3556000D01*
X68834000Y37338000D02*
X76962000Y37338000D01*
D21*
X3619500Y16065500D02*
X3619500Y16573500D01*
D20*
X9398000Y44323000D02*
X13081000Y44323000D01*
D21*
X48323500Y33083500D02*
X48895000Y33083500D01*
X38100000Y50546000D02*
X38608000Y51054000D01*
D20*
X14599325Y42672000D02*
X13970000Y42672000D01*
X65913000Y14859000D02*
X69469000Y14859000D01*
D22*
X24701500Y15748000D02*
X26670000Y15748000D01*
D21*
X39624000Y49784000D02*
X38735000Y48895000D01*
D20*
X10604001Y42227001D02*
X11049000Y42672000D01*
D19*
X76200000Y25146000D02*
X77724000Y25146000D01*
D20*
X9017000Y41910000D02*
X10287000Y41910000D01*
D19*
X79248000Y25146000D02*
X79248000Y26416000D01*
D20*
X7620000Y49276000D02*
X3302000Y49276000D01*
X9906000Y53848000D02*
X9906000Y52578000D01*
X39370000Y11938000D02*
X39370000Y13716000D01*
X7620000Y49276000D02*
X7620000Y48006000D01*
D21*
X7175500Y14478000D02*
X5524500Y14478000D01*
X39751000Y48260000D02*
X38862000Y47371000D01*
X46736000Y31496000D02*
X48323500Y33083500D01*
X36068612Y46354388D02*
X36830612Y47116388D01*
D20*
X14604002Y42672000D02*
X14599325Y42672000D01*
X42926000Y45212000D02*
X44450000Y45212000D01*
D22*
X4572000Y32575500D02*
X4572000Y33464500D01*
D20*
X50165000Y21971000D02*
X50927000Y21209000D01*
X73787000Y50292000D02*
X75057000Y50292000D01*
X67818000Y48768000D02*
X66294000Y47244000D01*
D22*
X54546500Y44894500D02*
X57467500Y47815500D01*
X26162000Y20447000D02*
X26162000Y20002500D01*
D21*
X8255000Y17589500D02*
X9779000Y17589500D01*
D20*
X16764000Y45720000D02*
X15494000Y45720000D01*
X27965400Y47720923D02*
X27965400Y47091598D01*
D21*
X43688000Y27775180D02*
X43688000Y32194500D01*
D20*
X53414000Y59182000D02*
X54864000Y59182000D01*
X73406000Y14986000D02*
X73406000Y13208000D01*
X42418000Y13208000D02*
X42418000Y14249400D01*
D21*
X41656000Y50419000D02*
X40640000Y49403000D01*
D20*
X2119999Y44918999D02*
X1738999Y44918999D01*
X58420000Y21590000D02*
X59690000Y20320000D01*
D21*
X10604500Y14478000D02*
X8953500Y14478000D01*
D20*
X2540000Y46228000D02*
X2540000Y44958000D01*
X35052000Y1524000D02*
X36576000Y1524000D01*
X59436000Y59182000D02*
X60960000Y59182000D01*
X76200000Y26416000D02*
X76200000Y26924000D01*
D19*
X71247000Y24892000D02*
X72390000Y24765000D01*
D21*
X43688000Y32194500D02*
X44259500Y32766000D01*
D20*
X50165000Y22098000D02*
X50165000Y21971000D01*
D19*
X74930000Y27432000D02*
X71628000Y26289000D01*
D21*
X4635500Y17589500D02*
X6477000Y17589500D01*
D22*
X48260000Y33083500D02*
X47815500Y33528000D01*
X66929000Y44450000D02*
X71945500Y44450000D01*
D20*
X11874500Y40386000D02*
X10541000Y40386000D01*
D21*
X5524500Y14478000D02*
X5016500Y14986000D01*
D22*
X71945500Y44450000D02*
X72009000Y44386500D01*
D19*
X73660000Y24765000D02*
X73660000Y24511000D01*
X76454000Y17272000D02*
X74930000Y17272000D01*
D21*
X46736000Y27114500D02*
X46736000Y31496000D01*
D20*
X15748000Y33147000D02*
X14224000Y33147000D01*
X12192000Y4318000D02*
X12192000Y3302000D01*
D19*
X25400000Y2921000D02*
X26543000Y2921000D01*
X72390000Y18288000D02*
X71628000Y19050000D01*
D20*
X64262000Y14986000D02*
X64262000Y13462000D01*
D21*
X11620500Y17589500D02*
X13271500Y17589500D01*
D20*
X56388000Y59182000D02*
X57912000Y59182000D01*
X44196000Y25019000D02*
X43180000Y24003000D01*
D22*
X39370000Y11938000D02*
X33909000Y11938000D01*
D20*
X67310000Y27432000D02*
X66294000Y28448000D01*
X76200000Y26924000D02*
X75438000Y27686000D01*
X13081000Y44323000D02*
X14668001Y42735999D01*
X9906000Y57404000D02*
X9906000Y56261000D01*
D22*
X54546500Y44577000D02*
X54546500Y44894500D01*
D20*
X39116000Y23368000D02*
X41148000Y23368000D01*
D21*
X3619500Y16573500D02*
X2857500Y17335500D01*
D19*
X73152000Y26289000D02*
X74930000Y27432000D01*
D20*
X2540000Y48768000D02*
X2540000Y47498000D01*
X70485000Y50419000D02*
X70358000Y50292000D01*
D22*
X52959000Y44640500D02*
X54483000Y44640500D01*
D20*
X20233640Y39293800D02*
X20259040Y39268400D01*
X14224000Y45720000D02*
X12954000Y45720000D01*
D22*
X51371500Y51943000D02*
X49593500Y50165000D01*
D20*
X46228000Y46672500D02*
X45529500Y44323000D01*
D19*
X7620000Y24638000D02*
X8889999Y24638000D01*
X22987000Y2921000D02*
X24257000Y2921000D01*
D20*
X68326000Y27432000D02*
X67310000Y27432000D01*
X71120000Y28956000D02*
X72263000Y28956000D01*
D19*
X73152000Y18288000D02*
X72390000Y18288000D01*
D20*
X65024000Y45974000D02*
X63500000Y44450000D01*
X9906000Y52578000D02*
X2119999Y44918999D01*
D21*
X39878000Y50927000D02*
X39878000Y50038000D01*
D20*
X65532000Y9652000D02*
X64389000Y9652000D01*
X28448000Y49276000D02*
X27965400Y48793400D01*
X32004000Y1524000D02*
X33528000Y1524000D01*
D21*
X14732000Y15875000D02*
X14668500Y15811500D01*
D22*
X26670000Y15748000D02*
X26733500Y15811500D01*
X26162000Y20002500D02*
X24892000Y18732500D01*
D20*
X7874000Y46228000D02*
X11176000Y46228000D01*
X69850000Y28702000D02*
X69596000Y28956000D01*
X46736000Y17780000D02*
X45974000Y17780000D01*
D21*
X14732000Y17208500D02*
X14732000Y15875000D01*
D22*
X48895000Y33083500D02*
X48260000Y33083500D01*
D19*
%TO.N,/CMODE*%
X40386000Y52451000D02*
X43199000Y52451000D01*
X43942000Y53194000D02*
X43942000Y54356000D01*
X43199000Y52451000D02*
X43942000Y53194000D01*
%TO.N,Net-(C10-Pad1)*%
X36957000Y34581911D02*
X36957000Y31317000D01*
X34536057Y37002854D02*
X36957000Y34581911D01*
X34536057Y37632179D02*
X34536057Y37002854D01*
%TO.N,Net-(C14-Pad1)*%
X52832499Y26733001D02*
X64008499Y26733001D01*
X69405500Y21336000D02*
X69405500Y21082000D01*
X69469000Y21018500D02*
X69405500Y21082000D01*
X52387500Y27178000D02*
X52832499Y26733001D01*
X69342000Y19812000D02*
X69342000Y21018500D01*
X64008499Y26733001D02*
X69405500Y21336000D01*
X69342000Y21018500D02*
X69405500Y21082000D01*
%TO.N,/PG*%
X22352000Y57912000D02*
X22352000Y50673000D01*
X38862000Y54356000D02*
X38862000Y56896000D01*
X21183600Y49504600D02*
X21183600Y45237400D01*
X22352000Y50673000D02*
X21183600Y49504600D01*
%TO.N,/STAT1*%
X49022000Y53194000D02*
X49022000Y54356000D01*
X42608500Y47561500D02*
X33477200Y38430200D01*
X33477200Y38430200D02*
X23799800Y38430200D01*
X49022000Y53194000D02*
X43389500Y47561500D01*
X48723501Y58356499D02*
X49022000Y58058000D01*
X37020499Y58356499D02*
X48723501Y58356499D01*
X49022000Y54356000D02*
X49022000Y57912000D01*
X49022000Y58058000D02*
X49022000Y56896000D01*
X36576000Y57912000D02*
X37020499Y58356499D01*
X43389500Y47561500D02*
X42608500Y47561500D01*
%TO.N,/CE*%
X33547000Y40259000D02*
X33375600Y40259000D01*
X46482000Y54356000D02*
X46482000Y53194000D01*
X46482000Y53194000D02*
X33547000Y40259000D01*
D23*
%TO.N,Net-(R13-Pad1)*%
X20060318Y40408842D02*
X20823522Y40408842D01*
X31032131Y42131931D02*
X31032131Y45112715D01*
X29286200Y40386000D02*
X31032131Y42131931D01*
X20823522Y40408842D02*
X20846364Y40386000D01*
X20037476Y40386000D02*
X20060318Y40408842D01*
X13779500Y40386000D02*
X20037476Y40386000D01*
X31032131Y45112715D02*
X31032131Y45742040D01*
X20846364Y40386000D02*
X29286200Y40386000D01*
D19*
%TO.N,Net-(R17-Pad2)*%
X66675000Y21082000D02*
X66548000Y20955000D01*
X67373500Y20955000D02*
X67500500Y21082000D01*
X67500500Y21082000D02*
X66675000Y21082000D01*
%TO.N,Net-(R31-Pad2)*%
X57213500Y9652000D02*
X57213500Y16764000D01*
%TO.N,Net-(R32-Pad2)*%
X55880000Y16510000D02*
X55880000Y11811000D01*
%TO.N,Net-(R33-Pad2)*%
X58420000Y15113000D02*
X58420000Y11811000D01*
%TO.N,/P1*%
X52514500Y15938500D02*
X50800000Y14224000D01*
X50800000Y14224000D02*
X47434500Y14224000D01*
X52514500Y24193500D02*
X52514500Y15938500D01*
D22*
%TO.N,+3V3*%
X40982401Y2832599D02*
X41427400Y2387600D01*
X40703001Y10731001D02*
X40703001Y3111999D01*
X40703001Y3111999D02*
X40982401Y2832599D01*
X53566501Y34634999D02*
X53149500Y35052000D01*
X53566501Y29811826D02*
X53566501Y34634999D01*
X50927000Y27172325D02*
X53566501Y29811826D01*
X41148000Y11176000D02*
X40703001Y10731001D01*
X50927000Y26543000D02*
X50927000Y27172325D01*
D19*
%TO.N,Net-(R25-Pad1)*%
X51371500Y30734000D02*
X51371500Y34480500D01*
X48958500Y28321000D02*
X51371500Y30734000D01*
%TO.N,/CB_EN*%
X14834564Y28826891D02*
X14834564Y27742646D01*
X14834564Y27742646D02*
X13396489Y26304571D01*
D23*
%TO.N,/STAT2*%
X34803599Y53243999D02*
X32207200Y55840398D01*
X40289999Y53243999D02*
X34803599Y53243999D01*
X32207200Y56692800D02*
X30988000Y57912000D01*
X31902400Y50342800D02*
X31902400Y41732200D01*
X34803599Y53243999D02*
X31902400Y50342800D01*
X41402000Y54356000D02*
X40289999Y53243999D01*
X32207200Y55840398D02*
X32207200Y56692800D01*
D21*
X41402000Y54356000D02*
X40995998Y54356000D01*
D23*
X31902400Y41732200D02*
X31318200Y41148000D01*
D19*
%TO.N,Net-(R5-Pad2)*%
X36377519Y47858319D02*
X34335720Y45816520D01*
X36377519Y49445082D02*
X36377519Y47858319D01*
X34335720Y44474805D02*
X34335720Y43845480D01*
X34335720Y45816520D02*
X34335720Y44474805D01*
%TD*%
%TA.AperFunction,Conductor*%
%TO.N,/BAT-MIDPOINT*%
G36*
X79190121Y43159998D02*
G01*
X79236614Y43106342D01*
X79248000Y43054000D01*
X79248000Y38480000D01*
X79227998Y38411879D01*
X79174342Y38365386D01*
X79122000Y38354000D01*
X42418000Y38354000D01*
X42418000Y25272000D01*
X42397998Y25203879D01*
X42344342Y25157386D01*
X42292000Y25146000D01*
X22606000Y25146000D01*
X22605998Y25145999D01*
X16038905Y18578905D01*
X15976593Y18544879D01*
X15949810Y18542000D01*
X2412000Y18542000D01*
X2343879Y18562002D01*
X2297386Y18615658D01*
X2286000Y18668000D01*
X2286000Y23115000D01*
X2306002Y23183121D01*
X2359658Y23229614D01*
X2412000Y23241000D01*
X14986001Y23241000D01*
X21807095Y30062095D01*
X21869407Y30096121D01*
X21896190Y30099000D01*
X37592000Y30099000D01*
X37592000Y30556201D01*
X37612002Y30624322D01*
X37624932Y30640367D01*
X37624878Y30640412D01*
X37746956Y30789164D01*
X37746958Y30789167D01*
X37834755Y30953422D01*
X37888820Y31131650D01*
X37888821Y31131658D01*
X37907075Y31316996D01*
X37907075Y31317003D01*
X37888821Y31502341D01*
X37888820Y31502341D01*
X37888820Y31502350D01*
X37834755Y31680578D01*
X37746958Y31844833D01*
X37686100Y31918987D01*
X37658347Y31984332D01*
X37657500Y31998920D01*
X37657500Y34650902D01*
X37657499Y34650907D01*
X37653480Y34671110D01*
X37630580Y34786239D01*
X37630366Y34786755D01*
X37601590Y34856225D01*
X37592000Y34904441D01*
X37592000Y41502153D01*
X37612002Y41570274D01*
X37628905Y41591248D01*
X39180752Y43143095D01*
X39243064Y43177121D01*
X39269847Y43180000D01*
X79122000Y43180000D01*
X79190121Y43159998D01*
G37*
%TD.AperFunction*%
%TD*%
%TA.AperFunction,Conductor*%
%TO.N,GND*%
G36*
X80957621Y60675498D02*
G01*
X81004114Y60621842D01*
X81015500Y60569500D01*
X81015500Y390500D01*
X80995498Y322379D01*
X80941842Y275886D01*
X80889500Y264500D01*
X390500Y264500D01*
X322379Y284502D01*
X275886Y338158D01*
X264500Y390500D01*
X264500Y5080003D01*
X1074675Y5080003D01*
X1074675Y5079996D01*
X1093962Y4687412D01*
X1093963Y4687398D01*
X1133846Y4418531D01*
X1151636Y4298600D01*
X1199389Y4107958D01*
X1247144Y3917310D01*
X1379561Y3547230D01*
X1435581Y3428786D01*
X1494711Y3303766D01*
X1547621Y3191899D01*
X1749696Y2854756D01*
X1983834Y2539057D01*
X2247808Y2247808D01*
X2539057Y1983834D01*
X2854756Y1749696D01*
X3191899Y1547621D01*
X3547230Y1379561D01*
X3917310Y1247144D01*
X4107958Y1199389D01*
X4298600Y1151636D01*
X4298604Y1151635D01*
X4298606Y1151635D01*
X4687398Y1093963D01*
X4687406Y1093962D01*
X4687409Y1093962D01*
X4855662Y1085696D01*
X5079996Y1074675D01*
X5080000Y1074675D01*
X5080004Y1074675D01*
X5276295Y1084318D01*
X5472591Y1093962D01*
X5472594Y1093962D01*
X5472601Y1093963D01*
X5861393Y1151635D01*
X5861400Y1151636D01*
X6146995Y1223174D01*
X6242689Y1247144D01*
X6612769Y1379561D01*
X6612772Y1379562D01*
X6968097Y1547619D01*
X7248684Y1715796D01*
X7305243Y1749696D01*
X7620942Y1983834D01*
X7645077Y2005709D01*
X7912192Y2247808D01*
X8176158Y2539049D01*
X8176159Y2539050D01*
X8176165Y2539057D01*
X8410303Y2854756D01*
X8446671Y2915433D01*
X8612381Y3191903D01*
X8780438Y3547228D01*
X8912857Y3917316D01*
X9008364Y4298600D01*
X9066038Y4687409D01*
X9084642Y5066091D01*
X9085325Y5079996D01*
X9085325Y5080003D01*
X9080948Y5169095D01*
X9066038Y5472591D01*
X9008364Y5861400D01*
X8912857Y6242684D01*
X8780438Y6612772D01*
X8612381Y6968097D01*
X8410306Y7305239D01*
X8182428Y7612497D01*
X8176165Y7620942D01*
X8176163Y7620943D01*
X8176158Y7620951D01*
X7912192Y7912192D01*
X7620951Y8176158D01*
X7305239Y8410306D01*
X6968097Y8612381D01*
X6612772Y8780438D01*
X6242684Y8912857D01*
X5861400Y9008364D01*
X5472591Y9066038D01*
X5135384Y9082604D01*
X5080004Y9085325D01*
X5079996Y9085325D01*
X5022590Y9082504D01*
X4687409Y9066038D01*
X4298600Y9008364D01*
X3917316Y8912857D01*
X3547228Y8780438D01*
X3191903Y8612381D01*
X2854761Y8410306D01*
X2854756Y8410303D01*
X2539057Y8176165D01*
X2539050Y8176159D01*
X2539049Y8176158D01*
X2247808Y7912192D01*
X1983842Y7620951D01*
X1983834Y7620942D01*
X1749696Y7305243D01*
X1615680Y7081649D01*
X1547619Y6968097D01*
X1447999Y6757469D01*
X1379561Y6612769D01*
X1247144Y6242689D01*
X1247143Y6242684D01*
X1151636Y5861400D01*
X1151635Y5861393D01*
X1093963Y5472601D01*
X1093962Y5472587D01*
X1074675Y5080003D01*
X264500Y5080003D01*
X264500Y9826878D01*
X12533500Y9826878D01*
X12533500Y5921135D01*
X12533502Y5921114D01*
X12539908Y5861519D01*
X12539908Y5861518D01*
X12590201Y5726673D01*
X12590203Y5726670D01*
X12676453Y5611453D01*
X12791670Y5525203D01*
X12791673Y5525201D01*
X12926516Y5474909D01*
X12926513Y5474909D01*
X12986126Y5468500D01*
X12986127Y5468500D01*
X16891864Y5468500D01*
X16891885Y5468502D01*
X16951480Y5474908D01*
X16951481Y5474908D01*
X17086326Y5525201D01*
X17086329Y5525203D01*
X17086331Y5525204D01*
X17124591Y5553845D01*
X17201546Y5611453D01*
X17244671Y5669061D01*
X17287796Y5726669D01*
X17287798Y5726673D01*
X17320944Y5815543D01*
X17363490Y5872379D01*
X17430010Y5897190D01*
X17499385Y5882099D01*
X17549587Y5831897D01*
X17557056Y5815543D01*
X17590202Y5726671D01*
X17590203Y5726670D01*
X17676453Y5611453D01*
X17791670Y5525203D01*
X17791673Y5525201D01*
X17926516Y5474909D01*
X17926513Y5474909D01*
X17986126Y5468500D01*
X17986127Y5468500D01*
X21891864Y5468500D01*
X21891885Y5468502D01*
X21951480Y5474908D01*
X21951481Y5474908D01*
X22086326Y5525201D01*
X22086329Y5525203D01*
X22086331Y5525204D01*
X22124591Y5553845D01*
X22201546Y5611453D01*
X22244671Y5669061D01*
X22287796Y5726669D01*
X22287796Y5726671D01*
X22287798Y5726673D01*
X22327043Y5831897D01*
X22338091Y5861517D01*
X22344500Y5921127D01*
X22344500Y7159878D01*
X33027500Y7159878D01*
X33027500Y5540135D01*
X33027502Y5540114D01*
X33033908Y5480519D01*
X33033908Y5480518D01*
X33084201Y5345673D01*
X33084203Y5345670D01*
X33170452Y5230455D01*
X33202061Y5206792D01*
X33236693Y5180866D01*
X33279239Y5124032D01*
X33284303Y5053216D01*
X33250278Y4990904D01*
X33236697Y4979136D01*
X33170454Y4929546D01*
X33170453Y4929545D01*
X33170452Y4929544D01*
X33127086Y4871614D01*
X33120868Y4863307D01*
X33084203Y4814329D01*
X33084201Y4814326D01*
X33033909Y4679484D01*
X33027500Y4619878D01*
X33027500Y3000135D01*
X33027502Y3000114D01*
X33033908Y2940519D01*
X33033908Y2940518D01*
X33084201Y2805673D01*
X33084203Y2805670D01*
X33170453Y2690453D01*
X33285670Y2604203D01*
X33285673Y2604201D01*
X33420516Y2553909D01*
X33420513Y2553909D01*
X33480126Y2547500D01*
X33480127Y2547500D01*
X35099864Y2547500D01*
X35099885Y2547502D01*
X35159480Y2553908D01*
X35159481Y2553908D01*
X35294326Y2604201D01*
X35294329Y2604203D01*
X35294331Y2604204D01*
X35351614Y2647086D01*
X35409544Y2690452D01*
X35409544Y2690453D01*
X35409546Y2690454D01*
X35459133Y2756693D01*
X35515968Y2799239D01*
X35586784Y2804303D01*
X35649096Y2770278D01*
X35660863Y2756697D01*
X35664996Y2751178D01*
X35710455Y2690452D01*
X35825670Y2604203D01*
X35825673Y2604201D01*
X35960516Y2553909D01*
X35960513Y2553909D01*
X36020126Y2547500D01*
X36020127Y2547500D01*
X37639864Y2547500D01*
X37639885Y2547502D01*
X37699480Y2553908D01*
X37699481Y2553908D01*
X37834326Y2604201D01*
X37834329Y2604203D01*
X37834331Y2604204D01*
X37872591Y2632845D01*
X37949546Y2690453D01*
X37995004Y2751178D01*
X38035796Y2805669D01*
X38035796Y2805671D01*
X38035798Y2805673D01*
X38086090Y2940515D01*
X38086091Y2940517D01*
X38092500Y3000127D01*
X38092499Y4619872D01*
X38086091Y4679483D01*
X38035796Y4814331D01*
X37949546Y4929546D01*
X37883306Y4979133D01*
X37840760Y5035968D01*
X37835696Y5106783D01*
X37869721Y5169095D01*
X37883302Y5180863D01*
X37949546Y5230454D01*
X38035796Y5345669D01*
X38035796Y5345671D01*
X38035798Y5345673D01*
X38083135Y5472591D01*
X38086091Y5480517D01*
X38092500Y5540127D01*
X38092499Y7159872D01*
X38086091Y7219483D01*
X38035796Y7354331D01*
X37949546Y7469546D01*
X37834331Y7555796D01*
X37699483Y7606091D01*
X37639873Y7612500D01*
X36020128Y7612499D01*
X35960517Y7606091D01*
X35903435Y7584800D01*
X35825673Y7555798D01*
X35825671Y7555796D01*
X35825669Y7555796D01*
X35710454Y7469546D01*
X35660866Y7403306D01*
X35604032Y7360760D01*
X35533217Y7355696D01*
X35470905Y7389721D01*
X35459136Y7403302D01*
X35409546Y7469546D01*
X35294331Y7555796D01*
X35159483Y7606091D01*
X35099873Y7612500D01*
X33480128Y7612499D01*
X33420517Y7606091D01*
X33363435Y7584800D01*
X33285673Y7555798D01*
X33285671Y7555796D01*
X33285669Y7555796D01*
X33228061Y7512671D01*
X33170453Y7469546D01*
X33084203Y7354329D01*
X33084201Y7354326D01*
X33033909Y7219484D01*
X33027500Y7159878D01*
X22344500Y7159878D01*
X22344499Y9826872D01*
X22338091Y9886483D01*
X22287796Y10021331D01*
X22201546Y10136546D01*
X22086331Y10222796D01*
X21951483Y10273091D01*
X21891873Y10279500D01*
X17986128Y10279499D01*
X17926517Y10273091D01*
X17875294Y10253986D01*
X17791673Y10222798D01*
X17791671Y10222796D01*
X17791669Y10222796D01*
X17734278Y10179833D01*
X17676453Y10136546D01*
X17590203Y10021329D01*
X17590201Y10021326D01*
X17557056Y9932457D01*
X17514510Y9875621D01*
X17447990Y9850809D01*
X17378616Y9865900D01*
X17328413Y9916102D01*
X17320944Y9932457D01*
X17287798Y10021326D01*
X17287797Y10021326D01*
X17287796Y10021331D01*
X17201546Y10136546D01*
X17086331Y10222796D01*
X16951483Y10273091D01*
X16891873Y10279500D01*
X12986128Y10279499D01*
X12926517Y10273091D01*
X12875294Y10253986D01*
X12791673Y10222798D01*
X12791671Y10222796D01*
X12791669Y10222796D01*
X12734278Y10179833D01*
X12676453Y10136546D01*
X12590203Y10021329D01*
X12590201Y10021326D01*
X12539909Y9886484D01*
X12533500Y9826878D01*
X264500Y9826878D01*
X264500Y10809845D01*
X39902501Y10809845D01*
X39902501Y3033154D01*
X39933264Y2878501D01*
X39933266Y2878496D01*
X39993607Y2732819D01*
X40081209Y2601714D01*
X40081210Y2601712D01*
X40360612Y2322310D01*
X40479755Y2203166D01*
X40511233Y2150647D01*
X40549644Y2024024D01*
X40637443Y1859764D01*
X40755596Y1715796D01*
X40899564Y1597643D01*
X41063822Y1509845D01*
X41242050Y1455780D01*
X41242052Y1455779D01*
X41242058Y1455778D01*
X41427397Y1437525D01*
X41427400Y1437525D01*
X41427403Y1437525D01*
X41612741Y1455778D01*
X41612746Y1455779D01*
X41612750Y1455780D01*
X41790978Y1509845D01*
X41955233Y1597642D01*
X41955235Y1597643D01*
X42018390Y1649473D01*
X42099204Y1715796D01*
X42217358Y1859767D01*
X42305155Y2024022D01*
X42359220Y2202250D01*
X42363707Y2247808D01*
X42377475Y2387596D01*
X42377475Y2387603D01*
X42359221Y2572941D01*
X42359220Y2572941D01*
X42359220Y2572950D01*
X42305155Y2751178D01*
X42217358Y2915433D01*
X42099204Y3059404D01*
X41955233Y3177558D01*
X41790978Y3265355D01*
X41664351Y3303766D01*
X41611832Y3335246D01*
X41540406Y3406672D01*
X41506380Y3468984D01*
X41503501Y3495767D01*
X41503501Y4224078D01*
X62694300Y4224078D01*
X62694300Y2451935D01*
X62694302Y2451914D01*
X62700708Y2392319D01*
X62700708Y2392318D01*
X62751001Y2257473D01*
X62751003Y2257470D01*
X62837253Y2142253D01*
X62952470Y2056003D01*
X62952473Y2056001D01*
X63087316Y2005709D01*
X63087313Y2005709D01*
X63146926Y1999300D01*
X63146927Y1999300D01*
X64919064Y1999300D01*
X64919085Y1999302D01*
X64978680Y2005708D01*
X64978681Y2005708D01*
X65113526Y2056001D01*
X65113529Y2056003D01*
X65113531Y2056004D01*
X65151791Y2084645D01*
X65228746Y2142253D01*
X65274345Y2203166D01*
X65314996Y2257469D01*
X65314996Y2257471D01*
X65314998Y2257473D01*
X65363530Y2387596D01*
X65365291Y2392317D01*
X65371700Y2451927D01*
X65371699Y4224072D01*
X65371698Y4224078D01*
X68994300Y4224078D01*
X68994300Y2451935D01*
X68994302Y2451914D01*
X69000708Y2392319D01*
X69000708Y2392318D01*
X69051001Y2257473D01*
X69051003Y2257470D01*
X69137253Y2142253D01*
X69252470Y2056003D01*
X69252473Y2056001D01*
X69387316Y2005709D01*
X69387313Y2005709D01*
X69446926Y1999300D01*
X69446927Y1999300D01*
X71219064Y1999300D01*
X71219085Y1999302D01*
X71278680Y2005708D01*
X71278681Y2005708D01*
X71413526Y2056001D01*
X71413529Y2056003D01*
X71413531Y2056004D01*
X71451791Y2084645D01*
X71528746Y2142253D01*
X71574345Y2203166D01*
X71614996Y2257469D01*
X71614996Y2257471D01*
X71614998Y2257473D01*
X71663530Y2387596D01*
X71665291Y2392317D01*
X71671700Y2451927D01*
X71671699Y4224072D01*
X71665291Y4283683D01*
X71614996Y4418531D01*
X71528746Y4533746D01*
X71413531Y4619996D01*
X71278683Y4670291D01*
X71219073Y4676700D01*
X69446928Y4676699D01*
X69387317Y4670291D01*
X69330235Y4649000D01*
X69252473Y4619998D01*
X69252471Y4619996D01*
X69252469Y4619996D01*
X69194861Y4576871D01*
X69137253Y4533746D01*
X69051003Y4418529D01*
X69051001Y4418526D01*
X69000709Y4283684D01*
X68994300Y4224078D01*
X65371698Y4224078D01*
X65365291Y4283683D01*
X65314996Y4418531D01*
X65228746Y4533746D01*
X65113531Y4619996D01*
X64978683Y4670291D01*
X64919073Y4676700D01*
X63146928Y4676699D01*
X63087317Y4670291D01*
X63030235Y4649000D01*
X62952473Y4619998D01*
X62952471Y4619996D01*
X62952469Y4619996D01*
X62894861Y4576871D01*
X62837253Y4533746D01*
X62751003Y4418529D01*
X62751001Y4418526D01*
X62700709Y4283684D01*
X62694300Y4224078D01*
X41503501Y4224078D01*
X41503501Y5080003D01*
X72194675Y5080003D01*
X72194675Y5079996D01*
X72213962Y4687412D01*
X72213963Y4687398D01*
X72253846Y4418531D01*
X72271636Y4298600D01*
X72319389Y4107958D01*
X72367144Y3917310D01*
X72499561Y3547230D01*
X72555581Y3428786D01*
X72614711Y3303766D01*
X72667621Y3191899D01*
X72869696Y2854756D01*
X73103834Y2539057D01*
X73367808Y2247808D01*
X73659057Y1983834D01*
X73974756Y1749696D01*
X74311899Y1547621D01*
X74667230Y1379561D01*
X75037310Y1247144D01*
X75227958Y1199389D01*
X75418600Y1151636D01*
X75418604Y1151635D01*
X75418606Y1151635D01*
X75807398Y1093963D01*
X75807406Y1093962D01*
X75807409Y1093962D01*
X75975662Y1085696D01*
X76199996Y1074675D01*
X76200000Y1074675D01*
X76200004Y1074675D01*
X76396295Y1084318D01*
X76592591Y1093962D01*
X76592594Y1093962D01*
X76592601Y1093963D01*
X76981393Y1151635D01*
X76981400Y1151636D01*
X77266995Y1223174D01*
X77362689Y1247144D01*
X77732769Y1379561D01*
X77732772Y1379562D01*
X78088097Y1547619D01*
X78368684Y1715796D01*
X78425243Y1749696D01*
X78740942Y1983834D01*
X78765077Y2005709D01*
X79032192Y2247808D01*
X79296158Y2539049D01*
X79296159Y2539050D01*
X79296165Y2539057D01*
X79530303Y2854756D01*
X79566671Y2915433D01*
X79732381Y3191903D01*
X79900438Y3547228D01*
X80032857Y3917316D01*
X80128364Y4298600D01*
X80186038Y4687409D01*
X80204642Y5066091D01*
X80205325Y5079996D01*
X80205325Y5080003D01*
X80200948Y5169095D01*
X80186038Y5472591D01*
X80128364Y5861400D01*
X80032857Y6242684D01*
X79900438Y6612772D01*
X79732381Y6968097D01*
X79530306Y7305239D01*
X79302428Y7612497D01*
X79296165Y7620942D01*
X79296163Y7620943D01*
X79296158Y7620951D01*
X79032192Y7912192D01*
X78740951Y8176158D01*
X78425239Y8410306D01*
X78088097Y8612381D01*
X77732772Y8780438D01*
X77362684Y8912857D01*
X76981400Y9008364D01*
X76592591Y9066038D01*
X76255384Y9082604D01*
X76200004Y9085325D01*
X76199996Y9085325D01*
X76142590Y9082504D01*
X75807409Y9066038D01*
X75418600Y9008364D01*
X75037316Y8912857D01*
X74667228Y8780438D01*
X74311903Y8612381D01*
X73974761Y8410306D01*
X73974756Y8410303D01*
X73659057Y8176165D01*
X73659050Y8176159D01*
X73659049Y8176158D01*
X73367808Y7912192D01*
X73103842Y7620951D01*
X73103834Y7620942D01*
X72869696Y7305243D01*
X72735680Y7081649D01*
X72667619Y6968097D01*
X72567999Y6757469D01*
X72499561Y6612769D01*
X72367144Y6242689D01*
X72367143Y6242684D01*
X72271636Y5861400D01*
X72271635Y5861393D01*
X72213963Y5472601D01*
X72213962Y5472587D01*
X72194675Y5080003D01*
X41503501Y5080003D01*
X41503501Y10218406D01*
X41523503Y10286527D01*
X41570104Y10329528D01*
X41675835Y10386043D01*
X41738990Y10437873D01*
X41819804Y10504196D01*
X41937958Y10648167D01*
X42025755Y10812422D01*
X42079820Y10990650D01*
X42081664Y11009371D01*
X42098075Y11175996D01*
X42098075Y11176003D01*
X42079821Y11361341D01*
X42079820Y11361341D01*
X42079820Y11361350D01*
X42025755Y11539578D01*
X41937958Y11703833D01*
X41819804Y11847804D01*
X41675833Y11965958D01*
X41511578Y12053755D01*
X41333350Y12107820D01*
X41333341Y12107820D01*
X41333341Y12107821D01*
X41148003Y12126075D01*
X41147997Y12126075D01*
X40962658Y12107821D01*
X40962656Y12107820D01*
X40962650Y12107820D01*
X40784422Y12053755D01*
X40620167Y11965958D01*
X40620165Y11965956D01*
X40620164Y11965956D01*
X40574666Y11928616D01*
X40476196Y11847804D01*
X40409873Y11766990D01*
X40358043Y11703835D01*
X40358042Y11703833D01*
X40270245Y11539578D01*
X40231831Y11412948D01*
X40200353Y11360431D01*
X40192712Y11352790D01*
X40081212Y11241290D01*
X40081209Y11241285D01*
X39993607Y11110180D01*
X39933266Y10964503D01*
X39933264Y10964498D01*
X39902501Y10809845D01*
X264500Y10809845D01*
X264500Y15803412D01*
X284502Y15871533D01*
X338158Y15918026D01*
X408432Y15928130D01*
X473012Y15898636D01*
X495265Y15873414D01*
X601621Y15714240D01*
X601626Y15714234D01*
X4286776Y12029084D01*
X4286783Y12029079D01*
X4441633Y11925611D01*
X4441635Y11925609D01*
X4441637Y11925609D01*
X4473737Y11912313D01*
X4473737Y11912312D01*
X4613702Y11854337D01*
X4613707Y11854335D01*
X4796373Y11818000D01*
X4796376Y11818000D01*
X32287626Y11818000D01*
X32470292Y11854335D01*
X32470295Y11854336D01*
X32610260Y11912312D01*
X32642362Y11925609D01*
X32797221Y12029082D01*
X33270346Y12502207D01*
X33279507Y12510511D01*
X33310801Y12536193D01*
X33310804Y12536196D01*
X33336489Y12567493D01*
X33344781Y12576642D01*
X33373418Y12605279D01*
X33395912Y12638944D01*
X33403279Y12648877D01*
X33428959Y12680168D01*
X33448042Y12715869D01*
X33454397Y12726473D01*
X33476890Y12760137D01*
X33476891Y12760138D01*
X33492383Y12797539D01*
X33497668Y12808711D01*
X33516752Y12844415D01*
X33516752Y12844418D01*
X33516755Y12844422D01*
X33528512Y12883180D01*
X33532672Y12894804D01*
X33548163Y12932202D01*
X33548164Y12932206D01*
X33548165Y12932208D01*
X33556062Y12971914D01*
X33559065Y12983900D01*
X33570819Y13022648D01*
X33570820Y13022650D01*
X33574789Y13062953D01*
X33576602Y13075171D01*
X33584499Y13114873D01*
X33584500Y13114877D01*
X33584500Y13155360D01*
X33585107Y13167710D01*
X33589075Y13207997D01*
X33589075Y13208001D01*
X33585107Y13248287D01*
X33584500Y13260638D01*
X33584500Y13301124D01*
X33584499Y13301127D01*
X33576599Y13340841D01*
X33574790Y13353037D01*
X33570820Y13393350D01*
X33559063Y13432101D01*
X33556062Y13444083D01*
X33548165Y13483792D01*
X33532670Y13521199D01*
X33528509Y13532829D01*
X33516757Y13571570D01*
X33516755Y13571578D01*
X33497656Y13607308D01*
X33492387Y13618448D01*
X33476891Y13655862D01*
X33454386Y13689541D01*
X33448042Y13700128D01*
X33428963Y13735824D01*
X33428962Y13735825D01*
X33428958Y13735833D01*
X33403264Y13767139D01*
X33395914Y13777050D01*
X33373418Y13810721D01*
X33344775Y13839363D01*
X33336488Y13848507D01*
X33310804Y13879804D01*
X33279504Y13905490D01*
X33270363Y13913775D01*
X33241721Y13942418D01*
X33208050Y13964914D01*
X33198139Y13972264D01*
X33166833Y13997958D01*
X33131124Y14017044D01*
X33120541Y14023386D01*
X33086862Y14045891D01*
X33049448Y14061387D01*
X33038308Y14066656D01*
X33002578Y14085755D01*
X32963825Y14097510D01*
X32952199Y14101670D01*
X32914792Y14117165D01*
X32875083Y14125062D01*
X32863101Y14128063D01*
X32824350Y14139820D01*
X32784037Y14143790D01*
X32771841Y14145599D01*
X32732124Y14153500D01*
X32691639Y14153500D01*
X32679289Y14154106D01*
X32667170Y14155300D01*
X32639002Y14158075D01*
X32638998Y14158075D01*
X32610829Y14155300D01*
X32598710Y14154106D01*
X32586361Y14153500D01*
X32545876Y14153500D01*
X32506167Y14145601D01*
X32493953Y14143789D01*
X32453650Y14139820D01*
X32434044Y14133872D01*
X32414900Y14128065D01*
X32402914Y14125062D01*
X32363208Y14117165D01*
X32363206Y14117164D01*
X32363202Y14117163D01*
X32325804Y14101672D01*
X32314180Y14097512D01*
X32275422Y14085755D01*
X32275418Y14085752D01*
X32275415Y14085752D01*
X32239711Y14066668D01*
X32228539Y14061383D01*
X32191138Y14045891D01*
X32191137Y14045890D01*
X32157473Y14023397D01*
X32146869Y14017042D01*
X32111168Y13997959D01*
X32079877Y13972279D01*
X32069944Y13964912D01*
X32036279Y13942418D01*
X32007647Y13913786D01*
X31998493Y13905489D01*
X31967196Y13879804D01*
X31967194Y13879801D01*
X31967193Y13879801D01*
X31941511Y13848507D01*
X31933207Y13839346D01*
X31839766Y13745905D01*
X31777454Y13711879D01*
X31750671Y13709000D01*
X5333329Y13709000D01*
X5265208Y13729002D01*
X5244234Y13745905D01*
X4766136Y14224003D01*
X46484425Y14224003D01*
X46484425Y14223996D01*
X46502678Y14038658D01*
X46502679Y14038652D01*
X46502680Y14038650D01*
X46531872Y13942418D01*
X46556745Y13860422D01*
X46644543Y13696164D01*
X46762696Y13552196D01*
X46906664Y13434043D01*
X47058161Y13353066D01*
X47070922Y13346245D01*
X47249150Y13292180D01*
X47249152Y13292179D01*
X47249158Y13292178D01*
X47434497Y13273925D01*
X47434500Y13273925D01*
X47434503Y13273925D01*
X47619841Y13292178D01*
X47619846Y13292179D01*
X47619850Y13292180D01*
X47798078Y13346245D01*
X47962333Y13434042D01*
X48036489Y13494900D01*
X48101836Y13522653D01*
X48116422Y13523500D01*
X50868997Y13523500D01*
X51004328Y13550420D01*
X51004331Y13550421D01*
X51055408Y13571578D01*
X51131811Y13603225D01*
X51246543Y13679886D01*
X53058614Y15491957D01*
X53135275Y15606689D01*
X53188080Y15734171D01*
X53188080Y15734172D01*
X53188082Y15734177D01*
X53198151Y15784801D01*
X53198151Y15784803D01*
X53209660Y15842664D01*
X53215000Y15869507D01*
X53215000Y16510003D01*
X54929925Y16510003D01*
X54929925Y16509996D01*
X54948178Y16324658D01*
X54948179Y16324652D01*
X54948180Y16324650D01*
X54988494Y16191752D01*
X55002245Y16146422D01*
X55090043Y15982165D01*
X55150900Y15908011D01*
X55178653Y15842664D01*
X55179500Y15828078D01*
X55179500Y12492920D01*
X55159498Y12424799D01*
X55150904Y12412993D01*
X55110470Y12363725D01*
X55090040Y12338831D01*
X55002245Y12174579D01*
X55002245Y12174578D01*
X54948180Y11996350D01*
X54948179Y11996346D01*
X54948178Y11996341D01*
X54929925Y11811003D01*
X54929925Y11810996D01*
X54948178Y11625658D01*
X54948179Y11625652D01*
X54948180Y11625650D01*
X54974291Y11539575D01*
X55002245Y11447422D01*
X55090043Y11283164D01*
X55208196Y11139196D01*
X55352164Y11021043D01*
X55457943Y10964503D01*
X55516422Y10933245D01*
X55694650Y10879180D01*
X55694652Y10879179D01*
X55694658Y10879178D01*
X55879997Y10860925D01*
X55880000Y10860925D01*
X55880003Y10860925D01*
X56065341Y10879178D01*
X56065346Y10879179D01*
X56065350Y10879180D01*
X56203772Y10921170D01*
X56243579Y10933245D01*
X56327604Y10978158D01*
X56397110Y10992630D01*
X56463406Y10967226D01*
X56505444Y10910013D01*
X56513000Y10867036D01*
X56513000Y10333920D01*
X56492998Y10265799D01*
X56484404Y10253993D01*
X56458803Y10222798D01*
X56423540Y10179831D01*
X56335745Y10015579D01*
X56335745Y10015578D01*
X56281680Y9837350D01*
X56281679Y9837346D01*
X56281678Y9837341D01*
X56263425Y9652003D01*
X56263425Y9651996D01*
X56281678Y9466658D01*
X56335745Y9288422D01*
X56423543Y9124164D01*
X56541696Y8980196D01*
X56685664Y8862043D01*
X56838336Y8780438D01*
X56849922Y8774245D01*
X57028150Y8720180D01*
X57028152Y8720179D01*
X57028158Y8720178D01*
X57213497Y8701925D01*
X57213500Y8701925D01*
X57213503Y8701925D01*
X57398841Y8720178D01*
X57398846Y8720179D01*
X57398850Y8720180D01*
X57411700Y8724078D01*
X62694300Y8724078D01*
X62694300Y6951935D01*
X62694302Y6951914D01*
X62700708Y6892319D01*
X62700708Y6892318D01*
X62751001Y6757473D01*
X62751003Y6757470D01*
X62837253Y6642253D01*
X62952470Y6556003D01*
X62952473Y6556001D01*
X63087316Y6505709D01*
X63087313Y6505709D01*
X63146926Y6499300D01*
X63146927Y6499300D01*
X64919064Y6499300D01*
X64919085Y6499302D01*
X64978680Y6505708D01*
X64978681Y6505708D01*
X65113526Y6556001D01*
X65113529Y6556003D01*
X65113531Y6556004D01*
X65151791Y6584645D01*
X65228746Y6642253D01*
X65271871Y6699861D01*
X65314996Y6757469D01*
X65314996Y6757471D01*
X65314998Y6757473D01*
X65365290Y6892315D01*
X65365291Y6892317D01*
X65371700Y6951927D01*
X65371699Y8724072D01*
X65371698Y8724078D01*
X68994300Y8724078D01*
X68994300Y6951935D01*
X68994302Y6951914D01*
X69000708Y6892319D01*
X69000708Y6892318D01*
X69051001Y6757473D01*
X69051003Y6757470D01*
X69137253Y6642253D01*
X69252470Y6556003D01*
X69252473Y6556001D01*
X69387316Y6505709D01*
X69387313Y6505709D01*
X69446926Y6499300D01*
X69446927Y6499300D01*
X71219064Y6499300D01*
X71219085Y6499302D01*
X71278680Y6505708D01*
X71278681Y6505708D01*
X71413526Y6556001D01*
X71413529Y6556003D01*
X71413531Y6556004D01*
X71451791Y6584645D01*
X71528746Y6642253D01*
X71571871Y6699861D01*
X71614996Y6757469D01*
X71614996Y6757471D01*
X71614998Y6757473D01*
X71665290Y6892315D01*
X71665291Y6892317D01*
X71671700Y6951927D01*
X71671699Y8724072D01*
X71665291Y8783683D01*
X71614996Y8918531D01*
X71528746Y9033746D01*
X71413531Y9119996D01*
X71278683Y9170291D01*
X71219073Y9176700D01*
X69446928Y9176699D01*
X69387317Y9170291D01*
X69330235Y9149000D01*
X69252473Y9119998D01*
X69252471Y9119996D01*
X69252469Y9119996D01*
X69206155Y9085325D01*
X69137253Y9033746D01*
X69051003Y8918529D01*
X69051001Y8918526D01*
X69000709Y8783684D01*
X68994300Y8724078D01*
X65371698Y8724078D01*
X65365291Y8783683D01*
X65314996Y8918531D01*
X65228746Y9033746D01*
X65113531Y9119996D01*
X64978683Y9170291D01*
X64919073Y9176700D01*
X63146928Y9176699D01*
X63087317Y9170291D01*
X63030235Y9149000D01*
X62952473Y9119998D01*
X62952471Y9119996D01*
X62952469Y9119996D01*
X62906155Y9085325D01*
X62837253Y9033746D01*
X62751003Y8918529D01*
X62751001Y8918526D01*
X62700709Y8783684D01*
X62694300Y8724078D01*
X57411700Y8724078D01*
X57577078Y8774245D01*
X57741333Y8862042D01*
X57741335Y8862043D01*
X57810165Y8918531D01*
X57885304Y8980196D01*
X58003458Y9124167D01*
X58091255Y9288422D01*
X58145320Y9466650D01*
X58163575Y9652000D01*
X58146351Y9826878D01*
X58145321Y9837341D01*
X58145320Y9837341D01*
X58145320Y9837350D01*
X58091255Y10015578D01*
X58003458Y10179833D01*
X57942600Y10253987D01*
X57914847Y10319332D01*
X57914000Y10333920D01*
X57914000Y10806556D01*
X57934002Y10874677D01*
X57987658Y10921170D01*
X58057932Y10931274D01*
X58076575Y10927131D01*
X58234656Y10879178D01*
X58419997Y10860925D01*
X58420000Y10860925D01*
X58420003Y10860925D01*
X58605341Y10879178D01*
X58605346Y10879179D01*
X58605350Y10879180D01*
X58783578Y10933245D01*
X58947833Y11021042D01*
X58947835Y11021043D01*
X59010990Y11072873D01*
X59091804Y11139196D01*
X59209958Y11283167D01*
X59297755Y11447422D01*
X59351820Y11625650D01*
X59359520Y11703833D01*
X59370075Y11810996D01*
X59370075Y11811003D01*
X59351821Y11996341D01*
X59351820Y11996341D01*
X59351820Y11996350D01*
X59297755Y12174578D01*
X59209958Y12338833D01*
X59149100Y12412987D01*
X59121347Y12478332D01*
X59120500Y12492920D01*
X59120500Y14431078D01*
X59140502Y14499199D01*
X59149100Y14511011D01*
X59209956Y14585165D01*
X59209958Y14585167D01*
X59297755Y14749422D01*
X59351820Y14927650D01*
X59355145Y14961405D01*
X59370075Y15112996D01*
X59370075Y15113003D01*
X59351821Y15298341D01*
X59351820Y15298341D01*
X59351820Y15298350D01*
X59297755Y15476578D01*
X59209958Y15640833D01*
X59091804Y15784804D01*
X58947833Y15902958D01*
X58783578Y15990755D01*
X58605350Y16044820D01*
X58605341Y16044820D01*
X58605341Y16044821D01*
X58420003Y16063075D01*
X58419997Y16063075D01*
X58234653Y16044821D01*
X58115219Y16008591D01*
X58044225Y16007957D01*
X57984159Y16045806D01*
X57954090Y16110121D01*
X57963567Y16180482D01*
X57981244Y16209098D01*
X58003454Y16236161D01*
X58003455Y16236164D01*
X58003458Y16236167D01*
X58091255Y16400422D01*
X58145320Y16578650D01*
X58163575Y16764000D01*
X58145320Y16949350D01*
X58091255Y17127578D01*
X58003458Y17291833D01*
X57885304Y17435804D01*
X57741333Y17553958D01*
X57577078Y17641755D01*
X57398850Y17695820D01*
X57398841Y17695820D01*
X57398841Y17695821D01*
X57213503Y17714075D01*
X57213497Y17714075D01*
X57028158Y17695821D01*
X57028156Y17695820D01*
X57028150Y17695820D01*
X56849922Y17641755D01*
X56685667Y17553958D01*
X56685665Y17553956D01*
X56685664Y17553956D01*
X56640166Y17516616D01*
X56541696Y17435804D01*
X56488985Y17371575D01*
X56430310Y17331609D01*
X56359339Y17329708D01*
X56332197Y17340386D01*
X56243578Y17387755D01*
X56065350Y17441820D01*
X56065341Y17441820D01*
X56065341Y17441821D01*
X55880003Y17460075D01*
X55879997Y17460075D01*
X55694658Y17441821D01*
X55694656Y17441820D01*
X55694650Y17441820D01*
X55516422Y17387755D01*
X55352167Y17299958D01*
X55352165Y17299956D01*
X55352164Y17299956D01*
X55306666Y17262616D01*
X55208196Y17181804D01*
X55163694Y17127578D01*
X55090043Y17037835D01*
X55090042Y17037833D01*
X55002245Y16873578D01*
X54948180Y16695350D01*
X54948179Y16695346D01*
X54948178Y16695341D01*
X54929925Y16510003D01*
X53215000Y16510003D01*
X53215000Y23511578D01*
X53235002Y23579699D01*
X53243600Y23591511D01*
X53304456Y23665665D01*
X53304458Y23665667D01*
X53392255Y23829922D01*
X53446320Y24008150D01*
X53464575Y24193500D01*
X53446320Y24378850D01*
X53392255Y24557078D01*
X53304458Y24721333D01*
X53186304Y24865304D01*
X53042333Y24983458D01*
X52878078Y25071255D01*
X52699850Y25125320D01*
X52699841Y25125320D01*
X52699841Y25125321D01*
X52514503Y25143575D01*
X52514497Y25143575D01*
X52329158Y25125321D01*
X52329156Y25125320D01*
X52329150Y25125320D01*
X52150922Y25071255D01*
X51986667Y24983458D01*
X51986665Y24983456D01*
X51986664Y24983456D01*
X51941166Y24946116D01*
X51842696Y24865304D01*
X51805205Y24819621D01*
X51724543Y24721335D01*
X51724542Y24721333D01*
X51636745Y24557078D01*
X51582680Y24378850D01*
X51582679Y24378846D01*
X51582678Y24378841D01*
X51564425Y24193503D01*
X51564425Y24193496D01*
X51582678Y24008158D01*
X51636745Y23829922D01*
X51724543Y23665665D01*
X51785400Y23591511D01*
X51813153Y23526164D01*
X51814000Y23511578D01*
X51814000Y16280847D01*
X51793998Y16212726D01*
X51777095Y16191752D01*
X50546748Y14961405D01*
X50484436Y14927379D01*
X50457653Y14924500D01*
X48116422Y14924500D01*
X48048301Y14944502D01*
X48036489Y14953100D01*
X48026008Y14961700D01*
X47962333Y15013958D01*
X47798078Y15101755D01*
X47619850Y15155820D01*
X47619841Y15155820D01*
X47619841Y15155821D01*
X47434503Y15174075D01*
X47434497Y15174075D01*
X47249158Y15155821D01*
X47249156Y15155820D01*
X47249150Y15155820D01*
X47070922Y15101755D01*
X46906667Y15013958D01*
X46906665Y15013956D01*
X46906664Y15013956D01*
X46861166Y14976616D01*
X46762696Y14895804D01*
X46696373Y14814990D01*
X46644543Y14751835D01*
X46644542Y14751833D01*
X46556745Y14587578D01*
X46502680Y14409350D01*
X46502679Y14409346D01*
X46502678Y14409341D01*
X46484425Y14224003D01*
X4766136Y14224003D01*
X2318445Y16671694D01*
X2284419Y16734006D01*
X2281540Y16760789D01*
X2281540Y17910500D01*
X2301542Y17978621D01*
X2355198Y18025114D01*
X2407540Y18036500D01*
X15949825Y18036500D01*
X16003825Y18039394D01*
X16003859Y18039396D01*
X16030609Y18042272D01*
X16030620Y18042274D01*
X16084043Y18050931D01*
X16084046Y18050932D01*
X16084051Y18050933D01*
X16218859Y18101215D01*
X16218862Y18101216D01*
X16262338Y18124957D01*
X16281171Y18135241D01*
X16396348Y18221463D01*
X16396352Y18221467D01*
X16396355Y18221469D01*
X22778479Y24603595D01*
X22840791Y24637621D01*
X22867574Y24640500D01*
X42292009Y24640500D01*
X42399445Y24652051D01*
X42399467Y24652055D01*
X42451780Y24663435D01*
X42451788Y24663437D01*
X42451791Y24663438D01*
X42451794Y24663439D01*
X42451801Y24663441D01*
X42554334Y24697567D01*
X42554335Y24697567D01*
X42675376Y24775356D01*
X42675382Y24775361D01*
X42726461Y24819621D01*
X42728681Y24821442D01*
X42801585Y24905581D01*
X42823252Y24930586D01*
X42883022Y25061464D01*
X42903024Y25129585D01*
X42923500Y25272000D01*
X42923500Y28321003D01*
X48008425Y28321003D01*
X48008425Y28320996D01*
X48026678Y28135658D01*
X48026679Y28135652D01*
X48026680Y28135650D01*
X48077549Y27967958D01*
X48080745Y27957422D01*
X48168543Y27793164D01*
X48286696Y27649196D01*
X48430664Y27531043D01*
X48575731Y27453503D01*
X48594922Y27443245D01*
X48773150Y27389180D01*
X48773152Y27389179D01*
X48773158Y27389178D01*
X48958497Y27370925D01*
X48958500Y27370925D01*
X48958503Y27370925D01*
X49143841Y27389178D01*
X49143846Y27389179D01*
X49143850Y27389180D01*
X49322078Y27443245D01*
X49486333Y27531042D01*
X49486335Y27531043D01*
X49549490Y27582873D01*
X49630304Y27649196D01*
X49748458Y27793167D01*
X49836255Y27957422D01*
X49890320Y28135650D01*
X49899722Y28231116D01*
X49926303Y28296949D01*
X49936020Y28307863D01*
X51915610Y30287454D01*
X51915613Y30287457D01*
X51992274Y30402188D01*
X51992275Y30402189D01*
X52045080Y30529672D01*
X52072000Y30665007D01*
X52072000Y33798578D01*
X52092002Y33866699D01*
X52100600Y33878511D01*
X52161456Y33952665D01*
X52161458Y33952667D01*
X52249255Y34116922D01*
X52303320Y34295150D01*
X52303321Y34295158D01*
X52303993Y34297373D01*
X52342908Y34356755D01*
X52407749Y34385670D01*
X52477930Y34374940D01*
X52504502Y34358197D01*
X52621666Y34262042D01*
X52699399Y34220492D01*
X52750046Y34170739D01*
X52766001Y34109371D01*
X52766001Y30195594D01*
X52745999Y30127473D01*
X52729096Y30106499D01*
X50416711Y27794114D01*
X50305211Y27682614D01*
X50299221Y27673649D01*
X50217606Y27551504D01*
X50157265Y27405827D01*
X50157263Y27405822D01*
X50126500Y27251169D01*
X50126500Y27082672D01*
X50111622Y27023275D01*
X50049244Y26906576D01*
X50049243Y26906572D01*
X49995178Y26728343D01*
X49976925Y26543003D01*
X49976925Y26542996D01*
X49995178Y26357658D01*
X49995179Y26357652D01*
X49995180Y26357650D01*
X50039911Y26210193D01*
X50049245Y26179422D01*
X50137043Y26015164D01*
X50255196Y25871196D01*
X50399164Y25753043D01*
X50563422Y25665245D01*
X50741650Y25611180D01*
X50741652Y25611179D01*
X50741658Y25611178D01*
X50926997Y25592925D01*
X50927000Y25592925D01*
X50927003Y25592925D01*
X51112341Y25611178D01*
X51112346Y25611179D01*
X51112350Y25611180D01*
X51290578Y25665245D01*
X51454833Y25753042D01*
X51454835Y25753043D01*
X51517990Y25804873D01*
X51598804Y25871196D01*
X51679616Y25969666D01*
X51716956Y26015164D01*
X51768837Y26112225D01*
X51804755Y26179422D01*
X51822303Y26237271D01*
X51861217Y26296650D01*
X51926058Y26325566D01*
X51996239Y26314836D01*
X52002271Y26311817D01*
X52023919Y26300246D01*
X52023921Y26300245D01*
X52023922Y26300245D01*
X52088946Y26280520D01*
X52202157Y26246178D01*
X52297619Y26236776D01*
X52363451Y26210193D01*
X52374361Y26200481D01*
X52385955Y26188887D01*
X52500689Y26112225D01*
X52628167Y26059422D01*
X52628170Y26059421D01*
X52763501Y26032501D01*
X52763505Y26032501D01*
X52763506Y26032501D01*
X63666152Y26032501D01*
X63734273Y26012499D01*
X63755247Y25995596D01*
X67254748Y22496094D01*
X67288774Y22433782D01*
X67283709Y22362966D01*
X67241162Y22306131D01*
X67174642Y22281320D01*
X67165653Y22280999D01*
X67008128Y22280999D01*
X66948517Y22274591D01*
X66891435Y22253300D01*
X66813673Y22224298D01*
X66813671Y22224296D01*
X66813669Y22224296D01*
X66756061Y22181171D01*
X66698453Y22138046D01*
X66649128Y22072155D01*
X66612204Y22022831D01*
X66612204Y22022830D01*
X66612203Y22022830D01*
X66596528Y21980803D01*
X66553981Y21923968D01*
X66490823Y21899444D01*
X66362658Y21886821D01*
X66362656Y21886820D01*
X66362650Y21886820D01*
X66184422Y21832755D01*
X66020167Y21744958D01*
X66020165Y21744956D01*
X66020164Y21744956D01*
X65974666Y21707616D01*
X65876196Y21626804D01*
X65809873Y21545990D01*
X65758043Y21482835D01*
X65758042Y21482833D01*
X65670245Y21318578D01*
X65616180Y21140350D01*
X65616179Y21140346D01*
X65616178Y21140341D01*
X65597925Y20955003D01*
X65597925Y20954996D01*
X65616178Y20769658D01*
X65670245Y20591422D01*
X65758043Y20427164D01*
X65876196Y20283196D01*
X66020164Y20165043D01*
X66159313Y20090666D01*
X66184422Y20077245D01*
X66362650Y20023180D01*
X66362652Y20023179D01*
X66362658Y20023178D01*
X66547997Y20004925D01*
X66548000Y20004925D01*
X66548003Y20004925D01*
X66657094Y20015669D01*
X66726848Y20002440D01*
X66744953Y19991144D01*
X66813669Y19939703D01*
X66948516Y19889409D01*
X66948513Y19889409D01*
X67008126Y19883000D01*
X67008127Y19883000D01*
X67992864Y19883000D01*
X67992885Y19883002D01*
X68052480Y19889408D01*
X68052481Y19889408D01*
X68187326Y19939701D01*
X68187329Y19939703D01*
X68187331Y19939704D01*
X68189145Y19941062D01*
X68192858Y19943841D01*
X68259378Y19968651D01*
X68328752Y19953559D01*
X68378953Y19903356D01*
X68394044Y19833981D01*
X68393759Y19830626D01*
X68391925Y19811998D01*
X68391925Y19811996D01*
X68410178Y19626658D01*
X68464245Y19448422D01*
X68552043Y19284164D01*
X68670196Y19140196D01*
X68814164Y19022043D01*
X68978422Y18934245D01*
X69156650Y18880180D01*
X69156652Y18880179D01*
X69156658Y18880178D01*
X69341997Y18861925D01*
X69342000Y18861925D01*
X69342003Y18861925D01*
X69527341Y18880178D01*
X69527346Y18880179D01*
X69527350Y18880180D01*
X69705578Y18934245D01*
X69869833Y19022042D01*
X69869835Y19022043D01*
X69969108Y19103515D01*
X70013804Y19140196D01*
X70131958Y19284167D01*
X70219755Y19448422D01*
X70273820Y19626650D01*
X70292075Y19812000D01*
X70289910Y19833981D01*
X70273821Y19997343D01*
X70273820Y19997350D01*
X70271522Y20004925D01*
X70267047Y20019673D01*
X70266412Y20090666D01*
X70286753Y20131761D01*
X70293795Y20141168D01*
X70293796Y20141169D01*
X70344091Y20276017D01*
X70350500Y20335627D01*
X70350499Y21828372D01*
X70344091Y21887983D01*
X70293796Y22022831D01*
X70207546Y22138046D01*
X70092331Y22224296D01*
X69957483Y22274591D01*
X69897873Y22281000D01*
X69503345Y22280999D01*
X69435226Y22301001D01*
X69414256Y22317899D01*
X68473277Y23258878D01*
X74326000Y23258878D01*
X74326000Y19163135D01*
X74326002Y19163114D01*
X74332408Y19103519D01*
X74332408Y19103518D01*
X74382701Y18968673D01*
X74382703Y18968670D01*
X74468953Y18853453D01*
X74584170Y18767203D01*
X74584173Y18767201D01*
X74719016Y18716909D01*
X74719013Y18716909D01*
X74778626Y18710500D01*
X74778627Y18710500D01*
X78874364Y18710500D01*
X78874385Y18710502D01*
X78933980Y18716908D01*
X78933981Y18716908D01*
X79068826Y18767201D01*
X79068829Y18767203D01*
X79068831Y18767204D01*
X79107091Y18795845D01*
X79184046Y18853453D01*
X79244526Y18934245D01*
X79270296Y18968669D01*
X79270296Y18968671D01*
X79270298Y18968673D01*
X79320590Y19103515D01*
X79320591Y19103517D01*
X79327000Y19163127D01*
X79326999Y23258872D01*
X79320591Y23318483D01*
X79270296Y23453331D01*
X79184046Y23568546D01*
X79068831Y23654796D01*
X78933983Y23705091D01*
X78874373Y23711500D01*
X74778628Y23711499D01*
X74719017Y23705091D01*
X74661935Y23683800D01*
X74584173Y23654798D01*
X74584171Y23654796D01*
X74584169Y23654796D01*
X74526561Y23611671D01*
X74468953Y23568546D01*
X74382703Y23453329D01*
X74382701Y23453326D01*
X74332409Y23318484D01*
X74326000Y23258878D01*
X68473277Y23258878D01*
X64455042Y27277115D01*
X64340310Y27353776D01*
X64212827Y27406581D01*
X64077493Y27433501D01*
X53391488Y27433501D01*
X53323367Y27453503D01*
X53276874Y27507159D01*
X53270913Y27522927D01*
X53266246Y27538311D01*
X53265255Y27541578D01*
X53177458Y27705833D01*
X53059304Y27849804D01*
X52989497Y27907092D01*
X52949530Y27965765D01*
X52947628Y28036737D01*
X52980337Y28093584D01*
X54188287Y29301534D01*
X54188290Y29301537D01*
X54275895Y29432647D01*
X54336238Y29578329D01*
X54367001Y29732984D01*
X54367001Y34713841D01*
X54357643Y34760890D01*
X54336238Y34868497D01*
X54327749Y34888989D01*
X54317505Y34913723D01*
X54297589Y34961803D01*
X54275895Y35014178D01*
X54188290Y35145288D01*
X54097142Y35236435D01*
X54065667Y35288948D01*
X54027255Y35415578D01*
X53939458Y35579833D01*
X53821304Y35723804D01*
X53677333Y35841958D01*
X53513078Y35929755D01*
X53334850Y35983820D01*
X53334841Y35983820D01*
X53334841Y35983821D01*
X53149503Y36002075D01*
X53149497Y36002075D01*
X52964158Y35983821D01*
X52964156Y35983820D01*
X52964150Y35983820D01*
X52785922Y35929755D01*
X52621667Y35841958D01*
X52621665Y35841956D01*
X52621664Y35841956D01*
X52576166Y35804616D01*
X52477696Y35723804D01*
X52441038Y35679136D01*
X52359543Y35579835D01*
X52359542Y35579833D01*
X52271745Y35415578D01*
X52217680Y35237350D01*
X52217679Y35237345D01*
X52217006Y35235125D01*
X52178091Y35175744D01*
X52113249Y35146828D01*
X52043068Y35157559D01*
X52016510Y35174292D01*
X51899333Y35270458D01*
X51735078Y35358255D01*
X51556850Y35412320D01*
X51556841Y35412320D01*
X51556841Y35412321D01*
X51371503Y35430575D01*
X51371497Y35430575D01*
X51186158Y35412321D01*
X51186156Y35412320D01*
X51186150Y35412320D01*
X51007922Y35358255D01*
X50843667Y35270458D01*
X50843666Y35270457D01*
X50843664Y35270456D01*
X50827010Y35256788D01*
X50699696Y35152304D01*
X50640323Y35079958D01*
X50581543Y35008335D01*
X50581542Y35008333D01*
X50493745Y34844078D01*
X50439680Y34665850D01*
X50439679Y34665846D01*
X50439678Y34665841D01*
X50421425Y34480503D01*
X50421425Y34480496D01*
X50439678Y34295158D01*
X50439679Y34295152D01*
X50439680Y34295150D01*
X50468101Y34201458D01*
X50493745Y34116922D01*
X50581543Y33952665D01*
X50642400Y33878511D01*
X50670153Y33813164D01*
X50671000Y33798578D01*
X50671000Y31076346D01*
X50650998Y31008225D01*
X50634095Y30987251D01*
X49774316Y30127473D01*
X48945363Y29298520D01*
X48883051Y29264494D01*
X48868617Y29262222D01*
X48836182Y29259027D01*
X48773158Y29252821D01*
X48773156Y29252820D01*
X48773150Y29252820D01*
X48594922Y29198755D01*
X48430667Y29110958D01*
X48430665Y29110956D01*
X48430664Y29110956D01*
X48385166Y29073616D01*
X48286696Y28992804D01*
X48220373Y28911990D01*
X48168543Y28848835D01*
X48168542Y28848833D01*
X48080745Y28684578D01*
X48026680Y28506350D01*
X48026679Y28506346D01*
X48026678Y28506341D01*
X48008425Y28321003D01*
X42923500Y28321003D01*
X42923500Y37722500D01*
X42943502Y37790621D01*
X42997158Y37837114D01*
X43049500Y37848500D01*
X79122009Y37848500D01*
X79229445Y37860051D01*
X79229467Y37860055D01*
X79281780Y37871435D01*
X79281788Y37871437D01*
X79281791Y37871438D01*
X79281794Y37871439D01*
X79281801Y37871441D01*
X79384334Y37905567D01*
X79384335Y37905567D01*
X79505376Y37983356D01*
X79505382Y37983361D01*
X79556461Y38027621D01*
X79558681Y38029442D01*
X79631585Y38113581D01*
X79653252Y38138586D01*
X79713022Y38269464D01*
X79733024Y38337585D01*
X79753500Y38480000D01*
X79753500Y43054000D01*
X79741948Y43161449D01*
X79730562Y43213791D01*
X79696433Y43316333D01*
X79695590Y43317644D01*
X79685334Y43333602D01*
X79618646Y43437373D01*
X79574359Y43488482D01*
X79572552Y43490685D01*
X79539886Y43518988D01*
X79463414Y43585252D01*
X79332536Y43645022D01*
X79264415Y43665024D01*
X79122000Y43685500D01*
X79121996Y43685500D01*
X40027347Y43685500D01*
X39959226Y43705502D01*
X39912733Y43759158D01*
X39902629Y43829432D01*
X39932123Y43894012D01*
X39938252Y43900595D01*
X42861752Y46824095D01*
X42924064Y46858121D01*
X42950847Y46861000D01*
X43458497Y46861000D01*
X43593828Y46887920D01*
X43593831Y46887921D01*
X43640921Y46907426D01*
X43721311Y46940725D01*
X43836043Y47017386D01*
X49566114Y52747457D01*
X49642775Y52862189D01*
X49695580Y52989672D01*
X49696059Y52992083D01*
X49696658Y52993227D01*
X49697375Y52995591D01*
X49697823Y52995454D01*
X49728967Y53054991D01*
X49790662Y53090123D01*
X49819630Y53093500D01*
X49831861Y53093500D01*
X49831886Y53093502D01*
X49891480Y53099908D01*
X49891481Y53099908D01*
X50026326Y53150201D01*
X50026329Y53150203D01*
X50026331Y53150204D01*
X50092806Y53199967D01*
X50141546Y53236453D01*
X50191132Y53302692D01*
X50227796Y53351669D01*
X50227796Y53351671D01*
X50227798Y53351673D01*
X50261326Y53441567D01*
X50278091Y53486517D01*
X50284500Y53546127D01*
X50284499Y55165872D01*
X50278091Y55225483D01*
X50227796Y55360331D01*
X50141546Y55475546D01*
X50075306Y55525133D01*
X50032760Y55581968D01*
X50027696Y55652783D01*
X50061721Y55715095D01*
X50075302Y55726863D01*
X50141546Y55776454D01*
X50227796Y55891669D01*
X50227796Y55891671D01*
X50227798Y55891673D01*
X50266020Y55994153D01*
X50278091Y56026517D01*
X50284500Y56086127D01*
X50284499Y57705872D01*
X50284498Y57705878D01*
X53347500Y57705878D01*
X53347500Y56086135D01*
X53347502Y56086114D01*
X53353908Y56026519D01*
X53353908Y56026518D01*
X53404201Y55891673D01*
X53404203Y55891670D01*
X53490452Y55776455D01*
X53490622Y55776328D01*
X53556693Y55726866D01*
X53599239Y55670032D01*
X53604303Y55599216D01*
X53570278Y55536904D01*
X53556697Y55525136D01*
X53490454Y55475546D01*
X53490453Y55475545D01*
X53490452Y55475544D01*
X53453161Y55425729D01*
X53440868Y55409307D01*
X53404203Y55360329D01*
X53404201Y55360326D01*
X53353909Y55225484D01*
X53347500Y55165878D01*
X53347500Y53546135D01*
X53347502Y53546114D01*
X53353908Y53486519D01*
X53353908Y53486518D01*
X53404201Y53351673D01*
X53404203Y53351670D01*
X53490453Y53236453D01*
X53605670Y53150203D01*
X53605673Y53150201D01*
X53740516Y53099909D01*
X53740513Y53099909D01*
X53800126Y53093500D01*
X53800127Y53093500D01*
X55419864Y53093500D01*
X55419885Y53093502D01*
X55479480Y53099908D01*
X55479481Y53099908D01*
X55614326Y53150201D01*
X55614329Y53150203D01*
X55614331Y53150204D01*
X55680806Y53199967D01*
X55729544Y53236452D01*
X55729544Y53236453D01*
X55729546Y53236454D01*
X55779133Y53302693D01*
X55835968Y53345239D01*
X55906784Y53350303D01*
X55969096Y53316278D01*
X55980863Y53302697D01*
X56004756Y53270782D01*
X56030455Y53236452D01*
X56145670Y53150203D01*
X56145673Y53150201D01*
X56280516Y53099909D01*
X56280513Y53099909D01*
X56340126Y53093500D01*
X56340127Y53093500D01*
X57959864Y53093500D01*
X57959885Y53093502D01*
X58019480Y53099908D01*
X58019481Y53099908D01*
X58154326Y53150201D01*
X58154329Y53150203D01*
X58154331Y53150204D01*
X58220806Y53199967D01*
X58269546Y53236453D01*
X58319132Y53302692D01*
X58355796Y53351669D01*
X58355796Y53351671D01*
X58355798Y53351673D01*
X58389326Y53441567D01*
X58406091Y53486517D01*
X58412500Y53546127D01*
X58412499Y55165872D01*
X58406091Y55225483D01*
X58355796Y55360331D01*
X58269546Y55475546D01*
X58203306Y55525133D01*
X58160760Y55581968D01*
X58155696Y55652783D01*
X58189721Y55715095D01*
X58203302Y55726863D01*
X58269546Y55776454D01*
X58287830Y55800878D01*
X61602500Y55800878D01*
X61602500Y54181135D01*
X61602502Y54181114D01*
X61608908Y54121519D01*
X61608908Y54121518D01*
X61659201Y53986673D01*
X61659203Y53986670D01*
X61745452Y53871455D01*
X61777061Y53847792D01*
X61811693Y53821866D01*
X61854239Y53765032D01*
X61859303Y53694216D01*
X61825278Y53631904D01*
X61811697Y53620136D01*
X61745454Y53570546D01*
X61745453Y53570545D01*
X61745452Y53570544D01*
X61727174Y53546127D01*
X61682549Y53486515D01*
X61659203Y53455329D01*
X61659201Y53455326D01*
X61608909Y53320484D01*
X61602500Y53260878D01*
X61602500Y51641135D01*
X61602502Y51641114D01*
X61608908Y51581519D01*
X61608908Y51581518D01*
X61659201Y51446673D01*
X61659203Y51446670D01*
X61745453Y51331453D01*
X61860670Y51245203D01*
X61860673Y51245201D01*
X61995516Y51194909D01*
X61995513Y51194909D01*
X62055126Y51188500D01*
X62055127Y51188500D01*
X63674864Y51188500D01*
X63674885Y51188502D01*
X63734480Y51194908D01*
X63734481Y51194908D01*
X63869326Y51245201D01*
X63869329Y51245203D01*
X63869331Y51245204D01*
X63926614Y51288086D01*
X63984544Y51331452D01*
X63984544Y51331453D01*
X63984546Y51331454D01*
X64034133Y51397693D01*
X64090968Y51440239D01*
X64161784Y51445303D01*
X64224096Y51411278D01*
X64235863Y51397697D01*
X64261792Y51363061D01*
X64285455Y51331452D01*
X64400670Y51245203D01*
X64400673Y51245201D01*
X64535516Y51194909D01*
X64535513Y51194909D01*
X64595126Y51188500D01*
X64595127Y51188500D01*
X66214864Y51188500D01*
X66214885Y51188502D01*
X66274480Y51194908D01*
X66274481Y51194908D01*
X66409326Y51245201D01*
X66409329Y51245203D01*
X66409331Y51245204D01*
X66466614Y51288086D01*
X66524544Y51331452D01*
X66524544Y51331453D01*
X66524546Y51331454D01*
X66574133Y51397693D01*
X66630968Y51440239D01*
X66701784Y51445303D01*
X66764096Y51411278D01*
X66775863Y51397697D01*
X66801792Y51363061D01*
X66825455Y51331452D01*
X66940670Y51245203D01*
X66940673Y51245201D01*
X67075516Y51194909D01*
X67075513Y51194909D01*
X67135126Y51188500D01*
X67135127Y51188500D01*
X68754864Y51188500D01*
X68754885Y51188502D01*
X68814480Y51194908D01*
X68814481Y51194908D01*
X68949326Y51245201D01*
X68949329Y51245203D01*
X68949331Y51245204D01*
X68987591Y51273845D01*
X69064546Y51331453D01*
X69107671Y51389061D01*
X69150796Y51446669D01*
X69150796Y51446671D01*
X69150798Y51446673D01*
X69201090Y51581515D01*
X69201091Y51581517D01*
X69207500Y51641127D01*
X69207499Y53260872D01*
X69201091Y53320483D01*
X69150796Y53455331D01*
X69064546Y53570546D01*
X68998306Y53620133D01*
X68955760Y53676968D01*
X68950696Y53747783D01*
X68984721Y53810095D01*
X68998302Y53821863D01*
X69064546Y53871454D01*
X69150796Y53986669D01*
X69150796Y53986671D01*
X69150798Y53986673D01*
X69201090Y54121515D01*
X69201091Y54121517D01*
X69207500Y54181127D01*
X69207499Y55800872D01*
X69201091Y55860483D01*
X69193811Y55880003D01*
X72194675Y55880003D01*
X72194675Y55879996D01*
X72202198Y55726868D01*
X72211530Y55536904D01*
X72213962Y55487412D01*
X72213963Y55487398D01*
X72252815Y55225483D01*
X72271636Y55098600D01*
X72312600Y54935063D01*
X72367144Y54717310D01*
X72499561Y54347230D01*
X72667621Y53991899D01*
X72869696Y53654756D01*
X73103834Y53339057D01*
X73367808Y53047808D01*
X73659057Y52783834D01*
X73974756Y52549696D01*
X74311899Y52347621D01*
X74667230Y52179561D01*
X75037310Y52047144D01*
X75227958Y51999389D01*
X75418600Y51951636D01*
X75418604Y51951635D01*
X75418606Y51951635D01*
X75807398Y51893963D01*
X75807406Y51893962D01*
X75807409Y51893962D01*
X75975662Y51885696D01*
X76199996Y51874675D01*
X76200000Y51874675D01*
X76200004Y51874675D01*
X76396295Y51884318D01*
X76592591Y51893962D01*
X76592594Y51893962D01*
X76592601Y51893963D01*
X76981393Y51951635D01*
X76981400Y51951636D01*
X77266995Y52023174D01*
X77362689Y52047144D01*
X77732769Y52179561D01*
X77732772Y52179562D01*
X78088097Y52347619D01*
X78267507Y52455153D01*
X78425243Y52549696D01*
X78740942Y52783834D01*
X78827393Y52862189D01*
X79032192Y53047808D01*
X79296158Y53339049D01*
X79296159Y53339050D01*
X79296165Y53339057D01*
X79530303Y53654756D01*
X79617435Y53800127D01*
X79732381Y53991903D01*
X79900438Y54347228D01*
X80032857Y54717316D01*
X80128364Y55098600D01*
X80186038Y55487409D01*
X80204642Y55866091D01*
X80205325Y55879996D01*
X80205325Y55880003D01*
X80200948Y55969095D01*
X80186038Y56272591D01*
X80128364Y56661400D01*
X80032857Y57042684D01*
X79900438Y57412772D01*
X79732381Y57768097D01*
X79530306Y58105239D01*
X79408448Y58269546D01*
X79296165Y58420942D01*
X79296163Y58420943D01*
X79296158Y58420951D01*
X79032192Y58712192D01*
X78740951Y58976158D01*
X78739446Y58977274D01*
X78425243Y59210303D01*
X78425239Y59210306D01*
X78088097Y59412381D01*
X77732772Y59580438D01*
X77362684Y59712857D01*
X76981400Y59808364D01*
X76592591Y59866038D01*
X76255384Y59882604D01*
X76200004Y59885325D01*
X76199996Y59885325D01*
X76142590Y59882504D01*
X75807409Y59866038D01*
X75418600Y59808364D01*
X75037316Y59712857D01*
X74667228Y59580438D01*
X74311903Y59412381D01*
X73974761Y59210306D01*
X73974756Y59210303D01*
X73659057Y58976165D01*
X73659050Y58976159D01*
X73659049Y58976158D01*
X73367808Y58712192D01*
X73120956Y58439833D01*
X73103834Y58420942D01*
X72869696Y58105243D01*
X72776232Y57949307D01*
X72667619Y57768097D01*
X72499562Y57412772D01*
X72499561Y57412769D01*
X72367144Y57042689D01*
X72351486Y56980178D01*
X72271636Y56661400D01*
X72271635Y56661393D01*
X72215138Y56280517D01*
X72213962Y56272591D01*
X72204801Y56086121D01*
X72194675Y55880003D01*
X69193811Y55880003D01*
X69150796Y55995331D01*
X69064546Y56110546D01*
X68949331Y56196796D01*
X68814483Y56247091D01*
X68754873Y56253500D01*
X67135128Y56253499D01*
X67075517Y56247091D01*
X67018435Y56225800D01*
X66940673Y56196798D01*
X66940671Y56196796D01*
X66940669Y56196796D01*
X66825454Y56110546D01*
X66775866Y56044306D01*
X66719032Y56001760D01*
X66648217Y55996696D01*
X66585905Y56030721D01*
X66574136Y56044302D01*
X66524546Y56110546D01*
X66409331Y56196796D01*
X66274483Y56247091D01*
X66214873Y56253500D01*
X64595128Y56253499D01*
X64535517Y56247091D01*
X64478435Y56225800D01*
X64400673Y56196798D01*
X64400671Y56196796D01*
X64400669Y56196796D01*
X64285454Y56110546D01*
X64235866Y56044306D01*
X64179032Y56001760D01*
X64108217Y55996696D01*
X64045905Y56030721D01*
X64034136Y56044302D01*
X63984546Y56110546D01*
X63869331Y56196796D01*
X63734483Y56247091D01*
X63674873Y56253500D01*
X62055128Y56253499D01*
X61995517Y56247091D01*
X61938435Y56225800D01*
X61860673Y56196798D01*
X61860671Y56196796D01*
X61860669Y56196796D01*
X61814233Y56162034D01*
X61745453Y56110546D01*
X61659203Y55995329D01*
X61659201Y55995326D01*
X61608909Y55860484D01*
X61602500Y55800878D01*
X58287830Y55800878D01*
X58355796Y55891669D01*
X58355796Y55891671D01*
X58355798Y55891673D01*
X58394020Y55994153D01*
X58406091Y56026517D01*
X58412500Y56086127D01*
X58412499Y57705872D01*
X58406091Y57765483D01*
X58355796Y57900331D01*
X58269546Y58015546D01*
X58154331Y58101796D01*
X58019483Y58152091D01*
X57959873Y58158500D01*
X56340128Y58158499D01*
X56280517Y58152091D01*
X56223435Y58130800D01*
X56145673Y58101798D01*
X56145671Y58101796D01*
X56145669Y58101796D01*
X56030454Y58015546D01*
X55980866Y57949306D01*
X55924032Y57906760D01*
X55853217Y57901696D01*
X55790905Y57935721D01*
X55779136Y57949302D01*
X55729546Y58015546D01*
X55614331Y58101796D01*
X55479483Y58152091D01*
X55419873Y58158500D01*
X53800128Y58158499D01*
X53740517Y58152091D01*
X53683435Y58130800D01*
X53605673Y58101798D01*
X53605671Y58101796D01*
X53605669Y58101796D01*
X53548061Y58058671D01*
X53490453Y58015546D01*
X53448786Y57959885D01*
X53412937Y57911996D01*
X53404203Y57900329D01*
X53404201Y57900326D01*
X53353909Y57765484D01*
X53347500Y57705878D01*
X50284498Y57705878D01*
X50278091Y57765483D01*
X50227796Y57900331D01*
X50141546Y58015546D01*
X50026331Y58101796D01*
X49891483Y58152091D01*
X49831873Y58158500D01*
X49819641Y58158499D01*
X49751523Y58178497D01*
X49705027Y58232149D01*
X49696059Y58259916D01*
X49695580Y58262328D01*
X49692590Y58269546D01*
X49690091Y58275578D01*
X49668929Y58326669D01*
X49656863Y58355798D01*
X49642775Y58389811D01*
X49566114Y58504542D01*
X49468542Y58602114D01*
X49170044Y58900613D01*
X49055312Y58977274D01*
X48927829Y59030079D01*
X48792495Y59056999D01*
X48792494Y59056999D01*
X37089493Y59056999D01*
X36951506Y59056999D01*
X36816171Y59030079D01*
X36688688Y58977274D01*
X36573956Y58900613D01*
X36573951Y58900608D01*
X36562863Y58889520D01*
X36500551Y58855494D01*
X36486117Y58853222D01*
X36453682Y58850027D01*
X36390658Y58843821D01*
X36390656Y58843820D01*
X36390650Y58843820D01*
X36212422Y58789755D01*
X36048167Y58701958D01*
X36048165Y58701956D01*
X36048164Y58701956D01*
X36002666Y58664616D01*
X35904196Y58583804D01*
X35839147Y58504542D01*
X35786043Y58439835D01*
X35786042Y58439833D01*
X35698245Y58275578D01*
X35644180Y58097350D01*
X35644179Y58097346D01*
X35644178Y58097341D01*
X35625925Y57912003D01*
X35625925Y57911996D01*
X35644178Y57726658D01*
X35644179Y57726652D01*
X35644180Y57726650D01*
X35683169Y57598120D01*
X35698245Y57548422D01*
X35786043Y57384164D01*
X35904196Y57240196D01*
X36048164Y57122043D01*
X36196634Y57042684D01*
X36212422Y57034245D01*
X36390650Y56980180D01*
X36390652Y56980179D01*
X36390658Y56980178D01*
X36575997Y56961925D01*
X36576000Y56961925D01*
X36576003Y56961925D01*
X36761341Y56980178D01*
X36761346Y56980179D01*
X36761350Y56980180D01*
X36939578Y57034245D01*
X37103833Y57122042D01*
X37103835Y57122043D01*
X37196479Y57198075D01*
X37247804Y57240196D01*
X37365958Y57384167D01*
X37365960Y57384171D01*
X37368734Y57388322D01*
X37423211Y57433850D01*
X37493654Y57442699D01*
X37557699Y57412058D01*
X37595010Y57351656D01*
X37599500Y57318321D01*
X37599500Y56086135D01*
X37599502Y56086114D01*
X37605908Y56026519D01*
X37605908Y56026518D01*
X37656201Y55891673D01*
X37656203Y55891670D01*
X37742452Y55776455D01*
X37742622Y55776328D01*
X37808693Y55726866D01*
X37851239Y55670032D01*
X37856303Y55599216D01*
X37822278Y55536904D01*
X37808697Y55525136D01*
X37742454Y55475546D01*
X37742453Y55475545D01*
X37742452Y55475544D01*
X37705161Y55425729D01*
X37692868Y55409307D01*
X37656203Y55360329D01*
X37656201Y55360326D01*
X37605909Y55225484D01*
X37599500Y55165878D01*
X37599500Y55165873D01*
X37599500Y54535769D01*
X37599501Y54020499D01*
X37579499Y53952378D01*
X37525843Y53905885D01*
X37473501Y53894499D01*
X35125235Y53894499D01*
X35057114Y53914501D01*
X35036140Y53931404D01*
X32894605Y56072939D01*
X32860579Y56135251D01*
X32857700Y56162034D01*
X32857700Y56756864D01*
X32857700Y56756869D01*
X32832701Y56882544D01*
X32783665Y57000927D01*
X32712476Y57107469D01*
X32621869Y57198076D01*
X31973244Y57846699D01*
X31939221Y57909010D01*
X31936948Y57923444D01*
X31919821Y58097341D01*
X31919820Y58097341D01*
X31919820Y58097350D01*
X31865755Y58275578D01*
X31777958Y58439833D01*
X31659804Y58583804D01*
X31515833Y58701958D01*
X31351578Y58789755D01*
X31173350Y58843820D01*
X31173341Y58843820D01*
X31173341Y58843821D01*
X30988003Y58862075D01*
X30987997Y58862075D01*
X30802658Y58843821D01*
X30802656Y58843820D01*
X30802650Y58843820D01*
X30624422Y58789755D01*
X30460167Y58701958D01*
X30460165Y58701956D01*
X30460164Y58701956D01*
X30414666Y58664616D01*
X30316196Y58583804D01*
X30251147Y58504542D01*
X30198043Y58439835D01*
X30198042Y58439833D01*
X30110245Y58275578D01*
X30056180Y58097350D01*
X30056179Y58097346D01*
X30056178Y58097341D01*
X30037925Y57912003D01*
X30037925Y57911996D01*
X30056178Y57726658D01*
X30056179Y57726652D01*
X30056180Y57726650D01*
X30095169Y57598120D01*
X30110245Y57548422D01*
X30198043Y57384164D01*
X30316196Y57240196D01*
X30460164Y57122043D01*
X30608634Y57042684D01*
X30624422Y57034245D01*
X30802650Y56980180D01*
X30802652Y56980179D01*
X30802658Y56980178D01*
X30976555Y56963051D01*
X31042387Y56936468D01*
X31053300Y56926754D01*
X31519796Y56460257D01*
X31553820Y56397947D01*
X31556700Y56371164D01*
X31556700Y55776329D01*
X31573832Y55690204D01*
X31581699Y55650654D01*
X31581700Y55650652D01*
X31581701Y55650648D01*
X31630734Y55532272D01*
X31701923Y55425728D01*
X31701926Y55425724D01*
X33794558Y53333094D01*
X33828583Y53270782D01*
X33823519Y53199967D01*
X33794558Y53154904D01*
X31397126Y50757473D01*
X31397123Y50757469D01*
X31325935Y50650927D01*
X31306501Y50604008D01*
X31276900Y50532546D01*
X31276899Y50532545D01*
X31251900Y50406867D01*
X31251900Y46809489D01*
X31231898Y46741368D01*
X31178242Y46694875D01*
X31113550Y46684096D01*
X31093574Y46686063D01*
X31032134Y46692115D01*
X31032128Y46692115D01*
X30846789Y46673861D01*
X30846787Y46673860D01*
X30846781Y46673860D01*
X30668553Y46619795D01*
X30504298Y46531998D01*
X30504296Y46531996D01*
X30504295Y46531996D01*
X30458797Y46494656D01*
X30360327Y46413844D01*
X30294004Y46333030D01*
X30242174Y46269875D01*
X30242173Y46269873D01*
X30154376Y46105618D01*
X30100311Y45927390D01*
X30100310Y45927386D01*
X30100309Y45927381D01*
X30082056Y45742043D01*
X30082056Y45742036D01*
X30100309Y45556698D01*
X30100310Y45556692D01*
X30100311Y45556690D01*
X30140941Y45422750D01*
X30154376Y45378462D01*
X30242176Y45214201D01*
X30353030Y45079126D01*
X30380784Y45013779D01*
X30381631Y44999193D01*
X30381631Y42453567D01*
X30361629Y42385446D01*
X30344726Y42364472D01*
X29053659Y41073405D01*
X28991347Y41039379D01*
X28964564Y41036500D01*
X21014833Y41036500D01*
X20990252Y41038921D01*
X20975867Y41041782D01*
X20887591Y41059342D01*
X19996249Y41059342D01*
X19910940Y41042372D01*
X19893588Y41038921D01*
X19869007Y41036500D01*
X14847986Y41036500D01*
X14779865Y41056502D01*
X14733372Y41110158D01*
X14722708Y41149034D01*
X14719871Y41175427D01*
X14718091Y41191983D01*
X14667796Y41326831D01*
X14581546Y41442046D01*
X14466331Y41528296D01*
X14331483Y41578591D01*
X14271873Y41585000D01*
X13287128Y41584999D01*
X13227517Y41578591D01*
X13170435Y41557300D01*
X13092673Y41528298D01*
X13092671Y41528296D01*
X13092669Y41528296D01*
X13070337Y41511578D01*
X12977453Y41442046D01*
X12891203Y41326829D01*
X12891201Y41326826D01*
X12840909Y41191984D01*
X12834500Y41132378D01*
X12834500Y39639635D01*
X12834502Y39639614D01*
X12840908Y39580019D01*
X12840908Y39580018D01*
X12891201Y39445173D01*
X12891203Y39445170D01*
X12977453Y39329953D01*
X13092670Y39243703D01*
X13092673Y39243701D01*
X13227516Y39193409D01*
X13227513Y39193409D01*
X13287126Y39187000D01*
X13287127Y39187000D01*
X14271864Y39187000D01*
X14271885Y39187002D01*
X14331480Y39193408D01*
X14331481Y39193408D01*
X14466326Y39243701D01*
X14466329Y39243703D01*
X14466331Y39243704D01*
X14531840Y39292744D01*
X14581546Y39329953D01*
X14624671Y39387561D01*
X14667796Y39445169D01*
X14667796Y39445171D01*
X14667798Y39445173D01*
X14718090Y39580015D01*
X14718091Y39580017D01*
X14722709Y39622970D01*
X14749879Y39688562D01*
X14808198Y39729053D01*
X14847987Y39735500D01*
X20101545Y39735500D01*
X20204206Y39755921D01*
X20228787Y39758342D01*
X20655053Y39758342D01*
X20679634Y39755921D01*
X20782294Y39735500D01*
X20782295Y39735500D01*
X29350267Y39735500D01*
X29350269Y39735500D01*
X29434052Y39752166D01*
X29475945Y39760499D01*
X29475950Y39760501D01*
X29594321Y39809532D01*
X29594323Y39809533D01*
X29594327Y39809535D01*
X29598702Y39812458D01*
X29666659Y39857865D01*
X29700868Y39880722D01*
X30036326Y40216180D01*
X30390307Y40570161D01*
X30452618Y40604185D01*
X30523433Y40599121D01*
X30576800Y40560999D01*
X30646396Y40476196D01*
X30790364Y40358043D01*
X30954622Y40270245D01*
X31132850Y40216180D01*
X31132852Y40216179D01*
X31132858Y40216178D01*
X31318197Y40197925D01*
X31318200Y40197925D01*
X31318203Y40197925D01*
X31503541Y40216178D01*
X31503546Y40216179D01*
X31503550Y40216180D01*
X31681778Y40270245D01*
X31846033Y40358042D01*
X31846035Y40358043D01*
X31928427Y40425661D01*
X31990004Y40476196D01*
X32108158Y40620167D01*
X32195955Y40784422D01*
X32250020Y40962650D01*
X32256680Y41030269D01*
X32267148Y41136554D01*
X32293730Y41202386D01*
X32303446Y41213299D01*
X32407670Y41317523D01*
X32407675Y41317529D01*
X32407677Y41317531D01*
X32478866Y41424074D01*
X32515111Y41511578D01*
X32527901Y41542456D01*
X32552900Y41668131D01*
X32552900Y43845483D01*
X33385645Y43845483D01*
X33385645Y43845476D01*
X33403898Y43660138D01*
X33403899Y43660132D01*
X33403900Y43660130D01*
X33455196Y43491031D01*
X33457965Y43481902D01*
X33545763Y43317644D01*
X33663916Y43173676D01*
X33807884Y43055523D01*
X33972142Y42967725D01*
X34150370Y42913660D01*
X34150372Y42913659D01*
X34150378Y42913658D01*
X34335717Y42895405D01*
X34335720Y42895405D01*
X34335723Y42895405D01*
X34521061Y42913658D01*
X34521066Y42913659D01*
X34521070Y42913660D01*
X34699298Y42967725D01*
X34860706Y43054000D01*
X34863555Y43055523D01*
X34992625Y43161449D01*
X35007524Y43173676D01*
X35124600Y43316333D01*
X35125676Y43317644D01*
X35125678Y43317647D01*
X35213475Y43481902D01*
X35267540Y43660130D01*
X35272009Y43705502D01*
X35285795Y43845476D01*
X35285795Y43845483D01*
X35267541Y44030821D01*
X35267540Y44030821D01*
X35267540Y44030830D01*
X35213475Y44209058D01*
X35125678Y44373313D01*
X35064820Y44447467D01*
X35037067Y44512812D01*
X35036220Y44527400D01*
X35036220Y45474173D01*
X35056222Y45542294D01*
X35073125Y45563268D01*
X36921628Y47411771D01*
X36921633Y47411776D01*
X36998294Y47526508D01*
X37051099Y47653991D01*
X37078019Y47789325D01*
X37078019Y47927313D01*
X37078019Y48763160D01*
X37098021Y48831281D01*
X37106619Y48843093D01*
X37167475Y48917247D01*
X37167477Y48917249D01*
X37255274Y49081504D01*
X37309339Y49259732D01*
X37327594Y49445082D01*
X37309339Y49630432D01*
X37255274Y49808660D01*
X37167477Y49972915D01*
X37049323Y50116886D01*
X36905352Y50235040D01*
X36741097Y50322837D01*
X36562869Y50376902D01*
X36562860Y50376902D01*
X36562860Y50376903D01*
X36377522Y50395157D01*
X36377516Y50395157D01*
X36192177Y50376903D01*
X36192175Y50376902D01*
X36192169Y50376902D01*
X36013941Y50322837D01*
X35849686Y50235040D01*
X35849684Y50235038D01*
X35849683Y50235038D01*
X35839221Y50226452D01*
X35705715Y50116886D01*
X35639392Y50036072D01*
X35587562Y49972917D01*
X35587561Y49972915D01*
X35499764Y49808660D01*
X35445699Y49630432D01*
X35445698Y49630428D01*
X35445697Y49630423D01*
X35427444Y49445085D01*
X35427444Y49445078D01*
X35445697Y49259740D01*
X35445698Y49259734D01*
X35445699Y49259732D01*
X35475269Y49162253D01*
X35499764Y49081504D01*
X35587562Y48917247D01*
X35648419Y48843093D01*
X35676172Y48777746D01*
X35677019Y48763160D01*
X35677019Y48200666D01*
X35657017Y48132545D01*
X35640114Y48111571D01*
X33791612Y46263070D01*
X33791609Y46263066D01*
X33791606Y46263063D01*
X33749007Y46199308D01*
X33720543Y46156710D01*
X33720544Y46156710D01*
X33714944Y46148329D01*
X33662141Y46020851D01*
X33662140Y46020848D01*
X33635220Y45885515D01*
X33635220Y44527400D01*
X33615218Y44459279D01*
X33606624Y44447473D01*
X33606599Y44447442D01*
X33545760Y44373311D01*
X33457965Y44209059D01*
X33457965Y44209058D01*
X33403900Y44030830D01*
X33403899Y44030826D01*
X33403898Y44030821D01*
X33385645Y43845483D01*
X32552900Y43845483D01*
X32552900Y50021164D01*
X32572902Y50089285D01*
X32589805Y50110259D01*
X35036140Y52556594D01*
X35098452Y52590620D01*
X35125235Y52593499D01*
X39310940Y52593499D01*
X39379061Y52573497D01*
X39425554Y52519841D01*
X39436334Y52455153D01*
X39435925Y52450998D01*
X39435925Y52450996D01*
X39454178Y52265658D01*
X39508245Y52087422D01*
X39596043Y51923164D01*
X39714196Y51779196D01*
X39858164Y51661043D01*
X40006944Y51581518D01*
X40022422Y51573245D01*
X40200650Y51519180D01*
X40200652Y51519179D01*
X40200658Y51519178D01*
X40385997Y51500925D01*
X40386000Y51500925D01*
X40386003Y51500925D01*
X40571341Y51519178D01*
X40571346Y51519179D01*
X40571350Y51519180D01*
X40749578Y51573245D01*
X40913833Y51661042D01*
X40987989Y51721900D01*
X41053336Y51749653D01*
X41067922Y51750500D01*
X43267997Y51750500D01*
X43403328Y51777420D01*
X43403331Y51777421D01*
X43450421Y51796926D01*
X43530811Y51830225D01*
X43645543Y51906886D01*
X44486114Y52747457D01*
X44562775Y52862189D01*
X44615580Y52989672D01*
X44616059Y52992083D01*
X44616658Y52993227D01*
X44617375Y52995591D01*
X44617823Y52995454D01*
X44648967Y53054991D01*
X44710662Y53090123D01*
X44739630Y53093500D01*
X44751861Y53093500D01*
X44751886Y53093502D01*
X44811480Y53099908D01*
X44811481Y53099908D01*
X44946326Y53150201D01*
X44946329Y53150203D01*
X44946331Y53150204D01*
X45012806Y53199967D01*
X45061544Y53236452D01*
X45061544Y53236453D01*
X45061546Y53236454D01*
X45111133Y53302693D01*
X45167968Y53345239D01*
X45238784Y53350303D01*
X45301096Y53316278D01*
X45312867Y53302693D01*
X45367854Y53229241D01*
X45365719Y53227642D01*
X45393065Y53177522D01*
X45387976Y53106708D01*
X45359030Y53061686D01*
X33519720Y41222377D01*
X33457408Y41188351D01*
X33418277Y41186079D01*
X33374555Y41190386D01*
X33374553Y41190385D01*
X33374553Y41190386D01*
X33374552Y41190386D01*
X33189213Y41172132D01*
X33189211Y41172131D01*
X33189205Y41172131D01*
X33010977Y41118066D01*
X32846722Y41030269D01*
X32846720Y41030267D01*
X32846719Y41030267D01*
X32801221Y40992927D01*
X32702751Y40912115D01*
X32662205Y40862709D01*
X32584598Y40768146D01*
X32584597Y40768144D01*
X32496800Y40603889D01*
X32442735Y40425661D01*
X32442734Y40425657D01*
X32442733Y40425652D01*
X32424480Y40240314D01*
X32424480Y40240307D01*
X32442733Y40054969D01*
X32496800Y39876733D01*
X32584598Y39712475D01*
X32702751Y39568507D01*
X32846719Y39450354D01*
X32932850Y39404315D01*
X33001127Y39367820D01*
X33051774Y39318069D01*
X33067483Y39248833D01*
X33043267Y39182094D01*
X32986813Y39139042D01*
X32941729Y39130700D01*
X24481722Y39130700D01*
X24413601Y39150702D01*
X24401789Y39159300D01*
X24368036Y39187000D01*
X24327633Y39220158D01*
X24163378Y39307955D01*
X23985150Y39362020D01*
X23985141Y39362020D01*
X23985141Y39362021D01*
X23799803Y39380275D01*
X23799797Y39380275D01*
X23614458Y39362021D01*
X23614456Y39362020D01*
X23614450Y39362020D01*
X23436222Y39307955D01*
X23271967Y39220158D01*
X23271965Y39220156D01*
X23271964Y39220156D01*
X23239373Y39193409D01*
X23127996Y39102004D01*
X23061673Y39021190D01*
X23009843Y38958035D01*
X23009842Y38958033D01*
X22922045Y38793778D01*
X22867980Y38615550D01*
X22867979Y38615546D01*
X22867978Y38615541D01*
X22849725Y38430203D01*
X22849725Y38430196D01*
X22867978Y38244858D01*
X22867979Y38244852D01*
X22867980Y38244850D01*
X22895705Y38153454D01*
X22922045Y38066622D01*
X23009843Y37902364D01*
X23127996Y37758396D01*
X23271964Y37640243D01*
X23436222Y37552445D01*
X23614450Y37498380D01*
X23614452Y37498379D01*
X23614458Y37498378D01*
X23799797Y37480125D01*
X23799800Y37480125D01*
X23799803Y37480125D01*
X23985141Y37498378D01*
X23985146Y37498379D01*
X23985150Y37498380D01*
X24163378Y37552445D01*
X24327633Y37640242D01*
X24401789Y37701100D01*
X24467136Y37728853D01*
X24481722Y37729700D01*
X33462177Y37729700D01*
X33530298Y37709698D01*
X33576791Y37656042D01*
X33587570Y37616050D01*
X33604235Y37446837D01*
X33658302Y37268601D01*
X33746100Y37104344D01*
X33806957Y37030190D01*
X33834710Y36964843D01*
X33835557Y36950257D01*
X33835557Y36933856D01*
X33862477Y36798525D01*
X33862478Y36798522D01*
X33915282Y36671043D01*
X33991942Y36556312D01*
X33991947Y36556306D01*
X36219595Y34328659D01*
X36253621Y34266347D01*
X36256500Y34239564D01*
X36256500Y31998920D01*
X36236498Y31930799D01*
X36227904Y31918993D01*
X36187470Y31869725D01*
X36167040Y31844831D01*
X36079245Y31680579D01*
X36079245Y31680578D01*
X36025180Y31502350D01*
X36025179Y31502346D01*
X36025178Y31502341D01*
X36006925Y31317003D01*
X36006925Y31316996D01*
X36025178Y31131658D01*
X36079245Y30953420D01*
X36166652Y30789896D01*
X36181124Y30720390D01*
X36155720Y30654094D01*
X36098507Y30612056D01*
X36055530Y30604500D01*
X21896180Y30604500D01*
X21896175Y30604499D01*
X21842163Y30601605D01*
X21842149Y30601603D01*
X21842140Y30601603D01*
X21819052Y30599120D01*
X21815380Y30598726D01*
X21761949Y30590067D01*
X21627141Y30539785D01*
X21564829Y30505759D01*
X21449652Y30419537D01*
X21449647Y30419532D01*
X21449644Y30419530D01*
X14813521Y23783405D01*
X14751209Y23749379D01*
X14724426Y23746500D01*
X2408626Y23746500D01*
X2408626Y23747981D01*
X2345270Y23762904D01*
X2295935Y23813958D01*
X2281540Y23872441D01*
X2281540Y33023211D01*
X2301542Y33091332D01*
X2318445Y33112306D01*
X3496142Y34290003D01*
X9971925Y34290003D01*
X9971925Y34289996D01*
X9990178Y34104658D01*
X9990179Y34104652D01*
X9990180Y34104650D01*
X10000764Y34069759D01*
X10044245Y33926422D01*
X10132043Y33762164D01*
X10250196Y33618196D01*
X10394164Y33500043D01*
X10558422Y33412245D01*
X10736657Y33358178D01*
X10832119Y33348776D01*
X10897951Y33322193D01*
X10908863Y33312478D01*
X14380643Y29840698D01*
X14414669Y29778386D01*
X14409604Y29707571D01*
X14367057Y29650735D01*
X14350949Y29640484D01*
X14306731Y29616849D01*
X14162760Y29498695D01*
X14108556Y29432647D01*
X14044607Y29354726D01*
X14044606Y29354724D01*
X13956809Y29190469D01*
X13902744Y29012241D01*
X13902743Y29012237D01*
X13902742Y29012232D01*
X13884489Y28826894D01*
X13884489Y28826887D01*
X13902742Y28641549D01*
X13956809Y28463313D01*
X14044607Y28299056D01*
X14105464Y28224902D01*
X14133217Y28159555D01*
X14134064Y28144969D01*
X14134064Y28084993D01*
X14114062Y28016872D01*
X14097159Y27995898D01*
X13383352Y27282091D01*
X13321040Y27248065D01*
X13306606Y27245793D01*
X13274171Y27242598D01*
X13211147Y27236392D01*
X13211145Y27236391D01*
X13211139Y27236391D01*
X13032911Y27182326D01*
X12868656Y27094529D01*
X12868654Y27094527D01*
X12868653Y27094527D01*
X12854208Y27082672D01*
X12724685Y26976375D01*
X12667399Y26906572D01*
X12606532Y26832406D01*
X12606531Y26832404D01*
X12518734Y26668149D01*
X12464669Y26489921D01*
X12464668Y26489917D01*
X12464667Y26489912D01*
X12446414Y26304574D01*
X12446414Y26304567D01*
X12464667Y26119229D01*
X12464668Y26119223D01*
X12464669Y26119221D01*
X12497043Y26012499D01*
X12518734Y25940993D01*
X12606532Y25776735D01*
X12724685Y25632767D01*
X12868653Y25514614D01*
X13032911Y25426816D01*
X13211139Y25372751D01*
X13211141Y25372750D01*
X13211147Y25372749D01*
X13396486Y25354496D01*
X13396489Y25354496D01*
X13396492Y25354496D01*
X13581830Y25372749D01*
X13581835Y25372750D01*
X13581839Y25372751D01*
X13760067Y25426816D01*
X13924322Y25514613D01*
X13924324Y25514614D01*
X14019745Y25592925D01*
X14068293Y25632767D01*
X14186447Y25776738D01*
X14274244Y25940993D01*
X14328309Y26119221D01*
X14337711Y26214687D01*
X14364292Y26280520D01*
X14374009Y26291434D01*
X15378673Y27296098D01*
X15378678Y27296103D01*
X15455339Y27410835D01*
X15508144Y27538317D01*
X15528478Y27640544D01*
X15535064Y27673653D01*
X15535064Y28144969D01*
X15555066Y28213090D01*
X15563664Y28224902D01*
X15601669Y28271212D01*
X15624522Y28299058D01*
X15652095Y28350643D01*
X15701844Y28401289D01*
X15771081Y28416999D01*
X15833216Y28396011D01*
X15924190Y28335224D01*
X16051671Y28282420D01*
X16051678Y28282418D01*
X16077064Y28277368D01*
X16132413Y28251190D01*
X16236167Y28166042D01*
X16400422Y28078245D01*
X16578650Y28024180D01*
X16578652Y28024179D01*
X16578658Y28024178D01*
X16763997Y28005925D01*
X16764000Y28005925D01*
X16764003Y28005925D01*
X16949341Y28024178D01*
X16949346Y28024179D01*
X16949350Y28024180D01*
X17127578Y28078245D01*
X17291833Y28166042D01*
X17291835Y28166043D01*
X17395586Y28251190D01*
X17435804Y28284196D01*
X17553958Y28428167D01*
X17641755Y28592422D01*
X17695820Y28770650D01*
X17701359Y28826891D01*
X17714075Y28955996D01*
X17714075Y28956003D01*
X17695821Y29141341D01*
X17695820Y29141341D01*
X17695820Y29141350D01*
X17641755Y29319578D01*
X17553958Y29483833D01*
X17435804Y29627804D01*
X17291833Y29745958D01*
X17127578Y29833755D01*
X16949350Y29887820D01*
X16949341Y29887820D01*
X16949341Y29887821D01*
X16764003Y29906075D01*
X16763997Y29906075D01*
X16578653Y29887821D01*
X16531104Y29873397D01*
X16448505Y29848340D01*
X16377512Y29847707D01*
X16322837Y29879818D01*
X11899518Y34303137D01*
X11865494Y34365447D01*
X11863222Y34379882D01*
X11853821Y34475341D01*
X11853820Y34475341D01*
X11853820Y34475350D01*
X11799755Y34653578D01*
X11711958Y34817833D01*
X11593804Y34961804D01*
X11449833Y35079958D01*
X11285578Y35167755D01*
X11107350Y35221820D01*
X11107341Y35221820D01*
X11107341Y35221821D01*
X10922003Y35240075D01*
X10921997Y35240075D01*
X10736658Y35221821D01*
X10736656Y35221820D01*
X10736650Y35221820D01*
X10558422Y35167755D01*
X10394167Y35079958D01*
X10394165Y35079956D01*
X10394164Y35079956D01*
X10360100Y35052000D01*
X10250196Y34961804D01*
X10210737Y34913723D01*
X10132043Y34817835D01*
X10132042Y34817833D01*
X10044245Y34653578D01*
X9990180Y34475350D01*
X9990179Y34475346D01*
X9990178Y34475341D01*
X9971925Y34290003D01*
X3496142Y34290003D01*
X5124413Y35918274D01*
X5124418Y35918279D01*
X5227891Y36073138D01*
X5299165Y36245208D01*
X5335500Y36427876D01*
X5335500Y36614124D01*
X5335500Y37884500D01*
X5355502Y37952621D01*
X5409158Y37999114D01*
X5461500Y38010500D01*
X6374364Y38010500D01*
X6374385Y38010502D01*
X6433980Y38016908D01*
X6433981Y38016908D01*
X6568826Y38067201D01*
X6568829Y38067203D01*
X6568831Y38067204D01*
X6607091Y38095845D01*
X6684046Y38153453D01*
X6752471Y38244858D01*
X6770296Y38268669D01*
X6770296Y38268671D01*
X6770298Y38268673D01*
X6820590Y38403515D01*
X6820591Y38403517D01*
X6827000Y38463127D01*
X6826999Y42558872D01*
X6820591Y42618483D01*
X6770296Y42753331D01*
X6684046Y42868546D01*
X6568831Y42954796D01*
X6433983Y43005091D01*
X6374373Y43011500D01*
X2278628Y43011499D01*
X2219017Y43005091D01*
X2161935Y42983800D01*
X2084173Y42954798D01*
X2084171Y42954796D01*
X2084169Y42954796D01*
X2029216Y42913658D01*
X1968953Y42868546D01*
X1882703Y42753329D01*
X1882701Y42753326D01*
X1832409Y42618484D01*
X1826000Y42558878D01*
X1826000Y38463135D01*
X1826002Y38463114D01*
X1832408Y38403519D01*
X1832408Y38403518D01*
X1882701Y38268673D01*
X1882703Y38268670D01*
X1968953Y38153453D01*
X2084170Y38067203D01*
X2084173Y38067201D01*
X2219016Y38016909D01*
X2219013Y38016909D01*
X2278621Y38010500D01*
X2278627Y38010500D01*
X3318500Y38010500D01*
X3386621Y37990498D01*
X3433114Y37936842D01*
X3444500Y37884500D01*
X3444500Y36964829D01*
X3424498Y36896708D01*
X3407595Y36875734D01*
X733319Y34201458D01*
X601622Y34069761D01*
X498149Y33914902D01*
X498148Y33914899D01*
X495265Y33910585D01*
X440788Y33865057D01*
X370345Y33856209D01*
X306301Y33886850D01*
X268990Y33947252D01*
X264500Y33980587D01*
X264500Y45237403D01*
X20233525Y45237403D01*
X20233525Y45237396D01*
X20251778Y45052058D01*
X20251779Y45052052D01*
X20251780Y45052050D01*
X20267814Y44999193D01*
X20305845Y44873822D01*
X20393643Y44709564D01*
X20511796Y44565596D01*
X20655764Y44447443D01*
X20794451Y44373313D01*
X20820022Y44359645D01*
X20998250Y44305580D01*
X20998252Y44305579D01*
X20998258Y44305578D01*
X21183597Y44287325D01*
X21183600Y44287325D01*
X21183603Y44287325D01*
X21368941Y44305578D01*
X21368946Y44305579D01*
X21368950Y44305580D01*
X21547178Y44359645D01*
X21711433Y44447442D01*
X21711435Y44447443D01*
X21774590Y44499273D01*
X21855404Y44565596D01*
X21973558Y44709567D01*
X22061355Y44873822D01*
X22115420Y45052050D01*
X22118087Y45079126D01*
X22133675Y45237396D01*
X22133675Y45237403D01*
X22115421Y45422741D01*
X22115420Y45422741D01*
X22115420Y45422750D01*
X22061355Y45600978D01*
X21973558Y45765233D01*
X21912700Y45839387D01*
X21884947Y45904732D01*
X21884100Y45919320D01*
X21884100Y49162253D01*
X21904102Y49230374D01*
X21921005Y49251348D01*
X22896109Y50226452D01*
X22896114Y50226457D01*
X22972775Y50341189D01*
X23025580Y50468672D01*
X23038285Y50532544D01*
X23052500Y50604007D01*
X23052500Y55994157D01*
X23314500Y55994157D01*
X23314500Y55765843D01*
X23346818Y55561796D01*
X23350217Y55540336D01*
X23420769Y55323201D01*
X23420770Y55323199D01*
X23524423Y55119768D01*
X23658622Y54935060D01*
X23820060Y54773622D01*
X24004768Y54639423D01*
X24208199Y54535770D01*
X24208201Y54535769D01*
X24425336Y54465217D01*
X24425337Y54465216D01*
X24425340Y54465216D01*
X24650843Y54429500D01*
X24650846Y54429500D01*
X24879154Y54429500D01*
X24879157Y54429500D01*
X25104660Y54465216D01*
X25321799Y54535769D01*
X25525228Y54639421D01*
X25525231Y54639423D01*
X25709939Y54773622D01*
X25871377Y54935060D01*
X25959539Y55056404D01*
X26005579Y55119772D01*
X26109231Y55323201D01*
X26179784Y55540340D01*
X26215500Y55765843D01*
X26215500Y55994157D01*
X26179784Y56219660D01*
X26109231Y56436799D01*
X26005579Y56640228D01*
X25871379Y56824937D01*
X25709937Y56986379D01*
X25525228Y57120579D01*
X25321799Y57224231D01*
X25104660Y57294784D01*
X24879157Y57330500D01*
X24650843Y57330500D01*
X24425340Y57294784D01*
X24208201Y57224231D01*
X24004772Y57120579D01*
X24004768Y57120576D01*
X23820060Y56986377D01*
X23658622Y56824939D01*
X23539803Y56661400D01*
X23524421Y56640228D01*
X23420769Y56436799D01*
X23350216Y56219660D01*
X23314500Y55994157D01*
X23052500Y55994157D01*
X23052500Y57230078D01*
X23072502Y57298199D01*
X23081100Y57310011D01*
X23115277Y57351656D01*
X23141958Y57384167D01*
X23229755Y57548422D01*
X23283820Y57726650D01*
X23283821Y57726658D01*
X23302075Y57911996D01*
X23302075Y57912003D01*
X23283821Y58097341D01*
X23283820Y58097341D01*
X23283820Y58097350D01*
X23229755Y58275578D01*
X23141958Y58439833D01*
X23023804Y58583804D01*
X22879833Y58701958D01*
X22715578Y58789755D01*
X22537350Y58843820D01*
X22537341Y58843820D01*
X22537341Y58843821D01*
X22352003Y58862075D01*
X22351997Y58862075D01*
X22166658Y58843821D01*
X22166656Y58843820D01*
X22166650Y58843820D01*
X21988422Y58789755D01*
X21824167Y58701958D01*
X21824165Y58701956D01*
X21824164Y58701956D01*
X21778666Y58664616D01*
X21680196Y58583804D01*
X21615147Y58504542D01*
X21562043Y58439835D01*
X21562042Y58439833D01*
X21474245Y58275578D01*
X21420180Y58097350D01*
X21420179Y58097346D01*
X21420178Y58097341D01*
X21401925Y57912003D01*
X21401925Y57911996D01*
X21420178Y57726658D01*
X21420179Y57726652D01*
X21420180Y57726650D01*
X21459169Y57598120D01*
X21474245Y57548422D01*
X21562043Y57384165D01*
X21622900Y57310011D01*
X21650653Y57244664D01*
X21651500Y57230078D01*
X21651500Y51015347D01*
X21631498Y50947226D01*
X21614595Y50926252D01*
X20639489Y49951147D01*
X20639483Y49951139D01*
X20615987Y49915974D01*
X20615986Y49915972D01*
X20562825Y49836411D01*
X20510021Y49708931D01*
X20510020Y49708928D01*
X20483100Y49573595D01*
X20483100Y45919320D01*
X20463098Y45851199D01*
X20454504Y45839393D01*
X20414070Y45790125D01*
X20393640Y45765231D01*
X20305845Y45600979D01*
X20305845Y45600978D01*
X20251780Y45422750D01*
X20251779Y45422746D01*
X20251778Y45422741D01*
X20233525Y45237403D01*
X264500Y45237403D01*
X264500Y55880003D01*
X1074675Y55880003D01*
X1074675Y55879996D01*
X1082198Y55726868D01*
X1091530Y55536904D01*
X1093962Y55487412D01*
X1093963Y55487398D01*
X1132815Y55225483D01*
X1151636Y55098600D01*
X1192600Y54935063D01*
X1247144Y54717310D01*
X1379561Y54347230D01*
X1547621Y53991899D01*
X1749696Y53654756D01*
X1983834Y53339057D01*
X2247808Y53047808D01*
X2539057Y52783834D01*
X2854756Y52549696D01*
X3191899Y52347621D01*
X3547230Y52179561D01*
X3917310Y52047144D01*
X4107958Y51999389D01*
X4298600Y51951636D01*
X4298604Y51951635D01*
X4298606Y51951635D01*
X4687398Y51893963D01*
X4687406Y51893962D01*
X4687409Y51893962D01*
X4855662Y51885696D01*
X5079996Y51874675D01*
X5080000Y51874675D01*
X5080004Y51874675D01*
X5276295Y51884318D01*
X5472591Y51893962D01*
X5472594Y51893962D01*
X5472601Y51893963D01*
X5861393Y51951635D01*
X5861400Y51951636D01*
X6146995Y52023174D01*
X6242689Y52047144D01*
X6612769Y52179561D01*
X6612772Y52179562D01*
X6968097Y52347619D01*
X7147507Y52455153D01*
X7305243Y52549696D01*
X7620942Y52783834D01*
X7707393Y52862189D01*
X7912192Y53047808D01*
X8176158Y53339049D01*
X8176159Y53339050D01*
X8176165Y53339057D01*
X8410303Y53654756D01*
X8497435Y53800127D01*
X8612381Y53991903D01*
X8780438Y54347228D01*
X8912857Y54717316D01*
X9008364Y55098600D01*
X9066038Y55487409D01*
X9084642Y55866091D01*
X9085325Y55879996D01*
X9085325Y55880003D01*
X9080948Y55969095D01*
X9066038Y56272591D01*
X9008364Y56661400D01*
X8912857Y57042684D01*
X8780438Y57412772D01*
X8612381Y57768097D01*
X8497432Y57959878D01*
X13215500Y57959878D01*
X13215500Y56340135D01*
X13215502Y56340114D01*
X13221908Y56280519D01*
X13221908Y56280518D01*
X13272201Y56145673D01*
X13272203Y56145670D01*
X13358452Y56030455D01*
X13390061Y56006792D01*
X13424693Y55980866D01*
X13467239Y55924032D01*
X13472303Y55853216D01*
X13438278Y55790904D01*
X13424697Y55779136D01*
X13358454Y55729546D01*
X13358453Y55729545D01*
X13358452Y55729544D01*
X13315086Y55671614D01*
X13275325Y55618499D01*
X13272203Y55614329D01*
X13272201Y55614326D01*
X13221909Y55479484D01*
X13215500Y55419878D01*
X13215500Y53800135D01*
X13215502Y53800114D01*
X13221908Y53740519D01*
X13221908Y53740518D01*
X13272201Y53605673D01*
X13272203Y53605670D01*
X13358453Y53490453D01*
X13473670Y53404203D01*
X13473673Y53404201D01*
X13608516Y53353909D01*
X13608513Y53353909D01*
X13668126Y53347500D01*
X13668127Y53347500D01*
X15287864Y53347500D01*
X15287885Y53347502D01*
X15347480Y53353908D01*
X15347481Y53353908D01*
X15482326Y53404201D01*
X15482329Y53404203D01*
X15482331Y53404204D01*
X15559216Y53461760D01*
X15597544Y53490452D01*
X15597544Y53490453D01*
X15597546Y53490454D01*
X15647133Y53556693D01*
X15703968Y53599239D01*
X15774784Y53604303D01*
X15837096Y53570278D01*
X15848863Y53556697D01*
X15856782Y53546121D01*
X15898455Y53490452D01*
X16013670Y53404203D01*
X16013673Y53404201D01*
X16148516Y53353909D01*
X16148513Y53353909D01*
X16208126Y53347500D01*
X16208127Y53347500D01*
X17827864Y53347500D01*
X17827885Y53347502D01*
X17887480Y53353908D01*
X17887481Y53353908D01*
X18022326Y53404201D01*
X18022329Y53404203D01*
X18022331Y53404204D01*
X18060591Y53432845D01*
X18137546Y53490453D01*
X18180671Y53548061D01*
X18223796Y53605669D01*
X18223796Y53605671D01*
X18223798Y53605673D01*
X18274090Y53740515D01*
X18274091Y53740517D01*
X18280500Y53800127D01*
X18280499Y55419872D01*
X18274091Y55479483D01*
X18224632Y55612090D01*
X18223798Y55614326D01*
X18223797Y55614326D01*
X18223796Y55614331D01*
X18137546Y55729546D01*
X18071306Y55779133D01*
X18028760Y55835968D01*
X18023696Y55906783D01*
X18057721Y55969095D01*
X18071302Y55980863D01*
X18137546Y56030454D01*
X18223796Y56145669D01*
X18223796Y56145671D01*
X18223798Y56145673D01*
X18257326Y56235567D01*
X18274091Y56280517D01*
X18280500Y56340127D01*
X18280499Y57959872D01*
X18274091Y58019483D01*
X18224632Y58152090D01*
X18223798Y58154326D01*
X18223797Y58154326D01*
X18223796Y58154331D01*
X18137546Y58269546D01*
X18022331Y58355796D01*
X17887483Y58406091D01*
X17827873Y58412500D01*
X16208128Y58412499D01*
X16148517Y58406091D01*
X16104868Y58389811D01*
X16013673Y58355798D01*
X16013671Y58355796D01*
X16013669Y58355796D01*
X15898454Y58269546D01*
X15848866Y58203306D01*
X15792032Y58160760D01*
X15721217Y58155696D01*
X15658905Y58189721D01*
X15647136Y58203302D01*
X15597546Y58269546D01*
X15482331Y58355796D01*
X15347483Y58406091D01*
X15287873Y58412500D01*
X13668128Y58412499D01*
X13608517Y58406091D01*
X13564868Y58389811D01*
X13473673Y58355798D01*
X13473671Y58355796D01*
X13473669Y58355796D01*
X13416061Y58312671D01*
X13358453Y58269546D01*
X13308867Y58203307D01*
X13275325Y58158499D01*
X13272203Y58154329D01*
X13272201Y58154326D01*
X13221909Y58019484D01*
X13215500Y57959878D01*
X8497432Y57959878D01*
X8410306Y58105239D01*
X8288448Y58269546D01*
X8176165Y58420942D01*
X8176163Y58420943D01*
X8176158Y58420951D01*
X7912192Y58712192D01*
X7620951Y58976158D01*
X7619446Y58977274D01*
X7305243Y59210303D01*
X7305239Y59210306D01*
X6968097Y59412381D01*
X6612772Y59580438D01*
X6242684Y59712857D01*
X5861400Y59808364D01*
X5472591Y59866038D01*
X5135384Y59882604D01*
X5080004Y59885325D01*
X5079996Y59885325D01*
X5022590Y59882504D01*
X4687409Y59866038D01*
X4298600Y59808364D01*
X3917316Y59712857D01*
X3547228Y59580438D01*
X3191903Y59412381D01*
X2854761Y59210306D01*
X2854756Y59210303D01*
X2539057Y58976165D01*
X2539050Y58976159D01*
X2539049Y58976158D01*
X2247808Y58712192D01*
X2000956Y58439833D01*
X1983834Y58420942D01*
X1749696Y58105243D01*
X1656232Y57949307D01*
X1547619Y57768097D01*
X1379562Y57412772D01*
X1379561Y57412769D01*
X1247144Y57042689D01*
X1231486Y56980178D01*
X1151636Y56661400D01*
X1151635Y56661393D01*
X1095138Y56280517D01*
X1093962Y56272591D01*
X1084801Y56086121D01*
X1074675Y55880003D01*
X264500Y55880003D01*
X264500Y60569500D01*
X284502Y60637621D01*
X338158Y60684114D01*
X390500Y60695500D01*
X80889500Y60695500D01*
X80957621Y60675498D01*
G37*
%TD.AperFunction*%
%TA.AperFunction,Conductor*%
G36*
X45161621Y57635997D02*
G01*
X45208114Y57582341D01*
X45219500Y57529999D01*
X45219500Y56086135D01*
X45219502Y56086114D01*
X45225908Y56026519D01*
X45225908Y56026518D01*
X45276201Y55891673D01*
X45276203Y55891670D01*
X45362452Y55776455D01*
X45362622Y55776328D01*
X45428693Y55726866D01*
X45471239Y55670032D01*
X45476303Y55599216D01*
X45442278Y55536904D01*
X45428697Y55525136D01*
X45362454Y55475546D01*
X45362453Y55475545D01*
X45362452Y55475544D01*
X45338652Y55443750D01*
X45312866Y55409306D01*
X45256032Y55366760D01*
X45185217Y55361696D01*
X45122905Y55395721D01*
X45111136Y55409302D01*
X45061546Y55475546D01*
X44946331Y55561796D01*
X44811483Y55612091D01*
X44751873Y55618500D01*
X43132128Y55618499D01*
X43072517Y55612091D01*
X43015435Y55590800D01*
X42937673Y55561798D01*
X42937671Y55561796D01*
X42937669Y55561796D01*
X42822454Y55475546D01*
X42772866Y55409306D01*
X42716032Y55366760D01*
X42645217Y55361696D01*
X42582905Y55395721D01*
X42571136Y55409302D01*
X42521546Y55475546D01*
X42455306Y55525133D01*
X42412760Y55581968D01*
X42407696Y55652783D01*
X42441721Y55715095D01*
X42455302Y55726863D01*
X42521546Y55776454D01*
X42607796Y55891669D01*
X42607796Y55891671D01*
X42607798Y55891673D01*
X42646020Y55994153D01*
X42658091Y56026517D01*
X42664500Y56086127D01*
X42664499Y57529999D01*
X42684501Y57598120D01*
X42738157Y57644613D01*
X42790499Y57655999D01*
X45093500Y57655999D01*
X45161621Y57635997D01*
G37*
%TD.AperFunction*%
%TD*%
M02*
